G04*
G04 #@! TF.GenerationSoftware,Altium Limited,Altium Designer,20.0.13 (296)*
G04*
G04 Layer_Color=65535*
%FSLAX24Y24*%
%MOIN*%
G70*
G01*
G75*
%ADD10C,0.0079*%
%ADD11C,0.0200*%
%ADD12C,0.0100*%
%ADD13C,0.0080*%
%ADD14C,0.0050*%
%ADD15C,0.0060*%
%ADD16C,0.0090*%
%ADD17R,0.1000X0.0500*%
G36*
X5877Y24103D02*
Y24114D01*
Y24124D01*
Y24135D01*
Y24146D01*
Y24156D01*
Y24167D01*
Y24178D01*
Y24188D01*
Y24199D01*
Y24209D01*
Y24220D01*
Y24231D01*
Y24241D01*
Y24252D01*
Y24263D01*
Y24273D01*
Y24284D01*
Y24295D01*
Y24305D01*
Y24316D01*
Y24327D01*
Y24337D01*
Y24348D01*
Y24359D01*
Y24369D01*
Y24380D01*
Y24391D01*
Y24401D01*
Y24412D01*
Y24422D01*
Y24433D01*
Y24444D01*
Y24454D01*
Y24465D01*
Y24476D01*
Y24486D01*
Y24497D01*
Y24508D01*
Y24518D01*
Y24529D01*
Y24540D01*
Y24550D01*
Y24561D01*
Y24572D01*
Y24582D01*
Y24593D01*
Y24604D01*
Y24614D01*
Y24625D01*
Y24636D01*
Y24646D01*
Y24657D01*
Y24667D01*
Y24678D01*
Y24689D01*
Y24699D01*
Y24710D01*
Y24721D01*
Y24731D01*
Y24742D01*
Y24753D01*
Y24763D01*
Y24774D01*
Y24785D01*
Y24795D01*
X5845D01*
Y24785D01*
X5813D01*
Y24774D01*
X5781D01*
Y24763D01*
X5760D01*
Y24753D01*
X5739D01*
Y24742D01*
X5717D01*
Y24731D01*
X5707D01*
Y24721D01*
X5685D01*
Y24710D01*
X5664D01*
Y24699D01*
X5654D01*
Y24689D01*
X5643D01*
Y24678D01*
X5622D01*
Y24667D01*
X5611D01*
Y24657D01*
X5600D01*
Y24646D01*
X5590D01*
Y24636D01*
X5579D01*
Y24625D01*
X5568D01*
Y24614D01*
X5558D01*
Y24604D01*
X5547D01*
Y24593D01*
X5536D01*
Y24582D01*
X5526D01*
Y24572D01*
X5515D01*
Y24561D01*
X5504D01*
Y24550D01*
Y24540D01*
X5494D01*
Y24529D01*
X5483D01*
Y24518D01*
X5472D01*
Y24508D01*
Y24497D01*
X5462D01*
Y24486D01*
X5451D01*
Y24476D01*
Y24465D01*
X5441D01*
Y24454D01*
Y24444D01*
X5430D01*
Y24433D01*
Y24422D01*
X5419D01*
Y24412D01*
Y24401D01*
X5409D01*
Y24391D01*
Y24380D01*
X5398D01*
Y24369D01*
Y24359D01*
Y24348D01*
X5387D01*
Y24337D01*
Y24327D01*
Y24316D01*
X5377D01*
Y24305D01*
Y24295D01*
Y24284D01*
Y24273D01*
X5366D01*
Y24263D01*
Y24252D01*
Y24241D01*
Y24231D01*
Y24220D01*
X5355D01*
Y24209D01*
Y24199D01*
Y24188D01*
Y24178D01*
Y24167D01*
Y24156D01*
Y24146D01*
Y24135D01*
Y24124D01*
Y24114D01*
X4961D01*
Y24124D01*
Y24135D01*
Y24146D01*
Y24156D01*
Y24167D01*
Y24178D01*
Y24188D01*
X4972D01*
Y24199D01*
Y24209D01*
Y24220D01*
Y24231D01*
Y24241D01*
Y24252D01*
Y24263D01*
Y24273D01*
Y24284D01*
Y24295D01*
X4983D01*
Y24305D01*
Y24316D01*
Y24327D01*
Y24337D01*
Y24348D01*
X4993D01*
Y24359D01*
Y24369D01*
Y24380D01*
Y24391D01*
X5004D01*
Y24401D01*
Y24412D01*
Y24422D01*
Y24433D01*
X5015D01*
Y24444D01*
Y24454D01*
Y24465D01*
X5025D01*
Y24476D01*
Y24486D01*
Y24497D01*
X5036D01*
Y24508D01*
Y24518D01*
X5046D01*
Y24529D01*
Y24540D01*
Y24550D01*
X5057D01*
Y24561D01*
Y24572D01*
X5068D01*
Y24582D01*
Y24593D01*
X5078D01*
Y24604D01*
Y24614D01*
X5089D01*
Y24625D01*
Y24636D01*
X5100D01*
Y24646D01*
Y24657D01*
X5110D01*
Y24667D01*
Y24678D01*
X5121D01*
Y24689D01*
X5132D01*
Y24699D01*
Y24710D01*
X5142D01*
Y24721D01*
X5153D01*
Y24731D01*
Y24742D01*
X5164D01*
Y24753D01*
X5174D01*
Y24763D01*
Y24774D01*
X5185D01*
Y24785D01*
X5196D01*
Y24795D01*
X5206D01*
Y24806D01*
X5217D01*
Y24817D01*
Y24827D01*
X5228D01*
Y24838D01*
X5238D01*
Y24849D01*
X5249D01*
Y24859D01*
X5259D01*
Y24870D01*
X5270D01*
Y24880D01*
X5281D01*
Y24891D01*
X5291D01*
Y24902D01*
X5302D01*
Y24912D01*
X5313D01*
Y24923D01*
X5323D01*
Y24934D01*
X5334D01*
Y24944D01*
X5345D01*
Y24955D01*
X5355D01*
Y24966D01*
X5377D01*
Y24976D01*
X5387D01*
Y24987D01*
X5398D01*
Y24998D01*
X5419D01*
Y25008D01*
X5430D01*
Y25019D01*
X5441D01*
Y25030D01*
X5462D01*
Y25040D01*
X5472D01*
Y25051D01*
X5494D01*
Y25062D01*
X5515D01*
Y25072D01*
X5526D01*
Y25083D01*
X5547D01*
Y25093D01*
X5568D01*
Y25104D01*
X5590D01*
Y25115D01*
X5611D01*
Y25125D01*
X5643D01*
Y25136D01*
X5664D01*
Y25147D01*
X5696D01*
Y25157D01*
X5728D01*
Y25168D01*
X5760D01*
Y25179D01*
X5803D01*
Y25189D01*
X5845D01*
Y25200D01*
X5877D01*
Y25211D01*
Y25221D01*
X5015D01*
Y25232D01*
Y25243D01*
Y25253D01*
Y25264D01*
Y25275D01*
Y25285D01*
Y25296D01*
Y25307D01*
Y25317D01*
Y25328D01*
Y25338D01*
Y25349D01*
Y25360D01*
Y25370D01*
Y25381D01*
Y25392D01*
Y25402D01*
Y25413D01*
Y25424D01*
Y25434D01*
Y25445D01*
Y25456D01*
Y25466D01*
Y25477D01*
Y25488D01*
Y25498D01*
Y25509D01*
Y25520D01*
Y25530D01*
Y25541D01*
Y25551D01*
Y25562D01*
Y25573D01*
Y25583D01*
Y25594D01*
Y25605D01*
X5781D01*
Y25615D01*
X5749D01*
Y25626D01*
X5707D01*
Y25637D01*
X5685D01*
Y25647D01*
X5654D01*
Y25658D01*
X5632D01*
Y25669D01*
X5600D01*
Y25679D01*
X5579D01*
Y25690D01*
X5558D01*
Y25701D01*
X5536D01*
Y25711D01*
X5526D01*
Y25722D01*
X5504D01*
Y25733D01*
X5483D01*
Y25743D01*
X5472D01*
Y25754D01*
X5451D01*
Y25765D01*
X5441D01*
Y25775D01*
X5419D01*
Y25786D01*
X5409D01*
Y25796D01*
X5398D01*
Y25807D01*
X5377D01*
Y25818D01*
X5366D01*
Y25828D01*
X5355D01*
Y25839D01*
X5345D01*
Y25850D01*
X5323D01*
Y25860D01*
X5313D01*
Y25871D01*
X5302D01*
Y25882D01*
X5291D01*
Y25892D01*
X5281D01*
Y25903D01*
X5270D01*
Y25914D01*
X5259D01*
Y25924D01*
X5249D01*
Y25935D01*
Y25946D01*
X5238D01*
Y25956D01*
X5228D01*
Y25967D01*
X5217D01*
Y25978D01*
X5206D01*
Y25988D01*
X5196D01*
Y25999D01*
Y26009D01*
X5185D01*
Y26020D01*
X5174D01*
Y26031D01*
X5164D01*
Y26041D01*
Y26052D01*
X5153D01*
Y26063D01*
X5142D01*
Y26073D01*
Y26084D01*
X5132D01*
Y26095D01*
X5121D01*
Y26105D01*
Y26116D01*
X5110D01*
Y26127D01*
Y26137D01*
X5100D01*
Y26148D01*
Y26159D01*
X5089D01*
Y26169D01*
Y26180D01*
X5078D01*
Y26191D01*
Y26201D01*
X5068D01*
Y26212D01*
Y26222D01*
X5057D01*
Y26233D01*
Y26244D01*
X5046D01*
Y26254D01*
Y26265D01*
X5036D01*
Y26276D01*
Y26286D01*
Y26297D01*
X5025D01*
Y26308D01*
Y26318D01*
Y26329D01*
X5015D01*
Y26340D01*
Y26350D01*
Y26361D01*
X5004D01*
Y26372D01*
Y26382D01*
Y26393D01*
Y26404D01*
X4993D01*
Y26414D01*
Y26425D01*
Y26435D01*
Y26446D01*
X4983D01*
Y26457D01*
Y26467D01*
Y26478D01*
Y26489D01*
Y26499D01*
X4972D01*
Y26510D01*
Y26521D01*
Y26531D01*
Y26542D01*
Y26553D01*
Y26563D01*
Y26574D01*
Y26585D01*
Y26595D01*
Y26606D01*
X4961D01*
Y26617D01*
Y26627D01*
Y26638D01*
Y26649D01*
Y26659D01*
X5355D01*
Y26649D01*
Y26638D01*
Y26627D01*
Y26617D01*
Y26606D01*
Y26595D01*
Y26585D01*
Y26574D01*
X5366D01*
Y26563D01*
Y26553D01*
Y26542D01*
Y26531D01*
Y26521D01*
Y26510D01*
X5377D01*
Y26499D01*
Y26489D01*
Y26478D01*
X5387D01*
Y26467D01*
Y26457D01*
Y26446D01*
Y26435D01*
X5398D01*
Y26425D01*
Y26414D01*
X5409D01*
Y26404D01*
Y26393D01*
Y26382D01*
X5419D01*
Y26372D01*
Y26361D01*
X5430D01*
Y26350D01*
Y26340D01*
X5441D01*
Y26329D01*
X5451D01*
Y26318D01*
Y26308D01*
X5462D01*
Y26297D01*
Y26286D01*
X5472D01*
Y26276D01*
X5483D01*
Y26265D01*
Y26254D01*
X5494D01*
Y26244D01*
X5504D01*
Y26233D01*
X5515D01*
Y26222D01*
X5526D01*
Y26212D01*
Y26201D01*
X5536D01*
Y26191D01*
X5547D01*
Y26180D01*
X5558D01*
Y26169D01*
X5568D01*
Y26159D01*
X5579D01*
Y26148D01*
X5590D01*
Y26137D01*
X5611D01*
Y26127D01*
X5622D01*
Y26116D01*
X5632D01*
Y26105D01*
X5643D01*
Y26095D01*
X5664D01*
Y26084D01*
X5675D01*
Y26073D01*
X5696D01*
Y26063D01*
X5707D01*
Y26052D01*
X5728D01*
Y26041D01*
X5749D01*
Y26031D01*
X5771D01*
Y26020D01*
X5803D01*
Y26009D01*
X5824D01*
Y25999D01*
X5856D01*
Y25988D01*
X5877D01*
Y25999D01*
Y26009D01*
Y26020D01*
Y26031D01*
Y26041D01*
Y26052D01*
Y26063D01*
Y26073D01*
Y26084D01*
Y26095D01*
Y26105D01*
Y26116D01*
Y26127D01*
Y26137D01*
Y26148D01*
Y26159D01*
Y26169D01*
Y26180D01*
Y26191D01*
Y26201D01*
Y26212D01*
Y26222D01*
Y26233D01*
Y26244D01*
Y26254D01*
Y26265D01*
Y26276D01*
Y26286D01*
Y26297D01*
Y26308D01*
Y26318D01*
Y26329D01*
Y26340D01*
Y26350D01*
Y26361D01*
Y26372D01*
Y26382D01*
Y26393D01*
Y26404D01*
Y26414D01*
Y26425D01*
Y26435D01*
Y26446D01*
Y26457D01*
Y26467D01*
Y26478D01*
Y26489D01*
Y26499D01*
Y26510D01*
Y26521D01*
Y26531D01*
Y26542D01*
Y26553D01*
Y26563D01*
Y26574D01*
Y26585D01*
Y26595D01*
Y26606D01*
Y26617D01*
Y26627D01*
Y26638D01*
Y26649D01*
Y26659D01*
X6250D01*
Y26649D01*
Y26638D01*
Y26627D01*
Y26617D01*
Y26606D01*
Y26595D01*
Y26585D01*
Y26574D01*
Y26563D01*
Y26553D01*
Y26542D01*
Y26531D01*
Y26521D01*
Y26510D01*
Y26499D01*
Y26489D01*
Y26478D01*
Y26467D01*
Y26457D01*
Y26446D01*
Y26435D01*
Y26425D01*
Y26414D01*
Y26404D01*
Y26393D01*
Y26382D01*
Y26372D01*
Y26361D01*
Y26350D01*
Y26340D01*
Y26329D01*
Y26318D01*
Y26308D01*
Y26297D01*
Y26286D01*
Y26276D01*
Y26265D01*
Y26254D01*
Y26244D01*
Y26233D01*
Y26222D01*
Y26212D01*
Y26201D01*
Y26191D01*
Y26180D01*
Y26169D01*
Y26159D01*
Y26148D01*
Y26137D01*
Y26127D01*
Y26116D01*
Y26105D01*
Y26095D01*
Y26084D01*
Y26073D01*
Y26063D01*
Y26052D01*
Y26041D01*
Y26031D01*
Y26020D01*
Y26009D01*
Y25999D01*
Y25988D01*
X6271D01*
Y25999D01*
X6303D01*
Y26009D01*
X6325D01*
Y26020D01*
X6357D01*
Y26031D01*
X6378D01*
Y26041D01*
X6399D01*
Y26052D01*
X6420D01*
Y26063D01*
X6431D01*
Y26073D01*
X6452D01*
Y26084D01*
X6463D01*
Y26095D01*
X6484D01*
Y26105D01*
X6495D01*
Y26116D01*
X6506D01*
Y26127D01*
X6527D01*
Y26137D01*
X6538D01*
Y26148D01*
X6548D01*
Y26159D01*
X6559D01*
Y26169D01*
X6570D01*
Y26180D01*
X6580D01*
Y26191D01*
X6591D01*
Y26201D01*
X6601D01*
Y26212D01*
X6612D01*
Y26222D01*
Y26233D01*
X6623D01*
Y26244D01*
X6633D01*
Y26254D01*
X6644D01*
Y26265D01*
Y26276D01*
X6655D01*
Y26286D01*
X6665D01*
Y26297D01*
Y26308D01*
X6676D01*
Y26318D01*
X6687D01*
Y26329D01*
Y26340D01*
X6697D01*
Y26350D01*
Y26361D01*
X6708D01*
Y26372D01*
Y26382D01*
X6719D01*
Y26393D01*
Y26404D01*
Y26414D01*
X6729D01*
Y26425D01*
Y26435D01*
X6740D01*
Y26446D01*
Y26457D01*
Y26467D01*
X6751D01*
Y26478D01*
Y26489D01*
Y26499D01*
Y26510D01*
X6761D01*
Y26521D01*
Y26531D01*
Y26542D01*
Y26553D01*
Y26563D01*
Y26574D01*
X6772D01*
Y26585D01*
Y26595D01*
Y26606D01*
Y26617D01*
Y26627D01*
Y26638D01*
Y26649D01*
Y26659D01*
X7145D01*
Y26649D01*
Y26638D01*
Y26627D01*
Y26617D01*
Y26606D01*
Y26595D01*
Y26585D01*
Y26574D01*
Y26563D01*
Y26553D01*
Y26542D01*
Y26531D01*
Y26521D01*
Y26510D01*
Y26499D01*
Y26489D01*
Y26478D01*
Y26467D01*
Y26457D01*
Y26446D01*
Y26435D01*
X7134D01*
Y26425D01*
Y26414D01*
Y26404D01*
Y26393D01*
X7123D01*
Y26382D01*
Y26372D01*
Y26361D01*
X7113D01*
Y26350D01*
Y26340D01*
Y26329D01*
Y26318D01*
X7102D01*
Y26308D01*
Y26297D01*
X7091D01*
Y26286D01*
Y26276D01*
Y26265D01*
X7081D01*
Y26254D01*
Y26244D01*
X7070D01*
Y26233D01*
Y26222D01*
Y26212D01*
X7059D01*
Y26201D01*
Y26191D01*
X7049D01*
Y26180D01*
Y26169D01*
X7038D01*
Y26159D01*
Y26148D01*
X7028D01*
Y26137D01*
X7017D01*
Y26127D01*
Y26116D01*
X7006D01*
Y26105D01*
Y26095D01*
X6996D01*
Y26084D01*
X6985D01*
Y26073D01*
Y26063D01*
X6974D01*
Y26052D01*
X6964D01*
Y26041D01*
Y26031D01*
X6953D01*
Y26020D01*
X6942D01*
Y26009D01*
Y25999D01*
X6932D01*
Y25988D01*
X6921D01*
Y25978D01*
X6910D01*
Y25967D01*
X6900D01*
Y25956D01*
X6889D01*
Y25946D01*
Y25935D01*
X6878D01*
Y25924D01*
X6868D01*
Y25914D01*
X6857D01*
Y25903D01*
X6846D01*
Y25892D01*
X6836D01*
Y25882D01*
X6825D01*
Y25871D01*
X6815D01*
Y25860D01*
X6804D01*
Y25850D01*
X6783D01*
Y25839D01*
X6772D01*
Y25828D01*
X6761D01*
Y25818D01*
X6751D01*
Y25807D01*
X6740D01*
Y25796D01*
X6719D01*
Y25786D01*
X6708D01*
Y25775D01*
X6687D01*
Y25765D01*
X6676D01*
Y25754D01*
X6655D01*
Y25743D01*
X6644D01*
Y25733D01*
X6623D01*
Y25722D01*
X6612D01*
Y25711D01*
X6591D01*
Y25701D01*
X6570D01*
Y25690D01*
X6548D01*
Y25679D01*
X6527D01*
Y25669D01*
X6506D01*
Y25658D01*
X6474D01*
Y25647D01*
X6452D01*
Y25637D01*
X6420D01*
Y25626D01*
X6388D01*
Y25615D01*
X6346D01*
Y25605D01*
X7113D01*
Y25594D01*
Y25583D01*
Y25573D01*
Y25562D01*
Y25551D01*
Y25541D01*
Y25530D01*
Y25520D01*
Y25509D01*
Y25498D01*
Y25488D01*
Y25477D01*
Y25466D01*
Y25456D01*
Y25445D01*
Y25434D01*
Y25424D01*
Y25413D01*
Y25402D01*
Y25392D01*
Y25381D01*
Y25370D01*
Y25360D01*
Y25349D01*
Y25338D01*
Y25328D01*
Y25317D01*
Y25307D01*
Y25296D01*
Y25285D01*
Y25275D01*
Y25264D01*
Y25253D01*
Y25243D01*
Y25232D01*
Y25221D01*
X6250D01*
Y25211D01*
Y25200D01*
X6271D01*
Y25189D01*
X6325D01*
Y25179D01*
X6367D01*
Y25168D01*
X6399D01*
Y25157D01*
X6431D01*
Y25147D01*
X6463D01*
Y25136D01*
X6484D01*
Y25125D01*
X6516D01*
Y25115D01*
X6538D01*
Y25104D01*
X6559D01*
Y25093D01*
X6580D01*
Y25083D01*
X6601D01*
Y25072D01*
X6612D01*
Y25062D01*
X6633D01*
Y25051D01*
X6655D01*
Y25040D01*
X6665D01*
Y25030D01*
X6687D01*
Y25019D01*
X6697D01*
Y25008D01*
X6719D01*
Y24998D01*
X6729D01*
Y24987D01*
X6740D01*
Y24976D01*
X6751D01*
Y24966D01*
X6772D01*
Y24955D01*
X6783D01*
Y24944D01*
X6793D01*
Y24934D01*
X6804D01*
Y24923D01*
X6815D01*
Y24912D01*
X6825D01*
Y24902D01*
X6836D01*
Y24891D01*
X6846D01*
Y24880D01*
X6857D01*
Y24870D01*
X6868D01*
Y24859D01*
X6878D01*
Y24849D01*
X6889D01*
Y24838D01*
X6900D01*
Y24827D01*
X6910D01*
Y24817D01*
X6921D01*
Y24806D01*
Y24795D01*
X6932D01*
Y24785D01*
X6942D01*
Y24774D01*
X6953D01*
Y24763D01*
Y24753D01*
X6964D01*
Y24742D01*
X6974D01*
Y24731D01*
Y24721D01*
X6985D01*
Y24710D01*
X6996D01*
Y24699D01*
Y24689D01*
X7006D01*
Y24678D01*
X7017D01*
Y24667D01*
Y24657D01*
X7028D01*
Y24646D01*
Y24636D01*
X7038D01*
Y24625D01*
Y24614D01*
X7049D01*
Y24604D01*
Y24593D01*
X7059D01*
Y24582D01*
Y24572D01*
X7070D01*
Y24561D01*
Y24550D01*
X7081D01*
Y24540D01*
Y24529D01*
Y24518D01*
X7091D01*
Y24508D01*
Y24497D01*
X7102D01*
Y24486D01*
Y24476D01*
Y24465D01*
X7113D01*
Y24454D01*
Y24444D01*
Y24433D01*
X7123D01*
Y24422D01*
Y24412D01*
Y24401D01*
Y24391D01*
X7134D01*
Y24380D01*
Y24369D01*
Y24359D01*
Y24348D01*
X7145D01*
Y24337D01*
Y24327D01*
Y24316D01*
Y24305D01*
Y24295D01*
Y24284D01*
Y24273D01*
Y24263D01*
Y24252D01*
Y24241D01*
Y24231D01*
Y24220D01*
Y24209D01*
Y24199D01*
Y24188D01*
Y24178D01*
Y24167D01*
Y24156D01*
Y24146D01*
Y24135D01*
Y24124D01*
Y24114D01*
X6772D01*
Y24124D01*
Y24135D01*
Y24146D01*
Y24156D01*
Y24167D01*
Y24178D01*
Y24188D01*
Y24199D01*
Y24209D01*
Y24220D01*
X6761D01*
Y24231D01*
Y24241D01*
Y24252D01*
Y24263D01*
Y24273D01*
X6751D01*
Y24284D01*
Y24295D01*
Y24305D01*
Y24316D01*
X6740D01*
Y24327D01*
Y24337D01*
Y24348D01*
X6729D01*
Y24359D01*
Y24369D01*
Y24380D01*
X6719D01*
Y24391D01*
Y24401D01*
X6708D01*
Y24412D01*
Y24422D01*
X6697D01*
Y24433D01*
Y24444D01*
X6687D01*
Y24454D01*
Y24465D01*
X6676D01*
Y24476D01*
Y24486D01*
X6665D01*
Y24497D01*
X6655D01*
Y24508D01*
Y24518D01*
X6644D01*
Y24529D01*
X6633D01*
Y24540D01*
Y24550D01*
X6623D01*
Y24561D01*
X6612D01*
Y24572D01*
X6601D01*
Y24582D01*
X6591D01*
Y24593D01*
X6580D01*
Y24604D01*
X6570D01*
Y24614D01*
X6559D01*
Y24625D01*
X6548D01*
Y24636D01*
X6538D01*
Y24646D01*
X6527D01*
Y24657D01*
X6516D01*
Y24667D01*
X6506D01*
Y24678D01*
X6484D01*
Y24689D01*
X6474D01*
Y24699D01*
X6463D01*
Y24710D01*
X6442D01*
Y24721D01*
X6420D01*
Y24731D01*
X6410D01*
Y24742D01*
X6388D01*
Y24753D01*
X6367D01*
Y24763D01*
X6346D01*
Y24774D01*
X6314D01*
Y24785D01*
X6282D01*
Y24795D01*
X6250D01*
Y24785D01*
Y24774D01*
Y24763D01*
Y24753D01*
Y24742D01*
Y24731D01*
Y24721D01*
Y24710D01*
Y24699D01*
Y24689D01*
Y24678D01*
Y24667D01*
Y24657D01*
Y24646D01*
Y24636D01*
Y24625D01*
Y24614D01*
Y24604D01*
Y24593D01*
Y24582D01*
Y24572D01*
Y24561D01*
Y24550D01*
Y24540D01*
Y24529D01*
Y24518D01*
Y24508D01*
Y24497D01*
Y24486D01*
Y24476D01*
Y24465D01*
Y24454D01*
Y24444D01*
Y24433D01*
Y24422D01*
Y24412D01*
Y24401D01*
Y24391D01*
Y24380D01*
Y24369D01*
Y24359D01*
Y24348D01*
Y24337D01*
Y24327D01*
Y24316D01*
Y24305D01*
Y24295D01*
Y24284D01*
Y24273D01*
Y24263D01*
Y24252D01*
Y24241D01*
Y24231D01*
Y24220D01*
Y24209D01*
Y24199D01*
Y24188D01*
Y24178D01*
Y24167D01*
Y24156D01*
Y24146D01*
Y24135D01*
Y24124D01*
Y24114D01*
Y24103D01*
Y24092D01*
X5877D01*
Y24103D01*
D02*
G37*
G36*
X12533Y23348D02*
X12539Y23347D01*
X12546Y23347D01*
X12553Y23346D01*
X12562Y23345D01*
X12579Y23341D01*
X12588Y23338D01*
X12597Y23335D01*
X12606Y23331D01*
X12614Y23327D01*
X12622Y23322D01*
X12629Y23316D01*
X12630Y23316D01*
X12631Y23315D01*
X12633Y23313D01*
X12635Y23311D01*
X12638Y23307D01*
X12641Y23304D01*
X12644Y23299D01*
X12648Y23294D01*
X12652Y23288D01*
X12655Y23282D01*
X12658Y23275D01*
X12661Y23267D01*
X12664Y23259D01*
X12666Y23250D01*
X12668Y23241D01*
X12668Y23231D01*
X12591Y23229D01*
Y23229D01*
Y23230D01*
X12589Y23234D01*
X12588Y23239D01*
X12586Y23245D01*
X12583Y23252D01*
X12579Y23259D01*
X12574Y23265D01*
X12569Y23271D01*
X12568Y23271D01*
X12566Y23273D01*
X12562Y23275D01*
X12557Y23277D01*
X12550Y23280D01*
X12542Y23282D01*
X12532Y23284D01*
X12520Y23284D01*
X12515D01*
X12508Y23284D01*
X12501Y23282D01*
X12493Y23281D01*
X12484Y23278D01*
X12476Y23275D01*
X12468Y23270D01*
X12467Y23269D01*
X12466Y23268D01*
X12464Y23266D01*
X12462Y23264D01*
X12460Y23260D01*
X12457Y23256D01*
X12456Y23251D01*
X12456Y23246D01*
Y23245D01*
Y23244D01*
X12456Y23241D01*
X12457Y23238D01*
X12458Y23234D01*
X12460Y23230D01*
X12463Y23226D01*
X12467Y23223D01*
X12467Y23222D01*
X12470Y23220D01*
X12472Y23219D01*
X12475Y23218D01*
X12477Y23216D01*
X12481Y23215D01*
X12486Y23213D01*
X12491Y23211D01*
X12497Y23209D01*
X12503Y23206D01*
X12511Y23204D01*
X12519Y23202D01*
X12528Y23200D01*
X12538Y23197D01*
X12538D01*
X12541Y23196D01*
X12543Y23196D01*
X12547Y23195D01*
X12552Y23194D01*
X12557Y23192D01*
X12563Y23190D01*
X12569Y23189D01*
X12583Y23184D01*
X12597Y23180D01*
X12610Y23175D01*
X12616Y23172D01*
X12621Y23169D01*
X12622D01*
X12622Y23169D01*
X12626Y23166D01*
X12631Y23163D01*
X12637Y23159D01*
X12643Y23153D01*
X12651Y23146D01*
X12658Y23139D01*
X12664Y23130D01*
X12664Y23129D01*
X12666Y23125D01*
X12669Y23120D01*
X12672Y23113D01*
X12674Y23104D01*
X12677Y23094D01*
X12679Y23082D01*
X12679Y23069D01*
Y23068D01*
Y23067D01*
Y23065D01*
Y23063D01*
X12679Y23060D01*
X12678Y23057D01*
X12677Y23049D01*
X12675Y23039D01*
X12672Y23028D01*
X12667Y23018D01*
X12660Y23007D01*
Y23006D01*
X12659Y23005D01*
X12657Y23002D01*
X12653Y22997D01*
X12647Y22991D01*
X12640Y22983D01*
X12631Y22977D01*
X12621Y22970D01*
X12608Y22964D01*
X12608D01*
X12607Y22963D01*
X12605Y22963D01*
X12602Y22962D01*
X12599Y22961D01*
X12595Y22959D01*
X12591Y22958D01*
X12586Y22957D01*
X12579Y22956D01*
X12573Y22954D01*
X12559Y22952D01*
X12543Y22951D01*
X12525Y22950D01*
X12518D01*
X12513Y22951D01*
X12507Y22951D01*
X12500Y22952D01*
X12492Y22953D01*
X12484Y22954D01*
X12466Y22958D01*
X12456Y22961D01*
X12447Y22964D01*
X12438Y22968D01*
X12429Y22972D01*
X12421Y22977D01*
X12413Y22983D01*
X12412Y22984D01*
X12411Y22985D01*
X12409Y22987D01*
X12407Y22989D01*
X12404Y22993D01*
X12400Y22998D01*
X12396Y23003D01*
X12392Y23008D01*
X12389Y23015D01*
X12385Y23022D01*
X12381Y23030D01*
X12377Y23039D01*
X12374Y23049D01*
X12371Y23059D01*
X12369Y23070D01*
X12367Y23082D01*
X12442Y23089D01*
Y23089D01*
X12443Y23088D01*
Y23085D01*
X12443Y23083D01*
X12446Y23077D01*
X12448Y23068D01*
X12452Y23059D01*
X12457Y23049D01*
X12462Y23041D01*
X12470Y23033D01*
X12471Y23033D01*
X12473Y23030D01*
X12478Y23028D01*
X12485Y23024D01*
X12493Y23021D01*
X12502Y23018D01*
X12513Y23016D01*
X12526Y23015D01*
X12532D01*
X12539Y23017D01*
X12547Y23018D01*
X12556Y23019D01*
X12566Y23022D01*
X12574Y23026D01*
X12582Y23031D01*
X12583Y23032D01*
X12586Y23034D01*
X12588Y23037D01*
X12592Y23042D01*
X12596Y23047D01*
X12599Y23054D01*
X12601Y23060D01*
X12602Y23068D01*
Y23069D01*
Y23070D01*
X12601Y23073D01*
X12601Y23077D01*
X12599Y23080D01*
X12598Y23084D01*
X12596Y23088D01*
X12593Y23092D01*
X12593Y23092D01*
X12592Y23093D01*
X12590Y23095D01*
X12587Y23097D01*
X12583Y23100D01*
X12578Y23103D01*
X12573Y23105D01*
X12566Y23108D01*
X12565D01*
X12563Y23109D01*
X12559Y23110D01*
X12556Y23112D01*
X12553Y23112D01*
X12549Y23113D01*
X12544Y23115D01*
X12540Y23116D01*
X12534Y23118D01*
X12527Y23119D01*
X12520Y23121D01*
X12512Y23123D01*
X12503Y23125D01*
X12503D01*
X12501Y23126D01*
X12497Y23127D01*
X12493Y23128D01*
X12488Y23130D01*
X12482Y23131D01*
X12476Y23134D01*
X12469Y23136D01*
X12455Y23141D01*
X12441Y23148D01*
X12434Y23151D01*
X12427Y23155D01*
X12421Y23159D01*
X12416Y23163D01*
X12416Y23164D01*
X12415Y23165D01*
X12413Y23166D01*
X12411Y23169D01*
X12408Y23172D01*
X12405Y23176D01*
X12402Y23180D01*
X12399Y23185D01*
X12392Y23196D01*
X12387Y23210D01*
X12385Y23217D01*
X12383Y23224D01*
X12382Y23232D01*
X12381Y23241D01*
Y23241D01*
Y23242D01*
Y23244D01*
Y23246D01*
X12382Y23251D01*
X12384Y23259D01*
X12385Y23267D01*
X12388Y23276D01*
X12392Y23286D01*
X12397Y23296D01*
Y23296D01*
X12398Y23297D01*
X12401Y23300D01*
X12404Y23305D01*
X12410Y23310D01*
X12416Y23316D01*
X12425Y23323D01*
X12434Y23329D01*
X12445Y23335D01*
X12446D01*
X12447Y23335D01*
X12448Y23336D01*
X12451Y23337D01*
X12454Y23338D01*
X12457Y23339D01*
X12462Y23340D01*
X12467Y23342D01*
X12478Y23344D01*
X12491Y23346D01*
X12505Y23348D01*
X12521Y23348D01*
X12528D01*
X12533Y23348D01*
D02*
G37*
G36*
X11651Y23348D02*
X11657Y23347D01*
X11664Y23347D01*
X11672Y23346D01*
X11680Y23345D01*
X11698Y23341D01*
X11716Y23336D01*
X11726Y23332D01*
X11735Y23329D01*
X11743Y23324D01*
X11751Y23319D01*
X11751Y23318D01*
X11753Y23317D01*
X11755Y23315D01*
X11758Y23313D01*
X11761Y23310D01*
X11764Y23306D01*
X11768Y23302D01*
X11773Y23297D01*
X11777Y23291D01*
X11781Y23285D01*
X11786Y23279D01*
X11790Y23271D01*
X11794Y23263D01*
X11797Y23255D01*
X11801Y23245D01*
X11803Y23236D01*
X11726Y23221D01*
Y23222D01*
X11725Y23223D01*
X11724Y23226D01*
X11722Y23231D01*
X11719Y23237D01*
X11715Y23245D01*
X11709Y23252D01*
X11703Y23259D01*
X11695Y23266D01*
X11694Y23266D01*
X11691Y23269D01*
X11686Y23271D01*
X11680Y23274D01*
X11671Y23277D01*
X11662Y23280D01*
X11652Y23282D01*
X11639Y23282D01*
X11634D01*
X11631Y23282D01*
X11627Y23281D01*
X11622Y23281D01*
X11616Y23280D01*
X11610Y23279D01*
X11597Y23275D01*
X11590Y23272D01*
X11584Y23269D01*
X11577Y23265D01*
X11570Y23261D01*
X11564Y23255D01*
X11558Y23250D01*
X11558Y23249D01*
X11557Y23248D01*
X11556Y23246D01*
X11554Y23244D01*
X11552Y23240D01*
X11549Y23236D01*
X11546Y23231D01*
X11544Y23226D01*
X11541Y23219D01*
X11538Y23212D01*
X11536Y23204D01*
X11533Y23196D01*
X11532Y23186D01*
X11530Y23176D01*
X11529Y23165D01*
X11529Y23154D01*
Y23153D01*
Y23151D01*
Y23147D01*
X11529Y23143D01*
X11530Y23136D01*
X11531Y23130D01*
X11532Y23123D01*
X11533Y23115D01*
X11536Y23098D01*
X11542Y23081D01*
X11545Y23073D01*
X11549Y23065D01*
X11554Y23057D01*
X11559Y23050D01*
X11559Y23050D01*
X11560Y23049D01*
X11562Y23047D01*
X11564Y23045D01*
X11568Y23043D01*
X11571Y23039D01*
X11575Y23037D01*
X11580Y23033D01*
X11586Y23030D01*
X11592Y23027D01*
X11605Y23022D01*
X11613Y23019D01*
X11621Y23018D01*
X11630Y23017D01*
X11639Y23016D01*
X11643D01*
X11648Y23017D01*
X11654Y23017D01*
X11661Y23018D01*
X11670Y23020D01*
X11679Y23022D01*
X11688Y23025D01*
X11688D01*
X11689Y23026D01*
X11691Y23027D01*
X11696Y23029D01*
X11702Y23032D01*
X11709Y23035D01*
X11716Y23039D01*
X11723Y23044D01*
X11730Y23049D01*
Y23098D01*
X11641D01*
Y23163D01*
X11808D01*
Y23009D01*
X11807Y23008D01*
X11805Y23007D01*
X11804Y23005D01*
X11801Y23003D01*
X11798Y23001D01*
X11790Y22995D01*
X11780Y22989D01*
X11768Y22982D01*
X11754Y22974D01*
X11737Y22968D01*
X11736D01*
X11735Y22967D01*
X11733Y22966D01*
X11729Y22965D01*
X11725Y22964D01*
X11720Y22962D01*
X11714Y22961D01*
X11708Y22959D01*
X11694Y22956D01*
X11678Y22953D01*
X11661Y22951D01*
X11644Y22950D01*
X11638D01*
X11634Y22951D01*
X11628D01*
X11622Y22951D01*
X11615Y22952D01*
X11608Y22953D01*
X11592Y22956D01*
X11574Y22961D01*
X11556Y22967D01*
X11547Y22971D01*
X11538Y22975D01*
X11538Y22976D01*
X11537Y22976D01*
X11534Y22978D01*
X11531Y22980D01*
X11527Y22982D01*
X11523Y22986D01*
X11518Y22989D01*
X11513Y22994D01*
X11502Y23004D01*
X11491Y23017D01*
X11481Y23031D01*
X11471Y23048D01*
Y23048D01*
X11470Y23050D01*
X11469Y23053D01*
X11468Y23056D01*
X11466Y23060D01*
X11464Y23065D01*
X11462Y23072D01*
X11460Y23078D01*
X11458Y23085D01*
X11456Y23094D01*
X11452Y23111D01*
X11450Y23130D01*
X11449Y23150D01*
Y23151D01*
Y23153D01*
Y23156D01*
X11449Y23160D01*
Y23166D01*
X11450Y23172D01*
X11451Y23179D01*
X11452Y23186D01*
X11455Y23203D01*
X11459Y23221D01*
X11466Y23239D01*
X11469Y23248D01*
X11474Y23257D01*
X11474Y23257D01*
X11475Y23259D01*
X11477Y23261D01*
X11478Y23265D01*
X11481Y23269D01*
X11484Y23273D01*
X11488Y23278D01*
X11492Y23284D01*
X11497Y23289D01*
X11503Y23295D01*
X11509Y23301D01*
X11516Y23307D01*
X11523Y23313D01*
X11530Y23319D01*
X11547Y23329D01*
X11548D01*
X11549Y23330D01*
X11551Y23331D01*
X11554Y23332D01*
X11558Y23334D01*
X11562Y23335D01*
X11567Y23337D01*
X11573Y23339D01*
X11579Y23341D01*
X11586Y23342D01*
X11594Y23344D01*
X11602Y23346D01*
X11619Y23348D01*
X11639Y23348D01*
X11646D01*
X11651Y23348D01*
D02*
G37*
G36*
X14355Y23118D02*
Y22957D01*
X14277D01*
Y23119D01*
X14137Y23341D01*
X14227D01*
X14318Y23189D01*
X14406Y23341D01*
X14495D01*
X14355Y23118D01*
D02*
G37*
G36*
X9826Y22957D02*
X9742D01*
X9605Y23341D01*
X9688D01*
X9786Y23057D01*
X9880Y23341D01*
X9963D01*
X9826Y22957D01*
D02*
G37*
G36*
X13051Y23139D02*
Y23138D01*
Y23136D01*
Y23132D01*
Y23128D01*
Y23122D01*
X13050Y23115D01*
Y23108D01*
Y23101D01*
X13049Y23085D01*
X13048Y23068D01*
X13047Y23061D01*
X13046Y23054D01*
X13045Y23047D01*
X13044Y23041D01*
Y23040D01*
X13043Y23040D01*
Y23038D01*
X13043Y23037D01*
X13041Y23031D01*
X13039Y23024D01*
X13036Y23017D01*
X13032Y23009D01*
X13027Y23001D01*
X13021Y22993D01*
X13020Y22992D01*
X13018Y22989D01*
X13014Y22986D01*
X13009Y22982D01*
X13002Y22977D01*
X12995Y22972D01*
X12986Y22966D01*
X12976Y22962D01*
X12975D01*
X12975Y22961D01*
X12973Y22961D01*
X12971Y22960D01*
X12968Y22959D01*
X12965Y22958D01*
X12960Y22957D01*
X12956Y22956D01*
X12945Y22954D01*
X12932Y22952D01*
X12918Y22951D01*
X12902Y22950D01*
X12893D01*
X12888Y22951D01*
X12883D01*
X12877Y22951D01*
X12871Y22952D01*
X12858Y22953D01*
X12844Y22955D01*
X12830Y22958D01*
X12824Y22960D01*
X12818Y22962D01*
X12818D01*
X12817Y22963D01*
X12814Y22964D01*
X12808Y22967D01*
X12802Y22971D01*
X12795Y22976D01*
X12787Y22982D01*
X12780Y22988D01*
X12773Y22996D01*
X12773Y22997D01*
X12770Y22999D01*
X12768Y23003D01*
X12764Y23009D01*
X12761Y23015D01*
X12757Y23022D01*
X12754Y23030D01*
X12752Y23038D01*
Y23039D01*
X12751Y23040D01*
Y23042D01*
X12750Y23044D01*
X12750Y23048D01*
X12749Y23052D01*
X12749Y23057D01*
X12748Y23063D01*
X12747Y23069D01*
X12747Y23077D01*
X12746Y23084D01*
X12745Y23093D01*
X12745Y23103D01*
Y23113D01*
X12744Y23124D01*
Y23136D01*
Y23341D01*
X12822D01*
Y23133D01*
Y23132D01*
Y23130D01*
Y23128D01*
Y23125D01*
Y23120D01*
Y23116D01*
X12823Y23106D01*
Y23095D01*
X12823Y23084D01*
X12824Y23079D01*
Y23075D01*
X12824Y23072D01*
X12825Y23068D01*
Y23067D01*
X12826Y23064D01*
X12828Y23060D01*
X12830Y23054D01*
X12833Y23048D01*
X12837Y23042D01*
X12842Y23035D01*
X12848Y23030D01*
X12849Y23029D01*
X12851Y23028D01*
X12856Y23025D01*
X12861Y23023D01*
X12869Y23020D01*
X12878Y23018D01*
X12888Y23017D01*
X12900Y23016D01*
X12905D01*
X12911Y23017D01*
X12918Y23018D01*
X12926Y23019D01*
X12934Y23022D01*
X12942Y23025D01*
X12949Y23029D01*
X12950Y23030D01*
X12952Y23032D01*
X12955Y23034D01*
X12958Y23038D01*
X12961Y23043D01*
X12965Y23049D01*
X12967Y23055D01*
X12969Y23062D01*
Y23063D01*
X12970Y23066D01*
X12970Y23071D01*
X12971Y23078D01*
Y23082D01*
X12972Y23087D01*
Y23093D01*
X12972Y23098D01*
Y23105D01*
X12973Y23112D01*
Y23120D01*
Y23128D01*
Y23341D01*
X13051D01*
Y23139D01*
D02*
G37*
G36*
X13928Y23022D02*
X14121D01*
Y22957D01*
X13850D01*
Y23338D01*
X13928D01*
Y23022D01*
D02*
G37*
G36*
X13638Y23341D02*
X13653D01*
X13668Y23340D01*
X13684Y23338D01*
X13691Y23338D01*
X13697Y23337D01*
X13703Y23336D01*
X13707Y23335D01*
X13708D01*
X13709Y23335D01*
X13711Y23334D01*
X13713Y23334D01*
X13719Y23331D01*
X13727Y23327D01*
X13735Y23322D01*
X13744Y23316D01*
X13753Y23307D01*
X13762Y23297D01*
Y23297D01*
X13763Y23296D01*
X13764Y23295D01*
X13766Y23292D01*
X13768Y23289D01*
X13769Y23286D01*
X13772Y23282D01*
X13774Y23277D01*
X13778Y23266D01*
X13782Y23254D01*
X13784Y23239D01*
X13785Y23223D01*
Y23223D01*
Y23221D01*
Y23220D01*
Y23217D01*
X13784Y23214D01*
Y23210D01*
X13783Y23203D01*
X13782Y23193D01*
X13779Y23183D01*
X13776Y23173D01*
X13772Y23163D01*
X13771Y23162D01*
X13769Y23159D01*
X13767Y23155D01*
X13763Y23149D01*
X13758Y23144D01*
X13752Y23137D01*
X13746Y23131D01*
X13739Y23125D01*
X13738Y23125D01*
X13736Y23123D01*
X13732Y23121D01*
X13727Y23118D01*
X13721Y23115D01*
X13714Y23112D01*
X13707Y23109D01*
X13699Y23107D01*
X13698D01*
X13696Y23107D01*
X13694D01*
X13691Y23106D01*
X13687Y23105D01*
X13683Y23105D01*
X13678D01*
X13673Y23104D01*
X13667Y23104D01*
X13661Y23103D01*
X13653Y23103D01*
X13646D01*
X13637Y23102D01*
X13568D01*
Y22957D01*
X13491D01*
Y23341D01*
X13632D01*
X13638Y23341D01*
D02*
G37*
G36*
X13280D02*
X13295D01*
X13310Y23340D01*
X13326Y23338D01*
X13333Y23338D01*
X13339Y23337D01*
X13345Y23336D01*
X13349Y23335D01*
X13350D01*
X13351Y23335D01*
X13353Y23334D01*
X13355Y23334D01*
X13361Y23331D01*
X13369Y23327D01*
X13377Y23322D01*
X13386Y23316D01*
X13395Y23307D01*
X13404Y23297D01*
Y23297D01*
X13405Y23296D01*
X13406Y23295D01*
X13408Y23292D01*
X13410Y23289D01*
X13411Y23286D01*
X13414Y23282D01*
X13416Y23277D01*
X13420Y23266D01*
X13424Y23254D01*
X13426Y23239D01*
X13427Y23223D01*
Y23223D01*
Y23221D01*
Y23220D01*
Y23217D01*
X13426Y23214D01*
Y23210D01*
X13425Y23203D01*
X13424Y23193D01*
X13421Y23183D01*
X13418Y23173D01*
X13414Y23163D01*
X13413Y23162D01*
X13411Y23159D01*
X13409Y23155D01*
X13405Y23149D01*
X13400Y23144D01*
X13394Y23137D01*
X13388Y23131D01*
X13381Y23125D01*
X13380Y23125D01*
X13378Y23123D01*
X13374Y23121D01*
X13369Y23118D01*
X13363Y23115D01*
X13356Y23112D01*
X13349Y23109D01*
X13341Y23107D01*
X13340D01*
X13338Y23107D01*
X13336D01*
X13333Y23106D01*
X13329Y23105D01*
X13325Y23105D01*
X13320D01*
X13315Y23104D01*
X13309Y23104D01*
X13303Y23103D01*
X13295Y23103D01*
X13288D01*
X13279Y23102D01*
X13211D01*
Y22957D01*
X13133D01*
Y23341D01*
X13274D01*
X13280Y23341D01*
D02*
G37*
G36*
X12165Y23276D02*
X11958D01*
Y23191D01*
X12150D01*
Y23126D01*
X11958D01*
Y23022D01*
X12172D01*
Y22957D01*
X11880D01*
Y23341D01*
X12165D01*
Y23276D01*
D02*
G37*
G36*
X11421Y22957D02*
X11337D01*
X11304Y23044D01*
X11150D01*
X11118Y22957D01*
X11036D01*
X11185Y23341D01*
X11267D01*
X11421Y22957D01*
D02*
G37*
G36*
X11025Y23276D02*
X10912D01*
Y22957D01*
X10834D01*
Y23276D01*
X10720D01*
Y23341D01*
X11025D01*
Y23276D01*
D02*
G37*
G36*
X10499Y23022D02*
X10692D01*
Y22957D01*
X10421D01*
Y23338D01*
X10499D01*
Y23022D01*
D02*
G37*
G36*
X10180Y23348D02*
X10185D01*
X10192Y23347D01*
X10201Y23346D01*
X10210Y23344D01*
X10220Y23342D01*
X10231Y23339D01*
X10242Y23336D01*
X10253Y23331D01*
X10265Y23326D01*
X10276Y23320D01*
X10287Y23313D01*
X10297Y23305D01*
X10307Y23295D01*
X10308Y23295D01*
X10310Y23293D01*
X10312Y23290D01*
X10315Y23286D01*
X10319Y23280D01*
X10323Y23274D01*
X10328Y23266D01*
X10333Y23257D01*
X10338Y23247D01*
X10342Y23236D01*
X10347Y23224D01*
X10351Y23211D01*
X10354Y23197D01*
X10356Y23182D01*
X10358Y23166D01*
X10358Y23149D01*
Y23148D01*
Y23145D01*
X10358Y23140D01*
Y23133D01*
X10357Y23125D01*
X10356Y23117D01*
X10354Y23106D01*
X10352Y23095D01*
X10349Y23084D01*
X10346Y23072D01*
X10342Y23059D01*
X10337Y23047D01*
X10331Y23035D01*
X10324Y23024D01*
X10316Y23013D01*
X10307Y23002D01*
X10307Y23002D01*
X10305Y23000D01*
X10302Y22997D01*
X10298Y22994D01*
X10293Y22990D01*
X10287Y22986D01*
X10280Y22981D01*
X10272Y22976D01*
X10262Y22971D01*
X10252Y22967D01*
X10241Y22962D01*
X10229Y22958D01*
X10216Y22955D01*
X10202Y22952D01*
X10188Y22951D01*
X10172Y22950D01*
X10169D01*
X10164Y22951D01*
X10159Y22951D01*
X10151Y22952D01*
X10143Y22953D01*
X10134Y22954D01*
X10124Y22957D01*
X10113Y22959D01*
X10102Y22963D01*
X10090Y22967D01*
X10079Y22972D01*
X10068Y22978D01*
X10057Y22985D01*
X10046Y22993D01*
X10036Y23002D01*
X10036Y23003D01*
X10034Y23004D01*
X10032Y23008D01*
X10029Y23012D01*
X10025Y23017D01*
X10020Y23024D01*
X10016Y23031D01*
X10011Y23040D01*
X10006Y23049D01*
X10002Y23060D01*
X9998Y23072D01*
X9994Y23085D01*
X9990Y23099D01*
X9988Y23114D01*
X9987Y23130D01*
X9986Y23146D01*
Y23147D01*
Y23149D01*
Y23152D01*
X9987Y23156D01*
Y23161D01*
X9987Y23167D01*
X9988Y23174D01*
X9988Y23181D01*
X9990Y23196D01*
X9993Y23213D01*
X9998Y23230D01*
X10003Y23245D01*
Y23246D01*
X10004Y23246D01*
X10005Y23248D01*
X10005Y23250D01*
X10009Y23256D01*
X10013Y23263D01*
X10018Y23271D01*
X10024Y23280D01*
X10031Y23289D01*
X10039Y23298D01*
X10039Y23299D01*
X10040Y23299D01*
X10043Y23302D01*
X10048Y23306D01*
X10054Y23311D01*
X10061Y23317D01*
X10069Y23323D01*
X10079Y23329D01*
X10089Y23333D01*
X10089D01*
X10090Y23334D01*
X10093Y23335D01*
X10095Y23335D01*
X10099Y23337D01*
X10102Y23338D01*
X10108Y23339D01*
X10113Y23341D01*
X10125Y23343D01*
X10139Y23346D01*
X10155Y23348D01*
X10171Y23348D01*
X10175D01*
X10180Y23348D01*
D02*
G37*
%LPC*%
G36*
X13626Y23276D02*
X13568D01*
Y23167D01*
X13622D01*
X13626Y23168D01*
X13636D01*
X13646Y23168D01*
X13656Y23169D01*
X13664Y23171D01*
X13668Y23171D01*
X13672Y23173D01*
X13672Y23173D01*
X13674Y23174D01*
X13677Y23175D01*
X13681Y23177D01*
X13684Y23180D01*
X13688Y23183D01*
X13693Y23187D01*
X13696Y23191D01*
X13697Y23192D01*
X13698Y23194D01*
X13699Y23196D01*
X13701Y23200D01*
X13702Y23205D01*
X13704Y23210D01*
X13704Y23215D01*
X13705Y23221D01*
Y23223D01*
Y23225D01*
X13704Y23229D01*
X13703Y23234D01*
X13702Y23239D01*
X13699Y23245D01*
X13697Y23251D01*
X13692Y23256D01*
X13692Y23257D01*
X13690Y23259D01*
X13687Y23261D01*
X13684Y23264D01*
X13679Y23267D01*
X13674Y23270D01*
X13668Y23272D01*
X13661Y23274D01*
X13661D01*
X13658Y23274D01*
X13655Y23275D01*
X13649Y23275D01*
X13642D01*
X13637Y23276D01*
X13632D01*
X13626Y23276D01*
D02*
G37*
G36*
X13268D02*
X13211D01*
Y23167D01*
X13264D01*
X13268Y23168D01*
X13278D01*
X13288Y23168D01*
X13298Y23169D01*
X13307Y23171D01*
X13310Y23171D01*
X13314Y23173D01*
X13314Y23173D01*
X13317Y23174D01*
X13319Y23175D01*
X13323Y23177D01*
X13326Y23180D01*
X13330Y23183D01*
X13335Y23187D01*
X13338Y23191D01*
X13339Y23192D01*
X13340Y23194D01*
X13341Y23196D01*
X13343Y23200D01*
X13344Y23205D01*
X13346Y23210D01*
X13346Y23215D01*
X13347Y23221D01*
Y23223D01*
Y23225D01*
X13346Y23229D01*
X13345Y23234D01*
X13344Y23239D01*
X13341Y23245D01*
X13339Y23251D01*
X13334Y23256D01*
X13334Y23257D01*
X13332Y23259D01*
X13329Y23261D01*
X13326Y23264D01*
X13321Y23267D01*
X13316Y23270D01*
X13310Y23272D01*
X13303Y23274D01*
X13303D01*
X13300Y23274D01*
X13297Y23275D01*
X13291Y23275D01*
X13284D01*
X13279Y23276D01*
X13274D01*
X13268Y23276D01*
D02*
G37*
G36*
X11225Y23252D02*
X11173Y23109D01*
X11279D01*
X11225Y23252D01*
D02*
G37*
G36*
X10172Y23282D02*
X10168D01*
X10165Y23282D01*
X10160Y23281D01*
X10156Y23281D01*
X10145Y23279D01*
X10132Y23274D01*
X10126Y23272D01*
X10119Y23269D01*
X10113Y23265D01*
X10106Y23260D01*
X10100Y23255D01*
X10095Y23249D01*
X10094Y23249D01*
X10094Y23247D01*
X10092Y23246D01*
X10090Y23243D01*
X10088Y23239D01*
X10086Y23235D01*
X10083Y23230D01*
X10080Y23224D01*
X10078Y23218D01*
X10075Y23210D01*
X10073Y23202D01*
X10070Y23193D01*
X10069Y23183D01*
X10067Y23173D01*
X10066Y23161D01*
X10066Y23149D01*
Y23149D01*
Y23146D01*
Y23143D01*
X10066Y23139D01*
X10067Y23133D01*
X10068Y23126D01*
X10069Y23120D01*
X10070Y23112D01*
X10073Y23096D01*
X10079Y23080D01*
X10082Y23072D01*
X10086Y23064D01*
X10091Y23057D01*
X10096Y23050D01*
X10096Y23049D01*
X10098Y23048D01*
X10099Y23047D01*
X10101Y23045D01*
X10104Y23042D01*
X10108Y23039D01*
X10112Y23036D01*
X10117Y23033D01*
X10127Y23027D01*
X10141Y23022D01*
X10148Y23019D01*
X10156Y23018D01*
X10164Y23017D01*
X10172Y23016D01*
X10177D01*
X10180Y23017D01*
X10184Y23017D01*
X10189Y23018D01*
X10199Y23020D01*
X10211Y23024D01*
X10217Y23027D01*
X10224Y23030D01*
X10230Y23034D01*
X10237Y23038D01*
X10243Y23043D01*
X10248Y23049D01*
X10249Y23050D01*
X10250Y23051D01*
X10251Y23053D01*
X10253Y23055D01*
X10256Y23059D01*
X10258Y23064D01*
X10261Y23069D01*
X10263Y23075D01*
X10266Y23082D01*
X10269Y23089D01*
X10272Y23097D01*
X10274Y23107D01*
X10276Y23116D01*
X10277Y23126D01*
X10278Y23138D01*
X10278Y23150D01*
Y23151D01*
Y23153D01*
Y23156D01*
X10278Y23161D01*
X10277Y23167D01*
X10277Y23173D01*
X10276Y23180D01*
X10275Y23188D01*
X10271Y23204D01*
X10266Y23220D01*
X10263Y23229D01*
X10259Y23236D01*
X10254Y23243D01*
X10249Y23250D01*
X10248Y23250D01*
X10248Y23251D01*
X10246Y23252D01*
X10244Y23255D01*
X10241Y23257D01*
X10237Y23260D01*
X10233Y23263D01*
X10228Y23266D01*
X10223Y23269D01*
X10217Y23272D01*
X10205Y23277D01*
X10197Y23280D01*
X10190Y23281D01*
X10181Y23282D01*
X10172Y23282D01*
D02*
G37*
%LPD*%
G54D10*
X36400Y8500D02*
X36419Y8404D01*
X36473Y8323D01*
X36554Y8269D01*
X36650Y8250D01*
X36746Y8269D01*
X36827Y8323D01*
X36881Y8404D01*
X36900Y8500D01*
X13800Y9000D02*
X13810Y8902D01*
X13838Y8809D01*
X13884Y8722D01*
X13946Y8646D01*
X14022Y8584D01*
X14109Y8538D01*
X14202Y8510D01*
X14300Y8500D01*
X14398Y8510D01*
X14491Y8538D01*
X14578Y8584D01*
X14654Y8646D01*
X14716Y8722D01*
X14762Y8809D01*
X14790Y8902D01*
X14800Y9000D01*
Y11000D02*
X14790Y11098D01*
X14762Y11191D01*
X14716Y11278D01*
X14654Y11354D01*
X14578Y11416D01*
X14491Y11462D01*
X14398Y11490D01*
X14300Y11500D01*
X14202Y11490D01*
X14109Y11462D01*
X14022Y11416D01*
X13946Y11354D01*
X13884Y11278D01*
X13838Y11191D01*
X13810Y11098D01*
X13800Y11000D01*
X28300Y1800D02*
X28202Y1790D01*
X28109Y1762D01*
X28022Y1716D01*
X27946Y1654D01*
X27884Y1578D01*
X27838Y1491D01*
X27810Y1398D01*
X27800Y1300D01*
X27810Y1202D01*
X27838Y1109D01*
X27884Y1022D01*
X27946Y946D01*
X28022Y884D01*
X28109Y838D01*
X28202Y810D01*
X28300Y800D01*
X30300D02*
X30398Y810D01*
X30491Y838D01*
X30578Y884D01*
X30654Y946D01*
X30716Y1022D01*
X30762Y1109D01*
X30790Y1202D01*
X30800Y1300D01*
X30790Y1398D01*
X30762Y1491D01*
X30716Y1578D01*
X30654Y1654D01*
X30578Y1716D01*
X30491Y1762D01*
X30398Y1790D01*
X30300Y1800D01*
X17300Y700D02*
X17398Y710D01*
X17491Y738D01*
X17578Y784D01*
X17654Y846D01*
X17716Y922D01*
X17762Y1009D01*
X17790Y1102D01*
X17800Y1200D01*
X17790Y1298D01*
X17762Y1391D01*
X17716Y1478D01*
X17654Y1554D01*
X17578Y1616D01*
X17491Y1662D01*
X17398Y1690D01*
X17300Y1700D01*
X15300D02*
X15202Y1690D01*
X15109Y1662D01*
X15022Y1616D01*
X14946Y1554D01*
X14884Y1478D01*
X14838Y1391D01*
X14810Y1298D01*
X14800Y1200D01*
X14810Y1102D01*
X14838Y1009D01*
X14884Y922D01*
X14946Y846D01*
X15022Y784D01*
X15109Y738D01*
X15202Y710D01*
X15300Y700D01*
X24100Y1700D02*
X24002Y1690D01*
X23909Y1662D01*
X23822Y1616D01*
X23746Y1554D01*
X23684Y1478D01*
X23638Y1391D01*
X23610Y1298D01*
X23600Y1200D01*
X23610Y1102D01*
X23638Y1009D01*
X23684Y922D01*
X23746Y846D01*
X23822Y784D01*
X23909Y738D01*
X24002Y710D01*
X24100Y700D01*
X26100D02*
X26198Y710D01*
X26291Y738D01*
X26378Y784D01*
X26454Y846D01*
X26516Y922D01*
X26562Y1009D01*
X26590Y1102D01*
X26600Y1200D01*
X26590Y1298D01*
X26562Y1391D01*
X26516Y1478D01*
X26454Y1554D01*
X26378Y1616D01*
X26291Y1662D01*
X26198Y1690D01*
X26100Y1700D01*
X21900Y13500D02*
X21802Y13490D01*
X21709Y13462D01*
X21622Y13416D01*
X21546Y13354D01*
X21484Y13278D01*
X21438Y13191D01*
X21410Y13098D01*
X21400Y13000D01*
X21410Y12902D01*
X21438Y12809D01*
X21484Y12722D01*
X21546Y12646D01*
X21622Y12584D01*
X21709Y12538D01*
X21802Y12510D01*
X21900Y12500D01*
X23900D02*
X23998Y12510D01*
X24091Y12538D01*
X24178Y12584D01*
X24254Y12646D01*
X24316Y12722D01*
X24362Y12809D01*
X24390Y12902D01*
X24400Y13000D01*
X24390Y13098D01*
X24362Y13191D01*
X24316Y13278D01*
X24254Y13354D01*
X24178Y13416D01*
X24091Y13462D01*
X23998Y13490D01*
X23900Y13500D01*
X7050Y16500D02*
X6952Y16490D01*
X6859Y16462D01*
X6772Y16416D01*
X6696Y16354D01*
X6634Y16278D01*
X6588Y16191D01*
X6560Y16098D01*
X6550Y16000D01*
X6560Y15902D01*
X6588Y15809D01*
X6634Y15722D01*
X6696Y15646D01*
X6772Y15584D01*
X6859Y15538D01*
X6952Y15510D01*
X7050Y15500D01*
X9050D02*
X9148Y15510D01*
X9241Y15538D01*
X9328Y15584D01*
X9404Y15646D01*
X9466Y15722D01*
X9512Y15809D01*
X9540Y15902D01*
X9550Y16000D01*
X9540Y16098D01*
X9512Y16191D01*
X9466Y16278D01*
X9404Y16354D01*
X9328Y16416D01*
X9241Y16462D01*
X9148Y16490D01*
X9050Y16500D01*
X24100Y7300D02*
X24002Y7290D01*
X23909Y7262D01*
X23822Y7216D01*
X23746Y7154D01*
X23684Y7078D01*
X23638Y6991D01*
X23610Y6898D01*
X23600Y6800D01*
X23610Y6702D01*
X23638Y6609D01*
X23684Y6522D01*
X23746Y6446D01*
X23822Y6384D01*
X23909Y6338D01*
X24002Y6310D01*
X24100Y6300D01*
X26100D02*
X26198Y6310D01*
X26291Y6338D01*
X26378Y6384D01*
X26454Y6446D01*
X26516Y6522D01*
X26562Y6609D01*
X26590Y6702D01*
X26600Y6800D01*
X26590Y6898D01*
X26562Y6991D01*
X26516Y7078D01*
X26454Y7154D01*
X26378Y7216D01*
X26291Y7262D01*
X26198Y7290D01*
X26100Y7300D01*
X15350Y7350D02*
X15252Y7340D01*
X15159Y7312D01*
X15072Y7266D01*
X14996Y7204D01*
X14934Y7128D01*
X14888Y7041D01*
X14860Y6948D01*
X14850Y6850D01*
X14860Y6752D01*
X14888Y6659D01*
X14934Y6572D01*
X14996Y6496D01*
X15072Y6434D01*
X15159Y6388D01*
X15252Y6360D01*
X15350Y6350D01*
X17350D02*
X17448Y6360D01*
X17541Y6388D01*
X17628Y6434D01*
X17704Y6496D01*
X17766Y6572D01*
X17812Y6659D01*
X17840Y6752D01*
X17850Y6850D01*
X17840Y6948D01*
X17812Y7041D01*
X17766Y7128D01*
X17704Y7204D01*
X17628Y7266D01*
X17541Y7312D01*
X17448Y7340D01*
X17350Y7350D01*
X7200Y11050D02*
X7102Y11040D01*
X7009Y11012D01*
X6922Y10966D01*
X6846Y10904D01*
X6784Y10828D01*
X6738Y10741D01*
X6710Y10648D01*
X6700Y10550D01*
X6710Y10452D01*
X6738Y10359D01*
X6784Y10272D01*
X6846Y10196D01*
X6922Y10134D01*
X7009Y10088D01*
X7102Y10060D01*
X7200Y10050D01*
X9200D02*
X9298Y10060D01*
X9391Y10088D01*
X9478Y10134D01*
X9554Y10196D01*
X9616Y10272D01*
X9662Y10359D01*
X9690Y10452D01*
X9700Y10550D01*
X9690Y10648D01*
X9662Y10741D01*
X9616Y10828D01*
X9554Y10904D01*
X9478Y10966D01*
X9391Y11012D01*
X9298Y11040D01*
X9200Y11050D01*
X7200Y4300D02*
X7102Y4290D01*
X7009Y4262D01*
X6922Y4216D01*
X6846Y4154D01*
X6784Y4078D01*
X6738Y3991D01*
X6710Y3898D01*
X6700Y3800D01*
X6710Y3702D01*
X6738Y3609D01*
X6784Y3522D01*
X6846Y3446D01*
X6922Y3384D01*
X7009Y3338D01*
X7102Y3310D01*
X7200Y3300D01*
X9200D02*
X9298Y3310D01*
X9391Y3338D01*
X9478Y3384D01*
X9554Y3446D01*
X9616Y3522D01*
X9662Y3609D01*
X9690Y3702D01*
X9700Y3800D01*
X9690Y3898D01*
X9662Y3991D01*
X9616Y4078D01*
X9554Y4154D01*
X9478Y4216D01*
X9391Y4262D01*
X9298Y4290D01*
X9200Y4300D01*
X7200Y5650D02*
X7102Y5640D01*
X7009Y5612D01*
X6922Y5566D01*
X6846Y5504D01*
X6784Y5428D01*
X6738Y5341D01*
X6710Y5248D01*
X6700Y5150D01*
X6710Y5052D01*
X6738Y4959D01*
X6784Y4872D01*
X6846Y4796D01*
X6922Y4734D01*
X7009Y4688D01*
X7102Y4660D01*
X7200Y4650D01*
X9200D02*
X9298Y4660D01*
X9391Y4688D01*
X9478Y4734D01*
X9554Y4796D01*
X9616Y4872D01*
X9662Y4959D01*
X9690Y5052D01*
X9700Y5150D01*
X9690Y5248D01*
X9662Y5341D01*
X9616Y5428D01*
X9554Y5504D01*
X9478Y5566D01*
X9391Y5612D01*
X9298Y5640D01*
X9200Y5650D01*
X10200Y8150D02*
X10104Y8131D01*
X10023Y8077D01*
X9969Y7996D01*
X9950Y7900D01*
X9969Y7804D01*
X10023Y7723D01*
X10104Y7669D01*
X10200Y7650D01*
X7100Y17750D02*
X7002Y17740D01*
X6909Y17712D01*
X6822Y17666D01*
X6746Y17604D01*
X6684Y17528D01*
X6638Y17441D01*
X6610Y17348D01*
X6600Y17250D01*
X6610Y17152D01*
X6638Y17059D01*
X6684Y16972D01*
X6746Y16896D01*
X6822Y16834D01*
X6909Y16788D01*
X7002Y16760D01*
X7100Y16750D01*
X9100D02*
X9198Y16760D01*
X9291Y16788D01*
X9378Y16834D01*
X9454Y16896D01*
X9516Y16972D01*
X9562Y17059D01*
X9590Y17152D01*
X9600Y17250D01*
X9590Y17348D01*
X9562Y17441D01*
X9516Y17528D01*
X9454Y17604D01*
X9378Y17666D01*
X9291Y17712D01*
X9198Y17740D01*
X9100Y17750D01*
X7100Y19000D02*
X7002Y18990D01*
X6909Y18962D01*
X6822Y18916D01*
X6746Y18854D01*
X6684Y18778D01*
X6638Y18691D01*
X6610Y18598D01*
X6600Y18500D01*
X6610Y18402D01*
X6638Y18309D01*
X6684Y18222D01*
X6746Y18146D01*
X6822Y18084D01*
X6909Y18038D01*
X7002Y18010D01*
X7100Y18000D01*
X9100D02*
X9198Y18010D01*
X9291Y18038D01*
X9378Y18084D01*
X9454Y18146D01*
X9516Y18222D01*
X9562Y18309D01*
X9590Y18402D01*
X9600Y18500D01*
X9590Y18598D01*
X9562Y18691D01*
X9516Y18778D01*
X9454Y18854D01*
X9378Y18916D01*
X9291Y18962D01*
X9198Y18990D01*
X9100Y19000D01*
X10200Y13350D02*
X10104Y13331D01*
X10023Y13277D01*
X9969Y13196D01*
X9950Y13100D01*
X9969Y13004D01*
X10023Y12923D01*
X10104Y12869D01*
X10200Y12850D01*
X24913Y17455D02*
X24957Y17363D01*
X25012Y17276D01*
X25076Y17196D01*
X25148Y17123D01*
X25229Y17060D01*
X25316Y17005D01*
X25408Y16961D01*
X25505Y16928D01*
X25605Y16906D01*
X25707Y16895D01*
X25810Y16896D01*
X25912Y16909D01*
X26011Y16933D01*
X26108Y16968D01*
X26199Y17014D01*
X26285Y17070D01*
Y18530D02*
X26199Y18586D01*
X26108Y18632D01*
X26011Y18667D01*
X25912Y18691D01*
X25810Y18704D01*
X25707Y18705D01*
X25605Y18694D01*
X25505Y18672D01*
X25408Y18639D01*
X25316Y18595D01*
X25229Y18540D01*
X25148Y18477D01*
X25076Y18404D01*
X25012Y18324D01*
X24957Y18237D01*
X24913Y18145D01*
X26285Y16480D02*
X26199Y16536D01*
X26108Y16582D01*
X26011Y16617D01*
X25912Y16641D01*
X25810Y16654D01*
X25707Y16655D01*
X25605Y16644D01*
X25505Y16622D01*
X25408Y16589D01*
X25316Y16545D01*
X25229Y16490D01*
X25148Y16427D01*
X25076Y16354D01*
X25012Y16274D01*
X24957Y16187D01*
X24913Y16095D01*
Y15405D02*
X24957Y15313D01*
X25012Y15226D01*
X25076Y15146D01*
X25148Y15073D01*
X25229Y15010D01*
X25316Y14955D01*
X25408Y14911D01*
X25505Y14878D01*
X25605Y14856D01*
X25707Y14845D01*
X25810Y14846D01*
X25912Y14859D01*
X26011Y14883D01*
X26108Y14918D01*
X26199Y14964D01*
X26285Y15020D01*
X30350Y13650D02*
X30448Y13660D01*
X30541Y13688D01*
X30628Y13734D01*
X30704Y13796D01*
X30766Y13872D01*
X30812Y13959D01*
X30840Y14052D01*
X30850Y14150D01*
X30840Y14248D01*
X30812Y14341D01*
X30766Y14428D01*
X30704Y14504D01*
X30628Y14566D01*
X30541Y14612D01*
X30448Y14640D01*
X30350Y14650D01*
X28350D02*
X28252Y14640D01*
X28159Y14612D01*
X28072Y14566D01*
X27996Y14504D01*
X27934Y14428D01*
X27888Y14341D01*
X27860Y14248D01*
X27850Y14150D01*
X27860Y14052D01*
X27888Y13959D01*
X27934Y13872D01*
X27996Y13796D01*
X28072Y13734D01*
X28159Y13688D01*
X28252Y13660D01*
X28350Y13650D01*
X17600Y17050D02*
X17610Y16952D01*
X17638Y16859D01*
X17684Y16772D01*
X17746Y16696D01*
X17822Y16634D01*
X17909Y16588D01*
X18002Y16560D01*
X18100Y16550D01*
X18198Y16560D01*
X18291Y16588D01*
X18378Y16634D01*
X18454Y16696D01*
X18516Y16772D01*
X18562Y16859D01*
X18590Y16952D01*
X18600Y17050D01*
Y19050D02*
X18590Y19148D01*
X18562Y19241D01*
X18516Y19328D01*
X18454Y19404D01*
X18378Y19466D01*
X18291Y19512D01*
X18198Y19540D01*
X18100Y19550D01*
X18002Y19540D01*
X17909Y19512D01*
X17822Y19466D01*
X17746Y19404D01*
X17684Y19328D01*
X17638Y19241D01*
X17610Y19148D01*
X17600Y19050D01*
X19900Y12500D02*
X19998Y12510D01*
X20091Y12538D01*
X20178Y12584D01*
X20254Y12646D01*
X20316Y12722D01*
X20362Y12809D01*
X20390Y12902D01*
X20400Y13000D01*
X20390Y13098D01*
X20362Y13191D01*
X20316Y13278D01*
X20254Y13354D01*
X20178Y13416D01*
X20091Y13462D01*
X19998Y13490D01*
X19900Y13500D01*
X17900D02*
X17802Y13490D01*
X17709Y13462D01*
X17622Y13416D01*
X17546Y13354D01*
X17484Y13278D01*
X17438Y13191D01*
X17410Y13098D01*
X17400Y13000D01*
X17410Y12902D01*
X17438Y12809D01*
X17484Y12722D01*
X17546Y12646D01*
X17622Y12584D01*
X17709Y12538D01*
X17802Y12510D01*
X17900Y12500D01*
X29039Y23578D02*
X28961D01*
X29039D01*
X25553Y23244D02*
X25463Y23194D01*
X25380Y23134D01*
X25302Y23066D01*
X25232Y22991D01*
X25171Y22909D01*
X25118Y22821D01*
X26894Y22797D02*
X26844Y22887D01*
X26784Y22970D01*
X26716Y23048D01*
X26641Y23118D01*
X26559Y23179D01*
X26471Y23232D01*
X16050Y6050D02*
X16069Y5954D01*
X16123Y5873D01*
X16204Y5819D01*
X16300Y5800D01*
X16396Y5819D01*
X16477Y5873D01*
X16531Y5954D01*
X16550Y6050D01*
X24850D02*
X24869Y5954D01*
X24923Y5873D01*
X25004Y5819D01*
X25100Y5800D01*
X25196Y5819D01*
X25277Y5873D01*
X25331Y5954D01*
X25350Y6050D01*
X31050Y22150D02*
Y24750D01*
X31550D02*
Y24850D01*
Y22050D02*
Y22150D01*
X31050Y24250D02*
X32050D01*
Y22150D02*
Y24750D01*
X31050D02*
X32050D01*
X31050Y22150D02*
X32050D01*
X33800Y14650D02*
Y14950D01*
Y11950D02*
Y12250D01*
X34200D02*
Y14650D01*
X33400D02*
X34200D01*
X33400Y12250D02*
Y14650D01*
Y12250D02*
X34200D01*
X32550Y2100D02*
Y2400D01*
Y4800D02*
Y5100D01*
X32150Y2400D02*
Y4800D01*
Y2400D02*
X32950D01*
Y4800D01*
X32150D02*
X32950D01*
X33800D02*
Y5100D01*
Y2100D02*
Y2400D01*
X34200D02*
Y4800D01*
X33400D02*
X34200D01*
X33400Y2400D02*
Y4800D01*
Y2400D02*
X34200D01*
X33750Y9800D02*
Y10100D01*
Y7100D02*
Y7400D01*
X34150D02*
Y9800D01*
X33350D02*
X34150D01*
X33350Y7400D02*
Y9800D01*
Y7400D02*
X34150D01*
X37650Y4500D02*
Y8500D01*
X35650D02*
X36400D01*
X36900D02*
X37650D01*
X35650Y4500D02*
Y8500D01*
Y4500D02*
X37650D01*
X11400Y4400D02*
X12200D01*
Y2000D02*
Y4400D01*
X11400Y2000D02*
X12200D01*
X11400D02*
Y4400D01*
X11800D02*
Y4700D01*
Y1700D02*
Y2000D01*
X11500Y16850D02*
X12300D01*
X11500D02*
Y19250D01*
X12300D01*
Y16850D02*
Y19250D01*
X11900Y16550D02*
Y16850D01*
Y19250D02*
Y19550D01*
X16775Y26931D02*
X18525D01*
X16775Y24369D02*
X18525D01*
X18931Y25256D02*
Y26044D01*
X16369Y25256D02*
Y26044D01*
X30500Y11500D02*
X30800D01*
X27800D02*
X28100D01*
Y11100D02*
X30500D01*
Y11900D01*
X28100D02*
X30500D01*
X28100Y11100D02*
Y11900D01*
X30500Y12800D02*
X30800D01*
X27800D02*
X28100D01*
Y12400D02*
X30500D01*
Y13200D01*
X28100D02*
X30500D01*
X28100Y12400D02*
Y13200D01*
X13000Y11100D02*
Y11400D01*
Y8400D02*
Y8700D01*
X13400D02*
Y11100D01*
X12600D02*
X13400D01*
X12600Y8700D02*
Y11100D01*
Y8700D02*
X13400D01*
X14350Y16550D02*
Y16850D01*
Y19250D02*
Y19550D01*
X13950Y16850D02*
Y19250D01*
Y16850D02*
X14750D01*
Y19250D01*
X13950D02*
X14750D01*
X11850Y8400D02*
Y8700D01*
Y11100D02*
Y11400D01*
X11450Y8700D02*
Y11100D01*
Y8700D02*
X12250D01*
Y11100D01*
X11450D02*
X12250D01*
X13800Y9000D02*
Y11000D01*
X14800Y9000D02*
Y11000D01*
X15700Y11050D02*
Y11350D01*
Y8350D02*
Y8650D01*
X16100D02*
Y11050D01*
X15300D02*
X16100D01*
X15300Y8650D02*
Y11050D01*
Y8650D02*
X16100D01*
X28300Y1800D02*
X30300D01*
X28300Y800D02*
X30300D01*
X15300Y700D02*
X17300D01*
X15300Y1700D02*
X17300D01*
X24100D02*
X26100D01*
X24100Y700D02*
X26100D01*
X21900Y13500D02*
X23900D01*
X21900Y12500D02*
X23900D01*
X7050Y16500D02*
X9050D01*
X7050Y15500D02*
X9050D01*
X13100Y16550D02*
Y16850D01*
Y19250D02*
Y19550D01*
X12700Y16850D02*
Y19250D01*
Y16850D02*
X13500D01*
Y19250D01*
X12700D02*
X13500D01*
X15600Y16550D02*
Y16850D01*
Y19250D02*
Y19550D01*
X15200Y16850D02*
Y19250D01*
Y16850D02*
X16000D01*
Y19250D01*
X15200D02*
X16000D01*
X9300Y19700D02*
X9600D01*
X6600D02*
X6900D01*
Y19300D02*
X9300D01*
Y20100D01*
X6900D02*
X9300D01*
X6900Y19300D02*
Y20100D01*
X13000Y4400D02*
Y4700D01*
Y1700D02*
Y2000D01*
X13400D02*
Y4400D01*
X12600D02*
X13400D01*
X12600Y2000D02*
Y4400D01*
Y2000D02*
X13400D01*
X24100Y7300D02*
X26100D01*
X24100Y6300D02*
X26100D01*
X15350Y7350D02*
X17350D01*
X15350Y6350D02*
X17350D01*
X7200Y11050D02*
X9200D01*
X7200Y10050D02*
X9200D01*
X9400Y2550D02*
X9700D01*
X6700D02*
X7000D01*
Y2150D02*
X9400D01*
Y2950D01*
X7000D02*
X9400D01*
X7000Y2150D02*
Y2950D01*
X9400Y1400D02*
X9700D01*
X6700D02*
X7000D01*
Y1000D02*
X9400D01*
Y1800D01*
X7000D02*
X9400D01*
X7000Y1000D02*
Y1800D01*
X7200Y4300D02*
X9200D01*
X7200Y3300D02*
X9200D01*
X7200Y5650D02*
X9200D01*
X7200Y4650D02*
X9200D01*
X6200Y6900D02*
X10200D01*
Y8150D02*
Y8900D01*
Y6900D02*
Y7650D01*
X6200Y8900D02*
X10200D01*
X6200Y6900D02*
Y8900D01*
X7100Y17750D02*
X9100D01*
X7100Y16750D02*
X9100D01*
X7100Y19000D02*
X9100D01*
X7100Y18000D02*
X9100D01*
X6200Y12100D02*
X10200D01*
Y13350D02*
Y14100D01*
Y12100D02*
Y12850D01*
X6200Y14100D02*
X10200D01*
X6200Y12100D02*
Y14100D01*
X23600Y22550D02*
Y22850D01*
Y19850D02*
Y20150D01*
X24000D02*
Y22550D01*
X23200D02*
X24000D01*
X23200Y20150D02*
Y22550D01*
Y20150D02*
X24000D01*
X30550Y17950D02*
X30850D01*
X27850D02*
X28150D01*
Y17550D02*
X30550D01*
Y18350D01*
X28150D02*
X30550D01*
X28150Y17550D02*
Y18350D01*
X32637Y26870D02*
X38739D01*
X32637Y19430D02*
X38739D01*
X32637D02*
Y26870D01*
X38739Y19430D02*
Y26870D01*
X26285Y17070D02*
Y17300D01*
Y18300D02*
Y18530D01*
Y16250D02*
Y16480D01*
Y15020D02*
Y15250D01*
X525Y11776D02*
X4275D01*
X525Y13824D02*
X4275D01*
X525Y11776D02*
Y13824D01*
X4275Y11776D02*
Y13824D01*
X525Y6876D02*
X4275D01*
X525Y8924D02*
X4275D01*
X525Y6876D02*
Y8924D01*
X4275Y6876D02*
Y8924D01*
X525Y14226D02*
X4275D01*
X525Y16274D02*
X4275D01*
X525Y14226D02*
Y16274D01*
X4275Y14226D02*
Y16274D01*
X525Y9326D02*
X4275D01*
X525Y11374D02*
X4275D01*
X525Y9326D02*
Y11374D01*
X4275Y9326D02*
Y11374D01*
X525Y4476D02*
X4275D01*
X525Y6524D02*
X4275D01*
X525Y4476D02*
Y6524D01*
X4275Y4476D02*
Y6524D01*
X20624Y875D02*
Y4625D01*
X18576Y875D02*
Y4625D01*
Y875D02*
X20624D01*
X18576Y4625D02*
X20624D01*
X22974Y875D02*
Y4625D01*
X20926Y875D02*
Y4625D01*
Y875D02*
X22974D01*
X20926Y4625D02*
X22974D01*
X24650Y9800D02*
X26650D01*
Y10800D01*
X24650D02*
X26650D01*
X24650Y9800D02*
Y10800D01*
X25650Y9800D02*
Y10800D01*
X30550Y16750D02*
X30850D01*
X27850D02*
X28150D01*
Y16350D02*
X30550D01*
Y17150D01*
X28150D02*
X30550D01*
X28150Y16350D02*
Y17150D01*
X30550Y15550D02*
X30850D01*
X27850D02*
X28150D01*
Y15150D02*
X30550D01*
Y15950D01*
X28150D02*
X30550D01*
X28150Y15150D02*
Y15950D01*
X16800Y16500D02*
Y16800D01*
Y19200D02*
Y19500D01*
X16400Y16800D02*
Y19200D01*
Y16800D02*
X17200D01*
Y19200D01*
X16400D02*
X17200D01*
X27800Y10300D02*
X28100D01*
X30500D02*
X30800D01*
X28100Y10700D02*
X30500D01*
X28100Y9900D02*
Y10700D01*
Y9900D02*
X30500D01*
Y10700D01*
X28350Y13650D02*
X30350D01*
X28350Y14650D02*
X30350D01*
X17600Y17050D02*
Y19050D01*
X18600Y17050D02*
Y19050D01*
X17900Y12500D02*
X19900D01*
X17900Y13500D02*
X19900D01*
X25000Y21700D02*
X27000D01*
X17300Y2050D02*
Y6050D01*
X15300D02*
X16050D01*
X16550D02*
X17300D01*
X15300Y2050D02*
Y6050D01*
Y2050D02*
X17300D01*
X26100D02*
Y6050D01*
X24100D02*
X24850D01*
X25350D02*
X26100D01*
X24100Y2050D02*
Y6050D01*
Y2050D02*
X26100D01*
G54D11*
X4310Y18400D02*
X4275Y18496D01*
X4186Y18548D01*
X4085Y18530D01*
X4019Y18451D01*
Y18349D01*
X4085Y18270D01*
X4186Y18252D01*
X4275Y18304D01*
X4310Y18400D01*
X9959Y26131D02*
X9924Y26228D01*
X9836Y26279D01*
X9734Y26261D01*
X9668Y26182D01*
Y26080D01*
X9734Y26001D01*
X9836Y25983D01*
X9924Y26035D01*
X9959Y26131D01*
X34559Y12831D02*
X34524Y12928D01*
X34436Y12979D01*
X34334Y12961D01*
X34268Y12882D01*
Y12780D01*
X34334Y12701D01*
X34436Y12683D01*
X34524Y12735D01*
X34559Y12831D01*
Y17131D02*
X34524Y17228D01*
X34436Y17279D01*
X34334Y17261D01*
X34268Y17182D01*
Y17080D01*
X34334Y17001D01*
X34436Y16983D01*
X34524Y17035D01*
X34559Y17131D01*
G54D12*
X21700Y5200D02*
X21687Y5299D01*
X21651Y5393D01*
X21592Y5474D01*
X21514Y5538D01*
X21424Y5580D01*
X21325Y5599D01*
X21225Y5593D01*
X21130Y5562D01*
X21045Y5508D01*
X20976Y5435D01*
X20928Y5347D01*
X20903Y5250D01*
Y5150D01*
X20928Y5053D01*
X20976Y4965D01*
X21045Y4892D01*
X21130Y4838D01*
X21225Y4807D01*
X21325Y4801D01*
X21424Y4820D01*
X21514Y4862D01*
X21592Y4926D01*
X21651Y5007D01*
X21687Y5101D01*
X21700Y5200D01*
X20650Y5200D02*
X20639Y5300D01*
X20605Y5395D01*
X20552Y5481D01*
X20481Y5552D01*
X20395Y5605D01*
X20300Y5639D01*
X20200Y5650D01*
X20100Y5639D01*
X20005Y5605D01*
X19919Y5552D01*
X19848Y5481D01*
X19795Y5395D01*
X19761Y5300D01*
X19750Y5200D01*
X19761Y5100D01*
X19795Y5005D01*
X19848Y4919D01*
X19919Y4848D01*
X20005Y4795D01*
X20100Y4761D01*
X20200Y4750D01*
X20300Y4761D01*
X20395Y4795D01*
X20481Y4848D01*
X20552Y4919D01*
X20605Y5005D01*
X20639Y5100D01*
X20650Y5200D01*
X5350Y8250D02*
X5339Y8350D01*
X5305Y8445D01*
X5252Y8531D01*
X5181Y8602D01*
X5095Y8655D01*
X5000Y8689D01*
X4900Y8700D01*
X4800Y8689D01*
X4705Y8655D01*
X4619Y8602D01*
X4548Y8531D01*
X4495Y8445D01*
X4461Y8350D01*
X4450Y8250D01*
X4461Y8150D01*
X4495Y8055D01*
X4548Y7969D01*
X4619Y7898D01*
X4705Y7845D01*
X4800Y7811D01*
X4900Y7800D01*
X5000Y7811D01*
X5095Y7845D01*
X5181Y7898D01*
X5252Y7969D01*
X5305Y8055D01*
X5339Y8150D01*
X5350Y8250D01*
X5353Y5950D02*
X5341Y6051D01*
X5308Y6146D01*
X5254Y6232D01*
X5182Y6304D01*
X5096Y6358D01*
X5001Y6391D01*
X4900Y6403D01*
X4799Y6391D01*
X4704Y6358D01*
X4618Y6304D01*
X4546Y6232D01*
X4492Y6146D01*
X4459Y6051D01*
X4447Y5950D01*
X4459Y5849D01*
X4492Y5754D01*
X4546Y5668D01*
X4618Y5596D01*
X4704Y5542D01*
X4799Y5509D01*
X4900Y5497D01*
X5001Y5509D01*
X5096Y5542D01*
X5182Y5596D01*
X5254Y5668D01*
X5308Y5754D01*
X5341Y5849D01*
X5353Y5950D01*
X5400Y10650D02*
X5389Y10750D01*
X5355Y10845D01*
X5302Y10931D01*
X5231Y11002D01*
X5145Y11055D01*
X5050Y11089D01*
X4950Y11100D01*
X4850Y11089D01*
X4755Y11055D01*
X4669Y11002D01*
X4598Y10931D01*
X4545Y10845D01*
X4511Y10750D01*
X4500Y10650D01*
X4511Y10550D01*
X4545Y10455D01*
X4598Y10369D01*
X4669Y10298D01*
X4755Y10245D01*
X4850Y10211D01*
X4950Y10200D01*
X5050Y10211D01*
X5145Y10245D01*
X5231Y10298D01*
X5302Y10369D01*
X5355Y10455D01*
X5389Y10550D01*
X5400Y10650D01*
Y13250D02*
X5389Y13350D01*
X5355Y13445D01*
X5302Y13531D01*
X5231Y13602D01*
X5145Y13655D01*
X5050Y13689D01*
X4950Y13700D01*
X4850Y13689D01*
X4755Y13655D01*
X4669Y13602D01*
X4598Y13531D01*
X4545Y13445D01*
X4511Y13350D01*
X4500Y13250D01*
X4511Y13150D01*
X4545Y13055D01*
X4598Y12969D01*
X4669Y12898D01*
X4755Y12845D01*
X4850Y12811D01*
X4950Y12800D01*
X5050Y12811D01*
X5145Y12845D01*
X5231Y12898D01*
X5302Y12969D01*
X5355Y13055D01*
X5389Y13150D01*
X5400Y13250D01*
Y15800D02*
X5389Y15900D01*
X5355Y15995D01*
X5302Y16081D01*
X5231Y16152D01*
X5145Y16205D01*
X5050Y16239D01*
X4950Y16250D01*
X4850Y16239D01*
X4755Y16205D01*
X4669Y16152D01*
X4598Y16081D01*
X4545Y15995D01*
X4511Y15900D01*
X4500Y15800D01*
X4511Y15700D01*
X4545Y15605D01*
X4598Y15519D01*
X4669Y15448D01*
X4755Y15395D01*
X4850Y15361D01*
X4950Y15350D01*
X5050Y15361D01*
X5145Y15395D01*
X5231Y15448D01*
X5302Y15519D01*
X5355Y15605D01*
X5389Y15700D01*
X5400Y15800D01*
X18150Y25650D02*
X18140Y25751D01*
X18109Y25847D01*
X18060Y25936D01*
X17994Y26012D01*
X17914Y26074D01*
X17824Y26119D01*
X17726Y26144D01*
X17625Y26149D01*
X17525Y26134D01*
X17430Y26099D01*
X17344Y26045D01*
X17271Y25976D01*
X17213Y25893D01*
X17173Y25800D01*
X17153Y25701D01*
Y25599D01*
X17173Y25500D01*
X17213Y25407D01*
X17271Y25324D01*
X17344Y25255D01*
X17430Y25201D01*
X17525Y25166D01*
X17625Y25151D01*
X17726Y25156D01*
X17824Y25181D01*
X17914Y25226D01*
X17994Y25288D01*
X18060Y25364D01*
X18109Y25453D01*
X18140Y25549D01*
X18150Y25650D01*
X22006Y6800D02*
X22002Y6900D01*
X21988Y6999D01*
X21966Y7097D01*
X21934Y7192D01*
X21894Y7284D01*
X21846Y7372D01*
X21790Y7455D01*
X21727Y7532D01*
X21657Y7604D01*
X21581Y7669D01*
X21499Y7727D01*
X21412Y7777D01*
X21321Y7819D01*
X21227Y7852D01*
X21130Y7877D01*
X21031Y7893D01*
X20931Y7900D01*
X20831Y7897D01*
X20732Y7886D01*
X20634Y7866D01*
X20538Y7836D01*
X20445Y7799D01*
X20356Y7753D01*
X20272Y7699D01*
X20193Y7637D01*
X20120Y7569D01*
X20053Y7494D01*
X19993Y7414D01*
X19941Y7328D01*
X19897Y7238D01*
X19862Y7145D01*
X19835Y7048D01*
X19817Y6950D01*
X19807Y6850D01*
Y6750D01*
X19817Y6650D01*
X19835Y6552D01*
X19862Y6455D01*
X19897Y6362D01*
X19941Y6272D01*
X19993Y6186D01*
X20053Y6106D01*
X20120Y6031D01*
X20193Y5963D01*
X20272Y5901D01*
X20356Y5847D01*
X20445Y5801D01*
X20538Y5764D01*
X20634Y5734D01*
X20732Y5714D01*
X20831Y5703D01*
X20931Y5700D01*
X21031Y5707D01*
X21130Y5723D01*
X21227Y5748D01*
X21321Y5781D01*
X21412Y5823D01*
X21499Y5873D01*
X21581Y5931D01*
X21657Y5996D01*
X21727Y6068D01*
X21790Y6145D01*
X21846Y6228D01*
X21894Y6316D01*
X21934Y6408D01*
X21966Y6503D01*
X21988Y6601D01*
X22002Y6700D01*
X22006Y6800D01*
X1150Y13400D02*
X1131Y13496D01*
X1077Y13577D01*
X996Y13631D01*
X900Y13650D01*
X804Y13631D01*
X723Y13577D01*
X669Y13496D01*
X650Y13400D01*
X669Y13304D01*
X723Y13223D01*
X804Y13169D01*
X900Y13150D01*
X996Y13169D01*
X1077Y13223D01*
X1131Y13304D01*
X1150Y13400D01*
Y8500D02*
X1131Y8596D01*
X1077Y8677D01*
X996Y8731D01*
X900Y8750D01*
X804Y8731D01*
X723Y8677D01*
X669Y8596D01*
X650Y8500D01*
X669Y8404D01*
X723Y8323D01*
X804Y8269D01*
X900Y8250D01*
X996Y8269D01*
X1077Y8323D01*
X1131Y8404D01*
X1150Y8500D01*
Y15850D02*
X1131Y15946D01*
X1077Y16027D01*
X996Y16081D01*
X900Y16100D01*
X804Y16081D01*
X723Y16027D01*
X669Y15946D01*
X650Y15850D01*
X669Y15754D01*
X723Y15673D01*
X804Y15619D01*
X900Y15600D01*
X996Y15619D01*
X1077Y15673D01*
X1131Y15754D01*
X1150Y15850D01*
Y10950D02*
X1131Y11046D01*
X1077Y11127D01*
X996Y11181D01*
X900Y11200D01*
X804Y11181D01*
X723Y11127D01*
X669Y11046D01*
X650Y10950D01*
X669Y10854D01*
X723Y10773D01*
X804Y10719D01*
X900Y10700D01*
X996Y10719D01*
X1077Y10773D01*
X1131Y10854D01*
X1150Y10950D01*
Y6100D02*
X1131Y6196D01*
X1077Y6277D01*
X996Y6331D01*
X900Y6350D01*
X804Y6331D01*
X723Y6277D01*
X669Y6196D01*
X650Y6100D01*
X669Y6004D01*
X723Y5923D01*
X804Y5869D01*
X900Y5850D01*
X996Y5869D01*
X1077Y5923D01*
X1131Y6004D01*
X1150Y6100D01*
X19250Y1250D02*
X19231Y1346D01*
X19177Y1427D01*
X19096Y1481D01*
X19000Y1500D01*
X18904Y1481D01*
X18823Y1427D01*
X18769Y1346D01*
X18750Y1250D01*
X18769Y1154D01*
X18823Y1073D01*
X18904Y1019D01*
X19000Y1000D01*
X19096Y1019D01*
X19177Y1073D01*
X19231Y1154D01*
X19250Y1250D01*
X21600D02*
X21581Y1346D01*
X21527Y1427D01*
X21446Y1481D01*
X21350Y1500D01*
X21254Y1481D01*
X21173Y1427D01*
X21119Y1346D01*
X21100Y1250D01*
X21119Y1154D01*
X21173Y1073D01*
X21254Y1019D01*
X21350Y1000D01*
X21446Y1019D01*
X21527Y1073D01*
X21581Y1154D01*
X21600Y1250D01*
X22400Y25150D02*
Y25650D01*
X22567Y25483D01*
X22733Y25650D01*
Y25150D01*
X23150Y25650D02*
X22983D01*
X22900Y25567D01*
Y25233D01*
X22983Y25150D01*
X23150D01*
X23233Y25233D01*
Y25567D01*
X23150Y25650D01*
X23400D02*
X23733D01*
X23566D01*
Y25150D01*
X24149Y25650D02*
X23983D01*
X23900Y25567D01*
Y25233D01*
X23983Y25150D01*
X24149D01*
X24233Y25233D01*
Y25567D01*
X24149Y25650D01*
X24399Y25150D02*
Y25650D01*
X24649D01*
X24733Y25567D01*
Y25400D01*
X24649Y25317D01*
X24399D01*
X24566D02*
X24733Y25150D01*
X25232Y25567D02*
X25149Y25650D01*
X24983D01*
X24899Y25567D01*
Y25483D01*
X24983Y25400D01*
X25149D01*
X25232Y25317D01*
Y25233D01*
X25149Y25150D01*
X24983D01*
X24899Y25233D01*
X25399Y25150D02*
Y25650D01*
X25649D01*
X25732Y25567D01*
Y25400D01*
X25649Y25317D01*
X25399D01*
X26149Y25650D02*
X25982D01*
X25899Y25567D01*
Y25233D01*
X25982Y25150D01*
X26149D01*
X26232Y25233D01*
Y25567D01*
X26149Y25650D01*
X26399Y25150D02*
Y25650D01*
X26649D01*
X26732Y25567D01*
Y25400D01*
X26649Y25317D01*
X26399D01*
X26565D02*
X26732Y25150D01*
X26899Y25650D02*
X27232D01*
X27065D01*
Y25150D01*
X27898Y25650D02*
Y25233D01*
X27982Y25150D01*
X28148D01*
X28231Y25233D01*
Y25650D01*
X28398D02*
X28731D01*
X28565D01*
Y25150D01*
X28898D02*
Y25650D01*
X29231Y25150D01*
Y25650D01*
X23100Y26650D02*
X22700D01*
Y26350D01*
X22900D01*
X22700D01*
Y26050D01*
X23600Y26650D02*
X23400D01*
X23300Y26550D01*
Y26150D01*
X23400Y26050D01*
X23600D01*
X23700Y26150D01*
Y26550D01*
X23600Y26650D01*
X23900Y26050D02*
Y26650D01*
X24200D01*
X24299Y26550D01*
Y26350D01*
X24200Y26250D01*
X23900D01*
X24100D02*
X24299Y26050D01*
X24499D02*
Y26650D01*
X24699Y26450D01*
X24899Y26650D01*
Y26050D01*
X25099Y26650D02*
Y26150D01*
X25199Y26050D01*
X25399D01*
X25499Y26150D01*
Y26650D01*
X25699D02*
Y26050D01*
X26099D01*
X26299D02*
Y26450D01*
X26499Y26650D01*
X26699Y26450D01*
Y26050D01*
Y26350D01*
X26299D01*
X27898Y26550D02*
X27798Y26650D01*
X27598D01*
X27498Y26550D01*
Y26450D01*
X27598Y26350D01*
X27798D01*
X27898Y26250D01*
Y26150D01*
X27798Y26050D01*
X27598D01*
X27498Y26150D01*
X28098Y26050D02*
Y26450D01*
X28298Y26650D01*
X28498Y26450D01*
Y26050D01*
Y26350D01*
X28098D01*
X29098Y26650D02*
X28698D01*
Y26050D01*
X29098D01*
X28698Y26350D02*
X28898D01*
X31105Y26685D02*
Y26085D01*
X31405D01*
X31505Y26185D01*
Y26585D01*
X31405Y26685D01*
X31105D01*
X31705Y26585D02*
X31805Y26685D01*
X32005D01*
X32105Y26585D01*
Y26485D01*
X32005Y26385D01*
X31905D01*
X32005D01*
X32105Y26285D01*
Y26185D01*
X32005Y26085D01*
X31805D01*
X31705Y26185D01*
X36300Y4200D02*
Y3700D01*
X36400Y3600D01*
X36600D01*
X36700Y3700D01*
Y4200D01*
X36900Y4100D02*
X37000Y4200D01*
X37200D01*
X37300Y4100D01*
Y4000D01*
X37200Y3900D01*
X37300Y3800D01*
Y3700D01*
X37200Y3600D01*
X37000D01*
X36900Y3700D01*
Y3800D01*
X37000Y3900D01*
X36900Y4000D01*
Y4100D01*
X37000Y3900D02*
X37200D01*
X31350Y4233D02*
X31850D01*
Y3983D01*
X31767Y3900D01*
X31600D01*
X31517Y3983D01*
Y4233D01*
Y4067D02*
X31350Y3900D01*
X31767Y3733D02*
X31850Y3650D01*
Y3483D01*
X31767Y3400D01*
X31683D01*
X31600Y3483D01*
Y3567D01*
Y3483D01*
X31517Y3400D01*
X31433D01*
X31350Y3483D01*
Y3650D01*
X31433Y3733D01*
X31350Y3233D02*
Y3067D01*
Y3150D01*
X31850D01*
X31767Y3233D01*
X32638Y9279D02*
X33137D01*
Y9029D01*
X33054Y8946D01*
X32887D01*
X32804Y9029D01*
Y9279D01*
Y9112D02*
X32638Y8946D01*
X33054Y8779D02*
X33137Y8696D01*
Y8529D01*
X33054Y8446D01*
X32971D01*
X32887Y8529D01*
Y8612D01*
Y8529D01*
X32804Y8446D01*
X32721D01*
X32638Y8529D01*
Y8696D01*
X32721Y8779D01*
X33054Y8279D02*
X33137Y8196D01*
Y8029D01*
X33054Y7946D01*
X32721D01*
X32638Y8029D01*
Y8196D01*
X32721Y8279D01*
X33054D01*
X33550Y17366D02*
X34050D01*
Y17117D01*
X33967Y17033D01*
X33800D01*
X33717Y17117D01*
Y17366D01*
Y17200D02*
X33550Y17033D01*
Y16533D02*
Y16867D01*
X33883Y16533D01*
X33967D01*
X34050Y16617D01*
Y16783D01*
X33967Y16867D01*
X33633Y16367D02*
X33550Y16283D01*
Y16117D01*
X33633Y16034D01*
X33967D01*
X34050Y16117D01*
Y16283D01*
X33967Y16367D01*
X33883D01*
X33800Y16283D01*
Y16034D01*
X34450Y4166D02*
X34950D01*
Y3917D01*
X34867Y3833D01*
X34700D01*
X34617Y3917D01*
Y4166D01*
Y4000D02*
X34450Y3833D01*
Y3333D02*
Y3667D01*
X34783Y3333D01*
X34867D01*
X34950Y3417D01*
Y3583D01*
X34867Y3667D01*
Y3167D02*
X34950Y3083D01*
Y2917D01*
X34867Y2834D01*
X34783D01*
X34700Y2917D01*
X34617Y2834D01*
X34533D01*
X34450Y2917D01*
Y3083D01*
X34533Y3167D01*
X34617D01*
X34700Y3083D01*
X34783Y3167D01*
X34867D01*
X34700Y3083D02*
Y2917D01*
X1455Y21875D02*
X1255D01*
X1355D01*
Y21375D01*
X1255Y21275D01*
X1155D01*
X1055Y21375D01*
X2055Y21875D02*
X1655D01*
Y21575D01*
X1855Y21675D01*
X1955D01*
X2055Y21575D01*
Y21375D01*
X1955Y21275D01*
X1755D01*
X1655Y21375D01*
X32050Y8900D02*
X31550D01*
X31450Y8800D01*
Y8600D01*
X31550Y8500D01*
X32050D01*
Y7900D02*
X31950Y8100D01*
X31750Y8300D01*
X31550D01*
X31450Y8200D01*
Y8000D01*
X31550Y7900D01*
X31650D01*
X31750Y8000D01*
Y8300D01*
X15600Y5050D02*
Y4550D01*
X15700Y4450D01*
X15900D01*
X16000Y4550D01*
Y5050D01*
X16600D02*
X16200D01*
Y4750D01*
X16400Y4850D01*
X16500D01*
X16600Y4750D01*
Y4550D01*
X16500Y4450D01*
X16300D01*
X16200Y4550D01*
X25200Y12000D02*
X24700D01*
X24600Y11900D01*
Y11700D01*
X24700Y11600D01*
X25200D01*
X24600Y11100D02*
X25200D01*
X24900Y11400D01*
Y11000D01*
X11200Y13600D02*
X10700D01*
X10600Y13500D01*
Y13300D01*
X10700Y13200D01*
X11200D01*
X11100Y13000D02*
X11200Y12900D01*
Y12700D01*
X11100Y12600D01*
X11000D01*
X10900Y12700D01*
Y12800D01*
Y12700D01*
X10800Y12600D01*
X10700D01*
X10600Y12700D01*
Y12900D01*
X10700Y13000D01*
X11150Y8450D02*
X10650D01*
X10550Y8350D01*
Y8150D01*
X10650Y8050D01*
X11150D01*
X10550Y7450D02*
Y7850D01*
X10950Y7450D01*
X11050D01*
X11150Y7550D01*
Y7750D01*
X11050Y7850D01*
X20500Y22200D02*
Y21700D01*
X20600Y21600D01*
X20800D01*
X20900Y21700D01*
Y22200D01*
X21100Y21600D02*
X21300D01*
X21200D01*
Y22200D01*
X21100Y22100D01*
X28450Y24600D02*
X28850D01*
X28650D01*
Y24000D01*
X29450D02*
X29050D01*
X29450Y24400D01*
Y24500D01*
X29350Y24600D01*
X29150D01*
X29050Y24500D01*
X25500Y24600D02*
X25900D01*
X25700D01*
Y24000D01*
X26100D02*
X26300D01*
X26200D01*
Y24600D01*
X26100Y24500D01*
X20050Y26650D02*
X19950Y26750D01*
X19750D01*
X19650Y26650D01*
Y26550D01*
X19750Y26450D01*
X19950D01*
X20050Y26350D01*
Y26250D01*
X19950Y26150D01*
X19750D01*
X19650Y26250D01*
X20250Y26150D02*
X20450D01*
X20350D01*
Y26750D01*
X20250Y26650D01*
X36517Y18300D02*
Y18800D01*
X36767D01*
X36850Y18717D01*
Y18550D01*
X36767Y18467D01*
X36517D01*
X36684D02*
X36850Y18300D01*
X37350Y18800D02*
X37017D01*
Y18300D01*
X37350D01*
X37017Y18550D02*
X37183D01*
X37517Y18800D02*
Y18300D01*
X37850D01*
X38350Y18800D02*
X38017D01*
Y18300D01*
X38350D01*
X38017Y18550D02*
X38183D01*
X38516Y18300D02*
X38683D01*
X38600D01*
Y18800D01*
X38516Y18717D01*
X31784Y10100D02*
Y10600D01*
X32033D01*
X32117Y10517D01*
Y10350D01*
X32033Y10267D01*
X31784D01*
X31950D02*
X32117Y10100D01*
X32617D02*
X32283D01*
X32617Y10433D01*
Y10517D01*
X32533Y10600D01*
X32367D01*
X32283Y10517D01*
X32783Y10600D02*
X33116D01*
Y10517D01*
X32783Y10183D01*
Y10100D01*
X31884Y12550D02*
Y13050D01*
X32133D01*
X32217Y12967D01*
Y12800D01*
X32133Y12717D01*
X31884D01*
X32050D02*
X32217Y12550D01*
X32717D02*
X32383D01*
X32717Y12883D01*
Y12967D01*
X32633Y13050D01*
X32467D01*
X32383Y12967D01*
X33216Y13050D02*
X32883D01*
Y12800D01*
X33050Y12883D01*
X33133D01*
X33216Y12800D01*
Y12633D01*
X33133Y12550D01*
X32967D01*
X32883Y12633D01*
X12700Y7100D02*
X13300D01*
Y6800D01*
X13200Y6700D01*
X13000D01*
X12900Y6800D01*
Y7100D01*
Y6900D02*
X12700Y6700D01*
Y6100D02*
Y6500D01*
X13100Y6100D01*
X13200D01*
X13300Y6200D01*
Y6400D01*
X13200Y6500D01*
X12700Y5900D02*
Y5700D01*
Y5800D01*
X13300D01*
X13200Y5900D01*
X31834Y11300D02*
Y11800D01*
X32083D01*
X32167Y11717D01*
Y11550D01*
X32083Y11467D01*
X31834D01*
X32000D02*
X32167Y11300D01*
X32667D02*
X32333D01*
X32667Y11633D01*
Y11717D01*
X32583Y11800D01*
X32417D01*
X32333Y11717D01*
X32833D02*
X32917Y11800D01*
X33083D01*
X33166Y11717D01*
Y11383D01*
X33083Y11300D01*
X32917D01*
X32833Y11383D01*
Y11717D01*
X7300Y20250D02*
Y20850D01*
X7600D01*
X7700Y20750D01*
Y20550D01*
X7600Y20450D01*
X7300D01*
X7500D02*
X7700Y20250D01*
X7900D02*
X8100D01*
X8000D01*
Y20850D01*
X7900Y20750D01*
X8400D02*
X8500Y20850D01*
X8700D01*
X8800Y20750D01*
Y20650D01*
X8700Y20550D01*
X8800Y20450D01*
Y20350D01*
X8700Y20250D01*
X8500D01*
X8400Y20350D01*
Y20450D01*
X8500Y20550D01*
X8400Y20650D01*
Y20750D01*
X8500Y20550D02*
X8700D01*
X4150Y2300D02*
Y2900D01*
X4450D01*
X4550Y2800D01*
Y2600D01*
X4450Y2500D01*
X4150D01*
X4350D02*
X4550Y2300D01*
X4750D02*
X4950D01*
X4850D01*
Y2900D01*
X4750Y2800D01*
X5250D02*
X5350Y2900D01*
X5550D01*
X5650Y2800D01*
Y2700D01*
X5550Y2600D01*
X5450D01*
X5550D01*
X5650Y2500D01*
Y2400D01*
X5550Y2300D01*
X5350D01*
X5250Y2400D01*
X4600Y1100D02*
Y1700D01*
X4900D01*
X5000Y1600D01*
Y1400D01*
X4900Y1300D01*
X4600D01*
X4800D02*
X5000Y1100D01*
X5200Y1200D02*
X5300Y1100D01*
X5500D01*
X5600Y1200D01*
Y1600D01*
X5500Y1700D01*
X5300D01*
X5200Y1600D01*
Y1500D01*
X5300Y1400D01*
X5600D01*
X11500Y6750D02*
X12100D01*
Y6450D01*
X12000Y6350D01*
X11800D01*
X11700Y6450D01*
Y6750D01*
Y6550D02*
X11500Y6350D01*
X12000Y6150D02*
X12100Y6050D01*
Y5850D01*
X12000Y5750D01*
X11900D01*
X11800Y5850D01*
X11700Y5750D01*
X11600D01*
X11500Y5850D01*
Y6050D01*
X11600Y6150D01*
X11700D01*
X11800Y6050D01*
X11900Y6150D01*
X12000D01*
X11800Y6050D02*
Y5850D01*
X27300Y18650D02*
Y19250D01*
X27600D01*
X27700Y19150D01*
Y18950D01*
X27600Y18850D01*
X27300D01*
X27500D02*
X27700Y18650D01*
X28300Y19250D02*
X27900D01*
Y18950D01*
X28100Y19050D01*
X28200D01*
X28300Y18950D01*
Y18750D01*
X28200Y18650D01*
X28000D01*
X27900Y18750D01*
X31850Y15250D02*
Y15850D01*
X32150D01*
X32250Y15750D01*
Y15550D01*
X32150Y15450D01*
X31850D01*
X32050D02*
X32250Y15250D01*
X32750D02*
Y15850D01*
X32450Y15550D01*
X32850D01*
X23050Y24050D02*
Y24650D01*
X23350D01*
X23450Y24550D01*
Y24350D01*
X23350Y24250D01*
X23050D01*
X23250D02*
X23450Y24050D01*
X24050D02*
X23650D01*
X24050Y24450D01*
Y24550D01*
X23950Y24650D01*
X23750D01*
X23650Y24550D01*
X31900Y16450D02*
Y17050D01*
X32200D01*
X32300Y16950D01*
Y16750D01*
X32200Y16650D01*
X31900D01*
X32100D02*
X32300Y16450D01*
X32500D02*
X32700D01*
X32600D01*
Y17050D01*
X32500Y16950D01*
X26100Y11550D02*
X25900D01*
X26000D01*
Y11050D01*
X25900Y10950D01*
X25800D01*
X25700Y11050D01*
X26600Y10950D02*
Y11550D01*
X26300Y11250D01*
X26700D01*
X35200Y18950D02*
X35000D01*
X35100D01*
Y18450D01*
X35000Y18350D01*
X34900D01*
X34800Y18450D01*
X35400Y18850D02*
X35500Y18950D01*
X35700D01*
X35800Y18850D01*
Y18750D01*
X35700Y18650D01*
X35600D01*
X35700D01*
X35800Y18550D01*
Y18450D01*
X35700Y18350D01*
X35500D01*
X35400Y18450D01*
X36767Y14450D02*
X36600D01*
X36683D01*
Y14033D01*
X36600Y13950D01*
X36517D01*
X36433Y14033D01*
X37267Y13950D02*
X36933D01*
X37267Y14283D01*
Y14367D01*
X37183Y14450D01*
X37017D01*
X36933Y14367D01*
X9100Y27000D02*
X8900D01*
X9000D01*
Y26500D01*
X8900Y26400D01*
X8800D01*
X8700Y26500D01*
X9300Y26400D02*
X9500D01*
X9400D01*
Y27000D01*
X9300Y26900D01*
X24650Y16300D02*
X24050D01*
Y16000D01*
X24150Y15900D01*
X24550D01*
X24650Y16000D01*
Y16300D01*
X24050Y15300D02*
Y15700D01*
X24450Y15300D01*
X24550D01*
X24650Y15400D01*
Y15600D01*
X24550Y15700D01*
X24700Y18250D02*
X24100D01*
Y17950D01*
X24200Y17850D01*
X24600D01*
X24700Y17950D01*
Y18250D01*
X24100Y17650D02*
Y17450D01*
Y17550D01*
X24700D01*
X24600Y17650D01*
X18350Y15750D02*
X18450Y15850D01*
Y16050D01*
X18350Y16150D01*
X17950D01*
X17850Y16050D01*
Y15850D01*
X17950Y15750D01*
X17850Y15150D02*
Y15550D01*
X18250Y15150D01*
X18350D01*
X18450Y15250D01*
Y15450D01*
X18350Y15550D01*
X27550Y14150D02*
X27650Y14250D01*
Y14450D01*
X27550Y14550D01*
X27150D01*
X27050Y14450D01*
Y14250D01*
X27150Y14150D01*
X27050Y13950D02*
Y13750D01*
Y13850D01*
X27650D01*
X27550Y13950D01*
G54D13*
X17100Y9750D02*
X17196Y9769D01*
X17277Y9823D01*
X17331Y9904D01*
X17350Y10000D01*
X17331Y10096D01*
X17277Y10177D01*
X17196Y10231D01*
X17100Y10250D01*
X29050Y9400D02*
X29069Y9304D01*
X29123Y9223D01*
X29204Y9169D01*
X29300Y9150D01*
X29396Y9169D01*
X29477Y9223D01*
X29531Y9304D01*
X29550Y9400D01*
X21250Y14200D02*
X21231Y14296D01*
X21177Y14377D01*
X21096Y14431D01*
X21000Y14450D01*
X20904Y14431D01*
X20823Y14377D01*
X20769Y14296D01*
X20750Y14200D01*
X17100Y9000D02*
X24100D01*
Y11000D01*
X17100D02*
X24100D01*
X17100Y10250D02*
Y11000D01*
Y9000D02*
Y9750D01*
X28300Y2400D02*
Y9400D01*
Y2400D02*
X30300D01*
Y9400D01*
X29550D02*
X30300D01*
X28300D02*
X29050D01*
X22000Y14200D02*
Y21200D01*
X20000D02*
X22000D01*
X20000Y14200D02*
Y21200D01*
Y14200D02*
X20750D01*
X21250D02*
X22000D01*
X34780Y9630D02*
Y10130D01*
X35030D01*
X35113Y10047D01*
Y9880D01*
X35030Y9797D01*
X34780D01*
X35280Y9630D02*
Y10130D01*
X35530D01*
X35613Y10047D01*
Y9880D01*
X35530Y9797D01*
X35280D01*
X35446D02*
X35613Y9630D01*
X36113Y10130D02*
X35780D01*
Y9630D01*
X36113D01*
X35780Y9880D02*
X35946D01*
X36613Y10047D02*
X36529Y10130D01*
X36363D01*
X36280Y10047D01*
Y9963D01*
X36363Y9880D01*
X36529D01*
X36613Y9797D01*
Y9713D01*
X36529Y9630D01*
X36363D01*
X36280Y9713D01*
X37612Y10047D02*
X37529Y10130D01*
X37362D01*
X37279Y10047D01*
Y9963D01*
X37362Y9880D01*
X37529D01*
X37612Y9797D01*
Y9713D01*
X37529Y9630D01*
X37362D01*
X37279Y9713D01*
X38112Y10130D02*
X37779D01*
Y9630D01*
X38112D01*
X37779Y9880D02*
X37946D01*
X38279Y9630D02*
Y10130D01*
X38612Y9630D01*
Y10130D01*
X630Y16730D02*
Y17230D01*
X880D01*
X963Y17147D01*
Y16980D01*
X880Y16897D01*
X630D01*
X1130Y16730D02*
Y17230D01*
X1380D01*
X1463Y17147D01*
Y16980D01*
X1380Y16897D01*
X1130D01*
X1296D02*
X1463Y16730D01*
X1963Y17230D02*
X1630D01*
Y16730D01*
X1963D01*
X1630Y16980D02*
X1796D01*
X2463Y17147D02*
X2379Y17230D01*
X2213D01*
X2130Y17147D01*
Y17063D01*
X2213Y16980D01*
X2379D01*
X2463Y16897D01*
Y16813D01*
X2379Y16730D01*
X2213D01*
X2130Y16813D01*
X3462Y17147D02*
X3379Y17230D01*
X3212D01*
X3129Y17147D01*
Y17063D01*
X3212Y16980D01*
X3379D01*
X3462Y16897D01*
Y16813D01*
X3379Y16730D01*
X3212D01*
X3129Y16813D01*
X3962Y17230D02*
X3629D01*
Y16730D01*
X3962D01*
X3629Y16980D02*
X3796D01*
X4129Y16730D02*
Y17230D01*
X4462Y16730D01*
Y17230D01*
X21917Y4800D02*
Y5200D01*
X22117D01*
X22183Y5133D01*
Y5000D01*
X22117Y4933D01*
X21917D01*
X22050D02*
X22183Y4800D01*
X22583D02*
X22317D01*
X22583Y5067D01*
Y5133D01*
X22517Y5200D01*
X22383D01*
X22317Y5133D01*
X22983Y5200D02*
X22850Y5133D01*
X22717Y5000D01*
Y4867D01*
X22783Y4800D01*
X22917D01*
X22983Y4867D01*
Y4933D01*
X22917Y5000D01*
X22717D01*
X18567Y4750D02*
Y5150D01*
X18767D01*
X18833Y5083D01*
Y4950D01*
X18767Y4883D01*
X18567D01*
X18700D02*
X18833Y4750D01*
X19233D02*
X18967D01*
X19233Y5017D01*
Y5083D01*
X19167Y5150D01*
X19033D01*
X18967Y5083D01*
X19567Y4750D02*
Y5150D01*
X19367Y4950D01*
X19633D01*
G54D14*
X30150Y22200D02*
X30145Y22300D01*
X30132Y22400D01*
X30110Y22498D01*
X30080Y22593D01*
X30042Y22686D01*
X29996Y22775D01*
X29942Y22859D01*
X29881Y22939D01*
X29813Y23013D01*
X29739Y23081D01*
X29659Y23142D01*
X29575Y23196D01*
X29486Y23242D01*
X29393Y23280D01*
X29298Y23310D01*
X29200Y23332D01*
X29100Y23345D01*
X29000Y23350D01*
X28900Y23345D01*
X28800Y23332D01*
X28702Y23310D01*
X28607Y23280D01*
X28514Y23242D01*
X28425Y23196D01*
X28341Y23142D01*
X28261Y23081D01*
X28187Y23013D01*
X28119Y22939D01*
X28058Y22859D01*
X28004Y22775D01*
X27958Y22686D01*
X27920Y22593D01*
X27890Y22498D01*
X27868Y22400D01*
X27855Y22300D01*
X27850Y22200D01*
X27855Y22100D01*
X27868Y22000D01*
X27890Y21902D01*
X27920Y21807D01*
X27958Y21714D01*
X28004Y21625D01*
X28058Y21541D01*
X28119Y21461D01*
X28187Y21387D01*
X28261Y21319D01*
X28341Y21258D01*
X28425Y21204D01*
X28514Y21158D01*
X28607Y21120D01*
X28702Y21090D01*
X28800Y21068D01*
X28900Y21055D01*
X29000Y21050D01*
X29100Y21055D01*
X29200Y21068D01*
X29298Y21090D01*
X29393Y21120D01*
X29486Y21158D01*
X29575Y21204D01*
X29659Y21258D01*
X29739Y21319D01*
X29813Y21387D01*
X29881Y21461D01*
X29942Y21541D01*
X29996Y21625D01*
X30042Y21714D01*
X30080Y21807D01*
X30110Y21902D01*
X30132Y22000D01*
X30145Y22100D01*
X30150Y22200D01*
X29959Y22834D02*
X30315Y23190D01*
X29990Y23515D02*
X30315Y23190D01*
X29634Y23159D02*
X29990Y23515D01*
X20508Y7603D02*
Y7260D01*
X20336Y7431D02*
X20679D01*
G54D15*
X3910Y20147D02*
Y20942D01*
X990Y17382D02*
Y19755D01*
Y20147D02*
Y20942D01*
X3910D01*
Y17382D02*
Y19755D01*
X990Y17382D02*
X3910D01*
X10059Y27149D02*
X14159D01*
X10059Y24777D02*
Y27149D01*
Y23589D02*
X14159D01*
Y24383D01*
Y24777D02*
Y27149D01*
X10059Y23589D02*
Y24383D01*
X34659Y13849D02*
X38759D01*
X34659Y11477D02*
Y13849D01*
Y10289D02*
X38759D01*
Y11083D01*
Y11477D02*
Y13849D01*
X34659Y10289D02*
Y11083D01*
Y18149D02*
X38759D01*
X34659Y15777D02*
Y18149D01*
Y14589D02*
X38759D01*
Y15383D01*
Y15777D02*
Y18149D01*
X34659Y14589D02*
Y15383D01*
G54D16*
X16540Y23490D02*
Y23990D01*
X16790D01*
X16873Y23907D01*
Y23740D01*
X16790Y23657D01*
X16540D01*
X16707D02*
X16873Y23490D01*
X17373Y23990D02*
X17040D01*
Y23490D01*
X17373D01*
X17040Y23740D02*
X17206D01*
X17873Y23907D02*
X17790Y23990D01*
X17623D01*
X17540Y23907D01*
Y23823D01*
X17623Y23740D01*
X17790D01*
X17873Y23657D01*
Y23573D01*
X17790Y23490D01*
X17623D01*
X17540Y23573D01*
X18373Y23990D02*
X18040D01*
Y23490D01*
X18373D01*
X18040Y23740D02*
X18206D01*
X18539Y23990D02*
X18873D01*
X18706D01*
Y23490D01*
X17117Y13292D02*
X17200Y13375D01*
Y13541D01*
X17117Y13625D01*
X16783D01*
X16700Y13541D01*
Y13375D01*
X16783Y13292D01*
X16700Y13125D02*
Y12958D01*
Y13042D01*
X17200D01*
X17117Y13125D01*
X17200Y12708D02*
Y12375D01*
X17117D01*
X16783Y12708D01*
X16700D01*
X24058Y7917D02*
X23975Y8000D01*
X23809D01*
X23725Y7917D01*
Y7583D01*
X23809Y7500D01*
X23975D01*
X24058Y7583D01*
X24225Y7500D02*
X24392D01*
X24308D01*
Y8000D01*
X24225Y7917D01*
X24975Y8000D02*
X24808Y7917D01*
X24642Y7750D01*
Y7583D01*
X24725Y7500D01*
X24891D01*
X24975Y7583D01*
Y7667D01*
X24891Y7750D01*
X24642D01*
X25067Y13292D02*
X25150Y13375D01*
Y13541D01*
X25067Y13625D01*
X24733D01*
X24650Y13541D01*
Y13375D01*
X24733Y13292D01*
X24650Y13125D02*
Y12958D01*
Y13042D01*
X25150D01*
X25067Y13125D01*
X25150Y12375D02*
Y12708D01*
X24900D01*
X24983Y12542D01*
Y12459D01*
X24900Y12375D01*
X24733D01*
X24650Y12459D01*
Y12625D01*
X24733Y12708D01*
X14417Y13292D02*
X14500Y13375D01*
Y13541D01*
X14417Y13625D01*
X14083D01*
X14000Y13541D01*
Y13375D01*
X14083Y13292D01*
X14000Y13125D02*
Y12958D01*
Y13042D01*
X14500D01*
X14417Y13125D01*
X14000Y12459D02*
X14500D01*
X14250Y12708D01*
Y12375D01*
X18517Y7192D02*
X18600Y7275D01*
Y7441D01*
X18517Y7525D01*
X18183D01*
X18100Y7441D01*
Y7275D01*
X18183Y7192D01*
X18100Y7025D02*
Y6858D01*
Y6942D01*
X18600D01*
X18517Y7025D01*
Y6608D02*
X18600Y6525D01*
Y6359D01*
X18517Y6275D01*
X18433D01*
X18350Y6359D01*
Y6442D01*
Y6359D01*
X18267Y6275D01*
X18183D01*
X18100Y6359D01*
Y6525D01*
X18183Y6608D01*
X6317Y17592D02*
X6400Y17675D01*
Y17841D01*
X6317Y17925D01*
X5983D01*
X5900Y17841D01*
Y17675D01*
X5983Y17592D01*
X5900Y17425D02*
Y17258D01*
Y17342D01*
X6400D01*
X6317Y17425D01*
X5900Y16675D02*
Y17008D01*
X6233Y16675D01*
X6317D01*
X6400Y16759D01*
Y16925D01*
X6317Y17008D01*
X6467Y5358D02*
X6550Y5442D01*
Y5608D01*
X6467Y5691D01*
X6133D01*
X6050Y5608D01*
Y5442D01*
X6133Y5358D01*
X6050Y5192D02*
Y5025D01*
Y5108D01*
X6550D01*
X6467Y5192D01*
X6050Y4775D02*
Y4609D01*
Y4692D01*
X6550D01*
X6467Y4775D01*
X22533Y6750D02*
Y6333D01*
X22617Y6250D01*
X22783D01*
X22867Y6333D01*
Y6750D01*
X23033D02*
X23367D01*
Y6667D01*
X23033Y6333D01*
Y6250D01*
X12750Y13716D02*
X13250D01*
Y13467D01*
X13167Y13383D01*
X13000D01*
X12917Y13467D01*
Y13716D01*
Y13550D02*
X12750Y13383D01*
Y12883D02*
Y13217D01*
X13083Y12883D01*
X13167D01*
X13250Y12967D01*
Y13133D01*
X13167Y13217D01*
Y12717D02*
X13250Y12633D01*
Y12467D01*
X13167Y12384D01*
X13083D01*
X13000Y12467D01*
Y12550D01*
Y12467D01*
X12917Y12384D01*
X12833D01*
X12750Y12467D01*
Y12633D01*
X12833Y12717D01*
X15450Y13716D02*
X15950D01*
Y13467D01*
X15867Y13383D01*
X15700D01*
X15617Y13467D01*
Y13716D01*
Y13550D02*
X15450Y13383D01*
Y12883D02*
Y13217D01*
X15783Y12883D01*
X15867D01*
X15950Y12967D01*
Y13133D01*
X15867Y13217D01*
X15450Y12384D02*
Y12717D01*
X15783Y12384D01*
X15867D01*
X15950Y12467D01*
Y12633D01*
X15867Y12717D01*
X4475Y4550D02*
Y5050D01*
X4725D01*
X4808Y4967D01*
Y4800D01*
X4725Y4717D01*
X4475D01*
X4642D02*
X4808Y4550D01*
X4975D02*
X5142D01*
X5058D01*
Y5050D01*
X4975Y4967D01*
X5392Y4633D02*
X5475Y4550D01*
X5641D01*
X5725Y4633D01*
Y4967D01*
X5641Y5050D01*
X5475D01*
X5392Y4967D01*
Y4883D01*
X5475Y4800D01*
X5725D01*
X4475Y9500D02*
Y10000D01*
X4725D01*
X4808Y9917D01*
Y9750D01*
X4725Y9667D01*
X4475D01*
X4642D02*
X4808Y9500D01*
X4975D02*
X5142D01*
X5058D01*
Y10000D01*
X4975Y9917D01*
X5392Y10000D02*
X5725D01*
Y9917D01*
X5392Y9583D01*
Y9500D01*
X4425Y14700D02*
Y15200D01*
X4675D01*
X4758Y15117D01*
Y14950D01*
X4675Y14867D01*
X4425D01*
X4592D02*
X4758Y14700D01*
X4925D02*
X5092D01*
X5008D01*
Y15200D01*
X4925Y15117D01*
X5675Y15200D02*
X5508Y15117D01*
X5342Y14950D01*
Y14783D01*
X5425Y14700D01*
X5591D01*
X5675Y14783D01*
Y14867D01*
X5591Y14950D01*
X5342D01*
X12850Y15375D02*
X13350D01*
Y15125D01*
X13267Y15042D01*
X13100D01*
X13017Y15125D01*
Y15375D01*
Y15208D02*
X12850Y15042D01*
Y14875D02*
Y14708D01*
Y14792D01*
X13350D01*
X13267Y14875D01*
X13350Y14125D02*
Y14458D01*
X13100D01*
X13183Y14292D01*
Y14209D01*
X13100Y14125D01*
X12933D01*
X12850Y14209D01*
Y14375D01*
X12933Y14458D01*
X11650Y13625D02*
X12150D01*
Y13375D01*
X12067Y13292D01*
X11900D01*
X11817Y13375D01*
Y13625D01*
Y13458D02*
X11650Y13292D01*
Y13125D02*
Y12958D01*
Y13042D01*
X12150D01*
X12067Y13125D01*
X11650Y12459D02*
X12150D01*
X11900Y12708D01*
Y12375D01*
X4475Y6950D02*
Y7450D01*
X4725D01*
X4808Y7367D01*
Y7200D01*
X4725Y7117D01*
X4475D01*
X4642D02*
X4808Y6950D01*
X4975D02*
X5142D01*
X5058D01*
Y7450D01*
X4975Y7367D01*
X5725Y6950D02*
X5392D01*
X5725Y7283D01*
Y7367D01*
X5641Y7450D01*
X5475D01*
X5392Y7367D01*
X11650Y15391D02*
X12150D01*
Y15142D01*
X12067Y15058D01*
X11900D01*
X11817Y15142D01*
Y15391D01*
Y15225D02*
X11650Y15058D01*
Y14892D02*
Y14725D01*
Y14808D01*
X12150D01*
X12067Y14892D01*
X11650Y14475D02*
Y14309D01*
Y14392D01*
X12150D01*
X12067Y14475D01*
X4475Y12050D02*
Y12550D01*
X4725D01*
X4808Y12467D01*
Y12300D01*
X4725Y12217D01*
X4475D01*
X4642D02*
X4808Y12050D01*
X4975D02*
X5142D01*
X5058D01*
Y12550D01*
X4975Y12467D01*
X5392D02*
X5475Y12550D01*
X5641D01*
X5725Y12467D01*
Y12133D01*
X5641Y12050D01*
X5475D01*
X5392Y12133D01*
Y12467D01*
X14100Y15317D02*
X14600D01*
Y15067D01*
X14517Y14983D01*
X14350D01*
X14267Y15067D01*
Y15317D01*
Y15150D02*
X14100Y14983D01*
X14600Y14817D02*
Y14483D01*
X14517D01*
X14183Y14817D01*
X14100D01*
X16600Y15217D02*
X17100D01*
Y14967D01*
X17017Y14883D01*
X16850D01*
X16767Y14967D01*
Y15217D01*
Y15050D02*
X16600Y14883D01*
X17100Y14383D02*
X17017Y14550D01*
X16850Y14717D01*
X16683D01*
X16600Y14633D01*
Y14467D01*
X16683Y14383D01*
X16767D01*
X16850Y14467D01*
Y14717D01*
X15300Y15267D02*
X15800D01*
Y15017D01*
X15717Y14933D01*
X15550D01*
X15467Y15017D01*
Y15267D01*
Y15100D02*
X15300Y14933D01*
X15717Y14767D02*
X15800Y14683D01*
Y14517D01*
X15717Y14433D01*
X15633D01*
X15550Y14517D01*
Y14600D01*
Y14517D01*
X15467Y14433D01*
X15383D01*
X15300Y14517D01*
Y14683D01*
X15383Y14767D01*
X31367Y1492D02*
X31450Y1575D01*
Y1741D01*
X31367Y1825D01*
X31033D01*
X30950Y1741D01*
Y1575D01*
X31033Y1492D01*
X30950Y1325D02*
Y1158D01*
Y1242D01*
X31450D01*
X31367Y1325D01*
Y908D02*
X31450Y825D01*
Y659D01*
X31367Y575D01*
X31033D01*
X30950Y659D01*
Y825D01*
X31033Y908D01*
X31367D01*
X27167Y1233D02*
X27250Y1317D01*
Y1483D01*
X27167Y1567D01*
X26833D01*
X26750Y1483D01*
Y1317D01*
X26833Y1233D01*
Y1067D02*
X26750Y983D01*
Y817D01*
X26833Y733D01*
X27167D01*
X27250Y817D01*
Y983D01*
X27167Y1067D01*
X27083D01*
X27000Y983D01*
Y733D01*
X14067Y1367D02*
X13983Y1450D01*
X13817D01*
X13733Y1367D01*
Y1033D01*
X13817Y950D01*
X13983D01*
X14067Y1033D01*
X14233Y1367D02*
X14317Y1450D01*
X14483D01*
X14567Y1367D01*
Y1283D01*
X14483Y1200D01*
X14567Y1117D01*
Y1033D01*
X14483Y950D01*
X14317D01*
X14233Y1033D01*
Y1117D01*
X14317Y1200D01*
X14233Y1283D01*
Y1367D01*
X14317Y1200D02*
X14483D01*
X19517Y6833D02*
X19600Y6917D01*
Y7083D01*
X19517Y7167D01*
X19183D01*
X19100Y7083D01*
Y6917D01*
X19183Y6833D01*
X19600Y6667D02*
Y6333D01*
X19517D01*
X19183Y6667D01*
X19100D01*
X6317Y18633D02*
X6400Y18717D01*
Y18883D01*
X6317Y18967D01*
X5983D01*
X5900Y18883D01*
Y18717D01*
X5983Y18633D01*
X6400Y18133D02*
X6317Y18300D01*
X6150Y18467D01*
X5983D01*
X5900Y18383D01*
Y18217D01*
X5983Y18133D01*
X6067D01*
X6150Y18217D01*
Y18467D01*
X6067Y10767D02*
X5983Y10850D01*
X5817D01*
X5733Y10767D01*
Y10433D01*
X5817Y10350D01*
X5983D01*
X6067Y10433D01*
X6567Y10850D02*
X6233D01*
Y10600D01*
X6400Y10683D01*
X6483D01*
X6567Y10600D01*
Y10433D01*
X6483Y10350D01*
X6317D01*
X6233Y10433D01*
X6317Y16033D02*
X6400Y16117D01*
Y16283D01*
X6317Y16367D01*
X5983D01*
X5900Y16283D01*
Y16117D01*
X5983Y16033D01*
X5900Y15617D02*
X6400D01*
X6150Y15867D01*
Y15533D01*
X6467Y3833D02*
X6550Y3917D01*
Y4083D01*
X6467Y4167D01*
X6133D01*
X6050Y4083D01*
Y3917D01*
X6133Y3833D01*
X6467Y3667D02*
X6550Y3583D01*
Y3417D01*
X6467Y3333D01*
X6383D01*
X6300Y3417D01*
Y3500D01*
Y3417D01*
X6217Y3333D01*
X6133D01*
X6050Y3417D01*
Y3583D01*
X6133Y3667D01*
G54D17*
X31550Y24500D02*
D03*
M02*
