G04*
G04 #@! TF.GenerationSoftware,Altium Limited,Altium Designer,20.0.13 (296)*
G04*
G04 Layer_Color=2752767*
%FSLAX24Y24*%
%MOIN*%
G70*
G01*
G75*
%ADD59C,0.0020*%
%ADD60C,0.0027*%
%ADD61C,0.0013*%
G54D59*
X31470Y25370D02*
Y25530D01*
X31630D01*
Y25370D01*
X31470D01*
Y21370D02*
Y21530D01*
X31630D01*
Y21370D01*
X31470D01*
X3631Y19871D02*
X3551Y20031D01*
X3711D01*
X3631Y19871D01*
X1269D02*
X1189Y20031D01*
X1349D01*
X1269Y19871D01*
X2450Y19501D02*
X2490Y19541D01*
X2530D01*
X2490Y19581D01*
X2530Y19621D01*
X2490D01*
X2450Y19661D01*
X2410Y19621D01*
X2370D01*
X2410Y19581D01*
X2370Y19541D01*
X2410D01*
X2450Y19501D01*
Y18320D02*
X2490Y18360D01*
X2530D01*
X2490Y18400D01*
X2530Y18440D01*
X2490D01*
X2450Y18480D01*
X2410Y18440D01*
X2370D01*
X2410Y18400D01*
X2370Y18360D01*
X2410D01*
X2450Y18320D01*
X11519Y26051D02*
X11559Y26091D01*
X11599D01*
X11559Y26131D01*
X11599Y26171D01*
X11559D01*
X11519Y26211D01*
X11479Y26171D01*
X11439D01*
X11479Y26131D01*
X11439Y26091D01*
X11479D01*
X11519Y26051D01*
X12700D02*
X12740Y26091D01*
X12780D01*
X12740Y26131D01*
X12780Y26171D01*
X12740D01*
X12700Y26211D01*
X12660Y26171D01*
X12620D01*
X12660Y26131D01*
X12620Y26091D01*
X12660D01*
X12700Y26051D01*
X11519Y24870D02*
X11559Y24910D01*
X11599D01*
X11559Y24950D01*
X11599Y24990D01*
X11559D01*
X11519Y25030D01*
X11479Y24990D01*
X11439D01*
X11479Y24950D01*
X11439Y24910D01*
X11479D01*
X11519Y24870D01*
X12700D02*
X12740Y24910D01*
X12780D01*
X12740Y24950D01*
X12780Y24990D01*
X12740D01*
X12700Y25030D01*
X12660Y24990D01*
X12620D01*
X12660Y24950D01*
X12620Y24910D01*
X12660D01*
X12700Y24870D01*
X13881Y24500D02*
X13801Y24660D01*
X13961D01*
X13881Y24500D01*
X10338D02*
X10258Y24660D01*
X10418D01*
X10338Y24500D01*
X36119Y12751D02*
X36159Y12791D01*
X36199D01*
X36159Y12831D01*
X36199Y12871D01*
X36159D01*
X36119Y12911D01*
X36079Y12871D01*
X36039D01*
X36079Y12831D01*
X36039Y12791D01*
X36079D01*
X36119Y12751D01*
X37300D02*
X37340Y12791D01*
X37380D01*
X37340Y12831D01*
X37380Y12871D01*
X37340D01*
X37300Y12911D01*
X37260Y12871D01*
X37220D01*
X37260Y12831D01*
X37220Y12791D01*
X37260D01*
X37300Y12751D01*
X36119Y11570D02*
X36159Y11610D01*
X36199D01*
X36159Y11650D01*
X36199Y11690D01*
X36159D01*
X36119Y11730D01*
X36079Y11690D01*
X36039D01*
X36079Y11650D01*
X36039Y11610D01*
X36079D01*
X36119Y11570D01*
X37300D02*
X37340Y11610D01*
X37380D01*
X37340Y11650D01*
X37380Y11690D01*
X37340D01*
X37300Y11730D01*
X37260Y11690D01*
X37220D01*
X37260Y11650D01*
X37220Y11610D01*
X37260D01*
X37300Y11570D01*
X38481Y11200D02*
X38401Y11360D01*
X38561D01*
X38481Y11200D01*
X34938D02*
X34858Y11360D01*
X35018D01*
X34938Y11200D01*
X36119Y17051D02*
X36159Y17091D01*
X36199D01*
X36159Y17131D01*
X36199Y17171D01*
X36159D01*
X36119Y17211D01*
X36079Y17171D01*
X36039D01*
X36079Y17131D01*
X36039Y17091D01*
X36079D01*
X36119Y17051D01*
X37300D02*
X37340Y17091D01*
X37380D01*
X37340Y17131D01*
X37380Y17171D01*
X37340D01*
X37300Y17211D01*
X37260Y17171D01*
X37220D01*
X37260Y17131D01*
X37220Y17091D01*
X37260D01*
X37300Y17051D01*
X36119Y15870D02*
X36159Y15910D01*
X36199D01*
X36159Y15950D01*
X36199Y15990D01*
X36159D01*
X36119Y16030D01*
X36079Y15990D01*
X36039D01*
X36079Y15950D01*
X36039Y15910D01*
X36079D01*
X36119Y15870D01*
X37300D02*
X37340Y15910D01*
X37380D01*
X37340Y15950D01*
X37380Y15990D01*
X37340D01*
X37300Y16030D01*
X37260Y15990D01*
X37220D01*
X37260Y15950D01*
X37220Y15910D01*
X37260D01*
X37300Y15870D01*
X38481Y15500D02*
X38401Y15660D01*
X38561D01*
X38481Y15500D01*
X34938D02*
X34858Y15660D01*
X35018D01*
X34938Y15500D01*
X37322Y1889D02*
X37362Y1969D01*
X37322Y2049D01*
X37402Y2008D01*
X37482Y2049D01*
X37442Y1969D01*
X37482Y1889D01*
X37402Y1928D01*
X37322Y1889D01*
X1620Y25270D02*
X1660Y25350D01*
X1620Y25430D01*
X1700Y25390D01*
X1780Y25430D01*
X1740Y25350D01*
X1780Y25270D01*
X1700Y25310D01*
X1620Y25270D01*
X1889Y1889D02*
X1928Y1969D01*
X1889Y2049D01*
X1969Y2008D01*
X2049Y2049D01*
X2008Y1969D01*
X2049Y1889D01*
X1969Y1928D01*
X1889Y1889D01*
X18850Y26456D02*
Y26616D01*
X19010D01*
Y26456D01*
X18850D01*
X16290D02*
Y26616D01*
X16450D01*
Y26456D01*
X16290D01*
Y24684D02*
Y24844D01*
X16450D01*
Y24684D01*
X16290D01*
X18850D02*
Y24844D01*
X19010D01*
Y24684D01*
X18850D01*
X21260Y6760D02*
Y6720D01*
X21340D01*
Y6760D01*
X21380D01*
Y6840D01*
X21340D01*
Y6880D01*
X21260D01*
Y6840D01*
X21220D01*
Y6760D01*
X21260D01*
X20473D02*
Y6720D01*
X20553D01*
Y6760D01*
X20593D01*
Y6840D01*
X20553D01*
Y6880D01*
X20473D01*
Y6840D01*
X20433D01*
Y6760D01*
X20473D01*
X37970Y25570D02*
X38010D01*
X38050Y25610D01*
X38090Y25570D01*
X38130D01*
Y25610D01*
X38090Y25650D01*
X38130Y25690D01*
Y25730D01*
X38090D01*
X38050Y25690D01*
X38010Y25730D01*
X37970D01*
Y25690D01*
X38010Y25650D01*
X37970Y25610D01*
Y25570D01*
X33246Y20767D02*
X33286D01*
X33326Y20807D01*
X33366Y20767D01*
X33406D01*
Y20807D01*
X33366Y20847D01*
X33406Y20887D01*
Y20927D01*
X33366D01*
X33326Y20887D01*
X33286Y20927D01*
X33246D01*
Y20887D01*
X33286Y20847D01*
X33246Y20807D01*
Y20767D01*
Y25570D02*
X33286D01*
X33326Y25610D01*
X33366Y25570D01*
X33406D01*
Y25610D01*
X33366Y25650D01*
X33406Y25690D01*
Y25730D01*
X33366D01*
X33326Y25690D01*
X33286Y25730D01*
X33246D01*
Y25690D01*
X33286Y25650D01*
X33246Y25610D01*
Y25570D01*
X35608Y19979D02*
X35648D01*
X35688Y20019D01*
X35728Y19979D01*
X35768D01*
Y20019D01*
X35728Y20059D01*
X35768Y20099D01*
Y20139D01*
X35728D01*
X35688Y20099D01*
X35648Y20139D01*
X35608D01*
Y20099D01*
X35648Y20059D01*
X35608Y20019D01*
Y19979D01*
X37970Y20767D02*
X38010D01*
X38050Y20807D01*
X38090Y20767D01*
X38130D01*
Y20807D01*
X38090Y20847D01*
X38130Y20887D01*
Y20927D01*
X38090D01*
X38050Y20887D01*
X38010Y20927D01*
X37970D01*
Y20887D01*
X38010Y20847D01*
X37970Y20807D01*
Y20767D01*
X25070Y10220D02*
Y10380D01*
X25230D01*
Y10220D01*
X25070D01*
X26070D02*
Y10380D01*
X26230D01*
Y10220D01*
X26070D01*
X28920Y22700D02*
X29000Y22780D01*
X29080Y22700D01*
X29000Y22620D01*
X28920Y22700D01*
X28420Y22200D02*
X28500Y22280D01*
X28580Y22200D01*
X28500Y22120D01*
X28420Y22200D01*
X28920Y21700D02*
X29000Y21780D01*
X29080Y21700D01*
X29000Y21620D01*
X28920Y21700D01*
X13770Y4520D02*
Y4680D01*
X13930D01*
Y4520D01*
X13770D01*
X13810Y4560D02*
Y4640D01*
X13890D01*
Y4560D01*
X13810D01*
X12870Y3620D02*
Y3780D01*
X13030D01*
Y3620D01*
X12870D01*
X12910Y3660D02*
Y3740D01*
X12990D01*
Y3660D01*
X12910D01*
X25370Y7770D02*
Y7930D01*
X25530D01*
Y7770D01*
X25370D01*
X25410Y7810D02*
Y7890D01*
X25490D01*
Y7810D01*
X25410D01*
X26413Y9077D02*
Y9237D01*
X26573D01*
Y9077D01*
X26413D01*
X26453Y9117D02*
Y9197D01*
X26533D01*
Y9117D01*
X26453D01*
X25370Y9070D02*
Y9230D01*
X25530D01*
Y9070D01*
X25370D01*
X25410Y9110D02*
Y9190D01*
X25490D01*
Y9110D01*
X25410D01*
X14770Y20620D02*
Y20780D01*
X14930D01*
Y20620D01*
X14770D01*
X14810Y20660D02*
Y20740D01*
X14890D01*
Y20660D01*
X14810D01*
X31670Y2070D02*
Y2230D01*
X31830D01*
Y2070D01*
X31670D01*
X31710Y2110D02*
Y2190D01*
X31790D01*
Y2110D01*
X31710D01*
X10870Y19920D02*
Y20080D01*
X11030D01*
Y19920D01*
X10870D01*
X10910Y19960D02*
Y20040D01*
X10990D01*
Y19960D01*
X10910D01*
X13570Y20711D02*
Y20871D01*
X13730D01*
Y20711D01*
X13570D01*
X13610Y20751D02*
Y20831D01*
X13690D01*
Y20751D01*
X13610D01*
X9070Y21170D02*
Y21330D01*
X9230D01*
Y21170D01*
X9070D01*
X9110Y21210D02*
Y21290D01*
X9190D01*
Y21210D01*
X9110D01*
X12420Y20670D02*
Y20830D01*
X12580D01*
Y20670D01*
X12420D01*
X12460Y20710D02*
Y20790D01*
X12540D01*
Y20710D01*
X12460D01*
X22220Y5470D02*
Y5630D01*
X22380D01*
Y5470D01*
X22220D01*
X22260Y5510D02*
Y5590D01*
X22340D01*
Y5510D01*
X22260D01*
X20120Y5120D02*
Y5280D01*
X20280D01*
Y5120D01*
X20120D01*
X20160Y5160D02*
Y5240D01*
X20240D01*
Y5160D01*
X20160D01*
X21220Y5120D02*
Y5280D01*
X21380D01*
Y5120D01*
X21220D01*
X21260Y5160D02*
Y5240D01*
X21340D01*
Y5160D01*
X21260D01*
X25470Y14020D02*
Y14180D01*
X25630D01*
Y14020D01*
X25470D01*
X25510Y14060D02*
Y14140D01*
X25590D01*
Y14060D01*
X25510D01*
X26120Y12720D02*
Y12880D01*
X26280D01*
Y12720D01*
X26120D01*
X26160Y12760D02*
Y12840D01*
X26240D01*
Y12760D01*
X26160D01*
X26470Y7770D02*
Y7930D01*
X26630D01*
Y7770D01*
X26470D01*
X26510Y7810D02*
Y7890D01*
X26590D01*
Y7810D01*
X26510D01*
X20920Y12420D02*
Y12580D01*
X21080D01*
Y12420D01*
X20920D01*
X20960Y12460D02*
Y12540D01*
X21040D01*
Y12460D01*
X20960D01*
X5420Y9020D02*
Y9180D01*
X5580D01*
Y9020D01*
X5420D01*
X5460Y9060D02*
Y9140D01*
X5540D01*
Y9060D01*
X5460D01*
X4620Y9020D02*
Y9180D01*
X4780D01*
Y9020D01*
X4620D01*
X4660Y9060D02*
Y9140D01*
X4740D01*
Y9060D01*
X4660D01*
X10820Y1970D02*
Y2130D01*
X10980D01*
Y1970D01*
X10820D01*
X10860Y2010D02*
Y2090D01*
X10940D01*
Y2010D01*
X10860D01*
X4820Y5870D02*
Y6030D01*
X4980D01*
Y5870D01*
X4820D01*
X4860Y5910D02*
Y5990D01*
X4940D01*
Y5910D01*
X4860D01*
X4820Y8170D02*
Y8330D01*
X4980D01*
Y8170D01*
X4820D01*
X4860Y8210D02*
Y8290D01*
X4940D01*
Y8210D01*
X4860D01*
X10720Y10670D02*
Y10830D01*
X10880D01*
Y10670D01*
X10720D01*
X10760Y10710D02*
Y10790D01*
X10840D01*
Y10710D01*
X10760D01*
X4870Y10570D02*
Y10730D01*
X5030D01*
Y10570D01*
X4870D01*
X4910Y10610D02*
Y10690D01*
X4990D01*
Y10610D01*
X4910D01*
X5420Y11527D02*
Y11687D01*
X5580D01*
Y11527D01*
X5420D01*
X5460Y11567D02*
Y11647D01*
X5540D01*
Y11567D01*
X5460D01*
X4870Y15720D02*
Y15880D01*
X5030D01*
Y15720D01*
X4870D01*
X4910Y15760D02*
Y15840D01*
X4990D01*
Y15760D01*
X4910D01*
X4870Y14170D02*
Y14330D01*
X5030D01*
Y14170D01*
X4870D01*
X4910Y14210D02*
Y14290D01*
X4990D01*
Y14210D01*
X4910D01*
X4870Y13170D02*
Y13330D01*
X5030D01*
Y13170D01*
X4870D01*
X4910Y13210D02*
Y13290D01*
X4990D01*
Y13210D01*
X4910D01*
X3870Y1270D02*
Y1430D01*
X4030D01*
Y1270D01*
X3870D01*
X3910Y1310D02*
Y1390D01*
X3990D01*
Y1310D01*
X3910D01*
X2920Y3670D02*
Y3830D01*
X3080D01*
Y3670D01*
X2920D01*
X2960Y3710D02*
Y3790D01*
X3040D01*
Y3710D01*
X2960D01*
X23820Y14070D02*
Y14230D01*
X23980D01*
Y14070D01*
X23820D01*
X23860Y14110D02*
Y14190D01*
X23940D01*
Y14110D01*
X23860D01*
X32620Y14020D02*
Y14180D01*
X32780D01*
Y14020D01*
X32620D01*
X32660Y14060D02*
Y14140D01*
X32740D01*
Y14060D01*
X32660D01*
X31270Y14020D02*
Y14180D01*
X31430D01*
Y14020D01*
X31270D01*
X31310Y14060D02*
Y14140D01*
X31390D01*
Y14060D01*
X31310D01*
X16470Y9970D02*
Y10130D01*
X16630D01*
Y9970D01*
X16470D01*
X16510Y10010D02*
Y10090D01*
X16590D01*
Y10010D01*
X16510D01*
X20920Y13520D02*
Y13680D01*
X21080D01*
Y13520D01*
X20920D01*
X20960Y13560D02*
Y13640D01*
X21040D01*
Y13560D01*
X20960D01*
X11253Y14037D02*
Y14197D01*
X11413D01*
Y14037D01*
X11253D01*
X11293Y14077D02*
Y14157D01*
X11373D01*
Y14077D01*
X11293D01*
X10720Y11820D02*
Y11980D01*
X10880D01*
Y11820D01*
X10720D01*
X10760Y11860D02*
Y11940D01*
X10840D01*
Y11860D01*
X10760D01*
X17820Y14020D02*
Y14180D01*
X17980D01*
Y14020D01*
X17820D01*
X17860Y14060D02*
Y14140D01*
X17940D01*
Y14060D01*
X17860D01*
X14170Y11820D02*
Y11980D01*
X14330D01*
Y11820D01*
X14170D01*
X14210Y11860D02*
Y11940D01*
X14290D01*
Y11860D01*
X14210D01*
X10820Y6820D02*
Y6980D01*
X10980D01*
Y6820D01*
X10820D01*
X10860Y6860D02*
Y6940D01*
X10940D01*
Y6860D01*
X10860D01*
X13620Y6770D02*
Y6930D01*
X13780D01*
Y6770D01*
X13620D01*
X13660Y6810D02*
Y6890D01*
X13740D01*
Y6810D01*
X13660D01*
X14420Y6770D02*
Y6930D01*
X14580D01*
Y6770D01*
X14420D01*
X14460Y6810D02*
Y6890D01*
X14540D01*
Y6810D01*
X14460D01*
X17470Y21170D02*
Y21330D01*
X17630D01*
Y21170D01*
X17470D01*
X17510Y21210D02*
Y21290D01*
X17590D01*
Y21210D01*
X17510D01*
X10120Y3920D02*
Y4080D01*
X10280D01*
Y3920D01*
X10120D01*
X10160Y3960D02*
Y4040D01*
X10240D01*
Y3960D01*
X10160D01*
X19370Y5470D02*
Y5630D01*
X19530D01*
Y5470D01*
X19370D01*
X19410Y5510D02*
Y5590D01*
X19490D01*
Y5510D01*
X19410D01*
X10120Y5070D02*
Y5230D01*
X10280D01*
Y5070D01*
X10120D01*
X10160Y5110D02*
Y5190D01*
X10240D01*
Y5110D01*
X10160D01*
X18570Y5470D02*
Y5630D01*
X18730D01*
Y5470D01*
X18570D01*
X18610Y5510D02*
Y5590D01*
X18690D01*
Y5510D01*
X18610D01*
X10170Y15920D02*
Y16080D01*
X10330D01*
Y15920D01*
X10170D01*
X10210Y15960D02*
Y16040D01*
X10290D01*
Y15960D01*
X10210D01*
X4670Y3720D02*
Y3880D01*
X4830D01*
Y3720D01*
X4670D01*
X4710Y3760D02*
Y3840D01*
X4790D01*
Y3760D01*
X4710D01*
X26920Y20770D02*
Y20930D01*
X27080D01*
Y20770D01*
X26920D01*
X26960Y20810D02*
Y20890D01*
X27040D01*
Y20810D01*
X26960D01*
X23520Y15620D02*
Y15780D01*
X23680D01*
Y15620D01*
X23520D01*
X23560Y15660D02*
Y15740D01*
X23640D01*
Y15660D01*
X23560D01*
G54D60*
X33880Y11450D02*
X33825Y11526D01*
X33735Y11497D01*
Y11403D01*
X33825Y11374D01*
X33880Y11450D01*
Y15450D02*
X33825Y15526D01*
X33735Y15497D01*
Y15403D01*
X33825Y15374D01*
X33880Y15450D01*
X32630Y5600D02*
X32575Y5676D01*
X32485Y5647D01*
Y5553D01*
X32575Y5524D01*
X32630Y5600D01*
Y1600D02*
X32575Y1676D01*
X32485Y1647D01*
Y1553D01*
X32575Y1524D01*
X32630Y1600D01*
X33880D02*
X33825Y1676D01*
X33735Y1647D01*
Y1553D01*
X33825Y1524D01*
X33880Y1600D01*
Y5600D02*
X33825Y5676D01*
X33735Y5647D01*
Y5553D01*
X33825Y5524D01*
X33880Y5600D01*
X33830Y6600D02*
X33775Y6676D01*
X33685Y6647D01*
Y6553D01*
X33775Y6524D01*
X33830Y6600D01*
Y10600D02*
X33775Y10676D01*
X33685Y10647D01*
Y10553D01*
X33775Y10524D01*
X33830Y10600D01*
X35230Y8000D02*
X35175Y8076D01*
X35085Y8047D01*
Y7953D01*
X35175Y7924D01*
X35230Y8000D01*
Y7000D02*
X35175Y7076D01*
X35085Y7047D01*
Y6953D01*
X35175Y6924D01*
X35230Y7000D01*
Y6000D02*
X35175Y6076D01*
X35085Y6047D01*
Y5953D01*
X35175Y5924D01*
X35230Y6000D01*
X38230D02*
X38175Y6076D01*
X38085Y6047D01*
Y5953D01*
X38175Y5924D01*
X38230Y6000D01*
Y7000D02*
X38175Y7076D01*
X38085Y7047D01*
Y6953D01*
X38175Y6924D01*
X38230Y7000D01*
Y8000D02*
X38175Y8076D01*
X38085Y8047D01*
Y7953D01*
X38175Y7924D01*
X38230Y8000D01*
Y5000D02*
X38175Y5076D01*
X38085Y5047D01*
Y4953D01*
X38175Y4924D01*
X38230Y5000D01*
X35230D02*
X35175Y5076D01*
X35085Y5047D01*
Y4953D01*
X35175Y4924D01*
X35230Y5000D01*
X11880Y1200D02*
X11825Y1276D01*
X11735Y1247D01*
Y1153D01*
X11825Y1124D01*
X11880Y1200D01*
Y5200D02*
X11825Y5276D01*
X11735Y5247D01*
Y5153D01*
X11825Y5124D01*
X11880Y5200D01*
X11980Y20050D02*
X11925Y20126D01*
X11835Y20097D01*
Y20003D01*
X11925Y19974D01*
X11980Y20050D01*
Y16050D02*
X11925Y16126D01*
X11835Y16097D01*
Y16003D01*
X11925Y15974D01*
X11980Y16050D01*
X27380Y11500D02*
X27325Y11576D01*
X27235Y11547D01*
Y11453D01*
X27325Y11424D01*
X27380Y11500D01*
X31380D02*
X31325Y11576D01*
X31235Y11547D01*
Y11453D01*
X31325Y11424D01*
X31380Y11500D01*
X27380Y12800D02*
X27325Y12876D01*
X27235Y12847D01*
Y12753D01*
X27325Y12724D01*
X27380Y12800D01*
X31380D02*
X31325Y12876D01*
X31235Y12847D01*
Y12753D01*
X31325Y12724D01*
X31380Y12800D01*
X13080Y7900D02*
X13025Y7976D01*
X12935Y7947D01*
Y7853D01*
X13025Y7824D01*
X13080Y7900D01*
Y11900D02*
X13025Y11976D01*
X12935Y11947D01*
Y11853D01*
X13025Y11824D01*
X13080Y11900D01*
X14430Y20050D02*
X14375Y20126D01*
X14285Y20097D01*
Y20003D01*
X14375Y19974D01*
X14430Y20050D01*
Y16050D02*
X14375Y16126D01*
X14285Y16097D01*
Y16003D01*
X14375Y15974D01*
X14430Y16050D01*
X11930Y11900D02*
X11875Y11976D01*
X11785Y11947D01*
Y11853D01*
X11875Y11824D01*
X11930Y11900D01*
Y7900D02*
X11875Y7976D01*
X11785Y7947D01*
Y7853D01*
X11875Y7824D01*
X11930Y7900D01*
X14380Y11000D02*
X14325Y11076D01*
X14235Y11047D01*
Y10953D01*
X14325Y10924D01*
X14380Y11000D01*
Y9000D02*
X14325Y9076D01*
X14235Y9047D01*
Y8953D01*
X14325Y8924D01*
X14380Y9000D01*
X15780Y7850D02*
X15725Y7926D01*
X15635Y7897D01*
Y7803D01*
X15725Y7774D01*
X15780Y7850D01*
Y11850D02*
X15725Y11926D01*
X15635Y11897D01*
Y11803D01*
X15725Y11774D01*
X15780Y11850D01*
X30380Y1300D02*
X30325Y1376D01*
X30235Y1347D01*
Y1253D01*
X30325Y1224D01*
X30380Y1300D01*
X28380D02*
X28325Y1376D01*
X28235Y1347D01*
Y1253D01*
X28325Y1224D01*
X28380Y1300D01*
X15380Y1200D02*
X15325Y1276D01*
X15235Y1247D01*
Y1153D01*
X15325Y1124D01*
X15380Y1200D01*
X17380D02*
X17325Y1276D01*
X17235Y1247D01*
Y1153D01*
X17325Y1124D01*
X17380Y1200D01*
X26180D02*
X26125Y1276D01*
X26035Y1247D01*
Y1153D01*
X26125Y1124D01*
X26180Y1200D01*
X24180D02*
X24125Y1276D01*
X24035Y1247D01*
Y1153D01*
X24125Y1124D01*
X24180Y1200D01*
X23980Y13000D02*
X23925Y13076D01*
X23835Y13047D01*
Y12953D01*
X23925Y12924D01*
X23980Y13000D01*
X21980D02*
X21925Y13076D01*
X21835Y13047D01*
Y12953D01*
X21925Y12924D01*
X21980Y13000D01*
X9130Y16000D02*
X9075Y16076D01*
X8985Y16047D01*
Y15953D01*
X9075Y15924D01*
X9130Y16000D01*
X7130D02*
X7075Y16076D01*
X6985Y16047D01*
Y15953D01*
X7075Y15924D01*
X7130Y16000D01*
X13180Y20050D02*
X13125Y20126D01*
X13035Y20097D01*
Y20003D01*
X13125Y19974D01*
X13180Y20050D01*
Y16050D02*
X13125Y16126D01*
X13035Y16097D01*
Y16003D01*
X13125Y15974D01*
X13180Y16050D01*
X15680Y20050D02*
X15625Y20126D01*
X15535Y20097D01*
Y20003D01*
X15625Y19974D01*
X15680Y20050D01*
Y16050D02*
X15625Y16126D01*
X15535Y16097D01*
Y16003D01*
X15625Y15974D01*
X15680Y16050D01*
X6180Y19700D02*
X6125Y19776D01*
X6035Y19747D01*
Y19653D01*
X6125Y19624D01*
X6180Y19700D01*
X10180D02*
X10125Y19776D01*
X10035Y19747D01*
Y19653D01*
X10125Y19624D01*
X10180Y19700D01*
X13080Y1200D02*
X13025Y1276D01*
X12935Y1247D01*
Y1153D01*
X13025Y1124D01*
X13080Y1200D01*
Y5200D02*
X13025Y5276D01*
X12935Y5247D01*
Y5153D01*
X13025Y5124D01*
X13080Y5200D01*
X26180Y6800D02*
X26125Y6876D01*
X26035Y6847D01*
Y6753D01*
X26125Y6724D01*
X26180Y6800D01*
X24180D02*
X24125Y6876D01*
X24035Y6847D01*
Y6753D01*
X24125Y6724D01*
X24180Y6800D01*
X17430Y6850D02*
X17375Y6926D01*
X17285Y6897D01*
Y6803D01*
X17375Y6774D01*
X17430Y6850D01*
X15430D02*
X15375Y6926D01*
X15285Y6897D01*
Y6803D01*
X15375Y6774D01*
X15430Y6850D01*
X17680Y11500D02*
X17625Y11576D01*
X17535Y11547D01*
Y11453D01*
X17625Y11424D01*
X17680Y11500D01*
X18680D02*
X18625Y11576D01*
X18535Y11547D01*
Y11453D01*
X18625Y11424D01*
X18680Y11500D01*
X19680D02*
X19625Y11576D01*
X19535Y11547D01*
Y11453D01*
X19625Y11424D01*
X19680Y11500D01*
X20680D02*
X20625Y11576D01*
X20535Y11547D01*
Y11453D01*
X20625Y11424D01*
X20680Y11500D01*
X21680D02*
X21625Y11576D01*
X21535Y11547D01*
Y11453D01*
X21625Y11424D01*
X21680Y11500D01*
X22680D02*
X22625Y11576D01*
X22535Y11547D01*
Y11453D01*
X22625Y11424D01*
X22680Y11500D01*
X23680D02*
X23625Y11576D01*
X23535Y11547D01*
Y11453D01*
X23625Y11424D01*
X23680Y11500D01*
Y8500D02*
X23625Y8576D01*
X23535Y8547D01*
Y8453D01*
X23625Y8424D01*
X23680Y8500D01*
X22680D02*
X22625Y8576D01*
X22535Y8547D01*
Y8453D01*
X22625Y8424D01*
X22680Y8500D01*
X21680D02*
X21625Y8576D01*
X21535Y8547D01*
Y8453D01*
X21625Y8424D01*
X21680Y8500D01*
X20680D02*
X20625Y8576D01*
X20535Y8547D01*
Y8453D01*
X20625Y8424D01*
X20680Y8500D01*
X19680D02*
X19625Y8576D01*
X19535Y8547D01*
Y8453D01*
X19625Y8424D01*
X19680Y8500D01*
X18680D02*
X18625Y8576D01*
X18535Y8547D01*
Y8453D01*
X18625Y8424D01*
X18680Y8500D01*
X17680D02*
X17625Y8576D01*
X17535Y8547D01*
Y8453D01*
X17625Y8424D01*
X17680Y8500D01*
X9280Y10550D02*
X9225Y10626D01*
X9135Y10597D01*
Y10503D01*
X9225Y10474D01*
X9280Y10550D01*
X7280D02*
X7225Y10626D01*
X7135Y10597D01*
Y10503D01*
X7225Y10474D01*
X7280Y10550D01*
X6280Y2550D02*
X6225Y2626D01*
X6135Y2597D01*
Y2503D01*
X6225Y2474D01*
X6280Y2550D01*
X10280D02*
X10225Y2626D01*
X10135Y2597D01*
Y2503D01*
X10225Y2474D01*
X10280Y2550D01*
X6280Y1400D02*
X6225Y1476D01*
X6135Y1447D01*
Y1353D01*
X6225Y1324D01*
X6280Y1400D01*
X10280D02*
X10225Y1476D01*
X10135Y1447D01*
Y1353D01*
X10225Y1324D01*
X10280Y1400D01*
X9280Y3800D02*
X9225Y3876D01*
X9135Y3847D01*
Y3753D01*
X9225Y3724D01*
X9280Y3800D01*
X7280D02*
X7225Y3876D01*
X7135Y3847D01*
Y3753D01*
X7225Y3724D01*
X7280Y3800D01*
X9280Y5150D02*
X9225Y5226D01*
X9135Y5197D01*
Y5103D01*
X9225Y5074D01*
X9280Y5150D01*
X7280D02*
X7225Y5226D01*
X7135Y5197D01*
Y5103D01*
X7225Y5074D01*
X7280Y5150D01*
X9780Y9400D02*
X9725Y9476D01*
X9635Y9447D01*
Y9353D01*
X9725Y9324D01*
X9780Y9400D01*
X8780D02*
X8725Y9476D01*
X8635Y9447D01*
Y9353D01*
X8725Y9324D01*
X8780Y9400D01*
X7780D02*
X7725Y9476D01*
X7635Y9447D01*
Y9353D01*
X7725Y9324D01*
X7780Y9400D01*
Y6400D02*
X7725Y6476D01*
X7635Y6447D01*
Y6353D01*
X7725Y6324D01*
X7780Y6400D01*
X8780D02*
X8725Y6476D01*
X8635Y6447D01*
Y6353D01*
X8725Y6324D01*
X8780Y6400D01*
X9780D02*
X9725Y6476D01*
X9635Y6447D01*
Y6353D01*
X9725Y6324D01*
X9780Y6400D01*
X6780D02*
X6725Y6476D01*
X6635Y6447D01*
Y6353D01*
X6725Y6324D01*
X6780Y6400D01*
Y9400D02*
X6725Y9476D01*
X6635Y9447D01*
Y9353D01*
X6725Y9324D01*
X6780Y9400D01*
X9180Y17250D02*
X9125Y17326D01*
X9035Y17297D01*
Y17203D01*
X9125Y17174D01*
X9180Y17250D01*
X7180D02*
X7125Y17326D01*
X7035Y17297D01*
Y17203D01*
X7125Y17174D01*
X7180Y17250D01*
X9180Y18500D02*
X9125Y18576D01*
X9035Y18547D01*
Y18453D01*
X9125Y18424D01*
X9180Y18500D01*
X7180D02*
X7125Y18576D01*
X7035Y18547D01*
Y18453D01*
X7125Y18424D01*
X7180Y18500D01*
X9780Y14600D02*
X9725Y14676D01*
X9635Y14647D01*
Y14553D01*
X9725Y14524D01*
X9780Y14600D01*
X8780D02*
X8725Y14676D01*
X8635Y14647D01*
Y14553D01*
X8725Y14524D01*
X8780Y14600D01*
X7780D02*
X7725Y14676D01*
X7635Y14647D01*
Y14553D01*
X7725Y14524D01*
X7780Y14600D01*
Y11600D02*
X7725Y11676D01*
X7635Y11647D01*
Y11553D01*
X7725Y11524D01*
X7780Y11600D01*
X8780D02*
X8725Y11676D01*
X8635Y11647D01*
Y11553D01*
X8725Y11524D01*
X8780Y11600D01*
X9780D02*
X9725Y11676D01*
X9635Y11647D01*
Y11553D01*
X9725Y11524D01*
X9780Y11600D01*
X6780D02*
X6725Y11676D01*
X6635Y11647D01*
Y11553D01*
X6725Y11524D01*
X6780Y11600D01*
Y14600D02*
X6725Y14676D01*
X6635Y14647D01*
Y14553D01*
X6725Y14524D01*
X6780Y14600D01*
X30880Y8900D02*
X30825Y8976D01*
X30735Y8947D01*
Y8853D01*
X30825Y8824D01*
X30880Y8900D01*
Y7900D02*
X30825Y7976D01*
X30735Y7947D01*
Y7853D01*
X30825Y7824D01*
X30880Y7900D01*
Y6900D02*
X30825Y6976D01*
X30735Y6947D01*
Y6853D01*
X30825Y6824D01*
X30880Y6900D01*
Y5900D02*
X30825Y5976D01*
X30735Y5947D01*
Y5853D01*
X30825Y5824D01*
X30880Y5900D01*
Y4900D02*
X30825Y4976D01*
X30735Y4947D01*
Y4853D01*
X30825Y4824D01*
X30880Y4900D01*
Y3900D02*
X30825Y3976D01*
X30735Y3947D01*
Y3853D01*
X30825Y3824D01*
X30880Y3900D01*
Y2900D02*
X30825Y2976D01*
X30735Y2947D01*
Y2853D01*
X30825Y2824D01*
X30880Y2900D01*
X27880D02*
X27825Y2976D01*
X27735Y2947D01*
Y2853D01*
X27825Y2824D01*
X27880Y2900D01*
Y3900D02*
X27825Y3976D01*
X27735Y3947D01*
Y3853D01*
X27825Y3824D01*
X27880Y3900D01*
Y4900D02*
X27825Y4976D01*
X27735Y4947D01*
Y4853D01*
X27825Y4824D01*
X27880Y4900D01*
Y5900D02*
X27825Y5976D01*
X27735Y5947D01*
Y5853D01*
X27825Y5824D01*
X27880Y5900D01*
Y6900D02*
X27825Y6976D01*
X27735Y6947D01*
Y6853D01*
X27825Y6824D01*
X27880Y6900D01*
Y7900D02*
X27825Y7976D01*
X27735Y7947D01*
Y7853D01*
X27825Y7824D01*
X27880Y7900D01*
Y8900D02*
X27825Y8976D01*
X27735Y8947D01*
Y8853D01*
X27825Y8824D01*
X27880Y8900D01*
X23680Y19350D02*
X23625Y19426D01*
X23535Y19397D01*
Y19303D01*
X23625Y19274D01*
X23680Y19350D01*
Y23350D02*
X23625Y23426D01*
X23535Y23397D01*
Y23303D01*
X23625Y23274D01*
X23680Y23350D01*
X27430Y17950D02*
X27375Y18026D01*
X27285Y17997D01*
Y17903D01*
X27375Y17874D01*
X27430Y17950D01*
X31430D02*
X31375Y18026D01*
X31285Y17997D01*
Y17903D01*
X31375Y17874D01*
X31430Y17950D01*
X26320Y17800D02*
X26265Y17876D01*
X26175Y17847D01*
Y17753D01*
X26265Y17724D01*
X26320Y17800D01*
X25350D02*
X25295Y17876D01*
X25205Y17847D01*
Y17753D01*
X25295Y17724D01*
X25350Y17800D01*
Y15750D02*
X25295Y15826D01*
X25205Y15797D01*
Y15703D01*
X25295Y15674D01*
X25350Y15750D01*
X26320D02*
X26265Y15826D01*
X26175Y15797D01*
Y15703D01*
X26265Y15674D01*
X26320Y15750D01*
X1480Y12800D02*
X1425Y12876D01*
X1335Y12847D01*
Y12753D01*
X1425Y12724D01*
X1480Y12800D01*
X2480D02*
X2425Y12876D01*
X2335Y12847D01*
Y12753D01*
X2425Y12724D01*
X2480Y12800D01*
X3480D02*
X3425Y12876D01*
X3335Y12847D01*
Y12753D01*
X3425Y12724D01*
X3480Y12800D01*
X1480Y7900D02*
X1425Y7976D01*
X1335Y7947D01*
Y7853D01*
X1425Y7824D01*
X1480Y7900D01*
X2480D02*
X2425Y7976D01*
X2335Y7947D01*
Y7853D01*
X2425Y7824D01*
X2480Y7900D01*
X3480D02*
X3425Y7976D01*
X3335Y7947D01*
Y7853D01*
X3425Y7824D01*
X3480Y7900D01*
X1480Y15250D02*
X1425Y15326D01*
X1335Y15297D01*
Y15203D01*
X1425Y15174D01*
X1480Y15250D01*
X2480D02*
X2425Y15326D01*
X2335Y15297D01*
Y15203D01*
X2425Y15174D01*
X2480Y15250D01*
X3480D02*
X3425Y15326D01*
X3335Y15297D01*
Y15203D01*
X3425Y15174D01*
X3480Y15250D01*
X1480Y10350D02*
X1425Y10426D01*
X1335Y10397D01*
Y10303D01*
X1425Y10274D01*
X1480Y10350D01*
X2480D02*
X2425Y10426D01*
X2335Y10397D01*
Y10303D01*
X2425Y10274D01*
X2480Y10350D01*
X3480D02*
X3425Y10426D01*
X3335Y10397D01*
Y10303D01*
X3425Y10274D01*
X3480Y10350D01*
X1480Y5500D02*
X1425Y5576D01*
X1335Y5547D01*
Y5453D01*
X1425Y5424D01*
X1480Y5500D01*
X2480D02*
X2425Y5576D01*
X2335Y5547D01*
Y5453D01*
X2425Y5424D01*
X2480Y5500D01*
X3480D02*
X3425Y5576D01*
X3335Y5547D01*
Y5453D01*
X3425Y5424D01*
X3480Y5500D01*
X19680Y1750D02*
X19625Y1826D01*
X19535Y1797D01*
Y1703D01*
X19625Y1674D01*
X19680Y1750D01*
Y2750D02*
X19625Y2826D01*
X19535Y2797D01*
Y2703D01*
X19625Y2674D01*
X19680Y2750D01*
Y3750D02*
X19625Y3826D01*
X19535Y3797D01*
Y3703D01*
X19625Y3674D01*
X19680Y3750D01*
X22030Y1750D02*
X21975Y1826D01*
X21885Y1797D01*
Y1703D01*
X21975Y1674D01*
X22030Y1750D01*
Y2750D02*
X21975Y2826D01*
X21885Y2797D01*
Y2703D01*
X21975Y2674D01*
X22030Y2750D01*
Y3750D02*
X21975Y3826D01*
X21885Y3797D01*
Y3703D01*
X21975Y3674D01*
X22030Y3750D01*
X27430Y16750D02*
X27375Y16826D01*
X27285Y16797D01*
Y16703D01*
X27375Y16674D01*
X27430Y16750D01*
X31430D02*
X31375Y16826D01*
X31285Y16797D01*
Y16703D01*
X31375Y16674D01*
X31430Y16750D01*
X27430Y15550D02*
X27375Y15626D01*
X27285Y15597D01*
Y15503D01*
X27375Y15474D01*
X27430Y15550D01*
X31430D02*
X31375Y15626D01*
X31285Y15597D01*
Y15503D01*
X31375Y15474D01*
X31430Y15550D01*
X16880Y20000D02*
X16825Y20076D01*
X16735Y20047D01*
Y19953D01*
X16825Y19924D01*
X16880Y20000D01*
Y16000D02*
X16825Y16076D01*
X16735Y16047D01*
Y15953D01*
X16825Y15924D01*
X16880Y16000D01*
X31380Y10300D02*
X31325Y10376D01*
X31235Y10347D01*
Y10253D01*
X31325Y10224D01*
X31380Y10300D01*
X27380D02*
X27325Y10376D01*
X27235Y10347D01*
Y10253D01*
X27325Y10224D01*
X27380Y10300D01*
X28430Y14150D02*
X28375Y14226D01*
X28285Y14197D01*
Y14103D01*
X28375Y14074D01*
X28430Y14150D01*
X30430D02*
X30375Y14226D01*
X30285Y14197D01*
Y14103D01*
X30375Y14074D01*
X30430Y14150D01*
X18180Y19050D02*
X18125Y19126D01*
X18035Y19097D01*
Y19003D01*
X18125Y18974D01*
X18180Y19050D01*
Y17050D02*
X18125Y17126D01*
X18035Y17097D01*
Y17003D01*
X18125Y16974D01*
X18180Y17050D01*
X17980Y13000D02*
X17925Y13076D01*
X17835Y13047D01*
Y12953D01*
X17925Y12924D01*
X17980Y13000D01*
X19980D02*
X19925Y13076D01*
X19835Y13047D01*
Y12953D01*
X19925Y12924D01*
X19980Y13000D01*
X19580Y14700D02*
X19525Y14776D01*
X19435Y14747D01*
Y14653D01*
X19525Y14624D01*
X19580Y14700D01*
Y15700D02*
X19525Y15776D01*
X19435Y15747D01*
Y15653D01*
X19525Y15624D01*
X19580Y15700D01*
Y16700D02*
X19525Y16776D01*
X19435Y16747D01*
Y16653D01*
X19525Y16624D01*
X19580Y16700D01*
Y17700D02*
X19525Y17776D01*
X19435Y17747D01*
Y17653D01*
X19525Y17624D01*
X19580Y17700D01*
Y18700D02*
X19525Y18776D01*
X19435Y18747D01*
Y18653D01*
X19525Y18624D01*
X19580Y18700D01*
Y19700D02*
X19525Y19776D01*
X19435Y19747D01*
Y19653D01*
X19525Y19624D01*
X19580Y19700D01*
Y20700D02*
X19525Y20776D01*
X19435Y20747D01*
Y20653D01*
X19525Y20624D01*
X19580Y20700D01*
X22580D02*
X22525Y20776D01*
X22435Y20747D01*
Y20653D01*
X22525Y20624D01*
X22580Y20700D01*
Y19700D02*
X22525Y19776D01*
X22435Y19747D01*
Y19653D01*
X22525Y19624D01*
X22580Y19700D01*
Y18700D02*
X22525Y18776D01*
X22435Y18747D01*
Y18653D01*
X22525Y18624D01*
X22580Y18700D01*
Y17700D02*
X22525Y17776D01*
X22435Y17747D01*
Y17653D01*
X22525Y17624D01*
X22580Y17700D01*
Y16700D02*
X22525Y16776D01*
X22435Y16747D01*
Y16653D01*
X22525Y16624D01*
X22580Y16700D01*
Y15700D02*
X22525Y15776D01*
X22435Y15747D01*
Y15653D01*
X22525Y15624D01*
X22580Y15700D01*
Y14700D02*
X22525Y14776D01*
X22435Y14747D01*
Y14653D01*
X22525Y14624D01*
X22580Y14700D01*
X27080Y22350D02*
X27025Y22426D01*
X26935Y22397D01*
Y22303D01*
X27025Y22274D01*
X27080Y22350D01*
X25080D02*
X25025Y22426D01*
X24935Y22397D01*
Y22303D01*
X25025Y22274D01*
X25080Y22350D01*
X26080Y23350D02*
X26025Y23426D01*
X25935Y23397D01*
Y23303D01*
X26025Y23274D01*
X26080Y23350D01*
X14880Y5550D02*
X14825Y5626D01*
X14735Y5597D01*
Y5503D01*
X14825Y5474D01*
X14880Y5550D01*
Y4550D02*
X14825Y4626D01*
X14735Y4597D01*
Y4503D01*
X14825Y4474D01*
X14880Y4550D01*
Y3550D02*
X14825Y3626D01*
X14735Y3597D01*
Y3503D01*
X14825Y3474D01*
X14880Y3550D01*
X17880D02*
X17825Y3626D01*
X17735Y3597D01*
Y3503D01*
X17825Y3474D01*
X17880Y3550D01*
Y4550D02*
X17825Y4626D01*
X17735Y4597D01*
Y4503D01*
X17825Y4474D01*
X17880Y4550D01*
Y5550D02*
X17825Y5626D01*
X17735Y5597D01*
Y5503D01*
X17825Y5474D01*
X17880Y5550D01*
Y2550D02*
X17825Y2626D01*
X17735Y2597D01*
Y2503D01*
X17825Y2474D01*
X17880Y2550D01*
X14880D02*
X14825Y2626D01*
X14735Y2597D01*
Y2503D01*
X14825Y2474D01*
X14880Y2550D01*
X23680Y5550D02*
X23625Y5626D01*
X23535Y5597D01*
Y5503D01*
X23625Y5474D01*
X23680Y5550D01*
Y4550D02*
X23625Y4626D01*
X23535Y4597D01*
Y4503D01*
X23625Y4474D01*
X23680Y4550D01*
Y3550D02*
X23625Y3626D01*
X23535Y3597D01*
Y3503D01*
X23625Y3474D01*
X23680Y3550D01*
X26680D02*
X26625Y3626D01*
X26535Y3597D01*
Y3503D01*
X26625Y3474D01*
X26680Y3550D01*
Y4550D02*
X26625Y4626D01*
X26535Y4597D01*
Y4503D01*
X26625Y4474D01*
X26680Y4550D01*
Y5550D02*
X26625Y5626D01*
X26535Y5597D01*
Y5503D01*
X26625Y5474D01*
X26680Y5550D01*
Y2550D02*
X26625Y2626D01*
X26535Y2597D01*
Y2503D01*
X26625Y2474D01*
X26680Y2550D01*
X23680D02*
X23625Y2626D01*
X23535Y2597D01*
Y2503D01*
X23625Y2474D01*
X23680Y2550D01*
X12430Y6400D02*
X12375Y6476D01*
X12285Y6447D01*
Y6353D01*
X12375Y6324D01*
X12430Y6400D01*
X29380Y6750D02*
X29325Y6826D01*
X29235Y6797D01*
Y6703D01*
X29325Y6674D01*
X29380Y6750D01*
X31830Y1043D02*
X31775Y1119D01*
X31685Y1090D01*
Y996D01*
X31775Y967D01*
X31830Y1043D01*
X37380Y10600D02*
X37325Y10676D01*
X37235Y10647D01*
Y10553D01*
X37325Y10524D01*
X37380Y10600D01*
X36248Y6950D02*
X36193Y7026D01*
X36103Y6997D01*
Y6903D01*
X36193Y6874D01*
X36248Y6950D01*
X33880Y17800D02*
X33825Y17876D01*
X33735Y17847D01*
Y17753D01*
X33825Y17724D01*
X33880Y17800D01*
X30480Y25400D02*
X30425Y25476D01*
X30335Y25447D01*
Y25353D01*
X30425Y25324D01*
X30480Y25400D01*
X37230Y7000D02*
X37175Y7076D01*
X37085Y7047D01*
Y6953D01*
X37175Y6924D01*
X37230Y7000D01*
X5030Y19700D02*
X4975Y19776D01*
X4885Y19747D01*
Y19653D01*
X4975Y19624D01*
X5030Y19700D01*
Y22000D02*
X4975Y22076D01*
X4885Y22047D01*
Y21953D01*
X4975Y21924D01*
X5030Y22000D01*
G54D61*
X12390Y6400D02*
X12330Y6435D01*
Y6365D01*
X12390Y6400D01*
X29340Y6750D02*
X29280Y6785D01*
Y6715D01*
X29340Y6750D01*
X31790Y1043D02*
X31730Y1078D01*
Y1008D01*
X31790Y1043D01*
X37340Y10600D02*
X37280Y10635D01*
Y10565D01*
X37340Y10600D01*
X36208Y6950D02*
X36148Y6985D01*
Y6915D01*
X36208Y6950D01*
X33840Y17800D02*
X33780Y17835D01*
Y17765D01*
X33840Y17800D01*
X30440Y25400D02*
X30380Y25435D01*
Y25365D01*
X30440Y25400D01*
X37190Y7000D02*
X37130Y7035D01*
Y6965D01*
X37190Y7000D01*
X4990Y19700D02*
X4930Y19735D01*
Y19665D01*
X4990Y19700D01*
Y22000D02*
X4930Y22035D01*
Y21965D01*
X4990Y22000D01*
M02*
