G04*
G04 #@! TF.GenerationSoftware,Altium Limited,Altium Designer,20.0.13 (296)*
G04*
G04 Layer_Color=16711935*
%FSLAX24Y24*%
%MOIN*%
G70*
G01*
G75*
%ADD18C,0.0671*%
%ADD19C,0.0700*%
%ADD20R,0.0680X0.0680*%
%ADD21C,0.0680*%
%ADD22C,0.0420*%
%ADD24C,0.0620*%
%ADD25C,0.2049*%
%ADD26C,0.0730*%
%ADD27R,0.0700X0.0700*%
%ADD28R,0.0680X0.0680*%
%ADD29R,0.0700X0.0700*%
%ADD30C,0.0867*%
%ADD31R,0.0867X0.0867*%
%ADD32R,0.0671X0.0671*%
%ADD33R,0.0505X0.0505*%
%ADD34C,0.0505*%
%ADD35C,0.0611*%
%ADD36C,0.0580*%
%ADD37C,0.0749*%
G54D18*
X31550Y25450D02*
D03*
Y21450D02*
D03*
X26150Y10300D02*
D03*
X20200Y5200D02*
D03*
X21300D02*
D03*
G54D19*
X33800Y11450D02*
D03*
Y15450D02*
D03*
X32550Y5600D02*
D03*
Y1600D02*
D03*
X33800D02*
D03*
Y5600D02*
D03*
X33750Y6600D02*
D03*
Y10600D02*
D03*
X11800Y1200D02*
D03*
Y5200D02*
D03*
X11900Y20050D02*
D03*
Y16050D02*
D03*
X27300Y11500D02*
D03*
X31300D02*
D03*
X27300Y12800D02*
D03*
X31300D02*
D03*
X13000Y7900D02*
D03*
Y11900D02*
D03*
X14350Y20050D02*
D03*
Y16050D02*
D03*
X11850Y11900D02*
D03*
Y7900D02*
D03*
X14300Y11000D02*
D03*
Y9000D02*
D03*
X15700Y7850D02*
D03*
Y11850D02*
D03*
X30300Y1300D02*
D03*
X28300D02*
D03*
X15300Y1200D02*
D03*
X17300D02*
D03*
X26100D02*
D03*
X24100D02*
D03*
X23900Y13000D02*
D03*
X21900D02*
D03*
X9050Y16000D02*
D03*
X7050D02*
D03*
X13100Y20050D02*
D03*
Y16050D02*
D03*
X15600Y20050D02*
D03*
Y16050D02*
D03*
X6100Y19700D02*
D03*
X10100D02*
D03*
X13000Y1200D02*
D03*
Y5200D02*
D03*
X26100Y6800D02*
D03*
X24100D02*
D03*
X17350Y6850D02*
D03*
X15350D02*
D03*
X17600Y11500D02*
D03*
X18600D02*
D03*
X19600D02*
D03*
X20600D02*
D03*
X21600D02*
D03*
X22600D02*
D03*
X23600D02*
D03*
Y8500D02*
D03*
X22600D02*
D03*
X21600D02*
D03*
X20600D02*
D03*
X19600D02*
D03*
X18600D02*
D03*
X9200Y10550D02*
D03*
X7200D02*
D03*
X6200Y2550D02*
D03*
X10200D02*
D03*
X6200Y1400D02*
D03*
X10200D02*
D03*
X9200Y3800D02*
D03*
X7200D02*
D03*
X9200Y5150D02*
D03*
X7200D02*
D03*
X9100Y17250D02*
D03*
X7100D02*
D03*
X9100Y18500D02*
D03*
X7100D02*
D03*
X30800Y8900D02*
D03*
Y7900D02*
D03*
Y6900D02*
D03*
Y5900D02*
D03*
Y4900D02*
D03*
Y3900D02*
D03*
Y2900D02*
D03*
X27800D02*
D03*
Y3900D02*
D03*
Y4900D02*
D03*
Y5900D02*
D03*
Y6900D02*
D03*
Y7900D02*
D03*
X23600Y19350D02*
D03*
Y23350D02*
D03*
X27350Y17950D02*
D03*
X31350D02*
D03*
X25270Y17800D02*
D03*
Y15750D02*
D03*
X1400Y12800D02*
D03*
X2400D02*
D03*
X1400Y7900D02*
D03*
X2400D02*
D03*
X1400Y15250D02*
D03*
X2400D02*
D03*
X1400Y10350D02*
D03*
X2400D02*
D03*
X1400Y5500D02*
D03*
X2400D02*
D03*
X19600Y1750D02*
D03*
Y2750D02*
D03*
X21950Y1750D02*
D03*
Y2750D02*
D03*
X27350Y16750D02*
D03*
X31350D02*
D03*
X27350Y15550D02*
D03*
X31350D02*
D03*
X16800Y20000D02*
D03*
Y16000D02*
D03*
X31300Y10300D02*
D03*
X27300D02*
D03*
X28350Y14150D02*
D03*
X30350D02*
D03*
X18100Y19050D02*
D03*
Y17050D02*
D03*
X17900Y13000D02*
D03*
X19900D02*
D03*
X19500Y14700D02*
D03*
Y15700D02*
D03*
Y16700D02*
D03*
Y17700D02*
D03*
Y18700D02*
D03*
Y19700D02*
D03*
Y20700D02*
D03*
X22500D02*
D03*
Y19700D02*
D03*
Y18700D02*
D03*
Y17700D02*
D03*
Y16700D02*
D03*
Y15700D02*
D03*
G54D20*
X35150Y8000D02*
D03*
X20513Y6800D02*
D03*
X14800Y5550D02*
D03*
X23600D02*
D03*
G54D21*
X35150Y7000D02*
D03*
Y6000D02*
D03*
X38150D02*
D03*
Y7000D02*
D03*
Y8000D02*
D03*
Y5000D02*
D03*
X35150D02*
D03*
X21300Y6800D02*
D03*
X8700Y9400D02*
D03*
X7700D02*
D03*
Y6400D02*
D03*
X8700D02*
D03*
X9700D02*
D03*
X6700D02*
D03*
Y9400D02*
D03*
X8700Y14600D02*
D03*
X7700D02*
D03*
Y11600D02*
D03*
X8700D02*
D03*
X9700D02*
D03*
X6700D02*
D03*
Y14600D02*
D03*
X27000Y22350D02*
D03*
X25000D02*
D03*
X26000Y23350D02*
D03*
X14800Y4550D02*
D03*
Y3550D02*
D03*
X17800D02*
D03*
Y4550D02*
D03*
Y5550D02*
D03*
Y2550D02*
D03*
X14800D02*
D03*
X23600Y4550D02*
D03*
Y3550D02*
D03*
X26600D02*
D03*
Y4550D02*
D03*
Y5550D02*
D03*
Y2550D02*
D03*
X23600D02*
D03*
G54D22*
X3631Y19951D02*
D03*
X1269D02*
D03*
X13881Y24580D02*
D03*
X10338D02*
D03*
X38481Y11280D02*
D03*
X34938D02*
D03*
X38481Y15580D02*
D03*
X34938D02*
D03*
G54D24*
X2450Y19581D02*
D03*
Y18400D02*
D03*
X11519Y26131D02*
D03*
X12700D02*
D03*
X11519Y24950D02*
D03*
X12700D02*
D03*
X36119Y12831D02*
D03*
X37300D02*
D03*
X36119Y11650D02*
D03*
X37300D02*
D03*
X36119Y17131D02*
D03*
X37300D02*
D03*
X36119Y15950D02*
D03*
X37300D02*
D03*
G54D25*
X37402Y1969D02*
D03*
X1700Y25350D02*
D03*
X1969Y1969D02*
D03*
G54D26*
X18930Y26536D02*
D03*
X16370D02*
D03*
Y24764D02*
D03*
X18930D02*
D03*
G54D27*
X17600Y8500D02*
D03*
X19600Y3750D02*
D03*
X21950D02*
D03*
G54D28*
X9700Y9400D02*
D03*
Y14600D02*
D03*
G54D29*
X27800Y8900D02*
D03*
X26240Y17800D02*
D03*
Y15750D02*
D03*
X3400Y12800D02*
D03*
Y7900D02*
D03*
Y15250D02*
D03*
Y10350D02*
D03*
Y5500D02*
D03*
X22500Y14700D02*
D03*
G54D30*
X38050Y25650D02*
D03*
X33326Y20847D02*
D03*
Y25650D02*
D03*
X38050Y20847D02*
D03*
G54D31*
X35688Y20059D02*
D03*
G54D32*
X25150Y10300D02*
D03*
G54D33*
X29000Y22700D02*
D03*
G54D34*
X28500Y22200D02*
D03*
X29000Y21700D02*
D03*
G54D35*
X13850Y4600D02*
D03*
X12950Y3700D02*
D03*
X25450Y7850D02*
D03*
X26493Y9157D02*
D03*
X25450Y9150D02*
D03*
X14850Y20700D02*
D03*
X31750Y2150D02*
D03*
X10950Y20000D02*
D03*
X13650Y20791D02*
D03*
X9150Y21250D02*
D03*
X12500Y20750D02*
D03*
X22300Y5550D02*
D03*
X25550Y14100D02*
D03*
X26200Y12800D02*
D03*
X26550Y7850D02*
D03*
X21000Y12500D02*
D03*
X5500Y9100D02*
D03*
X4700D02*
D03*
X10900Y2050D02*
D03*
X10800Y10750D02*
D03*
X5500Y11607D02*
D03*
X4950Y14250D02*
D03*
X3950Y1350D02*
D03*
X3000Y3750D02*
D03*
X23900Y14150D02*
D03*
X32700Y14100D02*
D03*
X31350D02*
D03*
X16550Y10050D02*
D03*
X21000Y13600D02*
D03*
X11333Y14117D02*
D03*
X10800Y11900D02*
D03*
X17900Y14100D02*
D03*
X14250Y11900D02*
D03*
X10900Y6900D02*
D03*
X13700Y6850D02*
D03*
X14500D02*
D03*
X17550Y21250D02*
D03*
X10200Y4000D02*
D03*
X19450Y5550D02*
D03*
X10200Y5150D02*
D03*
X18650Y5550D02*
D03*
X10250Y16000D02*
D03*
X4750Y3800D02*
D03*
X27000Y20850D02*
D03*
X23600Y15700D02*
D03*
G54D36*
X12350Y6400D02*
D03*
X29300Y6750D02*
D03*
X31750Y1043D02*
D03*
X37300Y10600D02*
D03*
X36168Y6950D02*
D03*
X33800Y17800D02*
D03*
X30400Y25400D02*
D03*
X37150Y7000D02*
D03*
X4950Y19700D02*
D03*
Y22000D02*
D03*
G54D37*
X4900Y5950D02*
D03*
Y8250D02*
D03*
X4950Y10650D02*
D03*
Y15800D02*
D03*
Y13250D02*
D03*
M02*
