G04*
G04 #@! TF.GenerationSoftware,Altium Limited,Altium Designer,20.0.13 (296)*
G04*
G04 Layer_Physical_Order=1*
G04 Layer_Color=255*
%FSLAX24Y24*%
%MOIN*%
G70*
G01*
G75*
%ADD11C,0.0100*%
%ADD13C,0.0080*%
%ADD18C,0.0669*%
%ADD19C,0.0620*%
%ADD20C,0.0420*%
%ADD38C,0.0150*%
%ADD39C,0.0160*%
%ADD40C,0.1969*%
%ADD41C,0.0650*%
%ADD42C,0.0600*%
%ADD43R,0.0600X0.0600*%
%ADD44R,0.0620X0.0620*%
%ADD45R,0.0600X0.0600*%
%ADD46R,0.0620X0.0620*%
%ADD47C,0.0787*%
%ADD48R,0.0787X0.0787*%
%ADD49R,0.0591X0.0591*%
%ADD50C,0.0591*%
%ADD51R,0.0425X0.0425*%
%ADD52C,0.0425*%
%ADD53C,0.0500*%
%ADD54C,0.0531*%
G36*
X31779Y21379D02*
Y19668D01*
X31729Y19651D01*
X31695Y19695D01*
X31608Y19761D01*
X31508Y19803D01*
X31400Y19817D01*
X31292Y19803D01*
X31192Y19761D01*
X31105Y19695D01*
X31039Y19608D01*
X30997Y19508D01*
X30983Y19400D01*
X30997Y19292D01*
X31039Y19192D01*
X31105Y19105D01*
X31192Y19039D01*
X31292Y18997D01*
X31400Y18983D01*
X31508Y18997D01*
X31608Y19039D01*
X31695Y19105D01*
X31729Y19149D01*
X31779Y19132D01*
Y18165D01*
X31729Y18155D01*
X31724Y18166D01*
X31655Y18255D01*
X31566Y18324D01*
X31462Y18367D01*
X31350Y18382D01*
X31238Y18367D01*
X31134Y18324D01*
X31045Y18255D01*
X30976Y18166D01*
X30933Y18062D01*
X30918Y17950D01*
X30933Y17838D01*
X30976Y17734D01*
X31045Y17645D01*
X31134Y17576D01*
X31238Y17533D01*
X31350Y17518D01*
X31462Y17533D01*
X31566Y17576D01*
X31655Y17645D01*
X31724Y17734D01*
X31729Y17745D01*
X31779Y17735D01*
Y17350D01*
X31792Y17284D01*
X31829Y17229D01*
X32050Y17008D01*
Y16350D01*
X32000Y16300D01*
X32529D01*
Y14514D01*
X32528Y14510D01*
X32525Y14501D01*
X32520Y14489D01*
X32512Y14475D01*
X32502Y14459D01*
X32489Y14442D01*
X32451Y14398D01*
X32428Y14374D01*
X32415Y14355D01*
X32403Y14336D01*
X32403Y14335D01*
X32402Y14335D01*
X32398Y14312D01*
X32397Y14306D01*
X32381Y14284D01*
X32344Y14195D01*
X32338Y14150D01*
X32700D01*
Y14100D01*
X32750D01*
Y13738D01*
X32795Y13744D01*
X32884Y13781D01*
X32961Y13839D01*
X33019Y13916D01*
X33056Y14005D01*
X33104Y13994D01*
Y13496D01*
X32179Y12571D01*
X32142Y12516D01*
X32129Y12450D01*
Y8611D01*
X32082Y8592D01*
X31078Y9596D01*
X31022Y9633D01*
X30957Y9646D01*
X27225D01*
X27159Y9633D01*
X27104Y9596D01*
X26722Y9214D01*
X26718Y9212D01*
X26710Y9208D01*
X26698Y9203D01*
X26682Y9198D01*
X26663Y9194D01*
X26642Y9191D01*
X26585Y9186D01*
X26557Y9186D01*
X26550Y9187D01*
X26450Y9174D01*
X26356Y9135D01*
X26276Y9074D01*
X26215Y8994D01*
X26176Y8900D01*
X26163Y8800D01*
X26176Y8700D01*
X26215Y8606D01*
X26276Y8526D01*
X26356Y8465D01*
X26450Y8426D01*
X26550Y8413D01*
X26650Y8426D01*
X26744Y8465D01*
X26824Y8526D01*
X26885Y8606D01*
X26924Y8700D01*
X26937Y8800D01*
X26936Y8806D01*
X26938Y8866D01*
X26940Y8891D01*
X26944Y8913D01*
X26948Y8932D01*
X26953Y8948D01*
X26958Y8960D01*
X26962Y8968D01*
X26964Y8972D01*
X27296Y9304D01*
X27372D01*
Y8472D01*
X28228D01*
Y9304D01*
X30541D01*
X30558Y9254D01*
X30495Y9205D01*
X30426Y9116D01*
X30383Y9012D01*
X30368Y8900D01*
X30383Y8788D01*
X30426Y8684D01*
X30495Y8595D01*
X30584Y8526D01*
X30688Y8483D01*
X30800Y8468D01*
X30912Y8483D01*
X31016Y8526D01*
X31105Y8595D01*
X31174Y8684D01*
X31217Y8788D01*
X31230Y8888D01*
X31276Y8913D01*
X32104Y8085D01*
X32108Y8081D01*
X32113Y8073D01*
X32117Y8065D01*
X32121Y8058D01*
X32124Y8050D01*
X32126Y8041D01*
X32128Y8032D01*
X32129Y8027D01*
Y1714D01*
X32128Y1710D01*
X32125Y1701D01*
X32120Y1689D01*
X32112Y1675D01*
X32102Y1659D01*
X32089Y1642D01*
X32051Y1598D01*
X32032Y1578D01*
X32026Y1574D01*
X31965Y1494D01*
X31926Y1400D01*
X31913Y1300D01*
X31926Y1200D01*
X31965Y1106D01*
X32026Y1026D01*
X32106Y965D01*
X32200Y926D01*
X32300Y913D01*
X32400Y926D01*
X32494Y965D01*
X32574Y1026D01*
X32635Y1106D01*
X32674Y1200D01*
X32687Y1300D01*
X32674Y1400D01*
X32635Y1494D01*
X32574Y1574D01*
X32569Y1578D01*
X32527Y1621D01*
X32512Y1640D01*
X32498Y1659D01*
X32488Y1675D01*
X32480Y1689D01*
X32475Y1701D01*
X32472Y1710D01*
X32471Y1714D01*
Y8132D01*
Y12379D01*
X33396Y13304D01*
X33433Y13359D01*
X33446Y13425D01*
Y16300D01*
X38976D01*
Y394D01*
X22096D01*
X22068Y440D01*
X22069Y444D01*
X22121Y479D01*
X23487Y1845D01*
X26784D01*
X26849Y1858D01*
X26905Y1895D01*
X27321Y2311D01*
X27358Y2367D01*
X27371Y2432D01*
Y2733D01*
X27421Y2743D01*
X27442Y2693D01*
X27508Y2608D01*
X27593Y2542D01*
X27693Y2501D01*
X27750Y2493D01*
Y2900D01*
Y3307D01*
X27693Y3299D01*
X27593Y3258D01*
X27508Y3192D01*
X27442Y3107D01*
X27421Y3057D01*
X27371Y3067D01*
Y3685D01*
X27421Y3695D01*
X27426Y3684D01*
X27495Y3595D01*
X27584Y3526D01*
X27688Y3483D01*
X27800Y3468D01*
X27912Y3483D01*
X28016Y3526D01*
X28105Y3595D01*
X28174Y3684D01*
X28217Y3788D01*
X28232Y3900D01*
X28217Y4012D01*
X28174Y4116D01*
X28105Y4205D01*
X28016Y4274D01*
X27912Y4317D01*
X27800Y4332D01*
X27688Y4317D01*
X27584Y4274D01*
X27495Y4205D01*
X27426Y4116D01*
X27421Y4105D01*
X27371Y4115D01*
Y4685D01*
X27421Y4695D01*
X27426Y4684D01*
X27495Y4595D01*
X27584Y4526D01*
X27688Y4483D01*
X27800Y4468D01*
X27912Y4483D01*
X28016Y4526D01*
X28105Y4595D01*
X28174Y4684D01*
X28217Y4788D01*
X28232Y4900D01*
X28217Y5012D01*
X28174Y5116D01*
X28105Y5205D01*
X28016Y5274D01*
X27912Y5317D01*
X27800Y5332D01*
X27688Y5317D01*
X27584Y5274D01*
X27495Y5205D01*
X27426Y5116D01*
X27421Y5105D01*
X27371Y5115D01*
Y5685D01*
X27421Y5695D01*
X27426Y5684D01*
X27495Y5595D01*
X27584Y5526D01*
X27688Y5483D01*
X27800Y5468D01*
X27912Y5483D01*
X28016Y5526D01*
X28105Y5595D01*
X28174Y5684D01*
X28217Y5788D01*
X28232Y5900D01*
X28217Y6012D01*
X28174Y6116D01*
X28105Y6205D01*
X28016Y6274D01*
X27912Y6317D01*
X27800Y6332D01*
X27688Y6317D01*
X27584Y6274D01*
X27495Y6205D01*
X27426Y6116D01*
X27421Y6105D01*
X27371Y6115D01*
Y6685D01*
X27421Y6695D01*
X27426Y6684D01*
X27495Y6595D01*
X27584Y6526D01*
X27688Y6483D01*
X27800Y6468D01*
X27912Y6483D01*
X28016Y6526D01*
X28105Y6595D01*
X28174Y6684D01*
X28217Y6788D01*
X28232Y6900D01*
X28217Y7012D01*
X28174Y7116D01*
X28105Y7205D01*
X28016Y7274D01*
X27912Y7317D01*
X27800Y7332D01*
X27688Y7317D01*
X27584Y7274D01*
X27495Y7205D01*
X27426Y7116D01*
X27420Y7102D01*
X27398Y7101D01*
X27369Y7110D01*
X27358Y7166D01*
X27321Y7221D01*
X26917Y7626D01*
X26915Y7628D01*
X26913Y7633D01*
X26911Y7640D01*
X26909Y7649D01*
X26908Y7662D01*
X26909Y7678D01*
X26911Y7697D01*
X26915Y7719D01*
X26921Y7743D01*
X26924Y7750D01*
X26937Y7850D01*
X26924Y7950D01*
X26885Y8044D01*
X26824Y8124D01*
X26744Y8185D01*
X26650Y8224D01*
X26550Y8237D01*
X26450Y8224D01*
X26356Y8185D01*
X26276Y8124D01*
X26215Y8044D01*
X26176Y7950D01*
X26163Y7850D01*
X26176Y7750D01*
X26215Y7656D01*
X26276Y7576D01*
X26356Y7515D01*
X26450Y7476D01*
X26456Y7475D01*
X26557Y7445D01*
X26582Y7437D01*
X26627Y7418D01*
X26642Y7410D01*
X26653Y7404D01*
X26656Y7402D01*
X27029Y7029D01*
Y5739D01*
X26979Y5729D01*
X26965Y5761D01*
X26898Y5848D01*
X26811Y5915D01*
X26709Y5957D01*
X26600Y5972D01*
X26491Y5957D01*
X26389Y5915D01*
X26302Y5848D01*
X26235Y5761D01*
X26193Y5659D01*
X26178Y5550D01*
X26193Y5441D01*
X26235Y5339D01*
X26302Y5252D01*
X26389Y5185D01*
X26491Y5143D01*
X26600Y5128D01*
X26709Y5143D01*
X26811Y5185D01*
X26898Y5252D01*
X26965Y5339D01*
X26979Y5371D01*
X27029Y5361D01*
Y4739D01*
X26979Y4729D01*
X26965Y4761D01*
X26898Y4848D01*
X26811Y4915D01*
X26709Y4957D01*
X26600Y4972D01*
X26491Y4957D01*
X26389Y4915D01*
X26302Y4848D01*
X26235Y4761D01*
X26193Y4659D01*
X26178Y4550D01*
X26193Y4441D01*
X26235Y4339D01*
X26302Y4252D01*
X26389Y4185D01*
X26491Y4143D01*
X26600Y4128D01*
X26709Y4143D01*
X26811Y4185D01*
X26898Y4252D01*
X26965Y4339D01*
X26979Y4371D01*
X27029Y4361D01*
Y3739D01*
X26979Y3729D01*
X26965Y3761D01*
X26898Y3848D01*
X26811Y3915D01*
X26709Y3957D01*
X26600Y3972D01*
X26491Y3957D01*
X26389Y3915D01*
X26302Y3848D01*
X26235Y3761D01*
X26193Y3659D01*
X26178Y3550D01*
X26193Y3441D01*
X26235Y3339D01*
X26302Y3252D01*
X26389Y3185D01*
X26491Y3143D01*
X26600Y3128D01*
X26709Y3143D01*
X26811Y3185D01*
X26898Y3252D01*
X26965Y3339D01*
X26979Y3371D01*
X27029Y3361D01*
Y2739D01*
X26979Y2729D01*
X26965Y2761D01*
X26898Y2848D01*
X26811Y2915D01*
X26709Y2957D01*
X26600Y2972D01*
X26491Y2957D01*
X26389Y2915D01*
X26302Y2848D01*
X26235Y2761D01*
X26193Y2659D01*
X26178Y2550D01*
X26193Y2441D01*
X26235Y2339D01*
X26302Y2252D01*
X26324Y2235D01*
X26308Y2188D01*
X23867D01*
X23850Y2238D01*
X23885Y2265D01*
X23949Y2348D01*
X23990Y2446D01*
X23997Y2500D01*
X23203D01*
X23210Y2446D01*
X23251Y2348D01*
X23315Y2265D01*
X23363Y2228D01*
X23351Y2175D01*
X23295Y2137D01*
X21929Y771D01*
X17467D01*
X17457Y821D01*
X17507Y842D01*
X17592Y908D01*
X17658Y993D01*
X17699Y1093D01*
X17707Y1150D01*
X16893D01*
X16901Y1093D01*
X16942Y993D01*
X17008Y908D01*
X17093Y842D01*
X17143Y821D01*
X17133Y771D01*
X15515D01*
X15505Y821D01*
X15516Y826D01*
X15605Y895D01*
X15674Y984D01*
X15717Y1088D01*
X15732Y1200D01*
X15717Y1312D01*
X15674Y1416D01*
X15605Y1505D01*
X15575Y1529D01*
X15592Y1579D01*
X17038D01*
X17055Y1529D01*
X17008Y1492D01*
X16942Y1407D01*
X16901Y1307D01*
X16893Y1250D01*
X17707D01*
X17699Y1307D01*
X17658Y1407D01*
X17592Y1492D01*
X17545Y1529D01*
X17562Y1579D01*
X18400D01*
X18466Y1592D01*
X18521Y1629D01*
X19071Y2179D01*
X19108Y2234D01*
X19121Y2300D01*
Y2699D01*
X19161Y2725D01*
X19171Y2726D01*
X19171Y2726D01*
X19183Y2638D01*
X19226Y2534D01*
X19295Y2445D01*
X19384Y2376D01*
X19488Y2333D01*
X19600Y2318D01*
X19712Y2333D01*
X19816Y2376D01*
X19905Y2445D01*
X19974Y2534D01*
X20017Y2638D01*
X20032Y2750D01*
X20017Y2862D01*
X19974Y2966D01*
X19905Y3055D01*
X19816Y3124D01*
X19712Y3167D01*
X19600Y3182D01*
X19488Y3167D01*
X19384Y3124D01*
X19295Y3055D01*
X19226Y2966D01*
X19183Y2862D01*
X19171Y2774D01*
X19171Y2774D01*
X19161Y2775D01*
X19121Y2801D01*
Y3681D01*
X19122Y3681D01*
X19172Y3655D01*
Y3322D01*
X20028D01*
Y4178D01*
X20068Y4204D01*
X21482D01*
X21522Y4178D01*
X21522Y4154D01*
Y3322D01*
X22378D01*
Y4178D01*
X21823D01*
X21808Y4228D01*
X21846Y4254D01*
X22421Y4829D01*
X22458Y4884D01*
X22471Y4950D01*
Y5136D01*
X22472Y5140D01*
X22475Y5149D01*
X22480Y5161D01*
X22488Y5175D01*
X22498Y5191D01*
X22511Y5208D01*
X22549Y5252D01*
X22568Y5272D01*
X22574Y5276D01*
X22635Y5356D01*
X22674Y5450D01*
X22687Y5550D01*
X22674Y5650D01*
X22635Y5744D01*
X22574Y5824D01*
X22494Y5885D01*
X22400Y5924D01*
X22300Y5937D01*
X22200Y5924D01*
X22106Y5885D01*
X22026Y5824D01*
X21965Y5744D01*
X21926Y5650D01*
X21913Y5550D01*
X21926Y5450D01*
X21965Y5356D01*
X22026Y5276D01*
X22031Y5272D01*
X22073Y5229D01*
X22088Y5210D01*
X22102Y5191D01*
X22112Y5175D01*
X22120Y5161D01*
X22125Y5149D01*
X22128Y5140D01*
X22129Y5136D01*
Y5021D01*
X21654Y4546D01*
X19525D01*
X19459Y4533D01*
X19404Y4496D01*
X18829Y3921D01*
X18792Y3866D01*
X18779Y3800D01*
Y2371D01*
X18521Y2114D01*
X18482Y2145D01*
X18508Y2184D01*
X18521Y2250D01*
Y4379D01*
X19278Y5136D01*
X19282Y5138D01*
X19290Y5142D01*
X19302Y5147D01*
X19318Y5152D01*
X19337Y5156D01*
X19358Y5159D01*
X19415Y5164D01*
X19443Y5164D01*
X19450Y5163D01*
X19550Y5176D01*
X19644Y5215D01*
X19724Y5276D01*
X19747Y5306D01*
X19794Y5286D01*
X19783Y5200D01*
X19797Y5092D01*
X19839Y4992D01*
X19905Y4905D01*
X19992Y4839D01*
X20092Y4797D01*
X20200Y4783D01*
X20308Y4797D01*
X20408Y4839D01*
X20495Y4905D01*
X20561Y4992D01*
X20603Y5092D01*
X20617Y5200D01*
X20603Y5308D01*
X20561Y5408D01*
X20495Y5495D01*
X20408Y5561D01*
X20308Y5603D01*
X20200Y5617D01*
X20092Y5603D01*
X19992Y5561D01*
X19905Y5495D01*
X19875Y5456D01*
X19827Y5476D01*
X19837Y5550D01*
X19824Y5650D01*
X19785Y5744D01*
X19724Y5824D01*
X19644Y5885D01*
X19550Y5924D01*
X19450Y5937D01*
X19350Y5924D01*
X19256Y5885D01*
X19176Y5824D01*
X19115Y5744D01*
X19076Y5650D01*
X19075Y5644D01*
X19025D01*
X19024Y5650D01*
X18985Y5744D01*
X18924Y5824D01*
X18919Y5828D01*
X18878Y5871D01*
X18862Y5890D01*
X18848Y5909D01*
X18838Y5925D01*
X18830Y5939D01*
X18825Y5951D01*
X18822Y5960D01*
X18821Y5964D01*
Y6229D01*
X19821Y7229D01*
X20049D01*
X20094Y7218D01*
X20094Y7179D01*
Y6382D01*
X20931D01*
Y6542D01*
X20981Y6559D01*
X21015Y6515D01*
X21098Y6451D01*
X21196Y6410D01*
X21250Y6403D01*
Y6800D01*
X21300D01*
Y6850D01*
X21697D01*
X21690Y6904D01*
X21649Y7002D01*
X21585Y7085D01*
X21502Y7149D01*
X21431Y7179D01*
X21441Y7229D01*
X23933D01*
X23943Y7179D01*
X23893Y7158D01*
X23808Y7092D01*
X23742Y7007D01*
X23701Y6907D01*
X23693Y6850D01*
X24100D01*
X24507D01*
X24499Y6907D01*
X24458Y7007D01*
X24392Y7092D01*
X24307Y7158D01*
X24257Y7179D01*
X24267Y7229D01*
X25000D01*
X25066Y7242D01*
X25121Y7279D01*
X25278Y7436D01*
X25282Y7438D01*
X25290Y7442D01*
X25302Y7447D01*
X25318Y7452D01*
X25337Y7456D01*
X25358Y7459D01*
X25415Y7464D01*
X25443Y7464D01*
X25450Y7463D01*
X25550Y7476D01*
X25644Y7515D01*
X25724Y7576D01*
X25785Y7656D01*
X25824Y7750D01*
X25837Y7850D01*
X25824Y7950D01*
X25785Y8044D01*
X25724Y8124D01*
X25644Y8185D01*
X25550Y8224D01*
X25450Y8237D01*
X25350Y8224D01*
X25256Y8185D01*
X25176Y8124D01*
X25115Y8044D01*
X25076Y7950D01*
X25063Y7850D01*
X25064Y7844D01*
X25062Y7784D01*
X25060Y7759D01*
X25056Y7737D01*
X25052Y7718D01*
X25047Y7702D01*
X25042Y7690D01*
X25038Y7682D01*
X25036Y7678D01*
X24929Y7571D01*
X19750D01*
X19684Y7558D01*
X19629Y7521D01*
X18529Y6421D01*
X17565D01*
X17555Y6471D01*
X17566Y6476D01*
X17655Y6545D01*
X17724Y6634D01*
X17767Y6738D01*
X17782Y6850D01*
X17767Y6962D01*
X17724Y7066D01*
X17655Y7155D01*
X17566Y7224D01*
X17462Y7267D01*
X17350Y7282D01*
X17238Y7267D01*
X17134Y7224D01*
X17045Y7155D01*
X16976Y7066D01*
X16933Y6962D01*
X16918Y6850D01*
X16933Y6738D01*
X16976Y6634D01*
X17045Y6545D01*
X17134Y6476D01*
X17145Y6471D01*
X17135Y6421D01*
X15517Y6421D01*
X15507Y6471D01*
X15557Y6492D01*
X15642Y6558D01*
X15708Y6643D01*
X15749Y6743D01*
X15757Y6800D01*
X15350D01*
X14943D01*
X14951Y6743D01*
X14992Y6643D01*
X15058Y6558D01*
X15143Y6492D01*
X15193Y6471D01*
X15183Y6421D01*
X13768D01*
X13765Y6471D01*
X13800Y6476D01*
X13894Y6515D01*
X13974Y6576D01*
X14035Y6656D01*
X14074Y6750D01*
X14084Y6825D01*
X14134D01*
X14144Y6755D01*
X14181Y6666D01*
X14239Y6589D01*
X14316Y6531D01*
X14405Y6494D01*
X14450Y6488D01*
Y6850D01*
X14500D01*
Y6900D01*
X14862D01*
X14856Y6945D01*
X14819Y7034D01*
X14803Y7056D01*
X14802Y7062D01*
X14798Y7085D01*
X14797Y7085D01*
X14797Y7086D01*
X14784Y7105D01*
X14772Y7124D01*
X14746Y7150D01*
X14705Y7197D01*
X14690Y7216D01*
X14679Y7233D01*
X14670Y7248D01*
X14665Y7260D01*
X14662Y7268D01*
X14661Y7270D01*
Y7683D01*
X15267Y8289D01*
X15510D01*
X15520Y8239D01*
X15484Y8224D01*
X15395Y8155D01*
X15326Y8066D01*
X15283Y7962D01*
X15268Y7850D01*
X15283Y7738D01*
X15326Y7634D01*
X15395Y7545D01*
X15484Y7476D01*
X15588Y7433D01*
X15700Y7418D01*
X15812Y7433D01*
X15916Y7476D01*
X16005Y7545D01*
X16074Y7634D01*
X16117Y7738D01*
X16132Y7850D01*
X16117Y7962D01*
X16074Y8066D01*
X16005Y8155D01*
X15916Y8224D01*
X15880Y8239D01*
X15890Y8289D01*
X16433D01*
X16936Y7786D01*
X16988Y7751D01*
X17050Y7739D01*
X24050D01*
X24112Y7751D01*
X24164Y7786D01*
X25068Y8690D01*
X25111Y8689D01*
X25131Y8682D01*
X25140Y8670D01*
X25146Y8665D01*
X25150Y8658D01*
X25163Y8649D01*
X25176Y8639D01*
X25183Y8636D01*
X25189Y8632D01*
X25201Y8630D01*
X25266Y8581D01*
X25355Y8544D01*
X25400Y8538D01*
Y8900D01*
X25500D01*
Y8538D01*
X25545Y8544D01*
X25634Y8581D01*
X25711Y8639D01*
X25769Y8716D01*
X25806Y8805D01*
X25809Y8822D01*
X25812Y8826D01*
X25825Y8845D01*
X25825Y8845D01*
X25826Y8846D01*
X25831Y8868D01*
X25836Y8890D01*
X25837Y8924D01*
X25843Y8983D01*
X25847Y9005D01*
X25852Y9024D01*
X25857Y9040D01*
X25862Y9053D01*
X25866Y9062D01*
X25869Y9065D01*
X26821Y10018D01*
X26858Y10073D01*
X26864Y10103D01*
X26916Y10108D01*
X26926Y10084D01*
X26995Y9995D01*
X27084Y9926D01*
X27188Y9883D01*
X27300Y9868D01*
X27412Y9883D01*
X27516Y9926D01*
X27605Y9995D01*
X27674Y10084D01*
X27717Y10188D01*
X27732Y10300D01*
X27717Y10412D01*
X27674Y10516D01*
X27605Y10605D01*
X27516Y10674D01*
X27412Y10717D01*
X27300Y10732D01*
X27188Y10717D01*
X27084Y10674D01*
X26995Y10605D01*
X26926Y10516D01*
X26921Y10505D01*
X26871Y10515D01*
Y11285D01*
X26921Y11295D01*
X26926Y11284D01*
X26995Y11195D01*
X27084Y11126D01*
X27188Y11083D01*
X27300Y11068D01*
X27412Y11083D01*
X27516Y11126D01*
X27605Y11195D01*
X27674Y11284D01*
X27717Y11388D01*
X27732Y11500D01*
X27717Y11612D01*
X27674Y11716D01*
X27605Y11805D01*
X27516Y11874D01*
X27412Y11917D01*
X27300Y11932D01*
X27188Y11917D01*
X27084Y11874D01*
X26995Y11805D01*
X26926Y11716D01*
X26921Y11705D01*
X26871Y11715D01*
Y12585D01*
X26921Y12595D01*
X26926Y12584D01*
X26995Y12495D01*
X27084Y12426D01*
X27188Y12383D01*
X27300Y12368D01*
X27412Y12383D01*
X27516Y12426D01*
X27605Y12495D01*
X27674Y12584D01*
X27717Y12688D01*
X27732Y12800D01*
X27717Y12912D01*
X27674Y13016D01*
X27605Y13105D01*
X27516Y13174D01*
X27412Y13217D01*
X27300Y13232D01*
X27188Y13217D01*
X27084Y13174D01*
X26995Y13105D01*
X26926Y13016D01*
X26921Y13005D01*
X26871Y13015D01*
Y14050D01*
X26858Y14116D01*
X26821Y14171D01*
X26314Y14679D01*
X26335Y14729D01*
X30479D01*
X30936Y14272D01*
X30938Y14268D01*
X30942Y14260D01*
X30947Y14248D01*
X30952Y14232D01*
X30956Y14213D01*
X30959Y14192D01*
X30964Y14135D01*
X30964Y14107D01*
X30963Y14100D01*
X30976Y14000D01*
X31015Y13906D01*
X31076Y13826D01*
X31156Y13765D01*
X31250Y13726D01*
X31350Y13713D01*
X31450Y13726D01*
X31544Y13765D01*
X31624Y13826D01*
X31685Y13906D01*
X31724Y14000D01*
X31737Y14100D01*
X31724Y14200D01*
X31685Y14294D01*
X31624Y14374D01*
X31544Y14435D01*
X31450Y14474D01*
X31350Y14487D01*
X31344Y14486D01*
X31284Y14488D01*
X31259Y14490D01*
X31237Y14494D01*
X31218Y14498D01*
X31202Y14503D01*
X31190Y14508D01*
X31182Y14512D01*
X31178Y14514D01*
X30671Y15021D01*
X30616Y15058D01*
X30550Y15071D01*
X27401D01*
X27375Y15111D01*
X27374Y15121D01*
X27374Y15121D01*
X27462Y15133D01*
X27566Y15176D01*
X27655Y15245D01*
X27724Y15334D01*
X27767Y15438D01*
X27782Y15550D01*
X27767Y15662D01*
X27724Y15766D01*
X27655Y15855D01*
X27566Y15924D01*
X27462Y15967D01*
X27350Y15982D01*
X27238Y15967D01*
X27134Y15924D01*
X27045Y15855D01*
X26976Y15766D01*
X26933Y15662D01*
X26918Y15550D01*
X26933Y15438D01*
X26976Y15334D01*
X27045Y15245D01*
X27134Y15176D01*
X27238Y15133D01*
X27326Y15121D01*
X27326Y15121D01*
X27325Y15111D01*
X27299Y15071D01*
X24650D01*
X24584Y15058D01*
X24529Y15021D01*
X24072Y14564D01*
X24068Y14562D01*
X24060Y14558D01*
X24048Y14553D01*
X24032Y14548D01*
X24013Y14544D01*
X23992Y14541D01*
X23935Y14536D01*
X23907Y14536D01*
X23900Y14537D01*
X23800Y14524D01*
X23706Y14485D01*
X23626Y14424D01*
X23565Y14344D01*
X23526Y14250D01*
X23513Y14150D01*
X23526Y14050D01*
X23565Y13956D01*
X23626Y13876D01*
X23698Y13821D01*
X23692Y13786D01*
X23684Y13771D01*
X21414D01*
X21410Y13772D01*
X21401Y13775D01*
X21389Y13780D01*
X21375Y13788D01*
X21359Y13798D01*
X21342Y13811D01*
X21298Y13849D01*
X21274Y13872D01*
X21255Y13885D01*
X21236Y13897D01*
X21235Y13897D01*
X21235Y13898D01*
X21212Y13902D01*
X21206Y13903D01*
X21184Y13919D01*
X21095Y13956D01*
X21050Y13962D01*
Y13600D01*
Y13238D01*
X21095Y13244D01*
X21184Y13281D01*
X21206Y13297D01*
X21211Y13298D01*
X21233Y13301D01*
X21234Y13302D01*
X21236Y13303D01*
X21254Y13315D01*
X21272Y13326D01*
X21321Y13372D01*
X21340Y13388D01*
X21359Y13402D01*
X21375Y13412D01*
X21389Y13420D01*
X21401Y13425D01*
X21410Y13428D01*
X21414Y13429D01*
X21733D01*
X21743Y13379D01*
X21693Y13358D01*
X21608Y13292D01*
X21542Y13207D01*
X21501Y13107D01*
X21493Y13050D01*
X21900D01*
X22307D01*
X22299Y13107D01*
X22258Y13207D01*
X22192Y13292D01*
X22107Y13358D01*
X22057Y13379D01*
X22067Y13429D01*
X23685D01*
X23695Y13379D01*
X23684Y13374D01*
X23595Y13305D01*
X23526Y13216D01*
X23483Y13112D01*
X23468Y13000D01*
X23483Y12888D01*
X23526Y12784D01*
X23595Y12695D01*
X23684Y12626D01*
X23788Y12583D01*
X23900Y12568D01*
X24012Y12583D01*
X24116Y12626D01*
X24205Y12695D01*
X24274Y12784D01*
X24317Y12888D01*
X24332Y13000D01*
X24317Y13112D01*
X24274Y13216D01*
X24205Y13305D01*
X24116Y13374D01*
X24102Y13380D01*
X24101Y13402D01*
X24110Y13431D01*
X24166Y13442D01*
X24221Y13479D01*
X25171Y14429D01*
X25270D01*
X25286Y14381D01*
X25276Y14374D01*
X25215Y14294D01*
X25176Y14200D01*
X25163Y14100D01*
X25176Y14000D01*
X25215Y13906D01*
X25276Y13826D01*
X25281Y13822D01*
X25322Y13779D01*
X25338Y13760D01*
X25352Y13741D01*
X25362Y13725D01*
X25370Y13711D01*
X25375Y13699D01*
X25378Y13690D01*
X25379Y13686D01*
Y12321D01*
X23929Y10871D01*
X15450D01*
X15384Y10858D01*
X15329Y10821D01*
X15129Y10621D01*
X14592D01*
X14575Y10671D01*
X14605Y10695D01*
X14674Y10784D01*
X14717Y10888D01*
X14732Y11000D01*
X14717Y11112D01*
X14674Y11216D01*
X14605Y11305D01*
X14516Y11374D01*
X14412Y11417D01*
X14300Y11432D01*
X14188Y11417D01*
X14084Y11374D01*
X13995Y11305D01*
X13926Y11216D01*
X13883Y11112D01*
X13868Y11000D01*
X13883Y10888D01*
X13926Y10784D01*
X13995Y10695D01*
X14025Y10671D01*
X14008Y10621D01*
X12321D01*
X11504Y11438D01*
Y11573D01*
X11554Y11588D01*
X11634Y11526D01*
X11738Y11483D01*
X11850Y11468D01*
X11962Y11483D01*
X12066Y11526D01*
X12155Y11595D01*
X12224Y11684D01*
X12267Y11788D01*
X12282Y11900D01*
X12267Y12012D01*
X12224Y12116D01*
X12155Y12205D01*
X12066Y12274D01*
X11962Y12317D01*
X11850Y12332D01*
X11738Y12317D01*
X11634Y12274D01*
X11554Y12212D01*
X11504Y12227D01*
Y13703D01*
X11505Y13707D01*
X11508Y13716D01*
X11513Y13728D01*
X11520Y13742D01*
X11531Y13759D01*
X11543Y13776D01*
X11581Y13820D01*
X11600Y13839D01*
X11606Y13844D01*
X11668Y13924D01*
X11707Y14017D01*
X11720Y14117D01*
X11707Y14218D01*
X11668Y14311D01*
X11606Y14391D01*
X11526Y14453D01*
X11433Y14491D01*
X11333Y14505D01*
X11232Y14491D01*
X11139Y14453D01*
X11059Y14391D01*
X11021Y14343D01*
X10971Y14360D01*
Y17750D01*
X10958Y17816D01*
X10921Y17871D01*
X9571Y19221D01*
Y19979D01*
X10171Y20579D01*
X12086D01*
X12090Y20578D01*
X12099Y20575D01*
X12111Y20570D01*
X12125Y20562D01*
X12141Y20552D01*
X12158Y20539D01*
X12202Y20501D01*
X12222Y20482D01*
X12226Y20476D01*
X12306Y20415D01*
X12400Y20376D01*
X12500Y20363D01*
X12600Y20376D01*
X12694Y20415D01*
X12774Y20476D01*
X12835Y20556D01*
X12874Y20650D01*
X12887Y20750D01*
X12874Y20850D01*
X12835Y20944D01*
X12790Y21003D01*
X12814Y21053D01*
X13311D01*
X13333Y21008D01*
X13315Y20985D01*
X13276Y20891D01*
X13263Y20791D01*
X13276Y20691D01*
X13315Y20598D01*
X13376Y20517D01*
X13381Y20513D01*
X13422Y20470D01*
X13438Y20451D01*
X13452Y20432D01*
X13462Y20416D01*
X13470Y20402D01*
X13475Y20390D01*
X13478Y20381D01*
X13479Y20377D01*
Y20342D01*
X13429Y20325D01*
X13405Y20355D01*
X13316Y20424D01*
X13212Y20467D01*
X13100Y20482D01*
X12988Y20467D01*
X12884Y20424D01*
X12795Y20355D01*
X12726Y20266D01*
X12683Y20162D01*
X12668Y20050D01*
X12683Y19938D01*
X12726Y19834D01*
X12795Y19745D01*
X12884Y19676D01*
X12988Y19633D01*
X13100Y19618D01*
X13212Y19633D01*
X13316Y19676D01*
X13405Y19745D01*
X13429Y19775D01*
X13479Y19758D01*
Y16342D01*
X13429Y16325D01*
X13405Y16355D01*
X13316Y16424D01*
X13212Y16467D01*
X13100Y16482D01*
X12988Y16467D01*
X12884Y16424D01*
X12795Y16355D01*
X12726Y16266D01*
X12683Y16162D01*
X12668Y16050D01*
X12683Y15938D01*
X12726Y15834D01*
X12795Y15745D01*
X12884Y15676D01*
X12988Y15633D01*
X13100Y15618D01*
X13212Y15633D01*
X13316Y15676D01*
X13405Y15745D01*
X13429Y15775D01*
X13479Y15758D01*
Y14100D01*
X13492Y14034D01*
X13529Y13979D01*
X14029Y13479D01*
X14084Y13442D01*
X14150Y13429D01*
X17685D01*
X17695Y13379D01*
X17684Y13374D01*
X17595Y13305D01*
X17526Y13216D01*
X17483Y13112D01*
X17468Y13000D01*
X17483Y12888D01*
X17526Y12784D01*
X17595Y12695D01*
X17684Y12626D01*
X17788Y12583D01*
X17900Y12568D01*
X18012Y12583D01*
X18116Y12626D01*
X18205Y12695D01*
X18274Y12784D01*
X18317Y12888D01*
X18332Y13000D01*
X18317Y13112D01*
X18274Y13216D01*
X18205Y13305D01*
X18116Y13374D01*
X18105Y13379D01*
X18115Y13429D01*
X18447D01*
X19514Y12361D01*
X19570Y12324D01*
X19636Y12311D01*
X20589D01*
X20594Y12310D01*
X20604Y12307D01*
X20617Y12302D01*
X20632Y12294D01*
X20651Y12283D01*
X20670Y12271D01*
X20718Y12233D01*
X20726Y12226D01*
X20726Y12226D01*
X20727Y12226D01*
X20744Y12211D01*
X20753Y12206D01*
X20806Y12165D01*
X20900Y12126D01*
X21000Y12113D01*
X21100Y12126D01*
X21194Y12165D01*
X21274Y12226D01*
X21335Y12306D01*
X21374Y12400D01*
X21387Y12500D01*
X21374Y12600D01*
X21335Y12694D01*
X21274Y12774D01*
X21194Y12835D01*
X21100Y12874D01*
X21000Y12887D01*
X20900Y12874D01*
X20806Y12835D01*
X20726Y12774D01*
X20713Y12757D01*
X20709Y12754D01*
X20687Y12729D01*
X20667Y12709D01*
X20649Y12693D01*
X20633Y12680D01*
X20618Y12670D01*
X20605Y12662D01*
X20595Y12657D01*
X20587Y12655D01*
X20583Y12654D01*
X20200D01*
X20184Y12701D01*
X20192Y12708D01*
X20258Y12793D01*
X20299Y12893D01*
X20307Y12950D01*
X19493D01*
X19495Y12936D01*
X19447Y12913D01*
X18639Y13721D01*
X18584Y13758D01*
X18518Y13771D01*
X18180D01*
X18164Y13819D01*
X18174Y13826D01*
X18235Y13906D01*
X18274Y14000D01*
X18287Y14100D01*
X18274Y14200D01*
X18235Y14294D01*
X18174Y14374D01*
X18094Y14435D01*
X18000Y14474D01*
X17900Y14487D01*
X17800Y14474D01*
X17706Y14435D01*
X17626Y14374D01*
X17622Y14369D01*
X17579Y14327D01*
X17560Y14312D01*
X17541Y14298D01*
X17525Y14288D01*
X17511Y14280D01*
X17499Y14275D01*
X17490Y14272D01*
X17486Y14271D01*
X16221D01*
X15171Y15321D01*
Y15835D01*
X15221Y15845D01*
X15226Y15834D01*
X15295Y15745D01*
X15384Y15676D01*
X15488Y15633D01*
X15600Y15618D01*
X15712Y15633D01*
X15816Y15676D01*
X15905Y15745D01*
X15974Y15834D01*
X16017Y15938D01*
X16032Y16050D01*
X16017Y16162D01*
X15974Y16266D01*
X15905Y16355D01*
X15816Y16424D01*
X15712Y16467D01*
X15600Y16482D01*
X15488Y16467D01*
X15384Y16424D01*
X15295Y16355D01*
X15226Y16266D01*
X15221Y16255D01*
X15171Y16265D01*
Y19883D01*
X15221Y19893D01*
X15242Y19843D01*
X15308Y19758D01*
X15393Y19692D01*
X15493Y19651D01*
X15550Y19643D01*
Y20050D01*
Y20457D01*
X15493Y20449D01*
X15393Y20408D01*
X15308Y20342D01*
X15242Y20257D01*
X15221Y20207D01*
X15171Y20217D01*
Y20442D01*
X15164Y20479D01*
X15185Y20506D01*
X15224Y20600D01*
X15237Y20700D01*
X15224Y20800D01*
X15185Y20894D01*
X15124Y20974D01*
X15086Y21003D01*
X15103Y21053D01*
X17152D01*
X17159Y21052D01*
X17171Y21049D01*
X17183Y21045D01*
X17196Y21039D01*
X17210Y21032D01*
X17225Y21022D01*
X17241Y21010D01*
X17257Y20996D01*
X17277Y20977D01*
X17277Y20977D01*
X17322Y20929D01*
X17338Y20910D01*
X17352Y20891D01*
X17362Y20875D01*
X17370Y20861D01*
X17375Y20849D01*
X17378Y20840D01*
X17379Y20836D01*
Y20650D01*
X17392Y20584D01*
X17429Y20529D01*
X18579Y19379D01*
Y19101D01*
X18539Y19075D01*
X18529Y19074D01*
X18529Y19074D01*
X18517Y19162D01*
X18474Y19266D01*
X18405Y19355D01*
X18316Y19424D01*
X18212Y19467D01*
X18100Y19482D01*
X17988Y19467D01*
X17884Y19424D01*
X17795Y19355D01*
X17726Y19266D01*
X17683Y19162D01*
X17668Y19050D01*
X17683Y18938D01*
X17726Y18834D01*
X17795Y18745D01*
X17884Y18676D01*
X17988Y18633D01*
X18100Y18618D01*
X18212Y18633D01*
X18316Y18676D01*
X18405Y18745D01*
X18474Y18834D01*
X18517Y18938D01*
X18529Y19026D01*
X18529Y19026D01*
X18539Y19025D01*
X18579Y18999D01*
Y14350D01*
X18592Y14284D01*
X18629Y14229D01*
X19379Y13479D01*
X19434Y13442D01*
X19500Y13429D01*
X19733D01*
X19743Y13379D01*
X19693Y13358D01*
X19608Y13292D01*
X19542Y13207D01*
X19501Y13107D01*
X19493Y13050D01*
X20307D01*
X20299Y13107D01*
X20258Y13207D01*
X20192Y13292D01*
X20107Y13358D01*
X20057Y13379D01*
X20067Y13429D01*
X20586D01*
X20590Y13428D01*
X20599Y13425D01*
X20611Y13420D01*
X20625Y13412D01*
X20641Y13402D01*
X20658Y13389D01*
X20702Y13351D01*
X20726Y13328D01*
X20745Y13315D01*
X20764Y13303D01*
X20765Y13303D01*
X20765Y13302D01*
X20788Y13298D01*
X20794Y13297D01*
X20816Y13281D01*
X20905Y13244D01*
X20950Y13238D01*
Y13600D01*
Y13962D01*
X20905Y13956D01*
X20816Y13919D01*
X20794Y13903D01*
X20789Y13902D01*
X20767Y13899D01*
X20766Y13898D01*
X20764Y13897D01*
X20746Y13885D01*
X20728Y13874D01*
X20679Y13828D01*
X20660Y13812D01*
X20641Y13798D01*
X20625Y13788D01*
X20611Y13780D01*
X20599Y13775D01*
X20590Y13772D01*
X20586Y13771D01*
X19571D01*
X18921Y14421D01*
Y19450D01*
X18908Y19516D01*
X18871Y19571D01*
X17721Y20721D01*
Y20836D01*
X17722Y20840D01*
X17725Y20849D01*
X17730Y20861D01*
X17738Y20875D01*
X17748Y20891D01*
X17761Y20908D01*
X17799Y20952D01*
X17822Y20976D01*
X17822Y20976D01*
X17822Y20976D01*
X17871Y21023D01*
X17890Y21038D01*
X17909Y21052D01*
X17925Y21062D01*
X17939Y21070D01*
X17951Y21075D01*
X17960Y21078D01*
X17964Y21079D01*
X18850D01*
X18916Y21092D01*
X18971Y21129D01*
X21671Y23829D01*
X23549D01*
X23575Y23789D01*
X23575Y23789D01*
D01*
X23576Y23779D01*
X23576Y23779D01*
X23488Y23767D01*
X23384Y23724D01*
X23295Y23655D01*
X23226Y23566D01*
X23183Y23462D01*
X23168Y23350D01*
X23183Y23238D01*
X23226Y23134D01*
X23295Y23045D01*
X23384Y22976D01*
X23488Y22933D01*
X23600Y22918D01*
X23712Y22933D01*
X23816Y22976D01*
X23905Y23045D01*
X23974Y23134D01*
X24017Y23238D01*
X24032Y23350D01*
X24017Y23462D01*
X23974Y23566D01*
X23905Y23655D01*
X23816Y23724D01*
X23712Y23767D01*
X23624Y23779D01*
X23624Y23779D01*
X23625Y23789D01*
X23651Y23829D01*
X29329D01*
X31779Y21379D01*
D02*
G37*
G36*
X32050Y22022D02*
X32004Y22003D01*
X29285Y24721D01*
X29230Y24758D01*
X29164Y24771D01*
X20950D01*
X20884Y24758D01*
X20829Y24721D01*
X19679Y23571D01*
X18850D01*
X18784Y23558D01*
X18729Y23521D01*
X17179Y21971D01*
X6500D01*
X6434Y21958D01*
X6379Y21921D01*
X5379Y20921D01*
X5342Y20866D01*
X5329Y20800D01*
Y19879D01*
X5279Y19869D01*
X5272Y19886D01*
X5213Y19963D01*
X5208Y19966D01*
X5171Y20006D01*
X5157Y20023D01*
X5145Y20039D01*
X5136Y20054D01*
X5129Y20067D01*
X5125Y20077D01*
X5122Y20085D01*
X5121Y20089D01*
Y21611D01*
X5122Y21615D01*
X5125Y21623D01*
X5129Y21633D01*
X5136Y21646D01*
X5145Y21661D01*
X5156Y21676D01*
X5190Y21716D01*
X5207Y21734D01*
X5213Y21737D01*
X5272Y21814D01*
X5309Y21904D01*
X5321Y22000D01*
X5309Y22096D01*
X5272Y22186D01*
X5213Y22263D01*
X5136Y22322D01*
X5046Y22359D01*
X4950Y22371D01*
X4854Y22359D01*
X4764Y22322D01*
X4687Y22263D01*
X4628Y22186D01*
X4591Y22096D01*
X4579Y22000D01*
X4591Y21904D01*
X4628Y21814D01*
X4687Y21737D01*
X4692Y21734D01*
X4729Y21694D01*
X4743Y21677D01*
X4755Y21661D01*
X4764Y21646D01*
X4771Y21633D01*
X4775Y21623D01*
X4778Y21615D01*
X4779Y21611D01*
Y20089D01*
X4778Y20085D01*
X4775Y20077D01*
X4771Y20067D01*
X4764Y20054D01*
X4755Y20039D01*
X4744Y20024D01*
X4710Y19984D01*
X4693Y19966D01*
X4687Y19963D01*
X4628Y19886D01*
X4591Y19796D01*
X4579Y19700D01*
X4591Y19604D01*
X4628Y19514D01*
X4687Y19437D01*
X4764Y19378D01*
X4854Y19341D01*
X4950Y19329D01*
X5046Y19341D01*
X5136Y19378D01*
X5213Y19437D01*
X5272Y19514D01*
X5279Y19531D01*
X5329Y19521D01*
Y16128D01*
X5281Y16112D01*
X5273Y16123D01*
X5178Y16195D01*
X5068Y16241D01*
X4950Y16257D01*
X4832Y16241D01*
X4722Y16195D01*
X4627Y16123D01*
X4555Y16028D01*
X4509Y15918D01*
X4493Y15800D01*
X4509Y15682D01*
X4555Y15572D01*
X4627Y15477D01*
X4722Y15405D01*
X4832Y15359D01*
X4950Y15343D01*
X5068Y15359D01*
X5178Y15405D01*
X5273Y15477D01*
X5281Y15488D01*
X5329Y15472D01*
Y14650D01*
Y14466D01*
X5314Y14458D01*
X5279Y14452D01*
X5224Y14524D01*
X5144Y14585D01*
X5050Y14624D01*
X4950Y14637D01*
X4850Y14624D01*
X4756Y14585D01*
X4676Y14524D01*
X4672Y14518D01*
X4657Y14504D01*
X4641Y14490D01*
X4625Y14478D01*
X4610Y14468D01*
X4596Y14461D01*
X4583Y14455D01*
X4571Y14451D01*
X4559Y14448D01*
X4552Y14447D01*
X4400D01*
X4325Y14432D01*
X4261Y14389D01*
X4011Y14139D01*
X3968Y14075D01*
X3953Y14000D01*
Y9650D01*
X3968Y9575D01*
X4011Y9511D01*
X4280Y9242D01*
X4283Y9237D01*
X4290Y9226D01*
X4296Y9215D01*
X4301Y9201D01*
X4305Y9186D01*
X4309Y9168D01*
X4312Y9149D01*
X4313Y9127D01*
X4314Y9107D01*
X4313Y9100D01*
X4318Y9059D01*
X4317Y9049D01*
X4320Y9026D01*
X4320Y9009D01*
X4320Y8993D01*
X4318Y8980D01*
X4315Y8968D01*
X4311Y8957D01*
X4306Y8947D01*
X4301Y8938D01*
X4297Y8933D01*
X4007Y8643D01*
X3963Y8577D01*
X3948Y8500D01*
Y4400D01*
X3963Y4323D01*
X4007Y4257D01*
X4329Y3936D01*
X4333Y3931D01*
X4339Y3920D01*
X4345Y3908D01*
X4351Y3895D01*
X4355Y3880D01*
X4359Y3864D01*
X4362Y3846D01*
X4363Y3826D01*
X4364Y3807D01*
X4363Y3800D01*
X4376Y3700D01*
X4415Y3606D01*
X4476Y3526D01*
X4556Y3465D01*
X4650Y3426D01*
X4750Y3413D01*
X4850Y3426D01*
X4944Y3465D01*
X5024Y3526D01*
X5085Y3606D01*
X5124Y3700D01*
X5137Y3800D01*
X5124Y3900D01*
X5085Y3994D01*
X5024Y4074D01*
X4944Y4135D01*
X4850Y4174D01*
X4750Y4187D01*
X4743Y4186D01*
X4724Y4187D01*
X4704Y4188D01*
X4686Y4191D01*
X4670Y4195D01*
X4655Y4199D01*
X4642Y4205D01*
X4630Y4211D01*
X4619Y4217D01*
X4615Y4221D01*
X4352Y4484D01*
Y8416D01*
X4532Y8597D01*
X4570Y8564D01*
X4505Y8478D01*
X4459Y8368D01*
X4443Y8250D01*
X4459Y8132D01*
X4505Y8022D01*
X4577Y7927D01*
X4672Y7855D01*
X4782Y7809D01*
X4900Y7793D01*
X5018Y7809D01*
X5128Y7855D01*
X5223Y7927D01*
X5295Y8022D01*
X5341Y8132D01*
X5357Y8250D01*
X5341Y8368D01*
X5295Y8478D01*
X5223Y8573D01*
X5128Y8645D01*
X5018Y8691D01*
X4900Y8707D01*
X4877Y8704D01*
X4864Y8752D01*
X4894Y8765D01*
X4974Y8826D01*
X5035Y8906D01*
X5074Y9000D01*
X5075Y9006D01*
X5125D01*
X5126Y9000D01*
X5165Y8906D01*
X5226Y8826D01*
X5306Y8765D01*
X5400Y8726D01*
X5500Y8713D01*
X5600Y8726D01*
X5694Y8765D01*
X5774Y8826D01*
X5835Y8906D01*
X5874Y9000D01*
X5887Y9100D01*
X5874Y9200D01*
X5835Y9294D01*
X5774Y9374D01*
X5769Y9378D01*
X5727Y9421D01*
X5712Y9440D01*
X5698Y9459D01*
X5688Y9475D01*
X5680Y9489D01*
X5675Y9501D01*
X5672Y9510D01*
X5671Y9514D01*
Y11193D01*
X5672Y11197D01*
X5675Y11206D01*
X5680Y11218D01*
X5688Y11232D01*
X5698Y11249D01*
X5711Y11266D01*
X5749Y11310D01*
X5768Y11329D01*
X5774Y11334D01*
X5835Y11414D01*
X5874Y11507D01*
X5887Y11607D01*
X5874Y11708D01*
X5835Y11801D01*
X5774Y11881D01*
X5769Y11885D01*
X5727Y11929D01*
X5712Y11948D01*
X5698Y11966D01*
X5688Y11983D01*
X5680Y11997D01*
X5675Y12009D01*
X5672Y12018D01*
X5671Y12022D01*
Y14545D01*
X5672Y14550D01*
X5674Y14559D01*
X5676Y14568D01*
X5679Y14576D01*
X5683Y14584D01*
X5687Y14591D01*
X5692Y14599D01*
X5696Y14603D01*
X6171Y15079D01*
X9700D01*
X9766Y15092D01*
X9821Y15129D01*
X10229Y15536D01*
X10399Y15642D01*
X10433Y15660D01*
X10434Y15661D01*
X10444Y15665D01*
X10524Y15726D01*
X10579Y15798D01*
X10614Y15792D01*
X10629Y15784D01*
Y12314D01*
X10628Y12310D01*
X10625Y12301D01*
X10620Y12289D01*
X10612Y12275D01*
X10602Y12259D01*
X10589Y12242D01*
X10551Y12198D01*
X10532Y12178D01*
X10526Y12174D01*
X10465Y12094D01*
X10426Y12000D01*
X10413Y11900D01*
X10426Y11800D01*
X10465Y11706D01*
X10526Y11626D01*
X10556Y11603D01*
X10558Y11600D01*
X10564Y11596D01*
X10569Y11590D01*
X10586Y11577D01*
X10597Y11567D01*
X10606Y11557D01*
X10613Y11548D01*
X10619Y11540D01*
X10623Y11532D01*
X10626Y11525D01*
X10628Y11517D01*
X10629Y11511D01*
Y11500D01*
X10630Y11494D01*
X10630Y11494D01*
X10630Y11493D01*
X10642Y11434D01*
X10679Y11379D01*
X10881Y11177D01*
X10857Y11130D01*
X10800Y11137D01*
X10700Y11124D01*
X10606Y11085D01*
X10526Y11024D01*
X10465Y10944D01*
X10426Y10850D01*
X10413Y10750D01*
X10426Y10650D01*
X10465Y10556D01*
X10526Y10476D01*
X10531Y10472D01*
X10573Y10429D01*
X10588Y10410D01*
X10602Y10391D01*
X10612Y10375D01*
X10620Y10361D01*
X10625Y10349D01*
X10628Y10340D01*
X10629Y10336D01*
Y9271D01*
X9279Y7921D01*
X6650D01*
X6584Y7908D01*
X6529Y7871D01*
X5929Y7271D01*
X5892Y7216D01*
X5879Y7150D01*
Y6200D01*
X5892Y6134D01*
X5929Y6079D01*
X6379Y5629D01*
X6434Y5592D01*
X6500Y5579D01*
X7033D01*
X7043Y5529D01*
X6993Y5508D01*
X6908Y5442D01*
X6842Y5357D01*
X6801Y5257D01*
X6793Y5200D01*
X7200D01*
X7607D01*
X7599Y5257D01*
X7558Y5357D01*
X7492Y5442D01*
X7407Y5508D01*
X7357Y5529D01*
X7367Y5579D01*
X7529D01*
X8729Y4379D01*
X8784Y4342D01*
X8850Y4329D01*
X9629D01*
X9786Y4172D01*
X9788Y4168D01*
X9792Y4160D01*
X9797Y4148D01*
X9802Y4132D01*
X9806Y4113D01*
X9809Y4092D01*
X9814Y4035D01*
X9814Y4007D01*
X9813Y4000D01*
X9826Y3900D01*
X9865Y3806D01*
X9926Y3726D01*
X10006Y3665D01*
X10100Y3626D01*
X10200Y3613D01*
X10220Y3615D01*
X10242Y3571D01*
X10018Y3347D01*
X9355D01*
X9345Y3397D01*
X9416Y3426D01*
X9505Y3495D01*
X9574Y3584D01*
X9617Y3688D01*
X9632Y3800D01*
X9617Y3912D01*
X9574Y4016D01*
X9505Y4105D01*
X9416Y4174D01*
X9312Y4217D01*
X9200Y4232D01*
X9088Y4217D01*
X8984Y4174D01*
X8895Y4105D01*
X8826Y4016D01*
X8783Y3912D01*
X8768Y3800D01*
X8783Y3688D01*
X8826Y3584D01*
X8895Y3495D01*
X8984Y3426D01*
X9054Y3397D01*
X9044Y3347D01*
X7282D01*
X7279Y3397D01*
X7307Y3401D01*
X7407Y3442D01*
X7492Y3508D01*
X7558Y3593D01*
X7599Y3693D01*
X7607Y3750D01*
X7200D01*
X6793D01*
X6801Y3693D01*
X6842Y3593D01*
X6908Y3508D01*
X6993Y3442D01*
X7093Y3401D01*
X7121Y3397D01*
X7117Y3347D01*
X3682D01*
X3420Y3608D01*
X3417Y3613D01*
X3410Y3624D01*
X3404Y3636D01*
X3399Y3649D01*
X3395Y3664D01*
X3391Y3682D01*
X3388Y3701D01*
X3387Y3723D01*
X3386Y3743D01*
X3387Y3750D01*
X3374Y3850D01*
X3335Y3944D01*
X3274Y4024D01*
X3194Y4085D01*
X3100Y4124D01*
X3000Y4137D01*
X2900Y4124D01*
X2806Y4085D01*
X2726Y4024D01*
X2665Y3944D01*
X2626Y3850D01*
X2613Y3750D01*
X2626Y3650D01*
X2665Y3556D01*
X2726Y3476D01*
X2806Y3415D01*
X2900Y3376D01*
X3000Y3363D01*
X3007Y3364D01*
X3027Y3363D01*
X3049Y3362D01*
X3068Y3359D01*
X3086Y3355D01*
X3101Y3351D01*
X3114Y3346D01*
X3126Y3340D01*
X3137Y3333D01*
X3142Y3330D01*
X3461Y3011D01*
X3525Y2968D01*
X3600Y2953D01*
X5940D01*
X5957Y2903D01*
X5895Y2855D01*
X5826Y2766D01*
X5783Y2662D01*
X5768Y2550D01*
X5783Y2438D01*
X5826Y2334D01*
X5895Y2245D01*
X5984Y2176D01*
X6088Y2133D01*
X6200Y2118D01*
X6312Y2133D01*
X6416Y2176D01*
X6505Y2245D01*
X6574Y2334D01*
X6617Y2438D01*
X6632Y2550D01*
X6617Y2662D01*
X6574Y2766D01*
X6505Y2855D01*
X6443Y2903D01*
X6460Y2953D01*
X9940D01*
X9957Y2903D01*
X9895Y2855D01*
X9826Y2766D01*
X9783Y2662D01*
X9768Y2550D01*
X9783Y2438D01*
X9826Y2334D01*
X9895Y2245D01*
X9984Y2176D01*
X10088Y2133D01*
X10200Y2118D01*
X10312Y2133D01*
X10416Y2176D01*
X10505Y2245D01*
X10518Y2261D01*
X10561Y2236D01*
X10526Y2150D01*
X10513Y2050D01*
X10526Y1950D01*
X10565Y1856D01*
X10626Y1776D01*
X10706Y1715D01*
X10800Y1676D01*
X10900Y1663D01*
X11000Y1676D01*
X11094Y1715D01*
X11174Y1776D01*
X11178Y1781D01*
X11221Y1822D01*
X11240Y1838D01*
X11259Y1852D01*
X11275Y1862D01*
X11289Y1870D01*
X11301Y1875D01*
X11310Y1878D01*
X11314Y1879D01*
X13713D01*
X13963Y1629D01*
X14019Y1592D01*
X14084Y1579D01*
X15008D01*
X15025Y1529D01*
X14995Y1505D01*
X14926Y1416D01*
X14883Y1312D01*
X14868Y1200D01*
X14883Y1088D01*
X14926Y984D01*
X14995Y895D01*
X15084Y826D01*
X15095Y821D01*
X15085Y771D01*
X13215D01*
X13205Y821D01*
X13216Y826D01*
X13305Y895D01*
X13374Y984D01*
X13417Y1088D01*
X13432Y1200D01*
X13417Y1312D01*
X13374Y1416D01*
X13305Y1505D01*
X13216Y1574D01*
X13112Y1617D01*
X13000Y1632D01*
X12888Y1617D01*
X12784Y1574D01*
X12695Y1505D01*
X12626Y1416D01*
X12583Y1312D01*
X12568Y1200D01*
X12583Y1088D01*
X12626Y984D01*
X12695Y895D01*
X12784Y826D01*
X12795Y821D01*
X12785Y771D01*
X12015D01*
X12005Y821D01*
X12016Y826D01*
X12105Y895D01*
X12174Y984D01*
X12217Y1088D01*
X12232Y1200D01*
X12217Y1312D01*
X12174Y1416D01*
X12105Y1505D01*
X12016Y1574D01*
X11912Y1617D01*
X11800Y1632D01*
X11688Y1617D01*
X11584Y1574D01*
X11495Y1505D01*
X11426Y1416D01*
X11383Y1312D01*
X11368Y1200D01*
X11383Y1088D01*
X11426Y984D01*
X11495Y895D01*
X11584Y826D01*
X11595Y821D01*
X11585Y771D01*
X4771D01*
X4364Y1178D01*
X4362Y1182D01*
X4358Y1190D01*
X4353Y1202D01*
X4348Y1218D01*
X4344Y1237D01*
X4341Y1258D01*
X4336Y1315D01*
X4336Y1343D01*
X4337Y1350D01*
X4324Y1450D01*
X4285Y1544D01*
X4224Y1624D01*
X4144Y1685D01*
X4050Y1724D01*
X3950Y1737D01*
X3850Y1724D01*
X3756Y1685D01*
X3676Y1624D01*
X3615Y1544D01*
X3576Y1450D01*
X3563Y1350D01*
X3576Y1250D01*
X3615Y1156D01*
X3676Y1076D01*
X3756Y1015D01*
X3850Y976D01*
X3950Y963D01*
X3956Y964D01*
X4016Y962D01*
X4041Y960D01*
X4063Y956D01*
X4082Y952D01*
X4098Y947D01*
X4110Y942D01*
X4118Y938D01*
X4122Y936D01*
X4579Y479D01*
X4631Y444D01*
X4632Y440D01*
X4604Y394D01*
X394D01*
Y25197D01*
X32050D01*
Y22022D01*
D02*
G37*
G36*
X5101Y21797D02*
X5061Y21751D01*
X5045Y21728D01*
X5031Y21706D01*
X5020Y21685D01*
X5011Y21664D01*
X5005Y21644D01*
X5001Y21624D01*
X5000Y21605D01*
X4900D01*
X4899Y21624D01*
X4895Y21644D01*
X4889Y21664D01*
X4880Y21685D01*
X4869Y21706D01*
X4855Y21728D01*
X4839Y21751D01*
X4820Y21774D01*
X4775Y21821D01*
X5125D01*
X5101Y21797D01*
D02*
G37*
G36*
X29304Y24218D02*
X29285Y24171D01*
X21600D01*
X21534Y24158D01*
X21479Y24121D01*
X18779Y21421D01*
X17964D01*
X17960Y21422D01*
X17951Y21425D01*
X17939Y21430D01*
X17925Y21438D01*
X17909Y21448D01*
X17892Y21461D01*
X17848Y21499D01*
X17824Y21522D01*
X17805Y21535D01*
X17786Y21547D01*
X17785Y21547D01*
X17785Y21548D01*
X17762Y21552D01*
X17756Y21553D01*
X17734Y21569D01*
X17645Y21606D01*
X17600Y21612D01*
Y21250D01*
X17500D01*
Y21612D01*
X17455Y21606D01*
X17366Y21569D01*
X17344Y21553D01*
X17338Y21552D01*
X17316Y21548D01*
X17315Y21547D01*
X17314Y21547D01*
X17295Y21535D01*
X17277Y21523D01*
X17257Y21504D01*
X17241Y21490D01*
X17225Y21478D01*
X17210Y21468D01*
X17196Y21461D01*
X17183Y21455D01*
X17171Y21451D01*
X17159Y21448D01*
X17152Y21447D01*
X9548D01*
X9541Y21448D01*
X9529Y21451D01*
X9517Y21455D01*
X9504Y21461D01*
X9490Y21468D01*
X9475Y21478D01*
X9459Y21490D01*
X9443Y21504D01*
X9423Y21523D01*
X9405Y21535D01*
X9386Y21547D01*
X9385Y21547D01*
X9384Y21548D01*
X9362Y21552D01*
X9356Y21553D01*
X9334Y21569D01*
X9312Y21579D01*
X9322Y21629D01*
X17250D01*
X17316Y21642D01*
X17371Y21679D01*
X18921Y23229D01*
X19750D01*
X19816Y23242D01*
X19871Y23279D01*
X21021Y24429D01*
X29093D01*
X29304Y24218D01*
D02*
G37*
G36*
X17766Y21410D02*
X17817Y21367D01*
X17841Y21349D01*
X17864Y21334D01*
X17887Y21322D01*
X17909Y21312D01*
X17930Y21305D01*
X17951Y21301D01*
X17970Y21300D01*
Y21200D01*
X17951Y21199D01*
X17930Y21195D01*
X17909Y21188D01*
X17887Y21178D01*
X17864Y21166D01*
X17841Y21151D01*
X17817Y21133D01*
X17792Y21113D01*
X17740Y21064D01*
Y21200D01*
X17603Y21197D01*
X17602Y21195D01*
X17602Y21190D01*
X17601Y21171D01*
X17600Y21060D01*
X17736D01*
X17710Y21034D01*
X17667Y20983D01*
X17649Y20959D01*
X17634Y20936D01*
X17622Y20913D01*
X17612Y20891D01*
X17605Y20870D01*
X17601Y20849D01*
X17600Y20830D01*
X17500D01*
X17499Y20849D01*
X17495Y20870D01*
X17488Y20891D01*
X17478Y20913D01*
X17466Y20936D01*
X17451Y20959D01*
X17433Y20983D01*
X17413Y21008D01*
X17364Y21060D01*
X17500D01*
X17497Y21197D01*
X17603D01*
Y21303D01*
X17605Y21302D01*
X17610Y21302D01*
X17629Y21301D01*
X17740Y21300D01*
Y21436D01*
X17766Y21410D01*
D02*
G37*
G36*
X17360Y21064D02*
X17338Y21085D01*
X17316Y21104D01*
X17294Y21121D01*
X17272Y21135D01*
X17250Y21147D01*
X17227Y21157D01*
X17204Y21165D01*
X17182Y21171D01*
X17159Y21174D01*
X17136Y21175D01*
Y21325D01*
X17159Y21326D01*
X17182Y21329D01*
X17204Y21335D01*
X17227Y21343D01*
X17250Y21353D01*
X17272Y21365D01*
X17294Y21379D01*
X17316Y21396D01*
X17338Y21415D01*
X17360Y21436D01*
Y21064D01*
D02*
G37*
G36*
X9362Y21415D02*
X9384Y21396D01*
X9406Y21379D01*
X9428Y21365D01*
X9450Y21353D01*
X9473Y21343D01*
X9496Y21335D01*
X9518Y21329D01*
X9541Y21326D01*
X9564Y21325D01*
Y21175D01*
X9541Y21174D01*
X9518Y21171D01*
X9496Y21165D01*
X9473Y21157D01*
X9450Y21147D01*
X9428Y21135D01*
X9406Y21121D01*
X9384Y21104D01*
X9362Y21085D01*
X9340Y21064D01*
Y21436D01*
X9362Y21415D01*
D02*
G37*
G36*
X12310Y20564D02*
X12284Y20590D01*
X12233Y20633D01*
X12209Y20651D01*
X12186Y20666D01*
X12163Y20678D01*
X12141Y20688D01*
X12120Y20695D01*
X12099Y20699D01*
X12080Y20700D01*
Y20800D01*
X12099Y20801D01*
X12120Y20805D01*
X12141Y20812D01*
X12163Y20822D01*
X12186Y20834D01*
X12209Y20849D01*
X12233Y20867D01*
X12258Y20887D01*
X12310Y20936D01*
Y20564D01*
D02*
G37*
G36*
X13810Y20575D02*
X13767Y20525D01*
X13749Y20500D01*
X13734Y20477D01*
X13722Y20454D01*
X13712Y20432D01*
X13705Y20411D01*
X13701Y20391D01*
X13700Y20371D01*
X13600D01*
X13599Y20391D01*
X13595Y20411D01*
X13588Y20432D01*
X13578Y20454D01*
X13566Y20477D01*
X13551Y20500D01*
X13533Y20525D01*
X13513Y20549D01*
X13464Y20601D01*
X13836D01*
X13810Y20575D01*
D02*
G37*
G36*
X5001Y20076D02*
X5005Y20056D01*
X5011Y20036D01*
X5020Y20015D01*
X5031Y19994D01*
X5045Y19972D01*
X5061Y19949D01*
X5080Y19926D01*
X5125Y19879D01*
X4775D01*
X4799Y19903D01*
X4839Y19949D01*
X4855Y19972D01*
X4869Y19994D01*
X4880Y20015D01*
X4889Y20036D01*
X4895Y20056D01*
X4899Y20076D01*
X4900Y20095D01*
X5000D01*
X5001Y20076D01*
D02*
G37*
G36*
X8988Y21579D02*
X8966Y21569D01*
X8889Y21511D01*
X8831Y21434D01*
X8794Y21345D01*
X8788Y21300D01*
X9150D01*
Y21250D01*
X9200D01*
Y20888D01*
X9245Y20894D01*
X9334Y20931D01*
X9356Y20947D01*
X9362Y20948D01*
X9384Y20952D01*
X9385Y20953D01*
X9386Y20953D01*
X9405Y20965D01*
X9423Y20977D01*
X9443Y20996D01*
X9459Y21010D01*
X9475Y21022D01*
X9490Y21032D01*
X9504Y21039D01*
X9517Y21045D01*
X9529Y21049D01*
X9541Y21052D01*
X9548Y21053D01*
X12186D01*
X12186Y21053D01*
X12206Y21003D01*
X12179Y20977D01*
X12160Y20962D01*
X12141Y20948D01*
X12125Y20938D01*
X12111Y20930D01*
X12099Y20925D01*
X12090Y20922D01*
X12086Y20921D01*
X10100D01*
X10034Y20908D01*
X9979Y20871D01*
X9279Y20171D01*
X9242Y20116D01*
X9229Y20050D01*
Y19150D01*
X9242Y19084D01*
X9279Y19029D01*
X10629Y17679D01*
Y16216D01*
X10614Y16208D01*
X10579Y16202D01*
X10524Y16274D01*
X10444Y16335D01*
X10350Y16374D01*
X10250Y16387D01*
X10150Y16374D01*
X10056Y16335D01*
X9976Y16274D01*
X9915Y16194D01*
X9876Y16100D01*
X9863Y16000D01*
X9876Y15900D01*
X9915Y15806D01*
X9922Y15797D01*
X9923Y15795D01*
X9923Y15795D01*
X9923Y15795D01*
X9935Y15775D01*
X9941Y15761D01*
X9945Y15751D01*
X9946Y15744D01*
X9946Y15741D01*
X9946Y15740D01*
X9946Y15739D01*
X9946Y15739D01*
X9945Y15737D01*
X9629Y15421D01*
X6100D01*
X6034Y15408D01*
X5979Y15371D01*
X5718Y15110D01*
X5671Y15129D01*
Y19485D01*
X5721Y19495D01*
X5726Y19484D01*
X5795Y19395D01*
X5884Y19326D01*
X5988Y19283D01*
X6100Y19268D01*
X6212Y19283D01*
X6316Y19326D01*
X6405Y19395D01*
X6474Y19484D01*
X6517Y19588D01*
X6532Y19700D01*
X6517Y19812D01*
X6474Y19916D01*
X6405Y20005D01*
X6316Y20074D01*
X6212Y20117D01*
X6100Y20132D01*
X5988Y20117D01*
X5884Y20074D01*
X5795Y20005D01*
X5726Y19916D01*
X5721Y19905D01*
X5671Y19915D01*
Y20729D01*
X6571Y21629D01*
X8978D01*
X8988Y21579D01*
D02*
G37*
G36*
X10376Y15766D02*
X10339Y15746D01*
X10152Y15630D01*
X10142Y15622D01*
X10025Y15646D01*
X10040Y15663D01*
X10052Y15681D01*
X10060Y15700D01*
X10065Y15720D01*
X10067Y15740D01*
X10066Y15762D01*
X10061Y15784D01*
X10053Y15807D01*
X10041Y15831D01*
X10026Y15856D01*
X10376Y15766D01*
D02*
G37*
G36*
X5551Y14852D02*
X5553Y14838D01*
X5556Y14826D01*
X5561Y14818D01*
X5568Y14813D01*
X5575Y14812D01*
X5585Y14814D01*
X5595Y14820D01*
X5607Y14829D01*
X5621Y14841D01*
Y14700D01*
X5607Y14686D01*
X5595Y14671D01*
X5585Y14655D01*
X5575Y14639D01*
X5568Y14622D01*
X5561Y14605D01*
X5556Y14587D01*
X5553Y14568D01*
X5551Y14549D01*
X5550Y14529D01*
X5450Y14650D01*
X5550Y14871D01*
X5551Y14852D01*
D02*
G37*
G36*
X32751Y14501D02*
X32755Y14480D01*
X32762Y14459D01*
X32772Y14437D01*
X32784Y14414D01*
X32799Y14391D01*
X32817Y14367D01*
X32837Y14342D01*
X32886Y14290D01*
X32514D01*
X32540Y14316D01*
X32583Y14367D01*
X32601Y14391D01*
X32616Y14414D01*
X32628Y14437D01*
X32638Y14459D01*
X32645Y14480D01*
X32649Y14501D01*
X32650Y14520D01*
X32750D01*
X32751Y14501D01*
D02*
G37*
G36*
X24233Y14412D02*
X24220Y14397D01*
X24208Y14380D01*
X24198Y14360D01*
X24189Y14337D01*
X24182Y14313D01*
X24176Y14286D01*
X24171Y14256D01*
X24168Y14224D01*
X24166Y14153D01*
X23903Y14416D01*
X23940Y14416D01*
X24006Y14421D01*
X24036Y14426D01*
X24063Y14432D01*
X24087Y14439D01*
X24110Y14448D01*
X24130Y14458D01*
X24147Y14470D01*
X24162Y14483D01*
X24233Y14412D01*
D02*
G37*
G36*
X31103Y14420D02*
X31120Y14408D01*
X31140Y14398D01*
X31163Y14389D01*
X31187Y14382D01*
X31214Y14376D01*
X31244Y14371D01*
X31276Y14368D01*
X31347Y14366D01*
X31084Y14103D01*
X31084Y14140D01*
X31079Y14206D01*
X31074Y14236D01*
X31068Y14263D01*
X31061Y14287D01*
X31052Y14310D01*
X31042Y14330D01*
X31030Y14347D01*
X31017Y14362D01*
X31088Y14433D01*
X31103Y14420D01*
D02*
G37*
G36*
X4760Y14064D02*
X4738Y14085D01*
X4716Y14104D01*
X4694Y14121D01*
X4672Y14135D01*
X4650Y14147D01*
X4627Y14157D01*
X4604Y14165D01*
X4582Y14171D01*
X4559Y14174D01*
X4536Y14175D01*
Y14325D01*
X4559Y14326D01*
X4582Y14329D01*
X4604Y14335D01*
X4627Y14343D01*
X4650Y14353D01*
X4672Y14365D01*
X4694Y14379D01*
X4716Y14396D01*
X4738Y14415D01*
X4760Y14436D01*
Y14064D01*
D02*
G37*
G36*
X17710Y13914D02*
X17684Y13940D01*
X17633Y13983D01*
X17609Y14001D01*
X17586Y14016D01*
X17563Y14028D01*
X17541Y14038D01*
X17520Y14045D01*
X17499Y14049D01*
X17480Y14050D01*
Y14150D01*
X17499Y14151D01*
X17520Y14155D01*
X17541Y14162D01*
X17563Y14172D01*
X17586Y14184D01*
X17609Y14199D01*
X17633Y14217D01*
X17658Y14237D01*
X17710Y14286D01*
Y13914D01*
D02*
G37*
G36*
X11493Y13901D02*
X11449Y13851D01*
X11431Y13827D01*
X11417Y13803D01*
X11404Y13781D01*
X11395Y13759D01*
X11388Y13737D01*
X11384Y13717D01*
X11383Y13697D01*
X11283D01*
X11281Y13717D01*
X11277Y13737D01*
X11270Y13759D01*
X11261Y13781D01*
X11249Y13803D01*
X11234Y13827D01*
X11216Y13851D01*
X11195Y13876D01*
X11147Y13928D01*
X11519D01*
X11493Y13901D01*
D02*
G37*
G36*
X25710Y13884D02*
X25667Y13833D01*
X25649Y13809D01*
X25634Y13786D01*
X25622Y13763D01*
X25612Y13741D01*
X25605Y13720D01*
X25601Y13699D01*
X25600Y13680D01*
X25500D01*
X25499Y13699D01*
X25495Y13720D01*
X25488Y13741D01*
X25478Y13763D01*
X25466Y13786D01*
X25451Y13809D01*
X25433Y13833D01*
X25413Y13858D01*
X25364Y13910D01*
X25736D01*
X25710Y13884D01*
D02*
G37*
G36*
X21216Y13760D02*
X21267Y13717D01*
X21291Y13699D01*
X21314Y13684D01*
X21337Y13672D01*
X21359Y13662D01*
X21380Y13655D01*
X21401Y13651D01*
X21420Y13650D01*
Y13550D01*
X21401Y13549D01*
X21380Y13545D01*
X21359Y13538D01*
X21337Y13528D01*
X21314Y13516D01*
X21291Y13501D01*
X21267Y13483D01*
X21242Y13463D01*
X21190Y13414D01*
Y13786D01*
X21216Y13760D01*
D02*
G37*
G36*
X20810Y13414D02*
X20784Y13440D01*
X20733Y13483D01*
X20709Y13501D01*
X20686Y13516D01*
X20663Y13528D01*
X20641Y13538D01*
X20620Y13545D01*
X20599Y13549D01*
X20580Y13550D01*
Y13650D01*
X20599Y13651D01*
X20620Y13655D01*
X20641Y13662D01*
X20663Y13672D01*
X20686Y13684D01*
X20709Y13699D01*
X20733Y13717D01*
X20758Y13737D01*
X20810Y13786D01*
Y13414D01*
D02*
G37*
G36*
X26529Y13979D02*
Y13080D01*
X26481Y13064D01*
X26474Y13074D01*
X26394Y13135D01*
X26300Y13174D01*
X26200Y13187D01*
X26100Y13174D01*
X26006Y13135D01*
X25926Y13074D01*
X25865Y12994D01*
X25826Y12900D01*
X25813Y12800D01*
X25826Y12700D01*
X25865Y12606D01*
X25926Y12526D01*
X25931Y12522D01*
X25972Y12479D01*
X25988Y12460D01*
X26002Y12441D01*
X26012Y12425D01*
X26020Y12411D01*
X26025Y12399D01*
X26028Y12390D01*
X26029Y12386D01*
Y12371D01*
X24279Y10621D01*
X24242Y10566D01*
X24229Y10500D01*
Y9771D01*
X23979Y9521D01*
X15400D01*
X15334Y9508D01*
X15279Y9471D01*
X14757Y8950D01*
X14757Y8950D01*
X14350D01*
Y8543D01*
X14350Y8543D01*
X13579Y7771D01*
X13542Y7716D01*
X13529Y7650D01*
Y7264D01*
X13528Y7260D01*
X13525Y7251D01*
X13520Y7239D01*
X13512Y7225D01*
X13502Y7209D01*
X13489Y7192D01*
X13451Y7148D01*
X13432Y7128D01*
X13426Y7124D01*
X13365Y7044D01*
X13326Y6950D01*
X13313Y6850D01*
X13326Y6750D01*
X13365Y6656D01*
X13426Y6576D01*
X13506Y6515D01*
X13600Y6476D01*
X13635Y6471D01*
X13632Y6421D01*
X12600D01*
X12000D01*
X11934Y6408D01*
X11879Y6371D01*
X10829Y5321D01*
X10614D01*
X10610Y5322D01*
X10601Y5325D01*
X10589Y5330D01*
X10575Y5338D01*
X10559Y5348D01*
X10542Y5361D01*
X10498Y5399D01*
X10478Y5418D01*
X10474Y5424D01*
X10469Y5428D01*
X10428Y5471D01*
X10412Y5490D01*
X10398Y5509D01*
X10388Y5525D01*
X10380Y5539D01*
X10375Y5551D01*
X10372Y5560D01*
X10371Y5564D01*
Y7679D01*
X10686Y7994D01*
X10732Y7969D01*
X10729Y7950D01*
Y7314D01*
X10728Y7310D01*
X10725Y7301D01*
X10720Y7289D01*
X10712Y7275D01*
X10702Y7259D01*
X10689Y7242D01*
X10651Y7198D01*
X10632Y7178D01*
X10626Y7174D01*
X10565Y7094D01*
X10526Y7000D01*
X10513Y6900D01*
X10526Y6800D01*
X10565Y6706D01*
X10626Y6626D01*
X10706Y6565D01*
X10800Y6526D01*
X10900Y6513D01*
X11000Y6526D01*
X11094Y6565D01*
X11174Y6626D01*
X11235Y6706D01*
X11274Y6800D01*
X11287Y6900D01*
X11274Y7000D01*
X11235Y7094D01*
X11174Y7174D01*
X11169Y7178D01*
X11128Y7221D01*
X11112Y7240D01*
X11098Y7259D01*
X11088Y7275D01*
X11080Y7289D01*
X11075Y7301D01*
X11072Y7310D01*
X11071Y7314D01*
Y7879D01*
X13071Y9879D01*
X16136D01*
X16140Y9878D01*
X16149Y9875D01*
X16161Y9870D01*
X16175Y9862D01*
X16191Y9852D01*
X16208Y9839D01*
X16252Y9801D01*
X16272Y9782D01*
X16276Y9776D01*
X16356Y9715D01*
X16450Y9676D01*
X16550Y9663D01*
X16650Y9676D01*
X16744Y9715D01*
X16824Y9776D01*
X16885Y9856D01*
X16924Y9950D01*
X16937Y10050D01*
X16924Y10150D01*
X16885Y10244D01*
X16824Y10324D01*
X16744Y10385D01*
X16650Y10424D01*
X16550Y10437D01*
X16450Y10424D01*
X16356Y10385D01*
X16276Y10324D01*
X16272Y10319D01*
X16229Y10278D01*
X16210Y10262D01*
X16191Y10248D01*
X16175Y10238D01*
X16161Y10230D01*
X16149Y10225D01*
X16140Y10222D01*
X16136Y10221D01*
X13000D01*
X12934Y10208D01*
X12879Y10171D01*
X11714Y9006D01*
X11668Y9031D01*
X11671Y9050D01*
Y10721D01*
X11718Y10740D01*
X12129Y10329D01*
X12184Y10292D01*
X12250Y10279D01*
X15200D01*
X15266Y10292D01*
X15321Y10329D01*
X15521Y10529D01*
X24000D01*
X24066Y10542D01*
X24121Y10579D01*
X25671Y12129D01*
X25708Y12184D01*
X25721Y12250D01*
Y13686D01*
X25722Y13690D01*
X25725Y13699D01*
X25730Y13711D01*
X25738Y13725D01*
X25748Y13741D01*
X25761Y13758D01*
X25799Y13802D01*
X25818Y13822D01*
X25824Y13826D01*
X25885Y13906D01*
X25924Y14000D01*
X25937Y14100D01*
X25924Y14200D01*
X25885Y14294D01*
X25824Y14374D01*
X25814Y14381D01*
X25830Y14429D01*
X26079D01*
X26529Y13979D01*
D02*
G37*
G36*
X26360Y12584D02*
X26317Y12533D01*
X26299Y12509D01*
X26284Y12486D01*
X26272Y12463D01*
X26262Y12441D01*
X26255Y12420D01*
X26251Y12399D01*
X26250Y12380D01*
X26150D01*
X26149Y12399D01*
X26145Y12420D01*
X26138Y12441D01*
X26128Y12463D01*
X26116Y12486D01*
X26101Y12509D01*
X26083Y12533D01*
X26063Y12558D01*
X26014Y12610D01*
X26386D01*
X26360Y12584D01*
D02*
G37*
G36*
X20823Y12302D02*
X20794Y12327D01*
X20740Y12369D01*
X20714Y12385D01*
X20690Y12400D01*
X20667Y12412D01*
X20644Y12421D01*
X20623Y12427D01*
X20603Y12431D01*
X20584Y12433D01*
X20577Y12533D01*
X20597Y12534D01*
X20618Y12538D01*
X20639Y12545D01*
X20661Y12555D01*
X20683Y12568D01*
X20705Y12583D01*
X20728Y12601D01*
X20751Y12623D01*
X20774Y12646D01*
X20798Y12673D01*
X20823Y12302D01*
D02*
G37*
G36*
X10851Y12301D02*
X10855Y12280D01*
X10862Y12259D01*
X10872Y12237D01*
X10884Y12214D01*
X10899Y12191D01*
X10917Y12167D01*
X10937Y12142D01*
X10986Y12090D01*
X10614D01*
X10640Y12116D01*
X10683Y12167D01*
X10701Y12191D01*
X10716Y12214D01*
X10728Y12237D01*
X10738Y12259D01*
X10745Y12280D01*
X10749Y12301D01*
X10750Y12320D01*
X10850D01*
X10851Y12301D01*
D02*
G37*
G36*
X5551Y12008D02*
X5555Y11988D01*
X5562Y11966D01*
X5572Y11944D01*
X5584Y11922D01*
X5599Y11898D01*
X5617Y11874D01*
X5637Y11849D01*
X5686Y11797D01*
X5314D01*
X5340Y11824D01*
X5383Y11874D01*
X5401Y11898D01*
X5416Y11922D01*
X5428Y11944D01*
X5438Y11966D01*
X5445Y11988D01*
X5449Y12008D01*
X5450Y12028D01*
X5550D01*
X5551Y12008D01*
D02*
G37*
G36*
X10936Y11669D02*
X10918Y11653D01*
X10902Y11636D01*
X10888Y11618D01*
X10877Y11600D01*
X10867Y11581D01*
X10860Y11562D01*
X10854Y11542D01*
X10851Y11521D01*
X10850Y11500D01*
X10750D01*
X10749Y11521D01*
X10746Y11542D01*
X10740Y11562D01*
X10733Y11581D01*
X10723Y11600D01*
X10712Y11618D01*
X10698Y11636D01*
X10682Y11653D01*
X10664Y11669D01*
X10643Y11685D01*
X10957D01*
X10936Y11669D01*
D02*
G37*
G36*
X5660Y11391D02*
X5617Y11341D01*
X5599Y11317D01*
X5584Y11293D01*
X5572Y11271D01*
X5562Y11249D01*
X5555Y11227D01*
X5551Y11207D01*
X5550Y11187D01*
X5450D01*
X5449Y11207D01*
X5445Y11227D01*
X5438Y11249D01*
X5428Y11271D01*
X5416Y11293D01*
X5401Y11317D01*
X5383Y11341D01*
X5363Y11366D01*
X5314Y11418D01*
X5686D01*
X5660Y11391D01*
D02*
G37*
G36*
X26529Y12520D02*
Y10568D01*
X26479Y10551D01*
X26445Y10595D01*
X26358Y10661D01*
X26258Y10703D01*
X26150Y10717D01*
X26042Y10703D01*
X25942Y10661D01*
X25855Y10595D01*
X25789Y10508D01*
X25747Y10408D01*
X25733Y10300D01*
X25747Y10192D01*
X25789Y10092D01*
X25855Y10005D01*
X25942Y9939D01*
X26042Y9897D01*
X26133Y9885D01*
X26155Y9837D01*
X25628Y9310D01*
X25625Y9307D01*
X25617Y9303D01*
X25605Y9299D01*
X25590Y9295D01*
X25572Y9291D01*
X25552Y9288D01*
X25495Y9285D01*
X25463Y9286D01*
X25440Y9282D01*
X25418Y9278D01*
X25417Y9278D01*
X25417Y9278D01*
X25397Y9265D01*
X25390Y9261D01*
X25355Y9256D01*
X25266Y9219D01*
X25201Y9170D01*
X25189Y9168D01*
X25183Y9164D01*
X25176Y9161D01*
X25163Y9151D01*
X25150Y9142D01*
X25146Y9135D01*
X25140Y9130D01*
X25125Y9111D01*
X25113Y9097D01*
X25102Y9086D01*
X25092Y9078D01*
X25082Y9071D01*
X25074Y9067D01*
X25067Y9064D01*
X25061Y9062D01*
X25057Y9061D01*
X25050D01*
X25046Y9060D01*
X25043Y9060D01*
X25036Y9058D01*
X24988Y9049D01*
X24936Y9014D01*
X23983Y8061D01*
X23743D01*
X23733Y8111D01*
X23807Y8142D01*
X23892Y8208D01*
X23958Y8293D01*
X23999Y8393D01*
X24007Y8450D01*
X23600D01*
X23193D01*
X23201Y8393D01*
X23242Y8293D01*
X23308Y8208D01*
X23393Y8142D01*
X23467Y8111D01*
X23457Y8061D01*
X22790D01*
X22780Y8111D01*
X22816Y8126D01*
X22905Y8195D01*
X22974Y8284D01*
X23017Y8388D01*
X23032Y8500D01*
X23017Y8612D01*
X22974Y8716D01*
X22905Y8805D01*
X22816Y8874D01*
X22712Y8917D01*
X22600Y8932D01*
X22488Y8917D01*
X22384Y8874D01*
X22295Y8805D01*
X22226Y8716D01*
X22183Y8612D01*
X22168Y8500D01*
X22183Y8388D01*
X22226Y8284D01*
X22295Y8195D01*
X22384Y8126D01*
X22420Y8111D01*
X22410Y8061D01*
X21790D01*
X21780Y8111D01*
X21816Y8126D01*
X21905Y8195D01*
X21974Y8284D01*
X22017Y8388D01*
X22032Y8500D01*
X22017Y8612D01*
X21974Y8716D01*
X21905Y8805D01*
X21816Y8874D01*
X21712Y8917D01*
X21600Y8932D01*
X21488Y8917D01*
X21384Y8874D01*
X21295Y8805D01*
X21226Y8716D01*
X21183Y8612D01*
X21168Y8500D01*
X21183Y8388D01*
X21226Y8284D01*
X21295Y8195D01*
X21384Y8126D01*
X21420Y8111D01*
X21410Y8061D01*
X20790D01*
X20780Y8111D01*
X20816Y8126D01*
X20905Y8195D01*
X20974Y8284D01*
X21017Y8388D01*
X21032Y8500D01*
X21017Y8612D01*
X20974Y8716D01*
X20905Y8805D01*
X20816Y8874D01*
X20712Y8917D01*
X20600Y8932D01*
X20488Y8917D01*
X20384Y8874D01*
X20295Y8805D01*
X20226Y8716D01*
X20183Y8612D01*
X20168Y8500D01*
X20183Y8388D01*
X20226Y8284D01*
X20295Y8195D01*
X20384Y8126D01*
X20420Y8111D01*
X20410Y8061D01*
X19790D01*
X19780Y8111D01*
X19816Y8126D01*
X19905Y8195D01*
X19974Y8284D01*
X20017Y8388D01*
X20032Y8500D01*
X20017Y8612D01*
X19974Y8716D01*
X19905Y8805D01*
X19816Y8874D01*
X19712Y8917D01*
X19600Y8932D01*
X19488Y8917D01*
X19384Y8874D01*
X19295Y8805D01*
X19226Y8716D01*
X19183Y8612D01*
X19168Y8500D01*
X19183Y8388D01*
X19226Y8284D01*
X19295Y8195D01*
X19384Y8126D01*
X19420Y8111D01*
X19410Y8061D01*
X18790D01*
X18780Y8111D01*
X18816Y8126D01*
X18905Y8195D01*
X18974Y8284D01*
X19017Y8388D01*
X19032Y8500D01*
X19017Y8612D01*
X18974Y8716D01*
X18905Y8805D01*
X18816Y8874D01*
X18712Y8917D01*
X18600Y8932D01*
X18488Y8917D01*
X18384Y8874D01*
X18295Y8805D01*
X18226Y8716D01*
X18183Y8612D01*
X18168Y8500D01*
X18183Y8388D01*
X18226Y8284D01*
X18295Y8195D01*
X18384Y8126D01*
X18420Y8111D01*
X18410Y8061D01*
X18074D01*
X18028Y8072D01*
X18028Y8111D01*
Y8928D01*
X17172D01*
Y8111D01*
X17172Y8072D01*
X17126Y8061D01*
X17117D01*
X16614Y8564D01*
X16562Y8599D01*
X16500Y8611D01*
X15200D01*
X15138Y8599D01*
X15086Y8564D01*
X14386Y7864D01*
X14351Y7812D01*
X14339Y7750D01*
Y7270D01*
X14338Y7268D01*
X14335Y7260D01*
X14330Y7248D01*
X14321Y7233D01*
X14310Y7216D01*
X14295Y7197D01*
X14254Y7150D01*
X14228Y7124D01*
X14216Y7105D01*
X14203Y7086D01*
X14203Y7085D01*
X14202Y7085D01*
X14198Y7062D01*
X14197Y7056D01*
X14181Y7034D01*
X14144Y6945D01*
X14134Y6875D01*
X14084D01*
X14074Y6950D01*
X14035Y7044D01*
X13974Y7124D01*
X13969Y7128D01*
X13928Y7171D01*
X13912Y7190D01*
X13898Y7209D01*
X13888Y7225D01*
X13880Y7239D01*
X13875Y7251D01*
X13872Y7260D01*
X13871Y7264D01*
Y7579D01*
X15471Y9179D01*
X24050D01*
X24116Y9192D01*
X24171Y9229D01*
X24521Y9579D01*
X24558Y9634D01*
X24571Y9700D01*
Y10429D01*
X24690Y10548D01*
X24737Y10529D01*
Y9887D01*
X25563D01*
Y10713D01*
X24921D01*
X24902Y10760D01*
X26321Y12179D01*
X26358Y12234D01*
X26371Y12300D01*
Y12386D01*
X26372Y12390D01*
X26375Y12399D01*
X26380Y12411D01*
X26388Y12425D01*
X26398Y12441D01*
X26411Y12458D01*
X26449Y12502D01*
X26468Y12522D01*
X26474Y12526D01*
X26481Y12536D01*
X26529Y12520D01*
D02*
G37*
G36*
X10960Y10534D02*
X10917Y10483D01*
X10899Y10459D01*
X10884Y10436D01*
X10872Y10413D01*
X10862Y10391D01*
X10855Y10370D01*
X10851Y10349D01*
X10850Y10330D01*
X10750D01*
X10749Y10349D01*
X10745Y10370D01*
X10738Y10391D01*
X10728Y10413D01*
X10716Y10436D01*
X10701Y10459D01*
X10683Y10483D01*
X10663Y10508D01*
X10614Y10560D01*
X10986D01*
X10960Y10534D01*
D02*
G37*
G36*
X16360Y9864D02*
X16334Y9890D01*
X16283Y9933D01*
X16259Y9951D01*
X16236Y9966D01*
X16213Y9978D01*
X16191Y9988D01*
X16170Y9995D01*
X16149Y9999D01*
X16130Y10000D01*
Y10100D01*
X16149Y10101D01*
X16170Y10105D01*
X16191Y10112D01*
X16213Y10122D01*
X16236Y10134D01*
X16259Y10149D01*
X16283Y10167D01*
X16308Y10187D01*
X16360Y10236D01*
Y9864D01*
D02*
G37*
G36*
X5551Y9501D02*
X5555Y9480D01*
X5562Y9459D01*
X5572Y9437D01*
X5584Y9414D01*
X5599Y9391D01*
X5617Y9367D01*
X5637Y9342D01*
X5686Y9290D01*
X5314D01*
X5340Y9316D01*
X5383Y9367D01*
X5401Y9391D01*
X5416Y9414D01*
X5428Y9437D01*
X5438Y9459D01*
X5445Y9480D01*
X5449Y9501D01*
X5450Y9520D01*
X5550D01*
X5551Y9501D01*
D02*
G37*
G36*
X25787Y9155D02*
X25774Y9141D01*
X25763Y9123D01*
X25752Y9103D01*
X25743Y9081D01*
X25735Y9056D01*
X25729Y9029D01*
X25724Y8999D01*
X25717Y8932D01*
X25716Y8895D01*
X25460Y9166D01*
X25497Y9165D01*
X25563Y9168D01*
X25592Y9172D01*
X25619Y9177D01*
X25644Y9185D01*
X25666Y9193D01*
X25686Y9203D01*
X25703Y9215D01*
X25718Y9228D01*
X25787Y9155D01*
D02*
G37*
G36*
X4477Y9431D02*
X4496Y9417D01*
X4516Y9404D01*
X4537Y9394D01*
X4560Y9385D01*
X4585Y9378D01*
X4611Y9372D01*
X4638Y9368D01*
X4667Y9366D01*
X4697Y9366D01*
X4434Y9103D01*
X4434Y9133D01*
X4432Y9162D01*
X4428Y9189D01*
X4422Y9215D01*
X4415Y9240D01*
X4406Y9263D01*
X4396Y9284D01*
X4383Y9304D01*
X4369Y9323D01*
X4354Y9340D01*
X4460Y9446D01*
X4477Y9431D01*
D02*
G37*
G36*
X26883Y9062D02*
X26870Y9047D01*
X26858Y9030D01*
X26848Y9010D01*
X26839Y8987D01*
X26832Y8963D01*
X26826Y8936D01*
X26821Y8906D01*
X26818Y8874D01*
X26816Y8803D01*
X26553Y9066D01*
X26590Y9066D01*
X26656Y9071D01*
X26686Y9076D01*
X26713Y9082D01*
X26737Y9089D01*
X26760Y9098D01*
X26780Y9108D01*
X26797Y9120D01*
X26812Y9133D01*
X26883Y9062D01*
D02*
G37*
G36*
X25235Y8743D02*
X25218Y8766D01*
X25201Y8785D01*
X25183Y8803D01*
X25165Y8818D01*
X25146Y8831D01*
X25128Y8841D01*
X25109Y8849D01*
X25089Y8855D01*
X25070Y8859D01*
X25050Y8860D01*
Y8940D01*
X25070Y8941D01*
X25089Y8945D01*
X25109Y8950D01*
X25128Y8959D01*
X25146Y8969D01*
X25165Y8982D01*
X25183Y8997D01*
X25201Y9015D01*
X25218Y9034D01*
X25235Y9057D01*
Y8743D01*
D02*
G37*
G36*
X4733Y8836D02*
X4703Y8832D01*
X4648Y8819D01*
X4622Y8811D01*
X4598Y8802D01*
X4576Y8791D01*
X4555Y8779D01*
X4535Y8766D01*
X4516Y8752D01*
X4500Y8736D01*
X4370Y8834D01*
X4387Y8852D01*
X4401Y8871D01*
X4413Y8891D01*
X4423Y8912D01*
X4431Y8934D01*
X4436Y8958D01*
X4440Y8982D01*
X4441Y9008D01*
X4440Y9034D01*
X4437Y9062D01*
X4733Y8836D01*
D02*
G37*
G36*
X32350Y8132D02*
X32250Y8011D01*
X32249Y8031D01*
X32247Y8050D01*
X32244Y8068D01*
X32239Y8086D01*
X32232Y8104D01*
X32225Y8121D01*
X32215Y8137D01*
X32205Y8152D01*
X32193Y8167D01*
X32179Y8182D01*
Y8323D01*
X32193Y8311D01*
X32205Y8302D01*
X32215Y8296D01*
X32225Y8294D01*
X32232Y8295D01*
X32239Y8300D01*
X32244Y8308D01*
X32247Y8319D01*
X32249Y8334D01*
X32250Y8353D01*
X32350Y8132D01*
D02*
G37*
G36*
X25447Y7584D02*
X25410Y7584D01*
X25344Y7579D01*
X25314Y7574D01*
X25287Y7568D01*
X25263Y7561D01*
X25240Y7552D01*
X25220Y7542D01*
X25203Y7530D01*
X25188Y7517D01*
X25117Y7588D01*
X25130Y7603D01*
X25142Y7620D01*
X25152Y7640D01*
X25161Y7663D01*
X25168Y7687D01*
X25174Y7714D01*
X25179Y7744D01*
X25182Y7776D01*
X25184Y7847D01*
X25447Y7584D01*
D02*
G37*
G36*
X26797Y7745D02*
X26792Y7714D01*
X26788Y7686D01*
X26788Y7659D01*
X26789Y7634D01*
X26794Y7611D01*
X26800Y7589D01*
X26810Y7570D01*
X26821Y7552D01*
X26835Y7535D01*
X26745Y7484D01*
X26733Y7495D01*
X26717Y7506D01*
X26699Y7516D01*
X26677Y7527D01*
X26625Y7549D01*
X26594Y7560D01*
X26482Y7593D01*
X26805Y7777D01*
X26797Y7745D01*
D02*
G37*
G36*
X10951Y7301D02*
X10955Y7280D01*
X10962Y7259D01*
X10972Y7237D01*
X10984Y7214D01*
X10999Y7191D01*
X11017Y7167D01*
X11037Y7142D01*
X11086Y7090D01*
X10714D01*
X10740Y7116D01*
X10783Y7167D01*
X10801Y7191D01*
X10816Y7214D01*
X10828Y7237D01*
X10838Y7259D01*
X10845Y7280D01*
X10849Y7301D01*
X10850Y7320D01*
X10950D01*
X10951Y7301D01*
D02*
G37*
G36*
X14541Y7254D02*
X14546Y7234D01*
X14553Y7214D01*
X14563Y7192D01*
X14577Y7169D01*
X14593Y7146D01*
X14612Y7121D01*
X14658Y7068D01*
X14686Y7040D01*
X14314D01*
X14342Y7068D01*
X14388Y7121D01*
X14407Y7146D01*
X14423Y7169D01*
X14437Y7192D01*
X14447Y7214D01*
X14454Y7234D01*
X14459Y7254D01*
X14460Y7272D01*
X14540D01*
X14541Y7254D01*
D02*
G37*
G36*
X13751Y7251D02*
X13755Y7230D01*
X13762Y7209D01*
X13772Y7187D01*
X13784Y7164D01*
X13799Y7141D01*
X13817Y7117D01*
X13837Y7092D01*
X13886Y7040D01*
X13514D01*
X13540Y7066D01*
X13583Y7117D01*
X13601Y7141D01*
X13616Y7164D01*
X13628Y7187D01*
X13638Y7209D01*
X13645Y7230D01*
X13649Y7251D01*
X13650Y7270D01*
X13750D01*
X13751Y7251D01*
D02*
G37*
G36*
X18701Y5951D02*
X18705Y5930D01*
X18712Y5909D01*
X18722Y5887D01*
X18734Y5864D01*
X18749Y5841D01*
X18767Y5817D01*
X18787Y5792D01*
X18836Y5740D01*
X18464D01*
X18490Y5766D01*
X18533Y5817D01*
X18551Y5841D01*
X18566Y5864D01*
X18578Y5887D01*
X18588Y5909D01*
X18595Y5930D01*
X18599Y5951D01*
X18600Y5970D01*
X18700D01*
X18701Y5951D01*
D02*
G37*
G36*
X18479Y5964D02*
X18478Y5960D01*
X18475Y5951D01*
X18470Y5939D01*
X18462Y5925D01*
X18452Y5909D01*
X18439Y5892D01*
X18401Y5848D01*
X18382Y5828D01*
X18376Y5824D01*
X18315Y5744D01*
X18276Y5650D01*
X18267Y5585D01*
X18217D01*
X18207Y5659D01*
X18165Y5761D01*
X18098Y5848D01*
X18011Y5915D01*
X17909Y5957D01*
X17800Y5972D01*
X17691Y5957D01*
X17589Y5915D01*
X17502Y5848D01*
X17435Y5761D01*
X17393Y5659D01*
X17378Y5550D01*
X17393Y5441D01*
X17435Y5339D01*
X17502Y5252D01*
X17589Y5185D01*
X17691Y5143D01*
X17800Y5128D01*
X17909Y5143D01*
X18011Y5185D01*
X18098Y5252D01*
X18165Y5339D01*
X18207Y5441D01*
X18217Y5515D01*
X18267D01*
X18276Y5450D01*
X18315Y5356D01*
X18376Y5276D01*
X18456Y5215D01*
X18550Y5176D01*
X18650Y5163D01*
X18750Y5176D01*
X18772Y5185D01*
X18800Y5143D01*
X18265Y4607D01*
X18212Y4625D01*
X18207Y4659D01*
X18165Y4761D01*
X18098Y4848D01*
X18011Y4915D01*
X17909Y4957D01*
X17800Y4972D01*
X17691Y4957D01*
X17589Y4915D01*
X17502Y4848D01*
X17435Y4761D01*
X17393Y4659D01*
X17378Y4550D01*
X17393Y4441D01*
X17435Y4339D01*
X17502Y4252D01*
X17589Y4185D01*
X17691Y4143D01*
X17800Y4128D01*
X17909Y4143D01*
X18011Y4185D01*
X18098Y4252D01*
X18129Y4291D01*
X18179Y4274D01*
Y3826D01*
X18129Y3809D01*
X18098Y3848D01*
X18011Y3915D01*
X17909Y3957D01*
X17800Y3972D01*
X17691Y3957D01*
X17589Y3915D01*
X17502Y3848D01*
X17435Y3761D01*
X17393Y3659D01*
X17378Y3550D01*
X17393Y3441D01*
X17435Y3339D01*
X17502Y3252D01*
X17589Y3185D01*
X17691Y3143D01*
X17800Y3128D01*
X17909Y3143D01*
X18011Y3185D01*
X18098Y3252D01*
X18129Y3291D01*
X18179Y3274D01*
Y2826D01*
X18129Y2809D01*
X18098Y2848D01*
X18011Y2915D01*
X17909Y2957D01*
X17800Y2972D01*
X17691Y2957D01*
X17589Y2915D01*
X17502Y2848D01*
X17435Y2761D01*
X17393Y2659D01*
X17378Y2550D01*
X17393Y2441D01*
X17435Y2339D01*
X17493Y2264D01*
X17475Y2214D01*
X15097D01*
X15081Y2261D01*
X15085Y2265D01*
X15149Y2348D01*
X15190Y2446D01*
X15197Y2500D01*
X14403D01*
X14410Y2446D01*
X14441Y2373D01*
X14398Y2344D01*
X14121Y2621D01*
Y4736D01*
X14122Y4740D01*
X14125Y4749D01*
X14130Y4761D01*
X14138Y4775D01*
X14148Y4791D01*
X14161Y4808D01*
X14199Y4852D01*
X14218Y4872D01*
X14224Y4876D01*
X14285Y4956D01*
X14324Y5050D01*
X14334Y5127D01*
X14382Y5132D01*
X14385Y5132D01*
X15218D01*
Y5968D01*
X14382D01*
Y5193D01*
X14332Y5190D01*
X14324Y5250D01*
X14285Y5344D01*
X14224Y5424D01*
X14144Y5485D01*
X14050Y5524D01*
X13950Y5537D01*
X13850Y5524D01*
X13756Y5485D01*
X13676Y5424D01*
X13615Y5344D01*
X13576Y5250D01*
X13563Y5150D01*
X13576Y5050D01*
X13615Y4956D01*
X13676Y4876D01*
X13681Y4872D01*
X13722Y4829D01*
X13738Y4810D01*
X13752Y4791D01*
X13762Y4775D01*
X13770Y4761D01*
X13775Y4749D01*
X13778Y4740D01*
X13779Y4736D01*
Y2550D01*
X13792Y2484D01*
X13829Y2429D01*
X14290Y1968D01*
X14271Y1921D01*
X14155D01*
X13906Y2171D01*
X13850Y2208D01*
X13784Y2221D01*
X11314D01*
X11310Y2222D01*
X11301Y2225D01*
X11289Y2230D01*
X11275Y2238D01*
X11259Y2248D01*
X11242Y2261D01*
X11198Y2299D01*
X11178Y2318D01*
X11174Y2324D01*
X11094Y2385D01*
X11000Y2424D01*
X10900Y2437D01*
X10800Y2424D01*
X10706Y2385D01*
X10626Y2324D01*
X10621Y2317D01*
X10577Y2342D01*
X10617Y2438D01*
X10632Y2550D01*
X10617Y2662D01*
X10574Y2766D01*
X10505Y2855D01*
X10416Y2924D01*
X10312Y2967D01*
X10269Y2973D01*
X10268Y2975D01*
X10254Y3025D01*
X11089Y3861D01*
X11132Y3925D01*
X11147Y4000D01*
Y4202D01*
X11148Y4209D01*
X11151Y4221D01*
X11155Y4233D01*
X11161Y4246D01*
X11168Y4260D01*
X11178Y4275D01*
X11190Y4291D01*
X11204Y4307D01*
X11218Y4322D01*
X11224Y4326D01*
X11285Y4406D01*
X11324Y4500D01*
X11337Y4600D01*
X11324Y4700D01*
X11285Y4794D01*
X11224Y4874D01*
X11144Y4935D01*
X11050Y4974D01*
X11033Y4976D01*
X11020Y5028D01*
X11021Y5029D01*
X11346Y5354D01*
X11389Y5325D01*
X11383Y5312D01*
X11368Y5200D01*
X11383Y5088D01*
X11426Y4984D01*
X11495Y4895D01*
X11584Y4826D01*
X11688Y4783D01*
X11800Y4768D01*
X11912Y4783D01*
X12016Y4826D01*
X12105Y4895D01*
X12174Y4984D01*
X12217Y5088D01*
X12232Y5200D01*
X12217Y5312D01*
X12174Y5416D01*
X12105Y5505D01*
X12016Y5574D01*
X11912Y5617D01*
X11800Y5632D01*
X11688Y5617D01*
X11675Y5611D01*
X11646Y5654D01*
X12071Y6079D01*
X12600D01*
X18479Y6079D01*
Y5964D01*
D02*
G37*
G36*
X10251Y5551D02*
X10255Y5530D01*
X10262Y5509D01*
X10272Y5487D01*
X10284Y5464D01*
X10299Y5441D01*
X10317Y5417D01*
X10337Y5392D01*
X10386Y5340D01*
X10014D01*
X10040Y5366D01*
X10083Y5417D01*
X10101Y5441D01*
X10116Y5464D01*
X10128Y5487D01*
X10138Y5509D01*
X10145Y5530D01*
X10149Y5551D01*
X10150Y5570D01*
X10250D01*
X10251Y5551D01*
D02*
G37*
G36*
X19447Y5284D02*
X19410Y5284D01*
X19344Y5279D01*
X19314Y5274D01*
X19287Y5268D01*
X19263Y5261D01*
X19240Y5252D01*
X19220Y5242D01*
X19203Y5230D01*
X19188Y5217D01*
X19117Y5288D01*
X19130Y5303D01*
X19142Y5320D01*
X19152Y5340D01*
X19161Y5363D01*
X19168Y5387D01*
X19174Y5414D01*
X19179Y5444D01*
X19182Y5476D01*
X19184Y5547D01*
X19447Y5284D01*
D02*
G37*
G36*
X22460Y5334D02*
X22417Y5283D01*
X22399Y5259D01*
X22384Y5236D01*
X22372Y5213D01*
X22362Y5191D01*
X22355Y5170D01*
X22351Y5149D01*
X22350Y5130D01*
X22250D01*
X22249Y5149D01*
X22245Y5170D01*
X22238Y5191D01*
X22228Y5213D01*
X22216Y5236D01*
X22201Y5259D01*
X22183Y5283D01*
X22163Y5308D01*
X22114Y5360D01*
X22486D01*
X22460Y5334D01*
D02*
G37*
G36*
X10416Y5310D02*
X10467Y5267D01*
X10491Y5249D01*
X10514Y5234D01*
X10537Y5222D01*
X10559Y5212D01*
X10580Y5205D01*
X10601Y5201D01*
X10620Y5200D01*
Y5100D01*
X10601Y5099D01*
X10580Y5095D01*
X10559Y5088D01*
X10537Y5078D01*
X10514Y5066D01*
X10491Y5051D01*
X10467Y5033D01*
X10442Y5013D01*
X10390Y4964D01*
Y5336D01*
X10416Y5310D01*
D02*
G37*
G36*
X14110Y4934D02*
X14067Y4883D01*
X14049Y4859D01*
X14034Y4836D01*
X14022Y4813D01*
X14012Y4791D01*
X14005Y4770D01*
X14001Y4749D01*
X14000Y4730D01*
X13900D01*
X13899Y4749D01*
X13895Y4770D01*
X13888Y4791D01*
X13878Y4813D01*
X13866Y4836D01*
X13851Y4859D01*
X13833Y4883D01*
X13813Y4908D01*
X13764Y4960D01*
X14136D01*
X14110Y4934D01*
D02*
G37*
G36*
X11115Y4388D02*
X11096Y4366D01*
X11079Y4344D01*
X11065Y4322D01*
X11053Y4300D01*
X11043Y4277D01*
X11035Y4254D01*
X11029Y4232D01*
X11026Y4209D01*
X11025Y4186D01*
X10875D01*
X10874Y4209D01*
X10871Y4232D01*
X10865Y4254D01*
X10857Y4277D01*
X10847Y4300D01*
X10835Y4322D01*
X10821Y4344D01*
X10804Y4366D01*
X10785Y4388D01*
X10764Y4410D01*
X11136D01*
X11115Y4388D01*
D02*
G37*
G36*
X9953Y4320D02*
X9970Y4308D01*
X9990Y4298D01*
X10013Y4289D01*
X10037Y4282D01*
X10064Y4276D01*
X10094Y4271D01*
X10126Y4268D01*
X10197Y4266D01*
X9934Y4003D01*
X9934Y4040D01*
X9929Y4106D01*
X9924Y4136D01*
X9918Y4163D01*
X9911Y4187D01*
X9902Y4210D01*
X9892Y4230D01*
X9880Y4247D01*
X9867Y4262D01*
X9938Y4333D01*
X9953Y4320D01*
D02*
G37*
G36*
X4532Y4133D02*
X4551Y4118D01*
X4571Y4106D01*
X4592Y4095D01*
X4615Y4086D01*
X4639Y4078D01*
X4664Y4073D01*
X4691Y4069D01*
X4718Y4066D01*
X4747Y4066D01*
X4484Y3803D01*
X4484Y3832D01*
X4481Y3859D01*
X4477Y3886D01*
X4472Y3911D01*
X4464Y3935D01*
X4455Y3958D01*
X4444Y3979D01*
X4432Y3999D01*
X4417Y4018D01*
X4401Y4035D01*
X4515Y4149D01*
X4532Y4133D01*
D02*
G37*
G36*
X3266Y3717D02*
X3268Y3688D01*
X3272Y3661D01*
X3278Y3635D01*
X3285Y3610D01*
X3294Y3587D01*
X3304Y3566D01*
X3317Y3546D01*
X3331Y3527D01*
X3346Y3510D01*
X3240Y3404D01*
X3223Y3419D01*
X3204Y3433D01*
X3184Y3446D01*
X3163Y3456D01*
X3140Y3465D01*
X3115Y3472D01*
X3089Y3478D01*
X3062Y3482D01*
X3033Y3484D01*
X3003Y3484D01*
X3266Y3747D01*
X3266Y3717D01*
D02*
G37*
G36*
X11116Y2210D02*
X11167Y2167D01*
X11191Y2149D01*
X11214Y2134D01*
X11237Y2122D01*
X11259Y2112D01*
X11280Y2105D01*
X11301Y2101D01*
X11320Y2100D01*
Y2000D01*
X11301Y1999D01*
X11280Y1995D01*
X11259Y1988D01*
X11237Y1978D01*
X11214Y1966D01*
X11191Y1951D01*
X11167Y1933D01*
X11142Y1913D01*
X11090Y1864D01*
Y2236D01*
X11116Y2210D01*
D02*
G37*
G36*
X32351Y1701D02*
X32355Y1680D01*
X32362Y1659D01*
X32372Y1637D01*
X32384Y1614D01*
X32399Y1591D01*
X32417Y1567D01*
X32437Y1542D01*
X32486Y1490D01*
X32114D01*
X32140Y1516D01*
X32183Y1567D01*
X32201Y1591D01*
X32216Y1614D01*
X32228Y1637D01*
X32238Y1659D01*
X32245Y1680D01*
X32249Y1701D01*
X32250Y1720D01*
X32350D01*
X32351Y1701D01*
D02*
G37*
G36*
X4216Y1310D02*
X4221Y1244D01*
X4226Y1214D01*
X4232Y1187D01*
X4239Y1163D01*
X4248Y1140D01*
X4258Y1120D01*
X4270Y1103D01*
X4283Y1088D01*
X4212Y1017D01*
X4197Y1030D01*
X4180Y1042D01*
X4160Y1052D01*
X4137Y1061D01*
X4113Y1068D01*
X4086Y1074D01*
X4056Y1079D01*
X4024Y1082D01*
X3953Y1084D01*
X4216Y1347D01*
X4216Y1310D01*
D02*
G37*
%LPC*%
G36*
X26000Y23772D02*
X25891Y23757D01*
X25789Y23715D01*
X25702Y23648D01*
X25635Y23561D01*
X25593Y23459D01*
X25578Y23350D01*
X25593Y23241D01*
X25635Y23139D01*
X25702Y23052D01*
X25789Y22985D01*
X25891Y22943D01*
X26000Y22928D01*
X26109Y22943D01*
X26211Y22985D01*
X26298Y23052D01*
X26365Y23139D01*
X26407Y23241D01*
X26422Y23350D01*
X26407Y23459D01*
X26365Y23561D01*
X26298Y23648D01*
X26211Y23715D01*
X26109Y23757D01*
X26000Y23772D01*
D02*
G37*
G36*
X29313Y23013D02*
X29050D01*
Y22750D01*
X29313D01*
Y23013D01*
D02*
G37*
G36*
X28950D02*
X28687D01*
Y22750D01*
X28950D01*
Y23013D01*
D02*
G37*
G36*
Y22650D02*
X28687D01*
Y22534D01*
X28637Y22501D01*
X28586Y22522D01*
X28500Y22534D01*
X28414Y22522D01*
X28333Y22489D01*
X28264Y22436D01*
X28211Y22367D01*
X28178Y22286D01*
X28166Y22200D01*
X28178Y22114D01*
X28211Y22033D01*
X28264Y21964D01*
X28333Y21911D01*
X28414Y21878D01*
X28500Y21866D01*
X28586Y21878D01*
X28667Y21911D01*
X28701Y21938D01*
X28738Y21903D01*
X28703Y21851D01*
X28674Y21769D01*
X28667Y21683D01*
X28683Y21597D01*
X28720Y21518D01*
X28777Y21452D01*
X28849Y21403D01*
X28931Y21374D01*
X29017Y21367D01*
X29103Y21383D01*
X29182Y21420D01*
X29248Y21477D01*
X29297Y21549D01*
X29326Y21631D01*
X29333Y21717D01*
X29317Y21803D01*
X29280Y21882D01*
X29223Y21948D01*
X29151Y21997D01*
X29069Y22026D01*
X28983Y22033D01*
X28897Y22017D01*
X28818Y21980D01*
X28797Y21961D01*
X28760Y21996D01*
X28789Y22033D01*
X28822Y22114D01*
X28834Y22200D01*
X28822Y22286D01*
X28801Y22337D01*
X28834Y22387D01*
X28950D01*
Y22650D01*
D02*
G37*
G36*
X27050Y22747D02*
Y22400D01*
X27397D01*
X27390Y22454D01*
X27349Y22552D01*
X27285Y22635D01*
X27202Y22699D01*
X27104Y22740D01*
X27050Y22747D01*
D02*
G37*
G36*
X26950D02*
X26896Y22740D01*
X26798Y22699D01*
X26715Y22635D01*
X26651Y22552D01*
X26610Y22454D01*
X26603Y22400D01*
X26950D01*
Y22747D01*
D02*
G37*
G36*
X29313Y22650D02*
X29050D01*
Y22387D01*
X29313D01*
Y22650D01*
D02*
G37*
G36*
X27397Y22300D02*
X27050D01*
Y21953D01*
X27104Y21960D01*
X27202Y22001D01*
X27285Y22065D01*
X27349Y22148D01*
X27390Y22246D01*
X27397Y22300D01*
D02*
G37*
G36*
X26950D02*
X26603D01*
X26610Y22246D01*
X26651Y22148D01*
X26715Y22065D01*
X26798Y22001D01*
X26896Y21960D01*
X26950Y21953D01*
Y22300D01*
D02*
G37*
G36*
X25000Y22772D02*
X24891Y22757D01*
X24789Y22715D01*
X24702Y22648D01*
X24635Y22561D01*
X24593Y22459D01*
X24578Y22350D01*
X24593Y22241D01*
X24635Y22139D01*
X24702Y22052D01*
X24789Y21985D01*
X24891Y21943D01*
X25000Y21928D01*
X25109Y21943D01*
X25211Y21985D01*
X25298Y22052D01*
X25365Y22139D01*
X25407Y22241D01*
X25422Y22350D01*
X25407Y22459D01*
X25365Y22561D01*
X25298Y22648D01*
X25211Y22715D01*
X25109Y22757D01*
X25000Y22772D01*
D02*
G37*
G36*
X22550Y21107D02*
Y20750D01*
X22907D01*
X22899Y20807D01*
X22858Y20907D01*
X22792Y20992D01*
X22707Y21058D01*
X22607Y21099D01*
X22550Y21107D01*
D02*
G37*
G36*
X22450D02*
X22393Y21099D01*
X22293Y21058D01*
X22208Y20992D01*
X22142Y20907D01*
X22101Y20807D01*
X22093Y20750D01*
X22450D01*
Y21107D01*
D02*
G37*
G36*
X22907Y20650D02*
X22550D01*
Y20293D01*
X22607Y20301D01*
X22707Y20342D01*
X22792Y20408D01*
X22858Y20493D01*
X22899Y20593D01*
X22907Y20650D01*
D02*
G37*
G36*
X22450D02*
X22093D01*
X22101Y20593D01*
X22142Y20493D01*
X22208Y20408D01*
X22293Y20342D01*
X22393Y20301D01*
X22450Y20293D01*
Y20650D01*
D02*
G37*
G36*
X19500Y21132D02*
X19388Y21117D01*
X19284Y21074D01*
X19195Y21005D01*
X19126Y20916D01*
X19083Y20812D01*
X19068Y20700D01*
X19083Y20588D01*
X19126Y20484D01*
X19195Y20395D01*
X19284Y20326D01*
X19388Y20283D01*
X19500Y20268D01*
X19612Y20283D01*
X19716Y20326D01*
X19805Y20395D01*
X19874Y20484D01*
X19917Y20588D01*
X19932Y20700D01*
X19917Y20812D01*
X19874Y20916D01*
X19805Y21005D01*
X19716Y21074D01*
X19612Y21117D01*
X19500Y21132D01*
D02*
G37*
G36*
X15650Y20457D02*
Y20100D01*
X16007D01*
X15999Y20157D01*
X15958Y20257D01*
X15892Y20342D01*
X15807Y20408D01*
X15707Y20449D01*
X15650Y20457D01*
D02*
G37*
G36*
X16850Y20407D02*
Y20050D01*
X17207D01*
X17199Y20107D01*
X17158Y20207D01*
X17092Y20292D01*
X17007Y20358D01*
X16907Y20399D01*
X16850Y20407D01*
D02*
G37*
G36*
X16750D02*
X16693Y20399D01*
X16593Y20358D01*
X16508Y20292D01*
X16442Y20207D01*
X16401Y20107D01*
X16393Y20050D01*
X16750D01*
Y20407D01*
D02*
G37*
G36*
X16007Y20000D02*
X15650D01*
Y19643D01*
X15707Y19651D01*
X15807Y19692D01*
X15892Y19758D01*
X15958Y19843D01*
X15999Y19943D01*
X16007Y20000D01*
D02*
G37*
G36*
X11900Y20482D02*
X11788Y20467D01*
X11684Y20424D01*
X11595Y20355D01*
X11526Y20266D01*
X11483Y20162D01*
X11468Y20050D01*
X11483Y19938D01*
X11526Y19834D01*
X11595Y19745D01*
X11684Y19676D01*
X11788Y19633D01*
X11900Y19618D01*
X12012Y19633D01*
X12116Y19676D01*
X12205Y19745D01*
X12274Y19834D01*
X12317Y19938D01*
X12332Y20050D01*
X12317Y20162D01*
X12274Y20266D01*
X12205Y20355D01*
X12116Y20424D01*
X12012Y20467D01*
X11900Y20482D01*
D02*
G37*
G36*
X17207Y19950D02*
X16850D01*
Y19593D01*
X16907Y19601D01*
X17007Y19642D01*
X17092Y19708D01*
X17158Y19793D01*
X17199Y19893D01*
X17207Y19950D01*
D02*
G37*
G36*
X16750D02*
X16393D01*
X16401Y19893D01*
X16442Y19793D01*
X16508Y19708D01*
X16593Y19642D01*
X16693Y19601D01*
X16750Y19593D01*
Y19950D01*
D02*
G37*
G36*
X22500Y20132D02*
X22388Y20117D01*
X22284Y20074D01*
X22195Y20005D01*
X22126Y19916D01*
X22083Y19812D01*
X22068Y19700D01*
X22083Y19588D01*
X22126Y19484D01*
X22195Y19395D01*
X22284Y19326D01*
X22388Y19283D01*
X22500Y19268D01*
X22612Y19283D01*
X22716Y19326D01*
X22805Y19395D01*
X22874Y19484D01*
X22917Y19588D01*
X22932Y19700D01*
X22917Y19812D01*
X22874Y19916D01*
X22805Y20005D01*
X22716Y20074D01*
X22612Y20117D01*
X22500Y20132D01*
D02*
G37*
G36*
X19500D02*
X19388Y20117D01*
X19284Y20074D01*
X19195Y20005D01*
X19126Y19916D01*
X19083Y19812D01*
X19068Y19700D01*
X19083Y19588D01*
X19126Y19484D01*
X19195Y19395D01*
X19284Y19326D01*
X19388Y19283D01*
X19500Y19268D01*
X19612Y19283D01*
X19716Y19326D01*
X19805Y19395D01*
X19874Y19484D01*
X19917Y19588D01*
X19932Y19700D01*
X19917Y19812D01*
X19874Y19916D01*
X19805Y20005D01*
X19716Y20074D01*
X19612Y20117D01*
X19500Y20132D01*
D02*
G37*
G36*
X10100D02*
X9988Y20117D01*
X9884Y20074D01*
X9795Y20005D01*
X9726Y19916D01*
X9683Y19812D01*
X9668Y19700D01*
X9683Y19588D01*
X9726Y19484D01*
X9795Y19395D01*
X9884Y19326D01*
X9988Y19283D01*
X10100Y19268D01*
X10212Y19283D01*
X10316Y19326D01*
X10405Y19395D01*
X10474Y19484D01*
X10517Y19588D01*
X10532Y19700D01*
X10517Y19812D01*
X10474Y19916D01*
X10405Y20005D01*
X10316Y20074D01*
X10212Y20117D01*
X10100Y20132D01*
D02*
G37*
G36*
X23600Y19782D02*
X23488Y19767D01*
X23384Y19724D01*
X23295Y19655D01*
X23226Y19566D01*
X23183Y19462D01*
X23168Y19350D01*
X23183Y19238D01*
X23226Y19134D01*
X23295Y19045D01*
X23384Y18976D01*
X23488Y18933D01*
X23600Y18918D01*
X23712Y18933D01*
X23816Y18976D01*
X23905Y19045D01*
X23974Y19134D01*
X24017Y19238D01*
X24032Y19350D01*
X24017Y19462D01*
X23974Y19566D01*
X23905Y19655D01*
X23816Y19724D01*
X23712Y19767D01*
X23600Y19782D01*
D02*
G37*
G36*
X22500Y19132D02*
X22388Y19117D01*
X22284Y19074D01*
X22195Y19005D01*
X22126Y18916D01*
X22083Y18812D01*
X22068Y18700D01*
X22083Y18588D01*
X22126Y18484D01*
X22195Y18395D01*
X22284Y18326D01*
X22388Y18283D01*
X22500Y18268D01*
X22612Y18283D01*
X22716Y18326D01*
X22805Y18395D01*
X22874Y18484D01*
X22917Y18588D01*
X22932Y18700D01*
X22917Y18812D01*
X22874Y18916D01*
X22805Y19005D01*
X22716Y19074D01*
X22612Y19117D01*
X22500Y19132D01*
D02*
G37*
G36*
X19500D02*
X19388Y19117D01*
X19284Y19074D01*
X19195Y19005D01*
X19126Y18916D01*
X19083Y18812D01*
X19068Y18700D01*
X19083Y18588D01*
X19126Y18484D01*
X19195Y18395D01*
X19284Y18326D01*
X19388Y18283D01*
X19500Y18268D01*
X19612Y18283D01*
X19716Y18326D01*
X19805Y18395D01*
X19874Y18484D01*
X19917Y18588D01*
X19932Y18700D01*
X19917Y18812D01*
X19874Y18916D01*
X19805Y19005D01*
X19716Y19074D01*
X19612Y19117D01*
X19500Y19132D01*
D02*
G37*
G36*
X27350Y18382D02*
X27238Y18367D01*
X27134Y18324D01*
X27045Y18255D01*
X26976Y18166D01*
X26933Y18062D01*
X26918Y17950D01*
X26933Y17838D01*
X26976Y17734D01*
X27045Y17645D01*
X27134Y17576D01*
X27238Y17533D01*
X27350Y17518D01*
X27462Y17533D01*
X27566Y17576D01*
X27655Y17645D01*
X27724Y17734D01*
X27767Y17838D01*
X27782Y17950D01*
X27767Y18062D01*
X27724Y18166D01*
X27655Y18255D01*
X27566Y18324D01*
X27462Y18367D01*
X27350Y18382D01*
D02*
G37*
G36*
X26668Y18228D02*
X25812D01*
Y17372D01*
X26668D01*
Y18228D01*
D02*
G37*
G36*
X25270Y18232D02*
X25158Y18217D01*
X25054Y18174D01*
X24965Y18105D01*
X24896Y18016D01*
X24853Y17912D01*
X24838Y17800D01*
X24853Y17688D01*
X24896Y17584D01*
X24965Y17495D01*
X25054Y17426D01*
X25158Y17383D01*
X25270Y17368D01*
X25382Y17383D01*
X25486Y17426D01*
X25575Y17495D01*
X25644Y17584D01*
X25687Y17688D01*
X25702Y17800D01*
X25687Y17912D01*
X25644Y18016D01*
X25575Y18105D01*
X25486Y18174D01*
X25382Y18217D01*
X25270Y18232D01*
D02*
G37*
G36*
X22500Y18132D02*
X22388Y18117D01*
X22284Y18074D01*
X22195Y18005D01*
X22126Y17916D01*
X22083Y17812D01*
X22068Y17700D01*
X22083Y17588D01*
X22126Y17484D01*
X22195Y17395D01*
X22284Y17326D01*
X22388Y17283D01*
X22500Y17268D01*
X22612Y17283D01*
X22716Y17326D01*
X22805Y17395D01*
X22874Y17484D01*
X22917Y17588D01*
X22932Y17700D01*
X22917Y17812D01*
X22874Y17916D01*
X22805Y18005D01*
X22716Y18074D01*
X22612Y18117D01*
X22500Y18132D01*
D02*
G37*
G36*
X19500D02*
X19388Y18117D01*
X19284Y18074D01*
X19195Y18005D01*
X19126Y17916D01*
X19083Y17812D01*
X19068Y17700D01*
X19083Y17588D01*
X19126Y17484D01*
X19195Y17395D01*
X19284Y17326D01*
X19388Y17283D01*
X19500Y17268D01*
X19612Y17283D01*
X19716Y17326D01*
X19805Y17395D01*
X19874Y17484D01*
X19917Y17588D01*
X19932Y17700D01*
X19917Y17812D01*
X19874Y17916D01*
X19805Y18005D01*
X19716Y18074D01*
X19612Y18117D01*
X19500Y18132D01*
D02*
G37*
G36*
X18150Y17457D02*
Y17100D01*
X18507D01*
X18499Y17157D01*
X18458Y17257D01*
X18392Y17342D01*
X18307Y17408D01*
X18207Y17449D01*
X18150Y17457D01*
D02*
G37*
G36*
X18050D02*
X17993Y17449D01*
X17893Y17408D01*
X17808Y17342D01*
X17742Y17257D01*
X17701Y17157D01*
X17693Y17100D01*
X18050D01*
Y17457D01*
D02*
G37*
G36*
X18507Y17000D02*
X18150D01*
Y16643D01*
X18207Y16651D01*
X18307Y16692D01*
X18392Y16758D01*
X18458Y16843D01*
X18499Y16943D01*
X18507Y17000D01*
D02*
G37*
G36*
X18050D02*
X17693D01*
X17701Y16943D01*
X17742Y16843D01*
X17808Y16758D01*
X17893Y16692D01*
X17993Y16651D01*
X18050Y16643D01*
Y17000D01*
D02*
G37*
G36*
X31350Y17182D02*
X31238Y17167D01*
X31134Y17124D01*
X31045Y17055D01*
X30976Y16966D01*
X30933Y16862D01*
X30918Y16750D01*
X30933Y16638D01*
X30976Y16534D01*
X31045Y16445D01*
X31134Y16376D01*
X31238Y16333D01*
X31350Y16318D01*
X31462Y16333D01*
X31566Y16376D01*
X31655Y16445D01*
X31724Y16534D01*
X31767Y16638D01*
X31782Y16750D01*
X31767Y16862D01*
X31724Y16966D01*
X31655Y17055D01*
X31566Y17124D01*
X31462Y17167D01*
X31350Y17182D01*
D02*
G37*
G36*
X27350D02*
X27238Y17167D01*
X27134Y17124D01*
X27045Y17055D01*
X26976Y16966D01*
X26933Y16862D01*
X26918Y16750D01*
X26933Y16638D01*
X26976Y16534D01*
X27045Y16445D01*
X27134Y16376D01*
X27238Y16333D01*
X27350Y16318D01*
X27462Y16333D01*
X27566Y16376D01*
X27655Y16445D01*
X27724Y16534D01*
X27767Y16638D01*
X27782Y16750D01*
X27767Y16862D01*
X27724Y16966D01*
X27655Y17055D01*
X27566Y17124D01*
X27462Y17167D01*
X27350Y17182D01*
D02*
G37*
G36*
X22500Y17132D02*
X22388Y17117D01*
X22284Y17074D01*
X22195Y17005D01*
X22126Y16916D01*
X22083Y16812D01*
X22068Y16700D01*
X22083Y16588D01*
X22126Y16484D01*
X22195Y16395D01*
X22284Y16326D01*
X22388Y16283D01*
X22500Y16268D01*
X22612Y16283D01*
X22716Y16326D01*
X22805Y16395D01*
X22874Y16484D01*
X22917Y16588D01*
X22932Y16700D01*
X22917Y16812D01*
X22874Y16916D01*
X22805Y17005D01*
X22716Y17074D01*
X22612Y17117D01*
X22500Y17132D01*
D02*
G37*
G36*
X19500D02*
X19388Y17117D01*
X19284Y17074D01*
X19195Y17005D01*
X19126Y16916D01*
X19083Y16812D01*
X19068Y16700D01*
X19083Y16588D01*
X19126Y16484D01*
X19195Y16395D01*
X19284Y16326D01*
X19388Y16283D01*
X19500Y16268D01*
X19612Y16283D01*
X19716Y16326D01*
X19805Y16395D01*
X19874Y16484D01*
X19917Y16588D01*
X19932Y16700D01*
X19917Y16812D01*
X19874Y16916D01*
X19805Y17005D01*
X19716Y17074D01*
X19612Y17117D01*
X19500Y17132D01*
D02*
G37*
G36*
X10950Y20387D02*
X10850Y20374D01*
X10756Y20335D01*
X10676Y20274D01*
X10615Y20194D01*
X10576Y20100D01*
X10563Y20000D01*
X10576Y19900D01*
X10615Y19806D01*
X10676Y19726D01*
X10682Y19722D01*
X10696Y19707D01*
X10710Y19691D01*
X10722Y19675D01*
X10732Y19660D01*
X10739Y19646D01*
X10745Y19633D01*
X10749Y19621D01*
X10752Y19609D01*
X10753Y19602D01*
Y18850D01*
X10768Y18775D01*
X10811Y18711D01*
X11053Y18468D01*
Y15500D01*
X11068Y15425D01*
X11111Y15361D01*
X14053Y12418D01*
Y12298D01*
X14052Y12291D01*
X14049Y12279D01*
X14045Y12267D01*
X14039Y12254D01*
X14032Y12240D01*
X14022Y12225D01*
X14010Y12209D01*
X13996Y12193D01*
X13982Y12178D01*
X13976Y12174D01*
X13915Y12094D01*
X13876Y12000D01*
X13863Y11900D01*
X13876Y11800D01*
X13915Y11706D01*
X13976Y11626D01*
X14056Y11565D01*
X14150Y11526D01*
X14250Y11513D01*
X14350Y11526D01*
X14444Y11565D01*
X14524Y11626D01*
X14585Y11706D01*
X14624Y11800D01*
X14637Y11900D01*
X14624Y12000D01*
X14585Y12094D01*
X14524Y12174D01*
X14518Y12178D01*
X14504Y12193D01*
X14490Y12209D01*
X14478Y12225D01*
X14468Y12240D01*
X14461Y12254D01*
X14455Y12267D01*
X14451Y12279D01*
X14448Y12291D01*
X14447Y12298D01*
Y12500D01*
X14432Y12575D01*
X14389Y12639D01*
X11447Y15582D01*
Y15895D01*
X11497Y15904D01*
X11526Y15834D01*
X11595Y15745D01*
X11684Y15676D01*
X11788Y15633D01*
X11900Y15618D01*
X12012Y15633D01*
X12116Y15676D01*
X12205Y15745D01*
X12274Y15834D01*
X12317Y15938D01*
X12332Y16050D01*
X12317Y16162D01*
X12274Y16266D01*
X12205Y16355D01*
X12116Y16424D01*
X12012Y16467D01*
X11900Y16482D01*
X11788Y16467D01*
X11684Y16424D01*
X11595Y16355D01*
X11526Y16266D01*
X11497Y16196D01*
X11447Y16205D01*
Y18550D01*
X11432Y18625D01*
X11389Y18689D01*
X11147Y18932D01*
Y19602D01*
X11148Y19609D01*
X11151Y19621D01*
X11155Y19633D01*
X11161Y19646D01*
X11168Y19660D01*
X11178Y19675D01*
X11190Y19691D01*
X11204Y19707D01*
X11218Y19722D01*
X11224Y19726D01*
X11285Y19806D01*
X11324Y19900D01*
X11337Y20000D01*
X11324Y20100D01*
X11285Y20194D01*
X11224Y20274D01*
X11144Y20335D01*
X11050Y20374D01*
X10950Y20387D01*
D02*
G37*
G36*
X16800Y16432D02*
X16688Y16417D01*
X16584Y16374D01*
X16495Y16305D01*
X16426Y16216D01*
X16383Y16112D01*
X16368Y16000D01*
X16383Y15888D01*
X16426Y15784D01*
X16495Y15695D01*
X16584Y15626D01*
X16688Y15583D01*
X16800Y15568D01*
X16912Y15583D01*
X17016Y15626D01*
X17105Y15695D01*
X17174Y15784D01*
X17217Y15888D01*
X17232Y16000D01*
X17217Y16112D01*
X17174Y16216D01*
X17105Y16305D01*
X17016Y16374D01*
X16912Y16417D01*
X16800Y16432D01*
D02*
G37*
G36*
X26668Y16178D02*
X25812D01*
Y15322D01*
X26668D01*
Y16178D01*
D02*
G37*
G36*
X25270Y16182D02*
X25158Y16167D01*
X25054Y16124D01*
X24965Y16055D01*
X24896Y15966D01*
X24853Y15862D01*
X24838Y15750D01*
X24853Y15638D01*
X24896Y15534D01*
X24965Y15445D01*
X25054Y15376D01*
X25158Y15333D01*
X25270Y15318D01*
X25382Y15333D01*
X25486Y15376D01*
X25575Y15445D01*
X25644Y15534D01*
X25687Y15638D01*
X25702Y15750D01*
X25687Y15862D01*
X25644Y15966D01*
X25575Y16055D01*
X25486Y16124D01*
X25382Y16167D01*
X25270Y16182D01*
D02*
G37*
G36*
X27000Y21237D02*
X26900Y21224D01*
X26806Y21185D01*
X26726Y21124D01*
X26665Y21044D01*
X26626Y20950D01*
X26613Y20850D01*
X26626Y20750D01*
X26665Y20656D01*
X26726Y20576D01*
X26732Y20572D01*
X26746Y20557D01*
X26760Y20541D01*
X26772Y20525D01*
X26782Y20510D01*
X26789Y20496D01*
X26795Y20483D01*
X26799Y20471D01*
X26802Y20459D01*
X26803Y20452D01*
Y19682D01*
X26368Y19247D01*
X24700D01*
X24625Y19232D01*
X24561Y19189D01*
X23461Y18089D01*
X23418Y18025D01*
X23403Y17950D01*
Y16098D01*
X23402Y16091D01*
X23399Y16079D01*
X23395Y16067D01*
X23389Y16054D01*
X23382Y16040D01*
X23372Y16025D01*
X23360Y16009D01*
X23346Y15993D01*
X23332Y15978D01*
X23326Y15974D01*
X23265Y15894D01*
X23226Y15800D01*
X23213Y15700D01*
X23226Y15600D01*
X23265Y15506D01*
X23326Y15426D01*
X23406Y15365D01*
X23500Y15326D01*
X23600Y15313D01*
X23700Y15326D01*
X23794Y15365D01*
X23874Y15426D01*
X23935Y15506D01*
X23974Y15600D01*
X23987Y15700D01*
X23974Y15800D01*
X23935Y15894D01*
X23874Y15974D01*
X23868Y15978D01*
X23854Y15993D01*
X23840Y16009D01*
X23828Y16025D01*
X23818Y16040D01*
X23811Y16054D01*
X23805Y16067D01*
X23801Y16079D01*
X23798Y16091D01*
X23797Y16098D01*
Y17868D01*
X24782Y18853D01*
X26450D01*
X26525Y18868D01*
X26589Y18911D01*
X27139Y19461D01*
X27182Y19525D01*
X27197Y19600D01*
Y20452D01*
X27198Y20459D01*
X27201Y20471D01*
X27205Y20483D01*
X27211Y20496D01*
X27218Y20510D01*
X27228Y20525D01*
X27240Y20541D01*
X27254Y20557D01*
X27268Y20572D01*
X27274Y20576D01*
X27335Y20656D01*
X27374Y20750D01*
X27387Y20850D01*
X27374Y20950D01*
X27335Y21044D01*
X27274Y21124D01*
X27194Y21185D01*
X27100Y21224D01*
X27000Y21237D01*
D02*
G37*
G36*
X22500Y16132D02*
X22388Y16117D01*
X22284Y16074D01*
X22195Y16005D01*
X22126Y15916D01*
X22083Y15812D01*
X22068Y15700D01*
X22083Y15588D01*
X22126Y15484D01*
X22195Y15395D01*
X22284Y15326D01*
X22388Y15283D01*
X22500Y15268D01*
X22612Y15283D01*
X22716Y15326D01*
X22805Y15395D01*
X22874Y15484D01*
X22917Y15588D01*
X22932Y15700D01*
X22917Y15812D01*
X22874Y15916D01*
X22805Y16005D01*
X22716Y16074D01*
X22612Y16117D01*
X22500Y16132D01*
D02*
G37*
G36*
X19500D02*
X19388Y16117D01*
X19284Y16074D01*
X19195Y16005D01*
X19126Y15916D01*
X19083Y15812D01*
X19068Y15700D01*
X19083Y15588D01*
X19126Y15484D01*
X19195Y15395D01*
X19284Y15326D01*
X19388Y15283D01*
X19500Y15268D01*
X19612Y15283D01*
X19716Y15326D01*
X19805Y15395D01*
X19874Y15484D01*
X19917Y15588D01*
X19932Y15700D01*
X19917Y15812D01*
X19874Y15916D01*
X19805Y16005D01*
X19716Y16074D01*
X19612Y16117D01*
X19500Y16132D01*
D02*
G37*
G36*
X31350Y15982D02*
X31238Y15967D01*
X31134Y15924D01*
X31045Y15855D01*
X30976Y15766D01*
X30933Y15662D01*
X30918Y15550D01*
X30933Y15438D01*
X30976Y15334D01*
X31045Y15245D01*
X31134Y15176D01*
X31238Y15133D01*
X31350Y15118D01*
X31462Y15133D01*
X31566Y15176D01*
X31655Y15245D01*
X31724Y15334D01*
X31767Y15438D01*
X31782Y15550D01*
X31767Y15662D01*
X31724Y15766D01*
X31655Y15855D01*
X31566Y15924D01*
X31462Y15967D01*
X31350Y15982D01*
D02*
G37*
G36*
X35899Y15093D02*
X35813Y15082D01*
X35733Y15049D01*
X35665Y14996D01*
X35612Y14928D01*
X35579Y14848D01*
X35568Y14762D01*
X35579Y14677D01*
X35612Y14597D01*
X35665Y14528D01*
X35733Y14476D01*
X35813Y14443D01*
X35899Y14431D01*
X35984Y14443D01*
X36064Y14476D01*
X36133Y14528D01*
X36185Y14597D01*
X36218Y14677D01*
X36230Y14762D01*
X36218Y14848D01*
X36185Y14928D01*
X36133Y14996D01*
X36064Y15049D01*
X35984Y15082D01*
X35899Y15093D01*
D02*
G37*
G36*
X22928Y15128D02*
X22072D01*
Y14272D01*
X22928D01*
Y15128D01*
D02*
G37*
G36*
X19500Y15132D02*
X19388Y15117D01*
X19284Y15074D01*
X19195Y15005D01*
X19126Y14916D01*
X19083Y14812D01*
X19068Y14700D01*
X19083Y14588D01*
X19126Y14484D01*
X19195Y14395D01*
X19284Y14326D01*
X19388Y14283D01*
X19500Y14268D01*
X19612Y14283D01*
X19716Y14326D01*
X19805Y14395D01*
X19874Y14484D01*
X19917Y14588D01*
X19932Y14700D01*
X19917Y14812D01*
X19874Y14916D01*
X19805Y15005D01*
X19716Y15074D01*
X19612Y15117D01*
X19500Y15132D01*
D02*
G37*
G36*
X30400Y14557D02*
Y14200D01*
X30757D01*
X30749Y14257D01*
X30708Y14357D01*
X30642Y14442D01*
X30557Y14508D01*
X30457Y14549D01*
X30400Y14557D01*
D02*
G37*
G36*
X30300D02*
X30243Y14549D01*
X30143Y14508D01*
X30058Y14442D01*
X29992Y14357D01*
X29951Y14257D01*
X29943Y14200D01*
X30300D01*
Y14557D01*
D02*
G37*
G36*
X30757Y14100D02*
X30400D01*
Y13743D01*
X30457Y13751D01*
X30557Y13792D01*
X30642Y13858D01*
X30708Y13943D01*
X30749Y14043D01*
X30757Y14100D01*
D02*
G37*
G36*
X30300D02*
X29943D01*
X29951Y14043D01*
X29992Y13943D01*
X30058Y13858D01*
X30143Y13792D01*
X30243Y13751D01*
X30300Y13743D01*
Y14100D01*
D02*
G37*
G36*
X32650Y14050D02*
X32338D01*
X32344Y14005D01*
X32381Y13916D01*
X32439Y13839D01*
X32516Y13781D01*
X32605Y13744D01*
X32650Y13738D01*
Y14050D01*
D02*
G37*
G36*
X28350Y14582D02*
X28238Y14567D01*
X28134Y14524D01*
X28045Y14455D01*
X27976Y14366D01*
X27933Y14262D01*
X27918Y14150D01*
X27933Y14038D01*
X27976Y13934D01*
X28045Y13845D01*
X28134Y13776D01*
X28238Y13733D01*
X28350Y13718D01*
X28462Y13733D01*
X28566Y13776D01*
X28655Y13845D01*
X28724Y13934D01*
X28767Y14038D01*
X28782Y14150D01*
X28767Y14262D01*
X28724Y14366D01*
X28655Y14455D01*
X28566Y14524D01*
X28462Y14567D01*
X28350Y14582D01*
D02*
G37*
G36*
X37450Y14038D02*
X37332Y14022D01*
X37222Y13977D01*
X37127Y13904D01*
X37055Y13809D01*
X37009Y13699D01*
X36993Y13581D01*
X37009Y13463D01*
X37055Y13353D01*
X37127Y13258D01*
X37222Y13186D01*
X37332Y13140D01*
X37450Y13124D01*
X37568Y13140D01*
X37678Y13186D01*
X37773Y13258D01*
X37845Y13353D01*
X37891Y13463D01*
X37907Y13581D01*
X37891Y13699D01*
X37845Y13809D01*
X37773Y13904D01*
X37678Y13977D01*
X37568Y14022D01*
X37450Y14038D01*
D02*
G37*
G36*
X36269D02*
X36151Y14022D01*
X36041Y13977D01*
X35946Y13904D01*
X35873Y13809D01*
X35828Y13699D01*
X35812Y13581D01*
X35828Y13463D01*
X35873Y13353D01*
X35946Y13258D01*
X36041Y13186D01*
X36151Y13140D01*
X36269Y13124D01*
X36387Y13140D01*
X36497Y13186D01*
X36592Y13258D01*
X36664Y13353D01*
X36710Y13463D01*
X36726Y13581D01*
X36710Y13699D01*
X36664Y13809D01*
X36592Y13904D01*
X36497Y13977D01*
X36387Y14022D01*
X36269Y14038D01*
D02*
G37*
G36*
X22307Y12950D02*
X21950D01*
Y12593D01*
X22007Y12601D01*
X22107Y12642D01*
X22192Y12708D01*
X22258Y12793D01*
X22299Y12893D01*
X22307Y12950D01*
D02*
G37*
G36*
X21850D02*
X21493D01*
X21501Y12893D01*
X21542Y12793D01*
X21608Y12708D01*
X21693Y12642D01*
X21793Y12601D01*
X21850Y12593D01*
Y12950D01*
D02*
G37*
G36*
X37500Y12832D02*
Y12450D01*
X37882D01*
X37873Y12513D01*
X37830Y12619D01*
X37760Y12710D01*
X37669Y12780D01*
X37563Y12823D01*
X37500Y12832D01*
D02*
G37*
G36*
X37400D02*
X37337Y12823D01*
X37231Y12780D01*
X37140Y12710D01*
X37070Y12619D01*
X37027Y12513D01*
X37018Y12450D01*
X37400D01*
Y12832D01*
D02*
G37*
G36*
X31300Y13232D02*
X31188Y13217D01*
X31084Y13174D01*
X30995Y13105D01*
X30926Y13016D01*
X30883Y12912D01*
X30868Y12800D01*
X30883Y12688D01*
X30926Y12584D01*
X30995Y12495D01*
X31084Y12426D01*
X31188Y12383D01*
X31300Y12368D01*
X31412Y12383D01*
X31516Y12426D01*
X31605Y12495D01*
X31674Y12584D01*
X31717Y12688D01*
X31732Y12800D01*
X31717Y12912D01*
X31674Y13016D01*
X31605Y13105D01*
X31516Y13174D01*
X31412Y13217D01*
X31300Y13232D01*
D02*
G37*
G36*
X36269Y12832D02*
X36157Y12817D01*
X36053Y12774D01*
X35964Y12705D01*
X35895Y12616D01*
X35852Y12512D01*
X35837Y12400D01*
X35852Y12288D01*
X35895Y12184D01*
X35964Y12095D01*
X36053Y12026D01*
X36157Y11983D01*
X36269Y11968D01*
X36381Y11983D01*
X36485Y12026D01*
X36574Y12095D01*
X36643Y12184D01*
X36686Y12288D01*
X36701Y12400D01*
X36686Y12512D01*
X36643Y12616D01*
X36574Y12705D01*
X36485Y12774D01*
X36381Y12817D01*
X36269Y12832D01*
D02*
G37*
G36*
X37882Y12350D02*
X37500D01*
Y11968D01*
X37563Y11977D01*
X37669Y12020D01*
X37760Y12090D01*
X37830Y12181D01*
X37873Y12287D01*
X37882Y12350D01*
D02*
G37*
G36*
X37400D02*
X37018D01*
X37027Y12287D01*
X37070Y12181D01*
X37140Y12090D01*
X37231Y12020D01*
X37337Y11977D01*
X37400Y11968D01*
Y12350D01*
D02*
G37*
G36*
X13000Y12332D02*
X12888Y12317D01*
X12784Y12274D01*
X12695Y12205D01*
X12626Y12116D01*
X12583Y12012D01*
X12568Y11900D01*
X12583Y11788D01*
X12626Y11684D01*
X12695Y11595D01*
X12784Y11526D01*
X12888Y11483D01*
X13000Y11468D01*
X13112Y11483D01*
X13216Y11526D01*
X13305Y11595D01*
X13374Y11684D01*
X13417Y11788D01*
X13432Y11900D01*
X13417Y12012D01*
X13374Y12116D01*
X13305Y12205D01*
X13216Y12274D01*
X13112Y12317D01*
X13000Y12332D01*
D02*
G37*
G36*
X15700Y12282D02*
X15588Y12267D01*
X15484Y12224D01*
X15395Y12155D01*
X15326Y12066D01*
X15283Y11962D01*
X15268Y11850D01*
X15283Y11738D01*
X15326Y11634D01*
X15395Y11545D01*
X15484Y11476D01*
X15588Y11433D01*
X15700Y11418D01*
X15812Y11433D01*
X15916Y11476D01*
X16005Y11545D01*
X16074Y11634D01*
X16117Y11738D01*
X16132Y11850D01*
X16117Y11962D01*
X16074Y12066D01*
X16005Y12155D01*
X15916Y12224D01*
X15812Y12267D01*
X15700Y12282D01*
D02*
G37*
G36*
X31300Y11932D02*
X31188Y11917D01*
X31084Y11874D01*
X30995Y11805D01*
X30926Y11716D01*
X30883Y11612D01*
X30868Y11500D01*
X30883Y11388D01*
X30926Y11284D01*
X30995Y11195D01*
X31084Y11126D01*
X31188Y11083D01*
X31300Y11068D01*
X31412Y11083D01*
X31516Y11126D01*
X31605Y11195D01*
X31674Y11284D01*
X31717Y11388D01*
X31732Y11500D01*
X31717Y11612D01*
X31674Y11716D01*
X31605Y11805D01*
X31516Y11874D01*
X31412Y11917D01*
X31300Y11932D01*
D02*
G37*
G36*
X23600D02*
X23488Y11917D01*
X23384Y11874D01*
X23295Y11805D01*
X23226Y11716D01*
X23183Y11612D01*
X23168Y11500D01*
X23183Y11388D01*
X23226Y11284D01*
X23295Y11195D01*
X23384Y11126D01*
X23488Y11083D01*
X23600Y11068D01*
X23712Y11083D01*
X23816Y11126D01*
X23905Y11195D01*
X23974Y11284D01*
X24017Y11388D01*
X24032Y11500D01*
X24017Y11612D01*
X23974Y11716D01*
X23905Y11805D01*
X23816Y11874D01*
X23712Y11917D01*
X23600Y11932D01*
D02*
G37*
G36*
X22600D02*
X22488Y11917D01*
X22384Y11874D01*
X22295Y11805D01*
X22226Y11716D01*
X22183Y11612D01*
X22168Y11500D01*
X22183Y11388D01*
X22226Y11284D01*
X22295Y11195D01*
X22384Y11126D01*
X22488Y11083D01*
X22600Y11068D01*
X22712Y11083D01*
X22816Y11126D01*
X22905Y11195D01*
X22974Y11284D01*
X23017Y11388D01*
X23032Y11500D01*
X23017Y11612D01*
X22974Y11716D01*
X22905Y11805D01*
X22816Y11874D01*
X22712Y11917D01*
X22600Y11932D01*
D02*
G37*
G36*
X21600D02*
X21488Y11917D01*
X21384Y11874D01*
X21295Y11805D01*
X21226Y11716D01*
X21183Y11612D01*
X21168Y11500D01*
X21183Y11388D01*
X21226Y11284D01*
X21295Y11195D01*
X21384Y11126D01*
X21488Y11083D01*
X21600Y11068D01*
X21712Y11083D01*
X21816Y11126D01*
X21905Y11195D01*
X21974Y11284D01*
X22017Y11388D01*
X22032Y11500D01*
X22017Y11612D01*
X21974Y11716D01*
X21905Y11805D01*
X21816Y11874D01*
X21712Y11917D01*
X21600Y11932D01*
D02*
G37*
G36*
X20600D02*
X20488Y11917D01*
X20384Y11874D01*
X20295Y11805D01*
X20226Y11716D01*
X20183Y11612D01*
X20168Y11500D01*
X20183Y11388D01*
X20226Y11284D01*
X20295Y11195D01*
X20384Y11126D01*
X20488Y11083D01*
X20600Y11068D01*
X20712Y11083D01*
X20816Y11126D01*
X20905Y11195D01*
X20974Y11284D01*
X21017Y11388D01*
X21032Y11500D01*
X21017Y11612D01*
X20974Y11716D01*
X20905Y11805D01*
X20816Y11874D01*
X20712Y11917D01*
X20600Y11932D01*
D02*
G37*
G36*
X19600D02*
X19488Y11917D01*
X19384Y11874D01*
X19295Y11805D01*
X19226Y11716D01*
X19183Y11612D01*
X19168Y11500D01*
X19183Y11388D01*
X19226Y11284D01*
X19295Y11195D01*
X19384Y11126D01*
X19488Y11083D01*
X19600Y11068D01*
X19712Y11083D01*
X19816Y11126D01*
X19905Y11195D01*
X19974Y11284D01*
X20017Y11388D01*
X20032Y11500D01*
X20017Y11612D01*
X19974Y11716D01*
X19905Y11805D01*
X19816Y11874D01*
X19712Y11917D01*
X19600Y11932D01*
D02*
G37*
G36*
X18600D02*
X18488Y11917D01*
X18384Y11874D01*
X18295Y11805D01*
X18226Y11716D01*
X18183Y11612D01*
X18168Y11500D01*
X18183Y11388D01*
X18226Y11284D01*
X18295Y11195D01*
X18384Y11126D01*
X18488Y11083D01*
X18600Y11068D01*
X18712Y11083D01*
X18816Y11126D01*
X18905Y11195D01*
X18974Y11284D01*
X19017Y11388D01*
X19032Y11500D01*
X19017Y11612D01*
X18974Y11716D01*
X18905Y11805D01*
X18816Y11874D01*
X18712Y11917D01*
X18600Y11932D01*
D02*
G37*
G36*
X17600D02*
X17488Y11917D01*
X17384Y11874D01*
X17295Y11805D01*
X17226Y11716D01*
X17183Y11612D01*
X17168Y11500D01*
X17183Y11388D01*
X17226Y11284D01*
X17295Y11195D01*
X17384Y11126D01*
X17488Y11083D01*
X17600Y11068D01*
X17712Y11083D01*
X17816Y11126D01*
X17905Y11195D01*
X17974Y11284D01*
X18017Y11388D01*
X18032Y11500D01*
X18017Y11612D01*
X17974Y11716D01*
X17905Y11805D01*
X17816Y11874D01*
X17712Y11917D01*
X17600Y11932D01*
D02*
G37*
G36*
X35899Y11550D02*
X35813Y11539D01*
X35733Y11506D01*
X35665Y11453D01*
X35612Y11384D01*
X35579Y11305D01*
X35568Y11219D01*
X35579Y11133D01*
X35612Y11053D01*
X35665Y10985D01*
X35733Y10932D01*
X35813Y10899D01*
X35899Y10888D01*
X35984Y10899D01*
X36064Y10932D01*
X36133Y10985D01*
X36185Y11053D01*
X36218Y11133D01*
X36230Y11219D01*
X36218Y11305D01*
X36185Y11384D01*
X36133Y11453D01*
X36064Y11506D01*
X35984Y11539D01*
X35899Y11550D01*
D02*
G37*
G36*
X31300Y10732D02*
X31188Y10717D01*
X31084Y10674D01*
X30995Y10605D01*
X30926Y10516D01*
X30883Y10412D01*
X30868Y10300D01*
X30883Y10188D01*
X30926Y10084D01*
X30995Y9995D01*
X31084Y9926D01*
X31188Y9883D01*
X31300Y9868D01*
X31412Y9883D01*
X31516Y9926D01*
X31605Y9995D01*
X31674Y10084D01*
X31717Y10188D01*
X31732Y10300D01*
X31717Y10412D01*
X31674Y10516D01*
X31605Y10605D01*
X31516Y10674D01*
X31412Y10717D01*
X31300Y10732D01*
D02*
G37*
G36*
X30800Y8332D02*
X30688Y8317D01*
X30584Y8274D01*
X30495Y8205D01*
X30426Y8116D01*
X30383Y8012D01*
X30368Y7900D01*
X30383Y7788D01*
X30426Y7684D01*
X30495Y7595D01*
X30584Y7526D01*
X30688Y7483D01*
X30800Y7468D01*
X30912Y7483D01*
X31016Y7526D01*
X31105Y7595D01*
X31174Y7684D01*
X31217Y7788D01*
X31232Y7900D01*
X31217Y8012D01*
X31174Y8116D01*
X31105Y8205D01*
X31016Y8274D01*
X30912Y8317D01*
X30800Y8332D01*
D02*
G37*
G36*
X27800D02*
X27688Y8317D01*
X27584Y8274D01*
X27495Y8205D01*
X27426Y8116D01*
X27383Y8012D01*
X27368Y7900D01*
X27383Y7788D01*
X27426Y7684D01*
X27495Y7595D01*
X27584Y7526D01*
X27688Y7483D01*
X27800Y7468D01*
X27912Y7483D01*
X28016Y7526D01*
X28105Y7595D01*
X28174Y7684D01*
X28217Y7788D01*
X28232Y7900D01*
X28217Y8012D01*
X28174Y8116D01*
X28105Y8205D01*
X28016Y8274D01*
X27912Y8317D01*
X27800Y8332D01*
D02*
G37*
G36*
X15400Y7257D02*
Y6900D01*
X15757D01*
X15749Y6957D01*
X15708Y7057D01*
X15642Y7142D01*
X15557Y7208D01*
X15457Y7249D01*
X15400Y7257D01*
D02*
G37*
G36*
X15300D02*
X15243Y7249D01*
X15143Y7208D01*
X15058Y7142D01*
X14992Y7057D01*
X14951Y6957D01*
X14943Y6900D01*
X15300D01*
Y7257D01*
D02*
G37*
G36*
X14862Y6800D02*
X14550D01*
Y6488D01*
X14595Y6494D01*
X14684Y6531D01*
X14761Y6589D01*
X14819Y6666D01*
X14856Y6755D01*
X14862Y6800D01*
D02*
G37*
G36*
X30800Y7332D02*
X30688Y7317D01*
X30584Y7274D01*
X30495Y7205D01*
X30426Y7116D01*
X30383Y7012D01*
X30368Y6900D01*
X30383Y6788D01*
X30426Y6684D01*
X30495Y6595D01*
X30584Y6526D01*
X30688Y6483D01*
X30800Y6468D01*
X30912Y6483D01*
X31016Y6526D01*
X31105Y6595D01*
X31174Y6684D01*
X31217Y6788D01*
X31232Y6900D01*
X31217Y7012D01*
X31174Y7116D01*
X31105Y7205D01*
X31016Y7274D01*
X30912Y7317D01*
X30800Y7332D01*
D02*
G37*
G36*
X21697Y6750D02*
X21350D01*
Y6403D01*
X21404Y6410D01*
X21502Y6451D01*
X21585Y6515D01*
X21649Y6598D01*
X21690Y6696D01*
X21697Y6750D01*
D02*
G37*
G36*
X24507D02*
X24150D01*
Y6393D01*
X24207Y6401D01*
X24307Y6442D01*
X24392Y6508D01*
X24458Y6593D01*
X24499Y6693D01*
X24507Y6750D01*
D02*
G37*
G36*
X24050D02*
X23693D01*
X23701Y6693D01*
X23742Y6593D01*
X23808Y6508D01*
X23893Y6442D01*
X23993Y6401D01*
X24050Y6393D01*
Y6750D01*
D02*
G37*
G36*
X26100Y7232D02*
X25988Y7217D01*
X25884Y7174D01*
X25795Y7105D01*
X25726Y7016D01*
X25683Y6912D01*
X25668Y6800D01*
X25683Y6688D01*
X25726Y6584D01*
X25795Y6495D01*
X25884Y6426D01*
X25988Y6383D01*
X26100Y6368D01*
X26212Y6383D01*
X26316Y6426D01*
X26405Y6495D01*
X26474Y6584D01*
X26517Y6688D01*
X26532Y6800D01*
X26517Y6912D01*
X26474Y7016D01*
X26405Y7105D01*
X26316Y7174D01*
X26212Y7217D01*
X26100Y7232D01*
D02*
G37*
G36*
X30800Y6332D02*
X30688Y6317D01*
X30584Y6274D01*
X30495Y6205D01*
X30426Y6116D01*
X30383Y6012D01*
X30368Y5900D01*
X30383Y5788D01*
X30426Y5684D01*
X30495Y5595D01*
X30584Y5526D01*
X30688Y5483D01*
X30800Y5468D01*
X30912Y5483D01*
X31016Y5526D01*
X31105Y5595D01*
X31174Y5684D01*
X31217Y5788D01*
X31232Y5900D01*
X31217Y6012D01*
X31174Y6116D01*
X31105Y6205D01*
X31016Y6274D01*
X30912Y6317D01*
X30800Y6332D01*
D02*
G37*
G36*
X24018Y5968D02*
X23182D01*
Y5132D01*
X24018D01*
Y5968D01*
D02*
G37*
G36*
X21300Y5617D02*
X21192Y5603D01*
X21092Y5561D01*
X21005Y5495D01*
X20939Y5408D01*
X20897Y5308D01*
X20883Y5200D01*
X20897Y5092D01*
X20939Y4992D01*
X21005Y4905D01*
X21092Y4839D01*
X21192Y4797D01*
X21300Y4783D01*
X21408Y4797D01*
X21508Y4839D01*
X21595Y4905D01*
X21661Y4992D01*
X21703Y5092D01*
X21717Y5200D01*
X21703Y5308D01*
X21661Y5408D01*
X21595Y5495D01*
X21508Y5561D01*
X21408Y5603D01*
X21300Y5617D01*
D02*
G37*
G36*
X30800Y5332D02*
X30688Y5317D01*
X30584Y5274D01*
X30495Y5205D01*
X30426Y5116D01*
X30383Y5012D01*
X30368Y4900D01*
X30383Y4788D01*
X30426Y4684D01*
X30495Y4595D01*
X30584Y4526D01*
X30688Y4483D01*
X30800Y4468D01*
X30912Y4483D01*
X31016Y4526D01*
X31105Y4595D01*
X31174Y4684D01*
X31217Y4788D01*
X31232Y4900D01*
X31217Y5012D01*
X31174Y5116D01*
X31105Y5205D01*
X31016Y5274D01*
X30912Y5317D01*
X30800Y5332D01*
D02*
G37*
G36*
X23600Y4972D02*
X23491Y4957D01*
X23389Y4915D01*
X23302Y4848D01*
X23235Y4761D01*
X23193Y4659D01*
X23178Y4550D01*
X23193Y4441D01*
X23235Y4339D01*
X23302Y4252D01*
X23389Y4185D01*
X23491Y4143D01*
X23600Y4128D01*
X23709Y4143D01*
X23811Y4185D01*
X23898Y4252D01*
X23965Y4339D01*
X24007Y4441D01*
X24022Y4550D01*
X24007Y4659D01*
X23965Y4761D01*
X23898Y4848D01*
X23811Y4915D01*
X23709Y4957D01*
X23600Y4972D01*
D02*
G37*
G36*
X30800Y4332D02*
X30688Y4317D01*
X30584Y4274D01*
X30495Y4205D01*
X30426Y4116D01*
X30383Y4012D01*
X30368Y3900D01*
X30383Y3788D01*
X30426Y3684D01*
X30495Y3595D01*
X30584Y3526D01*
X30688Y3483D01*
X30800Y3468D01*
X30912Y3483D01*
X31016Y3526D01*
X31105Y3595D01*
X31174Y3684D01*
X31217Y3788D01*
X31232Y3900D01*
X31217Y4012D01*
X31174Y4116D01*
X31105Y4205D01*
X31016Y4274D01*
X30912Y4317D01*
X30800Y4332D01*
D02*
G37*
G36*
X23600Y3972D02*
X23491Y3957D01*
X23389Y3915D01*
X23302Y3848D01*
X23235Y3761D01*
X23193Y3659D01*
X23178Y3550D01*
X23193Y3441D01*
X23235Y3339D01*
X23302Y3252D01*
X23389Y3185D01*
X23491Y3143D01*
X23600Y3128D01*
X23709Y3143D01*
X23811Y3185D01*
X23898Y3252D01*
X23965Y3339D01*
X24007Y3441D01*
X24022Y3550D01*
X24007Y3659D01*
X23965Y3761D01*
X23898Y3848D01*
X23811Y3915D01*
X23709Y3957D01*
X23600Y3972D01*
D02*
G37*
G36*
X27850Y3307D02*
Y2950D01*
X28207D01*
X28199Y3007D01*
X28158Y3107D01*
X28092Y3192D01*
X28007Y3258D01*
X27907Y3299D01*
X27850Y3307D01*
D02*
G37*
G36*
X23650Y2947D02*
Y2600D01*
X23997D01*
X23990Y2654D01*
X23949Y2752D01*
X23885Y2835D01*
X23802Y2899D01*
X23704Y2940D01*
X23650Y2947D01*
D02*
G37*
G36*
X23550D02*
X23496Y2940D01*
X23398Y2899D01*
X23315Y2835D01*
X23251Y2752D01*
X23210Y2654D01*
X23203Y2600D01*
X23550D01*
Y2947D01*
D02*
G37*
G36*
X28207Y2850D02*
X27850D01*
Y2493D01*
X27907Y2501D01*
X28007Y2542D01*
X28092Y2608D01*
X28158Y2693D01*
X28199Y2793D01*
X28207Y2850D01*
D02*
G37*
G36*
X30800Y3332D02*
X30688Y3317D01*
X30584Y3274D01*
X30495Y3205D01*
X30426Y3116D01*
X30383Y3012D01*
X30368Y2900D01*
X30383Y2788D01*
X30426Y2684D01*
X30495Y2595D01*
X30584Y2526D01*
X30688Y2483D01*
X30800Y2468D01*
X30912Y2483D01*
X31016Y2526D01*
X31105Y2595D01*
X31174Y2684D01*
X31217Y2788D01*
X31232Y2900D01*
X31217Y3012D01*
X31174Y3116D01*
X31105Y3205D01*
X31016Y3274D01*
X30912Y3317D01*
X30800Y3332D01*
D02*
G37*
G36*
X21950Y3182D02*
X21838Y3167D01*
X21734Y3124D01*
X21645Y3055D01*
X21576Y2966D01*
X21533Y2862D01*
X21518Y2750D01*
X21533Y2638D01*
X21576Y2534D01*
X21645Y2445D01*
X21734Y2376D01*
X21838Y2333D01*
X21950Y2318D01*
X22062Y2333D01*
X22166Y2376D01*
X22255Y2445D01*
X22324Y2534D01*
X22367Y2638D01*
X22382Y2750D01*
X22367Y2862D01*
X22324Y2966D01*
X22255Y3055D01*
X22166Y3124D01*
X22062Y3167D01*
X21950Y3182D01*
D02*
G37*
G36*
X37452Y3052D02*
Y2018D01*
X38485D01*
X38476Y2139D01*
X38436Y2305D01*
X38371Y2462D01*
X38281Y2608D01*
X38171Y2738D01*
X38041Y2848D01*
X37895Y2938D01*
X37738Y3003D01*
X37572Y3043D01*
X37452Y3052D01*
D02*
G37*
G36*
X37352D02*
X37231Y3043D01*
X37065Y3003D01*
X36908Y2938D01*
X36762Y2848D01*
X36633Y2738D01*
X36522Y2608D01*
X36433Y2462D01*
X36367Y2305D01*
X36327Y2139D01*
X36318Y2018D01*
X37352D01*
Y3052D01*
D02*
G37*
G36*
X22000Y2157D02*
Y1800D01*
X22357D01*
X22349Y1857D01*
X22308Y1957D01*
X22242Y2042D01*
X22157Y2108D01*
X22057Y2149D01*
X22000Y2157D01*
D02*
G37*
G36*
X19650D02*
Y1800D01*
X20007D01*
X19999Y1857D01*
X19958Y1957D01*
X19892Y2042D01*
X19807Y2108D01*
X19707Y2149D01*
X19650Y2157D01*
D02*
G37*
G36*
X21900D02*
X21843Y2149D01*
X21743Y2108D01*
X21658Y2042D01*
X21592Y1957D01*
X21551Y1857D01*
X21543Y1800D01*
X21900D01*
Y2157D01*
D02*
G37*
G36*
X19550D02*
X19493Y2149D01*
X19393Y2108D01*
X19308Y2042D01*
X19242Y1957D01*
X19201Y1857D01*
X19193Y1800D01*
X19550D01*
Y2157D01*
D02*
G37*
G36*
X28350Y1707D02*
Y1350D01*
X28707D01*
X28699Y1407D01*
X28658Y1507D01*
X28592Y1592D01*
X28507Y1658D01*
X28407Y1699D01*
X28350Y1707D01*
D02*
G37*
G36*
X28250D02*
X28193Y1699D01*
X28093Y1658D01*
X28008Y1592D01*
X27942Y1507D01*
X27901Y1407D01*
X27893Y1350D01*
X28250D01*
Y1707D01*
D02*
G37*
G36*
X22357Y1700D02*
X22000D01*
Y1343D01*
X22057Y1351D01*
X22157Y1392D01*
X22242Y1458D01*
X22308Y1543D01*
X22349Y1643D01*
X22357Y1700D01*
D02*
G37*
G36*
X20007D02*
X19650D01*
Y1343D01*
X19707Y1351D01*
X19807Y1392D01*
X19892Y1458D01*
X19958Y1543D01*
X19999Y1643D01*
X20007Y1700D01*
D02*
G37*
G36*
X21900D02*
X21543D01*
X21551Y1643D01*
X21592Y1543D01*
X21658Y1458D01*
X21743Y1392D01*
X21843Y1351D01*
X21900Y1343D01*
Y1700D01*
D02*
G37*
G36*
X19550D02*
X19193D01*
X19201Y1643D01*
X19242Y1543D01*
X19308Y1458D01*
X19393Y1392D01*
X19493Y1351D01*
X19550Y1343D01*
Y1700D01*
D02*
G37*
G36*
X24150Y1607D02*
Y1250D01*
X24507D01*
X24499Y1307D01*
X24458Y1407D01*
X24392Y1492D01*
X24307Y1558D01*
X24207Y1599D01*
X24150Y1607D01*
D02*
G37*
G36*
X24050D02*
X23993Y1599D01*
X23893Y1558D01*
X23808Y1492D01*
X23742Y1407D01*
X23701Y1307D01*
X23693Y1250D01*
X24050D01*
Y1607D01*
D02*
G37*
G36*
X28707Y1250D02*
X28350D01*
Y893D01*
X28407Y901D01*
X28507Y942D01*
X28592Y1008D01*
X28658Y1093D01*
X28699Y1193D01*
X28707Y1250D01*
D02*
G37*
G36*
X28250D02*
X27893D01*
X27901Y1193D01*
X27942Y1093D01*
X28008Y1008D01*
X28093Y942D01*
X28193Y901D01*
X28250Y893D01*
Y1250D01*
D02*
G37*
G36*
X38485Y1919D02*
X37452D01*
Y885D01*
X37572Y894D01*
X37738Y934D01*
X37895Y999D01*
X38041Y1089D01*
X38171Y1199D01*
X38281Y1329D01*
X38371Y1475D01*
X38436Y1632D01*
X38476Y1798D01*
X38485Y1919D01*
D02*
G37*
G36*
X37352D02*
X36318D01*
X36327Y1798D01*
X36367Y1632D01*
X36433Y1475D01*
X36522Y1329D01*
X36633Y1199D01*
X36762Y1089D01*
X36908Y999D01*
X37065Y934D01*
X37231Y894D01*
X37352Y885D01*
Y1919D01*
D02*
G37*
G36*
X30300Y1732D02*
X30188Y1717D01*
X30084Y1674D01*
X29995Y1605D01*
X29926Y1516D01*
X29883Y1412D01*
X29868Y1300D01*
X29883Y1188D01*
X29926Y1084D01*
X29995Y995D01*
X30084Y926D01*
X30188Y883D01*
X30300Y868D01*
X30412Y883D01*
X30516Y926D01*
X30605Y995D01*
X30674Y1084D01*
X30717Y1188D01*
X30732Y1300D01*
X30717Y1412D01*
X30674Y1516D01*
X30605Y1605D01*
X30516Y1674D01*
X30412Y1717D01*
X30300Y1732D01*
D02*
G37*
G36*
X24507Y1150D02*
X24150D01*
Y793D01*
X24207Y801D01*
X24307Y842D01*
X24392Y908D01*
X24458Y993D01*
X24499Y1093D01*
X24507Y1150D01*
D02*
G37*
G36*
X24050D02*
X23693D01*
X23701Y1093D01*
X23742Y993D01*
X23808Y908D01*
X23893Y842D01*
X23993Y801D01*
X24050Y793D01*
Y1150D01*
D02*
G37*
G36*
X26100Y1632D02*
X25988Y1617D01*
X25884Y1574D01*
X25795Y1505D01*
X25726Y1416D01*
X25683Y1312D01*
X25668Y1200D01*
X25683Y1088D01*
X25726Y984D01*
X25795Y895D01*
X25884Y826D01*
X25988Y783D01*
X26100Y768D01*
X26212Y783D01*
X26316Y826D01*
X26405Y895D01*
X26474Y984D01*
X26517Y1088D01*
X26532Y1200D01*
X26517Y1312D01*
X26474Y1416D01*
X26405Y1505D01*
X26316Y1574D01*
X26212Y1617D01*
X26100Y1632D01*
D02*
G37*
%LPD*%
G36*
X11115Y19788D02*
X11096Y19766D01*
X11079Y19744D01*
X11065Y19722D01*
X11053Y19700D01*
X11043Y19677D01*
X11035Y19654D01*
X11029Y19632D01*
X11026Y19609D01*
X11025Y19586D01*
X10875D01*
X10874Y19609D01*
X10871Y19632D01*
X10865Y19654D01*
X10857Y19677D01*
X10847Y19700D01*
X10835Y19722D01*
X10821Y19744D01*
X10804Y19766D01*
X10785Y19788D01*
X10764Y19810D01*
X11136D01*
X11115Y19788D01*
D02*
G37*
G36*
X14326Y12291D02*
X14329Y12268D01*
X14335Y12246D01*
X14343Y12223D01*
X14353Y12200D01*
X14365Y12178D01*
X14379Y12156D01*
X14396Y12134D01*
X14415Y12112D01*
X14436Y12090D01*
X14064D01*
X14085Y12112D01*
X14104Y12134D01*
X14121Y12156D01*
X14135Y12178D01*
X14147Y12200D01*
X14157Y12223D01*
X14165Y12246D01*
X14171Y12268D01*
X14174Y12291D01*
X14175Y12314D01*
X14325D01*
X14326Y12291D01*
D02*
G37*
G36*
X27165Y20638D02*
X27146Y20616D01*
X27129Y20594D01*
X27115Y20572D01*
X27103Y20550D01*
X27093Y20527D01*
X27085Y20504D01*
X27079Y20482D01*
X27076Y20459D01*
X27075Y20436D01*
X26925D01*
X26924Y20459D01*
X26921Y20482D01*
X26915Y20504D01*
X26907Y20527D01*
X26897Y20550D01*
X26885Y20572D01*
X26871Y20594D01*
X26854Y20616D01*
X26835Y20638D01*
X26814Y20660D01*
X27186D01*
X27165Y20638D01*
D02*
G37*
G36*
X23676Y16091D02*
X23679Y16068D01*
X23685Y16046D01*
X23693Y16023D01*
X23703Y16000D01*
X23715Y15978D01*
X23729Y15956D01*
X23746Y15934D01*
X23765Y15912D01*
X23786Y15890D01*
X23414D01*
X23435Y15912D01*
X23454Y15934D01*
X23471Y15956D01*
X23485Y15978D01*
X23497Y16000D01*
X23507Y16023D01*
X23515Y16046D01*
X23521Y16068D01*
X23524Y16091D01*
X23525Y16114D01*
X23675D01*
X23676Y16091D01*
D02*
G37*
%LPC*%
G36*
X19180Y24883D02*
X19064Y24868D01*
X18956Y24823D01*
X18864Y24752D01*
X18792Y24659D01*
X18748Y24551D01*
X18733Y24436D01*
X18748Y24320D01*
X18792Y24212D01*
X18864Y24120D01*
X18956Y24049D01*
X19064Y24004D01*
X19180Y23989D01*
X19295Y24004D01*
X19403Y24049D01*
X19496Y24120D01*
X19567Y24212D01*
X19611Y24320D01*
X19626Y24436D01*
X19611Y24551D01*
X19567Y24659D01*
X19496Y24752D01*
X19403Y24823D01*
X19295Y24868D01*
X19180Y24883D01*
D02*
G37*
G36*
X16620D02*
X16505Y24868D01*
X16397Y24823D01*
X16304Y24752D01*
X16233Y24659D01*
X16189Y24551D01*
X16174Y24436D01*
X16189Y24320D01*
X16233Y24212D01*
X16304Y24120D01*
X16397Y24049D01*
X16505Y24004D01*
X16620Y23989D01*
X16736Y24004D01*
X16844Y24049D01*
X16937Y24120D01*
X17008Y24212D01*
X17052Y24320D01*
X17067Y24436D01*
X17052Y24551D01*
X17008Y24659D01*
X16937Y24752D01*
X16844Y24823D01*
X16736Y24868D01*
X16620Y24883D01*
D02*
G37*
G36*
X12631Y24638D02*
X12513Y24622D01*
X12403Y24577D01*
X12308Y24504D01*
X12236Y24409D01*
X12190Y24299D01*
X12174Y24181D01*
X12190Y24063D01*
X12236Y23953D01*
X12308Y23858D01*
X12403Y23786D01*
X12513Y23740D01*
X12631Y23724D01*
X12749Y23740D01*
X12859Y23786D01*
X12954Y23858D01*
X13027Y23953D01*
X13072Y24063D01*
X13088Y24181D01*
X13072Y24299D01*
X13027Y24409D01*
X12954Y24504D01*
X12859Y24577D01*
X12749Y24622D01*
X12631Y24638D01*
D02*
G37*
G36*
X11450D02*
X11332Y24622D01*
X11222Y24577D01*
X11127Y24504D01*
X11055Y24409D01*
X11009Y24299D01*
X10993Y24181D01*
X11009Y24063D01*
X11055Y23953D01*
X11127Y23858D01*
X11222Y23786D01*
X11332Y23740D01*
X11450Y23724D01*
X11568Y23740D01*
X11678Y23786D01*
X11773Y23858D01*
X11845Y23953D01*
X11891Y24063D01*
X11907Y24181D01*
X11891Y24299D01*
X11845Y24409D01*
X11773Y24504D01*
X11678Y24577D01*
X11568Y24622D01*
X11450Y24638D01*
D02*
G37*
G36*
X2018Y24706D02*
Y23672D01*
X3052D01*
X3043Y23792D01*
X3003Y23958D01*
X2938Y24116D01*
X2848Y24261D01*
X2738Y24391D01*
X2608Y24502D01*
X2462Y24591D01*
X2305Y24656D01*
X2139Y24696D01*
X2018Y24706D01*
D02*
G37*
G36*
X1919D02*
X1798Y24696D01*
X1632Y24656D01*
X1475Y24591D01*
X1329Y24502D01*
X1199Y24391D01*
X1089Y24261D01*
X999Y24116D01*
X934Y23958D01*
X894Y23792D01*
X885Y23672D01*
X1919D01*
Y24706D01*
D02*
G37*
G36*
X12681Y23407D02*
Y23050D01*
X13038D01*
X13031Y23107D01*
X12989Y23207D01*
X12924Y23292D01*
X12838Y23358D01*
X12738Y23399D01*
X12681Y23407D01*
D02*
G37*
G36*
X11500Y23432D02*
Y23050D01*
X11882D01*
X11873Y23113D01*
X11830Y23219D01*
X11760Y23310D01*
X11669Y23380D01*
X11563Y23423D01*
X11500Y23432D01*
D02*
G37*
G36*
X12581Y23407D02*
X12524Y23399D01*
X12424Y23358D01*
X12339Y23292D01*
X12273Y23207D01*
X12232Y23107D01*
X12224Y23050D01*
X12581D01*
Y23407D01*
D02*
G37*
G36*
X11400Y23432D02*
X11337Y23423D01*
X11231Y23380D01*
X11140Y23310D01*
X11070Y23219D01*
X11027Y23113D01*
X11018Y23050D01*
X11400D01*
Y23432D01*
D02*
G37*
G36*
X31400Y23817D02*
X31292Y23803D01*
X31192Y23761D01*
X31105Y23695D01*
X31039Y23608D01*
X30997Y23508D01*
X30983Y23400D01*
X30997Y23292D01*
X31039Y23192D01*
X31105Y23105D01*
X31192Y23039D01*
X31292Y22997D01*
X31400Y22983D01*
X31508Y22997D01*
X31608Y23039D01*
X31695Y23105D01*
X31761Y23192D01*
X31803Y23292D01*
X31817Y23400D01*
X31803Y23508D01*
X31761Y23608D01*
X31695Y23695D01*
X31608Y23761D01*
X31508Y23803D01*
X31400Y23817D01*
D02*
G37*
G36*
X13038Y22950D02*
X12681D01*
Y22593D01*
X12738Y22601D01*
X12838Y22642D01*
X12924Y22708D01*
X12989Y22793D01*
X13031Y22893D01*
X13038Y22950D01*
D02*
G37*
G36*
X12581D02*
X12224D01*
X12232Y22893D01*
X12273Y22793D01*
X12339Y22708D01*
X12424Y22642D01*
X12524Y22601D01*
X12581Y22593D01*
Y22950D01*
D02*
G37*
G36*
X11882D02*
X11500D01*
Y22568D01*
X11563Y22577D01*
X11669Y22620D01*
X11760Y22690D01*
X11830Y22781D01*
X11873Y22887D01*
X11882Y22950D01*
D02*
G37*
G36*
X11400D02*
X11018D01*
X11027Y22887D01*
X11070Y22781D01*
X11140Y22690D01*
X11231Y22620D01*
X11337Y22577D01*
X11400Y22568D01*
Y22950D01*
D02*
G37*
G36*
X3052Y23572D02*
X2018D01*
Y22538D01*
X2139Y22548D01*
X2305Y22588D01*
X2462Y22653D01*
X2608Y22742D01*
X2738Y22853D01*
X2848Y22983D01*
X2938Y23128D01*
X3003Y23286D01*
X3043Y23452D01*
X3052Y23572D01*
D02*
G37*
G36*
X1919D02*
X885D01*
X894Y23452D01*
X934Y23286D01*
X999Y23128D01*
X1089Y22983D01*
X1199Y22853D01*
X1329Y22742D01*
X1475Y22653D01*
X1632Y22588D01*
X1798Y22548D01*
X1919Y22538D01*
Y23572D01*
D02*
G37*
G36*
X13812Y22961D02*
X13727Y22950D01*
X13647Y22917D01*
X13578Y22864D01*
X13526Y22795D01*
X13493Y22716D01*
X13481Y22630D01*
X13493Y22544D01*
X13526Y22464D01*
X13578Y22396D01*
X13647Y22343D01*
X13727Y22310D01*
X13812Y22299D01*
X13898Y22310D01*
X13978Y22343D01*
X14046Y22396D01*
X14099Y22464D01*
X14132Y22544D01*
X14143Y22630D01*
X14132Y22716D01*
X14099Y22795D01*
X14046Y22864D01*
X13978Y22917D01*
X13898Y22950D01*
X13812Y22961D01*
D02*
G37*
G36*
X10269D02*
X10183Y22950D01*
X10103Y22917D01*
X10035Y22864D01*
X9982Y22795D01*
X9949Y22716D01*
X9938Y22630D01*
X9949Y22544D01*
X9982Y22464D01*
X10035Y22396D01*
X10103Y22343D01*
X10183Y22310D01*
X10269Y22299D01*
X10355Y22310D01*
X10434Y22343D01*
X10503Y22396D01*
X10555Y22464D01*
X10589Y22544D01*
X10600Y22630D01*
X10589Y22716D01*
X10555Y22795D01*
X10503Y22864D01*
X10434Y22917D01*
X10355Y22950D01*
X10269Y22961D01*
D02*
G37*
G36*
X16620Y23111D02*
X16505Y23096D01*
X16397Y23051D01*
X16304Y22980D01*
X16233Y22888D01*
X16189Y22780D01*
X16174Y22664D01*
X16189Y22548D01*
X16233Y22441D01*
X16304Y22348D01*
X16397Y22277D01*
X16505Y22232D01*
X16620Y22217D01*
X16736Y22232D01*
X16844Y22277D01*
X16937Y22348D01*
X17008Y22441D01*
X17052Y22548D01*
X17067Y22664D01*
X17052Y22780D01*
X17008Y22888D01*
X16937Y22980D01*
X16844Y23051D01*
X16736Y23096D01*
X16620Y23111D01*
D02*
G37*
G36*
X3200Y21131D02*
X3114Y21120D01*
X3035Y21087D01*
X2966Y21034D01*
X2913Y20965D01*
X2880Y20886D01*
X2869Y20800D01*
X2880Y20714D01*
X2913Y20635D01*
X2966Y20566D01*
X3035Y20513D01*
X3114Y20480D01*
X3200Y20469D01*
X3286Y20480D01*
X3365Y20513D01*
X3434Y20566D01*
X3487Y20635D01*
X3520Y20714D01*
X3531Y20800D01*
X3520Y20886D01*
X3487Y20965D01*
X3434Y21034D01*
X3365Y21087D01*
X3286Y21120D01*
X3200Y21131D01*
D02*
G37*
G36*
X1699Y20051D02*
Y19669D01*
X2081D01*
X2072Y19732D01*
X2028Y19838D01*
X1959Y19929D01*
X1868Y19999D01*
X1762Y20042D01*
X1699Y20051D01*
D02*
G37*
G36*
X1599Y20051D02*
X1535Y20042D01*
X1430Y19999D01*
X1339Y19929D01*
X1269Y19838D01*
X1225Y19732D01*
X1217Y19669D01*
X1599D01*
Y20051D01*
D02*
G37*
G36*
X2880Y20026D02*
Y19669D01*
X3237D01*
X3229Y19726D01*
X3188Y19826D01*
X3122Y19911D01*
X3037Y19977D01*
X2937Y20018D01*
X2880Y20026D01*
D02*
G37*
G36*
X2780Y20026D02*
X2723Y20018D01*
X2623Y19977D01*
X2537Y19911D01*
X2472Y19826D01*
X2430Y19726D01*
X2423Y19669D01*
X2780D01*
Y20026D01*
D02*
G37*
G36*
X3237Y19569D02*
X2880D01*
Y19212D01*
X2937Y19219D01*
X3037Y19261D01*
X3122Y19326D01*
X3188Y19412D01*
X3229Y19512D01*
X3237Y19569D01*
D02*
G37*
G36*
X2780D02*
X2423D01*
X2430Y19512D01*
X2472Y19412D01*
X2537Y19326D01*
X2623Y19261D01*
X2723Y19219D01*
X2780Y19212D01*
Y19569D01*
D02*
G37*
G36*
X2081Y19569D02*
X1699D01*
Y19187D01*
X1762Y19195D01*
X1868Y19239D01*
X1959Y19309D01*
X2028Y19400D01*
X2072Y19505D01*
X2081Y19569D01*
D02*
G37*
G36*
X1599D02*
X1217D01*
X1225Y19505D01*
X1269Y19400D01*
X1339Y19309D01*
X1430Y19239D01*
X1535Y19195D01*
X1599Y19187D01*
Y19569D01*
D02*
G37*
G36*
X2830Y18894D02*
X2712Y18879D01*
X2602Y18833D01*
X2507Y18761D01*
X2434Y18666D01*
X2389Y18556D01*
X2373Y18438D01*
X2389Y18320D01*
X2434Y18209D01*
X2507Y18115D01*
X2602Y18042D01*
X2712Y17997D01*
X2830Y17981D01*
X2948Y17997D01*
X3058Y18042D01*
X3153Y18115D01*
X3225Y18209D01*
X3271Y18320D01*
X3287Y18438D01*
X3271Y18556D01*
X3225Y18666D01*
X3153Y18761D01*
X3058Y18833D01*
X2948Y18879D01*
X2830Y18894D01*
D02*
G37*
G36*
X1649D02*
X1531Y18879D01*
X1420Y18833D01*
X1326Y18761D01*
X1253Y18666D01*
X1208Y18556D01*
X1192Y18438D01*
X1208Y18320D01*
X1253Y18209D01*
X1326Y18115D01*
X1420Y18042D01*
X1531Y17997D01*
X1649Y17981D01*
X1767Y17997D01*
X1877Y18042D01*
X1972Y18115D01*
X2044Y18209D01*
X2090Y18320D01*
X2105Y18438D01*
X2090Y18556D01*
X2044Y18666D01*
X1972Y18761D01*
X1877Y18833D01*
X1767Y18879D01*
X1649Y18894D01*
D02*
G37*
G36*
X3200Y17588D02*
X3114Y17576D01*
X3035Y17543D01*
X2966Y17491D01*
X2913Y17422D01*
X2880Y17342D01*
X2869Y17257D01*
X2880Y17171D01*
X2913Y17091D01*
X2966Y17023D01*
X3035Y16970D01*
X3114Y16937D01*
X3200Y16926D01*
X3286Y16937D01*
X3365Y16970D01*
X3434Y17023D01*
X3487Y17091D01*
X3520Y17171D01*
X3531Y17257D01*
X3520Y17342D01*
X3487Y17422D01*
X3434Y17491D01*
X3365Y17543D01*
X3286Y17576D01*
X3200Y17588D01*
D02*
G37*
G36*
X1450Y15657D02*
Y15300D01*
X1807D01*
X1799Y15357D01*
X1758Y15457D01*
X1692Y15542D01*
X1607Y15608D01*
X1507Y15649D01*
X1450Y15657D01*
D02*
G37*
G36*
X1350D02*
X1293Y15649D01*
X1193Y15608D01*
X1108Y15542D01*
X1042Y15457D01*
X1001Y15357D01*
X993Y15300D01*
X1350D01*
Y15657D01*
D02*
G37*
G36*
X1807Y15200D02*
X1450D01*
Y14843D01*
X1507Y14851D01*
X1607Y14892D01*
X1692Y14958D01*
X1758Y15043D01*
X1799Y15143D01*
X1807Y15200D01*
D02*
G37*
G36*
X1350D02*
X993D01*
X1001Y15143D01*
X1042Y15043D01*
X1108Y14958D01*
X1193Y14892D01*
X1293Y14851D01*
X1350Y14843D01*
Y15200D01*
D02*
G37*
G36*
X3828Y15678D02*
X2972D01*
Y14822D01*
X3828D01*
Y15678D01*
D02*
G37*
G36*
X2400Y15682D02*
X2288Y15667D01*
X2184Y15624D01*
X2095Y15555D01*
X2026Y15466D01*
X1983Y15362D01*
X1968Y15250D01*
X1983Y15138D01*
X2026Y15034D01*
X2095Y14945D01*
X2184Y14876D01*
X2288Y14833D01*
X2400Y14818D01*
X2512Y14833D01*
X2616Y14876D01*
X2705Y14945D01*
X2774Y15034D01*
X2817Y15138D01*
X2832Y15250D01*
X2817Y15362D01*
X2774Y15466D01*
X2705Y15555D01*
X2616Y15624D01*
X2512Y15667D01*
X2400Y15682D01*
D02*
G37*
G36*
X6750Y14997D02*
Y14650D01*
X7097D01*
X7090Y14704D01*
X7049Y14802D01*
X6985Y14885D01*
X6902Y14949D01*
X6804Y14990D01*
X6750Y14997D01*
D02*
G37*
G36*
X6650D02*
X6596Y14990D01*
X6498Y14949D01*
X6415Y14885D01*
X6351Y14802D01*
X6310Y14704D01*
X6303Y14650D01*
X6650D01*
Y14997D01*
D02*
G37*
G36*
X7097Y14550D02*
X6750D01*
Y14203D01*
X6804Y14210D01*
X6902Y14251D01*
X6985Y14315D01*
X7049Y14398D01*
X7090Y14496D01*
X7097Y14550D01*
D02*
G37*
G36*
X6650D02*
X6303D01*
X6310Y14496D01*
X6351Y14398D01*
X6415Y14315D01*
X6498Y14251D01*
X6596Y14210D01*
X6650Y14203D01*
Y14550D01*
D02*
G37*
G36*
X10118Y15018D02*
X9282D01*
Y14182D01*
X10118D01*
Y15018D01*
D02*
G37*
G36*
X8700Y15022D02*
X8591Y15007D01*
X8489Y14965D01*
X8402Y14898D01*
X8335Y14811D01*
X8293Y14709D01*
X8278Y14600D01*
X8293Y14491D01*
X8335Y14389D01*
X8402Y14302D01*
X8489Y14235D01*
X8591Y14193D01*
X8700Y14178D01*
X8809Y14193D01*
X8911Y14235D01*
X8998Y14302D01*
X9065Y14389D01*
X9107Y14491D01*
X9122Y14600D01*
X9107Y14709D01*
X9065Y14811D01*
X8998Y14898D01*
X8911Y14965D01*
X8809Y15007D01*
X8700Y15022D01*
D02*
G37*
G36*
X7700D02*
X7591Y15007D01*
X7489Y14965D01*
X7402Y14898D01*
X7335Y14811D01*
X7293Y14709D01*
X7278Y14600D01*
X7293Y14491D01*
X7335Y14389D01*
X7402Y14302D01*
X7489Y14235D01*
X7591Y14193D01*
X7700Y14178D01*
X7809Y14193D01*
X7911Y14235D01*
X7998Y14302D01*
X8065Y14389D01*
X8107Y14491D01*
X8122Y14600D01*
X8107Y14709D01*
X8065Y14811D01*
X7998Y14898D01*
X7911Y14965D01*
X7809Y15007D01*
X7700Y15022D01*
D02*
G37*
G36*
X1450Y13207D02*
Y12850D01*
X1807D01*
X1799Y12907D01*
X1758Y13007D01*
X1692Y13092D01*
X1607Y13158D01*
X1507Y13199D01*
X1450Y13207D01*
D02*
G37*
G36*
X1350D02*
X1293Y13199D01*
X1193Y13158D01*
X1108Y13092D01*
X1042Y13007D01*
X1001Y12907D01*
X993Y12850D01*
X1350D01*
Y13207D01*
D02*
G37*
G36*
X1807Y12750D02*
X1450D01*
Y12393D01*
X1507Y12401D01*
X1607Y12442D01*
X1692Y12508D01*
X1758Y12593D01*
X1799Y12693D01*
X1807Y12750D01*
D02*
G37*
G36*
X1350D02*
X993D01*
X1001Y12693D01*
X1042Y12593D01*
X1108Y12508D01*
X1193Y12442D01*
X1293Y12401D01*
X1350Y12393D01*
Y12750D01*
D02*
G37*
G36*
X3828Y13228D02*
X2972D01*
Y12372D01*
X3828D01*
Y13228D01*
D02*
G37*
G36*
X2400Y13232D02*
X2288Y13217D01*
X2184Y13174D01*
X2095Y13105D01*
X2026Y13016D01*
X1983Y12912D01*
X1968Y12800D01*
X1983Y12688D01*
X2026Y12584D01*
X2095Y12495D01*
X2184Y12426D01*
X2288Y12383D01*
X2400Y12368D01*
X2512Y12383D01*
X2616Y12426D01*
X2705Y12495D01*
X2774Y12584D01*
X2817Y12688D01*
X2832Y12800D01*
X2817Y12912D01*
X2774Y13016D01*
X2705Y13105D01*
X2616Y13174D01*
X2512Y13217D01*
X2400Y13232D01*
D02*
G37*
G36*
X9700Y12022D02*
X9591Y12007D01*
X9489Y11965D01*
X9402Y11898D01*
X9335Y11811D01*
X9293Y11709D01*
X9278Y11600D01*
X9293Y11491D01*
X9335Y11389D01*
X9402Y11302D01*
X9489Y11235D01*
X9591Y11193D01*
X9700Y11178D01*
X9809Y11193D01*
X9911Y11235D01*
X9998Y11302D01*
X10065Y11389D01*
X10107Y11491D01*
X10122Y11600D01*
X10107Y11709D01*
X10065Y11811D01*
X9998Y11898D01*
X9911Y11965D01*
X9809Y12007D01*
X9700Y12022D01*
D02*
G37*
G36*
X8700D02*
X8591Y12007D01*
X8489Y11965D01*
X8402Y11898D01*
X8335Y11811D01*
X8293Y11709D01*
X8278Y11600D01*
X8293Y11491D01*
X8335Y11389D01*
X8402Y11302D01*
X8489Y11235D01*
X8591Y11193D01*
X8700Y11178D01*
X8809Y11193D01*
X8911Y11235D01*
X8998Y11302D01*
X9065Y11389D01*
X9107Y11491D01*
X9122Y11600D01*
X9107Y11709D01*
X9065Y11811D01*
X8998Y11898D01*
X8911Y11965D01*
X8809Y12007D01*
X8700Y12022D01*
D02*
G37*
G36*
X7700D02*
X7591Y12007D01*
X7489Y11965D01*
X7402Y11898D01*
X7335Y11811D01*
X7293Y11709D01*
X7278Y11600D01*
X7293Y11491D01*
X7335Y11389D01*
X7402Y11302D01*
X7489Y11235D01*
X7591Y11193D01*
X7700Y11178D01*
X7809Y11193D01*
X7911Y11235D01*
X7998Y11302D01*
X8065Y11389D01*
X8107Y11491D01*
X8122Y11600D01*
X8107Y11709D01*
X8065Y11811D01*
X7998Y11898D01*
X7911Y11965D01*
X7809Y12007D01*
X7700Y12022D01*
D02*
G37*
G36*
X6700D02*
X6591Y12007D01*
X6489Y11965D01*
X6402Y11898D01*
X6335Y11811D01*
X6293Y11709D01*
X6278Y11600D01*
X6293Y11491D01*
X6335Y11389D01*
X6402Y11302D01*
X6489Y11235D01*
X6591Y11193D01*
X6700Y11178D01*
X6809Y11193D01*
X6911Y11235D01*
X6998Y11302D01*
X7065Y11389D01*
X7107Y11491D01*
X7122Y11600D01*
X7107Y11709D01*
X7065Y11811D01*
X6998Y11898D01*
X6911Y11965D01*
X6809Y12007D01*
X6700Y12022D01*
D02*
G37*
G36*
X7250Y10957D02*
Y10600D01*
X7607D01*
X7599Y10657D01*
X7558Y10757D01*
X7492Y10842D01*
X7407Y10908D01*
X7307Y10949D01*
X7250Y10957D01*
D02*
G37*
G36*
X7150Y10957D02*
X7093Y10949D01*
X6993Y10908D01*
X6908Y10842D01*
X6842Y10757D01*
X6801Y10657D01*
X6793Y10600D01*
X7150D01*
Y10957D01*
D02*
G37*
G36*
X1450Y10757D02*
Y10400D01*
X1807D01*
X1799Y10457D01*
X1758Y10557D01*
X1692Y10642D01*
X1607Y10708D01*
X1507Y10749D01*
X1450Y10757D01*
D02*
G37*
G36*
X1350D02*
X1293Y10749D01*
X1193Y10708D01*
X1108Y10642D01*
X1042Y10557D01*
X1001Y10457D01*
X993Y10400D01*
X1350D01*
Y10757D01*
D02*
G37*
G36*
X7150Y10500D02*
X6793D01*
X6801Y10443D01*
X6842Y10343D01*
X6908Y10258D01*
X6993Y10192D01*
X7093Y10151D01*
X7150Y10143D01*
Y10500D01*
D02*
G37*
G36*
X7607D02*
X7250D01*
Y10143D01*
X7307Y10151D01*
X7407Y10192D01*
X7492Y10258D01*
X7558Y10343D01*
X7599Y10443D01*
X7607Y10500D01*
D02*
G37*
G36*
X9200Y10982D02*
X9088Y10967D01*
X8984Y10924D01*
X8895Y10855D01*
X8826Y10766D01*
X8783Y10662D01*
X8768Y10550D01*
X8783Y10438D01*
X8826Y10334D01*
X8895Y10245D01*
X8984Y10176D01*
X9088Y10133D01*
X9200Y10118D01*
X9312Y10133D01*
X9416Y10176D01*
X9505Y10245D01*
X9574Y10334D01*
X9617Y10438D01*
X9632Y10550D01*
X9617Y10662D01*
X9574Y10766D01*
X9505Y10855D01*
X9416Y10924D01*
X9312Y10967D01*
X9200Y10982D01*
D02*
G37*
G36*
X1807Y10300D02*
X1450D01*
Y9943D01*
X1507Y9951D01*
X1607Y9992D01*
X1692Y10058D01*
X1758Y10143D01*
X1799Y10243D01*
X1807Y10300D01*
D02*
G37*
G36*
X1350D02*
X993D01*
X1001Y10243D01*
X1042Y10143D01*
X1108Y10058D01*
X1193Y9992D01*
X1293Y9951D01*
X1350Y9943D01*
Y10300D01*
D02*
G37*
G36*
X3828Y10778D02*
X2972D01*
Y9922D01*
X3828D01*
Y10778D01*
D02*
G37*
G36*
X2400Y10782D02*
X2288Y10767D01*
X2184Y10724D01*
X2095Y10655D01*
X2026Y10566D01*
X1983Y10462D01*
X1968Y10350D01*
X1983Y10238D01*
X2026Y10134D01*
X2095Y10045D01*
X2184Y9976D01*
X2288Y9933D01*
X2400Y9918D01*
X2512Y9933D01*
X2616Y9976D01*
X2705Y10045D01*
X2774Y10134D01*
X2817Y10238D01*
X2832Y10350D01*
X2817Y10462D01*
X2774Y10566D01*
X2705Y10655D01*
X2616Y10724D01*
X2512Y10767D01*
X2400Y10782D01*
D02*
G37*
G36*
X6750Y9797D02*
Y9450D01*
X7097D01*
X7090Y9504D01*
X7049Y9602D01*
X6985Y9685D01*
X6902Y9749D01*
X6804Y9790D01*
X6750Y9797D01*
D02*
G37*
G36*
X6650D02*
X6596Y9790D01*
X6498Y9749D01*
X6415Y9685D01*
X6351Y9602D01*
X6310Y9504D01*
X6303Y9450D01*
X6650D01*
Y9797D01*
D02*
G37*
G36*
X7097Y9350D02*
X6750D01*
Y9003D01*
X6804Y9010D01*
X6902Y9051D01*
X6985Y9115D01*
X7049Y9198D01*
X7090Y9296D01*
X7097Y9350D01*
D02*
G37*
G36*
X6650D02*
X6303D01*
X6310Y9296D01*
X6351Y9198D01*
X6415Y9115D01*
X6498Y9051D01*
X6596Y9010D01*
X6650Y9003D01*
Y9350D01*
D02*
G37*
G36*
X10118Y9818D02*
X9282D01*
Y8982D01*
X10118D01*
Y9818D01*
D02*
G37*
G36*
X8700Y9822D02*
X8591Y9807D01*
X8489Y9765D01*
X8402Y9698D01*
X8335Y9611D01*
X8293Y9509D01*
X8278Y9400D01*
X8293Y9291D01*
X8335Y9189D01*
X8402Y9102D01*
X8489Y9035D01*
X8591Y8993D01*
X8700Y8978D01*
X8809Y8993D01*
X8911Y9035D01*
X8998Y9102D01*
X9065Y9189D01*
X9107Y9291D01*
X9122Y9400D01*
X9107Y9509D01*
X9065Y9611D01*
X8998Y9698D01*
X8911Y9765D01*
X8809Y9807D01*
X8700Y9822D01*
D02*
G37*
G36*
X7700D02*
X7591Y9807D01*
X7489Y9765D01*
X7402Y9698D01*
X7335Y9611D01*
X7293Y9509D01*
X7278Y9400D01*
X7293Y9291D01*
X7335Y9189D01*
X7402Y9102D01*
X7489Y9035D01*
X7591Y8993D01*
X7700Y8978D01*
X7809Y8993D01*
X7911Y9035D01*
X7998Y9102D01*
X8065Y9189D01*
X8107Y9291D01*
X8122Y9400D01*
X8107Y9509D01*
X8065Y9611D01*
X7998Y9698D01*
X7911Y9765D01*
X7809Y9807D01*
X7700Y9822D01*
D02*
G37*
G36*
X1450Y8307D02*
Y7950D01*
X1807D01*
X1799Y8007D01*
X1758Y8107D01*
X1692Y8192D01*
X1607Y8258D01*
X1507Y8299D01*
X1450Y8307D01*
D02*
G37*
G36*
X1350D02*
X1293Y8299D01*
X1193Y8258D01*
X1108Y8192D01*
X1042Y8107D01*
X1001Y8007D01*
X993Y7950D01*
X1350D01*
Y8307D01*
D02*
G37*
G36*
X1807Y7850D02*
X1450D01*
Y7493D01*
X1507Y7501D01*
X1607Y7542D01*
X1692Y7608D01*
X1758Y7693D01*
X1799Y7793D01*
X1807Y7850D01*
D02*
G37*
G36*
X1350D02*
X993D01*
X1001Y7793D01*
X1042Y7693D01*
X1108Y7608D01*
X1193Y7542D01*
X1293Y7501D01*
X1350Y7493D01*
Y7850D01*
D02*
G37*
G36*
X3828Y8328D02*
X2972D01*
Y7472D01*
X3828D01*
Y8328D01*
D02*
G37*
G36*
X2400Y8332D02*
X2288Y8317D01*
X2184Y8274D01*
X2095Y8205D01*
X2026Y8116D01*
X1983Y8012D01*
X1968Y7900D01*
X1983Y7788D01*
X2026Y7684D01*
X2095Y7595D01*
X2184Y7526D01*
X2288Y7483D01*
X2400Y7468D01*
X2512Y7483D01*
X2616Y7526D01*
X2705Y7595D01*
X2774Y7684D01*
X2817Y7788D01*
X2832Y7900D01*
X2817Y8012D01*
X2774Y8116D01*
X2705Y8205D01*
X2616Y8274D01*
X2512Y8317D01*
X2400Y8332D01*
D02*
G37*
G36*
X1450Y5907D02*
Y5550D01*
X1807D01*
X1799Y5607D01*
X1758Y5707D01*
X1692Y5792D01*
X1607Y5858D01*
X1507Y5899D01*
X1450Y5907D01*
D02*
G37*
G36*
X1350D02*
X1293Y5899D01*
X1193Y5858D01*
X1108Y5792D01*
X1042Y5707D01*
X1001Y5607D01*
X993Y5550D01*
X1350D01*
Y5907D01*
D02*
G37*
G36*
X4900Y6407D02*
X4782Y6391D01*
X4672Y6345D01*
X4577Y6273D01*
X4505Y6178D01*
X4459Y6068D01*
X4443Y5950D01*
X4459Y5832D01*
X4505Y5722D01*
X4577Y5627D01*
X4672Y5555D01*
X4782Y5509D01*
X4900Y5493D01*
X5018Y5509D01*
X5128Y5555D01*
X5223Y5627D01*
X5295Y5722D01*
X5341Y5832D01*
X5357Y5950D01*
X5341Y6068D01*
X5295Y6178D01*
X5223Y6273D01*
X5128Y6345D01*
X5018Y6391D01*
X4900Y6407D01*
D02*
G37*
G36*
X1807Y5450D02*
X1450D01*
Y5093D01*
X1507Y5101D01*
X1607Y5142D01*
X1692Y5208D01*
X1758Y5293D01*
X1799Y5393D01*
X1807Y5450D01*
D02*
G37*
G36*
X1350D02*
X993D01*
X1001Y5393D01*
X1042Y5293D01*
X1108Y5208D01*
X1193Y5142D01*
X1293Y5101D01*
X1350Y5093D01*
Y5450D01*
D02*
G37*
G36*
X3828Y5928D02*
X2972D01*
Y5072D01*
X3828D01*
Y5928D01*
D02*
G37*
G36*
X2400Y5932D02*
X2288Y5917D01*
X2184Y5874D01*
X2095Y5805D01*
X2026Y5716D01*
X1983Y5612D01*
X1968Y5500D01*
X1983Y5388D01*
X2026Y5284D01*
X2095Y5195D01*
X2184Y5126D01*
X2288Y5083D01*
X2400Y5068D01*
X2512Y5083D01*
X2616Y5126D01*
X2705Y5195D01*
X2774Y5284D01*
X2817Y5388D01*
X2832Y5500D01*
X2817Y5612D01*
X2774Y5716D01*
X2705Y5805D01*
X2616Y5874D01*
X2512Y5917D01*
X2400Y5932D01*
D02*
G37*
G36*
X7150Y5100D02*
X6793D01*
X6801Y5043D01*
X6842Y4943D01*
X6908Y4858D01*
X6993Y4792D01*
X7093Y4751D01*
X7150Y4743D01*
Y5100D01*
D02*
G37*
G36*
X7607D02*
X7250D01*
Y4743D01*
X7307Y4751D01*
X7407Y4792D01*
X7492Y4858D01*
X7558Y4943D01*
X7599Y5043D01*
X7607Y5100D01*
D02*
G37*
G36*
X7250Y4207D02*
Y3850D01*
X7607D01*
X7599Y3907D01*
X7558Y4007D01*
X7492Y4092D01*
X7407Y4158D01*
X7307Y4199D01*
X7250Y4207D01*
D02*
G37*
G36*
X7150Y4207D02*
X7093Y4199D01*
X6993Y4158D01*
X6908Y4092D01*
X6842Y4007D01*
X6801Y3907D01*
X6793Y3850D01*
X7150D01*
Y4207D01*
D02*
G37*
G36*
X2018Y3052D02*
Y2018D01*
X3052D01*
X3043Y2139D01*
X3003Y2305D01*
X2938Y2462D01*
X2848Y2608D01*
X2738Y2738D01*
X2608Y2848D01*
X2462Y2938D01*
X2305Y3003D01*
X2139Y3043D01*
X2018Y3052D01*
D02*
G37*
G36*
X1919D02*
X1798Y3043D01*
X1632Y3003D01*
X1475Y2938D01*
X1329Y2848D01*
X1199Y2738D01*
X1089Y2608D01*
X999Y2462D01*
X934Y2305D01*
X894Y2139D01*
X885Y2018D01*
X1919D01*
Y3052D01*
D02*
G37*
G36*
X10200Y1832D02*
X10088Y1817D01*
X9984Y1774D01*
X9895Y1705D01*
X9826Y1616D01*
X9783Y1512D01*
X9768Y1400D01*
X9783Y1288D01*
X9826Y1184D01*
X9895Y1095D01*
X9984Y1026D01*
X10088Y983D01*
X10200Y968D01*
X10312Y983D01*
X10416Y1026D01*
X10505Y1095D01*
X10574Y1184D01*
X10617Y1288D01*
X10632Y1400D01*
X10617Y1512D01*
X10574Y1616D01*
X10505Y1705D01*
X10416Y1774D01*
X10312Y1817D01*
X10200Y1832D01*
D02*
G37*
G36*
X6200D02*
X6088Y1817D01*
X5984Y1774D01*
X5895Y1705D01*
X5826Y1616D01*
X5783Y1512D01*
X5768Y1400D01*
X5783Y1288D01*
X5826Y1184D01*
X5895Y1095D01*
X5984Y1026D01*
X6088Y983D01*
X6200Y968D01*
X6312Y983D01*
X6416Y1026D01*
X6505Y1095D01*
X6574Y1184D01*
X6617Y1288D01*
X6632Y1400D01*
X6617Y1512D01*
X6574Y1616D01*
X6505Y1705D01*
X6416Y1774D01*
X6312Y1817D01*
X6200Y1832D01*
D02*
G37*
G36*
X3052Y1919D02*
X2018D01*
Y885D01*
X2139Y894D01*
X2305Y934D01*
X2462Y999D01*
X2608Y1089D01*
X2738Y1199D01*
X2848Y1329D01*
X2938Y1475D01*
X3003Y1632D01*
X3043Y1798D01*
X3052Y1919D01*
D02*
G37*
G36*
X1919D02*
X885D01*
X894Y1798D01*
X934Y1632D01*
X999Y1475D01*
X1089Y1329D01*
X1199Y1199D01*
X1329Y1089D01*
X1475Y999D01*
X1632Y934D01*
X1798Y894D01*
X1919Y885D01*
Y1919D01*
D02*
G37*
G36*
X19180Y23111D02*
X19064Y23096D01*
X18956Y23051D01*
X18864Y22980D01*
X18792Y22888D01*
X18748Y22780D01*
X18733Y22664D01*
X18748Y22548D01*
X18792Y22441D01*
X18864Y22348D01*
X18956Y22277D01*
X19064Y22232D01*
X19180Y22217D01*
X19295Y22232D01*
X19403Y22277D01*
X19496Y22348D01*
X19567Y22441D01*
X19611Y22548D01*
X19626Y22664D01*
X19611Y22780D01*
X19567Y22888D01*
X19496Y22980D01*
X19403Y23051D01*
X19295Y23096D01*
X19180Y23111D01*
D02*
G37*
G36*
X9100Y21200D02*
X8788D01*
X8794Y21155D01*
X8831Y21066D01*
X8889Y20989D01*
X8966Y20931D01*
X9055Y20894D01*
X9100Y20888D01*
Y21200D01*
D02*
G37*
G36*
X7150Y18907D02*
Y18550D01*
X7507D01*
X7499Y18607D01*
X7458Y18707D01*
X7392Y18792D01*
X7307Y18858D01*
X7207Y18899D01*
X7150Y18907D01*
D02*
G37*
G36*
X7050D02*
X6993Y18899D01*
X6893Y18858D01*
X6808Y18792D01*
X6742Y18707D01*
X6701Y18607D01*
X6693Y18550D01*
X7050D01*
Y18907D01*
D02*
G37*
G36*
X7507Y18450D02*
X7150D01*
Y18093D01*
X7207Y18101D01*
X7307Y18142D01*
X7392Y18208D01*
X7458Y18293D01*
X7499Y18393D01*
X7507Y18450D01*
D02*
G37*
G36*
X7050D02*
X6693D01*
X6701Y18393D01*
X6742Y18293D01*
X6808Y18208D01*
X6893Y18142D01*
X6993Y18101D01*
X7050Y18093D01*
Y18450D01*
D02*
G37*
G36*
X9100Y18932D02*
X8988Y18917D01*
X8884Y18874D01*
X8795Y18805D01*
X8726Y18716D01*
X8683Y18612D01*
X8668Y18500D01*
X8683Y18388D01*
X8726Y18284D01*
X8795Y18195D01*
X8884Y18126D01*
X8988Y18083D01*
X9100Y18068D01*
X9212Y18083D01*
X9316Y18126D01*
X9405Y18195D01*
X9474Y18284D01*
X9517Y18388D01*
X9532Y18500D01*
X9517Y18612D01*
X9474Y18716D01*
X9405Y18805D01*
X9316Y18874D01*
X9212Y18917D01*
X9100Y18932D01*
D02*
G37*
G36*
X7150Y17657D02*
Y17300D01*
X7507D01*
X7499Y17357D01*
X7458Y17457D01*
X7392Y17542D01*
X7307Y17608D01*
X7207Y17649D01*
X7150Y17657D01*
D02*
G37*
G36*
X7050D02*
X6993Y17649D01*
X6893Y17608D01*
X6808Y17542D01*
X6742Y17457D01*
X6701Y17357D01*
X6693Y17300D01*
X7050D01*
Y17657D01*
D02*
G37*
G36*
X7507Y17200D02*
X7150D01*
Y16843D01*
X7207Y16851D01*
X7307Y16892D01*
X7392Y16958D01*
X7458Y17043D01*
X7499Y17143D01*
X7507Y17200D01*
D02*
G37*
G36*
X7050D02*
X6693D01*
X6701Y17143D01*
X6742Y17043D01*
X6808Y16958D01*
X6893Y16892D01*
X6993Y16851D01*
X7050Y16843D01*
Y17200D01*
D02*
G37*
G36*
X9100Y17682D02*
X8988Y17667D01*
X8884Y17624D01*
X8795Y17555D01*
X8726Y17466D01*
X8683Y17362D01*
X8668Y17250D01*
X8683Y17138D01*
X8726Y17034D01*
X8795Y16945D01*
X8884Y16876D01*
X8988Y16833D01*
X9100Y16818D01*
X9212Y16833D01*
X9316Y16876D01*
X9405Y16945D01*
X9474Y17034D01*
X9517Y17138D01*
X9532Y17250D01*
X9517Y17362D01*
X9474Y17466D01*
X9405Y17555D01*
X9316Y17624D01*
X9212Y17667D01*
X9100Y17682D01*
D02*
G37*
G36*
X7100Y16407D02*
Y16050D01*
X7457D01*
X7449Y16107D01*
X7408Y16207D01*
X7342Y16292D01*
X7257Y16358D01*
X7157Y16399D01*
X7100Y16407D01*
D02*
G37*
G36*
X7000D02*
X6943Y16399D01*
X6843Y16358D01*
X6758Y16292D01*
X6692Y16207D01*
X6651Y16107D01*
X6643Y16050D01*
X7000D01*
Y16407D01*
D02*
G37*
G36*
X7457Y15950D02*
X7100D01*
Y15593D01*
X7157Y15601D01*
X7257Y15642D01*
X7342Y15708D01*
X7408Y15793D01*
X7449Y15893D01*
X7457Y15950D01*
D02*
G37*
G36*
X7000D02*
X6643D01*
X6651Y15893D01*
X6692Y15793D01*
X6758Y15708D01*
X6843Y15642D01*
X6943Y15601D01*
X7000Y15593D01*
Y15950D01*
D02*
G37*
G36*
X9050Y16432D02*
X8938Y16417D01*
X8834Y16374D01*
X8745Y16305D01*
X8676Y16216D01*
X8633Y16112D01*
X8618Y16000D01*
X8633Y15888D01*
X8676Y15784D01*
X8745Y15695D01*
X8834Y15626D01*
X8938Y15583D01*
X9050Y15568D01*
X9162Y15583D01*
X9266Y15626D01*
X9355Y15695D01*
X9424Y15784D01*
X9467Y15888D01*
X9482Y16000D01*
X9467Y16112D01*
X9424Y16216D01*
X9355Y16305D01*
X9266Y16374D01*
X9162Y16417D01*
X9050Y16432D01*
D02*
G37*
G36*
X14350Y9407D02*
Y9050D01*
X14707D01*
X14699Y9107D01*
X14658Y9207D01*
X14592Y9292D01*
X14507Y9358D01*
X14407Y9399D01*
X14350Y9407D01*
D02*
G37*
G36*
X14250D02*
X14193Y9399D01*
X14093Y9358D01*
X14008Y9292D01*
X13942Y9207D01*
X13901Y9107D01*
X13893Y9050D01*
X14250D01*
Y9407D01*
D02*
G37*
G36*
Y8950D02*
X13893D01*
X13901Y8893D01*
X13942Y8793D01*
X14008Y8708D01*
X14093Y8642D01*
X14193Y8601D01*
X14250Y8593D01*
Y8950D01*
D02*
G37*
G36*
X13000Y8332D02*
X12888Y8317D01*
X12784Y8274D01*
X12695Y8205D01*
X12626Y8116D01*
X12583Y8012D01*
X12568Y7900D01*
X12583Y7788D01*
X12626Y7684D01*
X12695Y7595D01*
X12784Y7526D01*
X12888Y7483D01*
X13000Y7468D01*
X13112Y7483D01*
X13216Y7526D01*
X13305Y7595D01*
X13374Y7684D01*
X13417Y7788D01*
X13432Y7900D01*
X13417Y8012D01*
X13374Y8116D01*
X13305Y8205D01*
X13216Y8274D01*
X13112Y8317D01*
X13000Y8332D01*
D02*
G37*
G36*
X11850D02*
X11738Y8317D01*
X11634Y8274D01*
X11545Y8205D01*
X11476Y8116D01*
X11433Y8012D01*
X11418Y7900D01*
X11433Y7788D01*
X11476Y7684D01*
X11545Y7595D01*
X11634Y7526D01*
X11738Y7483D01*
X11850Y7468D01*
X11962Y7483D01*
X12066Y7526D01*
X12155Y7595D01*
X12224Y7684D01*
X12267Y7788D01*
X12282Y7900D01*
X12267Y8012D01*
X12224Y8116D01*
X12155Y8205D01*
X12066Y8274D01*
X11962Y8317D01*
X11850Y8332D01*
D02*
G37*
G36*
X23650Y8907D02*
Y8550D01*
X24007D01*
X23999Y8607D01*
X23958Y8707D01*
X23892Y8792D01*
X23807Y8858D01*
X23707Y8899D01*
X23650Y8907D01*
D02*
G37*
G36*
X23550D02*
X23493Y8899D01*
X23393Y8858D01*
X23308Y8792D01*
X23242Y8707D01*
X23201Y8607D01*
X23193Y8550D01*
X23550D01*
Y8907D01*
D02*
G37*
G36*
X13000Y5632D02*
X12888Y5617D01*
X12784Y5574D01*
X12695Y5505D01*
X12626Y5416D01*
X12583Y5312D01*
X12568Y5200D01*
X12583Y5088D01*
X12626Y4984D01*
X12695Y4895D01*
X12784Y4826D01*
X12888Y4783D01*
X13000Y4768D01*
X13112Y4783D01*
X13216Y4826D01*
X13305Y4895D01*
X13374Y4984D01*
X13417Y5088D01*
X13432Y5200D01*
X13417Y5312D01*
X13374Y5416D01*
X13305Y5505D01*
X13216Y5574D01*
X13112Y5617D01*
X13000Y5632D01*
D02*
G37*
G36*
X14800Y4972D02*
X14691Y4957D01*
X14589Y4915D01*
X14502Y4848D01*
X14435Y4761D01*
X14393Y4659D01*
X14378Y4550D01*
X14393Y4441D01*
X14435Y4339D01*
X14502Y4252D01*
X14589Y4185D01*
X14691Y4143D01*
X14800Y4128D01*
X14909Y4143D01*
X15011Y4185D01*
X15098Y4252D01*
X15165Y4339D01*
X15207Y4441D01*
X15222Y4550D01*
X15207Y4659D01*
X15165Y4761D01*
X15098Y4848D01*
X15011Y4915D01*
X14909Y4957D01*
X14800Y4972D01*
D02*
G37*
G36*
Y3972D02*
X14691Y3957D01*
X14589Y3915D01*
X14502Y3848D01*
X14435Y3761D01*
X14393Y3659D01*
X14378Y3550D01*
X14393Y3441D01*
X14435Y3339D01*
X14502Y3252D01*
X14589Y3185D01*
X14691Y3143D01*
X14800Y3128D01*
X14909Y3143D01*
X15011Y3185D01*
X15098Y3252D01*
X15165Y3339D01*
X15207Y3441D01*
X15222Y3550D01*
X15207Y3659D01*
X15165Y3761D01*
X15098Y3848D01*
X15011Y3915D01*
X14909Y3957D01*
X14800Y3972D01*
D02*
G37*
G36*
X14850Y2947D02*
Y2600D01*
X15197D01*
X15190Y2654D01*
X15149Y2752D01*
X15085Y2835D01*
X15002Y2899D01*
X14904Y2940D01*
X14850Y2947D01*
D02*
G37*
G36*
X14750D02*
X14696Y2940D01*
X14598Y2899D01*
X14515Y2835D01*
X14451Y2752D01*
X14410Y2654D01*
X14403Y2600D01*
X14750D01*
Y2947D01*
D02*
G37*
%LPD*%
G54D11*
X4950Y19700D02*
Y22000D01*
X13650Y14100D02*
Y20791D01*
X6500Y21800D02*
X17250D01*
X5500Y20800D02*
X6500Y21800D01*
X10100Y20750D02*
X12500D01*
X18650Y5550D02*
Y6300D01*
X18850Y23400D02*
X19750D01*
X17250Y21800D02*
X18850Y23400D01*
X22300Y4950D02*
Y5550D01*
X18950Y3800D02*
X19525Y4375D01*
X21725D02*
X22300Y4950D01*
X19525Y4375D02*
X21725D01*
X13650Y14100D02*
X14150Y13600D01*
X14850Y20592D02*
Y20700D01*
X25550Y12250D02*
Y14100D01*
X24000Y10700D02*
X25550Y12250D01*
X26200Y12300D02*
Y12800D01*
X24400Y10500D02*
X26200Y12300D01*
X26550Y7750D02*
Y7850D01*
Y7750D02*
X27200Y7100D01*
X19636Y12483D02*
X20983D01*
X21000Y12500D01*
X5500Y9100D02*
Y11607D01*
X10900Y2050D02*
X13784D01*
X14084Y1750D01*
X13950Y2550D02*
X14457Y2043D01*
X13950Y2550D02*
Y5150D01*
X18950Y2300D02*
Y3800D01*
X15000Y15250D02*
Y20442D01*
X14850Y20592D02*
X15000Y20442D01*
X9400Y20050D02*
X10100Y20750D01*
X15000Y15250D02*
X16150Y14100D01*
X5500Y11607D02*
Y14650D01*
X6650Y7750D02*
X9350D01*
X6500Y5750D02*
X7600D01*
X6050Y6200D02*
Y7150D01*
X6650Y7750D01*
X6050Y6200D02*
X6500Y5750D01*
X10800Y9200D02*
Y10750D01*
X9350Y7750D02*
X10800Y9200D01*
Y11500D02*
X11500Y10800D01*
X10200Y7750D02*
X11500Y9050D01*
Y10800D01*
X10200Y5150D02*
Y7750D01*
X10800Y11500D02*
Y11900D01*
X10900Y6900D02*
Y7950D01*
X13000Y10050D02*
X16550D01*
X10900Y7950D02*
X13000Y10050D01*
X4900Y14200D02*
X4950Y14250D01*
X5500Y14650D02*
Y20800D01*
X8850Y4500D02*
X9700D01*
X7600Y5750D02*
X8850Y4500D01*
X9700D02*
X10200Y4000D01*
X4700Y600D02*
X22000D01*
X3950Y1350D02*
X4700Y600D01*
X26150Y14600D02*
X26700Y14050D01*
Y10139D02*
Y14050D01*
X25100Y14600D02*
X26150D01*
X24100Y13600D02*
X25100Y14600D01*
X21000Y13600D02*
X24100D01*
X30550Y14900D02*
X31350Y14100D01*
X24650Y14900D02*
X30550D01*
X23900Y14150D02*
X24650Y14900D01*
X15450Y10700D02*
X24000D01*
X24050Y9350D02*
X24400Y9700D01*
Y10500D01*
X18400Y1750D02*
X18950Y2300D01*
X14084Y1750D02*
X18400D01*
X18350Y2250D02*
Y4450D01*
X14457Y2043D02*
X18143D01*
X18350Y2250D01*
Y4450D02*
X19450Y5550D01*
X19750Y7400D02*
X25000D01*
X18650Y6300D02*
X19750Y7400D01*
X18600Y6250D02*
X18650Y6300D01*
X25000Y7400D02*
X25450Y7850D01*
X25461Y8900D02*
X26700Y10139D01*
X25450Y8900D02*
X25461D01*
X26550Y8800D02*
X27225Y9475D01*
X12600Y6250D02*
X18600Y6250D01*
X10900Y5150D02*
X12000Y6250D01*
X12600D01*
X10200Y5150D02*
X10900D01*
X15400Y9350D02*
X24050D01*
X13700Y7650D02*
X15400Y9350D01*
X27225Y9475D02*
X30957D01*
X32300Y8132D01*
X19500Y13600D02*
X21000D01*
X29400Y24000D02*
X31950Y21450D01*
Y17350D02*
X32700Y16600D01*
X31950Y17350D02*
Y21450D01*
X19750Y23400D02*
X20950Y24600D01*
X29164D01*
X18850Y21250D02*
X21600Y24000D01*
X17550Y21250D02*
X18850D01*
X21600Y24000D02*
X29400D01*
X32300Y12450D02*
X33275Y13425D01*
X29164Y24600D02*
X32257Y21507D01*
Y17493D02*
Y21507D01*
Y17493D02*
X33275Y16475D01*
Y13425D02*
Y16475D01*
X32300Y8132D02*
Y12450D01*
Y1300D02*
Y8132D01*
X32700Y14100D02*
Y16600D01*
X15200Y10450D02*
X15450Y10700D01*
X14150Y13600D02*
X18518D01*
X16150Y14100D02*
X17900D01*
X18518Y13600D02*
X19636Y12483D01*
X18750Y14350D02*
X19500Y13600D01*
X17550Y20650D02*
X18750Y19450D01*
Y14350D02*
Y19450D01*
X27200Y2432D02*
Y7100D01*
X26784Y2016D02*
X27200Y2432D01*
X23416Y2016D02*
X26784D01*
X22000Y600D02*
X23416Y2016D01*
X11333Y11367D02*
Y14117D01*
Y11367D02*
X12250Y10450D01*
X10800Y11900D02*
Y17750D01*
X12250Y10450D02*
X15200D01*
X9400Y19150D02*
Y20050D01*
Y19150D02*
X10800Y17750D01*
X13700Y6850D02*
Y7650D01*
X6100Y15250D02*
X9700D01*
X10250Y15800D01*
X5500Y14650D02*
X6100Y15250D01*
X17550Y20650D02*
Y21250D01*
X10250Y15800D02*
Y16000D01*
G54D13*
X25050Y8900D02*
X25450D01*
X24050Y7900D02*
X25050Y8900D01*
X17050Y7900D02*
X24050D01*
X16500Y8450D02*
X17050Y7900D01*
X14500Y7750D02*
X15200Y8450D01*
X16500D01*
X14500Y6850D02*
Y7750D01*
G54D18*
X11450Y24181D02*
D03*
X12631D02*
D03*
X11450Y23000D02*
D03*
X1649Y18438D02*
D03*
Y19619D02*
D03*
X2830Y18438D02*
D03*
X37450Y13581D02*
D03*
Y12400D02*
D03*
X36269Y13581D02*
D03*
X4900Y5950D02*
D03*
Y8250D02*
D03*
X4950Y10650D02*
D03*
Y15800D02*
D03*
Y13250D02*
D03*
G54D19*
X12631Y23000D02*
D03*
X2830Y19619D02*
D03*
X36269Y12400D02*
D03*
X11800Y1200D02*
D03*
Y5200D02*
D03*
X11900Y20050D02*
D03*
Y16050D02*
D03*
X27300Y11500D02*
D03*
X31300D02*
D03*
X27300Y12800D02*
D03*
X31300D02*
D03*
X13000Y7900D02*
D03*
Y11900D02*
D03*
X14350Y20050D02*
D03*
Y16050D02*
D03*
X11850Y11900D02*
D03*
Y7900D02*
D03*
X14300Y11000D02*
D03*
Y9000D02*
D03*
X15700Y7850D02*
D03*
Y11850D02*
D03*
X30300Y1300D02*
D03*
X28300D02*
D03*
X15300Y1200D02*
D03*
X17300D02*
D03*
X26100D02*
D03*
X24100D02*
D03*
X23900Y13000D02*
D03*
X21900D02*
D03*
X9050Y16000D02*
D03*
X7050D02*
D03*
X13100Y20050D02*
D03*
Y16050D02*
D03*
X15600Y20050D02*
D03*
Y16050D02*
D03*
X6100Y19700D02*
D03*
X10100D02*
D03*
X13000Y1200D02*
D03*
Y5200D02*
D03*
X26100Y6800D02*
D03*
X24100D02*
D03*
X17350Y6850D02*
D03*
X15350D02*
D03*
X17600Y11500D02*
D03*
X18600D02*
D03*
X19600D02*
D03*
X20600D02*
D03*
X21600D02*
D03*
X22600D02*
D03*
X23600D02*
D03*
Y8500D02*
D03*
X22600D02*
D03*
X21600D02*
D03*
X20600D02*
D03*
X19600D02*
D03*
X18600D02*
D03*
X9200Y10550D02*
D03*
X7200D02*
D03*
X6200Y2550D02*
D03*
X10200D02*
D03*
X6200Y1400D02*
D03*
X10200D02*
D03*
X9200Y3800D02*
D03*
X7200D02*
D03*
X9200Y5150D02*
D03*
X7200D02*
D03*
X9100Y17250D02*
D03*
X7100D02*
D03*
X9100Y18500D02*
D03*
X7100D02*
D03*
X30800Y8900D02*
D03*
Y7900D02*
D03*
Y6900D02*
D03*
Y5900D02*
D03*
Y4900D02*
D03*
Y3900D02*
D03*
Y2900D02*
D03*
X27800D02*
D03*
Y3900D02*
D03*
Y4900D02*
D03*
Y5900D02*
D03*
Y6900D02*
D03*
Y7900D02*
D03*
X23600Y19350D02*
D03*
Y23350D02*
D03*
X27350Y17950D02*
D03*
X31350D02*
D03*
X25270Y17800D02*
D03*
Y15750D02*
D03*
X1400Y12800D02*
D03*
X2400D02*
D03*
X1400Y7900D02*
D03*
X2400D02*
D03*
X1400Y15250D02*
D03*
X2400D02*
D03*
X1400Y10350D02*
D03*
X2400D02*
D03*
X1400Y5500D02*
D03*
X2400D02*
D03*
X19600Y1750D02*
D03*
Y2750D02*
D03*
X21950Y1750D02*
D03*
Y2750D02*
D03*
X27350Y16750D02*
D03*
X31350D02*
D03*
X27350Y15550D02*
D03*
X31350D02*
D03*
X16800Y20000D02*
D03*
Y16000D02*
D03*
X31300Y10300D02*
D03*
X27300D02*
D03*
X28350Y14150D02*
D03*
X30350D02*
D03*
X18100Y19050D02*
D03*
Y17050D02*
D03*
X17900Y13000D02*
D03*
X19900D02*
D03*
X19500Y14700D02*
D03*
Y15700D02*
D03*
Y16700D02*
D03*
Y17700D02*
D03*
Y18700D02*
D03*
Y19700D02*
D03*
Y20700D02*
D03*
X22500D02*
D03*
Y19700D02*
D03*
Y18700D02*
D03*
Y17700D02*
D03*
Y16700D02*
D03*
Y15700D02*
D03*
G54D20*
X13812Y22630D02*
D03*
X10269D02*
D03*
X3200Y20800D02*
D03*
Y17257D02*
D03*
X35899Y11219D02*
D03*
Y14762D02*
D03*
G54D38*
X10950Y18850D02*
Y20000D01*
X9150Y21250D02*
X17550D01*
X4400Y14250D02*
X4950D01*
X4150Y14000D02*
X4400Y14250D01*
X4150Y9650D02*
Y14000D01*
Y9650D02*
X4700Y9100D01*
X3000Y3750D02*
X3600Y3150D01*
X10100D01*
X10950Y4000D01*
X11250Y15500D02*
Y18550D01*
X10950Y18850D02*
X11250Y18550D01*
X10950Y4000D02*
Y4600D01*
X11250Y15500D02*
X14250Y12500D01*
Y11900D02*
Y12500D01*
X23600Y17950D02*
X24700Y19050D01*
X23600Y15700D02*
Y17950D01*
X24700Y19050D02*
X26450D01*
X27000Y19600D02*
Y20850D01*
X26450Y19050D02*
X27000Y19600D01*
G54D39*
X4700Y9050D02*
Y9100D01*
X4150Y8500D02*
X4700Y9050D01*
X4150Y4400D02*
Y8500D01*
Y4400D02*
X4750Y3800D01*
G54D40*
X37402Y1969D02*
D03*
X1969Y23622D02*
D03*
Y1969D02*
D03*
G54D41*
X19180Y24436D02*
D03*
X16620D02*
D03*
Y22664D02*
D03*
X19180D02*
D03*
G54D42*
X21300Y6800D02*
D03*
X8700Y9400D02*
D03*
X7700D02*
D03*
Y6400D02*
D03*
X8700D02*
D03*
X9700D02*
D03*
X6700D02*
D03*
Y9400D02*
D03*
X8700Y14600D02*
D03*
X7700D02*
D03*
Y11600D02*
D03*
X8700D02*
D03*
X9700D02*
D03*
X6700D02*
D03*
Y14600D02*
D03*
X27000Y22350D02*
D03*
X25000D02*
D03*
X26000Y23350D02*
D03*
X14800Y4550D02*
D03*
Y3550D02*
D03*
X17800D02*
D03*
Y4550D02*
D03*
Y5550D02*
D03*
Y2550D02*
D03*
X14800D02*
D03*
X23600Y4550D02*
D03*
Y3550D02*
D03*
X26600D02*
D03*
Y4550D02*
D03*
Y5550D02*
D03*
Y2550D02*
D03*
X23600D02*
D03*
G54D43*
X20513Y6800D02*
D03*
X14800Y5550D02*
D03*
X23600D02*
D03*
G54D44*
X17600Y8500D02*
D03*
X19600Y3750D02*
D03*
X21950D02*
D03*
G54D45*
X9700Y9400D02*
D03*
Y14600D02*
D03*
G54D46*
X27800Y8900D02*
D03*
X26240Y17800D02*
D03*
Y15750D02*
D03*
X3400Y12800D02*
D03*
Y7900D02*
D03*
Y15250D02*
D03*
Y10350D02*
D03*
Y5500D02*
D03*
X22500Y14700D02*
D03*
G54D47*
X37950Y23650D02*
D03*
X33226Y18847D02*
D03*
Y23650D02*
D03*
X37950Y18847D02*
D03*
G54D48*
X35588Y18059D02*
D03*
G54D49*
X25150Y10300D02*
D03*
G54D50*
X26150D02*
D03*
X31400Y23400D02*
D03*
Y19400D02*
D03*
X20200Y5200D02*
D03*
X21300D02*
D03*
G54D51*
X29000Y22700D02*
D03*
G54D52*
X28500Y22200D02*
D03*
X29000Y21700D02*
D03*
G54D53*
X4950Y22000D02*
D03*
Y19700D02*
D03*
G54D54*
X10950Y20000D02*
D03*
X13650Y20791D02*
D03*
X9150Y21250D02*
D03*
X12500Y20750D02*
D03*
X22300Y5550D02*
D03*
X14850Y20700D02*
D03*
X25550Y14100D02*
D03*
X26200Y12800D02*
D03*
X26550Y7850D02*
D03*
X21000Y12500D02*
D03*
X5500Y9100D02*
D03*
X4700D02*
D03*
X10900Y2050D02*
D03*
X13950Y5150D02*
D03*
X10800Y10750D02*
D03*
X5500Y11607D02*
D03*
X4950Y14250D02*
D03*
X3950Y1350D02*
D03*
X3000Y3750D02*
D03*
X23900Y14150D02*
D03*
X25450Y8900D02*
D03*
Y7850D02*
D03*
X26550Y8800D02*
D03*
X32700Y14100D02*
D03*
X31350D02*
D03*
X16550Y10050D02*
D03*
X21000Y13600D02*
D03*
X11333Y14117D02*
D03*
X10800Y11900D02*
D03*
X17900Y14100D02*
D03*
X14250Y11900D02*
D03*
X10900Y6900D02*
D03*
X10950Y4600D02*
D03*
X13700Y6850D02*
D03*
X14500D02*
D03*
X17550Y21250D02*
D03*
X32300Y1300D02*
D03*
X10200Y4000D02*
D03*
X19450Y5550D02*
D03*
X10200Y5150D02*
D03*
X18650Y5550D02*
D03*
X10250Y16000D02*
D03*
X4750Y3800D02*
D03*
X27000Y20850D02*
D03*
X23600Y15700D02*
D03*
M02*
