G04*
G04 #@! TF.GenerationSoftware,Altium Limited,Altium Designer,20.0.13 (296)*
G04*
G04 Layer_Color=65535*
%FSLAX24Y24*%
%MOIN*%
G70*
G01*
G75*
%ADD10C,0.0100*%
%ADD11C,0.0079*%
%ADD12C,0.0080*%
%ADD13C,0.0050*%
%ADD14C,0.0090*%
%ADD15R,0.1000X0.0500*%
G36*
X32182Y6800D02*
X32192D01*
X32203D01*
X32214D01*
X32224D01*
X32235D01*
X32246D01*
X32256D01*
X32267D01*
X32278D01*
X32288D01*
X32299D01*
X32309D01*
X32320D01*
X32331D01*
X32341D01*
X32352D01*
X32363D01*
X32373D01*
X32384D01*
X32395D01*
X32405D01*
X32416D01*
X32427D01*
X32437D01*
X32448D01*
X32459D01*
X32469D01*
X32480D01*
X32491D01*
X32501D01*
X32512D01*
X32522D01*
X32533D01*
X32544D01*
X32554D01*
X32565D01*
X32576D01*
X32586D01*
X32597D01*
X32608D01*
X32618D01*
X32629D01*
X32640D01*
X32650D01*
X32661D01*
X32672D01*
X32682D01*
X32693D01*
X32704D01*
X32714D01*
X32725D01*
X32736D01*
X32746D01*
X32757D01*
X32767D01*
X32778D01*
X32789D01*
X32799D01*
X32810D01*
X32821D01*
X32831D01*
X32842D01*
X32853D01*
X32863D01*
X32874D01*
Y6832D01*
X32863D01*
Y6864D01*
X32853D01*
Y6896D01*
X32842D01*
Y6917D01*
X32831D01*
Y6938D01*
X32821D01*
Y6960D01*
X32810D01*
Y6970D01*
X32799D01*
Y6992D01*
X32789D01*
Y7013D01*
X32778D01*
Y7024D01*
X32767D01*
Y7034D01*
X32757D01*
Y7056D01*
X32746D01*
Y7066D01*
X32736D01*
Y7077D01*
X32725D01*
Y7088D01*
X32714D01*
Y7098D01*
X32704D01*
Y7109D01*
X32693D01*
Y7120D01*
X32682D01*
Y7130D01*
X32672D01*
Y7141D01*
X32661D01*
Y7151D01*
X32650D01*
Y7162D01*
X32640D01*
Y7173D01*
X32629D01*
X32618D01*
Y7183D01*
X32608D01*
Y7194D01*
X32597D01*
Y7205D01*
X32586D01*
X32576D01*
Y7215D01*
X32565D01*
Y7226D01*
X32554D01*
X32544D01*
Y7237D01*
X32533D01*
X32522D01*
Y7247D01*
X32512D01*
X32501D01*
Y7258D01*
X32491D01*
X32480D01*
Y7269D01*
X32469D01*
X32459D01*
Y7279D01*
X32448D01*
X32437D01*
X32427D01*
Y7290D01*
X32416D01*
X32405D01*
X32395D01*
Y7301D01*
X32384D01*
X32373D01*
X32363D01*
X32352D01*
Y7311D01*
X32341D01*
X32331D01*
X32320D01*
X32309D01*
X32299D01*
Y7322D01*
X32288D01*
X32278D01*
X32267D01*
X32256D01*
X32246D01*
X32235D01*
X32224D01*
X32214D01*
X32203D01*
X32192D01*
Y7716D01*
X32203D01*
X32214D01*
X32224D01*
X32235D01*
X32246D01*
X32256D01*
X32267D01*
Y7705D01*
X32278D01*
X32288D01*
X32299D01*
X32309D01*
X32320D01*
X32331D01*
X32341D01*
X32352D01*
X32363D01*
X32373D01*
Y7695D01*
X32384D01*
X32395D01*
X32405D01*
X32416D01*
X32427D01*
Y7684D01*
X32437D01*
X32448D01*
X32459D01*
X32469D01*
Y7673D01*
X32480D01*
X32491D01*
X32501D01*
X32512D01*
Y7663D01*
X32522D01*
X32533D01*
X32544D01*
Y7652D01*
X32554D01*
X32565D01*
X32576D01*
Y7641D01*
X32586D01*
X32597D01*
Y7631D01*
X32608D01*
X32618D01*
X32629D01*
Y7620D01*
X32640D01*
X32650D01*
Y7609D01*
X32661D01*
X32672D01*
Y7599D01*
X32682D01*
X32693D01*
Y7588D01*
X32704D01*
X32714D01*
Y7578D01*
X32725D01*
X32736D01*
Y7567D01*
X32746D01*
X32757D01*
Y7556D01*
X32767D01*
Y7546D01*
X32778D01*
X32789D01*
Y7535D01*
X32799D01*
Y7524D01*
X32810D01*
X32821D01*
Y7514D01*
X32831D01*
Y7503D01*
X32842D01*
X32853D01*
Y7492D01*
X32863D01*
Y7482D01*
X32874D01*
Y7471D01*
X32885D01*
Y7460D01*
X32895D01*
X32906D01*
Y7450D01*
X32917D01*
Y7439D01*
X32927D01*
Y7428D01*
X32938D01*
Y7418D01*
X32949D01*
Y7407D01*
X32959D01*
Y7396D01*
X32970D01*
Y7386D01*
X32980D01*
Y7375D01*
X32991D01*
Y7365D01*
X33002D01*
Y7354D01*
X33012D01*
Y7343D01*
X33023D01*
Y7333D01*
X33034D01*
Y7322D01*
X33044D01*
Y7301D01*
X33055D01*
Y7290D01*
X33066D01*
Y7279D01*
X33076D01*
Y7258D01*
X33087D01*
Y7247D01*
X33098D01*
Y7237D01*
X33108D01*
Y7215D01*
X33119D01*
Y7205D01*
X33130D01*
Y7183D01*
X33140D01*
Y7162D01*
X33151D01*
Y7151D01*
X33162D01*
Y7130D01*
X33172D01*
Y7109D01*
X33183D01*
Y7088D01*
X33193D01*
Y7066D01*
X33204D01*
Y7034D01*
X33215D01*
Y7013D01*
X33225D01*
Y6981D01*
X33236D01*
Y6949D01*
X33247D01*
Y6917D01*
X33257D01*
Y6875D01*
X33268D01*
Y6832D01*
X33279D01*
Y6800D01*
X33289D01*
X33300D01*
Y7663D01*
X33311D01*
X33321D01*
X33332D01*
X33343D01*
X33353D01*
X33364D01*
X33375D01*
X33385D01*
X33396D01*
X33407D01*
X33417D01*
X33428D01*
X33438D01*
X33449D01*
X33460D01*
X33470D01*
X33481D01*
X33492D01*
X33502D01*
X33513D01*
X33524D01*
X33534D01*
X33545D01*
X33556D01*
X33566D01*
X33577D01*
X33588D01*
X33598D01*
X33609D01*
X33620D01*
X33630D01*
X33641D01*
X33651D01*
X33662D01*
X33673D01*
X33683D01*
Y6896D01*
X33694D01*
Y6928D01*
X33705D01*
Y6970D01*
X33715D01*
Y6992D01*
X33726D01*
Y7024D01*
X33737D01*
Y7045D01*
X33747D01*
Y7077D01*
X33758D01*
Y7098D01*
X33769D01*
Y7120D01*
X33779D01*
Y7141D01*
X33790D01*
Y7151D01*
X33801D01*
Y7173D01*
X33811D01*
Y7194D01*
X33822D01*
Y7205D01*
X33833D01*
Y7226D01*
X33843D01*
Y7237D01*
X33854D01*
Y7258D01*
X33865D01*
Y7269D01*
X33875D01*
Y7279D01*
X33886D01*
Y7301D01*
X33896D01*
Y7311D01*
X33907D01*
Y7322D01*
X33918D01*
Y7333D01*
X33928D01*
Y7354D01*
X33939D01*
Y7365D01*
X33950D01*
Y7375D01*
X33960D01*
Y7386D01*
X33971D01*
Y7396D01*
X33982D01*
Y7407D01*
X33992D01*
Y7418D01*
X34003D01*
Y7428D01*
X34014D01*
X34024D01*
Y7439D01*
X34035D01*
Y7450D01*
X34046D01*
Y7460D01*
X34056D01*
Y7471D01*
X34067D01*
Y7482D01*
X34078D01*
X34088D01*
Y7492D01*
X34099D01*
Y7503D01*
X34109D01*
Y7514D01*
X34120D01*
X34131D01*
Y7524D01*
X34141D01*
Y7535D01*
X34152D01*
X34163D01*
Y7546D01*
X34173D01*
Y7556D01*
X34184D01*
X34195D01*
Y7567D01*
X34205D01*
X34216D01*
Y7578D01*
X34227D01*
X34237D01*
Y7588D01*
X34248D01*
X34259D01*
Y7599D01*
X34269D01*
X34280D01*
Y7609D01*
X34291D01*
X34301D01*
Y7620D01*
X34312D01*
X34322D01*
Y7631D01*
X34333D01*
X34344D01*
Y7641D01*
X34354D01*
X34365D01*
X34376D01*
Y7652D01*
X34386D01*
X34397D01*
X34408D01*
Y7663D01*
X34418D01*
X34429D01*
X34440D01*
Y7673D01*
X34450D01*
X34461D01*
X34472D01*
X34482D01*
Y7684D01*
X34493D01*
X34504D01*
X34514D01*
X34525D01*
Y7695D01*
X34536D01*
X34546D01*
X34557D01*
X34567D01*
X34578D01*
Y7705D01*
X34589D01*
X34599D01*
X34610D01*
X34621D01*
X34631D01*
X34642D01*
X34653D01*
X34663D01*
X34674D01*
X34685D01*
Y7716D01*
X34695D01*
X34706D01*
X34717D01*
X34727D01*
X34738D01*
Y7322D01*
X34727D01*
X34717D01*
X34706D01*
X34695D01*
X34685D01*
X34674D01*
X34663D01*
X34653D01*
Y7311D01*
X34642D01*
X34631D01*
X34621D01*
X34610D01*
X34599D01*
X34589D01*
Y7301D01*
X34578D01*
X34567D01*
X34557D01*
Y7290D01*
X34546D01*
X34536D01*
X34525D01*
X34514D01*
Y7279D01*
X34504D01*
X34493D01*
Y7269D01*
X34482D01*
X34472D01*
X34461D01*
Y7258D01*
X34450D01*
X34440D01*
Y7247D01*
X34429D01*
X34418D01*
Y7237D01*
X34408D01*
Y7226D01*
X34397D01*
X34386D01*
Y7215D01*
X34376D01*
X34365D01*
Y7205D01*
X34354D01*
Y7194D01*
X34344D01*
X34333D01*
Y7183D01*
X34322D01*
Y7173D01*
X34312D01*
Y7162D01*
X34301D01*
Y7151D01*
X34291D01*
X34280D01*
Y7141D01*
X34269D01*
Y7130D01*
X34259D01*
Y7120D01*
X34248D01*
Y7109D01*
X34237D01*
Y7098D01*
X34227D01*
Y7088D01*
X34216D01*
Y7066D01*
X34205D01*
Y7056D01*
X34195D01*
Y7045D01*
X34184D01*
Y7034D01*
X34173D01*
Y7013D01*
X34163D01*
Y7002D01*
X34152D01*
Y6981D01*
X34141D01*
Y6970D01*
X34131D01*
Y6949D01*
X34120D01*
Y6928D01*
X34109D01*
Y6907D01*
X34099D01*
Y6875D01*
X34088D01*
Y6853D01*
X34078D01*
Y6821D01*
X34067D01*
Y6800D01*
X34078D01*
X34088D01*
X34099D01*
X34109D01*
X34120D01*
X34131D01*
X34141D01*
X34152D01*
X34163D01*
X34173D01*
X34184D01*
X34195D01*
X34205D01*
X34216D01*
X34227D01*
X34237D01*
X34248D01*
X34259D01*
X34269D01*
X34280D01*
X34291D01*
X34301D01*
X34312D01*
X34322D01*
X34333D01*
X34344D01*
X34354D01*
X34365D01*
X34376D01*
X34386D01*
X34397D01*
X34408D01*
X34418D01*
X34429D01*
X34440D01*
X34450D01*
X34461D01*
X34472D01*
X34482D01*
X34493D01*
X34504D01*
X34514D01*
X34525D01*
X34536D01*
X34546D01*
X34557D01*
X34567D01*
X34578D01*
X34589D01*
X34599D01*
X34610D01*
X34621D01*
X34631D01*
X34642D01*
X34653D01*
X34663D01*
X34674D01*
X34685D01*
X34695D01*
X34706D01*
X34717D01*
X34727D01*
X34738D01*
Y6427D01*
X34727D01*
X34717D01*
X34706D01*
X34695D01*
X34685D01*
X34674D01*
X34663D01*
X34653D01*
X34642D01*
X34631D01*
X34621D01*
X34610D01*
X34599D01*
X34589D01*
X34578D01*
X34567D01*
X34557D01*
X34546D01*
X34536D01*
X34525D01*
X34514D01*
X34504D01*
X34493D01*
X34482D01*
X34472D01*
X34461D01*
X34450D01*
X34440D01*
X34429D01*
X34418D01*
X34408D01*
X34397D01*
X34386D01*
X34376D01*
X34365D01*
X34354D01*
X34344D01*
X34333D01*
X34322D01*
X34312D01*
X34301D01*
X34291D01*
X34280D01*
X34269D01*
X34259D01*
X34248D01*
X34237D01*
X34227D01*
X34216D01*
X34205D01*
X34195D01*
X34184D01*
X34173D01*
X34163D01*
X34152D01*
X34141D01*
X34131D01*
X34120D01*
X34109D01*
X34099D01*
X34088D01*
X34078D01*
X34067D01*
Y6406D01*
X34078D01*
Y6374D01*
X34088D01*
Y6353D01*
X34099D01*
Y6321D01*
X34109D01*
Y6299D01*
X34120D01*
Y6278D01*
X34131D01*
Y6257D01*
X34141D01*
Y6246D01*
X34152D01*
Y6225D01*
X34163D01*
Y6214D01*
X34173D01*
Y6193D01*
X34184D01*
Y6182D01*
X34195D01*
Y6172D01*
X34205D01*
Y6150D01*
X34216D01*
Y6140D01*
X34227D01*
Y6129D01*
X34237D01*
Y6118D01*
X34248D01*
Y6108D01*
X34259D01*
Y6097D01*
X34269D01*
Y6086D01*
X34280D01*
Y6076D01*
X34291D01*
Y6065D01*
X34301D01*
X34312D01*
Y6054D01*
X34322D01*
Y6044D01*
X34333D01*
Y6033D01*
X34344D01*
X34354D01*
Y6022D01*
X34365D01*
Y6012D01*
X34376D01*
X34386D01*
Y6001D01*
X34397D01*
Y5991D01*
X34408D01*
X34418D01*
Y5980D01*
X34429D01*
X34440D01*
Y5969D01*
X34450D01*
X34461D01*
Y5959D01*
X34472D01*
X34482D01*
X34493D01*
Y5948D01*
X34504D01*
X34514D01*
Y5937D01*
X34525D01*
X34536D01*
X34546D01*
Y5927D01*
X34557D01*
X34567D01*
X34578D01*
X34589D01*
Y5916D01*
X34599D01*
X34610D01*
X34621D01*
X34631D01*
X34642D01*
X34653D01*
Y5905D01*
X34663D01*
X34674D01*
X34685D01*
X34695D01*
X34706D01*
X34717D01*
X34727D01*
X34738D01*
Y5533D01*
X34727D01*
X34717D01*
X34706D01*
X34695D01*
X34685D01*
X34674D01*
X34663D01*
X34653D01*
X34642D01*
X34631D01*
X34621D01*
X34610D01*
X34599D01*
X34589D01*
X34578D01*
X34567D01*
X34557D01*
X34546D01*
X34536D01*
X34525D01*
X34514D01*
Y5543D01*
X34504D01*
X34493D01*
X34482D01*
X34472D01*
Y5554D01*
X34461D01*
X34450D01*
X34440D01*
Y5565D01*
X34429D01*
X34418D01*
X34408D01*
X34397D01*
Y5575D01*
X34386D01*
X34376D01*
Y5586D01*
X34365D01*
X34354D01*
X34344D01*
Y5596D01*
X34333D01*
X34322D01*
Y5607D01*
X34312D01*
X34301D01*
X34291D01*
Y5618D01*
X34280D01*
X34269D01*
Y5628D01*
X34259D01*
X34248D01*
Y5639D01*
X34237D01*
X34227D01*
Y5650D01*
X34216D01*
Y5660D01*
X34205D01*
X34195D01*
Y5671D01*
X34184D01*
X34173D01*
Y5682D01*
X34163D01*
Y5692D01*
X34152D01*
X34141D01*
Y5703D01*
X34131D01*
Y5714D01*
X34120D01*
X34109D01*
Y5724D01*
X34099D01*
Y5735D01*
X34088D01*
X34078D01*
Y5746D01*
X34067D01*
Y5756D01*
X34056D01*
Y5767D01*
X34046D01*
Y5778D01*
X34035D01*
Y5788D01*
X34024D01*
X34014D01*
Y5799D01*
X34003D01*
Y5809D01*
X33992D01*
Y5820D01*
X33982D01*
Y5831D01*
X33971D01*
Y5841D01*
X33960D01*
Y5852D01*
X33950D01*
Y5863D01*
X33939D01*
Y5873D01*
X33928D01*
Y5895D01*
X33918D01*
Y5905D01*
X33907D01*
Y5916D01*
X33896D01*
Y5927D01*
X33886D01*
Y5937D01*
X33875D01*
Y5959D01*
X33865D01*
Y5969D01*
X33854D01*
Y5991D01*
X33843D01*
Y6001D01*
X33833D01*
Y6022D01*
X33822D01*
Y6033D01*
X33811D01*
Y6054D01*
X33801D01*
Y6065D01*
X33790D01*
Y6086D01*
X33779D01*
Y6108D01*
X33769D01*
Y6129D01*
X33758D01*
Y6150D01*
X33747D01*
Y6172D01*
X33737D01*
Y6204D01*
X33726D01*
Y6225D01*
X33715D01*
Y6257D01*
X33705D01*
Y6289D01*
X33694D01*
Y6331D01*
X33683D01*
Y5565D01*
X33673D01*
X33662D01*
X33651D01*
X33641D01*
X33630D01*
X33620D01*
X33609D01*
X33598D01*
X33588D01*
X33577D01*
X33566D01*
X33556D01*
X33545D01*
X33534D01*
X33524D01*
X33513D01*
X33502D01*
X33492D01*
X33481D01*
X33470D01*
X33460D01*
X33449D01*
X33438D01*
X33428D01*
X33417D01*
X33407D01*
X33396D01*
X33385D01*
X33375D01*
X33364D01*
X33353D01*
X33343D01*
X33332D01*
X33321D01*
X33311D01*
X33300D01*
Y6427D01*
X33289D01*
X33279D01*
Y6406D01*
X33268D01*
Y6353D01*
X33257D01*
Y6310D01*
X33247D01*
Y6278D01*
X33236D01*
Y6246D01*
X33225D01*
Y6214D01*
X33215D01*
Y6193D01*
X33204D01*
Y6161D01*
X33193D01*
Y6140D01*
X33183D01*
Y6118D01*
X33172D01*
Y6097D01*
X33162D01*
Y6076D01*
X33151D01*
Y6065D01*
X33140D01*
Y6044D01*
X33130D01*
Y6022D01*
X33119D01*
Y6012D01*
X33108D01*
Y5991D01*
X33098D01*
Y5980D01*
X33087D01*
Y5959D01*
X33076D01*
Y5948D01*
X33066D01*
Y5937D01*
X33055D01*
Y5927D01*
X33044D01*
Y5905D01*
X33034D01*
Y5895D01*
X33023D01*
Y5884D01*
X33012D01*
Y5873D01*
X33002D01*
Y5863D01*
X32991D01*
Y5852D01*
X32980D01*
Y5841D01*
X32970D01*
Y5831D01*
X32959D01*
Y5820D01*
X32949D01*
Y5809D01*
X32938D01*
Y5799D01*
X32927D01*
Y5788D01*
X32917D01*
Y5778D01*
X32906D01*
Y5767D01*
X32895D01*
Y5756D01*
X32885D01*
X32874D01*
Y5746D01*
X32863D01*
Y5735D01*
X32853D01*
Y5724D01*
X32842D01*
X32831D01*
Y5714D01*
X32821D01*
Y5703D01*
X32810D01*
X32799D01*
Y5692D01*
X32789D01*
Y5682D01*
X32778D01*
X32767D01*
Y5671D01*
X32757D01*
Y5660D01*
X32746D01*
X32736D01*
Y5650D01*
X32725D01*
X32714D01*
Y5639D01*
X32704D01*
X32693D01*
Y5628D01*
X32682D01*
X32672D01*
Y5618D01*
X32661D01*
X32650D01*
Y5607D01*
X32640D01*
X32629D01*
Y5596D01*
X32618D01*
X32608D01*
X32597D01*
Y5586D01*
X32586D01*
X32576D01*
Y5575D01*
X32565D01*
X32554D01*
X32544D01*
Y5565D01*
X32533D01*
X32522D01*
X32512D01*
Y5554D01*
X32501D01*
X32491D01*
X32480D01*
X32469D01*
Y5543D01*
X32459D01*
X32448D01*
X32437D01*
X32427D01*
Y5533D01*
X32416D01*
X32405D01*
X32395D01*
X32384D01*
X32373D01*
X32363D01*
X32352D01*
X32341D01*
X32331D01*
X32320D01*
X32309D01*
X32299D01*
X32288D01*
X32278D01*
X32267D01*
X32256D01*
X32246D01*
X32235D01*
X32224D01*
X32214D01*
X32203D01*
X32192D01*
Y5905D01*
X32203D01*
X32214D01*
X32224D01*
X32235D01*
X32246D01*
X32256D01*
X32267D01*
X32278D01*
X32288D01*
X32299D01*
Y5916D01*
X32309D01*
X32320D01*
X32331D01*
X32341D01*
X32352D01*
Y5927D01*
X32363D01*
X32373D01*
X32384D01*
X32395D01*
Y5937D01*
X32405D01*
X32416D01*
X32427D01*
Y5948D01*
X32437D01*
X32448D01*
X32459D01*
Y5959D01*
X32469D01*
X32480D01*
Y5969D01*
X32491D01*
X32501D01*
Y5980D01*
X32512D01*
X32522D01*
Y5991D01*
X32533D01*
X32544D01*
Y6001D01*
X32554D01*
X32565D01*
Y6012D01*
X32576D01*
Y6022D01*
X32586D01*
X32597D01*
Y6033D01*
X32608D01*
Y6044D01*
X32618D01*
X32629D01*
Y6054D01*
X32640D01*
Y6065D01*
X32650D01*
Y6076D01*
X32661D01*
Y6086D01*
X32672D01*
Y6097D01*
X32682D01*
Y6108D01*
X32693D01*
Y6118D01*
X32704D01*
Y6129D01*
X32714D01*
Y6140D01*
X32725D01*
Y6150D01*
X32736D01*
Y6161D01*
X32746D01*
Y6172D01*
X32757D01*
Y6193D01*
X32767D01*
Y6204D01*
X32778D01*
Y6214D01*
X32789D01*
Y6235D01*
X32799D01*
Y6257D01*
X32810D01*
Y6267D01*
X32821D01*
Y6289D01*
X32831D01*
Y6310D01*
X32842D01*
Y6331D01*
X32853D01*
Y6363D01*
X32863D01*
Y6395D01*
X32874D01*
Y6427D01*
X32863D01*
X32853D01*
X32842D01*
X32831D01*
X32821D01*
X32810D01*
X32799D01*
X32789D01*
X32778D01*
X32767D01*
X32757D01*
X32746D01*
X32736D01*
X32725D01*
X32714D01*
X32704D01*
X32693D01*
X32682D01*
X32672D01*
X32661D01*
X32650D01*
X32640D01*
X32629D01*
X32618D01*
X32608D01*
X32597D01*
X32586D01*
X32576D01*
X32565D01*
X32554D01*
X32544D01*
X32533D01*
X32522D01*
X32512D01*
X32501D01*
X32491D01*
X32480D01*
X32469D01*
X32459D01*
X32448D01*
X32437D01*
X32427D01*
X32416D01*
X32405D01*
X32395D01*
X32384D01*
X32373D01*
X32363D01*
X32352D01*
X32341D01*
X32331D01*
X32320D01*
X32309D01*
X32299D01*
X32288D01*
X32278D01*
X32267D01*
X32256D01*
X32246D01*
X32235D01*
X32224D01*
X32214D01*
X32203D01*
X32192D01*
X32182D01*
X32171D01*
Y6800D01*
X32182D01*
D02*
G37*
G54D10*
X21700Y5200D02*
X21687Y5299D01*
X21651Y5393D01*
X21592Y5474D01*
X21514Y5538D01*
X21424Y5580D01*
X21325Y5599D01*
X21225Y5593D01*
X21130Y5562D01*
X21045Y5508D01*
X20976Y5435D01*
X20928Y5347D01*
X20903Y5250D01*
Y5150D01*
X20928Y5053D01*
X20976Y4965D01*
X21045Y4892D01*
X21130Y4838D01*
X21225Y4807D01*
X21325Y4801D01*
X21424Y4820D01*
X21514Y4862D01*
X21592Y4926D01*
X21651Y5007D01*
X21687Y5101D01*
X21700Y5200D01*
X20650Y5200D02*
X20639Y5300D01*
X20605Y5395D01*
X20552Y5481D01*
X20481Y5552D01*
X20395Y5605D01*
X20300Y5639D01*
X20200Y5650D01*
X20100Y5639D01*
X20005Y5605D01*
X19919Y5552D01*
X19848Y5481D01*
X19795Y5395D01*
X19761Y5300D01*
X19750Y5200D01*
X19761Y5100D01*
X19795Y5005D01*
X19848Y4919D01*
X19919Y4848D01*
X20005Y4795D01*
X20100Y4761D01*
X20200Y4750D01*
X20300Y4761D01*
X20395Y4795D01*
X20481Y4848D01*
X20552Y4919D01*
X20605Y5005D01*
X20639Y5100D01*
X20650Y5200D01*
X5350Y8250D02*
X5339Y8350D01*
X5305Y8445D01*
X5252Y8531D01*
X5181Y8602D01*
X5095Y8655D01*
X5000Y8689D01*
X4900Y8700D01*
X4800Y8689D01*
X4705Y8655D01*
X4619Y8602D01*
X4548Y8531D01*
X4495Y8445D01*
X4461Y8350D01*
X4450Y8250D01*
X4461Y8150D01*
X4495Y8055D01*
X4548Y7969D01*
X4619Y7898D01*
X4705Y7845D01*
X4800Y7811D01*
X4900Y7800D01*
X5000Y7811D01*
X5095Y7845D01*
X5181Y7898D01*
X5252Y7969D01*
X5305Y8055D01*
X5339Y8150D01*
X5350Y8250D01*
X5353Y5950D02*
X5341Y6051D01*
X5308Y6146D01*
X5254Y6232D01*
X5182Y6304D01*
X5096Y6358D01*
X5001Y6391D01*
X4900Y6403D01*
X4799Y6391D01*
X4704Y6358D01*
X4618Y6304D01*
X4546Y6232D01*
X4492Y6146D01*
X4459Y6051D01*
X4447Y5950D01*
X4459Y5849D01*
X4492Y5754D01*
X4546Y5668D01*
X4618Y5596D01*
X4704Y5542D01*
X4799Y5509D01*
X4900Y5497D01*
X5001Y5509D01*
X5096Y5542D01*
X5182Y5596D01*
X5254Y5668D01*
X5308Y5754D01*
X5341Y5849D01*
X5353Y5950D01*
X5400Y10650D02*
X5389Y10750D01*
X5355Y10845D01*
X5302Y10931D01*
X5231Y11002D01*
X5145Y11055D01*
X5050Y11089D01*
X4950Y11100D01*
X4850Y11089D01*
X4755Y11055D01*
X4669Y11002D01*
X4598Y10931D01*
X4545Y10845D01*
X4511Y10750D01*
X4500Y10650D01*
X4511Y10550D01*
X4545Y10455D01*
X4598Y10369D01*
X4669Y10298D01*
X4755Y10245D01*
X4850Y10211D01*
X4950Y10200D01*
X5050Y10211D01*
X5145Y10245D01*
X5231Y10298D01*
X5302Y10369D01*
X5355Y10455D01*
X5389Y10550D01*
X5400Y10650D01*
Y13250D02*
X5389Y13350D01*
X5355Y13445D01*
X5302Y13531D01*
X5231Y13602D01*
X5145Y13655D01*
X5050Y13689D01*
X4950Y13700D01*
X4850Y13689D01*
X4755Y13655D01*
X4669Y13602D01*
X4598Y13531D01*
X4545Y13445D01*
X4511Y13350D01*
X4500Y13250D01*
X4511Y13150D01*
X4545Y13055D01*
X4598Y12969D01*
X4669Y12898D01*
X4755Y12845D01*
X4850Y12811D01*
X4950Y12800D01*
X5050Y12811D01*
X5145Y12845D01*
X5231Y12898D01*
X5302Y12969D01*
X5355Y13055D01*
X5389Y13150D01*
X5400Y13250D01*
Y15800D02*
X5389Y15900D01*
X5355Y15995D01*
X5302Y16081D01*
X5231Y16152D01*
X5145Y16205D01*
X5050Y16239D01*
X4950Y16250D01*
X4850Y16239D01*
X4755Y16205D01*
X4669Y16152D01*
X4598Y16081D01*
X4545Y15995D01*
X4511Y15900D01*
X4500Y15800D01*
X4511Y15700D01*
X4545Y15605D01*
X4598Y15519D01*
X4669Y15448D01*
X4755Y15395D01*
X4850Y15361D01*
X4950Y15350D01*
X5050Y15361D01*
X5145Y15395D01*
X5231Y15448D01*
X5302Y15519D01*
X5355Y15605D01*
X5389Y15700D01*
X5400Y15800D01*
X18400Y23550D02*
X18390Y23651D01*
X18359Y23747D01*
X18310Y23836D01*
X18244Y23912D01*
X18164Y23974D01*
X18074Y24019D01*
X17976Y24044D01*
X17875Y24049D01*
X17775Y24034D01*
X17680Y23999D01*
X17594Y23945D01*
X17521Y23876D01*
X17463Y23793D01*
X17423Y23700D01*
X17403Y23601D01*
Y23499D01*
X17423Y23400D01*
X17463Y23307D01*
X17521Y23224D01*
X17594Y23155D01*
X17680Y23101D01*
X17775Y23066D01*
X17875Y23051D01*
X17976Y23056D01*
X18074Y23081D01*
X18164Y23126D01*
X18244Y23188D01*
X18310Y23264D01*
X18359Y23353D01*
X18390Y23449D01*
X18400Y23550D01*
X22006Y6800D02*
X22002Y6900D01*
X21988Y6999D01*
X21966Y7097D01*
X21934Y7192D01*
X21894Y7284D01*
X21846Y7372D01*
X21790Y7455D01*
X21727Y7532D01*
X21657Y7604D01*
X21581Y7669D01*
X21499Y7727D01*
X21412Y7777D01*
X21321Y7819D01*
X21227Y7852D01*
X21130Y7877D01*
X21031Y7893D01*
X20931Y7900D01*
X20831Y7897D01*
X20732Y7886D01*
X20634Y7866D01*
X20538Y7836D01*
X20445Y7799D01*
X20356Y7753D01*
X20272Y7699D01*
X20193Y7637D01*
X20120Y7569D01*
X20053Y7494D01*
X19993Y7414D01*
X19941Y7328D01*
X19897Y7238D01*
X19862Y7145D01*
X19835Y7048D01*
X19817Y6950D01*
X19807Y6850D01*
Y6750D01*
X19817Y6650D01*
X19835Y6552D01*
X19862Y6455D01*
X19897Y6362D01*
X19941Y6272D01*
X19993Y6186D01*
X20053Y6106D01*
X20120Y6031D01*
X20193Y5963D01*
X20272Y5901D01*
X20356Y5847D01*
X20445Y5801D01*
X20538Y5764D01*
X20634Y5734D01*
X20732Y5714D01*
X20831Y5703D01*
X20931Y5700D01*
X21031Y5707D01*
X21130Y5723D01*
X21227Y5748D01*
X21321Y5781D01*
X21412Y5823D01*
X21499Y5873D01*
X21581Y5931D01*
X21657Y5996D01*
X21727Y6068D01*
X21790Y6145D01*
X21846Y6228D01*
X21894Y6316D01*
X21934Y6408D01*
X21966Y6503D01*
X21988Y6601D01*
X22002Y6700D01*
X22006Y6800D01*
X1150Y13400D02*
X1131Y13496D01*
X1077Y13577D01*
X996Y13631D01*
X900Y13650D01*
X804Y13631D01*
X723Y13577D01*
X669Y13496D01*
X650Y13400D01*
X669Y13304D01*
X723Y13223D01*
X804Y13169D01*
X900Y13150D01*
X996Y13169D01*
X1077Y13223D01*
X1131Y13304D01*
X1150Y13400D01*
Y8500D02*
X1131Y8596D01*
X1077Y8677D01*
X996Y8731D01*
X900Y8750D01*
X804Y8731D01*
X723Y8677D01*
X669Y8596D01*
X650Y8500D01*
X669Y8404D01*
X723Y8323D01*
X804Y8269D01*
X900Y8250D01*
X996Y8269D01*
X1077Y8323D01*
X1131Y8404D01*
X1150Y8500D01*
Y15850D02*
X1131Y15946D01*
X1077Y16027D01*
X996Y16081D01*
X900Y16100D01*
X804Y16081D01*
X723Y16027D01*
X669Y15946D01*
X650Y15850D01*
X669Y15754D01*
X723Y15673D01*
X804Y15619D01*
X900Y15600D01*
X996Y15619D01*
X1077Y15673D01*
X1131Y15754D01*
X1150Y15850D01*
Y10950D02*
X1131Y11046D01*
X1077Y11127D01*
X996Y11181D01*
X900Y11200D01*
X804Y11181D01*
X723Y11127D01*
X669Y11046D01*
X650Y10950D01*
X669Y10854D01*
X723Y10773D01*
X804Y10719D01*
X900Y10700D01*
X996Y10719D01*
X1077Y10773D01*
X1131Y10854D01*
X1150Y10950D01*
Y6100D02*
X1131Y6196D01*
X1077Y6277D01*
X996Y6331D01*
X900Y6350D01*
X804Y6331D01*
X723Y6277D01*
X669Y6196D01*
X650Y6100D01*
X669Y6004D01*
X723Y5923D01*
X804Y5869D01*
X900Y5850D01*
X996Y5869D01*
X1077Y5923D01*
X1131Y6004D01*
X1150Y6100D01*
X19250Y1250D02*
X19231Y1346D01*
X19177Y1427D01*
X19096Y1481D01*
X19000Y1500D01*
X18904Y1481D01*
X18823Y1427D01*
X18769Y1346D01*
X18750Y1250D01*
X18769Y1154D01*
X18823Y1073D01*
X18904Y1019D01*
X19000Y1000D01*
X19096Y1019D01*
X19177Y1073D01*
X19231Y1154D01*
X19250Y1250D01*
X21600D02*
X21581Y1346D01*
X21527Y1427D01*
X21446Y1481D01*
X21350Y1500D01*
X21254Y1481D01*
X21173Y1427D01*
X21119Y1346D01*
X21100Y1250D01*
X21119Y1154D01*
X21173Y1073D01*
X21254Y1019D01*
X21350Y1000D01*
X21446Y1019D01*
X21527Y1073D01*
X21581Y1154D01*
X21600Y1250D01*
X35250Y9550D02*
X35750D01*
X35583Y9383D01*
X35750Y9217D01*
X35250D01*
X35750Y8800D02*
Y8967D01*
X35667Y9050D01*
X35333D01*
X35250Y8967D01*
Y8800D01*
X35333Y8717D01*
X35667D01*
X35750Y8800D01*
Y8550D02*
Y8217D01*
Y8384D01*
X35250D01*
X35750Y7801D02*
Y7967D01*
X35667Y8050D01*
X35333D01*
X35250Y7967D01*
Y7801D01*
X35333Y7717D01*
X35667D01*
X35750Y7801D01*
X35250Y7551D02*
X35750D01*
Y7301D01*
X35667Y7217D01*
X35500D01*
X35417Y7301D01*
Y7551D01*
Y7384D02*
X35250Y7217D01*
X35667Y6718D02*
X35750Y6801D01*
Y6967D01*
X35667Y7051D01*
X35583D01*
X35500Y6967D01*
Y6801D01*
X35417Y6718D01*
X35333D01*
X35250Y6801D01*
Y6967D01*
X35333Y7051D01*
X35250Y6551D02*
X35750D01*
Y6301D01*
X35667Y6218D01*
X35500D01*
X35417Y6301D01*
Y6551D01*
X35750Y5801D02*
Y5968D01*
X35667Y6051D01*
X35333D01*
X35250Y5968D01*
Y5801D01*
X35333Y5718D01*
X35667D01*
X35750Y5801D01*
X35250Y5551D02*
X35750D01*
Y5301D01*
X35667Y5218D01*
X35500D01*
X35417Y5301D01*
Y5551D01*
Y5385D02*
X35250Y5218D01*
X35750Y5051D02*
Y4718D01*
Y4885D01*
X35250D01*
X35750Y4052D02*
X35333D01*
X35250Y3968D01*
Y3802D01*
X35333Y3719D01*
X35750D01*
Y3552D02*
Y3219D01*
Y3385D01*
X35250D01*
Y3052D02*
X35750D01*
X35250Y2719D01*
X35750D01*
X36750Y8950D02*
Y9350D01*
X36450D01*
Y9150D01*
Y9350D01*
X36150D01*
X36750Y8450D02*
Y8650D01*
X36650Y8750D01*
X36250D01*
X36150Y8650D01*
Y8450D01*
X36250Y8350D01*
X36650D01*
X36750Y8450D01*
X36150Y8150D02*
X36750D01*
Y7850D01*
X36650Y7751D01*
X36450D01*
X36350Y7850D01*
Y8150D01*
Y7950D02*
X36150Y7751D01*
Y7551D02*
X36750D01*
X36550Y7351D01*
X36750Y7151D01*
X36150D01*
X36750Y6951D02*
X36250D01*
X36150Y6851D01*
Y6651D01*
X36250Y6551D01*
X36750D01*
Y6351D02*
X36150D01*
Y5951D01*
Y5751D02*
X36550D01*
X36750Y5551D01*
X36550Y5351D01*
X36150D01*
X36450D01*
Y5751D01*
X36650Y4152D02*
X36750Y4252D01*
Y4452D01*
X36650Y4552D01*
X36550D01*
X36450Y4452D01*
Y4252D01*
X36350Y4152D01*
X36250D01*
X36150Y4252D01*
Y4452D01*
X36250Y4552D01*
X36150Y3952D02*
X36550D01*
X36750Y3752D01*
X36550Y3552D01*
X36150D01*
X36450D01*
Y3952D01*
X36750Y2952D02*
Y3352D01*
X36150D01*
Y2952D01*
X36450Y3352D02*
Y3152D01*
X35017Y15467D02*
X35100Y15550D01*
Y15717D01*
X35017Y15800D01*
X34683D01*
X34600Y15717D01*
Y15550D01*
X34683Y15467D01*
X35100Y15050D02*
Y15217D01*
X35017Y15300D01*
X34683D01*
X34600Y15217D01*
Y15050D01*
X34683Y14967D01*
X35017D01*
X35100Y15050D01*
X34600Y14800D02*
X35100D01*
X34933Y14634D01*
X35100Y14467D01*
X34600D01*
Y13650D02*
X35100D01*
X34600Y13317D01*
X35100D01*
X34600Y13150D02*
X34933D01*
X35100Y12984D01*
X34933Y12817D01*
X34600D01*
X34850D01*
Y13150D01*
X34600Y11650D02*
X35100D01*
X34600Y11317D01*
X35100D01*
X35017Y10817D02*
X35100Y10900D01*
Y11067D01*
X35017Y11150D01*
X34683D01*
X34600Y11067D01*
Y10900D01*
X34683Y10817D01*
X38600Y9350D02*
Y9550D01*
Y9450D01*
X38100D01*
X38000Y9550D01*
Y9650D01*
X38100Y9750D01*
X38600Y8750D02*
Y9150D01*
X38300D01*
X38400Y8950D01*
Y8850D01*
X38300Y8750D01*
X38100D01*
X38000Y8850D01*
Y9050D01*
X38100Y9150D01*
X31900Y9300D02*
Y8800D01*
X32000Y8700D01*
X32200D01*
X32300Y8800D01*
Y9300D01*
X32900D02*
X32700Y9200D01*
X32500Y9000D01*
Y8800D01*
X32600Y8700D01*
X32800D01*
X32900Y8800D01*
Y8900D01*
X32800Y9000D01*
X32500D01*
X15600Y5050D02*
Y4550D01*
X15700Y4450D01*
X15900D01*
X16000Y4550D01*
Y5050D01*
X16600D02*
X16200D01*
Y4750D01*
X16400Y4850D01*
X16500D01*
X16600Y4750D01*
Y4550D01*
X16500Y4450D01*
X16300D01*
X16200Y4550D01*
X25200Y12000D02*
X24700D01*
X24600Y11900D01*
Y11700D01*
X24700Y11600D01*
X25200D01*
X24600Y11100D02*
X25200D01*
X24900Y11400D01*
Y11000D01*
X11200Y13600D02*
X10700D01*
X10600Y13500D01*
Y13300D01*
X10700Y13200D01*
X11200D01*
X11100Y13000D02*
X11200Y12900D01*
Y12700D01*
X11100Y12600D01*
X11000D01*
X10900Y12700D01*
Y12800D01*
Y12700D01*
X10800Y12600D01*
X10700D01*
X10600Y12700D01*
Y12900D01*
X10700Y13000D01*
X11150Y8450D02*
X10650D01*
X10550Y8350D01*
Y8150D01*
X10650Y8050D01*
X11150D01*
X10550Y7450D02*
Y7850D01*
X10950Y7450D01*
X11050D01*
X11150Y7550D01*
Y7750D01*
X11050Y7850D01*
X20500Y22200D02*
Y21700D01*
X20600Y21600D01*
X20800D01*
X20900Y21700D01*
Y22200D01*
X21100Y21600D02*
X21300D01*
X21200D01*
Y22200D01*
X21100Y22100D01*
X28450Y24600D02*
X28850D01*
X28650D01*
Y24000D01*
X29450D02*
X29050D01*
X29450Y24400D01*
Y24500D01*
X29350Y24600D01*
X29150D01*
X29050Y24500D01*
X25500Y24600D02*
X25900D01*
X25700D01*
Y24000D01*
X26100D02*
X26300D01*
X26200D01*
Y24600D01*
X26100Y24500D01*
X20300Y24550D02*
X20200Y24650D01*
X20000D01*
X19900Y24550D01*
Y24450D01*
X20000Y24350D01*
X20200D01*
X20300Y24250D01*
Y24150D01*
X20200Y24050D01*
X20000D01*
X19900Y24150D01*
X20500Y24050D02*
X20700D01*
X20600D01*
Y24650D01*
X20500Y24550D01*
X36367Y16700D02*
Y17200D01*
X36617D01*
X36700Y17117D01*
Y16950D01*
X36617Y16867D01*
X36367D01*
X36534D02*
X36700Y16700D01*
X37200Y17200D02*
X36867D01*
Y16700D01*
X37200D01*
X36867Y16950D02*
X37033D01*
X37367Y17200D02*
Y16700D01*
X37700D01*
X38200Y17200D02*
X37867D01*
Y16700D01*
X38200D01*
X37867Y16950D02*
X38033D01*
X38366Y16700D02*
X38533D01*
X38450D01*
Y17200D01*
X38366Y17117D01*
X31850Y10000D02*
Y10600D01*
X32150D01*
X32250Y10500D01*
Y10300D01*
X32150Y10200D01*
X31850D01*
X32050D02*
X32250Y10000D01*
X32850D02*
X32450D01*
X32850Y10400D01*
Y10500D01*
X32750Y10600D01*
X32550D01*
X32450Y10500D01*
X33050Y10600D02*
X33450D01*
Y10500D01*
X33050Y10100D01*
Y10000D01*
X31850Y12500D02*
Y13100D01*
X32150D01*
X32250Y13000D01*
Y12800D01*
X32150Y12700D01*
X31850D01*
X32050D02*
X32250Y12500D01*
X32850D02*
X32450D01*
X32850Y12900D01*
Y13000D01*
X32750Y13100D01*
X32550D01*
X32450Y13000D01*
X33450Y13100D02*
X33050D01*
Y12800D01*
X33250Y12900D01*
X33350D01*
X33450Y12800D01*
Y12600D01*
X33350Y12500D01*
X33150D01*
X33050Y12600D01*
X12700Y7100D02*
X13300D01*
Y6800D01*
X13200Y6700D01*
X13000D01*
X12900Y6800D01*
Y7100D01*
Y6900D02*
X12700Y6700D01*
Y6100D02*
Y6500D01*
X13100Y6100D01*
X13200D01*
X13300Y6200D01*
Y6400D01*
X13200Y6500D01*
X12700Y5900D02*
Y5700D01*
Y5800D01*
X13300D01*
X13200Y5900D01*
X31850Y11250D02*
Y11850D01*
X32150D01*
X32250Y11750D01*
Y11550D01*
X32150Y11450D01*
X31850D01*
X32050D02*
X32250Y11250D01*
X32850D02*
X32450D01*
X32850Y11650D01*
Y11750D01*
X32750Y11850D01*
X32550D01*
X32450Y11750D01*
X33050D02*
X33150Y11850D01*
X33350D01*
X33450Y11750D01*
Y11350D01*
X33350Y11250D01*
X33150D01*
X33050Y11350D01*
Y11750D01*
X7300Y20250D02*
Y20850D01*
X7600D01*
X7700Y20750D01*
Y20550D01*
X7600Y20450D01*
X7300D01*
X7500D02*
X7700Y20250D01*
X7900D02*
X8100D01*
X8000D01*
Y20850D01*
X7900Y20750D01*
X8400D02*
X8500Y20850D01*
X8700D01*
X8800Y20750D01*
Y20650D01*
X8700Y20550D01*
X8800Y20450D01*
Y20350D01*
X8700Y20250D01*
X8500D01*
X8400Y20350D01*
Y20450D01*
X8500Y20550D01*
X8400Y20650D01*
Y20750D01*
X8500Y20550D02*
X8700D01*
X4150Y2300D02*
Y2900D01*
X4450D01*
X4550Y2800D01*
Y2600D01*
X4450Y2500D01*
X4150D01*
X4350D02*
X4550Y2300D01*
X4750D02*
X4950D01*
X4850D01*
Y2900D01*
X4750Y2800D01*
X5250D02*
X5350Y2900D01*
X5550D01*
X5650Y2800D01*
Y2700D01*
X5550Y2600D01*
X5450D01*
X5550D01*
X5650Y2500D01*
Y2400D01*
X5550Y2300D01*
X5350D01*
X5250Y2400D01*
X4600Y1100D02*
Y1700D01*
X4900D01*
X5000Y1600D01*
Y1400D01*
X4900Y1300D01*
X4600D01*
X4800D02*
X5000Y1100D01*
X5200Y1200D02*
X5300Y1100D01*
X5500D01*
X5600Y1200D01*
Y1600D01*
X5500Y1700D01*
X5300D01*
X5200Y1600D01*
Y1500D01*
X5300Y1400D01*
X5600D01*
X11500Y6750D02*
X12100D01*
Y6450D01*
X12000Y6350D01*
X11800D01*
X11700Y6450D01*
Y6750D01*
Y6550D02*
X11500Y6350D01*
X12000Y6150D02*
X12100Y6050D01*
Y5850D01*
X12000Y5750D01*
X11900D01*
X11800Y5850D01*
X11700Y5750D01*
X11600D01*
X11500Y5850D01*
Y6050D01*
X11600Y6150D01*
X11700D01*
X11800Y6050D01*
X11900Y6150D01*
X12000D01*
X11800Y6050D02*
Y5850D01*
X27300Y18650D02*
Y19250D01*
X27600D01*
X27700Y19150D01*
Y18950D01*
X27600Y18850D01*
X27300D01*
X27500D02*
X27700Y18650D01*
X28300Y19250D02*
X27900D01*
Y18950D01*
X28100Y19050D01*
X28200D01*
X28300Y18950D01*
Y18750D01*
X28200Y18650D01*
X28000D01*
X27900Y18750D01*
X31850Y15250D02*
Y15850D01*
X32150D01*
X32250Y15750D01*
Y15550D01*
X32150Y15450D01*
X31850D01*
X32050D02*
X32250Y15250D01*
X32750D02*
Y15850D01*
X32450Y15550D01*
X32850D01*
X23050Y24050D02*
Y24650D01*
X23350D01*
X23450Y24550D01*
Y24350D01*
X23350Y24250D01*
X23050D01*
X23250D02*
X23450Y24050D01*
X24050D02*
X23650D01*
X24050Y24450D01*
Y24550D01*
X23950Y24650D01*
X23750D01*
X23650Y24550D01*
X31900Y16450D02*
Y17050D01*
X32200D01*
X32300Y16950D01*
Y16750D01*
X32200Y16650D01*
X31900D01*
X32100D02*
X32300Y16450D01*
X32500D02*
X32700D01*
X32600D01*
Y17050D01*
X32500Y16950D01*
X26100Y11550D02*
X25900D01*
X26000D01*
Y11050D01*
X25900Y10950D01*
X25800D01*
X25700Y11050D01*
X26600Y10950D02*
Y11550D01*
X26300Y11250D01*
X26700D01*
X995Y21839D02*
X795D01*
X895D01*
Y21339D01*
X795Y21239D01*
X695D01*
X595Y21339D01*
X1195Y21739D02*
X1295Y21839D01*
X1495D01*
X1595Y21739D01*
Y21639D01*
X1495Y21539D01*
X1395D01*
X1495D01*
X1595Y21439D01*
Y21339D01*
X1495Y21239D01*
X1295D01*
X1195Y21339D01*
X4116Y22100D02*
X3916D01*
X4016D01*
Y21600D01*
X3916Y21500D01*
X3816D01*
X3716Y21600D01*
X4716Y21500D02*
X4316D01*
X4716Y21900D01*
Y22000D01*
X4616Y22100D01*
X4416D01*
X4316Y22000D01*
X15969Y22050D02*
X15769D01*
X15869D01*
Y21550D01*
X15769Y21450D01*
X15669D01*
X15569Y21550D01*
X16168Y21450D02*
X16368D01*
X16268D01*
Y22050D01*
X16168Y21950D01*
X30900Y24600D02*
Y24000D01*
X31200D01*
X31300Y24100D01*
Y24500D01*
X31200Y24600D01*
X30900D01*
X31500Y24500D02*
X31600Y24600D01*
X31800D01*
X31900Y24500D01*
Y24400D01*
X31800Y24300D01*
X31700D01*
X31800D01*
X31900Y24200D01*
Y24100D01*
X31800Y24000D01*
X31600D01*
X31500Y24100D01*
X24650Y16300D02*
X24050D01*
Y16000D01*
X24150Y15900D01*
X24550D01*
X24650Y16000D01*
Y16300D01*
X24050Y15300D02*
Y15700D01*
X24450Y15300D01*
X24550D01*
X24650Y15400D01*
Y15600D01*
X24550Y15700D01*
X24700Y18250D02*
X24100D01*
Y17950D01*
X24200Y17850D01*
X24600D01*
X24700Y17950D01*
Y18250D01*
X24100Y17650D02*
Y17450D01*
Y17550D01*
X24700D01*
X24600Y17650D01*
X18350Y15750D02*
X18450Y15850D01*
Y16050D01*
X18350Y16150D01*
X17950D01*
X17850Y16050D01*
Y15850D01*
X17950Y15750D01*
X17850Y15150D02*
Y15550D01*
X18250Y15150D01*
X18350D01*
X18450Y15250D01*
Y15450D01*
X18350Y15550D01*
X27550Y14150D02*
X27650Y14250D01*
Y14450D01*
X27550Y14550D01*
X27150D01*
X27050Y14450D01*
Y14250D01*
X27150Y14150D01*
X27050Y13950D02*
Y13750D01*
Y13850D01*
X27650D01*
X27550Y13950D01*
G54D11*
X13800Y9000D02*
X13810Y8902D01*
X13838Y8809D01*
X13884Y8722D01*
X13946Y8646D01*
X14022Y8584D01*
X14109Y8538D01*
X14202Y8510D01*
X14300Y8500D01*
X14398Y8510D01*
X14491Y8538D01*
X14578Y8584D01*
X14654Y8646D01*
X14716Y8722D01*
X14762Y8809D01*
X14790Y8902D01*
X14800Y9000D01*
Y11000D02*
X14790Y11098D01*
X14762Y11191D01*
X14716Y11278D01*
X14654Y11354D01*
X14578Y11416D01*
X14491Y11462D01*
X14398Y11490D01*
X14300Y11500D01*
X14202Y11490D01*
X14109Y11462D01*
X14022Y11416D01*
X13946Y11354D01*
X13884Y11278D01*
X13838Y11191D01*
X13810Y11098D01*
X13800Y11000D01*
X28300Y1800D02*
X28202Y1790D01*
X28109Y1762D01*
X28022Y1716D01*
X27946Y1654D01*
X27884Y1578D01*
X27838Y1491D01*
X27810Y1398D01*
X27800Y1300D01*
X27810Y1202D01*
X27838Y1109D01*
X27884Y1022D01*
X27946Y946D01*
X28022Y884D01*
X28109Y838D01*
X28202Y810D01*
X28300Y800D01*
X30300D02*
X30398Y810D01*
X30491Y838D01*
X30578Y884D01*
X30654Y946D01*
X30716Y1022D01*
X30762Y1109D01*
X30790Y1202D01*
X30800Y1300D01*
X30790Y1398D01*
X30762Y1491D01*
X30716Y1578D01*
X30654Y1654D01*
X30578Y1716D01*
X30491Y1762D01*
X30398Y1790D01*
X30300Y1800D01*
X17300Y700D02*
X17398Y710D01*
X17491Y738D01*
X17578Y784D01*
X17654Y846D01*
X17716Y922D01*
X17762Y1009D01*
X17790Y1102D01*
X17800Y1200D01*
X17790Y1298D01*
X17762Y1391D01*
X17716Y1478D01*
X17654Y1554D01*
X17578Y1616D01*
X17491Y1662D01*
X17398Y1690D01*
X17300Y1700D01*
X15300D02*
X15202Y1690D01*
X15109Y1662D01*
X15022Y1616D01*
X14946Y1554D01*
X14884Y1478D01*
X14838Y1391D01*
X14810Y1298D01*
X14800Y1200D01*
X14810Y1102D01*
X14838Y1009D01*
X14884Y922D01*
X14946Y846D01*
X15022Y784D01*
X15109Y738D01*
X15202Y710D01*
X15300Y700D01*
X24100Y1700D02*
X24002Y1690D01*
X23909Y1662D01*
X23822Y1616D01*
X23746Y1554D01*
X23684Y1478D01*
X23638Y1391D01*
X23610Y1298D01*
X23600Y1200D01*
X23610Y1102D01*
X23638Y1009D01*
X23684Y922D01*
X23746Y846D01*
X23822Y784D01*
X23909Y738D01*
X24002Y710D01*
X24100Y700D01*
X26100D02*
X26198Y710D01*
X26291Y738D01*
X26378Y784D01*
X26454Y846D01*
X26516Y922D01*
X26562Y1009D01*
X26590Y1102D01*
X26600Y1200D01*
X26590Y1298D01*
X26562Y1391D01*
X26516Y1478D01*
X26454Y1554D01*
X26378Y1616D01*
X26291Y1662D01*
X26198Y1690D01*
X26100Y1700D01*
X21900Y13500D02*
X21802Y13490D01*
X21709Y13462D01*
X21622Y13416D01*
X21546Y13354D01*
X21484Y13278D01*
X21438Y13191D01*
X21410Y13098D01*
X21400Y13000D01*
X21410Y12902D01*
X21438Y12809D01*
X21484Y12722D01*
X21546Y12646D01*
X21622Y12584D01*
X21709Y12538D01*
X21802Y12510D01*
X21900Y12500D01*
X23900D02*
X23998Y12510D01*
X24091Y12538D01*
X24178Y12584D01*
X24254Y12646D01*
X24316Y12722D01*
X24362Y12809D01*
X24390Y12902D01*
X24400Y13000D01*
X24390Y13098D01*
X24362Y13191D01*
X24316Y13278D01*
X24254Y13354D01*
X24178Y13416D01*
X24091Y13462D01*
X23998Y13490D01*
X23900Y13500D01*
X7050Y16500D02*
X6952Y16490D01*
X6859Y16462D01*
X6772Y16416D01*
X6696Y16354D01*
X6634Y16278D01*
X6588Y16191D01*
X6560Y16098D01*
X6550Y16000D01*
X6560Y15902D01*
X6588Y15809D01*
X6634Y15722D01*
X6696Y15646D01*
X6772Y15584D01*
X6859Y15538D01*
X6952Y15510D01*
X7050Y15500D01*
X9050D02*
X9148Y15510D01*
X9241Y15538D01*
X9328Y15584D01*
X9404Y15646D01*
X9466Y15722D01*
X9512Y15809D01*
X9540Y15902D01*
X9550Y16000D01*
X9540Y16098D01*
X9512Y16191D01*
X9466Y16278D01*
X9404Y16354D01*
X9328Y16416D01*
X9241Y16462D01*
X9148Y16490D01*
X9050Y16500D01*
X24100Y7300D02*
X24002Y7290D01*
X23909Y7262D01*
X23822Y7216D01*
X23746Y7154D01*
X23684Y7078D01*
X23638Y6991D01*
X23610Y6898D01*
X23600Y6800D01*
X23610Y6702D01*
X23638Y6609D01*
X23684Y6522D01*
X23746Y6446D01*
X23822Y6384D01*
X23909Y6338D01*
X24002Y6310D01*
X24100Y6300D01*
X26100D02*
X26198Y6310D01*
X26291Y6338D01*
X26378Y6384D01*
X26454Y6446D01*
X26516Y6522D01*
X26562Y6609D01*
X26590Y6702D01*
X26600Y6800D01*
X26590Y6898D01*
X26562Y6991D01*
X26516Y7078D01*
X26454Y7154D01*
X26378Y7216D01*
X26291Y7262D01*
X26198Y7290D01*
X26100Y7300D01*
X15350Y7350D02*
X15252Y7340D01*
X15159Y7312D01*
X15072Y7266D01*
X14996Y7204D01*
X14934Y7128D01*
X14888Y7041D01*
X14860Y6948D01*
X14850Y6850D01*
X14860Y6752D01*
X14888Y6659D01*
X14934Y6572D01*
X14996Y6496D01*
X15072Y6434D01*
X15159Y6388D01*
X15252Y6360D01*
X15350Y6350D01*
X17350D02*
X17448Y6360D01*
X17541Y6388D01*
X17628Y6434D01*
X17704Y6496D01*
X17766Y6572D01*
X17812Y6659D01*
X17840Y6752D01*
X17850Y6850D01*
X17840Y6948D01*
X17812Y7041D01*
X17766Y7128D01*
X17704Y7204D01*
X17628Y7266D01*
X17541Y7312D01*
X17448Y7340D01*
X17350Y7350D01*
X7200Y11050D02*
X7102Y11040D01*
X7009Y11012D01*
X6922Y10966D01*
X6846Y10904D01*
X6784Y10828D01*
X6738Y10741D01*
X6710Y10648D01*
X6700Y10550D01*
X6710Y10452D01*
X6738Y10359D01*
X6784Y10272D01*
X6846Y10196D01*
X6922Y10134D01*
X7009Y10088D01*
X7102Y10060D01*
X7200Y10050D01*
X9200D02*
X9298Y10060D01*
X9391Y10088D01*
X9478Y10134D01*
X9554Y10196D01*
X9616Y10272D01*
X9662Y10359D01*
X9690Y10452D01*
X9700Y10550D01*
X9690Y10648D01*
X9662Y10741D01*
X9616Y10828D01*
X9554Y10904D01*
X9478Y10966D01*
X9391Y11012D01*
X9298Y11040D01*
X9200Y11050D01*
X7200Y4300D02*
X7102Y4290D01*
X7009Y4262D01*
X6922Y4216D01*
X6846Y4154D01*
X6784Y4078D01*
X6738Y3991D01*
X6710Y3898D01*
X6700Y3800D01*
X6710Y3702D01*
X6738Y3609D01*
X6784Y3522D01*
X6846Y3446D01*
X6922Y3384D01*
X7009Y3338D01*
X7102Y3310D01*
X7200Y3300D01*
X9200D02*
X9298Y3310D01*
X9391Y3338D01*
X9478Y3384D01*
X9554Y3446D01*
X9616Y3522D01*
X9662Y3609D01*
X9690Y3702D01*
X9700Y3800D01*
X9690Y3898D01*
X9662Y3991D01*
X9616Y4078D01*
X9554Y4154D01*
X9478Y4216D01*
X9391Y4262D01*
X9298Y4290D01*
X9200Y4300D01*
X7200Y5650D02*
X7102Y5640D01*
X7009Y5612D01*
X6922Y5566D01*
X6846Y5504D01*
X6784Y5428D01*
X6738Y5341D01*
X6710Y5248D01*
X6700Y5150D01*
X6710Y5052D01*
X6738Y4959D01*
X6784Y4872D01*
X6846Y4796D01*
X6922Y4734D01*
X7009Y4688D01*
X7102Y4660D01*
X7200Y4650D01*
X9200D02*
X9298Y4660D01*
X9391Y4688D01*
X9478Y4734D01*
X9554Y4796D01*
X9616Y4872D01*
X9662Y4959D01*
X9690Y5052D01*
X9700Y5150D01*
X9690Y5248D01*
X9662Y5341D01*
X9616Y5428D01*
X9554Y5504D01*
X9478Y5566D01*
X9391Y5612D01*
X9298Y5640D01*
X9200Y5650D01*
X10200Y8150D02*
X10104Y8131D01*
X10023Y8077D01*
X9969Y7996D01*
X9950Y7900D01*
X9969Y7804D01*
X10023Y7723D01*
X10104Y7669D01*
X10200Y7650D01*
X7100Y17750D02*
X7002Y17740D01*
X6909Y17712D01*
X6822Y17666D01*
X6746Y17604D01*
X6684Y17528D01*
X6638Y17441D01*
X6610Y17348D01*
X6600Y17250D01*
X6610Y17152D01*
X6638Y17059D01*
X6684Y16972D01*
X6746Y16896D01*
X6822Y16834D01*
X6909Y16788D01*
X7002Y16760D01*
X7100Y16750D01*
X9100D02*
X9198Y16760D01*
X9291Y16788D01*
X9378Y16834D01*
X9454Y16896D01*
X9516Y16972D01*
X9562Y17059D01*
X9590Y17152D01*
X9600Y17250D01*
X9590Y17348D01*
X9562Y17441D01*
X9516Y17528D01*
X9454Y17604D01*
X9378Y17666D01*
X9291Y17712D01*
X9198Y17740D01*
X9100Y17750D01*
X7100Y19000D02*
X7002Y18990D01*
X6909Y18962D01*
X6822Y18916D01*
X6746Y18854D01*
X6684Y18778D01*
X6638Y18691D01*
X6610Y18598D01*
X6600Y18500D01*
X6610Y18402D01*
X6638Y18309D01*
X6684Y18222D01*
X6746Y18146D01*
X6822Y18084D01*
X6909Y18038D01*
X7002Y18010D01*
X7100Y18000D01*
X9100D02*
X9198Y18010D01*
X9291Y18038D01*
X9378Y18084D01*
X9454Y18146D01*
X9516Y18222D01*
X9562Y18309D01*
X9590Y18402D01*
X9600Y18500D01*
X9590Y18598D01*
X9562Y18691D01*
X9516Y18778D01*
X9454Y18854D01*
X9378Y18916D01*
X9291Y18962D01*
X9198Y18990D01*
X9100Y19000D01*
X10200Y13350D02*
X10104Y13331D01*
X10023Y13277D01*
X9969Y13196D01*
X9950Y13100D01*
X9969Y13004D01*
X10023Y12923D01*
X10104Y12869D01*
X10200Y12850D01*
X24913Y17455D02*
X24957Y17363D01*
X25012Y17276D01*
X25076Y17196D01*
X25148Y17123D01*
X25229Y17060D01*
X25316Y17005D01*
X25408Y16961D01*
X25505Y16928D01*
X25605Y16906D01*
X25707Y16895D01*
X25810Y16896D01*
X25912Y16909D01*
X26011Y16933D01*
X26108Y16968D01*
X26199Y17014D01*
X26285Y17070D01*
Y18530D02*
X26199Y18586D01*
X26108Y18632D01*
X26011Y18667D01*
X25912Y18691D01*
X25810Y18704D01*
X25707Y18705D01*
X25605Y18694D01*
X25505Y18672D01*
X25408Y18639D01*
X25316Y18595D01*
X25229Y18540D01*
X25148Y18477D01*
X25076Y18404D01*
X25012Y18324D01*
X24957Y18237D01*
X24913Y18145D01*
X26285Y16480D02*
X26199Y16536D01*
X26108Y16582D01*
X26011Y16617D01*
X25912Y16641D01*
X25810Y16654D01*
X25707Y16655D01*
X25605Y16644D01*
X25505Y16622D01*
X25408Y16589D01*
X25316Y16545D01*
X25229Y16490D01*
X25148Y16427D01*
X25076Y16354D01*
X25012Y16274D01*
X24957Y16187D01*
X24913Y16095D01*
Y15405D02*
X24957Y15313D01*
X25012Y15226D01*
X25076Y15146D01*
X25148Y15073D01*
X25229Y15010D01*
X25316Y14955D01*
X25408Y14911D01*
X25505Y14878D01*
X25605Y14856D01*
X25707Y14845D01*
X25810Y14846D01*
X25912Y14859D01*
X26011Y14883D01*
X26108Y14918D01*
X26199Y14964D01*
X26285Y15020D01*
X30350Y13650D02*
X30448Y13660D01*
X30541Y13688D01*
X30628Y13734D01*
X30704Y13796D01*
X30766Y13872D01*
X30812Y13959D01*
X30840Y14052D01*
X30850Y14150D01*
X30840Y14248D01*
X30812Y14341D01*
X30766Y14428D01*
X30704Y14504D01*
X30628Y14566D01*
X30541Y14612D01*
X30448Y14640D01*
X30350Y14650D01*
X28350D02*
X28252Y14640D01*
X28159Y14612D01*
X28072Y14566D01*
X27996Y14504D01*
X27934Y14428D01*
X27888Y14341D01*
X27860Y14248D01*
X27850Y14150D01*
X27860Y14052D01*
X27888Y13959D01*
X27934Y13872D01*
X27996Y13796D01*
X28072Y13734D01*
X28159Y13688D01*
X28252Y13660D01*
X28350Y13650D01*
X17600Y17050D02*
X17610Y16952D01*
X17638Y16859D01*
X17684Y16772D01*
X17746Y16696D01*
X17822Y16634D01*
X17909Y16588D01*
X18002Y16560D01*
X18100Y16550D01*
X18198Y16560D01*
X18291Y16588D01*
X18378Y16634D01*
X18454Y16696D01*
X18516Y16772D01*
X18562Y16859D01*
X18590Y16952D01*
X18600Y17050D01*
Y19050D02*
X18590Y19148D01*
X18562Y19241D01*
X18516Y19328D01*
X18454Y19404D01*
X18378Y19466D01*
X18291Y19512D01*
X18198Y19540D01*
X18100Y19550D01*
X18002Y19540D01*
X17909Y19512D01*
X17822Y19466D01*
X17746Y19404D01*
X17684Y19328D01*
X17638Y19241D01*
X17610Y19148D01*
X17600Y19050D01*
X19900Y12500D02*
X19998Y12510D01*
X20091Y12538D01*
X20178Y12584D01*
X20254Y12646D01*
X20316Y12722D01*
X20362Y12809D01*
X20390Y12902D01*
X20400Y13000D01*
X20390Y13098D01*
X20362Y13191D01*
X20316Y13278D01*
X20254Y13354D01*
X20178Y13416D01*
X20091Y13462D01*
X19998Y13490D01*
X19900Y13500D01*
X17900D02*
X17802Y13490D01*
X17709Y13462D01*
X17622Y13416D01*
X17546Y13354D01*
X17484Y13278D01*
X17438Y13191D01*
X17410Y13098D01*
X17400Y13000D01*
X17410Y12902D01*
X17438Y12809D01*
X17484Y12722D01*
X17546Y12646D01*
X17622Y12584D01*
X17709Y12538D01*
X17802Y12510D01*
X17900Y12500D01*
X29039Y23578D02*
X28961D01*
X29039D01*
X25553Y23244D02*
X25463Y23194D01*
X25380Y23134D01*
X25302Y23066D01*
X25232Y22991D01*
X25171Y22909D01*
X25118Y22821D01*
X26894Y22797D02*
X26844Y22887D01*
X26784Y22970D01*
X26716Y23048D01*
X26641Y23118D01*
X26559Y23179D01*
X26471Y23232D01*
X16050Y6050D02*
X16069Y5954D01*
X16123Y5873D01*
X16204Y5819D01*
X16300Y5800D01*
X16396Y5819D01*
X16477Y5873D01*
X16531Y5954D01*
X16550Y6050D01*
X24850D02*
X24869Y5954D01*
X24923Y5873D01*
X25004Y5819D01*
X25100Y5800D01*
X25196Y5819D01*
X25277Y5873D01*
X25331Y5954D01*
X25350Y6050D01*
X11400Y4400D02*
X12200D01*
Y2000D02*
Y4400D01*
X11400Y2000D02*
X12200D01*
X11400D02*
Y4400D01*
X11800D02*
Y4700D01*
Y1700D02*
Y2000D01*
X9497Y22337D02*
X15403D01*
X9497Y24778D02*
X15403D01*
X9497Y21353D02*
Y25211D01*
X11466Y21353D02*
Y25211D01*
X13434Y21353D02*
Y25211D01*
X9497D02*
X15403D01*
Y21353D02*
Y25211D01*
X11500Y16850D02*
X12300D01*
X11500D02*
Y19250D01*
X12300D01*
Y16850D02*
Y19250D01*
X11900Y16550D02*
Y16850D01*
Y19250D02*
Y19550D01*
X17025Y24831D02*
X18775D01*
X17025Y22269D02*
X18775D01*
X19181Y23156D02*
Y23944D01*
X16619Y23156D02*
Y23944D01*
X8934Y21353D02*
Y25211D01*
X4997D02*
X8934D01*
X6966Y21353D02*
Y25211D01*
X4997Y21353D02*
Y25211D01*
Y24778D02*
X8934D01*
X4997Y22337D02*
X8934D01*
X30500Y11500D02*
X30800D01*
X27800D02*
X28100D01*
Y11100D02*
X30500D01*
Y11900D01*
X28100D02*
X30500D01*
X28100Y11100D02*
Y11900D01*
X30500Y12800D02*
X30800D01*
X27800D02*
X28100D01*
Y12400D02*
X30500D01*
Y13200D01*
X28100D02*
X30500D01*
X28100Y12400D02*
Y13200D01*
X13000Y11100D02*
Y11400D01*
Y8400D02*
Y8700D01*
X13400D02*
Y11100D01*
X12600D02*
X13400D01*
X12600Y8700D02*
Y11100D01*
Y8700D02*
X13400D01*
X14350Y16550D02*
Y16850D01*
Y19250D02*
Y19550D01*
X13950Y16850D02*
Y19250D01*
Y16850D02*
X14750D01*
Y19250D01*
X13950D02*
X14750D01*
X11850Y8400D02*
Y8700D01*
Y11100D02*
Y11400D01*
X11450Y8700D02*
Y11100D01*
Y8700D02*
X12250D01*
Y11100D01*
X11450D02*
X12250D01*
X13800Y9000D02*
Y11000D01*
X14800Y9000D02*
Y11000D01*
X15700Y11050D02*
Y11350D01*
Y8350D02*
Y8650D01*
X16100D02*
Y11050D01*
X15300D02*
X16100D01*
X15300Y8650D02*
Y11050D01*
Y8650D02*
X16100D01*
X28300Y1800D02*
X30300D01*
X28300Y800D02*
X30300D01*
X15300Y700D02*
X17300D01*
X15300Y1700D02*
X17300D01*
X24100D02*
X26100D01*
X24100Y700D02*
X26100D01*
X21900Y13500D02*
X23900D01*
X21900Y12500D02*
X23900D01*
X7050Y16500D02*
X9050D01*
X7050Y15500D02*
X9050D01*
X13100Y16550D02*
Y16850D01*
Y19250D02*
Y19550D01*
X12700Y16850D02*
Y19250D01*
Y16850D02*
X13500D01*
Y19250D01*
X12700D02*
X13500D01*
X15600Y16550D02*
Y16850D01*
Y19250D02*
Y19550D01*
X15200Y16850D02*
Y19250D01*
Y16850D02*
X16000D01*
Y19250D01*
X15200D02*
X16000D01*
X9300Y19700D02*
X9600D01*
X6600D02*
X6900D01*
Y19300D02*
X9300D01*
Y20100D01*
X6900D02*
X9300D01*
X6900Y19300D02*
Y20100D01*
X13000Y4400D02*
Y4700D01*
Y1700D02*
Y2000D01*
X13400D02*
Y4400D01*
X12600D02*
X13400D01*
X12600Y2000D02*
Y4400D01*
Y2000D02*
X13400D01*
X24100Y7300D02*
X26100D01*
X24100Y6300D02*
X26100D01*
X15350Y7350D02*
X17350D01*
X15350Y6350D02*
X17350D01*
X7200Y11050D02*
X9200D01*
X7200Y10050D02*
X9200D01*
X9400Y2550D02*
X9700D01*
X6700D02*
X7000D01*
Y2150D02*
X9400D01*
Y2950D01*
X7000D02*
X9400D01*
X7000Y2150D02*
Y2950D01*
X9400Y1400D02*
X9700D01*
X6700D02*
X7000D01*
Y1000D02*
X9400D01*
Y1800D01*
X7000D02*
X9400D01*
X7000Y1000D02*
Y1800D01*
X7200Y4300D02*
X9200D01*
X7200Y3300D02*
X9200D01*
X7200Y5650D02*
X9200D01*
X7200Y4650D02*
X9200D01*
X6200Y6900D02*
X10200D01*
Y8150D02*
Y8900D01*
Y6900D02*
Y7650D01*
X6200Y8900D02*
X10200D01*
X6200Y6900D02*
Y8900D01*
X7100Y17750D02*
X9100D01*
X7100Y16750D02*
X9100D01*
X7100Y19000D02*
X9100D01*
X7100Y18000D02*
X9100D01*
X6200Y12100D02*
X10200D01*
Y13350D02*
Y14100D01*
Y12100D02*
Y12850D01*
X6200Y14100D02*
X10200D01*
X6200Y12100D02*
Y14100D01*
X23600Y22550D02*
Y22850D01*
Y19850D02*
Y20150D01*
X24000D02*
Y22550D01*
X23200D02*
X24000D01*
X23200Y20150D02*
Y22550D01*
Y20150D02*
X24000D01*
X30550Y17950D02*
X30850D01*
X27850D02*
X28150D01*
Y17550D02*
X30550D01*
Y18350D01*
X28150D02*
X30550D01*
X28150Y17550D02*
Y18350D01*
X32537Y24870D02*
X38639D01*
X32537Y17430D02*
X38639D01*
X32537D02*
Y24870D01*
X38639Y17430D02*
Y24870D01*
X26285Y17070D02*
Y17300D01*
Y18300D02*
Y18530D01*
Y16250D02*
Y16480D01*
Y15020D02*
Y15250D01*
X525Y11776D02*
X4275D01*
X525Y13824D02*
X4275D01*
X525Y11776D02*
Y13824D01*
X4275Y11776D02*
Y13824D01*
X525Y6876D02*
X4275D01*
X525Y8924D02*
X4275D01*
X525Y6876D02*
Y8924D01*
X4275Y6876D02*
Y8924D01*
X525Y14226D02*
X4275D01*
X525Y16274D02*
X4275D01*
X525Y14226D02*
Y16274D01*
X4275Y14226D02*
Y16274D01*
X525Y9326D02*
X4275D01*
X525Y11374D02*
X4275D01*
X525Y9326D02*
Y11374D01*
X4275Y9326D02*
Y11374D01*
X525Y4476D02*
X4275D01*
X525Y6524D02*
X4275D01*
X525Y4476D02*
Y6524D01*
X4275Y4476D02*
Y6524D01*
X20624Y875D02*
Y4625D01*
X18576Y875D02*
Y4625D01*
Y875D02*
X20624D01*
X18576Y4625D02*
X20624D01*
X22974Y875D02*
Y4625D01*
X20926Y875D02*
Y4625D01*
Y875D02*
X22974D01*
X20926Y4625D02*
X22974D01*
X35103Y10197D02*
X38961D01*
Y16103D01*
X35103Y12166D02*
X38961D01*
X35103Y14134D02*
X38961D01*
X35103Y16103D02*
X38961D01*
X38528Y10197D02*
Y16103D01*
X36087Y10197D02*
Y16103D01*
X3413Y16766D02*
Y20703D01*
X972Y16766D02*
Y20703D01*
X539Y16766D02*
X4397D01*
X539Y18734D02*
X4397D01*
X539Y16766D02*
Y20703D01*
X4397D01*
X24650Y9800D02*
X26650D01*
Y10800D01*
X24650D02*
X26650D01*
X24650Y9800D02*
Y10800D01*
X25650Y9800D02*
Y10800D01*
X30550Y16750D02*
X30850D01*
X27850D02*
X28150D01*
Y16350D02*
X30550D01*
Y17150D01*
X28150D02*
X30550D01*
X28150Y16350D02*
Y17150D01*
X30550Y15550D02*
X30850D01*
X27850D02*
X28150D01*
Y15150D02*
X30550D01*
Y15950D01*
X28150D02*
X30550D01*
X28150Y15150D02*
Y15950D01*
X16800Y16500D02*
Y16800D01*
Y19200D02*
Y19500D01*
X16400Y16800D02*
Y19200D01*
Y16800D02*
X17200D01*
Y19200D01*
X16400D02*
X17200D01*
X27800Y10300D02*
X28100D01*
X30500D02*
X30800D01*
X28100Y10700D02*
X30500D01*
X28100Y9900D02*
Y10700D01*
Y9900D02*
X30500D01*
Y10700D01*
X28350Y13650D02*
X30350D01*
X28350Y14650D02*
X30350D01*
X17600Y17050D02*
Y19050D01*
X18600Y17050D02*
Y19050D01*
X17900Y12500D02*
X19900D01*
X17900Y13500D02*
X19900D01*
X25000Y21700D02*
X27000D01*
X30900Y20100D02*
Y22700D01*
X31400D02*
Y22800D01*
Y20000D02*
Y20100D01*
X30900Y22200D02*
X31900D01*
Y20100D02*
Y22700D01*
X30900D02*
X31900D01*
X30900Y20100D02*
X31900D01*
X17300Y2050D02*
Y6050D01*
X15300D02*
X16050D01*
X16550D02*
X17300D01*
X15300Y2050D02*
Y6050D01*
Y2050D02*
X17300D01*
X26100D02*
Y6050D01*
X24100D02*
X24850D01*
X25350D02*
X26100D01*
X24100Y2050D02*
Y6050D01*
Y2050D02*
X26100D01*
G54D12*
X17100Y9750D02*
X17196Y9769D01*
X17277Y9823D01*
X17331Y9904D01*
X17350Y10000D01*
X17331Y10096D01*
X17277Y10177D01*
X17196Y10231D01*
X17100Y10250D01*
X29050Y9400D02*
X29069Y9304D01*
X29123Y9223D01*
X29204Y9169D01*
X29300Y9150D01*
X29396Y9169D01*
X29477Y9223D01*
X29531Y9304D01*
X29550Y9400D01*
X21250Y14200D02*
X21231Y14296D01*
X21177Y14377D01*
X21096Y14431D01*
X21000Y14450D01*
X20904Y14431D01*
X20823Y14377D01*
X20769Y14296D01*
X20750Y14200D01*
X17100Y9000D02*
X24100D01*
Y11000D01*
X17100D02*
X24100D01*
X17100Y10250D02*
Y11000D01*
Y9000D02*
Y9750D01*
X28300Y2400D02*
Y9400D01*
Y2400D02*
X30300D01*
Y9400D01*
X29550D02*
X30300D01*
X28300D02*
X29050D01*
X22000Y14200D02*
Y21200D01*
X20000D02*
X22000D01*
X20000Y14200D02*
Y21200D01*
Y14200D02*
X20750D01*
X21250D02*
X22000D01*
X5913Y21597D02*
X5830Y21680D01*
X5663D01*
X5580Y21597D01*
Y21513D01*
X5663Y21430D01*
X5830D01*
X5913Y21347D01*
Y21263D01*
X5830Y21180D01*
X5663D01*
X5580Y21263D01*
X6080Y21180D02*
X6246D01*
X6163D01*
Y21680D01*
X6080Y21597D01*
X4647Y19787D02*
X4730Y19870D01*
Y20037D01*
X4647Y20120D01*
X4563D01*
X4480Y20037D01*
Y19870D01*
X4397Y19787D01*
X4313D01*
X4230Y19870D01*
Y20037D01*
X4313Y20120D01*
X4230Y19287D02*
Y19620D01*
X4563Y19287D01*
X4647D01*
X4730Y19370D01*
Y19537D01*
X4647Y19620D01*
X4597Y18087D02*
X4680Y18170D01*
Y18337D01*
X4597Y18420D01*
X4263D01*
X4180Y18337D01*
Y18170D01*
X4263Y18087D01*
X4430D01*
Y18253D01*
X4180Y17920D02*
X4680D01*
X4180Y17587D01*
X4680D01*
Y17420D02*
X4180D01*
Y17170D01*
X4263Y17087D01*
X4597D01*
X4680Y17170D01*
Y17420D01*
X14363Y21680D02*
X14030D01*
Y21430D01*
X14197Y21513D01*
X14280D01*
X14363Y21430D01*
Y21263D01*
X14280Y21180D01*
X14113D01*
X14030Y21263D01*
X14530Y21680D02*
Y21347D01*
X14696Y21180D01*
X14863Y21347D01*
Y21680D01*
X11830Y21180D02*
X11997D01*
X11913D01*
Y21680D01*
X11830Y21597D01*
X12580Y21180D02*
X12247D01*
X12580Y21513D01*
Y21597D01*
X12496Y21680D01*
X12330D01*
X12247Y21597D01*
X12746Y21680D02*
Y21347D01*
X12913Y21180D01*
X13080Y21347D01*
Y21680D01*
X10213Y21597D02*
X10130Y21680D01*
X9963D01*
X9880Y21597D01*
Y21263D01*
X9963Y21180D01*
X10130D01*
X10213Y21263D01*
Y21430D01*
X10047D01*
X10380Y21180D02*
Y21680D01*
X10713Y21180D01*
Y21680D01*
X10880D02*
Y21180D01*
X11130D01*
X11213Y21263D01*
Y21597D01*
X11130Y21680D01*
X10880D01*
X7613Y21597D02*
X7530Y21680D01*
X7363D01*
X7280Y21597D01*
Y21263D01*
X7363Y21180D01*
X7530D01*
X7613Y21263D01*
Y21430D01*
X7447D01*
X7780Y21180D02*
Y21680D01*
X8113Y21180D01*
Y21680D01*
X8280D02*
Y21180D01*
X8530D01*
X8613Y21263D01*
Y21597D01*
X8530Y21680D01*
X8280D01*
X21917Y4800D02*
Y5200D01*
X22117D01*
X22183Y5133D01*
Y5000D01*
X22117Y4933D01*
X21917D01*
X22050D02*
X22183Y4800D01*
X22583D02*
X22317D01*
X22583Y5067D01*
Y5133D01*
X22517Y5200D01*
X22383D01*
X22317Y5133D01*
X22983Y5200D02*
X22850Y5133D01*
X22717Y5000D01*
Y4867D01*
X22783Y4800D01*
X22917D01*
X22983Y4867D01*
Y4933D01*
X22917Y5000D01*
X22717D01*
X18567Y4750D02*
Y5150D01*
X18767D01*
X18833Y5083D01*
Y4950D01*
X18767Y4883D01*
X18567D01*
X18700D02*
X18833Y4750D01*
X19233D02*
X18967D01*
X19233Y5017D01*
Y5083D01*
X19167Y5150D01*
X19033D01*
X18967Y5083D01*
X19567Y4750D02*
Y5150D01*
X19367Y4950D01*
X19633D01*
G54D13*
X30150Y22200D02*
X30145Y22300D01*
X30132Y22400D01*
X30110Y22498D01*
X30080Y22593D01*
X30042Y22686D01*
X29996Y22775D01*
X29942Y22859D01*
X29881Y22939D01*
X29813Y23013D01*
X29739Y23081D01*
X29659Y23142D01*
X29575Y23196D01*
X29486Y23242D01*
X29393Y23280D01*
X29298Y23310D01*
X29200Y23332D01*
X29100Y23345D01*
X29000Y23350D01*
X28900Y23345D01*
X28800Y23332D01*
X28702Y23310D01*
X28607Y23280D01*
X28514Y23242D01*
X28425Y23196D01*
X28341Y23142D01*
X28261Y23081D01*
X28187Y23013D01*
X28119Y22939D01*
X28058Y22859D01*
X28004Y22775D01*
X27958Y22686D01*
X27920Y22593D01*
X27890Y22498D01*
X27868Y22400D01*
X27855Y22300D01*
X27850Y22200D01*
X27855Y22100D01*
X27868Y22000D01*
X27890Y21902D01*
X27920Y21807D01*
X27958Y21714D01*
X28004Y21625D01*
X28058Y21541D01*
X28119Y21461D01*
X28187Y21387D01*
X28261Y21319D01*
X28341Y21258D01*
X28425Y21204D01*
X28514Y21158D01*
X28607Y21120D01*
X28702Y21090D01*
X28800Y21068D01*
X28900Y21055D01*
X29000Y21050D01*
X29100Y21055D01*
X29200Y21068D01*
X29298Y21090D01*
X29393Y21120D01*
X29486Y21158D01*
X29575Y21204D01*
X29659Y21258D01*
X29739Y21319D01*
X29813Y21387D01*
X29881Y21461D01*
X29942Y21541D01*
X29996Y21625D01*
X30042Y21714D01*
X30080Y21807D01*
X30110Y21902D01*
X30132Y22000D01*
X30145Y22100D01*
X30150Y22200D01*
X29959Y22834D02*
X30315Y23190D01*
X29990Y23515D02*
X30315Y23190D01*
X29634Y23159D02*
X29990Y23515D01*
X20508Y7603D02*
Y7260D01*
X20336Y7431D02*
X20679D01*
G54D14*
X19940Y23290D02*
Y23790D01*
X20190D01*
X20273Y23707D01*
Y23540D01*
X20190Y23457D01*
X19940D01*
X20107D02*
X20273Y23290D01*
X20773Y23790D02*
X20440D01*
Y23290D01*
X20773D01*
X20440Y23540D02*
X20606D01*
X21273Y23707D02*
X21190Y23790D01*
X21023D01*
X20940Y23707D01*
Y23623D01*
X21023Y23540D01*
X21190D01*
X21273Y23457D01*
Y23373D01*
X21190Y23290D01*
X21023D01*
X20940Y23373D01*
X21773Y23790D02*
X21440D01*
Y23290D01*
X21773D01*
X21440Y23540D02*
X21606D01*
X21939Y23790D02*
X22273D01*
X22106D01*
Y23290D01*
X17117Y13292D02*
X17200Y13375D01*
Y13541D01*
X17117Y13625D01*
X16783D01*
X16700Y13541D01*
Y13375D01*
X16783Y13292D01*
X16700Y13125D02*
Y12958D01*
Y13042D01*
X17200D01*
X17117Y13125D01*
X17200Y12708D02*
Y12375D01*
X17117D01*
X16783Y12708D01*
X16700D01*
X24058Y7917D02*
X23975Y8000D01*
X23809D01*
X23725Y7917D01*
Y7583D01*
X23809Y7500D01*
X23975D01*
X24058Y7583D01*
X24225Y7500D02*
X24392D01*
X24308D01*
Y8000D01*
X24225Y7917D01*
X24975Y8000D02*
X24808Y7917D01*
X24642Y7750D01*
Y7583D01*
X24725Y7500D01*
X24891D01*
X24975Y7583D01*
Y7667D01*
X24891Y7750D01*
X24642D01*
X25067Y13292D02*
X25150Y13375D01*
Y13541D01*
X25067Y13625D01*
X24733D01*
X24650Y13541D01*
Y13375D01*
X24733Y13292D01*
X24650Y13125D02*
Y12958D01*
Y13042D01*
X25150D01*
X25067Y13125D01*
X25150Y12375D02*
Y12708D01*
X24900D01*
X24983Y12542D01*
Y12459D01*
X24900Y12375D01*
X24733D01*
X24650Y12459D01*
Y12625D01*
X24733Y12708D01*
X14417Y13292D02*
X14500Y13375D01*
Y13541D01*
X14417Y13625D01*
X14083D01*
X14000Y13541D01*
Y13375D01*
X14083Y13292D01*
X14000Y13125D02*
Y12958D01*
Y13042D01*
X14500D01*
X14417Y13125D01*
X14000Y12459D02*
X14500D01*
X14250Y12708D01*
Y12375D01*
X18517Y7192D02*
X18600Y7275D01*
Y7441D01*
X18517Y7525D01*
X18183D01*
X18100Y7441D01*
Y7275D01*
X18183Y7192D01*
X18100Y7025D02*
Y6858D01*
Y6942D01*
X18600D01*
X18517Y7025D01*
Y6608D02*
X18600Y6525D01*
Y6359D01*
X18517Y6275D01*
X18433D01*
X18350Y6359D01*
Y6442D01*
Y6359D01*
X18267Y6275D01*
X18183D01*
X18100Y6359D01*
Y6525D01*
X18183Y6608D01*
X6317Y17592D02*
X6400Y17675D01*
Y17841D01*
X6317Y17925D01*
X5983D01*
X5900Y17841D01*
Y17675D01*
X5983Y17592D01*
X5900Y17425D02*
Y17258D01*
Y17342D01*
X6400D01*
X6317Y17425D01*
X5900Y16675D02*
Y17008D01*
X6233Y16675D01*
X6317D01*
X6400Y16759D01*
Y16925D01*
X6317Y17008D01*
X6467Y5358D02*
X6550Y5442D01*
Y5608D01*
X6467Y5691D01*
X6133D01*
X6050Y5608D01*
Y5442D01*
X6133Y5358D01*
X6050Y5192D02*
Y5025D01*
Y5108D01*
X6550D01*
X6467Y5192D01*
X6050Y4775D02*
Y4609D01*
Y4692D01*
X6550D01*
X6467Y4775D01*
X22533Y6750D02*
Y6333D01*
X22617Y6250D01*
X22783D01*
X22867Y6333D01*
Y6750D01*
X23033D02*
X23367D01*
Y6667D01*
X23033Y6333D01*
Y6250D01*
X12750Y13716D02*
X13250D01*
Y13467D01*
X13167Y13383D01*
X13000D01*
X12917Y13467D01*
Y13716D01*
Y13550D02*
X12750Y13383D01*
Y12883D02*
Y13217D01*
X13083Y12883D01*
X13167D01*
X13250Y12967D01*
Y13133D01*
X13167Y13217D01*
Y12717D02*
X13250Y12633D01*
Y12467D01*
X13167Y12384D01*
X13083D01*
X13000Y12467D01*
Y12550D01*
Y12467D01*
X12917Y12384D01*
X12833D01*
X12750Y12467D01*
Y12633D01*
X12833Y12717D01*
X15450Y13716D02*
X15950D01*
Y13467D01*
X15867Y13383D01*
X15700D01*
X15617Y13467D01*
Y13716D01*
Y13550D02*
X15450Y13383D01*
Y12883D02*
Y13217D01*
X15783Y12883D01*
X15867D01*
X15950Y12967D01*
Y13133D01*
X15867Y13217D01*
X15450Y12384D02*
Y12717D01*
X15783Y12384D01*
X15867D01*
X15950Y12467D01*
Y12633D01*
X15867Y12717D01*
X4475Y4550D02*
Y5050D01*
X4725D01*
X4808Y4967D01*
Y4800D01*
X4725Y4717D01*
X4475D01*
X4642D02*
X4808Y4550D01*
X4975D02*
X5142D01*
X5058D01*
Y5050D01*
X4975Y4967D01*
X5392Y4633D02*
X5475Y4550D01*
X5641D01*
X5725Y4633D01*
Y4967D01*
X5641Y5050D01*
X5475D01*
X5392Y4967D01*
Y4883D01*
X5475Y4800D01*
X5725D01*
X4475Y9500D02*
Y10000D01*
X4725D01*
X4808Y9917D01*
Y9750D01*
X4725Y9667D01*
X4475D01*
X4642D02*
X4808Y9500D01*
X4975D02*
X5142D01*
X5058D01*
Y10000D01*
X4975Y9917D01*
X5392Y10000D02*
X5725D01*
Y9917D01*
X5392Y9583D01*
Y9500D01*
X4425Y14700D02*
Y15200D01*
X4675D01*
X4758Y15117D01*
Y14950D01*
X4675Y14867D01*
X4425D01*
X4592D02*
X4758Y14700D01*
X4925D02*
X5092D01*
X5008D01*
Y15200D01*
X4925Y15117D01*
X5675Y15200D02*
X5508Y15117D01*
X5342Y14950D01*
Y14783D01*
X5425Y14700D01*
X5591D01*
X5675Y14783D01*
Y14867D01*
X5591Y14950D01*
X5342D01*
X12850Y15375D02*
X13350D01*
Y15125D01*
X13267Y15042D01*
X13100D01*
X13017Y15125D01*
Y15375D01*
Y15208D02*
X12850Y15042D01*
Y14875D02*
Y14708D01*
Y14792D01*
X13350D01*
X13267Y14875D01*
X13350Y14125D02*
Y14458D01*
X13100D01*
X13183Y14292D01*
Y14209D01*
X13100Y14125D01*
X12933D01*
X12850Y14209D01*
Y14375D01*
X12933Y14458D01*
X11650Y13625D02*
X12150D01*
Y13375D01*
X12067Y13292D01*
X11900D01*
X11817Y13375D01*
Y13625D01*
Y13458D02*
X11650Y13292D01*
Y13125D02*
Y12958D01*
Y13042D01*
X12150D01*
X12067Y13125D01*
X11650Y12459D02*
X12150D01*
X11900Y12708D01*
Y12375D01*
X4475Y6950D02*
Y7450D01*
X4725D01*
X4808Y7367D01*
Y7200D01*
X4725Y7117D01*
X4475D01*
X4642D02*
X4808Y6950D01*
X4975D02*
X5142D01*
X5058D01*
Y7450D01*
X4975Y7367D01*
X5725Y6950D02*
X5392D01*
X5725Y7283D01*
Y7367D01*
X5641Y7450D01*
X5475D01*
X5392Y7367D01*
X11650Y15391D02*
X12150D01*
Y15142D01*
X12067Y15058D01*
X11900D01*
X11817Y15142D01*
Y15391D01*
Y15225D02*
X11650Y15058D01*
Y14892D02*
Y14725D01*
Y14808D01*
X12150D01*
X12067Y14892D01*
X11650Y14475D02*
Y14309D01*
Y14392D01*
X12150D01*
X12067Y14475D01*
X4475Y12050D02*
Y12550D01*
X4725D01*
X4808Y12467D01*
Y12300D01*
X4725Y12217D01*
X4475D01*
X4642D02*
X4808Y12050D01*
X4975D02*
X5142D01*
X5058D01*
Y12550D01*
X4975Y12467D01*
X5392D02*
X5475Y12550D01*
X5641D01*
X5725Y12467D01*
Y12133D01*
X5641Y12050D01*
X5475D01*
X5392Y12133D01*
Y12467D01*
X14100Y15317D02*
X14600D01*
Y15067D01*
X14517Y14983D01*
X14350D01*
X14267Y15067D01*
Y15317D01*
Y15150D02*
X14100Y14983D01*
X14600Y14817D02*
Y14483D01*
X14517D01*
X14183Y14817D01*
X14100D01*
X16600Y15217D02*
X17100D01*
Y14967D01*
X17017Y14883D01*
X16850D01*
X16767Y14967D01*
Y15217D01*
Y15050D02*
X16600Y14883D01*
X17100Y14383D02*
X17017Y14550D01*
X16850Y14717D01*
X16683D01*
X16600Y14633D01*
Y14467D01*
X16683Y14383D01*
X16767D01*
X16850Y14467D01*
Y14717D01*
X15300Y15267D02*
X15800D01*
Y15017D01*
X15717Y14933D01*
X15550D01*
X15467Y15017D01*
Y15267D01*
Y15100D02*
X15300Y14933D01*
X15717Y14767D02*
X15800Y14683D01*
Y14517D01*
X15717Y14433D01*
X15633D01*
X15550Y14517D01*
Y14600D01*
Y14517D01*
X15467Y14433D01*
X15383D01*
X15300Y14517D01*
Y14683D01*
X15383Y14767D01*
X31417Y1492D02*
X31500Y1575D01*
Y1741D01*
X31417Y1825D01*
X31083D01*
X31000Y1741D01*
Y1575D01*
X31083Y1492D01*
X31000Y1325D02*
Y1158D01*
Y1242D01*
X31500D01*
X31417Y1325D01*
Y908D02*
X31500Y825D01*
Y659D01*
X31417Y575D01*
X31083D01*
X31000Y659D01*
Y825D01*
X31083Y908D01*
X31417D01*
X27217Y1283D02*
X27300Y1367D01*
Y1533D01*
X27217Y1617D01*
X26883D01*
X26800Y1533D01*
Y1367D01*
X26883Y1283D01*
Y1117D02*
X26800Y1033D01*
Y867D01*
X26883Y783D01*
X27217D01*
X27300Y867D01*
Y1033D01*
X27217Y1117D01*
X27133D01*
X27050Y1033D01*
Y783D01*
X14067Y1367D02*
X13983Y1450D01*
X13817D01*
X13733Y1367D01*
Y1033D01*
X13817Y950D01*
X13983D01*
X14067Y1033D01*
X14233Y1367D02*
X14317Y1450D01*
X14483D01*
X14567Y1367D01*
Y1283D01*
X14483Y1200D01*
X14567Y1117D01*
Y1033D01*
X14483Y950D01*
X14317D01*
X14233Y1033D01*
Y1117D01*
X14317Y1200D01*
X14233Y1283D01*
Y1367D01*
X14317Y1200D02*
X14483D01*
X19517Y6833D02*
X19600Y6917D01*
Y7083D01*
X19517Y7167D01*
X19183D01*
X19100Y7083D01*
Y6917D01*
X19183Y6833D01*
X19600Y6667D02*
Y6333D01*
X19517D01*
X19183Y6667D01*
X19100D01*
X6317Y18633D02*
X6400Y18717D01*
Y18883D01*
X6317Y18967D01*
X5983D01*
X5900Y18883D01*
Y18717D01*
X5983Y18633D01*
X6400Y18133D02*
X6317Y18300D01*
X6150Y18467D01*
X5983D01*
X5900Y18383D01*
Y18217D01*
X5983Y18133D01*
X6067D01*
X6150Y18217D01*
Y18467D01*
X6067Y10767D02*
X5983Y10850D01*
X5817D01*
X5733Y10767D01*
Y10433D01*
X5817Y10350D01*
X5983D01*
X6067Y10433D01*
X6567Y10850D02*
X6233D01*
Y10600D01*
X6400Y10683D01*
X6483D01*
X6567Y10600D01*
Y10433D01*
X6483Y10350D01*
X6317D01*
X6233Y10433D01*
X6317Y16033D02*
X6400Y16117D01*
Y16283D01*
X6317Y16367D01*
X5983D01*
X5900Y16283D01*
Y16117D01*
X5983Y16033D01*
X5900Y15617D02*
X6400D01*
X6150Y15867D01*
Y15533D01*
X6467Y3833D02*
X6550Y3917D01*
Y4083D01*
X6467Y4167D01*
X6133D01*
X6050Y4083D01*
Y3917D01*
X6133Y3833D01*
X6467Y3667D02*
X6550Y3583D01*
Y3417D01*
X6467Y3333D01*
X6383D01*
X6300Y3417D01*
Y3500D01*
Y3417D01*
X6217Y3333D01*
X6133D01*
X6050Y3417D01*
Y3583D01*
X6133Y3667D01*
G54D15*
X31400Y22450D02*
D03*
M02*
