M48
;Layer_Color=9474304
;FILE_FORMAT=2:4
INCH,LZ
;TYPE=PLATED
T1F00S00C0.0268
T2F00S00C0.0280
T3F00S00C0.0295
T4F00S00C0.0300
T5F00S00C0.0320
T6F00S00C0.0400
T7F00S00C0.0420
T8F00S00C0.0512
T9F00S00C0.1181
;TYPE=NON_PLATED
T10F00S00C0.0420
%
T01
X0285Y0222
X029Y0227
Y0217
T02
X00495Y0197
Y022
T03
X01865Y00555
X01945
X0202Y0052
X0213
X0223Y00555
X02545Y00785
Y0089
X02655Y0088
Y00785
X0323Y0013
X0109Y00205
X01095Y0046
X0102Y00515
Y004
X0109Y0069
X0137Y00685
X0145
X01395Y00515
X01655Y01005
X0108Y01075
X00495Y01065
X0047Y0091
X0055
X0049Y00825
Y00595
X00475Y0038
X003Y00375
X00395Y00135
X0055Y011607
X00495Y01325
Y01425
Y0158
X01025Y016
X011333Y014117
X0108Y0119
X01425
X01485Y0207
X01365Y020791
X0125Y02075
X01095Y02
X00915Y02125
X01755
X0179Y0141
X021Y0136
Y0125
X0239Y01415
X02555Y0141
X0262Y0128
X0236Y0157
X027Y02085
X03135Y0141
X0327
T04
X020513Y0068
X0213
T05
X0173Y0012
X0178Y00255
Y00355
Y00455
Y00555
X01735Y00685
X0176Y0085
X0186
X0196
X0206
X0216
X0226
X0236
X0241Y0068
X0236Y00555
Y00455
Y00355
Y00255
X0241Y0012
X0261
X0266Y00255
Y00355
Y00455
Y00555
X0278Y0059
Y0049
Y0039
Y0029
X0283Y0013
X0303
X0308Y0029
Y0039
Y0049
Y0059
Y0069
Y0079
Y0089
X0313Y0103
X0273
X0278Y0089
Y0079
Y0069
X0261Y0068
X02195Y00375
Y00275
Y00175
X0196
Y00275
Y00375
X0148Y00355
Y00455
Y00555
X01535Y00685
X0157Y00785
X0143Y009
Y011
X013Y0079
X01185
X0118Y0052
X013
X0092Y00515
Y0038
X0072
Y00515
X0067Y0064
X0077
X0087
X0097
Y0094
X0087
X0077
X0067
X0072Y01055
X0092
X0034Y01035
X0024
Y0079
X0034
Y0055
X0024
X0062Y00255
Y0014
X0102
Y00255
X0118Y0012
X013
X0153
X0148Y00255
X0014Y0055
Y0079
Y01035
Y0128
Y01525
X0024
X0034
Y0128
X0024
X0067Y0116
X0077
X0087
X0097
X01185Y0119
X013
X0157Y01185
X0156Y01605
X01435
X0131
X0119
X00905Y016
X0091Y01725
Y0185
X0071
Y01725
X00705Y016
X0067Y0146
X0077
X0087
X0097
X0101Y0197
X0119Y02005
X0131
X01435
X0156
X0168Y02
Y016
X0061Y0197
X0181Y01905
X0195Y0187
Y0177
Y0167
Y0157
Y0147
X0199Y013
X0196Y0115
X0186
X0176
X0179Y013
X0219
X0216Y0115
X0206
X0226
X0236
X0239Y013
X0225Y0147
Y0157
Y0167
Y0177
Y0187
Y0197
Y0207
X0236Y01935
X02527Y0178
X02624
X02735Y01795
Y01675
Y01555
X02624Y01575
X02527
X02835Y01415
X03035
X0313Y0128
Y0115
X0273
Y0128
X03135Y01555
Y01675
Y01795
X027Y02235
X025
X026Y02335
X0236
X0195Y0207
Y0197
X0181Y01705
T06
X02515Y0103
X02615
X01662Y022664
Y024436
X01918
Y022664
X0314Y0234
Y0194
T07
X001649Y018438
Y019619
X00283
Y018438
X01145Y023
Y024181
X012631
Y023
X036269Y013581
X03745
Y0124
X036269
T08
X033226Y018847
X035588Y018059
X03795Y018847
Y02365
X033226
T09
X037402Y001969
X001969
Y023622
T10
X0032Y017257
Y0208
X010269Y02263
X013812
X035899Y014762
Y011219
M30
