M48
; DRILL file KiCad 10.0.4 date 2026-10-01T18:06:37
; FORMAT={-:-/ absolute / metric / decimal}
; #@! TF.CreationDate,2026-10-01T18:06:37-03:00
; #@! TF.GenerationSoftware,Kicad,Pcbnew,10.0.4
; #@! TF.FileFunction,Plated,1,6,PTH
FMAT,2
METRIC
; #@! TA.AperFunction,Plated,PTH,ViaDrill
T1C0.250
; #@! TA.AperFunction,Plated,PTH,ViaDrill
T2C0.300
; #@! TA.AperFunction,Plated,PTH,ViaDrill
T3C0.600
; #@! TA.AperFunction,Plated,PTH,ComponentDrill
T4C1.067
; #@! TA.AperFunction,Plated,PTH,ComponentDrill
T5C1.075
; #@! TA.AperFunction,Plated,PTH,ComponentDrill
T6C1.092
; #@! TA.AperFunction,Plated,PTH,ComponentDrill
T7C1.100
; #@! TA.AperFunction,Plated,PTH,ComponentDrill
T8C1.245
; #@! TA.AperFunction,Plated,PTH,ComponentDrill
T9C2.200
; #@! TA.AperFunction,Plated,PTH,ComponentDrill
T10C3.600
; #@! TA.AperFunction,Plated,PTH,ComponentDrill
T11C4.900
; #@! TA.AperFunction,Plated,PTH,ComponentDrill
T12C5.900
%
G90
G05
T1
X29.875Y-123.3
X54.175Y-85.4
X54.95Y-123.0
X59.45Y-120.65
X60.15Y-138.95
X60.275Y-146.525
X61.5Y-138.9
X62.725Y-135.25
X62.725Y-143.25
X63.875Y-142.2
X65.025Y-143.4
X65.24Y-147.01
X65.55Y-144.55
X66.7Y-134.6
X67.275Y-124.35
X67.3Y-121.075
X67.375Y-55.825
X67.425Y-58.6
X68.025Y-126.925
X68.15Y-52.7
X68.2Y-60.475
X68.575Y-118.225
X69.6Y-128.875
X69.875Y-62.975
X70.225Y-95.8
X70.275Y-50.15
X70.475Y-116.225
X71.5Y-130.475
X71.925Y-64.45
X73.125Y-114.775
X73.375Y-39.15
X73.45Y-37.175
X73.475Y-41.75
X73.5Y-48.525
X73.55Y-45.325
X73.6Y-88.55
X73.6Y-136.825
X73.625Y-71.9
X73.625Y-132.15
X73.625Y-134.425
X73.625Y-145.8
X73.65Y-65.25
X73.65Y-86.2
X73.65Y-141.125
X73.65Y-143.4
X73.675Y-69.55
X73.675Y-84.25
X73.675Y-108.9
X73.675Y-138.725
X73.7Y-67.6
X73.7Y-73.875
X73.7Y-80.4
X73.7Y-111.9
X73.725Y-81.9
X73.75Y-76.125
X73.75Y-78.05
X73.85Y-106.275
X75.575Y-89.075
X76.65Y-145.85
X76.725Y-37.075
X76.825Y-106.225
X78.525Y-89.05
X79.275Y-106.175
X79.975Y-37.125
X81.025Y-89.05
X82.05Y-106.175
X82.15Y-145.875
X82.4Y-37.175
X83.775Y-89.125
X84.375Y-106.225
X85.675Y-37.075
X86.45Y-89.05
X87.3Y-145.675
X87.35Y-106.175
X88.925Y-37.125
X89.475Y-89.05
X89.8Y-106.125
X91.6Y-37.175
X91.9Y-89.05
X92.25Y-145.675
X92.575Y-106.125
X94.125Y-37.15
X94.5Y-103.5
X94.5Y-104.7
X94.7Y-89.075
X94.775Y-106.175
X96.6Y-37.075
X97.35Y-89.025
X97.75Y-106.175
X98.55Y-146.3
X98.925Y-37.1
X100.1Y-89.0
X100.25Y-106.175
X101.85Y-37.175
X102.825Y-88.975
X103.0Y-106.175
X103.975Y-146.325
X104.7Y-37.1
X105.075Y-106.2
X107.525Y-106.15
X107.575Y-37.1
X108.3Y-88.925
X109.425Y-146.35
X110.3Y-106.15
X110.875Y-37.1
X111.35Y-88.925
X112.625Y-106.2
X113.775Y-88.9
X114.025Y-37.175
X114.9Y-146.3
X115.6Y-106.15
X116.6Y-88.875
X117.125Y-37.175
X118.05Y-106.1
X119.25Y-88.85
X120.075Y-37.125
X120.35Y-146.275
X120.825Y-106.1
X121.85Y-88.9
X123.025Y-106.15
X123.35Y-37.2
X124.725Y-88.825
X125.775Y-146.3
X125.875Y-37.225
X126.0Y-106.15
X127.475Y-88.925
X128.2Y-37.175
X128.45Y-106.2
X130.15Y-88.85
X130.6Y-37.175
X130.9Y-106.15
X131.25Y-146.275
X132.65Y-88.9
X132.775Y-37.175
X133.675Y-106.15
X135.1Y-37.175
X135.6Y-88.875
X136.0Y-106.2
X136.775Y-146.25
X137.35Y-37.15
X138.4Y-88.85
X138.975Y-106.15
X139.4Y-37.1
X141.075Y-88.825
X141.4Y-106.175
X141.6Y-37.1
X142.875Y-146.275
X143.625Y-37.125
X143.725Y-88.85
X144.2Y-106.1
X145.725Y-37.1
X146.4Y-106.15
X146.525Y-88.8
X147.975Y-37.1
X148.325Y-146.25
X149.075Y-88.875
X149.375Y-106.15
X150.475Y-37.1
X151.325Y-106.25
X151.95Y-88.825
X152.95Y-37.15
X153.75Y-146.25
X153.775Y-106.2
X154.975Y-88.825
X155.6Y-37.15
X156.55Y-106.2
X157.425Y-88.8
X158.55Y-37.1
X158.875Y-106.25
X159.2Y-146.25
X159.7Y-88.75
X160.95Y-37.15
X161.85Y-106.2
X162.95Y-88.775
X163.475Y-37.15
X164.3Y-106.15
X164.65Y-146.225
X165.775Y-88.8
X166.0Y-37.125
X167.075Y-106.15
X168.275Y-37.175
X168.55Y-88.75
X169.275Y-106.2
X170.125Y-146.175
X170.65Y-37.125
X172.25Y-106.2
X173.15Y-37.125
X174.1Y-106.175
X175.275Y-37.125
X175.6Y-146.125
X176.55Y-106.125
X177.05Y-37.15
X177.875Y-89.05
X178.95Y-37.15
X179.325Y-106.125
X180.475Y-89.0
X180.975Y-37.15
X181.075Y-146.1
X181.65Y-106.175
X182.775Y-37.175
X183.175Y-89.0
X184.525Y-37.15
X184.625Y-106.125
X185.975Y-88.95
X186.55Y-146.05
X186.57Y-37.128
X187.075Y-106.075
X188.725Y-88.875
X189.025Y-37.1
X189.85Y-106.075
X191.475Y-88.925
X191.525Y-37.1
X192.025Y-146.025
X192.05Y-106.125
X194.175Y-37.075
X194.225Y-88.875
X195.025Y-106.125
X196.925Y-37.1
X196.95Y-88.9
X197.05Y-106.3
X197.45Y-146.05
X199.375Y-37.05
X199.5Y-106.25
X199.675Y-88.875
X201.5Y-37.05
X202.275Y-106.25
X202.45Y-88.875
X202.9Y-146.075
X204.025Y-37.05
X204.6Y-106.3
X205.25Y-88.85
X206.325Y-37.1
X207.575Y-106.25
X207.95Y-88.85
X208.375Y-146.025
X209.225Y-37.125
X210.0Y-106.225
X210.725Y-88.825
X211.025Y-37.075
X212.6Y-37.1
X213.45Y-88.8
X213.495Y-106.234
X213.825Y-146.0
X214.375Y-37.1
X215.675Y-106.225
X216.375Y-37.1
X216.375Y-88.725
X218.8Y-113.175
X218.85Y-92.725
X218.85Y-102.375
X218.85Y-104.525
X218.85Y-115.275
X218.875Y-96.7
X218.875Y-99.6
X218.95Y-88.75
X219.025Y-37.075
X219.25Y-146.025
X221.575Y-37.075
X224.15Y-37.1
X224.725Y-146.0
X226.725Y-37.1
X228.05Y-117.85
X228.9Y-37.1
X230.25Y-145.975
X231.0Y-37.125
X233.425Y-37.1
X235.85Y-37.075
X235.85Y-145.95
T2
X15.6Y-131.95
X15.6Y-139.925
X15.6Y-142.175
X15.625Y-126.95
X15.625Y-129.325
X15.625Y-144.8
X15.625Y-149.8
X15.625Y-154.1
X15.65Y-134.65
X15.65Y-137.4
X15.65Y-147.125
X15.65Y-152.0
X15.65Y-156.45
X15.775Y-160.8
X15.825Y-163.35
X15.85Y-123.275
X18.425Y-163.525
X19.875Y-123.125
X20.575Y-163.5
X20.7Y-135.85
X20.75Y-128.575
X20.75Y-132.25
X20.75Y-140.2
X20.8Y-144.6
X20.9Y-148.575
X20.95Y-151.9
X21.05Y-155.275
X21.125Y-158.4
X23.1Y-128.5
X23.225Y-163.5
X23.35Y-33.7
X23.75Y-91.25
X24.05Y-58.1
X24.05Y-60.4
X24.425Y-123.225
X24.7Y-59.25
X25.2Y-158.5
X25.25Y-58.1
X25.35Y-60.4
X25.675Y-163.475
X25.75Y-128.525
X26.7Y-123.225
X26.88Y-133.6
X27.03Y-150.19
X28.35Y-163.6
X28.55Y-128.475
X28.575Y-158.5
X30.525Y-163.475
X30.85Y-86.85
X30.925Y-128.475
X32.56Y-152.929
X33.05Y-163.725
X33.075Y-128.475
X33.16Y-136.733
X33.31Y-145.97
X33.4Y-123.075
X33.41Y-129.77
X33.48Y-131.06
X33.55Y-89.0
X33.575Y-94.05
X33.66Y-154.2
X33.71Y-147.49
X34.04Y-138.0
X35.15Y-123.025
X35.25Y-89.1
X35.425Y-128.375
X35.6Y-163.7
X37.475Y-123.1
X37.5Y-83.5
X37.5Y-87.75
X37.55Y-92.35
X37.675Y-128.95
X37.775Y-131.425
X37.8Y-141.575
X37.825Y-97.3
X37.825Y-144.15
X37.85Y-139.475
X37.875Y-136.725
X37.9Y-134.15
X37.95Y-146.725
X37.95Y-149.35
X38.0Y-151.425
X38.05Y-155.75
X38.075Y-153.45
X38.275Y-163.625
X38.45Y-61.0
X38.45Y-62.95
X38.45Y-65.0
X38.625Y-102.35
X38.625Y-106.575
X39.475Y-84.975
X39.8Y-123.1
X40.35Y-163.85
X41.0Y-108.5
X41.05Y-81.144
X42.15Y-66.3
X42.15Y-104.6
X42.3Y-56.2
X42.775Y-123.225
X42.8Y-68.85
X42.8Y-97.45
X42.85Y-131.35
X42.85Y-139.325
X42.85Y-141.575
X42.875Y-126.35
X42.875Y-128.725
X42.875Y-144.2
X42.875Y-149.2
X42.875Y-153.5
X42.9Y-117.485
X42.9Y-134.05
X42.9Y-136.8
X42.9Y-146.525
X42.9Y-151.4
X42.9Y-155.85
X43.025Y-160.2
X43.075Y-162.75
X43.45Y-92.2
X43.5Y-115.15
X43.5Y-116.35
X43.85Y-105.25
X43.85Y-106.55
X43.85Y-107.9
X43.95Y-71.65
X44.0Y-70.05
X44.05Y-73.8
X44.4Y-55.3
X44.95Y-103.05
X45.05Y-85.2
X45.65Y-68.25
X45.75Y-88.8
X46.15Y-54.1
X46.288Y-89.4
X46.35Y-76.35
X46.9Y-83.05
X46.9Y-84.45
X46.95Y-47.15
X47.0Y-140.75
X47.0Y-149.0
X47.05Y-101.55
X47.4Y-153.0
X47.65Y-104.2
X47.65Y-137.05
X48.25Y-100.5
X48.25Y-151.5
X48.5Y-65.25
X49.25Y-93.35
X49.25Y-139.0
X49.9Y-78.8
X49.9Y-89.1
X50.05Y-68.875
X50.1Y-117.1
X50.4Y-100.35
X50.45Y-94.55
X50.55Y-54.2
X50.75Y-51.0
X50.978Y-104.25
X50.978Y-121.8
X51.05Y-112.9
X51.2Y-108.2
X51.6Y-49.6
X51.69Y-84.82
X52.0Y-94.0
X52.0Y-128.4
X52.2Y-66.5
X52.2Y-68.5
X52.47Y-82.06
X52.764Y-132.9
X52.878Y-83.56
X52.9Y-90.95
X53.253Y-52.209
X53.65Y-104.3
X53.8Y-134.95
X53.85Y-133.65
X53.9Y-101.65
X54.3Y-128.2
X54.5Y-67.05
X54.5Y-86.55
X54.55Y-80.0
X55.0Y-100.8
X55.15Y-57.275
X55.15Y-98.45
X55.19Y-58.15
X55.2Y-48.7
X55.25Y-105.5
X55.25Y-127.05
X55.6Y-139.85
X55.75Y-77.85
X56.0Y-127.8
X56.0Y-135.55
X56.05Y-93.6
X56.05Y-101.7
X56.075Y-90.25
X56.075Y-91.75
X56.35Y-78.8
X56.55Y-48.7
X56.75Y-92.75
X56.75Y-138.3
X57.06Y-83.41
X57.3Y-67.4
X57.377Y-104.15
X57.4Y-111.2
X57.5Y-128.75
X57.55Y-94.95
X57.85Y-101.45
X58.05Y-127.05
X58.07Y-83.47
X58.1Y-108.35
X58.25Y-100.35
X58.5Y-52.0
X58.675Y-90.225
X58.75Y-132.25
X58.8Y-92.05
X58.8Y-104.3
X58.85Y-88.75
X58.878Y-99.45
X59.3Y-127.0
X59.4Y-110.45
X59.53Y-83.65
X60.0Y-102.15
X60.23Y-128.461
X60.59Y-84.25
X60.6Y-104.9
X60.6Y-113.7
X61.124Y-110.174
X61.25Y-117.4
X61.25Y-132.5
X61.3Y-115.5
X61.3Y-116.45
X61.303Y-118.198
X61.338Y-90.065
X61.677Y-85.835
X61.75Y-121.75
X62.1Y-128.0
X62.2Y-97.15
X62.5Y-132.5
X62.6Y-90.4
X62.705Y-88.73
X62.75Y-119.75
X63.45Y-96.75
X63.55Y-68.8
X63.95Y-77.1
X64.0Y-121.55
X64.5Y-96.25
X65.06Y-123.275
X65.5Y-95.9
X65.95Y-138.95
X66.17Y-108.375
X66.49Y-63.15
X66.9Y-115.75
X70.3Y-108.35
X70.55Y-139.05
X73.7Y-102.825
X76.6Y-158.35
X77.3Y-98.6
X78.35Y-104.1
X78.6Y-158.4
X78.9Y-129.8
X79.0Y-114.175
X79.0Y-132.6
X79.0Y-135.625
X79.025Y-139.125
X79.075Y-117.3
X79.1Y-73.875
X79.125Y-63.425
X79.125Y-78.4
X79.15Y-66.125
X79.15Y-76.1
X79.15Y-81.325
X79.325Y-68.475
X79.325Y-71.1
X80.025Y-111.8
X80.075Y-127.6
X80.375Y-104.725
X80.5Y-61.875
X80.525Y-83.3
X80.525Y-158.375
X81.225Y-140.5
X81.5Y-63.75
X81.6Y-120.5
X82.025Y-123.475
X82.45Y-158.35
X82.5Y-111.45
X83.425Y-83.375
X83.95Y-140.425
X83.975Y-65.25
X84.05Y-101.1
X84.375Y-158.325
X85.25Y-115.3
X85.325Y-111.5
X86.35Y-158.35
X86.5Y-115.325
X86.525Y-116.4
X86.525Y-117.5
X86.55Y-99.3
X86.725Y-83.4
X87.175Y-140.6
X87.2Y-64.625
X87.75Y-98.1
X87.8Y-111.475
X88.55Y-121.85
X88.55Y-122.975
X88.575Y-124.2
X88.625Y-126.275
X88.65Y-127.4
X88.675Y-128.5
X88.85Y-44.25
X88.875Y-46.025
X88.9Y-48.15
X88.9Y-51.875
X88.913Y-50.262
X88.962Y-96.837
X88.975Y-55.675
X89.0Y-58.3
X89.05Y-62.4
X89.05Y-113.45
X89.15Y-42.425
X89.15Y-115.125
X89.175Y-116.225
X89.2Y-117.325
X89.325Y-118.45
X89.325Y-119.45
X89.5Y-31.3
X89.5Y-33.6
X89.65Y-28.15
X89.85Y-140.45
X90.0Y-83.375
X90.15Y-32.45
X90.388Y-119.05
X90.4Y-111.55
X90.7Y-31.3
X90.8Y-33.6
X91.55Y-42.5
X91.56Y-95.7
X91.875Y-124.475
X92.0Y-116.025
X92.025Y-116.975
X92.025Y-120.675
X92.025Y-121.775
X92.275Y-140.425
X92.835Y-113.605
X92.85Y-111.95
X93.05Y-83.375
X93.925Y-114.48
X94.325Y-42.375
X94.8Y-150.0
X94.8Y-152.3
X95.45Y-151.15
X95.465Y-114.46
X95.625Y-83.375
X95.725Y-140.525
X96.0Y-150.0
X96.1Y-152.3
X96.26Y-72.287
X96.8Y-42.4
X98.075Y-116.025
X98.1Y-116.975
X98.1Y-120.675
X98.1Y-121.775
X98.25Y-140.475
X98.425Y-83.45
X99.1Y-42.35
X99.64Y-27.95
X100.925Y-140.5
X101.142Y-118.737
X101.192Y-118.162
X101.805Y-117.55
X101.95Y-83.575
X102.85Y-42.4
X103.525Y-140.475
X105.1Y-83.675
X105.2Y-42.4
X105.625Y-111.55
X105.875Y-140.475
X106.175Y-66.075
X106.9Y-89.1
X106.9Y-91.5
X107.02Y-137.06
X107.65Y-42.4
X107.95Y-83.625
X108.11Y-132.44
X108.325Y-140.475
X108.45Y-111.575
X108.52Y-129.57
X110.225Y-125.625
X110.445Y-80.1
X110.45Y-42.425
X110.475Y-83.425
X111.0Y-140.525
X111.25Y-111.6
X111.475Y-134.975
X111.625Y-113.375
X111.675Y-95.675
X111.675Y-115.825
X111.7Y-81.525
X111.725Y-125.05
X111.8Y-127.975
X111.825Y-121.075
X111.85Y-118.6
X112.4Y-73.3
X112.65Y-83.5
X112.985Y-80.8
X112.985Y-81.734
X113.0Y-96.9
X113.125Y-42.475
X113.212Y-69.712
X114.075Y-140.5
X114.25Y-98.1
X114.255Y-80.283
X114.255Y-81.734
X114.9Y-73.25
X114.938Y-71.6
X114.95Y-75.6
X115.0Y-78.65
X115.0Y-128.025
X115.125Y-83.55
X115.4Y-129.925
X115.4Y-133.1
X115.525Y-81.734
X115.54Y-135.3
X115.55Y-99.3
X115.6Y-80.4
X115.8Y-42.425
X116.275Y-71.575
X116.575Y-140.5
X116.6Y-73.3
X117.275Y-83.425
X117.58Y-149.33
X117.65Y-95.1
X118.55Y-42.45
X119.025Y-139.175
X119.17Y-80.9
X119.2Y-78.0
X119.525Y-140.125
X119.625Y-56.575
X119.775Y-82.675
X120.0Y-59.0
X120.0Y-61.65
X120.05Y-43.975
X120.05Y-66.3
X120.05Y-76.875
X120.075Y-68.975
X120.075Y-80.1
X120.1Y-46.45
X120.1Y-48.75
X120.1Y-51.275
X120.1Y-71.675
X120.1Y-136.725
X120.125Y-74.1
X120.15Y-53.725
X120.15Y-133.5
X121.87Y-104.1
X125.875Y-115.95
X125.875Y-131.9
X125.925Y-44.45
X125.95Y-46.3
X125.95Y-136.25
X125.975Y-113.5
X125.975Y-129.425
X126.0Y-133.975
X126.05Y-69.375
X126.075Y-66.45
X126.1Y-74.45
X126.125Y-72.075
X126.125Y-76.8
X126.15Y-78.975
X126.15Y-138.8
X126.2Y-81.225
X127.075Y-82.975
X127.5Y-111.725
X127.55Y-116.575
X128.0Y-42.525
X128.025Y-140.475
X128.25Y-46.225
X128.475Y-66.325
X129.2Y-104.5
X129.7Y-83.4
X129.7Y-117.475
X130.075Y-111.475
X130.2Y-127.9
X130.6Y-46.325
X131.25Y-42.675
X131.375Y-66.275
X131.6Y-119.4
X131.675Y-140.575
X131.85Y-126.225
X132.225Y-83.4
X132.575Y-122.975
X132.62Y-155.75
X132.675Y-111.425
X133.075Y-46.325
X133.3Y-101.1
X134.075Y-66.25
X134.275Y-140.55
X134.4Y-42.675
X134.575Y-83.375
X134.825Y-111.4
X134.975Y-116.725
X134.975Y-119.575
X135.025Y-117.575
X135.065Y-99.3
X135.075Y-118.425
X135.5Y-46.325
X136.335Y-98.1
X136.8Y-140.375
X136.825Y-111.4
X136.875Y-42.6
X136.875Y-83.375
X136.975Y-66.075
X137.5Y-96.9
X137.625Y-114.65
X137.65Y-115.4
X137.65Y-116.175
X137.675Y-116.95
X138.15Y-46.325
X138.775Y-57.775
X138.8Y-53.0
X138.8Y-55.475
X138.825Y-49.45
X138.9Y-60.075
X138.9Y-62.475
X138.9Y-94.5
X138.975Y-64.875
X139.175Y-111.425
X139.4Y-140.5
X139.5Y-83.375
X139.6Y-42.575
X140.145Y-93.35
X141.4Y-94.5
X141.8Y-149.5
X141.8Y-151.8
X142.025Y-83.4
X142.125Y-42.525
X142.45Y-150.65
X143.0Y-149.5
X143.1Y-151.8
X143.15Y-104.25
X144.2Y-140.45
X144.725Y-42.475
X144.825Y-83.525
X145.7Y-30.9
X145.7Y-33.2
X145.75Y-27.65
X146.35Y-32.05
X146.9Y-30.9
X147.0Y-33.2
X147.3Y-42.425
X147.375Y-140.425
X147.525Y-83.5
X148.175Y-111.375
X149.925Y-83.55
X149.95Y-140.45
X150.625Y-42.425
X152.35Y-111.35
X152.4Y-30.76
X152.6Y-83.575
X152.725Y-140.5
X152.975Y-42.575
X154.15Y-127.37
X155.075Y-140.55
X155.175Y-83.625
X155.25Y-42.5
X155.325Y-111.325
X155.79Y-133.59
X155.79Y-138.36
X156.13Y-132.03
X157.45Y-83.625
X157.65Y-140.55
X158.025Y-111.4
X158.875Y-42.625
X158.9Y-112.725
X158.9Y-123.45
X158.95Y-114.825
X158.95Y-119.7
X159.0Y-126.5
X159.025Y-116.95
X159.975Y-140.55
X160.275Y-83.65
X161.95Y-140.625
X162.275Y-129.075
X162.825Y-42.575
X163.025Y-83.6
X163.07Y-79.825
X163.07Y-80.675
X163.07Y-81.57
X163.1Y-96.9
X163.2Y-131.55
X163.42Y-136.46
X164.225Y-140.45
X164.35Y-98.1
X165.49Y-149.05
X165.61Y-81.57
X165.61Y-99.3
X165.8Y-42.525
X165.975Y-83.65
X166.4Y-139.475
X166.9Y-92.7
X167.075Y-137.125
X167.125Y-134.575
X167.15Y-55.1
X167.2Y-131.5
X167.225Y-58.55
X168.375Y-42.525
X168.425Y-52.6
X168.475Y-61.1
X169.025Y-83.425
X170.1Y-78.8
X170.5Y-43.775
X170.55Y-62.525
X170.55Y-70.45
X170.55Y-73.1
X170.6Y-48.625
X170.6Y-50.85
X170.625Y-68.25
X170.64Y-104.4
X170.65Y-46.4
X170.65Y-66.35
X170.675Y-64.75
X172.25Y-92.7
X172.95Y-129.8
X172.975Y-132.375
X172.975Y-134.625
X172.975Y-139.125
X173.025Y-136.65
X173.125Y-114.15
X173.25Y-116.35
X173.5Y-111.95
X175.2Y-140.475
X175.225Y-129.075
X175.8Y-116.875
X176.0Y-111.325
X176.25Y-68.2
X176.25Y-75.375
X176.275Y-69.625
X176.275Y-77.975
X176.3Y-72.8
X176.3Y-102.25
X176.35Y-81.925
X177.55Y-83.475
X177.875Y-127.525
X178.25Y-111.45
X178.25Y-140.525
X178.621Y-118.779
X179.45Y-68.1
X179.45Y-125.225
X179.7Y-121.625
X179.8Y-99.9
X179.875Y-111.425
X179.95Y-83.525
X180.65Y-140.55
X181.525Y-111.425
X181.595Y-99.25
X181.775Y-115.475
X181.775Y-116.775
X181.775Y-118.125
X181.775Y-119.39
X182.125Y-83.525
X182.56Y-155.12
X182.865Y-98.1
X183.275Y-68.175
X183.5Y-111.425
X184.1Y-56.775
X184.135Y-96.9
X184.135Y-115.45
X184.135Y-116.75
X184.135Y-118.1
X184.5Y-30.8
X184.5Y-33.1
X185.0Y-83.575
X185.15Y-31.95
X185.275Y-111.375
X185.4Y-92.1
X185.7Y-30.8
X185.8Y-33.1
X186.275Y-45.575
X186.3Y-65.725
X186.375Y-47.075
X186.375Y-62.55
X186.475Y-50.325
X186.65Y-53.05
X186.675Y-90.85
X186.975Y-111.375
X187.25Y-59.975
X187.5Y-99.3
X187.945Y-113.635
X187.975Y-83.475
X188.1Y-55.2
X188.1Y-57.325
X188.125Y-115.075
X189.0Y-42.45
X189.025Y-113.55
X189.407Y-63.09
X189.65Y-90.9
X190.575Y-114.925
X190.825Y-83.525
X191.22Y-30.68
X191.4Y-149.9
X191.4Y-152.2
X191.55Y-42.525
X191.7Y-98.1
X191.98Y-155.13
X192.05Y-151.05
X192.6Y-149.9
X192.7Y-152.2
X194.05Y-42.55
X194.11Y-94.761
X194.25Y-65.65
X194.35Y-83.5
X194.85Y-95.6
X195.1Y-111.4
X197.35Y-83.55
X197.475Y-42.5
X200.2Y-83.5
X200.7Y-42.575
X201.225Y-111.325
X201.325Y-92.075
X203.075Y-83.525
X204.075Y-42.6
X204.25Y-111.4
X205.45Y-102.9
X205.95Y-83.425
X206.625Y-42.6
X207.025Y-81.465
X207.05Y-114.6
X207.15Y-127.25
X207.175Y-122.5
X207.3Y-111.575
X207.3Y-117.675
X208.0Y-101.5
X208.0Y-103.25
X208.3Y-81.825
X208.35Y-83.5
X209.125Y-130.1
X209.575Y-42.575
X209.575Y-81.6
X209.6Y-95.65
X210.2Y-96.3
X210.825Y-96.925
X210.835Y-81.5
X210.875Y-78.7
X210.875Y-79.675
X210.875Y-80.475
X210.9Y-77.95
X210.9Y-83.525
X211.075Y-130.875
X211.85Y-98.05
X212.105Y-81.465
X212.45Y-42.6
X212.5Y-83.525
X213.375Y-79.725
X213.375Y-80.95
X214.25Y-131.3
X214.6Y-96.3
X214.645Y-81.465
X214.825Y-83.525
X215.92Y-77.74
X215.975Y-42.55
X216.85Y-131.325
X217.475Y-83.55
X217.775Y-56.55
X218.325Y-53.875
X218.825Y-60.8
X218.95Y-111.575
X218.95Y-129.025
X218.975Y-127.1
X219.0Y-118.65
X219.0Y-131.225
X219.625Y-42.525
X219.825Y-83.425
X220.05Y-51.675
X220.125Y-117.475
X220.475Y-128.35
X220.65Y-115.15
X220.725Y-62.3
X221.33Y-135.06
X221.5Y-151.3
X222.225Y-129.025
X222.25Y-83.5
X222.425Y-50.5
X222.825Y-42.55
X222.875Y-111.475
X223.025Y-63.0
X223.85Y-114.25
X224.175Y-110.475
X224.2Y-95.3
X224.2Y-98.0
X224.2Y-100.525
X224.2Y-103.125
X224.2Y-108.65
X224.225Y-93.125
X224.275Y-90.575
X224.275Y-105.625
X224.575Y-83.55
X225.25Y-50.475
X225.675Y-62.875
X225.79Y-95.27
X225.875Y-129.15
X225.95Y-42.525
X225.975Y-88.925
X226.225Y-135.9
X227.175Y-106.375
X227.2Y-152.55
X227.4Y-83.525
X227.625Y-128.275
X227.725Y-51.375
X228.0Y-114.692
X228.18Y-149.13
X228.525Y-61.4
X228.65Y-88.875
X228.725Y-42.65
X228.925Y-127.15
X229.54Y-97.42
X229.6Y-53.275
X229.85Y-119.75
X229.975Y-125.65
X230.0Y-114.75
X230.12Y-110.712
X230.35Y-51.7
X230.375Y-48.375
X230.4Y-73.05
X230.4Y-76.125
X230.45Y-64.5
X230.45Y-69.925
X230.475Y-45.025
X230.475Y-55.15
X230.475Y-61.9
X230.475Y-78.65
X230.5Y-59.325
X230.5Y-67.55
X230.525Y-81.925
X230.85Y-89.475
X231.25Y-93.55
X231.25Y-95.95
X231.25Y-98.4
X231.25Y-109.325
X231.275Y-91.2
X231.275Y-100.8
X231.275Y-106.275
X231.275Y-111.7
X231.3Y-103.025
X231.3Y-113.95
X231.325Y-116.45
T3
X13.95Y-34.55
X14.05Y-41.95
X15.6Y-60.25
X19.25Y-46.8
X19.8Y-64.8
X19.85Y-66.65
X21.75Y-46.6
X21.75Y-122.35
X22.05Y-65.65
X22.15Y-105.8
X22.2Y-103.15
X22.95Y-40.85
X23.4Y-157.3
X24.4Y-64.75
X24.45Y-66.6
X25.75Y-99.05
X27.6Y-64.1
X28.15Y-57.05
X31.15Y-57.35
X32.0Y-28.3
X32.2Y-99.0
X32.55Y-54.35
X34.75Y-120.95
X35.4Y-28.4
X35.85Y-58.8
X37.0Y-32.25
X37.0Y-34.25
X37.0Y-37.5
X37.0Y-39.75
X37.55Y-93.85
X38.0Y-101.15
X39.3Y-36.21
X39.35Y-54.4
X39.85Y-166.5
X41.5Y-32.25
X41.5Y-34.5
X41.5Y-37.5
X41.5Y-39.75
X43.0Y-58.5
X43.85Y-44.5
X44.15Y-167.85
X44.45Y-160.8
X46.4Y-55.9
X46.95Y-44.55
X47.15Y-168.45
X47.2Y-143.8
X47.6Y-28.5
X49.17Y-61.42
X50.75Y-72.0
X51.55Y-43.9
X54.35Y-152.82
X54.37Y-146.59
X54.65Y-169.45
X55.25Y-30.6
X55.3Y-32.75
X55.4Y-38.0
X55.4Y-40.0
X57.4Y-169.9
X60.75Y-169.35
X62.69Y-49.69
X63.5Y-30.6
X64.042Y-127.958
X65.8Y-168.75
X67.6Y-98.875
X71.575Y-112.7
X74.45Y-167.8
X76.4Y-161.85
X76.8Y-28.025
X76.85Y-35.65
X77.4Y-165.25
X77.5Y-168.4
X81.225Y-114.925
X81.275Y-130.925
X81.275Y-136.25
X81.3Y-126.95
X81.35Y-118.8
X83.802Y-147.102
X83.95Y-28.025
X83.95Y-35.675
X85.4Y-155.2
X87.4Y-34.9
X88.005Y-78.2
X88.15Y-153.35
X90.35Y-157.15
X90.75Y-48.75
X91.05Y-52.925
X91.05Y-81.25
X91.425Y-67.85
X92.15Y-27.25
X94.225Y-111.775
X94.9Y-112.9
X95.5Y-54.8
X95.725Y-111.75
X96.0Y-156.35
X96.625Y-81.3
X96.67Y-45.7
X97.15Y-147.8
X97.9Y-55.1
X99.1Y-79.8
X99.975Y-139.05
X100.0Y-133.65
X100.025Y-128.35
X100.329Y-81.625
X101.7Y-55.1
X101.9Y-52.2
X102.15Y-122.2
X102.2Y-81.0
X102.525Y-73.1
X102.53Y-69.75
X102.65Y-150.6
X102.85Y-33.3
X103.425Y-115.0
X103.65Y-75.8
X104.8Y-55.2
X105.1Y-82.75
X106.4Y-78.7
X107.675Y-115.025
X108.5Y-76.5
X108.525Y-78.7
X109.35Y-52.85
X109.65Y-149.35
X110.25Y-138.625
X112.75Y-28.15
X112.8Y-35.75
X113.0Y-79.7
X113.025Y-78.014
X116.6Y-153.65
X119.7Y-151.2
X123.4Y-28.15
X123.4Y-35.8
X128.85Y-134.95
X128.875Y-113.875
X128.875Y-129.2
X129.525Y-148.775
X131.6Y-45.225
X132.025Y-131.45
X133.125Y-115.825
X134.05Y-28.15
X134.05Y-35.8
X134.05Y-158.55
X136.25Y-152.9
X136.77Y-136.91
X138.05Y-121.05
X138.275Y-130.625
X139.2Y-155.8
X139.284Y-121.051
X140.9Y-45.225
X140.92Y-56.84
X140.925Y-51.625
X141.475Y-113.501
X142.025Y-111.65
X142.525Y-113.501
X143.075Y-79.55
X143.1Y-155.65
X143.525Y-111.775
X143.525Y-113.675
X144.25Y-147.65
X145.8Y-79.55
X146.35Y-48.825
X147.125Y-70.325
X147.65Y-60.0
X148.025Y-133.375
X148.05Y-126.8
X148.725Y-122.525
X150.475Y-81.25
X150.6Y-76.725
X150.675Y-72.22
X150.7Y-70.1
X151.3Y-121.05
X152.05Y-125.775
X152.9Y-45.94
X153.975Y-76.7
X154.1Y-72.1
X154.2Y-53.2
X154.2Y-70.1
X156.15Y-28.5
X156.52Y-112.69
X156.6Y-51.65
X156.7Y-76.55
X156.8Y-71.1
X157.01Y-93.21
X157.05Y-149.25
X160.1Y-31.5
X160.225Y-128.4
X160.3Y-28.25
X160.3Y-35.9
X163.1Y-78.725
X164.37Y-81.57
X164.45Y-79.95
X164.55Y-153.2
X165.1Y-45.25
X165.2Y-51.6
X166.85Y-79.5
X166.95Y-71.375
X167.95Y-151.15
X169.95Y-75.725
X169.95Y-81.375
X170.6Y-89.3
X170.95Y-28.25
X170.95Y-35.9
X173.85Y-89.45
X174.4Y-113.4
X176.9Y-129.4
X176.925Y-134.325
X176.95Y-113.325
X179.65Y-147.2
X180.325Y-116.45
X181.125Y-71.05
X181.55Y-35.8
X181.6Y-28.25
X182.575Y-130.975
X184.1Y-157.95
X185.275Y-120.775
X185.65Y-153.3
X186.2Y-126.9
X186.225Y-124.875
X186.35Y-136.075
X186.825Y-71.05
X186.825Y-78.475
X187.1Y-158.2
X187.9Y-50.63
X188.95Y-111.925
X189.45Y-94.55
X189.85Y-104.4
X190.08Y-130.925
X190.15Y-52.9
X190.575Y-111.95
X190.575Y-113.85
X190.65Y-126.175
X191.575Y-45.825
X192.1Y-156.95
X192.45Y-148.05
X195.525Y-76.975
X195.675Y-68.75
X196.05Y-94.35
X196.213Y-120.775
X197.25Y-28.95
X197.925Y-81.725
X198.175Y-120.175
X198.8Y-33.3
X198.95Y-68.65
X199.3Y-77.0
X199.5Y-51.575
X199.95Y-151.5
X200.075Y-79.825
X200.4Y-138.075
X202.35Y-76.95
X202.575Y-69.775
X202.9Y-51.5
X203.125Y-80.625
X204.975Y-44.975
X205.45Y-90.75
X205.85Y-113.99
X206.25Y-74.8
X206.45Y-67.025
X206.56Y-95.51
X206.85Y-80.625
X207.725Y-134.9
X208.375Y-35.925
X208.45Y-28.4
X210.188Y-72.8
X211.0Y-105.65
X211.606Y-70.394
X213.405Y-78.225
X213.5Y-51.85
X216.075Y-134.975
X217.75Y-105.5
X217.8Y-100.5
X218.05Y-91.95
X219.025Y-28.275
X219.025Y-35.925
X220.45Y-149.25
X221.075Y-45.0
X221.3Y-67.9
X221.3Y-77.8
X225.725Y-92.325
X225.95Y-99.05
X226.7Y-73.4
X227.575Y-109.15
X229.35Y-136.025
X229.35Y-152.7
T4
X16.393Y-30.8
X19.393Y-30.8
T5
X31.56Y-157.6
X34.1Y-157.6
X36.64Y-157.6
X44.26Y-157.6
X46.8Y-157.6
T6
X21.642Y-115.65
X22.52Y-72.628
X22.52Y-74.828
X23.649Y-115.65
X24.52Y-72.628
X24.52Y-74.828
X25.63Y-115.65
X26.521Y-72.628
X27.637Y-115.65
X28.52Y-72.628
X29.643Y-115.65
X30.52Y-72.628
X31.65Y-115.65
X32.52Y-72.628
X33.631Y-115.65
X34.52Y-72.628
X34.52Y-74.828
X35.638Y-115.65
X36.52Y-72.628
X36.52Y-74.828
X55.761Y-158.75
X57.768Y-158.75
X59.749Y-158.75
X61.756Y-158.75
X63.762Y-158.75
X65.769Y-158.75
X67.75Y-158.75
X69.757Y-158.75
T7
X83.5Y-71.5
X83.5Y-79.0
X84.9Y-61.0
X98.8Y-112.0
X102.85Y-112.0
X113.05Y-63.7
X117.1Y-63.7
X119.05Y-112.0
X130.5Y-71.5
X130.5Y-79.0
X131.9Y-61.0
X145.8Y-112.0
X149.85Y-112.0
X160.05Y-63.7
X164.1Y-63.7
X166.05Y-112.0
X177.5Y-71.5
X177.5Y-79.0
X178.9Y-61.0
X192.8Y-112.0
X196.85Y-112.0
X207.05Y-63.7
X211.1Y-63.7
X213.05Y-112.0
T8
X24.36Y-137.158
X24.36Y-139.658
X24.36Y-142.158
X24.36Y-144.658
X24.36Y-147.158
X56.5Y-74.5
X59.0Y-74.5
X61.5Y-74.5
X64.0Y-74.5
X64.49Y-53.31
X64.49Y-55.81
X64.49Y-58.31
X64.49Y-60.81
X64.49Y-63.31
X66.5Y-74.5
X66.9Y-36.5
X66.9Y-39.0
X66.9Y-41.5
X66.9Y-44.0
X66.9Y-46.5
T9
X19.93Y-87.85
X28.49Y-166.45
X35.09Y-63.04
X59.0Y-32.5
T10
X75.6Y-56.75
X75.6Y-122.85
X126.2Y-56.75
X126.2Y-122.85
X173.5Y-56.75
X173.5Y-122.85
X224.1Y-56.75
X224.1Y-122.85
T11
X113.85Y-48.85
T12
X200.85Y-130.85
M30
