%TF.GenerationSoftware,KiCad,Pcbnew,10.0.4*%
%TF.CreationDate,2026-10-01T18:06:37-03:00*%
%TF.ProjectId,Primero_esquematico,5072696d-6572-46f5-9f65-737175656d61,rev?*%
%TF.SameCoordinates,Original*%
%TF.FileFunction,Drillmap*%
%TF.FilePolarity,Positive*%
%FSLAX45Y45*%
G04 Gerber Fmt 4.5, Leading zero omitted, Abs format (unit mm)*
G04 Created by KiCad (PCBNEW 10.0.4) date 2026-10-01 18:06:37*
%MOMM*%
%LPD*%
G01*
G04 APERTURE LIST*
%ADD10C,0.100000*%
%ADD11C,0.050000*%
%ADD12C,0.200000*%
%ADD13C,0.106680*%
%ADD14C,0.134620*%
%ADD15C,0.223520*%
G04 APERTURE END LIST*
D10*
X1185000Y-2615000D02*
X23685000Y-2615000D01*
X23685000Y-17115000D01*
X1185000Y-17115000D01*
X1185000Y-2615000D01*
D11*
X8163000Y-10849000D02*
X9563000Y-10849000D01*
X9563000Y-10949000D01*
X8163000Y-10949000D01*
X8163000Y-10849000D01*
X8255000Y-14280000D02*
X9655000Y-14280000D01*
X9655000Y-14380000D01*
X8255000Y-14380000D01*
X8255000Y-14280000D01*
X8965000Y-3939000D02*
X10365000Y-3939000D01*
X10365000Y-4039000D01*
X8965000Y-4039000D01*
X8965000Y-3939000D01*
X10709000Y-8580000D02*
X12109000Y-8580000D01*
X12109000Y-8680000D01*
X10709000Y-8680000D01*
X10709000Y-8580000D01*
X10729000Y-14268000D02*
X12129000Y-14268000D01*
X12129000Y-14368000D01*
X10729000Y-14368000D01*
X10729000Y-14268000D01*
X13001000Y-14270000D02*
X14401000Y-14270000D01*
X14401000Y-14370000D01*
X13001000Y-14370000D01*
X13001000Y-14270000D01*
X13009000Y-10838000D02*
X14409000Y-10838000D01*
X14409000Y-10938000D01*
X13009000Y-10938000D01*
X13009000Y-10838000D01*
X14581000Y-3938000D02*
X15981000Y-3938000D01*
X15981000Y-4038000D01*
X14581000Y-4038000D01*
X14581000Y-3938000D01*
X15443000Y-14282000D02*
X16843000Y-14282000D01*
X16843000Y-14382000D01*
X15443000Y-14382000D01*
X15443000Y-14282000D01*
X15676000Y-8579000D02*
X17076000Y-8579000D01*
X17076000Y-8679000D01*
X15676000Y-8679000D01*
X15676000Y-8579000D01*
X17656000Y-10851000D02*
X19056000Y-10851000D01*
X19056000Y-10951000D01*
X17656000Y-10951000D01*
X17656000Y-10851000D01*
X17908000Y-14277000D02*
X19308000Y-14277000D01*
X19308000Y-14377000D01*
X17908000Y-14377000D01*
X17908000Y-14277000D01*
X18443000Y-3934000D02*
X19843000Y-3934000D01*
X19843000Y-4034000D01*
X18443000Y-4034000D01*
X18443000Y-3934000D01*
X20450000Y-8560000D02*
X21850000Y-8560000D01*
X21850000Y-8660000D01*
X20450000Y-8660000D01*
X20450000Y-8560000D01*
X21853000Y-14271500D02*
X23140000Y-14271500D01*
X23140000Y-14371500D01*
X21853000Y-14371500D01*
X21853000Y-14271500D01*
X22096000Y-9527500D02*
X22196000Y-9527500D01*
X22196000Y-10814500D01*
X22096000Y-10814500D01*
X22096000Y-9527500D01*
D12*
D13*
X1491990Y-2726660D02*
X1598670Y-2833340D01*
X1598670Y-2726660D02*
X1491990Y-2833340D01*
X1491990Y-3326660D02*
X1598670Y-3433340D01*
X1598670Y-3326660D02*
X1491990Y-3433340D01*
D14*
X2369310Y-14090830D02*
G75*
G02*
X2234690Y-14090830I-67310J0D01*
G01*
X2234690Y-14090830D02*
G75*
G02*
X2369310Y-14090830I67310J0D01*
G01*
X6342310Y-7316000D02*
G75*
G02*
X6207690Y-7316000I-67310J0D01*
G01*
X6207690Y-7316000D02*
G75*
G02*
X6342310Y-7316000I67310J0D01*
G01*
X6382310Y-5706000D02*
G75*
G02*
X6247690Y-5706000I-67310J0D01*
G01*
X6247690Y-5706000D02*
G75*
G02*
X6382310Y-5706000I67310J0D01*
G01*
X6623310Y-4025000D02*
G75*
G02*
X6488690Y-4025000I-67310J0D01*
G01*
X6488690Y-4025000D02*
G75*
G02*
X6623310Y-4025000I67310J0D01*
G01*
D15*
X1879760Y-11707240D02*
X1879760Y-11930760D01*
X1768000Y-11819000D02*
X1991520Y-11819000D01*
X1967050Y-6896070D02*
X1967050Y-7119590D01*
X1855290Y-7007830D02*
X2078810Y-7007830D01*
X3848260Y-11707240D02*
X3848260Y-11930760D01*
X3736500Y-11819000D02*
X3960020Y-11819000D01*
X3937050Y-6896070D02*
X3937050Y-7119590D01*
X3825290Y-7007830D02*
X4048810Y-7007830D01*
X5291640Y-16017240D02*
X5291640Y-16240760D01*
X5179880Y-16129000D02*
X5403400Y-16129000D01*
X7260140Y-16017240D02*
X7260140Y-16240760D01*
X7148380Y-16129000D02*
X7371900Y-16129000D01*
D12*
X1440777Y-17431484D02*
X1440777Y-17231484D01*
X1440777Y-17231484D02*
X1488396Y-17231484D01*
X1488396Y-17231484D02*
X1516967Y-17241008D01*
X1516967Y-17241008D02*
X1536015Y-17260055D01*
X1536015Y-17260055D02*
X1545539Y-17279103D01*
X1545539Y-17279103D02*
X1555062Y-17317198D01*
X1555062Y-17317198D02*
X1555062Y-17345770D01*
X1555062Y-17345770D02*
X1545539Y-17383865D01*
X1545539Y-17383865D02*
X1536015Y-17402912D01*
X1536015Y-17402912D02*
X1516967Y-17421960D01*
X1516967Y-17421960D02*
X1488396Y-17431484D01*
X1488396Y-17431484D02*
X1440777Y-17431484D01*
X1640777Y-17431484D02*
X1640777Y-17298150D01*
X1640777Y-17336246D02*
X1650301Y-17317198D01*
X1650301Y-17317198D02*
X1659824Y-17307674D01*
X1659824Y-17307674D02*
X1678872Y-17298150D01*
X1678872Y-17298150D02*
X1697920Y-17298150D01*
X1764586Y-17431484D02*
X1764586Y-17298150D01*
X1764586Y-17231484D02*
X1755062Y-17241008D01*
X1755062Y-17241008D02*
X1764586Y-17250531D01*
X1764586Y-17250531D02*
X1774110Y-17241008D01*
X1774110Y-17241008D02*
X1764586Y-17231484D01*
X1764586Y-17231484D02*
X1764586Y-17250531D01*
X1888396Y-17431484D02*
X1869348Y-17421960D01*
X1869348Y-17421960D02*
X1859824Y-17402912D01*
X1859824Y-17402912D02*
X1859824Y-17231484D01*
X1993158Y-17431484D02*
X1974110Y-17421960D01*
X1974110Y-17421960D02*
X1964586Y-17402912D01*
X1964586Y-17402912D02*
X1964586Y-17231484D01*
X2221729Y-17431484D02*
X2221729Y-17231484D01*
X2221729Y-17231484D02*
X2288396Y-17374341D01*
X2288396Y-17374341D02*
X2355063Y-17231484D01*
X2355063Y-17231484D02*
X2355063Y-17431484D01*
X2536015Y-17431484D02*
X2536015Y-17326722D01*
X2536015Y-17326722D02*
X2526491Y-17307674D01*
X2526491Y-17307674D02*
X2507444Y-17298150D01*
X2507444Y-17298150D02*
X2469348Y-17298150D01*
X2469348Y-17298150D02*
X2450301Y-17307674D01*
X2536015Y-17421960D02*
X2516967Y-17431484D01*
X2516967Y-17431484D02*
X2469348Y-17431484D01*
X2469348Y-17431484D02*
X2450301Y-17421960D01*
X2450301Y-17421960D02*
X2440777Y-17402912D01*
X2440777Y-17402912D02*
X2440777Y-17383865D01*
X2440777Y-17383865D02*
X2450301Y-17364817D01*
X2450301Y-17364817D02*
X2469348Y-17355293D01*
X2469348Y-17355293D02*
X2516967Y-17355293D01*
X2516967Y-17355293D02*
X2536015Y-17345770D01*
X2631253Y-17298150D02*
X2631253Y-17498150D01*
X2631253Y-17307674D02*
X2650301Y-17298150D01*
X2650301Y-17298150D02*
X2688396Y-17298150D01*
X2688396Y-17298150D02*
X2707444Y-17307674D01*
X2707444Y-17307674D02*
X2716967Y-17317198D01*
X2716967Y-17317198D02*
X2726491Y-17336246D01*
X2726491Y-17336246D02*
X2726491Y-17393389D01*
X2726491Y-17393389D02*
X2716967Y-17412436D01*
X2716967Y-17412436D02*
X2707444Y-17421960D01*
X2707444Y-17421960D02*
X2688396Y-17431484D01*
X2688396Y-17431484D02*
X2650301Y-17431484D01*
X2650301Y-17431484D02*
X2631253Y-17421960D01*
X2812205Y-17412436D02*
X2821729Y-17421960D01*
X2821729Y-17421960D02*
X2812205Y-17431484D01*
X2812205Y-17431484D02*
X2802682Y-17421960D01*
X2802682Y-17421960D02*
X2812205Y-17412436D01*
X2812205Y-17412436D02*
X2812205Y-17431484D01*
X2812205Y-17307674D02*
X2821729Y-17317198D01*
X2821729Y-17317198D02*
X2812205Y-17326722D01*
X2812205Y-17326722D02*
X2802682Y-17317198D01*
X2802682Y-17317198D02*
X2812205Y-17307674D01*
X2812205Y-17307674D02*
X2812205Y-17326722D01*
D13*
X1073320Y-17706660D02*
X1180000Y-17813340D01*
X1180000Y-17706660D02*
X1073320Y-17813340D01*
D12*
X1545539Y-17851484D02*
X1431253Y-17851484D01*
X1488396Y-17851484D02*
X1488396Y-17651484D01*
X1488396Y-17651484D02*
X1469348Y-17680055D01*
X1469348Y-17680055D02*
X1450301Y-17699103D01*
X1450301Y-17699103D02*
X1431253Y-17708627D01*
X1640777Y-17841960D02*
X1640777Y-17851484D01*
X1640777Y-17851484D02*
X1631253Y-17870531D01*
X1631253Y-17870531D02*
X1621729Y-17880055D01*
X1764586Y-17651484D02*
X1783634Y-17651484D01*
X1783634Y-17651484D02*
X1802682Y-17661008D01*
X1802682Y-17661008D02*
X1812205Y-17670531D01*
X1812205Y-17670531D02*
X1821729Y-17689579D01*
X1821729Y-17689579D02*
X1831253Y-17727674D01*
X1831253Y-17727674D02*
X1831253Y-17775293D01*
X1831253Y-17775293D02*
X1821729Y-17813389D01*
X1821729Y-17813389D02*
X1812205Y-17832436D01*
X1812205Y-17832436D02*
X1802682Y-17841960D01*
X1802682Y-17841960D02*
X1783634Y-17851484D01*
X1783634Y-17851484D02*
X1764586Y-17851484D01*
X1764586Y-17851484D02*
X1745539Y-17841960D01*
X1745539Y-17841960D02*
X1736015Y-17832436D01*
X1736015Y-17832436D02*
X1726491Y-17813389D01*
X1726491Y-17813389D02*
X1716967Y-17775293D01*
X1716967Y-17775293D02*
X1716967Y-17727674D01*
X1716967Y-17727674D02*
X1726491Y-17689579D01*
X1726491Y-17689579D02*
X1736015Y-17670531D01*
X1736015Y-17670531D02*
X1745539Y-17661008D01*
X1745539Y-17661008D02*
X1764586Y-17651484D01*
X2002682Y-17651484D02*
X1964586Y-17651484D01*
X1964586Y-17651484D02*
X1945539Y-17661008D01*
X1945539Y-17661008D02*
X1936015Y-17670531D01*
X1936015Y-17670531D02*
X1916967Y-17699103D01*
X1916967Y-17699103D02*
X1907443Y-17737198D01*
X1907443Y-17737198D02*
X1907443Y-17813389D01*
X1907443Y-17813389D02*
X1916967Y-17832436D01*
X1916967Y-17832436D02*
X1926491Y-17841960D01*
X1926491Y-17841960D02*
X1945539Y-17851484D01*
X1945539Y-17851484D02*
X1983634Y-17851484D01*
X1983634Y-17851484D02*
X2002682Y-17841960D01*
X2002682Y-17841960D02*
X2012205Y-17832436D01*
X2012205Y-17832436D02*
X2021729Y-17813389D01*
X2021729Y-17813389D02*
X2021729Y-17765770D01*
X2021729Y-17765770D02*
X2012205Y-17746722D01*
X2012205Y-17746722D02*
X2002682Y-17737198D01*
X2002682Y-17737198D02*
X1983634Y-17727674D01*
X1983634Y-17727674D02*
X1945539Y-17727674D01*
X1945539Y-17727674D02*
X1926491Y-17737198D01*
X1926491Y-17737198D02*
X1916967Y-17746722D01*
X1916967Y-17746722D02*
X1907443Y-17765770D01*
X2088396Y-17651484D02*
X2221729Y-17651484D01*
X2221729Y-17651484D02*
X2136015Y-17851484D01*
X2297920Y-17851484D02*
X2297920Y-17718150D01*
X2297920Y-17737198D02*
X2307444Y-17727674D01*
X2307444Y-17727674D02*
X2326491Y-17718150D01*
X2326491Y-17718150D02*
X2355063Y-17718150D01*
X2355063Y-17718150D02*
X2374110Y-17727674D01*
X2374110Y-17727674D02*
X2383634Y-17746722D01*
X2383634Y-17746722D02*
X2383634Y-17851484D01*
X2383634Y-17746722D02*
X2393158Y-17727674D01*
X2393158Y-17727674D02*
X2412205Y-17718150D01*
X2412205Y-17718150D02*
X2440777Y-17718150D01*
X2440777Y-17718150D02*
X2459825Y-17727674D01*
X2459825Y-17727674D02*
X2469348Y-17746722D01*
X2469348Y-17746722D02*
X2469348Y-17851484D01*
X2564586Y-17851484D02*
X2564586Y-17718150D01*
X2564586Y-17737198D02*
X2574110Y-17727674D01*
X2574110Y-17727674D02*
X2593158Y-17718150D01*
X2593158Y-17718150D02*
X2621729Y-17718150D01*
X2621729Y-17718150D02*
X2640777Y-17727674D01*
X2640777Y-17727674D02*
X2650301Y-17746722D01*
X2650301Y-17746722D02*
X2650301Y-17851484D01*
X2650301Y-17746722D02*
X2659825Y-17727674D01*
X2659825Y-17727674D02*
X2678872Y-17718150D01*
X2678872Y-17718150D02*
X2707444Y-17718150D01*
X2707444Y-17718150D02*
X2726491Y-17727674D01*
X2726491Y-17727674D02*
X2736015Y-17746722D01*
X2736015Y-17746722D02*
X2736015Y-17851484D01*
X3126491Y-17641960D02*
X2955063Y-17899103D01*
X3383634Y-17651484D02*
X3402682Y-17651484D01*
X3402682Y-17651484D02*
X3421729Y-17661008D01*
X3421729Y-17661008D02*
X3431253Y-17670531D01*
X3431253Y-17670531D02*
X3440777Y-17689579D01*
X3440777Y-17689579D02*
X3450301Y-17727674D01*
X3450301Y-17727674D02*
X3450301Y-17775293D01*
X3450301Y-17775293D02*
X3440777Y-17813389D01*
X3440777Y-17813389D02*
X3431253Y-17832436D01*
X3431253Y-17832436D02*
X3421729Y-17841960D01*
X3421729Y-17841960D02*
X3402682Y-17851484D01*
X3402682Y-17851484D02*
X3383634Y-17851484D01*
X3383634Y-17851484D02*
X3364586Y-17841960D01*
X3364586Y-17841960D02*
X3355063Y-17832436D01*
X3355063Y-17832436D02*
X3345539Y-17813389D01*
X3345539Y-17813389D02*
X3336015Y-17775293D01*
X3336015Y-17775293D02*
X3336015Y-17727674D01*
X3336015Y-17727674D02*
X3345539Y-17689579D01*
X3345539Y-17689579D02*
X3355063Y-17670531D01*
X3355063Y-17670531D02*
X3364586Y-17661008D01*
X3364586Y-17661008D02*
X3383634Y-17651484D01*
X3545539Y-17841960D02*
X3545539Y-17851484D01*
X3545539Y-17851484D02*
X3536015Y-17870531D01*
X3536015Y-17870531D02*
X3526491Y-17880055D01*
X3669348Y-17651484D02*
X3688396Y-17651484D01*
X3688396Y-17651484D02*
X3707444Y-17661008D01*
X3707444Y-17661008D02*
X3716967Y-17670531D01*
X3716967Y-17670531D02*
X3726491Y-17689579D01*
X3726491Y-17689579D02*
X3736015Y-17727674D01*
X3736015Y-17727674D02*
X3736015Y-17775293D01*
X3736015Y-17775293D02*
X3726491Y-17813389D01*
X3726491Y-17813389D02*
X3716967Y-17832436D01*
X3716967Y-17832436D02*
X3707444Y-17841960D01*
X3707444Y-17841960D02*
X3688396Y-17851484D01*
X3688396Y-17851484D02*
X3669348Y-17851484D01*
X3669348Y-17851484D02*
X3650301Y-17841960D01*
X3650301Y-17841960D02*
X3640777Y-17832436D01*
X3640777Y-17832436D02*
X3631253Y-17813389D01*
X3631253Y-17813389D02*
X3621729Y-17775293D01*
X3621729Y-17775293D02*
X3621729Y-17727674D01*
X3621729Y-17727674D02*
X3631253Y-17689579D01*
X3631253Y-17689579D02*
X3640777Y-17670531D01*
X3640777Y-17670531D02*
X3650301Y-17661008D01*
X3650301Y-17661008D02*
X3669348Y-17651484D01*
X3907444Y-17718150D02*
X3907444Y-17851484D01*
X3859825Y-17641960D02*
X3812206Y-17784817D01*
X3812206Y-17784817D02*
X3936015Y-17784817D01*
X4002682Y-17670531D02*
X4012206Y-17661008D01*
X4012206Y-17661008D02*
X4031253Y-17651484D01*
X4031253Y-17651484D02*
X4078872Y-17651484D01*
X4078872Y-17651484D02*
X4097920Y-17661008D01*
X4097920Y-17661008D02*
X4107444Y-17670531D01*
X4107444Y-17670531D02*
X4116967Y-17689579D01*
X4116967Y-17689579D02*
X4116967Y-17708627D01*
X4116967Y-17708627D02*
X4107444Y-17737198D01*
X4107444Y-17737198D02*
X3993158Y-17851484D01*
X3993158Y-17851484D02*
X4116967Y-17851484D01*
X4240777Y-17651484D02*
X4259825Y-17651484D01*
X4259825Y-17651484D02*
X4278872Y-17661008D01*
X4278872Y-17661008D02*
X4288396Y-17670531D01*
X4288396Y-17670531D02*
X4297920Y-17689579D01*
X4297920Y-17689579D02*
X4307444Y-17727674D01*
X4307444Y-17727674D02*
X4307444Y-17775293D01*
X4307444Y-17775293D02*
X4297920Y-17813389D01*
X4297920Y-17813389D02*
X4288396Y-17832436D01*
X4288396Y-17832436D02*
X4278872Y-17841960D01*
X4278872Y-17841960D02*
X4259825Y-17851484D01*
X4259825Y-17851484D02*
X4240777Y-17851484D01*
X4240777Y-17851484D02*
X4221729Y-17841960D01*
X4221729Y-17841960D02*
X4212206Y-17832436D01*
X4212206Y-17832436D02*
X4202682Y-17813389D01*
X4202682Y-17813389D02*
X4193158Y-17775293D01*
X4193158Y-17775293D02*
X4193158Y-17727674D01*
X4193158Y-17727674D02*
X4202682Y-17689579D01*
X4202682Y-17689579D02*
X4212206Y-17670531D01*
X4212206Y-17670531D02*
X4221729Y-17661008D01*
X4221729Y-17661008D02*
X4240777Y-17651484D01*
X4383634Y-17651484D02*
X4383634Y-17689579D01*
X4459825Y-17651484D02*
X4459825Y-17689579D01*
X4755063Y-17927674D02*
X4745539Y-17918150D01*
X4745539Y-17918150D02*
X4726491Y-17889579D01*
X4726491Y-17889579D02*
X4716968Y-17870531D01*
X4716968Y-17870531D02*
X4707444Y-17841960D01*
X4707444Y-17841960D02*
X4697920Y-17794341D01*
X4697920Y-17794341D02*
X4697920Y-17756246D01*
X4697920Y-17756246D02*
X4707444Y-17708627D01*
X4707444Y-17708627D02*
X4716968Y-17680055D01*
X4716968Y-17680055D02*
X4726491Y-17661008D01*
X4726491Y-17661008D02*
X4745539Y-17632436D01*
X4745539Y-17632436D02*
X4755063Y-17622912D01*
X4821730Y-17670531D02*
X4831253Y-17661008D01*
X4831253Y-17661008D02*
X4850301Y-17651484D01*
X4850301Y-17651484D02*
X4897920Y-17651484D01*
X4897920Y-17651484D02*
X4916968Y-17661008D01*
X4916968Y-17661008D02*
X4926491Y-17670531D01*
X4926491Y-17670531D02*
X4936015Y-17689579D01*
X4936015Y-17689579D02*
X4936015Y-17708627D01*
X4936015Y-17708627D02*
X4926491Y-17737198D01*
X4926491Y-17737198D02*
X4812206Y-17851484D01*
X4812206Y-17851484D02*
X4936015Y-17851484D01*
X5174111Y-17851484D02*
X5174111Y-17651484D01*
X5259825Y-17851484D02*
X5259825Y-17746722D01*
X5259825Y-17746722D02*
X5250301Y-17727674D01*
X5250301Y-17727674D02*
X5231253Y-17718150D01*
X5231253Y-17718150D02*
X5202682Y-17718150D01*
X5202682Y-17718150D02*
X5183634Y-17727674D01*
X5183634Y-17727674D02*
X5174111Y-17737198D01*
X5383634Y-17851484D02*
X5364587Y-17841960D01*
X5364587Y-17841960D02*
X5355063Y-17832436D01*
X5355063Y-17832436D02*
X5345539Y-17813389D01*
X5345539Y-17813389D02*
X5345539Y-17756246D01*
X5345539Y-17756246D02*
X5355063Y-17737198D01*
X5355063Y-17737198D02*
X5364587Y-17727674D01*
X5364587Y-17727674D02*
X5383634Y-17718150D01*
X5383634Y-17718150D02*
X5412206Y-17718150D01*
X5412206Y-17718150D02*
X5431253Y-17727674D01*
X5431253Y-17727674D02*
X5440777Y-17737198D01*
X5440777Y-17737198D02*
X5450301Y-17756246D01*
X5450301Y-17756246D02*
X5450301Y-17813389D01*
X5450301Y-17813389D02*
X5440777Y-17832436D01*
X5440777Y-17832436D02*
X5431253Y-17841960D01*
X5431253Y-17841960D02*
X5412206Y-17851484D01*
X5412206Y-17851484D02*
X5383634Y-17851484D01*
X5564587Y-17851484D02*
X5545539Y-17841960D01*
X5545539Y-17841960D02*
X5536015Y-17822912D01*
X5536015Y-17822912D02*
X5536015Y-17651484D01*
X5716968Y-17841960D02*
X5697920Y-17851484D01*
X5697920Y-17851484D02*
X5659825Y-17851484D01*
X5659825Y-17851484D02*
X5640777Y-17841960D01*
X5640777Y-17841960D02*
X5631253Y-17822912D01*
X5631253Y-17822912D02*
X5631253Y-17746722D01*
X5631253Y-17746722D02*
X5640777Y-17727674D01*
X5640777Y-17727674D02*
X5659825Y-17718150D01*
X5659825Y-17718150D02*
X5697920Y-17718150D01*
X5697920Y-17718150D02*
X5716968Y-17727674D01*
X5716968Y-17727674D02*
X5726491Y-17746722D01*
X5726491Y-17746722D02*
X5726491Y-17765770D01*
X5726491Y-17765770D02*
X5631253Y-17784817D01*
X5802682Y-17841960D02*
X5821730Y-17851484D01*
X5821730Y-17851484D02*
X5859825Y-17851484D01*
X5859825Y-17851484D02*
X5878872Y-17841960D01*
X5878872Y-17841960D02*
X5888396Y-17822912D01*
X5888396Y-17822912D02*
X5888396Y-17813389D01*
X5888396Y-17813389D02*
X5878872Y-17794341D01*
X5878872Y-17794341D02*
X5859825Y-17784817D01*
X5859825Y-17784817D02*
X5831253Y-17784817D01*
X5831253Y-17784817D02*
X5812206Y-17775293D01*
X5812206Y-17775293D02*
X5802682Y-17756246D01*
X5802682Y-17756246D02*
X5802682Y-17746722D01*
X5802682Y-17746722D02*
X5812206Y-17727674D01*
X5812206Y-17727674D02*
X5831253Y-17718150D01*
X5831253Y-17718150D02*
X5859825Y-17718150D01*
X5859825Y-17718150D02*
X5878872Y-17727674D01*
X5955063Y-17927674D02*
X5964587Y-17918150D01*
X5964587Y-17918150D02*
X5983634Y-17889579D01*
X5983634Y-17889579D02*
X5993158Y-17870531D01*
X5993158Y-17870531D02*
X6002682Y-17841960D01*
X6002682Y-17841960D02*
X6012206Y-17794341D01*
X6012206Y-17794341D02*
X6012206Y-17756246D01*
X6012206Y-17756246D02*
X6002682Y-17708627D01*
X6002682Y-17708627D02*
X5993158Y-17680055D01*
X5993158Y-17680055D02*
X5983634Y-17661008D01*
X5983634Y-17661008D02*
X5964587Y-17632436D01*
X5964587Y-17632436D02*
X5955063Y-17622912D01*
X6316968Y-17927674D02*
X6307444Y-17918150D01*
X6307444Y-17918150D02*
X6288396Y-17889579D01*
X6288396Y-17889579D02*
X6278872Y-17870531D01*
X6278872Y-17870531D02*
X6269349Y-17841960D01*
X6269349Y-17841960D02*
X6259825Y-17794341D01*
X6259825Y-17794341D02*
X6259825Y-17756246D01*
X6259825Y-17756246D02*
X6269349Y-17708627D01*
X6269349Y-17708627D02*
X6278872Y-17680055D01*
X6278872Y-17680055D02*
X6288396Y-17661008D01*
X6288396Y-17661008D02*
X6307444Y-17632436D01*
X6307444Y-17632436D02*
X6316968Y-17622912D01*
X6393158Y-17718150D02*
X6393158Y-17851484D01*
X6393158Y-17737198D02*
X6402682Y-17727674D01*
X6402682Y-17727674D02*
X6421730Y-17718150D01*
X6421730Y-17718150D02*
X6450301Y-17718150D01*
X6450301Y-17718150D02*
X6469349Y-17727674D01*
X6469349Y-17727674D02*
X6478872Y-17746722D01*
X6478872Y-17746722D02*
X6478872Y-17851484D01*
X6602682Y-17851484D02*
X6583634Y-17841960D01*
X6583634Y-17841960D02*
X6574111Y-17832436D01*
X6574111Y-17832436D02*
X6564587Y-17813389D01*
X6564587Y-17813389D02*
X6564587Y-17756246D01*
X6564587Y-17756246D02*
X6574111Y-17737198D01*
X6574111Y-17737198D02*
X6583634Y-17727674D01*
X6583634Y-17727674D02*
X6602682Y-17718150D01*
X6602682Y-17718150D02*
X6631253Y-17718150D01*
X6631253Y-17718150D02*
X6650301Y-17727674D01*
X6650301Y-17727674D02*
X6659825Y-17737198D01*
X6659825Y-17737198D02*
X6669349Y-17756246D01*
X6669349Y-17756246D02*
X6669349Y-17813389D01*
X6669349Y-17813389D02*
X6659825Y-17832436D01*
X6659825Y-17832436D02*
X6650301Y-17841960D01*
X6650301Y-17841960D02*
X6631253Y-17851484D01*
X6631253Y-17851484D02*
X6602682Y-17851484D01*
X6726492Y-17718150D02*
X6802682Y-17718150D01*
X6755063Y-17651484D02*
X6755063Y-17822912D01*
X6755063Y-17822912D02*
X6764587Y-17841960D01*
X6764587Y-17841960D02*
X6783634Y-17851484D01*
X6783634Y-17851484D02*
X6802682Y-17851484D01*
X7021730Y-17718150D02*
X7021730Y-17918150D01*
X7021730Y-17727674D02*
X7040777Y-17718150D01*
X7040777Y-17718150D02*
X7078873Y-17718150D01*
X7078873Y-17718150D02*
X7097920Y-17727674D01*
X7097920Y-17727674D02*
X7107444Y-17737198D01*
X7107444Y-17737198D02*
X7116968Y-17756246D01*
X7116968Y-17756246D02*
X7116968Y-17813389D01*
X7116968Y-17813389D02*
X7107444Y-17832436D01*
X7107444Y-17832436D02*
X7097920Y-17841960D01*
X7097920Y-17841960D02*
X7078873Y-17851484D01*
X7078873Y-17851484D02*
X7040777Y-17851484D01*
X7040777Y-17851484D02*
X7021730Y-17841960D01*
X7231253Y-17851484D02*
X7212206Y-17841960D01*
X7212206Y-17841960D02*
X7202682Y-17822912D01*
X7202682Y-17822912D02*
X7202682Y-17651484D01*
X7393158Y-17851484D02*
X7393158Y-17746722D01*
X7393158Y-17746722D02*
X7383634Y-17727674D01*
X7383634Y-17727674D02*
X7364587Y-17718150D01*
X7364587Y-17718150D02*
X7326492Y-17718150D01*
X7326492Y-17718150D02*
X7307444Y-17727674D01*
X7393158Y-17841960D02*
X7374111Y-17851484D01*
X7374111Y-17851484D02*
X7326492Y-17851484D01*
X7326492Y-17851484D02*
X7307444Y-17841960D01*
X7307444Y-17841960D02*
X7297920Y-17822912D01*
X7297920Y-17822912D02*
X7297920Y-17803865D01*
X7297920Y-17803865D02*
X7307444Y-17784817D01*
X7307444Y-17784817D02*
X7326492Y-17775293D01*
X7326492Y-17775293D02*
X7374111Y-17775293D01*
X7374111Y-17775293D02*
X7393158Y-17765770D01*
X7459825Y-17718150D02*
X7536015Y-17718150D01*
X7488396Y-17651484D02*
X7488396Y-17822912D01*
X7488396Y-17822912D02*
X7497920Y-17841960D01*
X7497920Y-17841960D02*
X7516968Y-17851484D01*
X7516968Y-17851484D02*
X7536015Y-17851484D01*
X7678873Y-17841960D02*
X7659825Y-17851484D01*
X7659825Y-17851484D02*
X7621730Y-17851484D01*
X7621730Y-17851484D02*
X7602682Y-17841960D01*
X7602682Y-17841960D02*
X7593158Y-17822912D01*
X7593158Y-17822912D02*
X7593158Y-17746722D01*
X7593158Y-17746722D02*
X7602682Y-17727674D01*
X7602682Y-17727674D02*
X7621730Y-17718150D01*
X7621730Y-17718150D02*
X7659825Y-17718150D01*
X7659825Y-17718150D02*
X7678873Y-17727674D01*
X7678873Y-17727674D02*
X7688396Y-17746722D01*
X7688396Y-17746722D02*
X7688396Y-17765770D01*
X7688396Y-17765770D02*
X7593158Y-17784817D01*
X7859825Y-17851484D02*
X7859825Y-17651484D01*
X7859825Y-17841960D02*
X7840777Y-17851484D01*
X7840777Y-17851484D02*
X7802682Y-17851484D01*
X7802682Y-17851484D02*
X7783634Y-17841960D01*
X7783634Y-17841960D02*
X7774111Y-17832436D01*
X7774111Y-17832436D02*
X7764587Y-17813389D01*
X7764587Y-17813389D02*
X7764587Y-17756246D01*
X7764587Y-17756246D02*
X7774111Y-17737198D01*
X7774111Y-17737198D02*
X7783634Y-17727674D01*
X7783634Y-17727674D02*
X7802682Y-17718150D01*
X7802682Y-17718150D02*
X7840777Y-17718150D01*
X7840777Y-17718150D02*
X7859825Y-17727674D01*
X7936015Y-17927674D02*
X7945539Y-17918150D01*
X7945539Y-17918150D02*
X7964587Y-17889579D01*
X7964587Y-17889579D02*
X7974111Y-17870531D01*
X7974111Y-17870531D02*
X7983634Y-17841960D01*
X7983634Y-17841960D02*
X7993158Y-17794341D01*
X7993158Y-17794341D02*
X7993158Y-17756246D01*
X7993158Y-17756246D02*
X7983634Y-17708627D01*
X7983634Y-17708627D02*
X7974111Y-17680055D01*
X7974111Y-17680055D02*
X7964587Y-17661008D01*
X7964587Y-17661008D02*
X7945539Y-17632436D01*
X7945539Y-17632436D02*
X7936015Y-17622912D01*
D14*
X1180000Y-18024000D02*
G75*
G02*
X1045380Y-18024000I-67310J0D01*
G01*
X1045380Y-18024000D02*
G75*
G02*
X1180000Y-18024000I67310J0D01*
G01*
D12*
X1545539Y-18115484D02*
X1431253Y-18115484D01*
X1488396Y-18115484D02*
X1488396Y-17915484D01*
X1488396Y-17915484D02*
X1469348Y-17944055D01*
X1469348Y-17944055D02*
X1450301Y-17963103D01*
X1450301Y-17963103D02*
X1431253Y-17972627D01*
X1640777Y-18105960D02*
X1640777Y-18115484D01*
X1640777Y-18115484D02*
X1631253Y-18134531D01*
X1631253Y-18134531D02*
X1621729Y-18144055D01*
X1707443Y-17915484D02*
X1831253Y-17915484D01*
X1831253Y-17915484D02*
X1764586Y-17991674D01*
X1764586Y-17991674D02*
X1793158Y-17991674D01*
X1793158Y-17991674D02*
X1812205Y-18001198D01*
X1812205Y-18001198D02*
X1821729Y-18010722D01*
X1821729Y-18010722D02*
X1831253Y-18029770D01*
X1831253Y-18029770D02*
X1831253Y-18077389D01*
X1831253Y-18077389D02*
X1821729Y-18096436D01*
X1821729Y-18096436D02*
X1812205Y-18105960D01*
X1812205Y-18105960D02*
X1793158Y-18115484D01*
X1793158Y-18115484D02*
X1736015Y-18115484D01*
X1736015Y-18115484D02*
X1716967Y-18105960D01*
X1716967Y-18105960D02*
X1707443Y-18096436D01*
X2002682Y-17982150D02*
X2002682Y-18115484D01*
X1955062Y-17905960D02*
X1907443Y-18048817D01*
X1907443Y-18048817D02*
X2031253Y-18048817D01*
X2193158Y-17915484D02*
X2155063Y-17915484D01*
X2155063Y-17915484D02*
X2136015Y-17925008D01*
X2136015Y-17925008D02*
X2126491Y-17934531D01*
X2126491Y-17934531D02*
X2107444Y-17963103D01*
X2107444Y-17963103D02*
X2097920Y-18001198D01*
X2097920Y-18001198D02*
X2097920Y-18077389D01*
X2097920Y-18077389D02*
X2107444Y-18096436D01*
X2107444Y-18096436D02*
X2116967Y-18105960D01*
X2116967Y-18105960D02*
X2136015Y-18115484D01*
X2136015Y-18115484D02*
X2174110Y-18115484D01*
X2174110Y-18115484D02*
X2193158Y-18105960D01*
X2193158Y-18105960D02*
X2202682Y-18096436D01*
X2202682Y-18096436D02*
X2212205Y-18077389D01*
X2212205Y-18077389D02*
X2212205Y-18029770D01*
X2212205Y-18029770D02*
X2202682Y-18010722D01*
X2202682Y-18010722D02*
X2193158Y-18001198D01*
X2193158Y-18001198D02*
X2174110Y-17991674D01*
X2174110Y-17991674D02*
X2136015Y-17991674D01*
X2136015Y-17991674D02*
X2116967Y-18001198D01*
X2116967Y-18001198D02*
X2107444Y-18010722D01*
X2107444Y-18010722D02*
X2097920Y-18029770D01*
X2297920Y-18115484D02*
X2297920Y-17982150D01*
X2297920Y-18001198D02*
X2307444Y-17991674D01*
X2307444Y-17991674D02*
X2326491Y-17982150D01*
X2326491Y-17982150D02*
X2355063Y-17982150D01*
X2355063Y-17982150D02*
X2374110Y-17991674D01*
X2374110Y-17991674D02*
X2383634Y-18010722D01*
X2383634Y-18010722D02*
X2383634Y-18115484D01*
X2383634Y-18010722D02*
X2393158Y-17991674D01*
X2393158Y-17991674D02*
X2412205Y-17982150D01*
X2412205Y-17982150D02*
X2440777Y-17982150D01*
X2440777Y-17982150D02*
X2459825Y-17991674D01*
X2459825Y-17991674D02*
X2469348Y-18010722D01*
X2469348Y-18010722D02*
X2469348Y-18115484D01*
X2564586Y-18115484D02*
X2564586Y-17982150D01*
X2564586Y-18001198D02*
X2574110Y-17991674D01*
X2574110Y-17991674D02*
X2593158Y-17982150D01*
X2593158Y-17982150D02*
X2621729Y-17982150D01*
X2621729Y-17982150D02*
X2640777Y-17991674D01*
X2640777Y-17991674D02*
X2650301Y-18010722D01*
X2650301Y-18010722D02*
X2650301Y-18115484D01*
X2650301Y-18010722D02*
X2659825Y-17991674D01*
X2659825Y-17991674D02*
X2678872Y-17982150D01*
X2678872Y-17982150D02*
X2707444Y-17982150D01*
X2707444Y-17982150D02*
X2726491Y-17991674D01*
X2726491Y-17991674D02*
X2736015Y-18010722D01*
X2736015Y-18010722D02*
X2736015Y-18115484D01*
X3126491Y-17905960D02*
X2955063Y-18163103D01*
X3383634Y-17915484D02*
X3402682Y-17915484D01*
X3402682Y-17915484D02*
X3421729Y-17925008D01*
X3421729Y-17925008D02*
X3431253Y-17934531D01*
X3431253Y-17934531D02*
X3440777Y-17953579D01*
X3440777Y-17953579D02*
X3450301Y-17991674D01*
X3450301Y-17991674D02*
X3450301Y-18039293D01*
X3450301Y-18039293D02*
X3440777Y-18077389D01*
X3440777Y-18077389D02*
X3431253Y-18096436D01*
X3431253Y-18096436D02*
X3421729Y-18105960D01*
X3421729Y-18105960D02*
X3402682Y-18115484D01*
X3402682Y-18115484D02*
X3383634Y-18115484D01*
X3383634Y-18115484D02*
X3364586Y-18105960D01*
X3364586Y-18105960D02*
X3355063Y-18096436D01*
X3355063Y-18096436D02*
X3345539Y-18077389D01*
X3345539Y-18077389D02*
X3336015Y-18039293D01*
X3336015Y-18039293D02*
X3336015Y-17991674D01*
X3336015Y-17991674D02*
X3345539Y-17953579D01*
X3345539Y-17953579D02*
X3355063Y-17934531D01*
X3355063Y-17934531D02*
X3364586Y-17925008D01*
X3364586Y-17925008D02*
X3383634Y-17915484D01*
X3545539Y-18105960D02*
X3545539Y-18115484D01*
X3545539Y-18115484D02*
X3536015Y-18134531D01*
X3536015Y-18134531D02*
X3526491Y-18144055D01*
X3669348Y-17915484D02*
X3688396Y-17915484D01*
X3688396Y-17915484D02*
X3707444Y-17925008D01*
X3707444Y-17925008D02*
X3716967Y-17934531D01*
X3716967Y-17934531D02*
X3726491Y-17953579D01*
X3726491Y-17953579D02*
X3736015Y-17991674D01*
X3736015Y-17991674D02*
X3736015Y-18039293D01*
X3736015Y-18039293D02*
X3726491Y-18077389D01*
X3726491Y-18077389D02*
X3716967Y-18096436D01*
X3716967Y-18096436D02*
X3707444Y-18105960D01*
X3707444Y-18105960D02*
X3688396Y-18115484D01*
X3688396Y-18115484D02*
X3669348Y-18115484D01*
X3669348Y-18115484D02*
X3650301Y-18105960D01*
X3650301Y-18105960D02*
X3640777Y-18096436D01*
X3640777Y-18096436D02*
X3631253Y-18077389D01*
X3631253Y-18077389D02*
X3621729Y-18039293D01*
X3621729Y-18039293D02*
X3621729Y-17991674D01*
X3621729Y-17991674D02*
X3631253Y-17953579D01*
X3631253Y-17953579D02*
X3640777Y-17934531D01*
X3640777Y-17934531D02*
X3650301Y-17925008D01*
X3650301Y-17925008D02*
X3669348Y-17915484D01*
X3916967Y-17915484D02*
X3821729Y-17915484D01*
X3821729Y-17915484D02*
X3812206Y-18010722D01*
X3812206Y-18010722D02*
X3821729Y-18001198D01*
X3821729Y-18001198D02*
X3840777Y-17991674D01*
X3840777Y-17991674D02*
X3888396Y-17991674D01*
X3888396Y-17991674D02*
X3907444Y-18001198D01*
X3907444Y-18001198D02*
X3916967Y-18010722D01*
X3916967Y-18010722D02*
X3926491Y-18029770D01*
X3926491Y-18029770D02*
X3926491Y-18077389D01*
X3926491Y-18077389D02*
X3916967Y-18096436D01*
X3916967Y-18096436D02*
X3907444Y-18105960D01*
X3907444Y-18105960D02*
X3888396Y-18115484D01*
X3888396Y-18115484D02*
X3840777Y-18115484D01*
X3840777Y-18115484D02*
X3821729Y-18105960D01*
X3821729Y-18105960D02*
X3812206Y-18096436D01*
X3993158Y-17915484D02*
X4116967Y-17915484D01*
X4116967Y-17915484D02*
X4050301Y-17991674D01*
X4050301Y-17991674D02*
X4078872Y-17991674D01*
X4078872Y-17991674D02*
X4097920Y-18001198D01*
X4097920Y-18001198D02*
X4107444Y-18010722D01*
X4107444Y-18010722D02*
X4116967Y-18029770D01*
X4116967Y-18029770D02*
X4116967Y-18077389D01*
X4116967Y-18077389D02*
X4107444Y-18096436D01*
X4107444Y-18096436D02*
X4097920Y-18105960D01*
X4097920Y-18105960D02*
X4078872Y-18115484D01*
X4078872Y-18115484D02*
X4021729Y-18115484D01*
X4021729Y-18115484D02*
X4002682Y-18105960D01*
X4002682Y-18105960D02*
X3993158Y-18096436D01*
X4240777Y-17915484D02*
X4259825Y-17915484D01*
X4259825Y-17915484D02*
X4278872Y-17925008D01*
X4278872Y-17925008D02*
X4288396Y-17934531D01*
X4288396Y-17934531D02*
X4297920Y-17953579D01*
X4297920Y-17953579D02*
X4307444Y-17991674D01*
X4307444Y-17991674D02*
X4307444Y-18039293D01*
X4307444Y-18039293D02*
X4297920Y-18077389D01*
X4297920Y-18077389D02*
X4288396Y-18096436D01*
X4288396Y-18096436D02*
X4278872Y-18105960D01*
X4278872Y-18105960D02*
X4259825Y-18115484D01*
X4259825Y-18115484D02*
X4240777Y-18115484D01*
X4240777Y-18115484D02*
X4221729Y-18105960D01*
X4221729Y-18105960D02*
X4212206Y-18096436D01*
X4212206Y-18096436D02*
X4202682Y-18077389D01*
X4202682Y-18077389D02*
X4193158Y-18039293D01*
X4193158Y-18039293D02*
X4193158Y-17991674D01*
X4193158Y-17991674D02*
X4202682Y-17953579D01*
X4202682Y-17953579D02*
X4212206Y-17934531D01*
X4212206Y-17934531D02*
X4221729Y-17925008D01*
X4221729Y-17925008D02*
X4240777Y-17915484D01*
X4383634Y-17915484D02*
X4383634Y-17953579D01*
X4459825Y-17915484D02*
X4459825Y-17953579D01*
X4755063Y-18191674D02*
X4745539Y-18182150D01*
X4745539Y-18182150D02*
X4726491Y-18153579D01*
X4726491Y-18153579D02*
X4716968Y-18134531D01*
X4716968Y-18134531D02*
X4707444Y-18105960D01*
X4707444Y-18105960D02*
X4697920Y-18058341D01*
X4697920Y-18058341D02*
X4697920Y-18020246D01*
X4697920Y-18020246D02*
X4707444Y-17972627D01*
X4707444Y-17972627D02*
X4716968Y-17944055D01*
X4716968Y-17944055D02*
X4726491Y-17925008D01*
X4726491Y-17925008D02*
X4745539Y-17896436D01*
X4745539Y-17896436D02*
X4755063Y-17886912D01*
X4916968Y-17982150D02*
X4916968Y-18115484D01*
X4869349Y-17905960D02*
X4821730Y-18048817D01*
X4821730Y-18048817D02*
X4945539Y-18048817D01*
X5174111Y-18115484D02*
X5174111Y-17915484D01*
X5259825Y-18115484D02*
X5259825Y-18010722D01*
X5259825Y-18010722D02*
X5250301Y-17991674D01*
X5250301Y-17991674D02*
X5231253Y-17982150D01*
X5231253Y-17982150D02*
X5202682Y-17982150D01*
X5202682Y-17982150D02*
X5183634Y-17991674D01*
X5183634Y-17991674D02*
X5174111Y-18001198D01*
X5383634Y-18115484D02*
X5364587Y-18105960D01*
X5364587Y-18105960D02*
X5355063Y-18096436D01*
X5355063Y-18096436D02*
X5345539Y-18077389D01*
X5345539Y-18077389D02*
X5345539Y-18020246D01*
X5345539Y-18020246D02*
X5355063Y-18001198D01*
X5355063Y-18001198D02*
X5364587Y-17991674D01*
X5364587Y-17991674D02*
X5383634Y-17982150D01*
X5383634Y-17982150D02*
X5412206Y-17982150D01*
X5412206Y-17982150D02*
X5431253Y-17991674D01*
X5431253Y-17991674D02*
X5440777Y-18001198D01*
X5440777Y-18001198D02*
X5450301Y-18020246D01*
X5450301Y-18020246D02*
X5450301Y-18077389D01*
X5450301Y-18077389D02*
X5440777Y-18096436D01*
X5440777Y-18096436D02*
X5431253Y-18105960D01*
X5431253Y-18105960D02*
X5412206Y-18115484D01*
X5412206Y-18115484D02*
X5383634Y-18115484D01*
X5564587Y-18115484D02*
X5545539Y-18105960D01*
X5545539Y-18105960D02*
X5536015Y-18086912D01*
X5536015Y-18086912D02*
X5536015Y-17915484D01*
X5716968Y-18105960D02*
X5697920Y-18115484D01*
X5697920Y-18115484D02*
X5659825Y-18115484D01*
X5659825Y-18115484D02*
X5640777Y-18105960D01*
X5640777Y-18105960D02*
X5631253Y-18086912D01*
X5631253Y-18086912D02*
X5631253Y-18010722D01*
X5631253Y-18010722D02*
X5640777Y-17991674D01*
X5640777Y-17991674D02*
X5659825Y-17982150D01*
X5659825Y-17982150D02*
X5697920Y-17982150D01*
X5697920Y-17982150D02*
X5716968Y-17991674D01*
X5716968Y-17991674D02*
X5726491Y-18010722D01*
X5726491Y-18010722D02*
X5726491Y-18029770D01*
X5726491Y-18029770D02*
X5631253Y-18048817D01*
X5802682Y-18105960D02*
X5821730Y-18115484D01*
X5821730Y-18115484D02*
X5859825Y-18115484D01*
X5859825Y-18115484D02*
X5878872Y-18105960D01*
X5878872Y-18105960D02*
X5888396Y-18086912D01*
X5888396Y-18086912D02*
X5888396Y-18077389D01*
X5888396Y-18077389D02*
X5878872Y-18058341D01*
X5878872Y-18058341D02*
X5859825Y-18048817D01*
X5859825Y-18048817D02*
X5831253Y-18048817D01*
X5831253Y-18048817D02*
X5812206Y-18039293D01*
X5812206Y-18039293D02*
X5802682Y-18020246D01*
X5802682Y-18020246D02*
X5802682Y-18010722D01*
X5802682Y-18010722D02*
X5812206Y-17991674D01*
X5812206Y-17991674D02*
X5831253Y-17982150D01*
X5831253Y-17982150D02*
X5859825Y-17982150D01*
X5859825Y-17982150D02*
X5878872Y-17991674D01*
X5955063Y-18191674D02*
X5964587Y-18182150D01*
X5964587Y-18182150D02*
X5983634Y-18153579D01*
X5983634Y-18153579D02*
X5993158Y-18134531D01*
X5993158Y-18134531D02*
X6002682Y-18105960D01*
X6002682Y-18105960D02*
X6012206Y-18058341D01*
X6012206Y-18058341D02*
X6012206Y-18020246D01*
X6012206Y-18020246D02*
X6002682Y-17972627D01*
X6002682Y-17972627D02*
X5993158Y-17944055D01*
X5993158Y-17944055D02*
X5983634Y-17925008D01*
X5983634Y-17925008D02*
X5964587Y-17896436D01*
X5964587Y-17896436D02*
X5955063Y-17886912D01*
X6316968Y-18191674D02*
X6307444Y-18182150D01*
X6307444Y-18182150D02*
X6288396Y-18153579D01*
X6288396Y-18153579D02*
X6278872Y-18134531D01*
X6278872Y-18134531D02*
X6269349Y-18105960D01*
X6269349Y-18105960D02*
X6259825Y-18058341D01*
X6259825Y-18058341D02*
X6259825Y-18020246D01*
X6259825Y-18020246D02*
X6269349Y-17972627D01*
X6269349Y-17972627D02*
X6278872Y-17944055D01*
X6278872Y-17944055D02*
X6288396Y-17925008D01*
X6288396Y-17925008D02*
X6307444Y-17896436D01*
X6307444Y-17896436D02*
X6316968Y-17886912D01*
X6393158Y-17982150D02*
X6393158Y-18115484D01*
X6393158Y-18001198D02*
X6402682Y-17991674D01*
X6402682Y-17991674D02*
X6421730Y-17982150D01*
X6421730Y-17982150D02*
X6450301Y-17982150D01*
X6450301Y-17982150D02*
X6469349Y-17991674D01*
X6469349Y-17991674D02*
X6478872Y-18010722D01*
X6478872Y-18010722D02*
X6478872Y-18115484D01*
X6602682Y-18115484D02*
X6583634Y-18105960D01*
X6583634Y-18105960D02*
X6574111Y-18096436D01*
X6574111Y-18096436D02*
X6564587Y-18077389D01*
X6564587Y-18077389D02*
X6564587Y-18020246D01*
X6564587Y-18020246D02*
X6574111Y-18001198D01*
X6574111Y-18001198D02*
X6583634Y-17991674D01*
X6583634Y-17991674D02*
X6602682Y-17982150D01*
X6602682Y-17982150D02*
X6631253Y-17982150D01*
X6631253Y-17982150D02*
X6650301Y-17991674D01*
X6650301Y-17991674D02*
X6659825Y-18001198D01*
X6659825Y-18001198D02*
X6669349Y-18020246D01*
X6669349Y-18020246D02*
X6669349Y-18077389D01*
X6669349Y-18077389D02*
X6659825Y-18096436D01*
X6659825Y-18096436D02*
X6650301Y-18105960D01*
X6650301Y-18105960D02*
X6631253Y-18115484D01*
X6631253Y-18115484D02*
X6602682Y-18115484D01*
X6726492Y-17982150D02*
X6802682Y-17982150D01*
X6755063Y-17915484D02*
X6755063Y-18086912D01*
X6755063Y-18086912D02*
X6764587Y-18105960D01*
X6764587Y-18105960D02*
X6783634Y-18115484D01*
X6783634Y-18115484D02*
X6802682Y-18115484D01*
X7021730Y-17982150D02*
X7021730Y-18182150D01*
X7021730Y-17991674D02*
X7040777Y-17982150D01*
X7040777Y-17982150D02*
X7078873Y-17982150D01*
X7078873Y-17982150D02*
X7097920Y-17991674D01*
X7097920Y-17991674D02*
X7107444Y-18001198D01*
X7107444Y-18001198D02*
X7116968Y-18020246D01*
X7116968Y-18020246D02*
X7116968Y-18077389D01*
X7116968Y-18077389D02*
X7107444Y-18096436D01*
X7107444Y-18096436D02*
X7097920Y-18105960D01*
X7097920Y-18105960D02*
X7078873Y-18115484D01*
X7078873Y-18115484D02*
X7040777Y-18115484D01*
X7040777Y-18115484D02*
X7021730Y-18105960D01*
X7231253Y-18115484D02*
X7212206Y-18105960D01*
X7212206Y-18105960D02*
X7202682Y-18086912D01*
X7202682Y-18086912D02*
X7202682Y-17915484D01*
X7393158Y-18115484D02*
X7393158Y-18010722D01*
X7393158Y-18010722D02*
X7383634Y-17991674D01*
X7383634Y-17991674D02*
X7364587Y-17982150D01*
X7364587Y-17982150D02*
X7326492Y-17982150D01*
X7326492Y-17982150D02*
X7307444Y-17991674D01*
X7393158Y-18105960D02*
X7374111Y-18115484D01*
X7374111Y-18115484D02*
X7326492Y-18115484D01*
X7326492Y-18115484D02*
X7307444Y-18105960D01*
X7307444Y-18105960D02*
X7297920Y-18086912D01*
X7297920Y-18086912D02*
X7297920Y-18067865D01*
X7297920Y-18067865D02*
X7307444Y-18048817D01*
X7307444Y-18048817D02*
X7326492Y-18039293D01*
X7326492Y-18039293D02*
X7374111Y-18039293D01*
X7374111Y-18039293D02*
X7393158Y-18029770D01*
X7459825Y-17982150D02*
X7536015Y-17982150D01*
X7488396Y-17915484D02*
X7488396Y-18086912D01*
X7488396Y-18086912D02*
X7497920Y-18105960D01*
X7497920Y-18105960D02*
X7516968Y-18115484D01*
X7516968Y-18115484D02*
X7536015Y-18115484D01*
X7678873Y-18105960D02*
X7659825Y-18115484D01*
X7659825Y-18115484D02*
X7621730Y-18115484D01*
X7621730Y-18115484D02*
X7602682Y-18105960D01*
X7602682Y-18105960D02*
X7593158Y-18086912D01*
X7593158Y-18086912D02*
X7593158Y-18010722D01*
X7593158Y-18010722D02*
X7602682Y-17991674D01*
X7602682Y-17991674D02*
X7621730Y-17982150D01*
X7621730Y-17982150D02*
X7659825Y-17982150D01*
X7659825Y-17982150D02*
X7678873Y-17991674D01*
X7678873Y-17991674D02*
X7688396Y-18010722D01*
X7688396Y-18010722D02*
X7688396Y-18029770D01*
X7688396Y-18029770D02*
X7593158Y-18048817D01*
X7859825Y-18115484D02*
X7859825Y-17915484D01*
X7859825Y-18105960D02*
X7840777Y-18115484D01*
X7840777Y-18115484D02*
X7802682Y-18115484D01*
X7802682Y-18115484D02*
X7783634Y-18105960D01*
X7783634Y-18105960D02*
X7774111Y-18096436D01*
X7774111Y-18096436D02*
X7764587Y-18077389D01*
X7764587Y-18077389D02*
X7764587Y-18020246D01*
X7764587Y-18020246D02*
X7774111Y-18001198D01*
X7774111Y-18001198D02*
X7783634Y-17991674D01*
X7783634Y-17991674D02*
X7802682Y-17982150D01*
X7802682Y-17982150D02*
X7840777Y-17982150D01*
X7840777Y-17982150D02*
X7859825Y-17991674D01*
X7936015Y-18191674D02*
X7945539Y-18182150D01*
X7945539Y-18182150D02*
X7964587Y-18153579D01*
X7964587Y-18153579D02*
X7974111Y-18134531D01*
X7974111Y-18134531D02*
X7983634Y-18105960D01*
X7983634Y-18105960D02*
X7993158Y-18058341D01*
X7993158Y-18058341D02*
X7993158Y-18020246D01*
X7993158Y-18020246D02*
X7983634Y-17972627D01*
X7983634Y-17972627D02*
X7974111Y-17944055D01*
X7974111Y-17944055D02*
X7964587Y-17925008D01*
X7964587Y-17925008D02*
X7945539Y-17896436D01*
X7945539Y-17896436D02*
X7936015Y-17886912D01*
X1080000Y-18188000D02*
X1080000Y-18388000D01*
X980000Y-18288000D02*
X1180000Y-18288000D01*
X1431253Y-18198531D02*
X1440777Y-18189008D01*
X1440777Y-18189008D02*
X1459824Y-18179484D01*
X1459824Y-18179484D02*
X1507443Y-18179484D01*
X1507443Y-18179484D02*
X1526491Y-18189008D01*
X1526491Y-18189008D02*
X1536015Y-18198531D01*
X1536015Y-18198531D02*
X1545539Y-18217579D01*
X1545539Y-18217579D02*
X1545539Y-18236627D01*
X1545539Y-18236627D02*
X1536015Y-18265198D01*
X1536015Y-18265198D02*
X1421729Y-18379484D01*
X1421729Y-18379484D02*
X1545539Y-18379484D01*
X1640777Y-18369960D02*
X1640777Y-18379484D01*
X1640777Y-18379484D02*
X1631253Y-18398531D01*
X1631253Y-18398531D02*
X1621729Y-18408055D01*
X1716967Y-18198531D02*
X1726491Y-18189008D01*
X1726491Y-18189008D02*
X1745539Y-18179484D01*
X1745539Y-18179484D02*
X1793158Y-18179484D01*
X1793158Y-18179484D02*
X1812205Y-18189008D01*
X1812205Y-18189008D02*
X1821729Y-18198531D01*
X1821729Y-18198531D02*
X1831253Y-18217579D01*
X1831253Y-18217579D02*
X1831253Y-18236627D01*
X1831253Y-18236627D02*
X1821729Y-18265198D01*
X1821729Y-18265198D02*
X1707443Y-18379484D01*
X1707443Y-18379484D02*
X1831253Y-18379484D01*
X1897920Y-18179484D02*
X2021729Y-18179484D01*
X2021729Y-18179484D02*
X1955062Y-18255674D01*
X1955062Y-18255674D02*
X1983634Y-18255674D01*
X1983634Y-18255674D02*
X2002682Y-18265198D01*
X2002682Y-18265198D02*
X2012205Y-18274722D01*
X2012205Y-18274722D02*
X2021729Y-18293770D01*
X2021729Y-18293770D02*
X2021729Y-18341389D01*
X2021729Y-18341389D02*
X2012205Y-18360436D01*
X2012205Y-18360436D02*
X2002682Y-18369960D01*
X2002682Y-18369960D02*
X1983634Y-18379484D01*
X1983634Y-18379484D02*
X1926491Y-18379484D01*
X1926491Y-18379484D02*
X1907443Y-18369960D01*
X1907443Y-18369960D02*
X1897920Y-18360436D01*
X2202682Y-18179484D02*
X2107444Y-18179484D01*
X2107444Y-18179484D02*
X2097920Y-18274722D01*
X2097920Y-18274722D02*
X2107444Y-18265198D01*
X2107444Y-18265198D02*
X2126491Y-18255674D01*
X2126491Y-18255674D02*
X2174110Y-18255674D01*
X2174110Y-18255674D02*
X2193158Y-18265198D01*
X2193158Y-18265198D02*
X2202682Y-18274722D01*
X2202682Y-18274722D02*
X2212205Y-18293770D01*
X2212205Y-18293770D02*
X2212205Y-18341389D01*
X2212205Y-18341389D02*
X2202682Y-18360436D01*
X2202682Y-18360436D02*
X2193158Y-18369960D01*
X2193158Y-18369960D02*
X2174110Y-18379484D01*
X2174110Y-18379484D02*
X2126491Y-18379484D01*
X2126491Y-18379484D02*
X2107444Y-18369960D01*
X2107444Y-18369960D02*
X2097920Y-18360436D01*
X2297920Y-18379484D02*
X2297920Y-18246150D01*
X2297920Y-18265198D02*
X2307444Y-18255674D01*
X2307444Y-18255674D02*
X2326491Y-18246150D01*
X2326491Y-18246150D02*
X2355063Y-18246150D01*
X2355063Y-18246150D02*
X2374110Y-18255674D01*
X2374110Y-18255674D02*
X2383634Y-18274722D01*
X2383634Y-18274722D02*
X2383634Y-18379484D01*
X2383634Y-18274722D02*
X2393158Y-18255674D01*
X2393158Y-18255674D02*
X2412205Y-18246150D01*
X2412205Y-18246150D02*
X2440777Y-18246150D01*
X2440777Y-18246150D02*
X2459825Y-18255674D01*
X2459825Y-18255674D02*
X2469348Y-18274722D01*
X2469348Y-18274722D02*
X2469348Y-18379484D01*
X2564586Y-18379484D02*
X2564586Y-18246150D01*
X2564586Y-18265198D02*
X2574110Y-18255674D01*
X2574110Y-18255674D02*
X2593158Y-18246150D01*
X2593158Y-18246150D02*
X2621729Y-18246150D01*
X2621729Y-18246150D02*
X2640777Y-18255674D01*
X2640777Y-18255674D02*
X2650301Y-18274722D01*
X2650301Y-18274722D02*
X2650301Y-18379484D01*
X2650301Y-18274722D02*
X2659825Y-18255674D01*
X2659825Y-18255674D02*
X2678872Y-18246150D01*
X2678872Y-18246150D02*
X2707444Y-18246150D01*
X2707444Y-18246150D02*
X2726491Y-18255674D01*
X2726491Y-18255674D02*
X2736015Y-18274722D01*
X2736015Y-18274722D02*
X2736015Y-18379484D01*
X3126491Y-18169960D02*
X2955063Y-18427103D01*
X3383634Y-18179484D02*
X3402682Y-18179484D01*
X3402682Y-18179484D02*
X3421729Y-18189008D01*
X3421729Y-18189008D02*
X3431253Y-18198531D01*
X3431253Y-18198531D02*
X3440777Y-18217579D01*
X3440777Y-18217579D02*
X3450301Y-18255674D01*
X3450301Y-18255674D02*
X3450301Y-18303293D01*
X3450301Y-18303293D02*
X3440777Y-18341389D01*
X3440777Y-18341389D02*
X3431253Y-18360436D01*
X3431253Y-18360436D02*
X3421729Y-18369960D01*
X3421729Y-18369960D02*
X3402682Y-18379484D01*
X3402682Y-18379484D02*
X3383634Y-18379484D01*
X3383634Y-18379484D02*
X3364586Y-18369960D01*
X3364586Y-18369960D02*
X3355063Y-18360436D01*
X3355063Y-18360436D02*
X3345539Y-18341389D01*
X3345539Y-18341389D02*
X3336015Y-18303293D01*
X3336015Y-18303293D02*
X3336015Y-18255674D01*
X3336015Y-18255674D02*
X3345539Y-18217579D01*
X3345539Y-18217579D02*
X3355063Y-18198531D01*
X3355063Y-18198531D02*
X3364586Y-18189008D01*
X3364586Y-18189008D02*
X3383634Y-18179484D01*
X3545539Y-18369960D02*
X3545539Y-18379484D01*
X3545539Y-18379484D02*
X3536015Y-18398531D01*
X3536015Y-18398531D02*
X3526491Y-18408055D01*
X3669348Y-18179484D02*
X3688396Y-18179484D01*
X3688396Y-18179484D02*
X3707444Y-18189008D01*
X3707444Y-18189008D02*
X3716967Y-18198531D01*
X3716967Y-18198531D02*
X3726491Y-18217579D01*
X3726491Y-18217579D02*
X3736015Y-18255674D01*
X3736015Y-18255674D02*
X3736015Y-18303293D01*
X3736015Y-18303293D02*
X3726491Y-18341389D01*
X3726491Y-18341389D02*
X3716967Y-18360436D01*
X3716967Y-18360436D02*
X3707444Y-18369960D01*
X3707444Y-18369960D02*
X3688396Y-18379484D01*
X3688396Y-18379484D02*
X3669348Y-18379484D01*
X3669348Y-18379484D02*
X3650301Y-18369960D01*
X3650301Y-18369960D02*
X3640777Y-18360436D01*
X3640777Y-18360436D02*
X3631253Y-18341389D01*
X3631253Y-18341389D02*
X3621729Y-18303293D01*
X3621729Y-18303293D02*
X3621729Y-18255674D01*
X3621729Y-18255674D02*
X3631253Y-18217579D01*
X3631253Y-18217579D02*
X3640777Y-18198531D01*
X3640777Y-18198531D02*
X3650301Y-18189008D01*
X3650301Y-18189008D02*
X3669348Y-18179484D01*
X3850301Y-18265198D02*
X3831253Y-18255674D01*
X3831253Y-18255674D02*
X3821729Y-18246150D01*
X3821729Y-18246150D02*
X3812206Y-18227103D01*
X3812206Y-18227103D02*
X3812206Y-18217579D01*
X3812206Y-18217579D02*
X3821729Y-18198531D01*
X3821729Y-18198531D02*
X3831253Y-18189008D01*
X3831253Y-18189008D02*
X3850301Y-18179484D01*
X3850301Y-18179484D02*
X3888396Y-18179484D01*
X3888396Y-18179484D02*
X3907444Y-18189008D01*
X3907444Y-18189008D02*
X3916967Y-18198531D01*
X3916967Y-18198531D02*
X3926491Y-18217579D01*
X3926491Y-18217579D02*
X3926491Y-18227103D01*
X3926491Y-18227103D02*
X3916967Y-18246150D01*
X3916967Y-18246150D02*
X3907444Y-18255674D01*
X3907444Y-18255674D02*
X3888396Y-18265198D01*
X3888396Y-18265198D02*
X3850301Y-18265198D01*
X3850301Y-18265198D02*
X3831253Y-18274722D01*
X3831253Y-18274722D02*
X3821729Y-18284246D01*
X3821729Y-18284246D02*
X3812206Y-18303293D01*
X3812206Y-18303293D02*
X3812206Y-18341389D01*
X3812206Y-18341389D02*
X3821729Y-18360436D01*
X3821729Y-18360436D02*
X3831253Y-18369960D01*
X3831253Y-18369960D02*
X3850301Y-18379484D01*
X3850301Y-18379484D02*
X3888396Y-18379484D01*
X3888396Y-18379484D02*
X3907444Y-18369960D01*
X3907444Y-18369960D02*
X3916967Y-18360436D01*
X3916967Y-18360436D02*
X3926491Y-18341389D01*
X3926491Y-18341389D02*
X3926491Y-18303293D01*
X3926491Y-18303293D02*
X3916967Y-18284246D01*
X3916967Y-18284246D02*
X3907444Y-18274722D01*
X3907444Y-18274722D02*
X3888396Y-18265198D01*
X4040777Y-18265198D02*
X4021729Y-18255674D01*
X4021729Y-18255674D02*
X4012206Y-18246150D01*
X4012206Y-18246150D02*
X4002682Y-18227103D01*
X4002682Y-18227103D02*
X4002682Y-18217579D01*
X4002682Y-18217579D02*
X4012206Y-18198531D01*
X4012206Y-18198531D02*
X4021729Y-18189008D01*
X4021729Y-18189008D02*
X4040777Y-18179484D01*
X4040777Y-18179484D02*
X4078872Y-18179484D01*
X4078872Y-18179484D02*
X4097920Y-18189008D01*
X4097920Y-18189008D02*
X4107444Y-18198531D01*
X4107444Y-18198531D02*
X4116967Y-18217579D01*
X4116967Y-18217579D02*
X4116967Y-18227103D01*
X4116967Y-18227103D02*
X4107444Y-18246150D01*
X4107444Y-18246150D02*
X4097920Y-18255674D01*
X4097920Y-18255674D02*
X4078872Y-18265198D01*
X4078872Y-18265198D02*
X4040777Y-18265198D01*
X4040777Y-18265198D02*
X4021729Y-18274722D01*
X4021729Y-18274722D02*
X4012206Y-18284246D01*
X4012206Y-18284246D02*
X4002682Y-18303293D01*
X4002682Y-18303293D02*
X4002682Y-18341389D01*
X4002682Y-18341389D02*
X4012206Y-18360436D01*
X4012206Y-18360436D02*
X4021729Y-18369960D01*
X4021729Y-18369960D02*
X4040777Y-18379484D01*
X4040777Y-18379484D02*
X4078872Y-18379484D01*
X4078872Y-18379484D02*
X4097920Y-18369960D01*
X4097920Y-18369960D02*
X4107444Y-18360436D01*
X4107444Y-18360436D02*
X4116967Y-18341389D01*
X4116967Y-18341389D02*
X4116967Y-18303293D01*
X4116967Y-18303293D02*
X4107444Y-18284246D01*
X4107444Y-18284246D02*
X4097920Y-18274722D01*
X4097920Y-18274722D02*
X4078872Y-18265198D01*
X4240777Y-18179484D02*
X4259825Y-18179484D01*
X4259825Y-18179484D02*
X4278872Y-18189008D01*
X4278872Y-18189008D02*
X4288396Y-18198531D01*
X4288396Y-18198531D02*
X4297920Y-18217579D01*
X4297920Y-18217579D02*
X4307444Y-18255674D01*
X4307444Y-18255674D02*
X4307444Y-18303293D01*
X4307444Y-18303293D02*
X4297920Y-18341389D01*
X4297920Y-18341389D02*
X4288396Y-18360436D01*
X4288396Y-18360436D02*
X4278872Y-18369960D01*
X4278872Y-18369960D02*
X4259825Y-18379484D01*
X4259825Y-18379484D02*
X4240777Y-18379484D01*
X4240777Y-18379484D02*
X4221729Y-18369960D01*
X4221729Y-18369960D02*
X4212206Y-18360436D01*
X4212206Y-18360436D02*
X4202682Y-18341389D01*
X4202682Y-18341389D02*
X4193158Y-18303293D01*
X4193158Y-18303293D02*
X4193158Y-18255674D01*
X4193158Y-18255674D02*
X4202682Y-18217579D01*
X4202682Y-18217579D02*
X4212206Y-18198531D01*
X4212206Y-18198531D02*
X4221729Y-18189008D01*
X4221729Y-18189008D02*
X4240777Y-18179484D01*
X4383634Y-18179484D02*
X4383634Y-18217579D01*
X4459825Y-18179484D02*
X4459825Y-18217579D01*
X4755063Y-18455674D02*
X4745539Y-18446150D01*
X4745539Y-18446150D02*
X4726491Y-18417579D01*
X4726491Y-18417579D02*
X4716968Y-18398531D01*
X4716968Y-18398531D02*
X4707444Y-18369960D01*
X4707444Y-18369960D02*
X4697920Y-18322341D01*
X4697920Y-18322341D02*
X4697920Y-18284246D01*
X4697920Y-18284246D02*
X4707444Y-18236627D01*
X4707444Y-18236627D02*
X4716968Y-18208055D01*
X4716968Y-18208055D02*
X4726491Y-18189008D01*
X4726491Y-18189008D02*
X4745539Y-18160436D01*
X4745539Y-18160436D02*
X4755063Y-18150912D01*
X4916968Y-18179484D02*
X4878872Y-18179484D01*
X4878872Y-18179484D02*
X4859825Y-18189008D01*
X4859825Y-18189008D02*
X4850301Y-18198531D01*
X4850301Y-18198531D02*
X4831253Y-18227103D01*
X4831253Y-18227103D02*
X4821730Y-18265198D01*
X4821730Y-18265198D02*
X4821730Y-18341389D01*
X4821730Y-18341389D02*
X4831253Y-18360436D01*
X4831253Y-18360436D02*
X4840777Y-18369960D01*
X4840777Y-18369960D02*
X4859825Y-18379484D01*
X4859825Y-18379484D02*
X4897920Y-18379484D01*
X4897920Y-18379484D02*
X4916968Y-18369960D01*
X4916968Y-18369960D02*
X4926491Y-18360436D01*
X4926491Y-18360436D02*
X4936015Y-18341389D01*
X4936015Y-18341389D02*
X4936015Y-18293770D01*
X4936015Y-18293770D02*
X4926491Y-18274722D01*
X4926491Y-18274722D02*
X4916968Y-18265198D01*
X4916968Y-18265198D02*
X4897920Y-18255674D01*
X4897920Y-18255674D02*
X4859825Y-18255674D01*
X4859825Y-18255674D02*
X4840777Y-18265198D01*
X4840777Y-18265198D02*
X4831253Y-18274722D01*
X4831253Y-18274722D02*
X4821730Y-18293770D01*
X5174111Y-18379484D02*
X5174111Y-18179484D01*
X5259825Y-18379484D02*
X5259825Y-18274722D01*
X5259825Y-18274722D02*
X5250301Y-18255674D01*
X5250301Y-18255674D02*
X5231253Y-18246150D01*
X5231253Y-18246150D02*
X5202682Y-18246150D01*
X5202682Y-18246150D02*
X5183634Y-18255674D01*
X5183634Y-18255674D02*
X5174111Y-18265198D01*
X5383634Y-18379484D02*
X5364587Y-18369960D01*
X5364587Y-18369960D02*
X5355063Y-18360436D01*
X5355063Y-18360436D02*
X5345539Y-18341389D01*
X5345539Y-18341389D02*
X5345539Y-18284246D01*
X5345539Y-18284246D02*
X5355063Y-18265198D01*
X5355063Y-18265198D02*
X5364587Y-18255674D01*
X5364587Y-18255674D02*
X5383634Y-18246150D01*
X5383634Y-18246150D02*
X5412206Y-18246150D01*
X5412206Y-18246150D02*
X5431253Y-18255674D01*
X5431253Y-18255674D02*
X5440777Y-18265198D01*
X5440777Y-18265198D02*
X5450301Y-18284246D01*
X5450301Y-18284246D02*
X5450301Y-18341389D01*
X5450301Y-18341389D02*
X5440777Y-18360436D01*
X5440777Y-18360436D02*
X5431253Y-18369960D01*
X5431253Y-18369960D02*
X5412206Y-18379484D01*
X5412206Y-18379484D02*
X5383634Y-18379484D01*
X5564587Y-18379484D02*
X5545539Y-18369960D01*
X5545539Y-18369960D02*
X5536015Y-18350912D01*
X5536015Y-18350912D02*
X5536015Y-18179484D01*
X5716968Y-18369960D02*
X5697920Y-18379484D01*
X5697920Y-18379484D02*
X5659825Y-18379484D01*
X5659825Y-18379484D02*
X5640777Y-18369960D01*
X5640777Y-18369960D02*
X5631253Y-18350912D01*
X5631253Y-18350912D02*
X5631253Y-18274722D01*
X5631253Y-18274722D02*
X5640777Y-18255674D01*
X5640777Y-18255674D02*
X5659825Y-18246150D01*
X5659825Y-18246150D02*
X5697920Y-18246150D01*
X5697920Y-18246150D02*
X5716968Y-18255674D01*
X5716968Y-18255674D02*
X5726491Y-18274722D01*
X5726491Y-18274722D02*
X5726491Y-18293770D01*
X5726491Y-18293770D02*
X5631253Y-18312817D01*
X5802682Y-18369960D02*
X5821730Y-18379484D01*
X5821730Y-18379484D02*
X5859825Y-18379484D01*
X5859825Y-18379484D02*
X5878872Y-18369960D01*
X5878872Y-18369960D02*
X5888396Y-18350912D01*
X5888396Y-18350912D02*
X5888396Y-18341389D01*
X5888396Y-18341389D02*
X5878872Y-18322341D01*
X5878872Y-18322341D02*
X5859825Y-18312817D01*
X5859825Y-18312817D02*
X5831253Y-18312817D01*
X5831253Y-18312817D02*
X5812206Y-18303293D01*
X5812206Y-18303293D02*
X5802682Y-18284246D01*
X5802682Y-18284246D02*
X5802682Y-18274722D01*
X5802682Y-18274722D02*
X5812206Y-18255674D01*
X5812206Y-18255674D02*
X5831253Y-18246150D01*
X5831253Y-18246150D02*
X5859825Y-18246150D01*
X5859825Y-18246150D02*
X5878872Y-18255674D01*
X5955063Y-18455674D02*
X5964587Y-18446150D01*
X5964587Y-18446150D02*
X5983634Y-18417579D01*
X5983634Y-18417579D02*
X5993158Y-18398531D01*
X5993158Y-18398531D02*
X6002682Y-18369960D01*
X6002682Y-18369960D02*
X6012206Y-18322341D01*
X6012206Y-18322341D02*
X6012206Y-18284246D01*
X6012206Y-18284246D02*
X6002682Y-18236627D01*
X6002682Y-18236627D02*
X5993158Y-18208055D01*
X5993158Y-18208055D02*
X5983634Y-18189008D01*
X5983634Y-18189008D02*
X5964587Y-18160436D01*
X5964587Y-18160436D02*
X5955063Y-18150912D01*
X6316968Y-18455674D02*
X6307444Y-18446150D01*
X6307444Y-18446150D02*
X6288396Y-18417579D01*
X6288396Y-18417579D02*
X6278872Y-18398531D01*
X6278872Y-18398531D02*
X6269349Y-18369960D01*
X6269349Y-18369960D02*
X6259825Y-18322341D01*
X6259825Y-18322341D02*
X6259825Y-18284246D01*
X6259825Y-18284246D02*
X6269349Y-18236627D01*
X6269349Y-18236627D02*
X6278872Y-18208055D01*
X6278872Y-18208055D02*
X6288396Y-18189008D01*
X6288396Y-18189008D02*
X6307444Y-18160436D01*
X6307444Y-18160436D02*
X6316968Y-18150912D01*
X6393158Y-18246150D02*
X6393158Y-18379484D01*
X6393158Y-18265198D02*
X6402682Y-18255674D01*
X6402682Y-18255674D02*
X6421730Y-18246150D01*
X6421730Y-18246150D02*
X6450301Y-18246150D01*
X6450301Y-18246150D02*
X6469349Y-18255674D01*
X6469349Y-18255674D02*
X6478872Y-18274722D01*
X6478872Y-18274722D02*
X6478872Y-18379484D01*
X6602682Y-18379484D02*
X6583634Y-18369960D01*
X6583634Y-18369960D02*
X6574111Y-18360436D01*
X6574111Y-18360436D02*
X6564587Y-18341389D01*
X6564587Y-18341389D02*
X6564587Y-18284246D01*
X6564587Y-18284246D02*
X6574111Y-18265198D01*
X6574111Y-18265198D02*
X6583634Y-18255674D01*
X6583634Y-18255674D02*
X6602682Y-18246150D01*
X6602682Y-18246150D02*
X6631253Y-18246150D01*
X6631253Y-18246150D02*
X6650301Y-18255674D01*
X6650301Y-18255674D02*
X6659825Y-18265198D01*
X6659825Y-18265198D02*
X6669349Y-18284246D01*
X6669349Y-18284246D02*
X6669349Y-18341389D01*
X6669349Y-18341389D02*
X6659825Y-18360436D01*
X6659825Y-18360436D02*
X6650301Y-18369960D01*
X6650301Y-18369960D02*
X6631253Y-18379484D01*
X6631253Y-18379484D02*
X6602682Y-18379484D01*
X6726492Y-18246150D02*
X6802682Y-18246150D01*
X6755063Y-18179484D02*
X6755063Y-18350912D01*
X6755063Y-18350912D02*
X6764587Y-18369960D01*
X6764587Y-18369960D02*
X6783634Y-18379484D01*
X6783634Y-18379484D02*
X6802682Y-18379484D01*
X7021730Y-18246150D02*
X7021730Y-18446150D01*
X7021730Y-18255674D02*
X7040777Y-18246150D01*
X7040777Y-18246150D02*
X7078873Y-18246150D01*
X7078873Y-18246150D02*
X7097920Y-18255674D01*
X7097920Y-18255674D02*
X7107444Y-18265198D01*
X7107444Y-18265198D02*
X7116968Y-18284246D01*
X7116968Y-18284246D02*
X7116968Y-18341389D01*
X7116968Y-18341389D02*
X7107444Y-18360436D01*
X7107444Y-18360436D02*
X7097920Y-18369960D01*
X7097920Y-18369960D02*
X7078873Y-18379484D01*
X7078873Y-18379484D02*
X7040777Y-18379484D01*
X7040777Y-18379484D02*
X7021730Y-18369960D01*
X7231253Y-18379484D02*
X7212206Y-18369960D01*
X7212206Y-18369960D02*
X7202682Y-18350912D01*
X7202682Y-18350912D02*
X7202682Y-18179484D01*
X7393158Y-18379484D02*
X7393158Y-18274722D01*
X7393158Y-18274722D02*
X7383634Y-18255674D01*
X7383634Y-18255674D02*
X7364587Y-18246150D01*
X7364587Y-18246150D02*
X7326492Y-18246150D01*
X7326492Y-18246150D02*
X7307444Y-18255674D01*
X7393158Y-18369960D02*
X7374111Y-18379484D01*
X7374111Y-18379484D02*
X7326492Y-18379484D01*
X7326492Y-18379484D02*
X7307444Y-18369960D01*
X7307444Y-18369960D02*
X7297920Y-18350912D01*
X7297920Y-18350912D02*
X7297920Y-18331865D01*
X7297920Y-18331865D02*
X7307444Y-18312817D01*
X7307444Y-18312817D02*
X7326492Y-18303293D01*
X7326492Y-18303293D02*
X7374111Y-18303293D01*
X7374111Y-18303293D02*
X7393158Y-18293770D01*
X7459825Y-18246150D02*
X7536015Y-18246150D01*
X7488396Y-18179484D02*
X7488396Y-18350912D01*
X7488396Y-18350912D02*
X7497920Y-18369960D01*
X7497920Y-18369960D02*
X7516968Y-18379484D01*
X7516968Y-18379484D02*
X7536015Y-18379484D01*
X7678873Y-18369960D02*
X7659825Y-18379484D01*
X7659825Y-18379484D02*
X7621730Y-18379484D01*
X7621730Y-18379484D02*
X7602682Y-18369960D01*
X7602682Y-18369960D02*
X7593158Y-18350912D01*
X7593158Y-18350912D02*
X7593158Y-18274722D01*
X7593158Y-18274722D02*
X7602682Y-18255674D01*
X7602682Y-18255674D02*
X7621730Y-18246150D01*
X7621730Y-18246150D02*
X7659825Y-18246150D01*
X7659825Y-18246150D02*
X7678873Y-18255674D01*
X7678873Y-18255674D02*
X7688396Y-18274722D01*
X7688396Y-18274722D02*
X7688396Y-18293770D01*
X7688396Y-18293770D02*
X7593158Y-18312817D01*
X7859825Y-18379484D02*
X7859825Y-18179484D01*
X7859825Y-18369960D02*
X7840777Y-18379484D01*
X7840777Y-18379484D02*
X7802682Y-18379484D01*
X7802682Y-18379484D02*
X7783634Y-18369960D01*
X7783634Y-18369960D02*
X7774111Y-18360436D01*
X7774111Y-18360436D02*
X7764587Y-18341389D01*
X7764587Y-18341389D02*
X7764587Y-18284246D01*
X7764587Y-18284246D02*
X7774111Y-18265198D01*
X7774111Y-18265198D02*
X7783634Y-18255674D01*
X7783634Y-18255674D02*
X7802682Y-18246150D01*
X7802682Y-18246150D02*
X7840777Y-18246150D01*
X7840777Y-18246150D02*
X7859825Y-18255674D01*
X7936015Y-18455674D02*
X7945539Y-18446150D01*
X7945539Y-18446150D02*
X7964587Y-18417579D01*
X7964587Y-18417579D02*
X7974111Y-18398531D01*
X7974111Y-18398531D02*
X7983634Y-18369960D01*
X7983634Y-18369960D02*
X7993158Y-18322341D01*
X7993158Y-18322341D02*
X7993158Y-18284246D01*
X7993158Y-18284246D02*
X7983634Y-18236627D01*
X7983634Y-18236627D02*
X7974111Y-18208055D01*
X7974111Y-18208055D02*
X7964587Y-18189008D01*
X7964587Y-18189008D02*
X7945539Y-18160436D01*
X7945539Y-18160436D02*
X7936015Y-18150912D01*
M02*
