G04 #@! TF.GenerationSoftware,KiCad,Pcbnew,10.0.4*
G04 #@! TF.CreationDate,2026-10-01T18:06:35-03:00*
G04 #@! TF.ProjectId,Primero_esquematico,5072696d-6572-46f5-9f65-737175656d61,rev?*
G04 #@! TF.SameCoordinates,Original*
G04 #@! TF.FileFunction,Soldermask,Bot*
G04 #@! TF.FilePolarity,Negative*
%FSLAX46Y46*%
G04 Gerber Fmt 4.6, Leading zero omitted, Abs format (unit mm)*
G04 Created by KiCad (PCBNEW 10.0.4) date 2026-10-01 18:06:35*
%MOMM*%
%LPD*%
G01*
G04 APERTURE LIST*
%ADD10C,3.800000*%
%ADD11C,1.346200*%
%ADD12C,1.752600*%
%ADD13C,2.235200*%
%ADD14C,1.600200*%
%ADD15C,1.066800*%
%ADD16C,1.574800*%
%ADD17C,1.804200*%
%ADD18R,1.612000X1.612000*%
%ADD19C,1.612000*%
%ADD20C,1.854000*%
%ADD21C,7.204000*%
%ADD22C,8.204000*%
G04 APERTURE END LIST*
D10*
G04 #@! TO.C,He2*
X28490000Y-166450000D03*
G04 #@! TD*
D11*
G04 #@! TO.C,J5*
X62750000Y-73160000D03*
D12*
X66500000Y-74500000D03*
X64000000Y-74500000D03*
X61500000Y-74500000D03*
X59000000Y-74500000D03*
X56500000Y-74500000D03*
G04 #@! TD*
D10*
G04 #@! TO.C,He3*
X35090000Y-63040000D03*
G04 #@! TD*
G04 #@! TO.C,He4*
X19930000Y-87850000D03*
G04 #@! TD*
D11*
G04 #@! TO.C,J6*
X23020000Y-140908300D03*
D12*
X24360000Y-137158300D03*
X24360000Y-139658300D03*
X24360000Y-142158300D03*
X24360000Y-144658300D03*
X24360000Y-147158300D03*
G04 #@! TD*
D10*
G04 #@! TO.C,He1*
X59000000Y-32500000D03*
G04 #@! TD*
D11*
G04 #@! TO.C,J4*
X65560000Y-40250000D03*
D12*
X66900000Y-36500000D03*
X66900000Y-39000000D03*
X66900000Y-41500000D03*
X66900000Y-44000000D03*
X66900000Y-46500000D03*
G04 #@! TD*
D13*
G04 #@! TO.C,J10*
X39370501Y-70078299D03*
X19670499Y-70078299D03*
D14*
X36520499Y-74828299D03*
X34520500Y-74828299D03*
X24520500Y-74828299D03*
X22520499Y-74828299D03*
X36520499Y-72628299D03*
X34520500Y-72628299D03*
X32520499Y-72628299D03*
X30520500Y-72628299D03*
X28520499Y-72628299D03*
X26520501Y-72628299D03*
X24520500Y-72628299D03*
X22520499Y-72628299D03*
G04 #@! TD*
D15*
G04 #@! TO.C,J1*
X15453300Y-33800000D03*
X15453300Y-27799996D03*
D16*
X19393300Y-30799998D03*
X16393301Y-30799998D03*
G04 #@! TD*
D11*
G04 #@! TO.C,J3*
X63150000Y-57060000D03*
D12*
X64490000Y-53310000D03*
X64490000Y-55810000D03*
X64490000Y-58310000D03*
X64490000Y-60810000D03*
X64490000Y-63310000D03*
G04 #@! TD*
D13*
G04 #@! TO.C,J7*
X18797600Y-118190000D03*
X38482600Y-118190000D03*
D17*
X21642400Y-115650000D03*
X23649000Y-115650000D03*
X25630200Y-115650000D03*
X27636800Y-115650000D03*
X29643400Y-115650000D03*
X31650000Y-115650000D03*
X33631200Y-115650000D03*
X35637800Y-115650000D03*
G04 #@! TD*
D18*
G04 #@! TO.C,PS1*
X46800000Y-157600000D03*
D19*
X44260000Y-157600000D03*
X36640000Y-157600000D03*
X34100000Y-157600000D03*
X31560000Y-157600000D03*
G04 #@! TD*
D13*
G04 #@! TO.C,J2*
X52916400Y-161290000D03*
X72601400Y-161290000D03*
D17*
X55761200Y-158750000D03*
X57767800Y-158750000D03*
X59749000Y-158750000D03*
X61755600Y-158750000D03*
X63762200Y-158750000D03*
X65768800Y-158750000D03*
X67750000Y-158750000D03*
X69756600Y-158750000D03*
G04 #@! TD*
D20*
G04 #@! TO.C,U2*
X178900000Y-61000000D03*
X213050000Y-112000000D03*
X131900000Y-61000000D03*
X166050000Y-112000000D03*
X84900000Y-61000000D03*
X119050000Y-112000000D03*
D21*
X224100000Y-122850000D03*
X173500000Y-122850000D03*
X126200000Y-122850000D03*
X75600000Y-122850000D03*
X75600000Y-56750000D03*
X126200000Y-56750000D03*
X173500000Y-56750000D03*
X224100000Y-56750000D03*
D20*
X207050000Y-63700000D03*
X196850000Y-112000000D03*
X160050000Y-63700000D03*
X149850000Y-112000000D03*
X113050000Y-63700000D03*
X102850000Y-112000000D03*
X211100000Y-63700000D03*
X192800000Y-112000000D03*
X164100000Y-63700000D03*
X145800000Y-112000000D03*
X117100000Y-63700000D03*
X98800000Y-112000000D03*
D22*
X200850000Y-130850000D03*
X113850000Y-48850000D03*
D20*
X177500000Y-79000000D03*
X177500000Y-71500000D03*
X130500000Y-79000000D03*
X130500000Y-71500000D03*
X83500000Y-79000000D03*
X83500000Y-71500000D03*
G04 #@! TD*
M02*
