G04 #@! TF.GenerationSoftware,KiCad,Pcbnew,10.0.4*
G04 #@! TF.CreationDate,2026-10-01T18:06:35-03:00*
G04 #@! TF.ProjectId,Primero_esquematico,5072696d-6572-46f5-9f65-737175656d61,rev?*
G04 #@! TF.SameCoordinates,Original*
G04 #@! TF.FileFunction,Profile,NP*
%FSLAX46Y46*%
G04 Gerber Fmt 4.6, Leading zero omitted, Abs format (unit mm)*
G04 Created by KiCad (PCBNEW 10.0.4) date 2026-10-01 18:06:35*
%MOMM*%
%LPD*%
G01*
G04 APERTURE LIST*
G04 #@! TA.AperFunction,Profile*
%ADD10C,0.100000*%
G04 #@! TD*
G04 #@! TA.AperFunction,Profile*
%ADD11C,0.050000*%
G04 #@! TD*
G04 APERTURE END LIST*
D10*
X11850000Y-26150000D02*
X236850000Y-26150000D01*
X236850000Y-171150000D01*
X11850000Y-171150000D01*
X11850000Y-26150000D01*
D11*
X81630000Y-108490000D02*
X95630000Y-108490000D01*
X95630000Y-109490000D01*
X81630000Y-109490000D01*
X81630000Y-108490000D01*
X82550000Y-142800000D02*
X96550000Y-142800000D01*
X96550000Y-143800000D01*
X82550000Y-143800000D01*
X82550000Y-142800000D01*
X89650000Y-39390000D02*
X103650000Y-39390000D01*
X103650000Y-40390000D01*
X89650000Y-40390000D01*
X89650000Y-39390000D01*
X107090000Y-85800000D02*
X121090000Y-85800000D01*
X121090000Y-86800000D01*
X107090000Y-86800000D01*
X107090000Y-85800000D01*
X107290000Y-142680000D02*
X121290000Y-142680000D01*
X121290000Y-143680000D01*
X107290000Y-143680000D01*
X107290000Y-142680000D01*
X130010000Y-142700000D02*
X144010000Y-142700000D01*
X144010000Y-143700000D01*
X130010000Y-143700000D01*
X130010000Y-142700000D01*
X130090000Y-108380000D02*
X144090000Y-108380000D01*
X144090000Y-109380000D01*
X130090000Y-109380000D01*
X130090000Y-108380000D01*
X145810000Y-39380000D02*
X159810000Y-39380000D01*
X159810000Y-40380000D01*
X145810000Y-40380000D01*
X145810000Y-39380000D01*
X154430000Y-142820000D02*
X168430000Y-142820000D01*
X168430000Y-143820000D01*
X154430000Y-143820000D01*
X154430000Y-142820000D01*
X156760000Y-85790000D02*
X170760000Y-85790000D01*
X170760000Y-86790000D01*
X156760000Y-86790000D01*
X156760000Y-85790000D01*
X176560000Y-108510000D02*
X190560000Y-108510000D01*
X190560000Y-109510000D01*
X176560000Y-109510000D01*
X176560000Y-108510000D01*
X179080000Y-142770000D02*
X193080000Y-142770000D01*
X193080000Y-143770000D01*
X179080000Y-143770000D01*
X179080000Y-142770000D01*
X184430000Y-39340000D02*
X198430000Y-39340000D01*
X198430000Y-40340000D01*
X184430000Y-40340000D01*
X184430000Y-39340000D01*
X204500000Y-85600000D02*
X218500000Y-85600000D01*
X218500000Y-86600000D01*
X204500000Y-86600000D01*
X204500000Y-85600000D01*
X218530000Y-142715000D02*
X231400000Y-142715000D01*
X231400000Y-143715000D01*
X218530000Y-143715000D01*
X218530000Y-142715000D01*
X220960000Y-95275000D02*
X221960000Y-95275000D01*
X221960000Y-108145000D01*
X220960000Y-108145000D01*
X220960000Y-95275000D01*
M02*
