G04*
G04 #@! TF.GenerationSoftware,Altium Limited,Altium Designer,20.0.13 (296)*
G04*
G04 Layer_Color=128*
%FSLAX25Y25*%
%MOIN*%
G70*
G01*
G75*
%ADD40C,0.00200*%
G54D40*
X210400Y134689D02*
X214600D01*
X212500Y132589D02*
Y136789D01*
X210400Y146500D02*
X214600D01*
X212500Y144400D02*
Y148600D01*
X198589Y150201D02*
X202789D01*
X200689Y148101D02*
Y152301D01*
X222211Y150201D02*
X226411D01*
X224311Y148101D02*
Y152301D01*
X24900Y90500D02*
X29100D01*
X27000Y88400D02*
Y92600D01*
X24900Y78689D02*
X29100D01*
X27000Y76589D02*
Y80789D01*
X36711Y74988D02*
X40911D01*
X38811Y72888D02*
Y77088D01*
X13089Y74988D02*
X17289D01*
X15189Y72888D02*
Y77088D01*
X66161Y90090D02*
X68839D01*
X67500Y88751D02*
Y91428D01*
X61161Y85090D02*
X63839D01*
X62500Y83751D02*
Y86428D01*
X66161Y80090D02*
X68839D01*
X67500Y78751D02*
Y81428D01*
X210630Y23037D02*
X222441D01*
X216535Y17132D02*
Y28943D01*
X13780Y21035D02*
X25591D01*
X19685Y15130D02*
Y26941D01*
X210630Y216535D02*
X222441D01*
X216535Y210630D02*
Y222441D01*
X13780Y216535D02*
X25591D01*
X19685Y210630D02*
Y222441D01*
X63500Y220000D02*
X67500D01*
X65500Y218000D02*
Y222000D01*
X63500Y180000D02*
X67500D01*
X65500Y178000D02*
Y182000D01*
X192900Y67500D02*
X196100D01*
X194500Y65900D02*
Y69100D01*
X192900Y27500D02*
X196100D01*
X194500Y25900D02*
Y29100D01*
X207400Y107500D02*
X210600D01*
X209000Y105900D02*
Y109100D01*
X207400Y67500D02*
X210600D01*
X209000Y65900D02*
Y69100D01*
X221900Y68000D02*
X225100D01*
X223500Y66400D02*
Y69600D01*
X221900Y108000D02*
X225100D01*
X223500Y106400D02*
Y109600D01*
X121400Y44000D02*
X124600D01*
X123000Y42400D02*
Y45600D01*
X141400Y44000D02*
X144600D01*
X143000Y42400D02*
Y45600D01*
X58400Y27600D02*
X61600D01*
X60000Y26000D02*
Y29201D01*
X98400Y27600D02*
X101600D01*
X100000Y26000D02*
Y29201D01*
X121400Y58500D02*
X124600D01*
X123000Y56900D02*
Y60100D01*
X141400Y58500D02*
X144600D01*
X143000Y56900D02*
Y60100D01*
X129400Y144500D02*
X132600D01*
X131000Y142900D02*
Y146100D01*
X169400Y144500D02*
X172600D01*
X171000Y142900D02*
Y146100D01*
X170161Y119750D02*
X172839D01*
X171500Y118411D02*
Y121089D01*
X175161Y124750D02*
X177839D01*
X176500Y123411D02*
Y126089D01*
X170161Y129750D02*
X172839D01*
X171500Y128411D02*
Y131089D01*
X137161Y119500D02*
X139839D01*
X138500Y118161D02*
Y120839D01*
X142161Y124500D02*
X144839D01*
X143500Y123161D02*
Y125839D01*
X137161Y129500D02*
X139839D01*
X138500Y128161D02*
Y130839D01*
X152900Y27500D02*
X156100D01*
X154500Y25900D02*
Y29100D01*
X112900Y27500D02*
X116100D01*
X114500Y25900D02*
Y29100D01*
X58400Y43500D02*
X61600D01*
X60000Y41900D02*
Y45100D01*
X98400Y43500D02*
X101600D01*
X100000Y41900D02*
Y45100D01*
X182400Y204900D02*
X185600D01*
X184000Y203300D02*
Y206500D01*
X182400Y195200D02*
X185600D01*
X184000Y193600D02*
Y196800D01*
X26161Y119500D02*
X28839D01*
X27500Y118161D02*
Y120839D01*
X31161Y124500D02*
X33839D01*
X32500Y123161D02*
Y125839D01*
X26161Y129500D02*
X28839D01*
X27500Y128161D02*
Y130839D01*
X98400Y129000D02*
X101600D01*
X100000Y127400D02*
Y130600D01*
X58400Y129000D02*
X61600D01*
X60000Y127400D02*
Y130600D01*
X58400Y145000D02*
X61600D01*
X60000Y143400D02*
Y146600D01*
X98400Y145000D02*
X101600D01*
X100000Y143400D02*
Y146600D01*
X178900Y67500D02*
X182100D01*
X180500Y65900D02*
Y69100D01*
X178900Y27500D02*
X182100D01*
X180500Y25900D02*
Y29100D01*
X129400Y159600D02*
X132600D01*
X131000Y158001D02*
Y161200D01*
X169400Y159600D02*
X172600D01*
X171000Y158001D02*
Y161200D01*
X98400Y159500D02*
X101600D01*
X100000Y157900D02*
Y161100D01*
X58400Y159500D02*
X61600D01*
X60000Y157900D02*
Y161100D01*
X169500Y82000D02*
X173500D01*
X171500Y80000D02*
Y84000D01*
X169500Y97000D02*
X173500D01*
X171500Y95000D02*
Y99000D01*
X106900Y101500D02*
X110100D01*
X108500Y99900D02*
Y103100D01*
X106900Y71500D02*
X110100D01*
X108500Y69900D02*
Y73100D01*
X136900Y71500D02*
X140100D01*
X138500Y69900D02*
Y73100D01*
X126900Y71500D02*
X130100D01*
X128500Y69900D02*
Y73100D01*
X116900Y71500D02*
X120100D01*
X118500Y69900D02*
Y73100D01*
X116900Y101500D02*
X120100D01*
X118500Y99900D02*
Y103100D01*
X126900Y101500D02*
X130100D01*
X128500Y99900D02*
Y103100D01*
X136900Y101500D02*
X140100D01*
X138500Y99900D02*
Y103100D01*
X48500Y220000D02*
X52500D01*
X50500Y218000D02*
Y222000D01*
X48500Y180000D02*
X52500D01*
X50500Y178000D02*
Y182000D01*
X82250Y220000D02*
X86750D01*
X84500Y217750D02*
Y222250D01*
X92250Y220000D02*
X96750D01*
X94500Y217750D02*
Y222250D01*
X122250Y220000D02*
X126750D01*
X124500Y217750D02*
Y222250D01*
X152250Y220000D02*
X156750D01*
X154500Y217750D02*
Y222250D01*
X152250Y180000D02*
X156750D01*
X154500Y177750D02*
Y182250D01*
X122250Y180000D02*
X126750D01*
X124500Y177750D02*
Y182250D01*
X82250Y180000D02*
X86750D01*
X84500Y177750D02*
Y182250D01*
X17642Y170795D02*
X21642D01*
X19642Y168795D02*
Y172795D01*
X17642Y145205D02*
X21642D01*
X19642Y143205D02*
Y147205D01*
X35358Y145205D02*
X39358D01*
X37358Y143205D02*
Y147205D01*
X35358Y170795D02*
X39358D01*
X37358Y168795D02*
Y172795D01*
X89900Y76500D02*
X93100D01*
X91500Y74900D02*
Y78100D01*
X89900Y96500D02*
X93100D01*
X91500Y94900D02*
Y98100D01*
M02*
