M48
;Layer_Color=9474304
;FILE_FORMAT=2:4
INCH,LZ
;TYPE=PLATED
T1F00S00C0.0268
T2F00S00C0.0320
T3F00S00C0.0400
T4F00S00C0.0420
T5F00S00C0.0450
T6F00S00C0.1181
;TYPE=NON_PLATED
T7F00S00C0.0420
%
T01
X00275Y01195
X00325Y01245
X00275Y01295
X00675Y009009
X00625Y008509
X00675Y008009
X01385Y01195
X01435Y01245
X01385Y01295
X01715Y012975
Y011975
X01765Y012475
T02
X0209Y00675
X02235Y0068
X01945Y00675
X01805
Y00275
X01945
X01545
X0143Y0044
Y00585
X0123
Y0044
X01Y00435
Y00276
X01145Y00275
X006Y00276
Y00435
X00915Y00765
Y00965
X01085Y01015
X01185
X01285
X01385
Y00715
X01285
X01185
X01085
X01Y0129
Y0145
Y01595
X0131Y01596
Y01445
X0171
Y01596
X0184Y01952
Y02049
X006Y01595
Y0145
Y0129
X0209Y01075
X02235Y0108
T03
X001964Y01452
X003736
Y01708
X001964
X00505Y018
X00655
Y022
X00505
X01715Y0097
Y0082
T04
X0027Y007869
Y00905
X02125Y013469
Y01465
T05
X00845Y018
Y022
X00945
X01245
X01545
Y018
X01245
T06
X021654Y002304
X001969Y002104
Y021654
X021654
T07
X001519Y007499
X003881
X020069Y01502
X022431
M30
