G04*
G04 #@! TF.GenerationSoftware,Altium Limited,Altium Designer,20.0.13 (296)*
G04*
G04 Layer_Physical_Order=2*
G04 Layer_Color=16711680*
%FSLAX25Y25*%
%MOIN*%
G70*
G01*
G75*
%ADD10C,0.02000*%
%ADD17C,0.06200*%
%ADD19C,0.04200*%
%ADD29C,0.06500*%
%ADD31R,0.04252X0.04252*%
%ADD32C,0.04252*%
%ADD33C,0.19685*%
%ADD34C,0.05906*%
%ADD35R,0.06200X0.06200*%
%ADD36R,0.05906X0.05906*%
%ADD37C,0.06000*%
%ADD38R,0.06000X0.06000*%
%ADD39C,0.01500*%
G36*
X91857Y224075D02*
X92088Y223899D01*
X92333Y223744D01*
X92593Y223609D01*
X92868Y223497D01*
X93158Y223405D01*
X93463Y223334D01*
X93783Y223285D01*
X94118Y223257D01*
X94468Y223250D01*
X91250Y220033D01*
X91243Y220382D01*
X91215Y220717D01*
X91166Y221037D01*
X91095Y221342D01*
X91003Y221632D01*
X90891Y221907D01*
X90756Y222167D01*
X90601Y222412D01*
X90425Y222643D01*
X90227Y222858D01*
X91642Y224273D01*
X91857Y224075D01*
D02*
G37*
G36*
X54424Y222510D02*
X54237Y222308D01*
X54070Y222095D01*
X53922Y221872D01*
X53795Y221640D01*
X53688Y221397D01*
X53601Y221144D01*
X53534Y220880D01*
X53487Y220607D01*
X53460Y220323D01*
X53453Y220029D01*
X50529Y222953D01*
X50823Y222960D01*
X51107Y222987D01*
X51380Y223034D01*
X51644Y223101D01*
X51897Y223188D01*
X52140Y223295D01*
X52372Y223423D01*
X52595Y223570D01*
X52808Y223737D01*
X53010Y223924D01*
X54424Y222510D01*
D02*
G37*
G36*
X67821Y221864D02*
X68041Y221683D01*
X68268Y221523D01*
X68501Y221384D01*
X68742Y221267D01*
X68989Y221171D01*
X69244Y221096D01*
X69506Y221043D01*
X69774Y221011D01*
X70050Y221000D01*
Y219000D01*
X69774Y218989D01*
X69506Y218957D01*
X69244Y218904D01*
X68989Y218829D01*
X68742Y218733D01*
X68501Y218616D01*
X68268Y218477D01*
X68041Y218317D01*
X67821Y218136D01*
X67609Y217933D01*
Y222067D01*
X67821Y221864D01*
D02*
G37*
G36*
X157073Y222033D02*
X157330Y221816D01*
X157591Y221625D01*
X157856Y221459D01*
X158126Y221319D01*
X158400Y221204D01*
X158679Y221115D01*
X158963Y221051D01*
X159250Y221013D01*
X159542Y221000D01*
Y219000D01*
X159250Y218987D01*
X158963Y218949D01*
X158679Y218885D01*
X158400Y218796D01*
X158126Y218681D01*
X157856Y218541D01*
X157591Y218375D01*
X157330Y218184D01*
X157073Y217967D01*
X156821Y217725D01*
Y222275D01*
X157073Y222033D01*
D02*
G37*
G36*
X121857Y224075D02*
X122088Y223899D01*
X122333Y223744D01*
X122593Y223609D01*
X122868Y223497D01*
X123158Y223405D01*
X123463Y223334D01*
X123783Y223285D01*
X124118Y223257D01*
X124468Y223250D01*
X122179Y220961D01*
Y217725D01*
X121927Y217967D01*
X121670Y218184D01*
X121409Y218375D01*
X121144Y218541D01*
X120874Y218681D01*
X120599Y218796D01*
X120321Y218885D01*
X120037Y218949D01*
X119750Y218987D01*
X119458Y219000D01*
Y221000D01*
X119750Y221013D01*
X120037Y221051D01*
X120321Y221115D01*
X120599Y221204D01*
X120874Y221319D01*
X121070Y221421D01*
X121003Y221632D01*
X120891Y221907D01*
X120756Y222167D01*
X120601Y222412D01*
X120425Y222643D01*
X120227Y222858D01*
X121642Y224273D01*
X121857Y224075D01*
D02*
G37*
G36*
X82179Y217725D02*
X81927Y217967D01*
X81670Y218184D01*
X81409Y218375D01*
X81144Y218541D01*
X80874Y218681D01*
X80599Y218796D01*
X80321Y218885D01*
X80037Y218949D01*
X79750Y218987D01*
X79458Y219000D01*
Y221000D01*
X79750Y221013D01*
X80037Y221051D01*
X80321Y221115D01*
X80599Y221204D01*
X80874Y221319D01*
X81144Y221459D01*
X81409Y221625D01*
X81670Y221816D01*
X81927Y222033D01*
X82179Y222275D01*
Y217725D01*
D02*
G37*
G36*
X52364Y217679D02*
X52183Y217459D01*
X52023Y217232D01*
X51884Y216999D01*
X51767Y216758D01*
X51671Y216511D01*
X51596Y216256D01*
X51543Y215994D01*
X51511Y215726D01*
X51500Y215450D01*
X49500D01*
X49489Y215726D01*
X49457Y215994D01*
X49404Y216256D01*
X49329Y216511D01*
X49233Y216758D01*
X49116Y216999D01*
X48977Y217232D01*
X48817Y217459D01*
X48636Y217679D01*
X48433Y217891D01*
X52567D01*
X52364Y217679D01*
D02*
G37*
G36*
X86533Y217427D02*
X86316Y217170D01*
X86125Y216909D01*
X85959Y216644D01*
X85819Y216374D01*
X85704Y216100D01*
X85615Y215821D01*
X85551Y215537D01*
X85513Y215250D01*
X85500Y214958D01*
X83500D01*
X83487Y215250D01*
X83449Y215537D01*
X83385Y215821D01*
X83296Y216100D01*
X83181Y216374D01*
X83041Y216644D01*
X82875Y216909D01*
X82684Y217170D01*
X82467Y217427D01*
X82225Y217679D01*
X86775D01*
X86533Y217427D01*
D02*
G37*
G36*
X181323Y209005D02*
X182060Y208380D01*
X182386Y208153D01*
X182683Y207982D01*
X182951Y207868D01*
X183191Y207810D01*
X183403Y207809D01*
X183586Y207864D01*
X183740Y207976D01*
X180924Y205160D01*
X181036Y205314D01*
X181091Y205497D01*
X181090Y205709D01*
X181032Y205949D01*
X180918Y206217D01*
X180747Y206514D01*
X180520Y206840D01*
X180236Y207194D01*
X179498Y207988D01*
X180912Y209402D01*
X181323Y209005D01*
D02*
G37*
G36*
X181786Y193030D02*
X181554Y193252D01*
X181316Y193451D01*
X181072Y193627D01*
X180823Y193779D01*
X180568Y193907D01*
X180307Y194013D01*
X180040Y194095D01*
X179768Y194153D01*
X179490Y194188D01*
X179206Y194200D01*
Y196200D01*
X179490Y196212D01*
X179768Y196247D01*
X180040Y196305D01*
X180307Y196387D01*
X180568Y196493D01*
X180823Y196621D01*
X181072Y196773D01*
X181316Y196949D01*
X181554Y197148D01*
X181786Y197370D01*
Y193030D01*
D02*
G37*
G36*
X231958Y76721D02*
X231458Y76570D01*
X231302Y76802D01*
X218302Y89802D01*
X217476Y90355D01*
X216500Y90549D01*
X180807D01*
X180616Y91011D01*
X187556Y97951D01*
X216000D01*
X216975Y98145D01*
X217802Y98698D01*
X222089Y102984D01*
X222133Y103018D01*
X222256Y103098D01*
X222386Y103167D01*
X222526Y103226D01*
X222678Y103277D01*
X222846Y103317D01*
X223030Y103347D01*
X223233Y103365D01*
X223430Y103370D01*
X223500Y103360D01*
X224701Y103518D01*
X225820Y103982D01*
X226781Y104719D01*
X227518Y105680D01*
X227982Y106799D01*
X228140Y108000D01*
X227982Y109201D01*
X227518Y110320D01*
X226781Y111281D01*
X225820Y112018D01*
X224701Y112482D01*
X223500Y112640D01*
X223430Y112630D01*
X223233Y112635D01*
X223030Y112653D01*
X222846Y112683D01*
X222678Y112723D01*
X222526Y112774D01*
X222386Y112833D01*
X222256Y112902D01*
X222133Y112982D01*
X222089Y113015D01*
X219802Y115302D01*
X218975Y115855D01*
X218000Y116049D01*
X200056D01*
X184552Y131552D01*
X183726Y132105D01*
X182750Y132299D01*
X174311D01*
X174254Y132306D01*
X174168Y132322D01*
X174106Y132338D01*
X174068Y132351D01*
X174068Y132351D01*
X174045Y132372D01*
X174013Y132391D01*
X173947Y132468D01*
X173841Y132541D01*
X173830Y132556D01*
X173821Y132585D01*
X173806Y132653D01*
X173799Y132705D01*
Y140066D01*
X173805Y140121D01*
X173837Y140277D01*
X173881Y140434D01*
X173939Y140594D01*
X174014Y140758D01*
X174105Y140927D01*
X174215Y141101D01*
X174346Y141281D01*
X174524Y141499D01*
X174591Y141623D01*
X175018Y142180D01*
X175482Y143299D01*
X175640Y144500D01*
X175482Y145701D01*
X175018Y146820D01*
X174281Y147781D01*
X173320Y148518D01*
X172201Y148982D01*
X171000Y149140D01*
X169799Y148982D01*
X168680Y148518D01*
X167719Y147781D01*
X166982Y146820D01*
X166518Y145701D01*
X166360Y144500D01*
X166518Y143299D01*
X166982Y142180D01*
X167719Y141219D01*
X167945Y141046D01*
X167995Y140979D01*
X168187Y140807D01*
X168314Y140675D01*
X168418Y140548D01*
X168502Y140424D01*
X168570Y140302D01*
X168623Y140181D01*
X168664Y140057D01*
X168694Y139926D01*
X168701Y139873D01*
Y132385D01*
X168693Y132286D01*
X168680Y132198D01*
X168662Y132116D01*
X168646Y132057D01*
X168633Y132022D01*
X168630Y132015D01*
X168601Y131975D01*
X168547Y131855D01*
X168241Y131410D01*
X167923Y130510D01*
X167848Y129559D01*
X168022Y128620D01*
X168433Y127758D01*
X169053Y127032D01*
X169840Y126491D01*
X170740Y126173D01*
X171691Y126098D01*
X172630Y126272D01*
X172673Y126292D01*
X173061Y125923D01*
X172967Y125697D01*
X172843Y124750D01*
X172967Y123803D01*
X173144Y123376D01*
X172810Y122876D01*
X172000D01*
Y119750D01*
Y116624D01*
X173951D01*
Y111500D01*
Y110056D01*
X169698Y105802D01*
X169145Y104975D01*
X168951Y104000D01*
Y101290D01*
X168946Y101250D01*
X168918Y101113D01*
X168880Y100982D01*
X168831Y100855D01*
X168769Y100728D01*
X168693Y100600D01*
X168601Y100470D01*
X168491Y100337D01*
X168373Y100213D01*
X168324Y100176D01*
X167611Y99246D01*
X167162Y98162D01*
X167009Y97000D01*
X167162Y95838D01*
X167611Y94754D01*
X167808Y94497D01*
X167587Y94049D01*
X132556D01*
X131049Y95556D01*
Y97128D01*
X131054Y97174D01*
X131083Y97312D01*
X131123Y97446D01*
X131175Y97578D01*
X131240Y97710D01*
X131320Y97844D01*
X131418Y97981D01*
X131534Y98121D01*
X131658Y98251D01*
X131709Y98291D01*
X132431Y99231D01*
X132884Y100325D01*
X133039Y101500D01*
X132884Y102675D01*
X132431Y103769D01*
X131709Y104709D01*
X130769Y105431D01*
X129675Y105884D01*
X128500Y106039D01*
X127325Y105884D01*
X126231Y105431D01*
X125291Y104709D01*
X124569Y103769D01*
X124116Y102675D01*
X123961Y101500D01*
X124116Y100325D01*
X124569Y99231D01*
X125291Y98291D01*
X125342Y98251D01*
X125466Y98121D01*
X125582Y97981D01*
X125680Y97844D01*
X125760Y97710D01*
X125825Y97578D01*
X125877Y97446D01*
X125917Y97312D01*
X125945Y97174D01*
X125951Y97128D01*
Y94500D01*
X126145Y93524D01*
X126698Y92698D01*
X129698Y89698D01*
X130525Y89145D01*
X131500Y88951D01*
X162193D01*
X162384Y88489D01*
X142830Y68934D01*
X142431Y69231D01*
X142884Y70325D01*
X143039Y71500D01*
X142884Y72675D01*
X142431Y73769D01*
X141709Y74709D01*
X140769Y75431D01*
X139675Y75884D01*
X138500Y76039D01*
X138436Y76030D01*
X138256Y76035D01*
X138075Y76052D01*
X137909Y76080D01*
X137758Y76117D01*
X137618Y76165D01*
X137488Y76221D01*
X137365Y76288D01*
X137247Y76366D01*
X137211Y76394D01*
X128802Y84802D01*
X127975Y85355D01*
X127000Y85549D01*
X117556D01*
X111049Y92056D01*
Y97128D01*
X111055Y97174D01*
X111083Y97312D01*
X111123Y97446D01*
X111175Y97578D01*
X111240Y97710D01*
X111320Y97844D01*
X111417Y97981D01*
X111534Y98121D01*
X111658Y98251D01*
X111709Y98291D01*
X112431Y99231D01*
X112884Y100325D01*
X113039Y101500D01*
X112884Y102675D01*
X112793Y102895D01*
X113217Y103179D01*
X113606Y102789D01*
X113634Y102753D01*
X113712Y102635D01*
X113779Y102512D01*
X113835Y102382D01*
X113883Y102243D01*
X113920Y102091D01*
X113948Y101926D01*
X113965Y101744D01*
X113970Y101564D01*
X113961Y101500D01*
X114116Y100325D01*
X114569Y99231D01*
X115291Y98291D01*
X116231Y97569D01*
X117325Y97116D01*
X118500Y96961D01*
X119675Y97116D01*
X120769Y97569D01*
X121709Y98291D01*
X122431Y99231D01*
X122884Y100325D01*
X123039Y101500D01*
X122884Y102675D01*
X122431Y103769D01*
X121709Y104709D01*
X120769Y105431D01*
X119675Y105884D01*
X118500Y106039D01*
X118436Y106030D01*
X118256Y106035D01*
X118075Y106052D01*
X117909Y106080D01*
X117757Y106117D01*
X117618Y106165D01*
X117488Y106221D01*
X117366Y106288D01*
X117247Y106366D01*
X117211Y106394D01*
X102549Y121056D01*
Y124456D01*
X102556Y124511D01*
X102587Y124654D01*
X102630Y124795D01*
X102687Y124936D01*
X102759Y125079D01*
X102849Y125226D01*
X102958Y125378D01*
X103088Y125534D01*
X103225Y125676D01*
X103281Y125719D01*
X104018Y126680D01*
X104482Y127799D01*
X104640Y129000D01*
X104482Y130201D01*
X104018Y131320D01*
X103281Y132281D01*
X102320Y133018D01*
X101201Y133482D01*
X100000Y133640D01*
X98799Y133482D01*
X97680Y133018D01*
X96719Y132281D01*
X95982Y131320D01*
X95518Y130201D01*
X95360Y129000D01*
X95518Y127799D01*
X95982Y126680D01*
X96719Y125719D01*
X96775Y125676D01*
X96912Y125534D01*
X97042Y125378D01*
X97151Y125226D01*
X97241Y125079D01*
X97313Y124936D01*
X97370Y124795D01*
X97413Y124654D01*
X97444Y124511D01*
X97451Y124456D01*
Y120000D01*
X97645Y119025D01*
X98198Y118198D01*
X110178Y106217D01*
X109895Y105793D01*
X109675Y105884D01*
X108500Y106039D01*
X107325Y105884D01*
X106231Y105431D01*
X105291Y104709D01*
X104569Y103769D01*
X104116Y102675D01*
X103961Y101500D01*
X103970Y101436D01*
X103965Y101256D01*
X103948Y101075D01*
X103920Y100909D01*
X103883Y100758D01*
X103835Y100618D01*
X103779Y100488D01*
X103712Y100365D01*
X103634Y100247D01*
X103606Y100211D01*
X102444Y99049D01*
X96044D01*
X95989Y99056D01*
X95846Y99087D01*
X95705Y99130D01*
X95564Y99187D01*
X95421Y99259D01*
X95274Y99349D01*
X95122Y99458D01*
X94966Y99588D01*
X94824Y99725D01*
X94781Y99781D01*
X93820Y100518D01*
X92701Y100982D01*
X91500Y101140D01*
X91430Y101130D01*
X91233Y101135D01*
X91030Y101153D01*
X90846Y101183D01*
X90679Y101223D01*
X90526Y101274D01*
X90386Y101333D01*
X90256Y101402D01*
X90133Y101482D01*
X90089Y101515D01*
X87049Y104556D01*
Y121500D01*
X86855Y122476D01*
X86794Y122567D01*
Y144550D01*
X90700Y148456D01*
X96223D01*
X96470Y147956D01*
X95982Y147320D01*
X95518Y146201D01*
X95360Y145000D01*
X95518Y143799D01*
X95982Y142680D01*
X96719Y141719D01*
X97680Y140982D01*
X98799Y140518D01*
X100000Y140360D01*
X100070Y140370D01*
X100267Y140365D01*
X100470Y140347D01*
X100654Y140317D01*
X100821Y140277D01*
X100974Y140226D01*
X101114Y140167D01*
X101244Y140098D01*
X101367Y140018D01*
X101411Y139985D01*
X118698Y122698D01*
X119525Y122145D01*
X120500Y121951D01*
X135374D01*
Y120000D01*
X138500D01*
Y119000D01*
X135374D01*
Y118401D01*
X135297Y118285D01*
X135156Y118116D01*
X135132Y118039D01*
X135087Y117971D01*
X135044Y117756D01*
X134979Y117546D01*
X134986Y117465D01*
X134971Y117386D01*
X135013Y117171D01*
X135034Y116952D01*
X135071Y116880D01*
X135087Y116801D01*
X135209Y116618D01*
X135311Y116424D01*
X135374Y116372D01*
X135419Y116305D01*
X135601Y116183D01*
X135770Y116042D01*
X135847Y116018D01*
X135915Y115973D01*
X135932Y115970D01*
X135942Y115913D01*
X135951Y115807D01*
Y106063D01*
X135942Y105956D01*
X135931Y105892D01*
X135915Y105889D01*
X135847Y105844D01*
X135769Y105819D01*
X135601Y105679D01*
X135419Y105557D01*
X135380Y105500D01*
X134500D01*
Y102000D01*
X138500D01*
Y101500D01*
D01*
Y102000D01*
X142500D01*
Y105500D01*
X141620D01*
X141581Y105557D01*
X141399Y105679D01*
X141231Y105819D01*
X141153Y105844D01*
X141085Y105889D01*
X141069Y105892D01*
X141058Y105956D01*
X141049Y106063D01*
Y115807D01*
X141058Y115913D01*
X141068Y115970D01*
X141085Y115973D01*
X141153Y116018D01*
X141230Y116042D01*
X141399Y116183D01*
X141581Y116305D01*
X141626Y116372D01*
X141689Y116424D01*
X141791Y116618D01*
X141913Y116801D01*
X141927Y116871D01*
X141943Y116890D01*
X141957Y116934D01*
X141966Y116952D01*
X141968Y116968D01*
X142013Y117035D01*
X142017Y117056D01*
X142083Y117067D01*
X142190Y117076D01*
X167811D01*
X167915Y117067D01*
X167971Y117058D01*
X167971Y117055D01*
X168018Y116985D01*
X168043Y116904D01*
X168182Y116738D01*
X168301Y116558D01*
X168371Y116511D01*
X168425Y116446D01*
X168617Y116346D01*
X168797Y116225D01*
X168879Y116208D01*
X168954Y116169D01*
X169169Y116149D01*
X169381Y116107D01*
X169464Y116123D01*
X169548Y116115D01*
X169755Y116180D01*
X169967Y116221D01*
X170037Y116268D01*
X170118Y116293D01*
X170284Y116432D01*
X170464Y116551D01*
X170511Y116621D01*
X170515Y116624D01*
X171000D01*
Y119750D01*
Y122876D01*
X170241D01*
X170133Y122966D01*
X170055Y122991D01*
X169987Y123036D01*
X169773Y123080D01*
X169563Y123145D01*
X169482Y123138D01*
X169403Y123154D01*
X169187Y123112D01*
X168969Y123093D01*
X168897Y123055D01*
X168817Y123040D01*
X168634Y122918D01*
X168553Y122876D01*
X168374D01*
Y122746D01*
X168320Y122710D01*
X168197Y122528D01*
X168057Y122360D01*
X168032Y122282D01*
X167987Y122214D01*
X167983Y122194D01*
X167917Y122183D01*
X167810Y122174D01*
X167055D01*
X166866Y122195D01*
X166614Y122243D01*
X166375Y122309D01*
X166147Y122393D01*
X165925Y122495D01*
X165710Y122617D01*
X165498Y122761D01*
X165349Y122881D01*
X159049Y129181D01*
Y152500D01*
X158855Y153475D01*
X158302Y154302D01*
X157616Y154989D01*
X157807Y155451D01*
X168025D01*
X168192Y155443D01*
X168641Y155395D01*
X169055Y155325D01*
X169447Y155233D01*
X169637Y155176D01*
X169651Y155175D01*
X169663Y155169D01*
X169681Y155168D01*
X169799Y155119D01*
X171000Y154961D01*
X172201Y155119D01*
X173320Y155582D01*
X174281Y156320D01*
X175018Y157281D01*
X175482Y158400D01*
X175640Y159600D01*
X175482Y160801D01*
X175018Y161920D01*
X174281Y162881D01*
X173320Y163619D01*
X172201Y164082D01*
X171000Y164240D01*
X169799Y164082D01*
X168680Y163619D01*
X167719Y162881D01*
X166982Y161920D01*
X166518Y160801D01*
X166507Y160717D01*
X166472Y160601D01*
X166463Y160580D01*
X166445Y160573D01*
X166375Y160554D01*
X166337Y160549D01*
X157806D01*
X147817Y170538D01*
X148008Y171000D01*
X151395D01*
X153198Y169198D01*
X154025Y168645D01*
X155000Y168451D01*
X179444D01*
X184201Y163694D01*
Y146750D01*
X184395Y145774D01*
X184948Y144948D01*
X197009Y132887D01*
X197836Y132334D01*
X198811Y132140D01*
X207956D01*
X208011Y132133D01*
X208154Y132102D01*
X208295Y132059D01*
X208436Y132002D01*
X208579Y131930D01*
X208726Y131840D01*
X208877Y131731D01*
X209034Y131601D01*
X209176Y131464D01*
X209219Y131408D01*
X210180Y130671D01*
X211299Y130207D01*
X212500Y130049D01*
X213701Y130207D01*
X214820Y130671D01*
X215781Y131408D01*
X216518Y132369D01*
X216982Y133488D01*
X217140Y134689D01*
X216982Y135890D01*
X216518Y137009D01*
X215781Y137970D01*
X214820Y138707D01*
X213701Y139171D01*
X212500Y139329D01*
X211299Y139171D01*
X210180Y138707D01*
X209219Y137970D01*
X209176Y137914D01*
X209034Y137777D01*
X208877Y137647D01*
X208726Y137538D01*
X208579Y137448D01*
X208436Y137376D01*
X208295Y137319D01*
X208154Y137276D01*
X208011Y137245D01*
X207956Y137238D01*
X199867D01*
X189299Y147806D01*
Y164750D01*
X189105Y165726D01*
X188552Y166552D01*
X182302Y172802D01*
X181475Y173355D01*
X180500Y173549D01*
X163500D01*
Y177451D01*
X196444D01*
X209951Y163944D01*
Y151044D01*
X209944Y150989D01*
X209913Y150846D01*
X209870Y150705D01*
X209813Y150564D01*
X209741Y150421D01*
X209651Y150274D01*
X209542Y150122D01*
X209412Y149966D01*
X209275Y149824D01*
X209219Y149781D01*
X208482Y148820D01*
X208018Y147701D01*
X207860Y146500D01*
X208018Y145299D01*
X208482Y144180D01*
X209219Y143219D01*
X210180Y142482D01*
X211299Y142018D01*
X212500Y141860D01*
X213701Y142018D01*
X214820Y142482D01*
X215781Y143219D01*
X216518Y144180D01*
X216982Y145299D01*
X217140Y146500D01*
X216982Y147701D01*
X216518Y148820D01*
X215781Y149781D01*
X215725Y149824D01*
X215588Y149966D01*
X215458Y150122D01*
X215349Y150274D01*
X215259Y150421D01*
X215187Y150564D01*
X215130Y150705D01*
X215087Y150846D01*
X215056Y150989D01*
X215049Y151044D01*
Y165000D01*
X214855Y165975D01*
X214302Y166802D01*
X199302Y181802D01*
X198476Y182355D01*
X197500Y182549D01*
X163500D01*
Y192651D01*
X179456D01*
X179511Y192644D01*
X179654Y192613D01*
X179795Y192570D01*
X179936Y192513D01*
X180079Y192441D01*
X180226Y192351D01*
X180377Y192242D01*
X180534Y192112D01*
X180676Y191975D01*
X180719Y191919D01*
X181680Y191182D01*
X182799Y190718D01*
X184000Y190560D01*
X185201Y190718D01*
X186320Y191182D01*
X187281Y191919D01*
X188018Y192880D01*
X188482Y193999D01*
X188640Y195200D01*
X188482Y196401D01*
X188018Y197520D01*
X187281Y198481D01*
X186320Y199218D01*
X185201Y199682D01*
X184301Y199800D01*
X184334Y200300D01*
X188600D01*
Y209500D01*
X183767D01*
X183740Y209505D01*
X183713Y209500D01*
X183128D01*
X182994Y209593D01*
X182450Y210055D01*
X170702Y221802D01*
X169876Y222355D01*
X168900Y222549D01*
X163500D01*
Y231958D01*
X231958D01*
Y76721D01*
D02*
G37*
G36*
X67821Y181864D02*
X68041Y181683D01*
X68268Y181523D01*
X68501Y181384D01*
X68742Y181267D01*
X68989Y181171D01*
X69244Y181096D01*
X69506Y181043D01*
X69774Y181011D01*
X70050Y181000D01*
Y179000D01*
X69774Y178989D01*
X69506Y178957D01*
X69244Y178904D01*
X68989Y178829D01*
X68742Y178733D01*
X68501Y178616D01*
X68268Y178477D01*
X68041Y178317D01*
X67821Y178136D01*
X67609Y177933D01*
Y182067D01*
X67821Y181864D01*
D02*
G37*
G36*
X63391Y177933D02*
X63179Y178136D01*
X62959Y178317D01*
X62732Y178477D01*
X62499Y178616D01*
X62258Y178733D01*
X62011Y178829D01*
X61756Y178904D01*
X61494Y178957D01*
X61226Y178989D01*
X60950Y179000D01*
Y181000D01*
X61226Y181011D01*
X61494Y181043D01*
X61756Y181096D01*
X62011Y181171D01*
X62258Y181267D01*
X62499Y181384D01*
X62732Y181523D01*
X62959Y181683D01*
X63179Y181864D01*
X63391Y182067D01*
Y177933D01*
D02*
G37*
G36*
X52821Y181864D02*
X53041Y181683D01*
X53268Y181523D01*
X53501Y181384D01*
X53742Y181267D01*
X53989Y181171D01*
X54244Y181096D01*
X54506Y181043D01*
X54774Y181011D01*
X55050Y181000D01*
Y179000D01*
X54774Y178989D01*
X54506Y178957D01*
X54244Y178904D01*
X53989Y178829D01*
X53742Y178733D01*
X53501Y178616D01*
X53268Y178477D01*
X53041Y178317D01*
X52821Y178136D01*
X52609Y177933D01*
Y182067D01*
X52821Y181864D01*
D02*
G37*
G36*
X48391Y177933D02*
X48179Y178136D01*
X47959Y178317D01*
X47732Y178477D01*
X47499Y178616D01*
X47258Y178733D01*
X47010Y178829D01*
X46756Y178904D01*
X46494Y178957D01*
X46226Y178989D01*
X45950Y179000D01*
Y181000D01*
X46226Y181011D01*
X46494Y181043D01*
X46756Y181096D01*
X47010Y181171D01*
X47258Y181267D01*
X47499Y181384D01*
X47732Y181523D01*
X47959Y181683D01*
X48179Y181864D01*
X48391Y182067D01*
Y177933D01*
D02*
G37*
G36*
X157073Y182033D02*
X157330Y181816D01*
X157591Y181625D01*
X157856Y181459D01*
X158126Y181319D01*
X158400Y181204D01*
X158679Y181115D01*
X158963Y181051D01*
X159250Y181013D01*
X159542Y181000D01*
Y179000D01*
X159250Y178987D01*
X158963Y178949D01*
X158679Y178885D01*
X158400Y178796D01*
X158126Y178681D01*
X157856Y178541D01*
X157591Y178375D01*
X157330Y178184D01*
X157073Y177967D01*
X156821Y177725D01*
Y182275D01*
X157073Y182033D01*
D02*
G37*
G36*
X127073D02*
X127330Y181816D01*
X127591Y181625D01*
X127856Y181459D01*
X128126Y181319D01*
X128401Y181204D01*
X128679Y181115D01*
X128963Y181051D01*
X129250Y181013D01*
X129542Y181000D01*
Y179000D01*
X129250Y178987D01*
X128963Y178949D01*
X128679Y178885D01*
X128401Y178796D01*
X128126Y178681D01*
X127856Y178541D01*
X127591Y178375D01*
X127330Y178184D01*
X127073Y177967D01*
X126821Y177725D01*
Y182275D01*
X127073Y182033D01*
D02*
G37*
G36*
X82179Y177725D02*
X81927Y177967D01*
X81670Y178184D01*
X81409Y178375D01*
X81144Y178541D01*
X80874Y178681D01*
X80599Y178796D01*
X80321Y178885D01*
X80037Y178949D01*
X79750Y178987D01*
X79458Y179000D01*
Y181000D01*
X79750Y181013D01*
X80037Y181051D01*
X80321Y181115D01*
X80599Y181204D01*
X80874Y181319D01*
X81144Y181459D01*
X81409Y181625D01*
X81670Y181816D01*
X81927Y182033D01*
X82179Y182275D01*
Y177725D01*
D02*
G37*
G36*
X101014Y181520D02*
X101057Y181138D01*
X101127Y180767D01*
X101226Y180408D01*
X101354Y180061D01*
X101509Y179725D01*
X101693Y179401D01*
X101905Y179089D01*
X102146Y178789D01*
X102414Y178500D01*
Y175672D01*
X102146Y175920D01*
X101905Y176101D01*
X101693Y176213D01*
X101509Y176257D01*
X101354Y176232D01*
X101226Y176139D01*
X101127Y175979D01*
X101057Y175749D01*
X101014Y175452D01*
X101000Y175086D01*
X99000Y179500D01*
X101000Y181914D01*
X101014Y181520D01*
D02*
G37*
G36*
X23914Y173654D02*
X23717Y173438D01*
X23540Y173208D01*
X23385Y172962D01*
X23251Y172702D01*
X23138Y172427D01*
X23047Y172137D01*
X22976Y171832D01*
X22927Y171512D01*
X22899Y171177D01*
X22892Y170828D01*
X19674Y174045D01*
X20024Y174052D01*
X20358Y174080D01*
X20678Y174130D01*
X20983Y174200D01*
X21273Y174292D01*
X21549Y174405D01*
X21809Y174539D01*
X22054Y174694D01*
X22285Y174870D01*
X22500Y175068D01*
X23914Y173654D01*
D02*
G37*
G36*
X39391Y168222D02*
X39174Y167965D01*
X38983Y167704D01*
X38817Y167439D01*
X38677Y167169D01*
X38562Y166895D01*
X38473Y166616D01*
X38409Y166333D01*
X38371Y166045D01*
X38358Y165753D01*
X36358D01*
X36345Y166045D01*
X36307Y166333D01*
X36244Y166616D01*
X36154Y166895D01*
X36040Y167169D01*
X35899Y167439D01*
X35734Y167704D01*
X35542Y167965D01*
X35326Y168222D01*
X35083Y168474D01*
X39633D01*
X39391Y168222D01*
D02*
G37*
G36*
X21675D02*
X21458Y167965D01*
X21267Y167704D01*
X21101Y167439D01*
X20960Y167169D01*
X20846Y166895D01*
X20756Y166616D01*
X20693Y166333D01*
X20654Y166045D01*
X20642Y165753D01*
X18642D01*
X18629Y166045D01*
X18591Y166333D01*
X18527Y166616D01*
X18438Y166895D01*
X18323Y167169D01*
X18183Y167439D01*
X18017Y167704D01*
X17826Y167965D01*
X17609Y168222D01*
X17367Y168474D01*
X21917D01*
X21675Y168222D01*
D02*
G37*
G36*
X101012Y164010D02*
X101047Y163732D01*
X101105Y163460D01*
X101187Y163193D01*
X101293Y162932D01*
X101421Y162677D01*
X101573Y162428D01*
X101749Y162184D01*
X101948Y161946D01*
X102170Y161714D01*
X97830D01*
X98052Y161946D01*
X98251Y162184D01*
X98427Y162428D01*
X98579Y162677D01*
X98707Y162932D01*
X98813Y163193D01*
X98895Y163460D01*
X98953Y163732D01*
X98988Y164010D01*
X99000Y164294D01*
X101000D01*
X101012Y164010D01*
D02*
G37*
G36*
X108198Y167698D02*
X109025Y167145D01*
X110000Y166951D01*
X119193D01*
X119384Y166489D01*
X109239Y156344D01*
X103377D01*
X103130Y156844D01*
X103581Y157432D01*
X103995Y158430D01*
X104070Y159000D01*
X95930D01*
X95941Y158921D01*
X95467Y158687D01*
X94049Y160106D01*
Y171000D01*
X97451D01*
Y164044D01*
X97444Y163989D01*
X97413Y163846D01*
X97370Y163705D01*
X97313Y163564D01*
X97241Y163421D01*
X97151Y163274D01*
X97042Y163122D01*
X96912Y162966D01*
X96725Y162771D01*
X96574Y162533D01*
X96417Y162299D01*
X96414Y162282D01*
X96405Y162268D01*
X96356Y161990D01*
X96301Y161714D01*
X96304Y161697D01*
X96301Y161680D01*
X96358Y161422D01*
X96005Y160570D01*
X95930Y160000D01*
X104070D01*
X103995Y160570D01*
X103642Y161422D01*
X103699Y161680D01*
X103696Y161697D01*
X103699Y161714D01*
X103644Y161990D01*
X103595Y162268D01*
X103586Y162282D01*
X103583Y162299D01*
X103426Y162533D01*
X103275Y162771D01*
X103088Y162966D01*
X102958Y163122D01*
X102849Y163274D01*
X102759Y163421D01*
X102687Y163564D01*
X102630Y163705D01*
X102587Y163846D01*
X102556Y163989D01*
X102549Y164044D01*
Y171000D01*
X104895D01*
X108198Y167698D01*
D02*
G37*
G36*
X170069Y156643D02*
X169839Y156711D01*
X169358Y156825D01*
X168849Y156911D01*
X168311Y156968D01*
X167746Y156996D01*
X167453Y157000D01*
X166099Y159000D01*
X166401Y159013D01*
X166677Y159053D01*
X166929Y159118D01*
X167155Y159211D01*
X167356Y159329D01*
X167532Y159474D01*
X167683Y159645D01*
X167808Y159842D01*
X167909Y160066D01*
X167984Y160316D01*
X170069Y156643D01*
D02*
G37*
G36*
X130538Y157387D02*
X133170D01*
X132948Y157154D01*
X132749Y156916D01*
X132573Y156673D01*
X132421Y156423D01*
X132292Y156168D01*
X132187Y155907D01*
X132105Y155641D01*
X132047Y155368D01*
X132012Y155090D01*
X132000Y154806D01*
X130000D01*
X129988Y155090D01*
X129953Y155368D01*
X129929Y155482D01*
X129601Y155186D01*
X127588Y156002D01*
X127788Y156222D01*
X127956Y156447D01*
X128092Y156677D01*
X128194Y156913D01*
X128264Y157154D01*
X128302Y157400D01*
X128307Y157652D01*
X128279Y157909D01*
X128218Y158172D01*
X128125Y158440D01*
X130538Y157387D01*
D02*
G37*
G36*
X61948Y157054D02*
X61749Y156816D01*
X61573Y156572D01*
X61421Y156323D01*
X61292Y156068D01*
X61187Y155807D01*
X61105Y155540D01*
X61047Y155268D01*
X61012Y154990D01*
X61000Y154706D01*
X59000D01*
X58988Y154990D01*
X58953Y155268D01*
X58895Y155540D01*
X58813Y155807D01*
X58707Y156068D01*
X58579Y156323D01*
X58427Y156572D01*
X58251Y156816D01*
X58052Y157054D01*
X57830Y157286D01*
X62170D01*
X61948Y157054D01*
D02*
G37*
G36*
X213512Y151010D02*
X213547Y150732D01*
X213605Y150460D01*
X213687Y150193D01*
X213792Y149932D01*
X213921Y149677D01*
X214073Y149428D01*
X214249Y149184D01*
X214448Y148946D01*
X214670Y148714D01*
X210330D01*
X210552Y148946D01*
X210751Y149184D01*
X210927Y149428D01*
X211079Y149677D01*
X211208Y149932D01*
X211313Y150193D01*
X211395Y150460D01*
X211453Y150732D01*
X211488Y151010D01*
X211500Y151294D01*
X213500D01*
X213512Y151010D01*
D02*
G37*
G36*
X38371Y149955D02*
X38409Y149667D01*
X38473Y149384D01*
X38562Y149105D01*
X38677Y148831D01*
X38817Y148561D01*
X38983Y148295D01*
X39174Y148035D01*
X39391Y147778D01*
X39633Y147526D01*
X35083D01*
X35326Y147778D01*
X35542Y148035D01*
X35734Y148295D01*
X35899Y148561D01*
X36040Y148831D01*
X36154Y149105D01*
X36244Y149384D01*
X36307Y149667D01*
X36345Y149955D01*
X36358Y150247D01*
X38358D01*
X38371Y149955D01*
D02*
G37*
G36*
X20654D02*
X20693Y149667D01*
X20756Y149384D01*
X20846Y149105D01*
X20960Y148831D01*
X21101Y148561D01*
X21267Y148295D01*
X21458Y148035D01*
X21675Y147778D01*
X21917Y147526D01*
X17367D01*
X17609Y147778D01*
X17826Y148035D01*
X18017Y148295D01*
X18183Y148561D01*
X18323Y148831D01*
X18438Y149105D01*
X18527Y149384D01*
X18591Y149667D01*
X18629Y149955D01*
X18642Y150247D01*
X20642D01*
X20654Y149955D01*
D02*
G37*
G36*
X132012Y149010D02*
X132047Y148732D01*
X132105Y148460D01*
X132187Y148193D01*
X132292Y147932D01*
X132421Y147677D01*
X132573Y147428D01*
X132749Y147184D01*
X132948Y146946D01*
X133170Y146714D01*
X128830D01*
X129052Y146946D01*
X129251Y147184D01*
X129427Y147428D01*
X129579Y147677D01*
X129708Y147932D01*
X129813Y148193D01*
X129895Y148460D01*
X129953Y148732D01*
X129988Y149010D01*
X130000Y149294D01*
X132000D01*
X132012Y149010D01*
D02*
G37*
G36*
X61012Y149510D02*
X61047Y149232D01*
X61105Y148960D01*
X61187Y148693D01*
X61292Y148432D01*
X61421Y148177D01*
X61573Y147928D01*
X61749Y147684D01*
X61948Y147446D01*
X62170Y147214D01*
X57858D01*
X57716Y142904D01*
X57492Y143132D01*
X57262Y143336D01*
X57025Y143515D01*
X56781Y143671D01*
X56530Y143803D01*
X56273Y143911D01*
X56008Y143994D01*
X55737Y144054D01*
X55458Y144090D01*
X55173Y144102D01*
X55243Y146102D01*
X55525Y146114D01*
X55803Y146148D01*
X56076Y146205D01*
X56344Y146285D01*
X56608Y146387D01*
X56868Y146513D01*
X57122Y146661D01*
X57372Y146832D01*
X57618Y147025D01*
X57844Y147228D01*
X58052Y147446D01*
X58251Y147684D01*
X58427Y147928D01*
X58579Y148177D01*
X58707Y148432D01*
X58813Y148693D01*
X58895Y148960D01*
X58953Y149232D01*
X58988Y149510D01*
X59000Y149794D01*
X61000D01*
X61012Y149510D01*
D02*
G37*
G36*
X39992Y147158D02*
X40241Y146936D01*
X40495Y146741D01*
X40755Y146572D01*
X41020Y146428D01*
X41291Y146311D01*
X41568Y146220D01*
X41850Y146154D01*
X42138Y146115D01*
X42432Y146102D01*
X42366Y144102D01*
X42075Y144090D01*
X41788Y144053D01*
X41504Y143990D01*
X41223Y143903D01*
X40946Y143791D01*
X40672Y143654D01*
X40400Y143492D01*
X40133Y143306D01*
X39868Y143094D01*
X39606Y142858D01*
X39750Y147406D01*
X39992Y147158D01*
D02*
G37*
G36*
X22899Y144823D02*
X22927Y144488D01*
X22976Y144168D01*
X23047Y143863D01*
X23138Y143573D01*
X23251Y143298D01*
X23385Y143038D01*
X23540Y142792D01*
X23717Y142562D01*
X23914Y142346D01*
X22500Y140932D01*
X22285Y141130D01*
X22054Y141306D01*
X21809Y141461D01*
X21549Y141595D01*
X21273Y141708D01*
X20983Y141800D01*
X20678Y141870D01*
X20358Y141920D01*
X20024Y141948D01*
X19674Y141955D01*
X22892Y145172D01*
X22899Y144823D01*
D02*
G37*
G36*
X103107Y144648D02*
X103135Y144339D01*
X103183Y144042D01*
X103252Y143758D01*
X103341Y143487D01*
X103451Y143228D01*
X103582Y142982D01*
X103733Y142747D01*
X103905Y142526D01*
X104097Y142317D01*
X102683Y140903D01*
X102474Y141095D01*
X102252Y141267D01*
X102018Y141418D01*
X101772Y141549D01*
X101513Y141659D01*
X101242Y141748D01*
X100958Y141817D01*
X100661Y141866D01*
X100352Y141893D01*
X100031Y141900D01*
X103100Y144969D01*
X103107Y144648D01*
D02*
G37*
G36*
X173134Y142215D02*
X172949Y141959D01*
X172785Y141700D01*
X172643Y141438D01*
X172523Y141173D01*
X172425Y140905D01*
X172348Y140634D01*
X172294Y140360D01*
X172261Y140083D01*
X172250Y139803D01*
X170250Y139632D01*
X170238Y139919D01*
X170201Y140198D01*
X170139Y140468D01*
X170053Y140730D01*
X169941Y140982D01*
X169806Y141227D01*
X169645Y141463D01*
X169460Y141690D01*
X169250Y141908D01*
X169016Y142118D01*
X173342Y142468D01*
X173134Y142215D01*
D02*
G37*
G36*
X210286Y132519D02*
X210054Y132741D01*
X209816Y132940D01*
X209572Y133116D01*
X209323Y133268D01*
X209068Y133396D01*
X208807Y133502D01*
X208540Y133584D01*
X208268Y133642D01*
X207990Y133677D01*
X207706Y133689D01*
Y135689D01*
X207990Y135701D01*
X208268Y135736D01*
X208540Y135794D01*
X208807Y135876D01*
X209068Y135982D01*
X209323Y136110D01*
X209572Y136262D01*
X209816Y136438D01*
X210054Y136637D01*
X210286Y136859D01*
Y132519D01*
D02*
G37*
G36*
X172256Y132791D02*
X172272Y132581D01*
X172299Y132386D01*
X172338Y132206D01*
X172387Y132040D01*
X172448Y131889D01*
X172519Y131753D01*
X172602Y131632D01*
X172695Y131525D01*
X172799Y131433D01*
X169844Y131083D01*
X169921Y131190D01*
X169990Y131311D01*
X170051Y131445D01*
X170104Y131591D01*
X170148Y131751D01*
X170185Y131924D01*
X170213Y132109D01*
X170246Y132520D01*
X170250Y132745D01*
X172250Y133015D01*
X172256Y132791D01*
D02*
G37*
G36*
X139505Y132428D02*
X139544Y132020D01*
X139578Y131836D01*
X139622Y131666D01*
X139676Y131509D01*
X139739Y131366D01*
X139812Y131237D01*
X139895Y131121D01*
X139988Y131018D01*
X137012D01*
X137105Y131121D01*
X137188Y131237D01*
X137261Y131366D01*
X137324Y131509D01*
X137378Y131666D01*
X137422Y131836D01*
X137456Y132020D01*
X137480Y132217D01*
X137495Y132428D01*
X137500Y132652D01*
X139500D01*
X139505Y132428D01*
D02*
G37*
G36*
X173121Y131145D02*
X173237Y131062D01*
X173366Y130989D01*
X173509Y130926D01*
X173666Y130872D01*
X173836Y130828D01*
X174020Y130794D01*
X174217Y130770D01*
X174427Y130755D01*
X174652Y130750D01*
Y128750D01*
X174427Y128745D01*
X174020Y128706D01*
X173836Y128672D01*
X173666Y128628D01*
X173509Y128574D01*
X173366Y128511D01*
X173237Y128438D01*
X173121Y128355D01*
X173018Y128262D01*
Y131238D01*
X173121Y131145D01*
D02*
G37*
G36*
X25982Y128012D02*
X25879Y128105D01*
X25763Y128188D01*
X25634Y128261D01*
X25491Y128324D01*
X25334Y128378D01*
X25164Y128422D01*
X24980Y128456D01*
X24783Y128481D01*
X24573Y128495D01*
X24348Y128500D01*
Y130500D01*
X24573Y130505D01*
X24980Y130544D01*
X25164Y130578D01*
X25334Y130622D01*
X25491Y130676D01*
X25634Y130739D01*
X25763Y130812D01*
X25879Y130895D01*
X25982Y130988D01*
Y128012D01*
D02*
G37*
G36*
X59969Y125900D02*
X59648Y125893D01*
X59339Y125865D01*
X59042Y125817D01*
X58758Y125749D01*
X58487Y125659D01*
X58228Y125549D01*
X57981Y125418D01*
X57748Y125267D01*
X57526Y125095D01*
X57317Y124903D01*
X55903Y126317D01*
X56095Y126526D01*
X56267Y126748D01*
X56418Y126981D01*
X56549Y127228D01*
X56659Y127487D01*
X56748Y127758D01*
X56817Y128042D01*
X56866Y128339D01*
X56893Y128648D01*
X56900Y128969D01*
X59969Y125900D01*
D02*
G37*
G36*
X84500Y121500D02*
X83500Y119086D01*
X83486Y119480D01*
X83443Y119862D01*
X83373Y120233D01*
X83274Y120592D01*
X83147Y120939D01*
X82991Y121275D01*
X82807Y121599D01*
X82595Y121911D01*
X82354Y122211D01*
X82086Y122500D01*
X82336Y125078D01*
X82604Y124825D01*
X82845Y124629D01*
X83057Y124492D01*
X83241Y124413D01*
X83397Y124393D01*
X83524Y124431D01*
X83623Y124527D01*
X83693Y124681D01*
X83736Y124893D01*
X83750Y125164D01*
X84500Y121500D01*
D02*
G37*
G36*
X101948Y126554D02*
X101749Y126316D01*
X101573Y126072D01*
X101421Y125823D01*
X101293Y125568D01*
X101187Y125307D01*
X101105Y125040D01*
X101047Y124768D01*
X101012Y124490D01*
X101000Y124206D01*
X99000D01*
X98988Y124490D01*
X98953Y124768D01*
X98895Y125040D01*
X98813Y125307D01*
X98707Y125568D01*
X98579Y125823D01*
X98427Y126072D01*
X98251Y126316D01*
X98052Y126554D01*
X97830Y126786D01*
X102170D01*
X101948Y126554D01*
D02*
G37*
G36*
X141982Y123012D02*
X141879Y123105D01*
X141763Y123188D01*
X141634Y123261D01*
X141491Y123324D01*
X141334Y123378D01*
X141164Y123422D01*
X140980Y123456D01*
X140783Y123480D01*
X140573Y123495D01*
X140348Y123500D01*
Y125500D01*
X140573Y125505D01*
X140980Y125544D01*
X141164Y125578D01*
X141334Y125622D01*
X141491Y125676D01*
X141634Y125739D01*
X141763Y125812D01*
X141879Y125895D01*
X141982Y125988D01*
Y123012D01*
D02*
G37*
G36*
X34121Y125895D02*
X34237Y125812D01*
X34366Y125739D01*
X34509Y125676D01*
X34666Y125622D01*
X34836Y125578D01*
X35020Y125544D01*
X35217Y125520D01*
X35427Y125505D01*
X35652Y125500D01*
Y123500D01*
X35427Y123495D01*
X35020Y123456D01*
X34836Y123422D01*
X34666Y123378D01*
X34509Y123324D01*
X34366Y123261D01*
X34237Y123188D01*
X34121Y123105D01*
X34018Y123012D01*
Y125988D01*
X34121Y125895D01*
D02*
G37*
G36*
X177895Y123129D02*
X177812Y123013D01*
X177739Y122884D01*
X177676Y122741D01*
X177622Y122584D01*
X177578Y122414D01*
X177544Y122230D01*
X177520Y122033D01*
X177505Y121823D01*
X177500Y121598D01*
X175500D01*
X175495Y121823D01*
X175456Y122230D01*
X175422Y122414D01*
X175378Y122584D01*
X175324Y122741D01*
X175261Y122884D01*
X175188Y123013D01*
X175105Y123129D01*
X175012Y123232D01*
X177988D01*
X177895Y123129D01*
D02*
G37*
G36*
X8514Y126020D02*
X8557Y125638D01*
X8627Y125267D01*
X8726Y124908D01*
X8854Y124561D01*
X9009Y124225D01*
X9193Y123901D01*
X9405Y123589D01*
X9646Y123289D01*
X9914Y123000D01*
Y120172D01*
X9646Y120420D01*
X9405Y120601D01*
X9193Y120713D01*
X9009Y120757D01*
X8854Y120732D01*
X8726Y120640D01*
X8627Y120478D01*
X8557Y120249D01*
X8514Y119952D01*
X8500Y119586D01*
X6500Y124000D01*
X8500Y126414D01*
X8514Y126020D01*
D02*
G37*
G36*
X164289Y121771D02*
X164589Y121530D01*
X164901Y121318D01*
X165225Y121134D01*
X165561Y120978D01*
X165908Y120851D01*
X166267Y120752D01*
X166638Y120682D01*
X167020Y120639D01*
X167402Y120625D01*
X167768Y120635D01*
X168109Y120665D01*
X168411Y120715D01*
X168672Y120785D01*
X168894Y120875D01*
X169075Y120985D01*
X169216Y121115D01*
X169317Y121265D01*
X169377Y121435D01*
X169398Y121625D01*
X169386Y117636D01*
X169366Y117824D01*
X169306Y117992D01*
X169206Y118140D01*
X169066Y118269D01*
X168886Y118378D01*
X168666Y118467D01*
X168406Y118536D01*
X168106Y118585D01*
X167766Y118615D01*
X167386Y118625D01*
Y120602D01*
X165000Y118625D01*
X160586Y120625D01*
X160952Y120639D01*
X161249Y120682D01*
X161478Y120752D01*
X161639Y120851D01*
X161732Y120978D01*
X161757Y121134D01*
X161713Y121318D01*
X161601Y121530D01*
X161420Y121771D01*
X161172Y122039D01*
X164000D01*
X164289Y121771D01*
D02*
G37*
G36*
X140634Y121426D02*
X140694Y121258D01*
X140794Y121110D01*
X140934Y120981D01*
X141114Y120872D01*
X141334Y120783D01*
X141594Y120714D01*
X141894Y120665D01*
X142234Y120635D01*
X142614Y120625D01*
Y118625D01*
X142232Y118615D01*
X141891Y118585D01*
X141589Y118535D01*
X141328Y118465D01*
X141106Y118375D01*
X140925Y118265D01*
X140784Y118135D01*
X140683Y117985D01*
X140623Y117815D01*
X140602Y117625D01*
X140614Y121614D01*
X140634Y121426D01*
D02*
G37*
G36*
X25398Y117500D02*
X25378Y117690D01*
X25317Y117860D01*
X25217Y118010D01*
X25076Y118140D01*
X24895Y118250D01*
X24674Y118340D01*
X24412Y118410D01*
X24110Y118460D01*
X23768Y118490D01*
X23386Y118500D01*
Y120500D01*
X23768Y120510D01*
X24110Y120540D01*
X24412Y120590D01*
X24674Y120660D01*
X24895Y120750D01*
X25076Y120860D01*
X25217Y120990D01*
X25317Y121140D01*
X25378Y121310D01*
X25398Y121500D01*
Y117500D01*
D02*
G37*
G36*
X140310Y117366D02*
X140140Y117306D01*
X139990Y117206D01*
X139860Y117066D01*
X139750Y116886D01*
X139660Y116666D01*
X139590Y116406D01*
X139540Y116106D01*
X139510Y115766D01*
X139500Y115386D01*
X137500D01*
X137490Y115766D01*
X137460Y116106D01*
X137410Y116406D01*
X137340Y116666D01*
X137250Y116886D01*
X137140Y117066D01*
X137010Y117206D01*
X136860Y117306D01*
X136690Y117366D01*
X136500Y117386D01*
X140500D01*
X140310Y117366D01*
D02*
G37*
G36*
X221026Y111905D02*
X221248Y111733D01*
X221481Y111582D01*
X221728Y111451D01*
X221987Y111341D01*
X222258Y111251D01*
X222542Y111183D01*
X222839Y111135D01*
X223148Y111107D01*
X223469Y111100D01*
X220400Y108031D01*
X220393Y108352D01*
X220366Y108661D01*
X220317Y108958D01*
X220249Y109242D01*
X220159Y109513D01*
X220049Y109772D01*
X219918Y110019D01*
X219767Y110252D01*
X219595Y110474D01*
X219403Y110683D01*
X220817Y112097D01*
X221026Y111905D01*
D02*
G37*
G36*
X177514Y113520D02*
X177557Y113138D01*
X177627Y112767D01*
X177726Y112408D01*
X177854Y112061D01*
X178009Y111725D01*
X178193Y111401D01*
X178405Y111089D01*
X178646Y110789D01*
X178914Y110500D01*
Y107672D01*
X178009Y108563D01*
X177627Y108916D01*
X177557Y108974D01*
X177514Y109002D01*
X177500Y109000D01*
X175500Y111500D01*
X177500Y113914D01*
X177514Y113520D01*
D02*
G37*
G36*
X206786Y105330D02*
X206554Y105552D01*
X206316Y105751D01*
X206072Y105927D01*
X205823Y106079D01*
X205568Y106208D01*
X205307Y106313D01*
X205040Y106395D01*
X204768Y106453D01*
X204490Y106488D01*
X204206Y106500D01*
Y108500D01*
X204490Y108512D01*
X204768Y108547D01*
X205040Y108605D01*
X205307Y108687D01*
X205568Y108792D01*
X205823Y108921D01*
X206072Y109073D01*
X206316Y109249D01*
X206554Y109448D01*
X206786Y109670D01*
Y105330D01*
D02*
G37*
G36*
X139510Y106106D02*
X139540Y105764D01*
X139590Y105462D01*
X139660Y105200D01*
X139750Y104979D01*
X139860Y104798D01*
X139990Y104657D01*
X140140Y104557D01*
X140310Y104496D01*
X140500Y104476D01*
X136500D01*
X136690Y104496D01*
X136860Y104557D01*
X137010Y104657D01*
X137140Y104798D01*
X137250Y104979D01*
X137340Y105200D01*
X137410Y105462D01*
X137460Y105764D01*
X137490Y106106D01*
X137500Y106488D01*
X139500D01*
X139510Y106106D01*
D02*
G37*
G36*
X223469Y104900D02*
X223148Y104893D01*
X222839Y104866D01*
X222542Y104817D01*
X222258Y104748D01*
X221987Y104659D01*
X221728Y104549D01*
X221481Y104418D01*
X221248Y104267D01*
X221026Y104095D01*
X220817Y103903D01*
X219403Y105317D01*
X219595Y105526D01*
X219767Y105747D01*
X219918Y105982D01*
X220049Y106228D01*
X220159Y106487D01*
X220249Y106758D01*
X220317Y107042D01*
X220366Y107339D01*
X220393Y107648D01*
X220400Y107969D01*
X223469Y104900D01*
D02*
G37*
G36*
X116139Y105291D02*
X116354Y105122D01*
X116581Y104974D01*
X116818Y104845D01*
X117066Y104737D01*
X117325Y104649D01*
X117595Y104582D01*
X117876Y104534D01*
X118167Y104507D01*
X118470Y104500D01*
X115500Y101530D01*
X115493Y101833D01*
X115466Y102124D01*
X115418Y102405D01*
X115351Y102675D01*
X115263Y102934D01*
X115155Y103182D01*
X115026Y103419D01*
X114878Y103646D01*
X114709Y103861D01*
X114520Y104066D01*
X115934Y105480D01*
X116139Y105291D01*
D02*
G37*
G36*
X172511Y101274D02*
X172543Y101006D01*
X172596Y100744D01*
X172671Y100489D01*
X172767Y100242D01*
X172884Y100001D01*
X173023Y99768D01*
X173183Y99541D01*
X173364Y99321D01*
X173567Y99109D01*
X169433D01*
X169636Y99321D01*
X169817Y99541D01*
X169977Y99768D01*
X170116Y100001D01*
X170233Y100242D01*
X170329Y100489D01*
X170404Y100744D01*
X170457Y101006D01*
X170489Y101274D01*
X170500Y101550D01*
X172500D01*
X172511Y101274D01*
D02*
G37*
G36*
X130391Y99139D02*
X130204Y98913D01*
X130039Y98681D01*
X129896Y98442D01*
X129775Y98197D01*
X129676Y97945D01*
X129599Y97687D01*
X129544Y97421D01*
X129511Y97150D01*
X129500Y96872D01*
X127500D01*
X127489Y97150D01*
X127456Y97421D01*
X127401Y97687D01*
X127324Y97945D01*
X127225Y98197D01*
X127104Y98442D01*
X126961Y98681D01*
X126796Y98913D01*
X126609Y99139D01*
X126400Y99358D01*
X130600D01*
X130391Y99139D01*
D02*
G37*
G36*
X107613Y99358D02*
X110600D01*
X110391Y99139D01*
X110204Y98913D01*
X110039Y98681D01*
X109896Y98442D01*
X109775Y98197D01*
X109676Y97945D01*
X109599Y97687D01*
X109544Y97421D01*
X109511Y97150D01*
X109500Y96872D01*
X107500D01*
X107489Y97150D01*
X107456Y97421D01*
X107401Y97687D01*
X107324Y97945D01*
X107225Y98197D01*
X107174Y98300D01*
X107066Y98263D01*
X106818Y98155D01*
X106581Y98026D01*
X106354Y97878D01*
X106139Y97709D01*
X105934Y97520D01*
X104520Y98934D01*
X104709Y99139D01*
X104878Y99354D01*
X105026Y99581D01*
X105155Y99818D01*
X105263Y100066D01*
X105351Y100325D01*
X105418Y100595D01*
X105466Y100876D01*
X105493Y101167D01*
X105500Y101470D01*
X107613Y99358D01*
D02*
G37*
G36*
X89026Y100405D02*
X89248Y100233D01*
X89482Y100082D01*
X89728Y99951D01*
X89987Y99841D01*
X90258Y99752D01*
X90542Y99683D01*
X90839Y99634D01*
X91148Y99607D01*
X91469Y99600D01*
X88400Y96531D01*
X88393Y96852D01*
X88366Y97161D01*
X88317Y97458D01*
X88248Y97742D01*
X88159Y98013D01*
X88049Y98272D01*
X87918Y98519D01*
X87767Y98752D01*
X87595Y98974D01*
X87403Y99183D01*
X88817Y100597D01*
X89026Y100405D01*
D02*
G37*
G36*
X93946Y98448D02*
X94184Y98249D01*
X94428Y98073D01*
X94677Y97921D01*
X94932Y97793D01*
X95193Y97687D01*
X95460Y97605D01*
X95732Y97547D01*
X96010Y97512D01*
X96294Y97500D01*
Y95500D01*
X96010Y95488D01*
X95732Y95453D01*
X95460Y95395D01*
X95193Y95313D01*
X94932Y95208D01*
X94677Y95079D01*
X94428Y94927D01*
X94184Y94751D01*
X93946Y94552D01*
X93714Y94330D01*
Y98670D01*
X93946Y98448D01*
D02*
G37*
G36*
X24786Y88330D02*
X24554Y88552D01*
X24316Y88751D01*
X24072Y88927D01*
X23823Y89079D01*
X23568Y89208D01*
X23307Y89313D01*
X23040Y89395D01*
X22768Y89453D01*
X22490Y89488D01*
X22206Y89500D01*
Y91500D01*
X22490Y91512D01*
X22768Y91547D01*
X23040Y91605D01*
X23307Y91687D01*
X23568Y91793D01*
X23823Y91921D01*
X24072Y92073D01*
X24316Y92249D01*
X24554Y92448D01*
X24786Y92670D01*
Y88330D01*
D02*
G37*
G36*
X65398Y88090D02*
X65378Y88280D01*
X65317Y88450D01*
X65217Y88600D01*
X65076Y88730D01*
X64895Y88840D01*
X64674Y88930D01*
X64412Y89000D01*
X64110Y89050D01*
X63768Y89080D01*
X63386Y89090D01*
Y91090D01*
X63768Y91100D01*
X64110Y91130D01*
X64412Y91180D01*
X64674Y91250D01*
X64895Y91340D01*
X65076Y91450D01*
X65217Y91580D01*
X65317Y91730D01*
X65378Y91900D01*
X65398Y92090D01*
Y88090D01*
D02*
G37*
G36*
X29677Y92117D02*
X29882Y91901D01*
X30098Y91711D01*
X30325Y91546D01*
X30562Y91407D01*
X30809Y91293D01*
X31067Y91204D01*
X31335Y91140D01*
X31614Y91102D01*
X31903Y91090D01*
X31621Y89090D01*
X31343Y89079D01*
X31068Y89048D01*
X30793Y88997D01*
X30520Y88924D01*
X30248Y88831D01*
X29977Y88718D01*
X29708Y88583D01*
X29439Y88428D01*
X29173Y88252D01*
X28907Y88056D01*
X29482Y92358D01*
X29677Y92117D01*
D02*
G37*
G36*
X39414Y89090D02*
X39048Y89075D01*
X38751Y89033D01*
X38522Y88962D01*
X38361Y88863D01*
X38268Y88736D01*
X38243Y88580D01*
X38287Y88397D01*
X38399Y88184D01*
X38580Y87944D01*
X38828Y87675D01*
X36000D01*
X35711Y87944D01*
X35411Y88184D01*
X35099Y88397D01*
X34775Y88580D01*
X34439Y88736D01*
X34092Y88863D01*
X33733Y88962D01*
X33362Y89033D01*
X32980Y89075D01*
X32586Y89090D01*
X35000Y91090D01*
X39414Y89090D01*
D02*
G37*
G36*
X63895Y83469D02*
X63812Y83353D01*
X63739Y83223D01*
X63676Y83080D01*
X63622Y82924D01*
X63578Y82754D01*
X63544Y82570D01*
X63520Y82373D01*
X63505Y82162D01*
X63500Y81938D01*
X61500D01*
X61495Y82162D01*
X61456Y82570D01*
X61422Y82754D01*
X61378Y82924D01*
X61324Y83080D01*
X61261Y83223D01*
X61188Y83353D01*
X61105Y83469D01*
X61012Y83571D01*
X63988D01*
X63895Y83469D01*
D02*
G37*
G36*
X69633Y79930D02*
X69656Y79790D01*
X69696Y79646D01*
X69752Y79500D01*
X69825Y79352D01*
X69914Y79200D01*
X70020Y79046D01*
X70142Y78889D01*
X70281Y78730D01*
X70436Y78568D01*
X69021Y77154D01*
X68859Y77309D01*
X68543Y77570D01*
X68389Y77675D01*
X68238Y77765D01*
X68089Y77837D01*
X67943Y77894D01*
X67800Y77934D01*
X67659Y77957D01*
X67521Y77964D01*
X69626Y80068D01*
X69633Y79930D01*
D02*
G37*
G36*
X173310Y79039D02*
X173140Y78979D01*
X172990Y78879D01*
X172860Y78739D01*
X172750Y78559D01*
X172660Y78339D01*
X172590Y78079D01*
X172540Y77779D01*
X172510Y77439D01*
X172500Y77059D01*
X170500D01*
X170490Y77439D01*
X170460Y77779D01*
X170410Y78079D01*
X170340Y78339D01*
X170250Y78559D01*
X170140Y78739D01*
X170010Y78879D01*
X169860Y78979D01*
X169690Y79039D01*
X169500Y79059D01*
X173500D01*
X173310Y79039D01*
D02*
G37*
G36*
X47391Y231496D02*
X39698Y223802D01*
X39145Y222975D01*
X38951Y222000D01*
Y217808D01*
X5698Y184555D01*
X5145Y183728D01*
X4951Y182752D01*
Y124000D01*
Y96500D01*
X5145Y95525D01*
X5698Y94698D01*
X11698Y88698D01*
X12525Y88145D01*
X13500Y87951D01*
X22456D01*
X22511Y87944D01*
X22654Y87913D01*
X22795Y87870D01*
X22936Y87813D01*
X23079Y87741D01*
X23226Y87651D01*
X23378Y87542D01*
X23534Y87412D01*
X23729Y87225D01*
X23967Y87074D01*
X24201Y86917D01*
X24218Y86914D01*
X24232Y86905D01*
X24509Y86856D01*
X24786Y86801D01*
X24803Y86804D01*
X24820Y86801D01*
X25078Y86858D01*
X25930Y86506D01*
X26500Y86430D01*
Y90500D01*
Y94570D01*
X25930Y94494D01*
X25078Y94142D01*
X24820Y94199D01*
X24803Y94196D01*
X24786Y94199D01*
X24509Y94144D01*
X24232Y94095D01*
X24218Y94086D01*
X24201Y94083D01*
X23967Y93926D01*
X23729Y93775D01*
X23534Y93588D01*
X23378Y93458D01*
X23226Y93349D01*
X23079Y93259D01*
X22936Y93187D01*
X22795Y93130D01*
X22654Y93087D01*
X22511Y93056D01*
X22456Y93049D01*
X14556D01*
X10049Y97556D01*
Y117196D01*
X10549Y117463D01*
X11025Y117145D01*
X12000Y116951D01*
X23811D01*
X23918Y116942D01*
X23982Y116931D01*
X23985Y116915D01*
X24030Y116847D01*
X24055Y116769D01*
X24195Y116601D01*
X24317Y116419D01*
X24374Y116380D01*
Y116374D01*
X24383D01*
X24384Y116373D01*
X24437Y116311D01*
X24631Y116209D01*
X24813Y116087D01*
X24893Y116071D01*
X24965Y116033D01*
X25183Y116013D01*
X25398Y115971D01*
X25478Y115987D01*
X25559Y115979D01*
X25768Y116044D01*
X25983Y116087D01*
X26051Y116132D01*
X26129Y116156D01*
X26297Y116297D01*
X26413Y116374D01*
X27000D01*
Y119500D01*
Y122626D01*
X26413D01*
X26297Y122703D01*
X26129Y122844D01*
X26051Y122868D01*
X25983Y122913D01*
X25768Y122956D01*
X25559Y123021D01*
X25478Y123013D01*
X25398Y123029D01*
X25183Y122987D01*
X24965Y122967D01*
X24893Y122929D01*
X24813Y122913D01*
X24631Y122791D01*
X24437Y122689D01*
X24384Y122627D01*
X24383Y122626D01*
X24374D01*
Y122620D01*
X24317Y122581D01*
X24195Y122399D01*
X24055Y122231D01*
X24030Y122153D01*
X23985Y122085D01*
X23982Y122069D01*
X23918Y122058D01*
X23811Y122049D01*
X13056D01*
X10756Y124349D01*
X10637Y124498D01*
X10492Y124710D01*
X10370Y124925D01*
X10268Y125146D01*
X10184Y125375D01*
X10118Y125614D01*
X10070Y125866D01*
X10049Y126056D01*
Y135193D01*
X10511Y135384D01*
X18198Y127698D01*
X19025Y127145D01*
X20000Y126951D01*
X24689D01*
X24746Y126944D01*
X24832Y126928D01*
X24894Y126912D01*
X24931Y126899D01*
X24932Y126899D01*
X24955Y126878D01*
X24987Y126859D01*
X25053Y126782D01*
X25840Y126241D01*
X26740Y125923D01*
X27691Y125848D01*
X28630Y126022D01*
X28673Y126042D01*
X29061Y125673D01*
X28967Y125447D01*
X28843Y124500D01*
X28967Y123553D01*
X29144Y123126D01*
X28810Y122626D01*
X28000D01*
Y120000D01*
X30626D01*
Y120810D01*
X31126Y121144D01*
X31553Y120967D01*
X32500Y120843D01*
X33447Y120967D01*
X34329Y121333D01*
X35020Y121863D01*
X35045Y121878D01*
X35068Y121899D01*
X35069Y121899D01*
X35106Y121912D01*
X35168Y121928D01*
X35233Y121940D01*
X35347Y121951D01*
X55500D01*
X56476Y122145D01*
X57302Y122698D01*
X58589Y123985D01*
X58633Y124018D01*
X58756Y124098D01*
X58886Y124167D01*
X59026Y124226D01*
X59179Y124277D01*
X59346Y124317D01*
X59530Y124347D01*
X59733Y124365D01*
X59930Y124370D01*
X60000Y124360D01*
X61201Y124518D01*
X62320Y124982D01*
X63281Y125719D01*
X64018Y126680D01*
X64482Y127799D01*
X64640Y129000D01*
X64482Y130201D01*
X64018Y131320D01*
X63281Y132281D01*
X63024Y132477D01*
X63185Y132951D01*
X69444D01*
X81244Y121151D01*
X81363Y121002D01*
X81507Y120790D01*
X81630Y120575D01*
X81732Y120353D01*
X81816Y120125D01*
X81882Y119886D01*
X81930Y119634D01*
X81951Y119445D01*
Y103500D01*
X82145Y102524D01*
X82698Y101698D01*
X86484Y97911D01*
X86518Y97867D01*
X86598Y97744D01*
X86667Y97614D01*
X86726Y97474D01*
X86777Y97321D01*
X86817Y97154D01*
X86847Y96970D01*
X86865Y96767D01*
X86870Y96570D01*
X86860Y96500D01*
X87018Y95299D01*
X87482Y94180D01*
X88219Y93219D01*
X89180Y92482D01*
X90299Y92018D01*
X91500Y91860D01*
X92701Y92018D01*
X93820Y92482D01*
X94781Y93219D01*
X94824Y93275D01*
X94966Y93412D01*
X95122Y93542D01*
X95274Y93651D01*
X95421Y93741D01*
X95564Y93813D01*
X95705Y93870D01*
X95846Y93913D01*
X95989Y93944D01*
X96044Y93951D01*
X103500D01*
X104475Y94145D01*
X105302Y94698D01*
X105489Y94884D01*
X105951Y94693D01*
Y91000D01*
X106145Y90025D01*
X106698Y89198D01*
X114698Y81198D01*
X115524Y80645D01*
X116500Y80451D01*
X125944D01*
X130178Y76217D01*
X129895Y75793D01*
X129675Y75884D01*
X128500Y76039D01*
X127325Y75884D01*
X126231Y75431D01*
X125291Y74709D01*
X125251Y74658D01*
X125121Y74534D01*
X124981Y74418D01*
X124844Y74320D01*
X124710Y74240D01*
X124578Y74175D01*
X124446Y74123D01*
X124312Y74083D01*
X124173Y74054D01*
X124128Y74049D01*
X122872D01*
X122827Y74054D01*
X122688Y74083D01*
X122554Y74123D01*
X122422Y74175D01*
X122290Y74240D01*
X122156Y74320D01*
X122019Y74418D01*
X121879Y74534D01*
X121749Y74658D01*
X121709Y74709D01*
X120769Y75431D01*
X119675Y75884D01*
X118500Y76039D01*
X117325Y75884D01*
X116231Y75431D01*
X115291Y74709D01*
X114569Y73769D01*
X114116Y72675D01*
X113961Y71500D01*
X114116Y70325D01*
X114569Y69231D01*
X115291Y68291D01*
X115342Y68251D01*
X115466Y68121D01*
X115582Y67981D01*
X115680Y67844D01*
X115760Y67710D01*
X115825Y67578D01*
X115877Y67446D01*
X115917Y67312D01*
X115945Y67173D01*
X115951Y67128D01*
Y64136D01*
X116145Y63161D01*
X116698Y62334D01*
X118425Y60606D01*
X118454Y60568D01*
X118508Y60477D01*
X118546Y60394D01*
X118572Y60315D01*
X118588Y60231D01*
X118596Y60138D01*
X118593Y60028D01*
X118575Y59898D01*
X118543Y59761D01*
X118518Y59701D01*
X118360Y58500D01*
X118518Y57299D01*
X118982Y56180D01*
X119719Y55219D01*
X120680Y54482D01*
X121799Y54018D01*
X123000Y53860D01*
X123070Y53870D01*
X123267Y53865D01*
X123470Y53847D01*
X123654Y53817D01*
X123821Y53777D01*
X123974Y53726D01*
X124114Y53667D01*
X124244Y53598D01*
X124367Y53518D01*
X124411Y53484D01*
X126951Y50944D01*
Y47185D01*
X126478Y47024D01*
X126281Y47281D01*
X125320Y48018D01*
X124201Y48482D01*
X123000Y48640D01*
X122930Y48630D01*
X122733Y48635D01*
X122530Y48653D01*
X122346Y48683D01*
X122178Y48723D01*
X122026Y48774D01*
X121886Y48833D01*
X121756Y48902D01*
X121633Y48982D01*
X121589Y49016D01*
X111049Y59556D01*
Y67128D01*
X111055Y67173D01*
X111083Y67312D01*
X111123Y67446D01*
X111175Y67578D01*
X111240Y67710D01*
X111320Y67844D01*
X111417Y67981D01*
X111534Y68121D01*
X111658Y68251D01*
X111709Y68291D01*
X112431Y69231D01*
X112884Y70325D01*
X113039Y71500D01*
X112884Y72675D01*
X112431Y73769D01*
X111709Y74709D01*
X110769Y75431D01*
X109675Y75884D01*
X108500Y76039D01*
X107325Y75884D01*
X106231Y75431D01*
X105291Y74709D01*
X104569Y73769D01*
X104116Y72675D01*
X103961Y71500D01*
X104116Y70325D01*
X104569Y69231D01*
X105291Y68291D01*
X105342Y68251D01*
X105466Y68121D01*
X105582Y67981D01*
X105680Y67844D01*
X105760Y67710D01*
X105825Y67578D01*
X105877Y67446D01*
X105917Y67312D01*
X105946Y67173D01*
X105951Y67128D01*
Y58500D01*
X106145Y57525D01*
X106698Y56698D01*
X117984Y45411D01*
X118018Y45367D01*
X118098Y45244D01*
X118167Y45114D01*
X118226Y44974D01*
X118277Y44822D01*
X118317Y44654D01*
X118347Y44470D01*
X118365Y44267D01*
X118370Y44070D01*
X118360Y44000D01*
X118518Y42799D01*
X118982Y41680D01*
X119719Y40719D01*
X120680Y39982D01*
X121799Y39518D01*
X123000Y39360D01*
X124201Y39518D01*
X125320Y39982D01*
X126281Y40719D01*
X126478Y40976D01*
X126951Y40815D01*
Y23500D01*
X127145Y22524D01*
X127698Y21698D01*
X138846Y10549D01*
X138639Y10049D01*
X126556D01*
X114180Y22425D01*
X114401Y22873D01*
X114500Y22860D01*
X115701Y23018D01*
X116820Y23482D01*
X117781Y24219D01*
X118518Y25180D01*
X118982Y26299D01*
X119140Y27500D01*
X118982Y28701D01*
X118518Y29820D01*
X117781Y30781D01*
X117725Y30824D01*
X117588Y30966D01*
X117458Y31122D01*
X117349Y31274D01*
X117259Y31421D01*
X117187Y31564D01*
X117130Y31705D01*
X117087Y31846D01*
X117056Y31989D01*
X117049Y32044D01*
Y43000D01*
X116855Y43975D01*
X116302Y44802D01*
X99302Y61802D01*
X98475Y62355D01*
X97500Y62549D01*
X88645D01*
X71290Y79905D01*
X71254Y79950D01*
X71205Y80022D01*
X71173Y80077D01*
X71155Y80112D01*
X71155Y80113D01*
X71153Y80144D01*
X71144Y80180D01*
X71152Y80281D01*
X70978Y81220D01*
X70567Y82082D01*
X69947Y82807D01*
X69160Y83348D01*
X68260Y83667D01*
X67309Y83742D01*
X66370Y83568D01*
X66327Y83548D01*
X65939Y83916D01*
X66033Y84143D01*
X66157Y85090D01*
X66033Y86036D01*
X65936Y86268D01*
X66129Y86746D01*
X66297Y86886D01*
X66413Y86964D01*
X67000D01*
Y90090D01*
Y93216D01*
X66413D01*
X66297Y93293D01*
X66129Y93433D01*
X66051Y93457D01*
X65983Y93502D01*
X65768Y93545D01*
X65559Y93611D01*
X65478Y93603D01*
X65398Y93619D01*
X65183Y93576D01*
X64965Y93556D01*
X64893Y93518D01*
X64813Y93502D01*
X64631Y93381D01*
X64437Y93279D01*
X64384Y93216D01*
X64383Y93216D01*
X64374D01*
Y93209D01*
X64317Y93171D01*
X64195Y92989D01*
X64055Y92820D01*
X64030Y92743D01*
X63985Y92675D01*
X63982Y92659D01*
X63918Y92648D01*
X63811Y92638D01*
X31667D01*
X31615Y92646D01*
X31493Y92675D01*
X31380Y92713D01*
X31272Y92763D01*
X31165Y92826D01*
X31056Y92906D01*
X30943Y93005D01*
X30826Y93127D01*
X30670Y93320D01*
X30457Y93498D01*
X30249Y93681D01*
X30228Y93688D01*
X30211Y93702D01*
X29947Y93784D01*
X29684Y93874D01*
X29662Y93872D01*
X29642Y93879D01*
X29366Y93853D01*
X29365Y93853D01*
X29068Y94081D01*
X28070Y94494D01*
X27500Y94570D01*
Y90500D01*
Y86430D01*
X28070Y86506D01*
X28403Y86643D01*
X28411Y86640D01*
X28681Y86544D01*
X28693Y86544D01*
X28705Y86540D01*
X28991Y86558D01*
X29277Y86572D01*
X29288Y86577D01*
X29300Y86578D01*
X29557Y86704D01*
X29816Y86826D01*
X30048Y86998D01*
X30244Y87126D01*
X30432Y87235D01*
X30615Y87327D01*
X30792Y87401D01*
X30963Y87460D01*
X31130Y87504D01*
X31295Y87535D01*
X31347Y87541D01*
X32945D01*
X33134Y87520D01*
X33386Y87471D01*
X33625Y87406D01*
X33854Y87322D01*
X34075Y87219D01*
X34290Y87097D01*
X34502Y86953D01*
X34651Y86834D01*
X57451Y64034D01*
Y54000D01*
X57645Y53025D01*
X58198Y52198D01*
X62347Y48048D01*
X62064Y47624D01*
X61201Y47982D01*
X60000Y48140D01*
X58799Y47982D01*
X57680Y47518D01*
X56719Y46781D01*
X56676Y46725D01*
X56534Y46588D01*
X56378Y46458D01*
X56226Y46349D01*
X56079Y46259D01*
X55936Y46187D01*
X55795Y46130D01*
X55654Y46087D01*
X55511Y46056D01*
X55456Y46049D01*
X48056D01*
X29549Y64556D01*
Y74145D01*
X29556Y74200D01*
X29587Y74343D01*
X29630Y74484D01*
X29687Y74625D01*
X29759Y74768D01*
X29849Y74915D01*
X29958Y75066D01*
X30088Y75223D01*
X30225Y75365D01*
X30281Y75408D01*
X31018Y76369D01*
X31482Y77488D01*
X31640Y78689D01*
X31482Y79890D01*
X31018Y81009D01*
X30281Y81970D01*
X29320Y82707D01*
X28201Y83171D01*
X27000Y83329D01*
X25799Y83171D01*
X24680Y82707D01*
X23719Y81970D01*
X22982Y81009D01*
X22518Y79890D01*
X22360Y78689D01*
X22518Y77488D01*
X22982Y76369D01*
X23719Y75408D01*
X23775Y75365D01*
X23912Y75223D01*
X24042Y75067D01*
X24151Y74915D01*
X24241Y74768D01*
X24313Y74625D01*
X24370Y74484D01*
X24413Y74343D01*
X24444Y74200D01*
X24451Y74145D01*
Y63500D01*
X24645Y62524D01*
X25198Y61698D01*
X45198Y41698D01*
X46025Y41145D01*
X47000Y40951D01*
X55456D01*
X55511Y40944D01*
X55654Y40913D01*
X55795Y40870D01*
X55936Y40813D01*
X56079Y40741D01*
X56226Y40651D01*
X56378Y40542D01*
X56534Y40412D01*
X56676Y40275D01*
X56719Y40219D01*
X56775Y40176D01*
X56912Y40034D01*
X57042Y39878D01*
X57151Y39726D01*
X57241Y39579D01*
X57313Y39436D01*
X57370Y39295D01*
X57413Y39154D01*
X57444Y39011D01*
X57451Y38956D01*
Y32144D01*
X57444Y32090D01*
X57413Y31946D01*
X57370Y31805D01*
X57313Y31664D01*
X57241Y31521D01*
X57151Y31374D01*
X57042Y31223D01*
X56912Y31067D01*
X56775Y30924D01*
X56719Y30881D01*
X55982Y29920D01*
X55518Y28801D01*
X55360Y27600D01*
X55518Y26400D01*
X55982Y25281D01*
X56719Y24320D01*
X57680Y23582D01*
X58799Y23119D01*
X60000Y22961D01*
X61201Y23119D01*
X62320Y23582D01*
X63281Y24320D01*
X64018Y25281D01*
X64482Y26400D01*
X64640Y27600D01*
X64482Y28801D01*
X64018Y29920D01*
X63281Y30881D01*
X63225Y30924D01*
X63088Y31067D01*
X62958Y31223D01*
X62849Y31374D01*
X62759Y31521D01*
X62687Y31664D01*
X62630Y31805D01*
X62587Y31946D01*
X62556Y32090D01*
X62549Y32144D01*
Y38956D01*
X62556Y39011D01*
X62587Y39154D01*
X62630Y39295D01*
X62687Y39436D01*
X62759Y39579D01*
X62849Y39726D01*
X62958Y39878D01*
X63088Y40034D01*
X63225Y40176D01*
X63281Y40219D01*
X64018Y41180D01*
X64482Y42299D01*
X64640Y43500D01*
X64482Y44701D01*
X64124Y45564D01*
X64548Y45847D01*
X92698Y17698D01*
X93524Y17145D01*
X94500Y16951D01*
X100500D01*
X101476Y17145D01*
X102302Y17698D01*
X106853Y22249D01*
X106936Y22307D01*
X107000Y22339D01*
X107064Y22307D01*
X107147Y22249D01*
X123698Y5698D01*
X124524Y5145D01*
X125500Y4951D01*
X191000D01*
X191975Y5145D01*
X192802Y5698D01*
X204302Y17198D01*
X204855Y18024D01*
X205049Y19000D01*
Y29444D01*
X210802Y35198D01*
X231302Y55698D01*
X231458Y55930D01*
X231958Y55779D01*
Y4263D01*
X4263D01*
Y231958D01*
X47200D01*
X47391Y231496D01*
D02*
G37*
G36*
X28948Y76243D02*
X28749Y76005D01*
X28573Y75761D01*
X28421Y75512D01*
X28293Y75257D01*
X28187Y74996D01*
X28105Y74729D01*
X28047Y74457D01*
X28012Y74178D01*
X28000Y73895D01*
X26000D01*
X25988Y74178D01*
X25953Y74457D01*
X25895Y74729D01*
X25813Y74996D01*
X25708Y75257D01*
X25579Y75512D01*
X25427Y75761D01*
X25251Y76005D01*
X25052Y76243D01*
X24830Y76475D01*
X29170D01*
X28948Y76243D01*
D02*
G37*
G36*
X136139Y75291D02*
X136354Y75122D01*
X136581Y74974D01*
X136818Y74845D01*
X137066Y74737D01*
X137325Y74649D01*
X137595Y74582D01*
X137876Y74534D01*
X138167Y74507D01*
X138470Y74500D01*
X135500Y71530D01*
X135493Y71833D01*
X135466Y72124D01*
X135418Y72405D01*
X135351Y72675D01*
X135263Y72934D01*
X135155Y73182D01*
X135026Y73419D01*
X134878Y73646D01*
X134709Y73861D01*
X134520Y74066D01*
X135934Y75480D01*
X136139Y75291D01*
D02*
G37*
G36*
X126358Y69400D02*
X126139Y69609D01*
X125913Y69796D01*
X125681Y69961D01*
X125442Y70104D01*
X125197Y70225D01*
X124945Y70324D01*
X124687Y70401D01*
X124422Y70456D01*
X124150Y70489D01*
X123872Y70500D01*
Y72500D01*
X124150Y72511D01*
X124422Y72544D01*
X124687Y72599D01*
X124945Y72676D01*
X125197Y72775D01*
X125442Y72896D01*
X125681Y73039D01*
X125913Y73204D01*
X126139Y73391D01*
X126358Y73600D01*
Y69400D01*
D02*
G37*
G36*
X120861Y73391D02*
X121087Y73204D01*
X121319Y73039D01*
X121558Y72896D01*
X121803Y72775D01*
X122055Y72676D01*
X122313Y72599D01*
X122579Y72544D01*
X122850Y72511D01*
X123128Y72500D01*
Y70500D01*
X122850Y70489D01*
X122579Y70456D01*
X122313Y70401D01*
X122055Y70324D01*
X121803Y70225D01*
X121558Y70104D01*
X121319Y69961D01*
X121087Y69796D01*
X120861Y69609D01*
X120642Y69400D01*
Y73600D01*
X120861Y73391D01*
D02*
G37*
G36*
X221026Y71905D02*
X221248Y71733D01*
X221481Y71582D01*
X221728Y71451D01*
X221987Y71341D01*
X222258Y71251D01*
X222542Y71183D01*
X222839Y71135D01*
X223148Y71107D01*
X223469Y71100D01*
X220400Y68031D01*
X220393Y68352D01*
X220366Y68661D01*
X220317Y68958D01*
X220249Y69242D01*
X220159Y69513D01*
X220049Y69772D01*
X219918Y70019D01*
X219767Y70253D01*
X219595Y70474D01*
X219403Y70683D01*
X220817Y72097D01*
X221026Y71905D01*
D02*
G37*
G36*
X198597Y70183D02*
X198405Y69974D01*
X198233Y69753D01*
X198082Y69519D01*
X197951Y69272D01*
X197841Y69013D01*
X197751Y68742D01*
X197683Y68458D01*
X197634Y68161D01*
X197607Y67852D01*
X197600Y67531D01*
X194531Y70600D01*
X194852Y70607D01*
X195161Y70635D01*
X195458Y70683D01*
X195742Y70752D01*
X196013Y70841D01*
X196272Y70951D01*
X196519Y71082D01*
X196753Y71233D01*
X196974Y71405D01*
X197183Y71597D01*
X198597Y70183D01*
D02*
G37*
G36*
X138813Y68516D02*
X138507Y68476D01*
X138212Y68419D01*
X137929Y68345D01*
X137659Y68256D01*
X137399Y68151D01*
X137152Y68029D01*
X136916Y67891D01*
X136692Y67737D01*
X136480Y67567D01*
X136280Y67381D01*
X134693Y68622D01*
X134884Y68830D01*
X135052Y69047D01*
X135195Y69274D01*
X135314Y69511D01*
X135409Y69757D01*
X135480Y70012D01*
X135527Y70276D01*
X135550Y70551D01*
X135548Y70834D01*
X135523Y71127D01*
X138813Y68516D01*
D02*
G37*
G36*
X120391Y69139D02*
X120204Y68913D01*
X120039Y68681D01*
X119896Y68442D01*
X119775Y68197D01*
X119676Y67945D01*
X119599Y67687D01*
X119544Y67422D01*
X119511Y67150D01*
X119500Y66872D01*
X117500D01*
X117489Y67150D01*
X117456Y67422D01*
X117401Y67687D01*
X117324Y67945D01*
X117225Y68197D01*
X117104Y68442D01*
X116961Y68681D01*
X116796Y68913D01*
X116609Y69139D01*
X116400Y69358D01*
X120600D01*
X120391Y69139D01*
D02*
G37*
G36*
X110391D02*
X110204Y68913D01*
X110039Y68681D01*
X109896Y68442D01*
X109775Y68197D01*
X109676Y67945D01*
X109599Y67687D01*
X109544Y67422D01*
X109511Y67150D01*
X109500Y66872D01*
X107500D01*
X107489Y67150D01*
X107456Y67422D01*
X107401Y67687D01*
X107324Y67945D01*
X107225Y68197D01*
X107104Y68442D01*
X106961Y68681D01*
X106796Y68913D01*
X106609Y69139D01*
X106400Y69358D01*
X110600D01*
X110391Y69139D01*
D02*
G37*
G36*
X192286Y65330D02*
X192054Y65552D01*
X191816Y65751D01*
X191572Y65927D01*
X191323Y66079D01*
X191068Y66207D01*
X190807Y66313D01*
X190540Y66395D01*
X190268Y66453D01*
X189990Y66488D01*
X189706Y66500D01*
Y68500D01*
X189990Y68512D01*
X190268Y68547D01*
X190540Y68605D01*
X190807Y68687D01*
X191068Y68792D01*
X191323Y68921D01*
X191572Y69073D01*
X191816Y69249D01*
X192054Y69448D01*
X192286Y69670D01*
Y65330D01*
D02*
G37*
G36*
X182946Y69448D02*
X183184Y69249D01*
X183428Y69073D01*
X183677Y68921D01*
X183932Y68792D01*
X184193Y68687D01*
X184460Y68605D01*
X184732Y68547D01*
X185010Y68512D01*
X185294Y68500D01*
Y66500D01*
X185010Y66488D01*
X184732Y66453D01*
X184460Y66395D01*
X184193Y66313D01*
X183932Y66207D01*
X183792Y66136D01*
X183841Y65987D01*
X183951Y65728D01*
X184082Y65482D01*
X184233Y65247D01*
X184405Y65026D01*
X184597Y64817D01*
X183183Y63403D01*
X182974Y63595D01*
X182753Y63767D01*
X182518Y63918D01*
X182272Y64049D01*
X182013Y64159D01*
X181742Y64249D01*
X181458Y64317D01*
X181161Y64366D01*
X180852Y64393D01*
X180531Y64400D01*
X182714Y66583D01*
Y69670D01*
X182946Y69448D01*
D02*
G37*
G36*
X210948Y65054D02*
X210749Y64816D01*
X210573Y64572D01*
X210421Y64323D01*
X210293Y64068D01*
X210187Y63807D01*
X210105Y63540D01*
X210047Y63268D01*
X210012Y62990D01*
X210000Y62706D01*
X208000D01*
X207988Y62990D01*
X207953Y63268D01*
X207895Y63540D01*
X207813Y63807D01*
X207708Y64068D01*
X207579Y64323D01*
X207427Y64572D01*
X207251Y64816D01*
X207052Y65054D01*
X206830Y65286D01*
X211170D01*
X210948Y65054D01*
D02*
G37*
G36*
X144012Y63010D02*
X144047Y62732D01*
X144105Y62460D01*
X144187Y62193D01*
X144292Y61932D01*
X144421Y61677D01*
X144573Y61428D01*
X144749Y61184D01*
X144948Y60946D01*
X145170Y60714D01*
X140830D01*
X141052Y60946D01*
X141251Y61184D01*
X141427Y61428D01*
X141579Y61677D01*
X141708Y61932D01*
X141813Y62193D01*
X141895Y62460D01*
X141953Y62732D01*
X141988Y63010D01*
X142000Y63294D01*
X144000D01*
X144012Y63010D01*
D02*
G37*
G36*
X121374Y62689D02*
X121584Y62516D01*
X121808Y62353D01*
X122047Y62200D01*
X122300Y62057D01*
X122566Y61926D01*
X123142Y61693D01*
X123451Y61592D01*
X123774Y61502D01*
X120014Y59333D01*
X120081Y59623D01*
X120119Y59904D01*
X120127Y60177D01*
X120106Y60442D01*
X120055Y60699D01*
X119974Y60948D01*
X119865Y61189D01*
X119725Y61422D01*
X119556Y61647D01*
X119358Y61864D01*
X121177Y62873D01*
X121374Y62689D01*
D02*
G37*
G36*
X167047Y85430D02*
Y77547D01*
X168945D01*
X168951Y77481D01*
Y58556D01*
X152698Y42302D01*
X152145Y41475D01*
X151951Y40500D01*
Y32044D01*
X151944Y31989D01*
X151913Y31846D01*
X151870Y31705D01*
X151813Y31564D01*
X151741Y31421D01*
X151651Y31274D01*
X151542Y31122D01*
X151412Y30966D01*
X151275Y30824D01*
X151219Y30781D01*
X150482Y29820D01*
X150018Y28701D01*
X149860Y27500D01*
X150018Y26299D01*
X150482Y25180D01*
X151219Y24219D01*
X152180Y23482D01*
X153299Y23018D01*
X154500Y22860D01*
X155701Y23018D01*
X156820Y23482D01*
X157781Y24219D01*
X157824Y24275D01*
X157966Y24412D01*
X158123Y24542D01*
X158274Y24651D01*
X158421Y24741D01*
X158564Y24813D01*
X158705Y24870D01*
X158846Y24913D01*
X158989Y24944D01*
X159044Y24951D01*
X175956D01*
X176011Y24944D01*
X176154Y24913D01*
X176295Y24870D01*
X176436Y24813D01*
X176579Y24741D01*
X176726Y24651D01*
X176877Y24542D01*
X177034Y24412D01*
X177176Y24275D01*
X177219Y24219D01*
X178180Y23482D01*
X179299Y23018D01*
X179653Y22972D01*
X179813Y22498D01*
X176864Y19549D01*
X148056D01*
X137049Y30556D01*
Y65959D01*
X137572Y66482D01*
X137606Y66509D01*
X137737Y66599D01*
X137876Y66681D01*
X138026Y66754D01*
X138187Y66820D01*
X138361Y66877D01*
X138550Y66926D01*
X138753Y66966D01*
X139016Y67001D01*
X139152Y67047D01*
X139675Y67116D01*
X140769Y67569D01*
X140780Y67577D01*
X141150Y67231D01*
X140645Y66475D01*
X140451Y65500D01*
Y63044D01*
X140444Y62989D01*
X140413Y62846D01*
X140370Y62705D01*
X140313Y62564D01*
X140241Y62421D01*
X140151Y62274D01*
X140042Y62122D01*
X139912Y61966D01*
X139725Y61771D01*
X139574Y61533D01*
X139417Y61299D01*
X139414Y61282D01*
X139405Y61268D01*
X139356Y60990D01*
X139301Y60714D01*
X139304Y60697D01*
X139301Y60680D01*
X139358Y60422D01*
X139005Y59570D01*
X138930Y59000D01*
X147070D01*
X146994Y59570D01*
X146642Y60422D01*
X146699Y60680D01*
X146696Y60697D01*
X146699Y60714D01*
X146644Y60990D01*
X146595Y61268D01*
X146586Y61282D01*
X146583Y61299D01*
X146426Y61533D01*
X146275Y61771D01*
X146088Y61966D01*
X145958Y62122D01*
X145849Y62274D01*
X145759Y62421D01*
X145687Y62564D01*
X145630Y62705D01*
X145587Y62846D01*
X145556Y62989D01*
X145549Y63044D01*
Y64444D01*
X166547Y85442D01*
X167047Y85430D01*
D02*
G37*
G36*
X126107Y58148D02*
X126135Y57839D01*
X126183Y57542D01*
X126251Y57258D01*
X126341Y56987D01*
X126451Y56728D01*
X126582Y56481D01*
X126733Y56248D01*
X126905Y56026D01*
X127097Y55817D01*
X125683Y54403D01*
X125474Y54595D01*
X125252Y54767D01*
X125019Y54918D01*
X124772Y55049D01*
X124513Y55159D01*
X124242Y55248D01*
X123958Y55317D01*
X123661Y55366D01*
X123352Y55393D01*
X123031Y55400D01*
X126100Y58469D01*
X126107Y58148D01*
D02*
G37*
G36*
X120526Y47905D02*
X120747Y47733D01*
X120982Y47582D01*
X121228Y47451D01*
X121487Y47341D01*
X121758Y47251D01*
X122042Y47183D01*
X122339Y47135D01*
X122648Y47107D01*
X122969Y47100D01*
X119900Y44031D01*
X119893Y44352D01*
X119866Y44661D01*
X119817Y44958D01*
X119748Y45242D01*
X119659Y45513D01*
X119549Y45772D01*
X119418Y46018D01*
X119267Y46253D01*
X119095Y46474D01*
X118903Y46683D01*
X120317Y48097D01*
X120526Y47905D01*
D02*
G37*
G36*
X218484Y69411D02*
X218518Y69367D01*
X218598Y69244D01*
X218667Y69114D01*
X218726Y68974D01*
X218777Y68822D01*
X218817Y68654D01*
X218847Y68470D01*
X218865Y68267D01*
X218869Y68070D01*
X218860Y68000D01*
X219018Y66799D01*
X219482Y65680D01*
X220219Y64719D01*
X221180Y63982D01*
X222299Y63518D01*
X223500Y63360D01*
X224701Y63518D01*
X225820Y63982D01*
X226451Y64466D01*
X226951Y64220D01*
Y58556D01*
X212011Y43616D01*
X211549Y43807D01*
Y62956D01*
X211556Y63011D01*
X211587Y63154D01*
X211630Y63295D01*
X211687Y63436D01*
X211759Y63579D01*
X211849Y63726D01*
X211958Y63877D01*
X212088Y64034D01*
X212275Y64229D01*
X212426Y64467D01*
X212583Y64701D01*
X212586Y64718D01*
X212595Y64732D01*
X212644Y65010D01*
X212699Y65286D01*
X212696Y65303D01*
X212699Y65320D01*
X212642Y65578D01*
X212995Y66430D01*
X213070Y67000D01*
X209000D01*
X204930D01*
X205006Y66430D01*
X205358Y65578D01*
X205301Y65320D01*
X205304Y65303D01*
X205301Y65286D01*
X205356Y65010D01*
X205405Y64732D01*
X205414Y64718D01*
X205417Y64701D01*
X205574Y64467D01*
X205725Y64229D01*
X205912Y64034D01*
X206042Y63877D01*
X206152Y63726D01*
X206241Y63579D01*
X206313Y63436D01*
X206370Y63295D01*
X206413Y63154D01*
X206444Y63011D01*
X206451Y62956D01*
Y39055D01*
X206430Y38866D01*
X206382Y38614D01*
X206316Y38375D01*
X206232Y38146D01*
X206130Y37925D01*
X206008Y37710D01*
X205863Y37498D01*
X205744Y37349D01*
X200698Y32302D01*
X200145Y31475D01*
X199951Y30500D01*
Y20056D01*
X189944Y10049D01*
X188361D01*
X188154Y10549D01*
X196302Y18698D01*
X196855Y19524D01*
X197049Y20500D01*
Y22956D01*
X197056Y23011D01*
X197087Y23154D01*
X197130Y23295D01*
X197187Y23436D01*
X197259Y23579D01*
X197349Y23726D01*
X197458Y23877D01*
X197588Y24034D01*
X197725Y24176D01*
X197781Y24219D01*
X198518Y25180D01*
X198982Y26299D01*
X199140Y27500D01*
X198982Y28701D01*
X198518Y29820D01*
X197781Y30781D01*
X196820Y31518D01*
X195701Y31982D01*
X194500Y32140D01*
X193299Y31982D01*
X192180Y31518D01*
X191219Y30781D01*
X190482Y29820D01*
X190018Y28701D01*
X189549Y28812D01*
Y61000D01*
X189355Y61976D01*
X188802Y62802D01*
X187116Y64489D01*
X187307Y64951D01*
X189956D01*
X190011Y64944D01*
X190154Y64913D01*
X190295Y64870D01*
X190436Y64813D01*
X190579Y64741D01*
X190726Y64651D01*
X190877Y64542D01*
X191034Y64412D01*
X191176Y64275D01*
X191219Y64219D01*
X192180Y63482D01*
X193299Y63018D01*
X194500Y62860D01*
X195701Y63018D01*
X196820Y63482D01*
X197781Y64219D01*
X198518Y65180D01*
X198982Y66299D01*
X199140Y67500D01*
X199130Y67570D01*
X199135Y67767D01*
X199153Y67970D01*
X199183Y68154D01*
X199223Y68322D01*
X199274Y68474D01*
X199333Y68614D01*
X199402Y68744D01*
X199482Y68867D01*
X199515Y68911D01*
X203556Y72951D01*
X214944D01*
X218484Y69411D01*
D02*
G37*
G36*
X57786Y41330D02*
X57554Y41552D01*
X57316Y41751D01*
X57072Y41927D01*
X56823Y42079D01*
X56568Y42208D01*
X56307Y42313D01*
X56040Y42395D01*
X55768Y42453D01*
X55490Y42488D01*
X55206Y42500D01*
Y44500D01*
X55490Y44512D01*
X55768Y44547D01*
X56040Y44605D01*
X56307Y44687D01*
X56568Y44793D01*
X56823Y44921D01*
X57072Y45073D01*
X57316Y45249D01*
X57554Y45448D01*
X57786Y45670D01*
Y41330D01*
D02*
G37*
G36*
X103107Y43148D02*
X103135Y42839D01*
X103183Y42542D01*
X103252Y42258D01*
X103341Y41987D01*
X103451Y41728D01*
X103582Y41482D01*
X103733Y41247D01*
X103905Y41026D01*
X104097Y40817D01*
X102683Y39403D01*
X102474Y39595D01*
X102252Y39767D01*
X102018Y39918D01*
X101772Y40049D01*
X101513Y40159D01*
X101242Y40249D01*
X100958Y40317D01*
X100661Y40365D01*
X100352Y40393D01*
X100031Y40400D01*
X103100Y43469D01*
X103107Y43148D01*
D02*
G37*
G36*
X61948Y41054D02*
X61749Y40816D01*
X61573Y40572D01*
X61421Y40323D01*
X61292Y40068D01*
X61187Y39807D01*
X61105Y39540D01*
X61047Y39268D01*
X61012Y38990D01*
X61000Y38706D01*
X59000D01*
X58988Y38990D01*
X58953Y39268D01*
X58895Y39540D01*
X58813Y39807D01*
X58707Y40068D01*
X58579Y40323D01*
X58427Y40572D01*
X58251Y40816D01*
X58052Y41054D01*
X57830Y41286D01*
X62170D01*
X61948Y41054D01*
D02*
G37*
G36*
X210014Y41048D02*
X210057Y40751D01*
X210127Y40521D01*
X210226Y40361D01*
X210353Y40268D01*
X210509Y40243D01*
X210693Y40287D01*
X210905Y40399D01*
X211145Y40580D01*
X211414Y40828D01*
X211121Y37707D01*
X209707Y36293D01*
X206586Y36000D01*
X206855Y36289D01*
X207095Y36589D01*
X207307Y36901D01*
X207491Y37225D01*
X207646Y37561D01*
X207774Y37908D01*
X207873Y38267D01*
X207943Y38638D01*
X207986Y39020D01*
X208000Y39414D01*
X210000Y41414D01*
X210014Y41048D01*
D02*
G37*
G36*
X101012Y32111D02*
X101047Y31833D01*
X101105Y31560D01*
X101187Y31294D01*
X101293Y31033D01*
X101421Y30778D01*
X101573Y30528D01*
X101749Y30285D01*
X101948Y30047D01*
X102170Y29814D01*
X97830D01*
X98052Y30047D01*
X98251Y30285D01*
X98427Y30528D01*
X98579Y30778D01*
X98707Y31033D01*
X98813Y31294D01*
X98895Y31560D01*
X98953Y31833D01*
X98988Y32111D01*
X99000Y32395D01*
X101000D01*
X101012Y32111D01*
D02*
G37*
G36*
X61012D02*
X61047Y31833D01*
X61105Y31560D01*
X61187Y31294D01*
X61292Y31033D01*
X61421Y30778D01*
X61573Y30528D01*
X61749Y30285D01*
X61948Y30047D01*
X62170Y29814D01*
X57830D01*
X58052Y30047D01*
X58251Y30285D01*
X58427Y30528D01*
X58579Y30778D01*
X58707Y31033D01*
X58813Y31294D01*
X58895Y31560D01*
X58953Y31833D01*
X58988Y32111D01*
X59000Y32395D01*
X61000D01*
X61012Y32111D01*
D02*
G37*
G36*
X155512Y32010D02*
X155547Y31732D01*
X155605Y31460D01*
X155687Y31193D01*
X155792Y30932D01*
X155921Y30677D01*
X156073Y30428D01*
X156249Y30184D01*
X156448Y29946D01*
X156670Y29714D01*
X152330D01*
X152552Y29946D01*
X152751Y30184D01*
X152927Y30428D01*
X153079Y30677D01*
X153208Y30932D01*
X153313Y31193D01*
X153395Y31460D01*
X153453Y31732D01*
X153488Y32010D01*
X153500Y32294D01*
X155500D01*
X155512Y32010D01*
D02*
G37*
G36*
X115512D02*
X115547Y31732D01*
X115605Y31460D01*
X115687Y31193D01*
X115793Y30932D01*
X115921Y30677D01*
X116073Y30428D01*
X116249Y30184D01*
X116448Y29946D01*
X116670Y29714D01*
X112330D01*
X112552Y29946D01*
X112751Y30184D01*
X112927Y30428D01*
X113079Y30677D01*
X113207Y30932D01*
X113313Y31193D01*
X113395Y31460D01*
X113453Y31732D01*
X113488Y32010D01*
X113500Y32294D01*
X115500D01*
X115512Y32010D01*
D02*
G37*
G36*
X65840Y76831D02*
X66740Y76512D01*
X67326Y76466D01*
X67445Y76436D01*
X67476Y76435D01*
X67477Y76434D01*
X67513Y76417D01*
X67567Y76385D01*
X67622Y76347D01*
X67711Y76274D01*
X85787Y58198D01*
X86614Y57645D01*
X87590Y57451D01*
X96444D01*
X111951Y41944D01*
Y32044D01*
X111944Y31989D01*
X111913Y31846D01*
X111870Y31705D01*
X111813Y31564D01*
X111741Y31421D01*
X111651Y31274D01*
X111542Y31122D01*
X111412Y30966D01*
X111275Y30824D01*
X111219Y30781D01*
X110482Y29820D01*
X110018Y28701D01*
X109549Y28812D01*
Y36500D01*
X109355Y37475D01*
X108802Y38302D01*
X105016Y42089D01*
X104982Y42133D01*
X104902Y42256D01*
X104833Y42386D01*
X104774Y42526D01*
X104723Y42678D01*
X104683Y42846D01*
X104653Y43030D01*
X104635Y43233D01*
X104629Y43502D01*
X104568Y43777D01*
X104513Y44054D01*
X104503Y44068D01*
X104500Y44085D01*
X104338Y44315D01*
X104181Y44550D01*
X104167Y44560D01*
X104157Y44574D01*
X103934Y44716D01*
X103581Y45568D01*
X102924Y46424D01*
X102068Y47081D01*
X101070Y47495D01*
X100500Y47570D01*
Y43500D01*
X100000D01*
Y43000D01*
X95930D01*
X95948Y42864D01*
X95475Y42630D01*
X65049Y73056D01*
Y76768D01*
X65549Y77031D01*
X65840Y76831D01*
D02*
G37*
G36*
X178286Y25330D02*
X178054Y25552D01*
X177816Y25751D01*
X177572Y25927D01*
X177323Y26079D01*
X177068Y26208D01*
X176807Y26313D01*
X176540Y26395D01*
X176268Y26453D01*
X175990Y26488D01*
X175706Y26500D01*
Y28500D01*
X175990Y28512D01*
X176268Y28547D01*
X176540Y28605D01*
X176807Y28687D01*
X177068Y28793D01*
X177323Y28921D01*
X177572Y29073D01*
X177816Y29249D01*
X178054Y29448D01*
X178286Y29670D01*
Y25330D01*
D02*
G37*
G36*
X156946Y29448D02*
X157184Y29249D01*
X157428Y29073D01*
X157677Y28921D01*
X157932Y28793D01*
X158193Y28687D01*
X158460Y28605D01*
X158732Y28547D01*
X159010Y28512D01*
X159294Y28500D01*
Y26500D01*
X159010Y26488D01*
X158732Y26453D01*
X158460Y26395D01*
X158193Y26313D01*
X157932Y26208D01*
X157677Y26079D01*
X157428Y25927D01*
X157184Y25751D01*
X156946Y25552D01*
X156714Y25330D01*
Y29670D01*
X156946Y29448D01*
D02*
G37*
G36*
X108014Y28020D02*
X108057Y27638D01*
X108127Y27267D01*
X108226Y26908D01*
X108353Y26561D01*
X108509Y26225D01*
X108693Y25901D01*
X108905Y25589D01*
X109145Y25289D01*
X109414Y25000D01*
X108414Y23172D01*
X108131Y23426D01*
X107849Y23624D01*
X107566Y23765D01*
X107283Y23850D01*
X107000Y23879D01*
X106717Y23850D01*
X106434Y23765D01*
X106151Y23624D01*
X105869Y23426D01*
X105586Y23172D01*
X104586Y25000D01*
X104855Y25289D01*
X105095Y25589D01*
X105307Y25901D01*
X105491Y26225D01*
X105647Y26561D01*
X105774Y26908D01*
X105873Y27267D01*
X105943Y27638D01*
X105986Y28020D01*
X106000Y28414D01*
X108000D01*
X108014Y28020D01*
D02*
G37*
G36*
X196448Y25054D02*
X196249Y24816D01*
X196073Y24572D01*
X195921Y24323D01*
X195792Y24068D01*
X195687Y23807D01*
X195605Y23540D01*
X195547Y23268D01*
X195512Y22990D01*
X195500Y22706D01*
X193500D01*
X193488Y22990D01*
X193453Y23268D01*
X193395Y23540D01*
X193313Y23807D01*
X193208Y24068D01*
X193079Y24323D01*
X192927Y24572D01*
X192751Y24816D01*
X192552Y25054D01*
X192330Y25286D01*
X196670D01*
X196448Y25054D01*
D02*
G37*
%LPC*%
G36*
X217035Y227372D02*
Y217035D01*
X227372D01*
X227278Y218237D01*
X226879Y219896D01*
X226226Y221473D01*
X225334Y222928D01*
X224226Y224226D01*
X222928Y225334D01*
X221473Y226226D01*
X219896Y226879D01*
X218237Y227278D01*
X217035Y227372D01*
D02*
G37*
G36*
X216035D02*
X214834Y227278D01*
X213175Y226879D01*
X211598Y226226D01*
X210143Y225334D01*
X208845Y224226D01*
X207736Y222928D01*
X206845Y221473D01*
X206192Y219896D01*
X205793Y218237D01*
X205699Y217035D01*
X216035D01*
Y227372D01*
D02*
G37*
G36*
X227372Y216035D02*
X217035D01*
Y205699D01*
X218237Y205793D01*
X219896Y206192D01*
X221473Y206845D01*
X222928Y207736D01*
X224226Y208845D01*
X225334Y210143D01*
X226226Y211598D01*
X226879Y213175D01*
X227278Y214834D01*
X227372Y216035D01*
D02*
G37*
G36*
X216035D02*
X205699D01*
X205793Y214834D01*
X206192Y213175D01*
X206845Y211598D01*
X207736Y210143D01*
X208845Y208845D01*
X210143Y207736D01*
X211598Y206845D01*
X213175Y206192D01*
X214834Y205793D01*
X216035Y205699D01*
Y216035D01*
D02*
G37*
G36*
X224311Y153832D02*
X223371Y153708D01*
X222496Y153345D01*
X221743Y152768D01*
X221166Y152016D01*
X220804Y151141D01*
X220680Y150201D01*
X220804Y149261D01*
X221166Y148385D01*
X221743Y147633D01*
X222496Y147056D01*
X223371Y146694D01*
X224311Y146570D01*
X225251Y146694D01*
X226127Y147056D01*
X226879Y147633D01*
X227456Y148385D01*
X227818Y149261D01*
X227942Y150201D01*
X227818Y151141D01*
X227456Y152016D01*
X226879Y152768D01*
X226127Y153345D01*
X225251Y153708D01*
X224311Y153832D01*
D02*
G37*
G36*
X200689D02*
X199749Y153708D01*
X198873Y153345D01*
X198121Y152768D01*
X197544Y152016D01*
X197182Y151141D01*
X197058Y150201D01*
X197182Y149261D01*
X197544Y148385D01*
X198121Y147633D01*
X198873Y147056D01*
X199749Y146694D01*
X200689Y146570D01*
X201629Y146694D01*
X202504Y147056D01*
X203257Y147633D01*
X203834Y148385D01*
X204196Y149261D01*
X204320Y150201D01*
X204196Y151141D01*
X203834Y152016D01*
X203257Y152768D01*
X202504Y153345D01*
X201629Y153708D01*
X200689Y153832D01*
D02*
G37*
G36*
X142500Y101000D02*
X139000D01*
Y97500D01*
X142500D01*
Y101000D01*
D02*
G37*
G36*
X138000D02*
X134500D01*
Y97500D01*
X138000D01*
Y101000D01*
D02*
G37*
G36*
X20185Y227372D02*
Y217035D01*
X30522D01*
X30427Y218237D01*
X30029Y219896D01*
X29376Y221473D01*
X28484Y222928D01*
X27376Y224226D01*
X26078Y225334D01*
X24623Y226226D01*
X23046Y226879D01*
X21386Y227278D01*
X20185Y227372D01*
D02*
G37*
G36*
X19185D02*
X17984Y227278D01*
X16324Y226879D01*
X14747Y226226D01*
X13292Y225334D01*
X11994Y224226D01*
X10886Y222928D01*
X9994Y221473D01*
X9341Y219896D01*
X8943Y218237D01*
X8848Y217035D01*
X19185D01*
Y227372D01*
D02*
G37*
G36*
X30522Y216035D02*
X20185D01*
Y205699D01*
X21386Y205793D01*
X23046Y206192D01*
X24623Y206845D01*
X26078Y207736D01*
X27376Y208845D01*
X28484Y210143D01*
X29376Y211598D01*
X30029Y213175D01*
X30427Y214834D01*
X30522Y216035D01*
D02*
G37*
G36*
X19185D02*
X8848D01*
X8943Y214834D01*
X9341Y213175D01*
X9994Y211598D01*
X10886Y210143D01*
X11994Y208845D01*
X13292Y207736D01*
X14747Y206845D01*
X16324Y206192D01*
X17984Y205793D01*
X19185Y205699D01*
Y216035D01*
D02*
G37*
G36*
X30626Y119000D02*
X28000D01*
Y116374D01*
X30626D01*
Y119000D01*
D02*
G37*
G36*
X69602Y93619D02*
X69522Y93603D01*
X69441Y93611D01*
X69232Y93545D01*
X69017Y93502D01*
X68949Y93457D01*
X68871Y93433D01*
X68703Y93293D01*
X68587Y93216D01*
X68000D01*
Y90090D01*
Y86964D01*
X68587D01*
X68703Y86886D01*
X68871Y86746D01*
X68949Y86722D01*
X69017Y86677D01*
X69232Y86634D01*
X69441Y86569D01*
X69522Y86576D01*
X69602Y86560D01*
X69817Y86603D01*
X70035Y86623D01*
X70107Y86661D01*
X70187Y86677D01*
X70369Y86798D01*
X70564Y86900D01*
X70616Y86963D01*
X70617Y86964D01*
X70626D01*
Y86970D01*
X70683Y87008D01*
X70805Y87190D01*
X70946Y87359D01*
X70970Y87436D01*
X71015Y87504D01*
X71018Y87521D01*
X71082Y87531D01*
X71189Y87541D01*
X76855D01*
X86484Y77911D01*
X86518Y77867D01*
X86598Y77744D01*
X86667Y77614D01*
X86726Y77474D01*
X86777Y77321D01*
X86817Y77154D01*
X86847Y76970D01*
X86865Y76767D01*
X86871Y76498D01*
X86932Y76222D01*
X86987Y75946D01*
X86997Y75932D01*
X87000Y75915D01*
X87162Y75684D01*
X87319Y75450D01*
X87333Y75440D01*
X87343Y75426D01*
X87566Y75284D01*
X87919Y74432D01*
X88576Y73576D01*
X89432Y72919D01*
X90430Y72505D01*
X91000Y72430D01*
Y76500D01*
X91500D01*
Y77000D01*
X95570D01*
X95495Y77570D01*
X95081Y78568D01*
X94424Y79424D01*
X93568Y80081D01*
X92716Y80434D01*
X92574Y80657D01*
X92560Y80667D01*
X92550Y80681D01*
X92316Y80838D01*
X92085Y81000D01*
X92068Y81003D01*
X92054Y81013D01*
X91778Y81068D01*
X91502Y81129D01*
X91233Y81135D01*
X91030Y81153D01*
X90846Y81183D01*
X90679Y81223D01*
X90526Y81274D01*
X90386Y81333D01*
X90256Y81402D01*
X90133Y81482D01*
X90089Y81516D01*
X79713Y91892D01*
X78886Y92444D01*
X77910Y92638D01*
X71189D01*
X71082Y92648D01*
X71018Y92659D01*
X71015Y92675D01*
X70970Y92743D01*
X70946Y92820D01*
X70805Y92989D01*
X70683Y93171D01*
X70626Y93209D01*
Y93216D01*
X70617D01*
X70616Y93216D01*
X70564Y93279D01*
X70369Y93381D01*
X70187Y93502D01*
X70107Y93518D01*
X70035Y93556D01*
X69817Y93576D01*
X69602Y93619D01*
D02*
G37*
G36*
X95570Y76000D02*
X92000D01*
Y72430D01*
X92570Y72505D01*
X93568Y72919D01*
X94424Y73576D01*
X95081Y74432D01*
X95495Y75430D01*
X95570Y76000D01*
D02*
G37*
G36*
X38811Y78619D02*
X37871Y78496D01*
X36996Y78133D01*
X36244Y77556D01*
X35666Y76804D01*
X35304Y75928D01*
X35180Y74988D01*
X35304Y74048D01*
X35666Y73173D01*
X36244Y72421D01*
X36996Y71844D01*
X37871Y71481D01*
X38811Y71357D01*
X39751Y71481D01*
X40627Y71844D01*
X41379Y72421D01*
X41956Y73173D01*
X42318Y74048D01*
X42442Y74988D01*
X42318Y75928D01*
X41956Y76804D01*
X41379Y77556D01*
X40627Y78133D01*
X39751Y78496D01*
X38811Y78619D01*
D02*
G37*
G36*
X15189D02*
X14249Y78496D01*
X13373Y78133D01*
X12621Y77556D01*
X12044Y76804D01*
X11682Y75928D01*
X11558Y74988D01*
X11682Y74048D01*
X12044Y73173D01*
X12621Y72421D01*
X13373Y71844D01*
X14249Y71481D01*
X15189Y71357D01*
X16129Y71481D01*
X17005Y71844D01*
X17756Y72421D01*
X18334Y73173D01*
X18696Y74048D01*
X18820Y74988D01*
X18696Y75928D01*
X18334Y76804D01*
X17756Y77556D01*
X17005Y78133D01*
X16129Y78496D01*
X15189Y78619D01*
D02*
G37*
G36*
X217035Y33874D02*
Y23537D01*
X227372D01*
X227278Y24739D01*
X226879Y26398D01*
X226226Y27975D01*
X225334Y29430D01*
X224226Y30728D01*
X222928Y31836D01*
X221473Y32728D01*
X219896Y33381D01*
X218237Y33780D01*
X217035Y33874D01*
D02*
G37*
G36*
X216035D02*
X214834Y33780D01*
X213175Y33381D01*
X211598Y32728D01*
X210143Y31836D01*
X208845Y30728D01*
X207736Y29430D01*
X206845Y27975D01*
X206192Y26398D01*
X205793Y24739D01*
X205699Y23537D01*
X216035D01*
Y33874D01*
D02*
G37*
G36*
X20185Y31872D02*
Y21535D01*
X30522D01*
X30427Y22737D01*
X30029Y24396D01*
X29376Y25973D01*
X28484Y27428D01*
X27376Y28726D01*
X26078Y29834D01*
X24623Y30726D01*
X23046Y31379D01*
X21386Y31778D01*
X20185Y31872D01*
D02*
G37*
G36*
X19185D02*
X17984Y31778D01*
X16324Y31379D01*
X14747Y30726D01*
X13292Y29834D01*
X11994Y28726D01*
X10886Y27428D01*
X9994Y25973D01*
X9341Y24396D01*
X8943Y22737D01*
X8848Y21535D01*
X19185D01*
Y31872D01*
D02*
G37*
G36*
X227372Y22537D02*
X217035D01*
Y12201D01*
X218237Y12295D01*
X219896Y12694D01*
X221473Y13347D01*
X222928Y14239D01*
X224226Y15347D01*
X225334Y16645D01*
X226226Y18100D01*
X226879Y19677D01*
X227278Y21336D01*
X227372Y22537D01*
D02*
G37*
G36*
X216035D02*
X205699D01*
X205793Y21336D01*
X206192Y19677D01*
X206845Y18100D01*
X207736Y16645D01*
X208845Y15347D01*
X210143Y14239D01*
X211598Y13347D01*
X213175Y12694D01*
X214834Y12295D01*
X216035Y12201D01*
Y22537D01*
D02*
G37*
G36*
X30522Y20535D02*
X20185D01*
Y10199D01*
X21386Y10293D01*
X23046Y10692D01*
X24623Y11345D01*
X26078Y12236D01*
X27376Y13345D01*
X28484Y14643D01*
X29376Y16098D01*
X30029Y17674D01*
X30427Y19334D01*
X30522Y20535D01*
D02*
G37*
G36*
X19185D02*
X8848D01*
X8943Y19334D01*
X9341Y17674D01*
X9994Y16098D01*
X10886Y14643D01*
X11994Y13345D01*
X13292Y12236D01*
X14747Y11345D01*
X16324Y10692D01*
X17984Y10293D01*
X19185Y10199D01*
Y20535D01*
D02*
G37*
%LPD*%
G36*
X69622Y91900D02*
X69683Y91730D01*
X69783Y91580D01*
X69924Y91450D01*
X70105Y91340D01*
X70326Y91250D01*
X70588Y91180D01*
X70890Y91130D01*
X71232Y91100D01*
X71614Y91090D01*
Y89090D01*
X71232Y89080D01*
X70890Y89050D01*
X70588Y89000D01*
X70326Y88930D01*
X70105Y88840D01*
X69924Y88730D01*
X69783Y88600D01*
X69683Y88450D01*
X69622Y88280D01*
X69602Y88090D01*
Y92090D01*
X69622Y91900D01*
D02*
G37*
G36*
X89026Y80405D02*
X89248Y80233D01*
X89482Y80082D01*
X89728Y79951D01*
X89987Y79841D01*
X90258Y79751D01*
X90542Y79683D01*
X90839Y79634D01*
X91148Y79607D01*
X91469Y79600D01*
X88400Y76531D01*
X88393Y76852D01*
X88366Y77161D01*
X88317Y77458D01*
X88248Y77742D01*
X88159Y78013D01*
X88049Y78272D01*
X87918Y78518D01*
X87767Y78752D01*
X87595Y78974D01*
X87403Y79183D01*
X88817Y80597D01*
X89026Y80405D01*
D02*
G37*
%LPC*%
G36*
X147070Y58000D02*
X138930D01*
X139005Y57430D01*
X139358Y56578D01*
X139301Y56320D01*
X139304Y56303D01*
X139301Y56286D01*
X139356Y56010D01*
X139405Y55732D01*
X139414Y55718D01*
X139417Y55701D01*
X139574Y55467D01*
X139725Y55229D01*
X139912Y55034D01*
X140042Y54878D01*
X140151Y54726D01*
X140241Y54579D01*
X140313Y54436D01*
X140370Y54295D01*
X140413Y54154D01*
X140444Y54011D01*
X140451Y53956D01*
Y48544D01*
X140444Y48489D01*
X140413Y48346D01*
X140370Y48205D01*
X140313Y48064D01*
X140241Y47921D01*
X140151Y47774D01*
X140042Y47622D01*
X139912Y47466D01*
X139725Y47271D01*
X139574Y47033D01*
X139417Y46799D01*
X139414Y46782D01*
X139405Y46768D01*
X139356Y46490D01*
X139301Y46214D01*
X139304Y46197D01*
X139301Y46180D01*
X139358Y45922D01*
X139005Y45070D01*
X138930Y44500D01*
X147070D01*
X146994Y45070D01*
X146642Y45922D01*
X146699Y46180D01*
X146696Y46197D01*
X146699Y46214D01*
X146644Y46490D01*
X146595Y46768D01*
X146586Y46782D01*
X146583Y46799D01*
X146426Y47033D01*
X146275Y47271D01*
X146088Y47466D01*
X145958Y47622D01*
X145849Y47774D01*
X145759Y47921D01*
X145687Y48064D01*
X145630Y48205D01*
X145587Y48346D01*
X145556Y48489D01*
X145549Y48544D01*
Y53956D01*
X145556Y54011D01*
X145587Y54154D01*
X145630Y54295D01*
X145687Y54436D01*
X145759Y54579D01*
X145849Y54726D01*
X145958Y54878D01*
X146088Y55034D01*
X146275Y55229D01*
X146426Y55467D01*
X146583Y55701D01*
X146586Y55718D01*
X146595Y55732D01*
X146644Y56010D01*
X146699Y56286D01*
X146696Y56303D01*
X146699Y56320D01*
X146642Y56578D01*
X146994Y57430D01*
X147070Y58000D01*
D02*
G37*
G36*
Y43500D02*
X143500D01*
Y39930D01*
X144070Y40005D01*
X145068Y40419D01*
X145924Y41076D01*
X146581Y41932D01*
X146994Y42930D01*
X147070Y43500D01*
D02*
G37*
G36*
X142500D02*
X138930D01*
X139005Y42930D01*
X139419Y41932D01*
X140076Y41076D01*
X140932Y40419D01*
X141930Y40005D01*
X142500Y39930D01*
Y43500D01*
D02*
G37*
%LPD*%
G36*
X144948Y56054D02*
X144749Y55816D01*
X144573Y55572D01*
X144421Y55323D01*
X144292Y55068D01*
X144187Y54807D01*
X144105Y54540D01*
X144047Y54268D01*
X144012Y53990D01*
X144000Y53706D01*
X142000D01*
X141988Y53990D01*
X141953Y54268D01*
X141895Y54540D01*
X141813Y54807D01*
X141708Y55068D01*
X141579Y55323D01*
X141427Y55572D01*
X141251Y55816D01*
X141052Y56054D01*
X140830Y56286D01*
X145170D01*
X144948Y56054D01*
D02*
G37*
G36*
X144012Y48510D02*
X144047Y48232D01*
X144105Y47960D01*
X144187Y47693D01*
X144292Y47432D01*
X144421Y47177D01*
X144573Y46928D01*
X144749Y46684D01*
X144948Y46446D01*
X145170Y46214D01*
X140830D01*
X141052Y46446D01*
X141251Y46684D01*
X141427Y46928D01*
X141579Y47177D01*
X141708Y47432D01*
X141813Y47693D01*
X141895Y47960D01*
X141953Y48232D01*
X141988Y48510D01*
X142000Y48794D01*
X144000D01*
X144012Y48510D01*
D02*
G37*
%LPC*%
G36*
X209500Y71570D02*
Y68000D01*
X213070D01*
X212995Y68570D01*
X212581Y69568D01*
X211924Y70424D01*
X211068Y71081D01*
X210070Y71495D01*
X209500Y71570D01*
D02*
G37*
G36*
X208500D02*
X207930Y71495D01*
X206932Y71081D01*
X206076Y70424D01*
X205419Y69568D01*
X205006Y68570D01*
X204930Y68000D01*
X208500D01*
Y71570D01*
D02*
G37*
G36*
X99500Y47570D02*
X98930Y47495D01*
X97932Y47081D01*
X97076Y46424D01*
X96419Y45568D01*
X96005Y44570D01*
X95930Y44000D01*
X99500D01*
Y47570D01*
D02*
G37*
%LPD*%
G54D10*
X13500Y90500D02*
X27000D01*
X7500Y96500D02*
X13500Y90500D01*
X7500Y96500D02*
Y124000D01*
X12000Y119500D02*
X27500D01*
X7500Y124000D02*
X12000Y119500D01*
X7500Y124000D02*
Y182752D01*
X27000Y63500D02*
Y78689D01*
X35000Y90090D02*
X67500D01*
X27410D02*
X35000D01*
X60000Y65090D01*
Y54000D02*
Y65090D01*
X67500Y90090D02*
X77910D01*
X27000Y90500D02*
X27410Y90090D01*
X100000Y27600D02*
Y34500D01*
X62500Y72000D02*
Y85090D01*
Y72000D02*
X100000Y34500D01*
X94500Y19500D02*
X100500D01*
X60000Y54000D02*
X94500Y19500D01*
X212500Y146500D02*
Y165000D01*
X197500Y180000D02*
X212500Y165000D01*
X198811Y134689D02*
X212500D01*
X186750Y146750D02*
X198811Y134689D01*
X27000Y63500D02*
X47000Y43500D01*
X60000D01*
X135500Y165500D02*
X138500Y162500D01*
X122000Y165500D02*
X135500D01*
X138500Y129500D02*
Y162500D01*
X143000Y58500D02*
Y65500D01*
X165500Y88000D01*
X216500D01*
X229500Y75000D01*
Y57500D02*
Y75000D01*
X209000Y37000D02*
X229500Y57500D01*
X209000Y37000D02*
Y67500D01*
X202500Y30500D02*
X209000Y37000D01*
X202500Y19000D02*
Y30500D01*
X131500Y91500D02*
X177500D01*
X128500Y94500D02*
X131500Y91500D01*
X177500D02*
X186500Y100500D01*
X147000Y17000D02*
X177920D01*
X187000Y26080D01*
X134500Y29500D02*
X147000Y17000D01*
X129500Y23500D02*
X141000Y12000D01*
X186000D02*
X194500Y20500D01*
X141000Y12000D02*
X186000D01*
X107000Y26000D02*
X125500Y7500D01*
X191000D02*
X202500Y19000D01*
X125500Y7500D02*
X191000D01*
X28846Y180000D02*
X50500D01*
X19642Y170795D02*
X28846Y180000D01*
X91500Y159050D02*
Y201000D01*
Y159050D02*
X96500Y154050D01*
X84500Y208000D02*
X91500Y201000D01*
X84500Y208000D02*
Y220000D01*
X65500Y180000D02*
X84500D01*
X7500Y182752D02*
X41500Y216752D01*
Y222000D02*
X50000Y230500D01*
X41500Y216752D02*
Y222000D01*
X50000Y230500D02*
X114000D01*
X124500Y220000D01*
X88000Y226500D02*
X94500Y220000D01*
X57000Y226500D02*
X88000D01*
X50500Y220000D02*
X57000Y226500D01*
X65500Y220000D02*
X84500D01*
X50500Y214000D02*
Y220000D01*
X11500Y175000D02*
X50500Y214000D01*
X11500Y138000D02*
Y175000D01*
X50500Y180000D02*
X65500D01*
X29346Y135500D02*
X70500D01*
X19642Y145205D02*
X29346Y135500D01*
X37358Y145205D02*
X37461Y145102D01*
X59898D01*
X60000Y145000D01*
X154500Y180000D02*
X197500D01*
X146000D02*
X155000Y171000D01*
X124500Y180000D02*
X146000D01*
X19642Y145205D02*
Y170795D01*
X108500Y220000D02*
X124500D01*
X100000Y211500D02*
X108500Y220000D01*
X154500D02*
X168900D01*
X184000Y204900D01*
X11500Y138000D02*
X20000Y129500D01*
X32500Y124500D02*
X55500D01*
X60000Y129000D01*
X20000Y129500D02*
X27500D01*
X123750Y150750D02*
X131000Y158000D01*
X110750Y154250D02*
X122000Y165500D01*
X154500Y27500D02*
Y40500D01*
Y27500D02*
X180500D01*
X139500Y169500D02*
X156500Y152500D01*
X100000Y179500D02*
X110000Y169500D01*
X139500D01*
X140750Y174000D02*
X156750Y158000D01*
X171000D01*
X100000Y159500D02*
Y179500D01*
X131000Y144500D02*
Y158000D01*
X100000Y179500D02*
Y211500D01*
X156500Y128125D02*
Y152500D01*
X121500Y174000D02*
X140750D01*
X180500Y171000D02*
X186750Y164750D01*
X155000Y171000D02*
X180500D01*
X116000Y179500D02*
X121500Y174000D01*
X116000Y179500D02*
Y188500D01*
X120500Y124500D02*
X143500D01*
X100000Y145000D02*
X120500Y124500D01*
X84500Y103500D02*
Y121500D01*
X70500Y135500D02*
X84500Y121500D01*
X165000Y119625D02*
X171375D01*
X138625D02*
X165000D01*
X156500Y128125D02*
X165000Y119625D01*
X171375D02*
X171500Y119750D01*
X138500Y119500D02*
X138625Y119625D01*
X138500Y101500D02*
Y119500D01*
X134500Y29500D02*
Y67015D01*
X129500Y23500D02*
Y52000D01*
X100500Y19500D02*
X107000Y26000D01*
Y36500D01*
X100000Y43500D02*
X107000Y36500D01*
X60000Y30000D02*
Y43500D01*
X128500Y94500D02*
Y101500D01*
X171500Y129750D02*
X182750D01*
X199000Y113500D01*
X171250Y130250D02*
Y144250D01*
X171000Y144500D02*
X171250Y144250D01*
X218000Y113500D02*
X223500Y108000D01*
X199000Y113500D02*
X218000D01*
X180500Y67500D02*
X187000Y61000D01*
Y26080D02*
Y61000D01*
X138500Y71015D02*
Y71500D01*
X134500Y67015D02*
X138500Y71015D01*
X123000Y58500D02*
X129500Y52000D01*
X194500Y20500D02*
Y27500D01*
X84500Y103500D02*
X91500Y96500D01*
X154500Y40500D02*
X171500Y57500D01*
X216000Y75500D02*
X223500Y68000D01*
X202500Y75500D02*
X216000D01*
X194500Y67500D02*
X202500Y75500D01*
X176500Y111500D02*
X180500Y107500D01*
X209000D01*
X176500Y111500D02*
Y125000D01*
Y109000D02*
Y111500D01*
X171500Y104000D02*
X176500Y109000D01*
X208500Y108000D02*
X209000Y107500D01*
X216000Y100500D02*
X223500Y108000D01*
X186500Y100500D02*
X216000D01*
X60000Y159500D02*
Y159600D01*
Y145000D02*
Y157899D01*
X67500Y80090D02*
X87590Y60000D01*
X97500D01*
X114500Y43000D01*
Y27500D02*
Y43000D01*
X171500Y57500D02*
Y82000D01*
X180500Y67500D02*
X194500D01*
X100000Y120000D02*
Y129000D01*
Y120000D02*
X118500Y101500D01*
X171500Y97000D02*
Y104000D01*
X108500Y91000D02*
Y101500D01*
Y91000D02*
X116500Y83000D01*
X127000D01*
X138500Y71500D01*
X143000Y44000D02*
Y58500D01*
X108500D02*
X123000Y44000D01*
X108500Y58500D02*
Y71500D01*
X123000Y58500D02*
Y59636D01*
X118500Y64136D02*
X123000Y59636D01*
X118500Y64136D02*
Y71500D01*
X128500D01*
X91500Y96500D02*
X103500D01*
X108500Y101500D01*
X77910Y90090D02*
X91500Y76500D01*
X116000Y188500D02*
X122700Y195200D01*
X184000D01*
X186750Y146750D02*
Y164750D01*
X37358Y145205D02*
Y170795D01*
G54D17*
X212500Y134689D02*
D03*
Y146500D02*
D03*
X27000Y90500D02*
D03*
Y78689D02*
D03*
X194500Y67500D02*
D03*
Y27500D02*
D03*
X209000Y107500D02*
D03*
Y67500D02*
D03*
X223500Y68000D02*
D03*
Y108000D02*
D03*
X123000Y44000D02*
D03*
X143000D02*
D03*
X60000Y27600D02*
D03*
X100000D02*
D03*
X123000Y58500D02*
D03*
X143000D02*
D03*
X131000Y144500D02*
D03*
X171000D02*
D03*
X154500Y27500D02*
D03*
X114500D02*
D03*
X60000Y43500D02*
D03*
X100000D02*
D03*
X184000Y195200D02*
D03*
X100000Y129000D02*
D03*
X60000D02*
D03*
Y145000D02*
D03*
X100000D02*
D03*
X180500Y67500D02*
D03*
Y27500D02*
D03*
X131000Y159600D02*
D03*
X171000D02*
D03*
X100000Y159500D02*
D03*
X60000D02*
D03*
X91500Y76500D02*
D03*
Y96500D02*
D03*
G54D19*
X200689Y150201D02*
D03*
X224311D02*
D03*
X38811Y74988D02*
D03*
X15189D02*
D03*
G54D29*
X84500Y220000D02*
D03*
X94500D02*
D03*
X124500D02*
D03*
X154500D02*
D03*
Y180000D02*
D03*
X124500D02*
D03*
X84500D02*
D03*
X19642Y170795D02*
D03*
Y145205D02*
D03*
X37358D02*
D03*
Y170795D02*
D03*
G54D31*
X67500Y90090D02*
D03*
X171500Y119750D02*
D03*
X138500Y119500D02*
D03*
X27500D02*
D03*
G54D32*
X62500Y85090D02*
D03*
X67500Y80090D02*
D03*
X176500Y124750D02*
D03*
X171500Y129750D02*
D03*
X143500Y124500D02*
D03*
X138500Y129500D02*
D03*
X32500Y124500D02*
D03*
X27500Y129500D02*
D03*
G54D33*
X216535Y23037D02*
D03*
X19685Y21035D02*
D03*
X216535Y216535D02*
D03*
X19685D02*
D03*
G54D34*
X65500Y220000D02*
D03*
Y180000D02*
D03*
X171500Y97000D02*
D03*
X50500Y220000D02*
D03*
Y180000D02*
D03*
G54D35*
X184000Y204900D02*
D03*
G54D36*
X171500Y82000D02*
D03*
G54D37*
X108500Y101500D02*
D03*
Y71500D02*
D03*
X138500D02*
D03*
X128500D02*
D03*
X118500D02*
D03*
Y101500D02*
D03*
X128500D02*
D03*
G54D38*
X138500D02*
D03*
G54D39*
X96500Y154050D02*
X110550D01*
X89750Y150750D02*
X123750D01*
X84500Y145500D02*
X89750Y150750D01*
X110550Y154050D02*
X110750Y154250D01*
X84500Y121500D02*
Y145500D01*
M02*
