G04*
G04 #@! TF.GenerationSoftware,Altium Limited,Altium Designer,20.0.13 (296)*
G04*
G04 Layer_Color=2752767*
%FSLAX25Y25*%
%MOIN*%
G70*
G01*
G75*
%ADD40C,0.00200*%
%ADD41C,0.00267*%
G54D40*
X211700Y133889D02*
Y135489D01*
X213300D01*
Y133889D01*
X211700D01*
Y145700D02*
Y147300D01*
X213300D01*
Y145700D01*
X211700D01*
X26200Y89700D02*
Y91300D01*
X27800D01*
Y89700D01*
X26200D01*
Y77889D02*
Y79489D01*
X27800D01*
Y77889D01*
X26200D01*
X67500Y89290D02*
X66700Y90890D01*
X68300D01*
X67500Y89290D01*
X62500Y84290D02*
X61700Y85890D01*
X63300D01*
X62500Y84290D01*
X67500Y79290D02*
X66700Y80890D01*
X68300D01*
X67500Y79290D01*
X216535Y22237D02*
X216935Y22637D01*
X217335D01*
X216935Y23037D01*
X217335Y23437D01*
X216935D01*
X216535Y23837D01*
X216135Y23437D01*
X215735D01*
X216135Y23037D01*
X215735Y22637D01*
X216135D01*
X216535Y22237D01*
X19685Y20235D02*
X20085Y20635D01*
X20485D01*
X20085Y21035D01*
X20485Y21435D01*
X20085D01*
X19685Y21835D01*
X19285Y21435D01*
X18885D01*
X19285Y21035D01*
X18885Y20635D01*
X19285D01*
X19685Y20235D01*
X216535Y215735D02*
X216935Y216135D01*
X217335D01*
X216935Y216535D01*
X217335Y216935D01*
X216935D01*
X216535Y217335D01*
X216135Y216935D01*
X215735D01*
X216135Y216535D01*
X215735Y216135D01*
X216135D01*
X216535Y215735D01*
X19685D02*
X20085Y216135D01*
X20485D01*
X20085Y216535D01*
X20485Y216935D01*
X20085D01*
X19685Y217335D01*
X19285Y216935D01*
X18885D01*
X19285Y216535D01*
X18885Y216135D01*
X19285D01*
X19685Y215735D01*
X64700Y219200D02*
X65100Y220000D01*
X64700Y220800D01*
X65500Y220400D01*
X66300Y220800D01*
X65900Y220000D01*
X66300Y219200D01*
X65500Y219600D01*
X64700Y219200D01*
Y179200D02*
X65100Y180000D01*
X64700Y180800D01*
X65500Y180400D01*
X66300Y180800D01*
X65900Y180000D01*
X66300Y179200D01*
X65500Y179600D01*
X64700Y179200D01*
X194100Y67100D02*
Y66700D01*
X194900D01*
Y67100D01*
X195300D01*
Y67900D01*
X194900D01*
Y68300D01*
X194100D01*
Y67900D01*
X193700D01*
Y67100D01*
X194100D01*
Y27100D02*
Y26700D01*
X194900D01*
Y27100D01*
X195300D01*
Y27900D01*
X194900D01*
Y28300D01*
X194100D01*
Y27900D01*
X193700D01*
Y27100D01*
X194100D01*
X208600Y107100D02*
Y106700D01*
X209400D01*
Y107100D01*
X209800D01*
Y107900D01*
X209400D01*
Y108300D01*
X208600D01*
Y107900D01*
X208200D01*
Y107100D01*
X208600D01*
Y67100D02*
Y66700D01*
X209400D01*
Y67100D01*
X209800D01*
Y67900D01*
X209400D01*
Y68300D01*
X208600D01*
Y67900D01*
X208200D01*
Y67100D01*
X208600D01*
X223100Y67600D02*
Y67200D01*
X223900D01*
Y67600D01*
X224300D01*
Y68400D01*
X223900D01*
Y68800D01*
X223100D01*
Y68400D01*
X222700D01*
Y67600D01*
X223100D01*
Y107600D02*
Y107200D01*
X223900D01*
Y107600D01*
X224300D01*
Y108400D01*
X223900D01*
Y108800D01*
X223100D01*
Y108400D01*
X222700D01*
Y107600D01*
X223100D01*
X122600Y43600D02*
Y43200D01*
X123400D01*
Y43600D01*
X123800D01*
Y44400D01*
X123400D01*
Y44800D01*
X122600D01*
Y44400D01*
X122200D01*
Y43600D01*
X122600D01*
X142600D02*
Y43200D01*
X143400D01*
Y43600D01*
X143800D01*
Y44400D01*
X143400D01*
Y44800D01*
X142600D01*
Y44400D01*
X142200D01*
Y43600D01*
X142600D01*
X59600Y27200D02*
Y26801D01*
X60400D01*
Y27200D01*
X60800D01*
Y28001D01*
X60400D01*
Y28400D01*
X59600D01*
Y28001D01*
X59200D01*
Y27200D01*
X59600D01*
X99600D02*
Y26801D01*
X100400D01*
Y27200D01*
X100800D01*
Y28001D01*
X100400D01*
Y28400D01*
X99600D01*
Y28001D01*
X99200D01*
Y27200D01*
X99600D01*
X122600Y58100D02*
Y57700D01*
X123400D01*
Y58100D01*
X123800D01*
Y58900D01*
X123400D01*
Y59300D01*
X122600D01*
Y58900D01*
X122200D01*
Y58100D01*
X122600D01*
X142600D02*
Y57700D01*
X143400D01*
Y58100D01*
X143800D01*
Y58900D01*
X143400D01*
Y59300D01*
X142600D01*
Y58900D01*
X142200D01*
Y58100D01*
X142600D01*
X130600Y144100D02*
Y143700D01*
X131400D01*
Y144100D01*
X131800D01*
Y144900D01*
X131400D01*
Y145300D01*
X130600D01*
Y144900D01*
X130200D01*
Y144100D01*
X130600D01*
X170600D02*
Y143700D01*
X171400D01*
Y144100D01*
X171800D01*
Y144900D01*
X171400D01*
Y145300D01*
X170600D01*
Y144900D01*
X170200D01*
Y144100D01*
X170600D01*
X171500Y118950D02*
X170700Y120550D01*
X172300D01*
X171500Y118950D01*
X176500Y123950D02*
X175700Y125550D01*
X177300D01*
X176500Y123950D01*
X171500Y128950D02*
X170700Y130550D01*
X172300D01*
X171500Y128950D01*
X138500Y118700D02*
X137700Y120300D01*
X139300D01*
X138500Y118700D01*
X143500Y123700D02*
X142700Y125300D01*
X144300D01*
X143500Y123700D01*
X138500Y128700D02*
X137700Y130300D01*
X139300D01*
X138500Y128700D01*
X154100Y27100D02*
Y26700D01*
X154900D01*
Y27100D01*
X155300D01*
Y27900D01*
X154900D01*
Y28300D01*
X154100D01*
Y27900D01*
X153700D01*
Y27100D01*
X154100D01*
X114100D02*
Y26700D01*
X114900D01*
Y27100D01*
X115300D01*
Y27900D01*
X114900D01*
Y28300D01*
X114100D01*
Y27900D01*
X113700D01*
Y27100D01*
X114100D01*
X59600Y43100D02*
Y42700D01*
X60400D01*
Y43100D01*
X60800D01*
Y43900D01*
X60400D01*
Y44300D01*
X59600D01*
Y43900D01*
X59200D01*
Y43100D01*
X59600D01*
X99600D02*
Y42700D01*
X100400D01*
Y43100D01*
X100800D01*
Y43900D01*
X100400D01*
Y44300D01*
X99600D01*
Y43900D01*
X99200D01*
Y43100D01*
X99600D01*
X183600Y204500D02*
Y204100D01*
X184400D01*
Y204500D01*
X184800D01*
Y205300D01*
X184400D01*
Y205700D01*
X183600D01*
Y205300D01*
X183200D01*
Y204500D01*
X183600D01*
Y194800D02*
Y194400D01*
X184400D01*
Y194800D01*
X184800D01*
Y195600D01*
X184400D01*
Y196000D01*
X183600D01*
Y195600D01*
X183200D01*
Y194800D01*
X183600D01*
X27500Y118700D02*
X26700Y120300D01*
X28300D01*
X27500Y118700D01*
X32500Y123700D02*
X31700Y125300D01*
X33300D01*
X32500Y123700D01*
X27500Y128700D02*
X26700Y130300D01*
X28300D01*
X27500Y128700D01*
X99600Y128600D02*
Y128200D01*
X100400D01*
Y128600D01*
X100800D01*
Y129400D01*
X100400D01*
Y129800D01*
X99600D01*
Y129400D01*
X99200D01*
Y128600D01*
X99600D01*
X59600D02*
Y128200D01*
X60400D01*
Y128600D01*
X60800D01*
Y129400D01*
X60400D01*
Y129800D01*
X59600D01*
Y129400D01*
X59200D01*
Y128600D01*
X59600D01*
Y144600D02*
Y144200D01*
X60400D01*
Y144600D01*
X60800D01*
Y145400D01*
X60400D01*
Y145800D01*
X59600D01*
Y145400D01*
X59200D01*
Y144600D01*
X59600D01*
X99600D02*
Y144200D01*
X100400D01*
Y144600D01*
X100800D01*
Y145400D01*
X100400D01*
Y145800D01*
X99600D01*
Y145400D01*
X99200D01*
Y144600D01*
X99600D01*
X180100Y67100D02*
Y66700D01*
X180900D01*
Y67100D01*
X181300D01*
Y67900D01*
X180900D01*
Y68300D01*
X180100D01*
Y67900D01*
X179700D01*
Y67100D01*
X180100D01*
Y27100D02*
Y26700D01*
X180900D01*
Y27100D01*
X181300D01*
Y27900D01*
X180900D01*
Y28300D01*
X180100D01*
Y27900D01*
X179700D01*
Y27100D01*
X180100D01*
X130600Y159201D02*
Y158800D01*
X131400D01*
Y159201D01*
X131800D01*
Y160001D01*
X131400D01*
Y160400D01*
X130600D01*
Y160001D01*
X130200D01*
Y159201D01*
X130600D01*
X170600D02*
Y158800D01*
X171400D01*
Y159201D01*
X171800D01*
Y160001D01*
X171400D01*
Y160400D01*
X170600D01*
Y160001D01*
X170200D01*
Y159201D01*
X170600D01*
X99600Y159100D02*
Y158700D01*
X100400D01*
Y159100D01*
X100800D01*
Y159900D01*
X100400D01*
Y160300D01*
X99600D01*
Y159900D01*
X99200D01*
Y159100D01*
X99600D01*
X59600D02*
Y158700D01*
X60400D01*
Y159100D01*
X60800D01*
Y159900D01*
X60400D01*
Y160300D01*
X59600D01*
Y159900D01*
X59200D01*
Y159100D01*
X59600D01*
X170700Y81200D02*
X171100Y82000D01*
X170700Y82800D01*
X171500Y82400D01*
X172300Y82800D01*
X171900Y82000D01*
X172300Y81200D01*
X171500Y81600D01*
X170700Y81200D01*
Y96200D02*
X171100Y97000D01*
X170700Y97800D01*
X171500Y97400D01*
X172300Y97800D01*
X171900Y97000D01*
X172300Y96200D01*
X171500Y96600D01*
X170700Y96200D01*
X108100Y101100D02*
Y100700D01*
X108900D01*
Y101100D01*
X109300D01*
Y101900D01*
X108900D01*
Y102300D01*
X108100D01*
Y101900D01*
X107700D01*
Y101100D01*
X108100D01*
Y71100D02*
Y70700D01*
X108900D01*
Y71100D01*
X109300D01*
Y71900D01*
X108900D01*
Y72300D01*
X108100D01*
Y71900D01*
X107700D01*
Y71100D01*
X108100D01*
X138100D02*
Y70700D01*
X138900D01*
Y71100D01*
X139300D01*
Y71900D01*
X138900D01*
Y72300D01*
X138100D01*
Y71900D01*
X137700D01*
Y71100D01*
X138100D01*
X128100D02*
Y70700D01*
X128900D01*
Y71100D01*
X129300D01*
Y71900D01*
X128900D01*
Y72300D01*
X128100D01*
Y71900D01*
X127700D01*
Y71100D01*
X128100D01*
X118100D02*
Y70700D01*
X118900D01*
Y71100D01*
X119300D01*
Y71900D01*
X118900D01*
Y72300D01*
X118100D01*
Y71900D01*
X117700D01*
Y71100D01*
X118100D01*
Y101100D02*
Y100700D01*
X118900D01*
Y101100D01*
X119300D01*
Y101900D01*
X118900D01*
Y102300D01*
X118100D01*
Y101900D01*
X117700D01*
Y101100D01*
X118100D01*
X128100D02*
Y100700D01*
X128900D01*
Y101100D01*
X129300D01*
Y101900D01*
X128900D01*
Y102300D01*
X128100D01*
Y101900D01*
X127700D01*
Y101100D01*
X128100D01*
X138100D02*
Y100700D01*
X138900D01*
Y101100D01*
X139300D01*
Y101900D01*
X138900D01*
Y102300D01*
X138100D01*
Y101900D01*
X137700D01*
Y101100D01*
X138100D01*
X49700Y219200D02*
X50100Y220000D01*
X49700Y220800D01*
X50500Y220400D01*
X51300Y220800D01*
X50900Y220000D01*
X51300Y219200D01*
X50500Y219600D01*
X49700Y219200D01*
Y179200D02*
X50100Y180000D01*
X49700Y180800D01*
X50500Y180400D01*
X51300Y180800D01*
X50900Y180000D01*
X51300Y179200D01*
X50500Y179600D01*
X49700Y179200D01*
X83700Y219200D02*
X84100D01*
X84500Y219600D01*
X84900Y219200D01*
X85300D01*
Y219600D01*
X84900Y220000D01*
X85300Y220400D01*
Y220800D01*
X84900D01*
X84500Y220400D01*
X84100Y220800D01*
X83700D01*
Y220400D01*
X84100Y220000D01*
X83700Y219600D01*
Y219200D01*
X93700D02*
X94100D01*
X94500Y219600D01*
X94900Y219200D01*
X95300D01*
Y219600D01*
X94900Y220000D01*
X95300Y220400D01*
Y220800D01*
X94900D01*
X94500Y220400D01*
X94100Y220800D01*
X93700D01*
Y220400D01*
X94100Y220000D01*
X93700Y219600D01*
Y219200D01*
X123700D02*
X124100D01*
X124500Y219600D01*
X124900Y219200D01*
X125300D01*
Y219600D01*
X124900Y220000D01*
X125300Y220400D01*
Y220800D01*
X124900D01*
X124500Y220400D01*
X124100Y220800D01*
X123700D01*
Y220400D01*
X124100Y220000D01*
X123700Y219600D01*
Y219200D01*
X153700D02*
X154100D01*
X154500Y219600D01*
X154900Y219200D01*
X155300D01*
Y219600D01*
X154900Y220000D01*
X155300Y220400D01*
Y220800D01*
X154900D01*
X154500Y220400D01*
X154100Y220800D01*
X153700D01*
Y220400D01*
X154100Y220000D01*
X153700Y219600D01*
Y219200D01*
Y179200D02*
X154100D01*
X154500Y179600D01*
X154900Y179200D01*
X155300D01*
Y179600D01*
X154900Y180000D01*
X155300Y180400D01*
Y180800D01*
X154900D01*
X154500Y180400D01*
X154100Y180800D01*
X153700D01*
Y180400D01*
X154100Y180000D01*
X153700Y179600D01*
Y179200D01*
X123700D02*
X124100D01*
X124500Y179600D01*
X124900Y179200D01*
X125300D01*
Y179600D01*
X124900Y180000D01*
X125300Y180400D01*
Y180800D01*
X124900D01*
X124500Y180400D01*
X124100Y180800D01*
X123700D01*
Y180400D01*
X124100Y180000D01*
X123700Y179600D01*
Y179200D01*
X83700D02*
X84100D01*
X84500Y179600D01*
X84900Y179200D01*
X85300D01*
Y179600D01*
X84900Y180000D01*
X85300Y180400D01*
Y180800D01*
X84900D01*
X84500Y180400D01*
X84100Y180800D01*
X83700D01*
Y180400D01*
X84100Y180000D01*
X83700Y179600D01*
Y179200D01*
X18842Y169995D02*
X19242Y170795D01*
X18842Y171595D01*
X19642Y171195D01*
X20442Y171595D01*
X20042Y170795D01*
X20442Y169995D01*
X19642Y170395D01*
X18842Y169995D01*
Y144405D02*
X19242Y145205D01*
X18842Y146005D01*
X19642Y145605D01*
X20442Y146005D01*
X20042Y145205D01*
X20442Y144405D01*
X19642Y144805D01*
X18842Y144405D01*
X36558D02*
X36958Y145205D01*
X36558Y146005D01*
X37358Y145605D01*
X38158Y146005D01*
X37758Y145205D01*
X38158Y144405D01*
X37358Y144805D01*
X36558Y144405D01*
Y169995D02*
X36958Y170795D01*
X36558Y171595D01*
X37358Y171195D01*
X38158Y171595D01*
X37758Y170795D01*
X38158Y169995D01*
X37358Y170395D01*
X36558Y169995D01*
X91100Y76100D02*
Y75700D01*
X91900D01*
Y76100D01*
X92300D01*
Y76900D01*
X91900D01*
Y77300D01*
X91100D01*
Y76900D01*
X90700D01*
Y76100D01*
X91100D01*
Y96100D02*
Y95700D01*
X91900D01*
Y96100D01*
X92300D01*
Y96900D01*
X91900D01*
Y97300D01*
X91100D01*
Y96900D01*
X90700D01*
Y96100D01*
X91100D01*
G54D41*
X201489Y150201D02*
X200936Y150962D01*
X200042Y150671D01*
Y149731D01*
X200936Y149440D01*
X201489Y150201D01*
X225111D02*
X224558Y150962D01*
X223664Y150671D01*
Y149731D01*
X224558Y149440D01*
X225111Y150201D01*
X39611Y74988D02*
X39058Y75749D01*
X38164Y75458D01*
Y74518D01*
X39058Y74227D01*
X39611Y74988D01*
X15989D02*
X15436Y75749D01*
X14542Y75458D01*
Y74518D01*
X15436Y74227D01*
X15989Y74988D01*
M02*
